<svg xmlns="http://www.w3.org/2000/svg" width="36" height="36" viewBox="0 0 36 36">
  <path fill="none" stroke="#000" d="M16.5,18.0002 L16.5,21.5002 L16.5,25.0002 M19.5,18.0002 L19.5,25.0002 M21.5,24.9997 L21.5,18.4997 L25,18.4997 M24,21.4997 L21.5,21.4997 M15,24.4997 C13.816,24.4997 13.073,24.3337 12.322,23.7497 C11.632,23.2137 11.5,22.2937 11.5,21.4997 C11.5,20.6807 11.592,19.7917 12.322,19.2497 C13.069,18.6967 13.852,18.4997 15,18.4997 M34,30.4997 L29.5,30.4997 L29.5,25.9997 M2,12.5002 L6.5,12.5002 L6.5,17.0002 M6.5,30.4997 C3.988,28.3907 2.5,25.0367 2.5,21.4997 C2.5,18.0037 4.038,14.6087 6.5,12.4997 M29.5,12.5002 C32.078,14.6092 33.5,17.9102 33.5,21.5002 C33.5,25.0602 32.041,28.3902 29.5,30.5002 M16.5,21.4997 L19.5,21.4997 M18.5,9.0002 L18.5,5.5002 L22.5,5.5002 L19.5,11.5002 C19.5,14.0222 26.883,13.3042 27.5,17.5002 L27.5,23.5002 C27.5,26.7202 25.365,29.5002 22.145,29.5002 L13.855,29.5002 C10.635,29.5002 8.5,26.7202 8.5,23.5002 L8.5,17.5002 C9.117,13.3042 16.5,14.0222 16.5,11.5002 L14.5,6.5002 L18.5,6.5002 M16.5,11.5002 L19.5,11.5002"/>
</svg>
