<svg xmlns="http://www.w3.org/2000/svg" width="36" height="36" viewBox="0 0 36 36">
  <path fill="none" stroke="#000" d="M31.5,9 L26.25,3.75 L21,9 M18.77415,30.2388 C16.99215,29.3988 15.75015,27.6003 15.75015,25.5003 L15.75015,10.5003 C15.75015,8.3988 14.50815,6.6003 12.72615,5.7618 M23.2266,30.2388 C25.0071,29.3988 26.2506,27.6003 26.2506,25.5003 L26.2506,3.7503 M8.27415,5.7612 C6.49215,6.6012 5.25015,8.3997 5.25015,10.4997 L5.25015,28.4997 M23.25,30 C23.25,31.242 22.242,32.25 21,32.25 C19.758,32.25 18.75,31.242 18.75,30 C18.75,28.758 19.758,27.75 21,27.75 C22.242,27.75 23.25,28.758 23.25,30 Z M12.75,6 C12.75,7.242 11.7435,8.25 10.5,8.25 C9.2565,8.25 8.25,7.242 8.25,6 C8.25,4.758 9.2565,3.75 10.5,3.75 C11.7435,3.75 12.75,4.758 12.75,6 Z"/>
</svg>
