<svg xmlns="http://www.w3.org/2000/svg" width="36" height="36" viewBox="0 0 36 36">
  <g fill="none" fill-rule="evenodd">
    <path stroke="#000" d="M3.75,26.25 L27.75,26.25 L27.75,14.25 L3.75,14.25 L3.75,26.25 Z M27.75,21.75 L32.25,21.75 L32.25,9.75 L8.25,9.75 L8.25,14.25"/>
    <path fill="#000" d="M10.365,17.2551 C11.172,17.2551 11.823,17.5176 12.315,18.0411 C12.6675,18.4086 12.861,18.8316 12.8985,19.3146 L11.64,19.3146 C11.571,18.9906 11.4225,18.7401 11.196,18.5646 C10.971,18.3861 10.6845,18.2991 10.338,18.2991 C9.783,18.2991 9.369,18.5286 9.0945,18.9846 C8.889,19.3296 8.787,19.7556 8.787,20.2596 C8.787,20.7786 8.895,21.2076 9.111,21.5541 C9.384,21.9951 9.7905,22.2156 10.329,22.2156 C10.713,22.2156 11.019,22.1046 11.247,21.8811 C11.4735,21.6606 11.6145,21.3351 11.6685,20.9121 L12.939,20.9121 C12.8955,21.5046 12.693,22.0086 12.3315,22.4316 C11.8575,22.9821 11.1855,23.2551 10.317,23.2551 C9.393,23.2551 8.673,22.9386 8.1585,22.2981 C7.7205,21.7536 7.5,21.0681 7.5,20.2536 C7.5,19.3956 7.761,18.6831 8.283,18.1116 C8.805,17.5416 9.4995,17.2551 10.365,17.2551 Z M15.0972,17.39355 L15.0972,19.56855 L17.4867,19.56855 L17.4867,17.39355 L18.7617,17.39355 L18.7617,23.12055 L17.4867,23.12055 L17.4867,20.62455 L15.0972,20.62455 L15.0972,23.12055 L13.8222,23.12055 L13.8222,17.39355 L15.0972,17.39355 Z M24,17.39355 L24,18.45105 L21.162,18.45105 L21.162,19.77855 L23.6325,19.77855 L23.6325,20.76255 L21.162,20.76255 L21.162,23.12055 L19.8885,23.12055 L19.8885,17.39355 L24,17.39355 Z"/>
  </g>
</svg>
