<svg xmlns="http://www.w3.org/2000/svg" width="36" height="36" viewBox="0 0 36 36">
  <path fill="none" stroke="#000" d="M11.25,30.7515 L21.75,30.7515 L21.75,15.7515 L11.25,15.7515 L11.25,30.7515 Z M13.5,18.7503 L19.488,18.7503 M13.5,21.74955 L19.488,21.74955 M13.5,24.74955 L19.488,24.74955 M13.5,27.74955 L19.488,27.74955 M12.78735,12.78765 C13.73835,11.83815 15.05085,11.25015 16.49985,11.25015 C17.94885,11.25015 19.26135,11.83815 20.21235,12.78765 M10.6662,10.66665 C12.1602,9.17265 14.2227,8.25015 16.4997,8.25015 C18.7782,8.25015 20.8407,9.17265 22.3332,10.66665 M8.5452,8.54475 C10.5807,6.50925 13.3932,5.25075 16.4997,5.25075 C19.6077,5.25075 22.4202,6.50925 24.4557,8.54475"/>
</svg>
