<svg xmlns="http://www.w3.org/2000/svg" width="36" height="36" viewBox="0 0 36 36">
  <path fill="none" stroke="#000" d="M21.75,24.75 L27.75,24.75 L24.75,17.25 L21.75,17.25 L21.75,24.75 Z M10.5,30.75 L15.75,30.75 L15.75,12.75 L13.5,12.75 M18.75,12.75075 L18.75,30.7507507 L25.5,30.7507507 C30.6555,30.75225 33.255,28.41825 31.5,24.00075 L27.5385,16.15875 C26.328,13.95975 24.672,12.71475 21,12.75075 L18.75,12.75075 Z M15.75,26.2515 L18.75,26.2515 M18.75,27.7515 L15.75,27.7515 M15,9.75 L22.5,9.75 M6.75,6.7485 C6.75,7.9695 7.344,9.0645 8.2485,9.75 C9.153,9.0645 9.747,7.9695 9.747,6.7485 C9.747,5.526 9.153,4.4355 8.2485,3.75 C7.344,4.4355 6.75,5.526 6.75,6.7485 Z M8.25,12.75 C5.7645,12.75 3.75,10.7355 3.75,8.25 C6.2355,8.25 8.25,10.2645 8.25,12.75 Z M8.25,12.75 C10.7355,12.75 12.75,10.7355 12.75,8.25 C10.2645,8.25 8.25,10.2645 8.25,12.75 Z M8.25,20.25 C5.7645,20.25 3.75,18.2355 3.75,15.75 C6.2355,15.75 8.25,17.7645 8.25,20.25 Z M8.25,20.25 C10.7355,20.25 12.75,18.2355 12.75,15.75 C10.2645,15.75 8.25,17.7645 8.25,20.25 Z M8.25,27.75 C5.7645,27.75 3.75,25.7355 3.75,23.25 C6.2355,23.25 8.25,25.2645 8.25,27.75 Z M8.25,27.75 C10.7355,27.75 12.75,25.7355 12.75,23.25 C10.2645,23.25 8.25,25.2645 8.25,27.75 Z M8.25,31.5 L8.25,9.75"/>
</svg>
