<svg xmlns="http://www.w3.org/2000/svg" width="36" height="36" viewBox="0 0 36 36">
  <path fill="none" stroke="#000" d="M22.9746,24.9942 C25.8441,21.7977 27.7506,16.5147 27.7506,13.0872 C27.7506,7.9302 23.3841,3.7497 18.0006,3.7497 C12.6156,3.7497 8.2506,7.9302 8.2506,13.0872 C8.2506,16.4997 10.1736,21.7872 13.0266,24.9912 M15.66645,32.24955 C14.05545,32.24955 12.75045,30.90555 12.75045,29.24955 C12.75045,27.59355 14.05545,26.24955 15.66645,26.24955 L20.33295,26.24955 C21.94545,26.24955 23.25045,27.59355 23.25045,29.24955 C23.25045,30.90555 21.94545,32.24955 20.33295,32.24955 L15.66645,32.24955 Z M15,17.2503 C12.9285,17.2503 11.25,15.5703 11.25,13.5003 C11.25,11.4288 12.9285,9.7503 15,9.7503 L21,9.7503 C23.0715,9.7503 24.75,11.4288 24.75,13.5003 C24.75,15.5703 23.0715,17.2503 21,17.2503 L15,17.2503 Z M23.25,29.24955 L23.25,26.24955 C23.25,24.59355 21.945,23.24955 20.334,23.24955 L15.666,23.24955 C14.0565,23.24955 12.75,24.59355 12.75,26.24955 L12.75,29.24955 M23.25,26.24955 L26.25,27.74955 L29.25,21.74955 L26.0055,20.12805 M10.0041,20.12355 L6.7506,21.74955 L9.7506,27.74955 L12.7506,26.24955 M13.0269,24.99135 L13.0269,24.99135 M14.25,23.6421 L14.25,22.3926 C14.25,21.2091 15.183,20.2491 16.3335,20.2491 L19.6665,20.2491 C20.817,20.2491 21.75,21.2091 21.75,22.3926 L21.75,23.6421"/>
</svg>
