<svg xmlns="http://www.w3.org/2000/svg" width="36" height="36" viewBox="0 0 36 36">
  <g fill="none" fill-rule="evenodd">
    <path stroke="#000" d="M14.5,28.4997 C14.5,29.0527 14.053,29.4997 13.5,29.4997 C12.947,29.4997 12.5,29.0527 12.5,28.4997 C12.5,27.9477 12.947,27.4997 13.5,27.4997 C14.053,27.4997 14.5,27.9477 14.5,28.4997 Z M10.5,23.4997 C10.5,24.6037 9.604,25.4997 8.5,25.4997 C7.396,25.4997 6.5,24.6037 6.5,23.4997 C6.5,22.3957 7.396,21.4997 8.5,21.4997 C9.604,21.4997 10.5,22.3957 10.5,23.4997 Z M9.9141,24.9138 L12.7931,27.7928 M20.666,24.2683 L21.008,25.2073 M19.7764,22.5671 L20.2764,23.4331 M18.6055,21.0466 L19.2485,21.8126 M17.1875,19.7517 L17.9545,20.3957 M17.5,14.5 L30.5,14.5 L30.5,4.5 L17.5,4.5 L17.5,14.5 Z M32.5,3.0002 L32.5,23.0002 M3.5,28.4997 L10,28.4997 M17,28.4997 L22.5,28.4997 L22.5,32.4997 L3.5,32.4997 L3.5,13.4997 L12.5,13.4997 L10.5,17.4997 L10.5,19.4997 C15.471,19.4997 19.5,23.5287 19.5,28.4997 M10.5,17.5002 L3.5,17.5002"/>
    <path fill="#000" d="M21,8 L24,8 L24,4.5 L21,4.5 L21,8 Z M27,8 L30.5,8 L30.5,4.5 L27,4.5 L27,8 Z M21,14.5 L24,14.5 L24,11 L21,11 L21,14.5 Z M27,14.5 L30.5,14.5 L30.5,11 L27,11 L27,14.5 Z M17.5,11 L21,11 L21,8 L17.5,8 L17.5,11 Z M24,11 L27,11 L27,8 L24,8 L24,11 Z"/>
  </g>
</svg>
