<svg xmlns="http://www.w3.org/2000/svg" width="36" height="36" viewBox="0 0 36 36">
  <path fill="none" stroke="#000" d="M3.5,28.4997 L10,28.4997 M14.8838,19.1867 L14.8838,19.1867 M14.5,28.4997 C14.5,29.0527 14.053,29.4997 13.5,29.4997 C12.947,29.4997 12.5,29.0527 12.5,28.4997 C12.5,27.9477 12.947,27.4997 13.5,27.4997 C14.053,27.4997 14.5,27.9477 14.5,28.4997 Z M10.5,23.4997 C10.5,24.6037 9.604,25.4997 8.5,25.4997 C7.396,25.4997 6.5,24.6037 6.5,23.4997 C6.5,22.3957 7.396,21.4997 8.5,21.4997 C9.604,21.4997 10.5,22.3957 10.5,23.4997 Z M17,28.4997 L22.5,28.4997 L22.5,32.4997 L3.5,32.4997 L3.5,13.4997 L12.5,13.4997 L10.5,17.4997 L10.5,19.4997 C15.471,19.4997 19.5,23.5287 19.5,28.4997 M9.9141,24.9138 L12.7931,27.7928 M20.666,24.2683 L21.008,25.2073 M19.7764,22.5671 L20.2764,23.4331 M18.6055,21.0466 L19.2485,21.8126 M17.1875,19.7517 L17.9545,20.3957 M17.5,4.51 L32.5,4.51 L32.5,15.51 L17.5,15.48 L17.5,4.51 Z M17.5,7.5197 L32.5,7.5197 M26,9.4997 L30.98,9.4997 M19,11.4997 L24,11.4997 M19,13.4997 L24,13.4997 M26,11.4997 L31,11.4997 M26,13.4997 L31,13.4997 M20.5,5.9997 L20.5,2.9997 M29.5,5.9997 L29.5,2.9997 M10.5,17.5002 L3.5,17.5002"/>
</svg>
