<svg xmlns="http://www.w3.org/2000/svg" width="36" height="36" viewBox="0 0 36 36">
  <path fill="none" stroke="#000" d="M5.25,6.0003 L5.25,30.7503 L30,30.7503 M10.07805,14.10315 L5.24955,21.00015 M10.77765,14.1939 L13.22265,20.3064 M20.25,12.0003 C20.25,12.4143 19.914,12.7503 19.5,12.7503 C19.086,12.7503 18.75,12.4143 18.75,12.0003 C18.75,11.5863 19.086,11.2503 19.5,11.2503 C19.914,11.2503 20.25,11.5863 20.25,12.0003 Z M27.75,9.0003 C27.75,9.4143 27.414,9.7503 27,9.7503 C26.586,9.7503 26.25,9.4143 26.25,9.0003 C26.25,8.5863 26.586,8.2503 27,8.2503 C27.414,8.2503 27.75,8.5863 27.75,9.0003 Z M11.25,13.5003 C11.25,13.9143 10.914,14.2503 10.5,14.2503 C10.086,14.2503 9.75,13.9143 9.75,13.5003 C9.75,13.0863 10.086,12.7503 10.5,12.7503 C10.914,12.7503 11.25,13.0863 11.25,13.5003 Z M14.25,20.99955 C14.25,21.41355 13.914,21.74955 13.5,21.74955 C13.086,21.74955 12.75,21.41355 12.75,20.99955 C12.75,20.58705 13.086,20.24955 13.5,20.24955 C13.914,20.24955 14.25,20.58705 14.25,20.99955 Z M17.25,25.49955 C17.25,25.91355 16.914,26.24955 16.5,26.24955 C16.086,26.24955 15.75,25.91355 15.75,25.49955 C15.75,25.08705 16.086,24.74955 16.5,24.74955 C16.914,24.74955 17.25,25.08705 17.25,25.49955 Z M20.25,18.0003 C20.25,18.4143 19.914,18.7503 19.5,18.7503 C19.086,18.7503 18.75,18.4143 18.75,18.0003 C18.75,17.5863 19.086,17.2503 19.5,17.2503 C19.914,17.2503 20.25,17.5863 20.25,18.0003 Z M9.75,23.99955 C9.75,24.41355 9.414,24.74955 9,24.74955 C8.586,24.74955 8.25,24.41355 8.25,23.99955 C8.25,23.58705 8.586,23.24955 9,23.24955 C9.414,23.24955 9.75,23.58705 9.75,23.99955 Z M20.19435,11.7228 L26.30535,9.2778 M8.64105,24.6456 L5.24955,30.7491 M26.27925,16.64385 L20.22075,17.85585 M27.75,16.5003 C27.75,16.9143 27.414,17.2503 27,17.2503 C26.586,17.2503 26.25,16.9143 26.25,16.5003 C26.25,16.0863 26.586,15.7503 27,15.7503 C27.414,15.7503 27.75,16.0863 27.75,16.5003 Z M13.90875,20.38725 L19.09125,12.61275 M9.72075,24.1446 L15.77925,25.3566 M19.22235,18.6939 L16.77735,24.8064"/>
</svg>
