<svg xmlns="http://www.w3.org/2000/svg" width="36" height="36" viewBox="0 0 36 36">
  <path fill="none" stroke="#000" d="M18,29.25 L9.75,29.25 L9.75,6.75 L18.75,6.75 L26.25,14.25 L26.25,16.5 M26.25,14.25 L18.75,14.25 L18.75,6.75 M13.5,18.75 L21,18.75 M13.4964,21.75 L17.9964,21.75 M13.5,24.75 L18,24.75 M23.25,23.25 L26.25,25.5 L29.25,21.75 M32.25,24.75 C32.25,28.098 29.598,30.75 26.25,30.75 C22.902,30.75 20.25,28.098 20.25,24.75 C20.25,21.402 22.902,18.75 26.25,18.75 C29.598,18.75 32.25,21.402 32.25,24.75 Z"/>
</svg>
