<svg xmlns="http://www.w3.org/2000/svg" width="36" height="36" viewBox="0 0 36 36">
  <path fill="none" stroke="#000" d="M16.5,27.75 L8.25,27.75 L8.25,5.25 L17.25,5.25 L24.75,12.75 L24.75,15 M24.75,12.75 L17.25,12.75 L17.25,5.25 M12,17.25 L19.5,17.25 M11.9964,20.25 L16.4964,20.25 M12,23.25 L16.5,23.25 M30.75,19.5 C30.75,20.742 28.7355,21.75 26.25,21.75 C23.7645,21.75 21.75,20.742 21.75,19.5 C21.75,18.2565 23.7645,17.25 26.25,17.25 C28.7355,17.25 30.75,18.2565 30.75,19.5 Z M30.75,19.5 L30.75,22.5 C30.75,23.742 28.7355,24.75 26.25,24.75 C23.7645,24.75 21.75,23.742 21.75,22.5 L21.75,19.5 M21.75,20.39655 C20.0085,20.70555 18.75,21.52305 18.75,22.49955 C18.75,23.74155 20.7645,24.74955 23.25,24.74955 C23.7795,24.74955 24.279,24.69555 24.75,24.61305 M18.75,22.5 L18.75,25.5 C18.75,26.742 20.7645,27.75 23.25,27.75 C25.7355,27.75 27.75,26.742 27.75,25.5 L27.75,24.612 M21.75,27.6123 L21.75,30.0003 C21.75,31.2423 23.7645,32.2503 26.25,32.2503 C28.7355,32.2503 30.75,31.2423 30.75,30.0003 L30.75,27.0003 M21.9609,27.64455 C22.5174,28.57005 24.2169,29.24955 26.2494,29.24955 C28.7364,29.24955 30.7494,28.24155 30.7494,26.99955 C30.7494,26.02155 29.4924,25.19805 27.7494,24.88755"/>
</svg>
