<svg xmlns="http://www.w3.org/2000/svg" width="36" height="36" viewBox="0 0 36 36">
  <g fill="none" fill-rule="evenodd">
    <path stroke="#000" d="M21,17.2119 L12,17.2119 M17.2881,13.5 L21.0006,17.2125 L17.2881,20.925"/>
    <path fill="#000" d="M8.73195,10.5 L8.73195,25.491 L6.78345,25.491 L6.78345,14.622 L3.00045,14.622 L3.00045,13.269 C4.41495,13.269 5.48145,13.002 6.19995,12.468 C6.68445,12.1065 7.06395,11.4495 7.33695,10.5 L8.73195,10.5 Z M28.3455,10.50015 C29.664,10.50015 30.741,10.85265 31.575,11.55615 C32.019,11.93265 32.367,12.41415 32.6205,13.00215 C32.874,13.59015 33,14.22165 33,14.89965 C33,16.17765 32.556,17.28765 31.6665,18.23115 C31.08,18.84615 30.033,19.60515 28.53,20.50815 C27.3465,21.21915 26.5365,21.79665 26.0985,22.24215 C25.6605,22.68465 25.3605,23.22915 25.197,23.87115 L32.877,23.87115 L32.877,25.49115 L23.1255,25.49115 C23.1945,24.04965 23.577,22.84515 24.2745,21.88215 C24.5955,21.44565 24.9825,21.04065 25.4385,20.66565 C25.893,20.29365 26.601,19.80765 27.5655,19.20615 C28.968,18.32415 29.865,17.65365 30.2625,17.19615 C30.837,16.53315 31.1235,15.77415 31.1235,14.91915 C31.1235,14.09265 30.8535,13.40265 30.3135,12.84765 C29.793,12.32115 29.106,12.05865 28.2525,12.05865 C27.3375,12.05865 26.6325,12.37665 26.1405,13.01265 C25.6485,13.64865 25.3785,14.59515 25.3305,15.85215 L23.535,15.85215 C23.529,15.66765 23.526,15.54165 23.526,15.47265 C23.526,14.74815 23.649,14.06115 23.895,13.41165 C24.141,12.76215 24.486,12.21615 24.93,11.77215 C25.779,10.92465 26.916,10.50015 28.3455,10.50015 Z"/>
  </g>
</svg>
