<svg xmlns="http://www.w3.org/2000/svg" width="36" height="36" viewBox="0 0 36 36">
  <path fill="none" stroke="#000" d="M7.5,17.0002 L7.5,29.0002 M13.5,17.0002 L13.5,29.0002 M13.5,24.9997 C13.5,25.8287 12.157,26.4997 10.5,26.4997 C8.843,26.4997 7.5,25.8287 7.5,24.9997 M13.5,26.9997 C13.5,27.8287 12.157,28.4997 10.5,28.4997 C8.843,28.4997 7.5,27.8287 7.5,26.9997 M13.5,28.9997 C13.5,29.8287 12.157,30.4997 10.5,30.4997 C8.843,30.4997 7.5,29.8287 7.5,28.9997 M13.5,17.0002 C13.5,17.8282 12.157,18.5002 10.5,18.5002 C8.843,18.5002 7.5,17.8282 7.5,17.0002 C7.5,16.1712 8.843,15.5002 10.5,15.5002 C12.157,15.5002 13.5,16.1712 13.5,17.0002 Z M13.5,19.0002 C13.5,19.8292 12.157,20.5002 10.5,20.5002 C8.843,20.5002 7.5,19.8292 7.5,19.0002 M13.5,20.9997 C13.5,21.8287 12.157,22.4997 10.5,22.4997 C8.843,22.4997 7.5,21.8287 7.5,20.9997 M13.5,22.9997 C13.5,23.8287 12.157,24.4997 10.5,24.4997 C8.843,24.4997 7.5,23.8287 7.5,22.9997 M26.5,8.0002 L26.5,20.0002 M32.5,8.0002 L32.5,24.0002 M32.5,19.9997 C32.5,20.8287 31.157,21.4997 29.5,21.4997 C27.843,21.4997 26.5,20.8287 26.5,19.9997 M32.5,21.9997 C32.5,22.8287 31.157,23.4997 29.5,23.4997 C28.953,23.4997 28.439,23.4267 27.998,23.2987 M32.5,23.9997 C32.5,24.8287 31.157,25.4997 29.5,25.4997 C28.948,25.4997 28.432,25.4257 27.987,25.2957 M32.5,12.0002 C32.5,12.8282 31.157,13.5002 29.5,13.5002 C27.843,13.5002 26.5,12.8282 26.5,12.0002 M32.5,14.0002 C32.5,14.8282 31.157,15.5002 29.5,15.5002 C27.843,15.5002 26.5,14.8282 26.5,14.0002 M32.5,16.0002 C32.5,16.8282 31.157,17.5002 29.5,17.5002 C27.843,17.5002 26.5,16.8282 26.5,16.0002 M32.5,18.0002 C32.5,18.8282 31.157,19.5002 29.5,19.5002 C27.843,19.5002 26.5,18.8282 26.5,18.0002 M32.5,8.0002 C32.5,8.8282 31.157,9.5002 29.5,9.5002 C27.843,9.5002 26.5,8.8282 26.5,8.0002 C26.5,7.1712 27.843,6.5002 29.5,6.5002 C31.157,6.5002 32.5,7.1712 32.5,8.0002 Z M32.5,10.0002 C32.5,10.8282 31.157,11.5002 29.5,11.5002 C27.843,11.5002 26.5,10.8282 26.5,10.0002 M15.5,11.0002 L15.5,23.0002 M21.5,11.0002 L21.5,19.0002 M21.5,11.0002 C21.5,11.8282 20.157,12.5002 18.5,12.5002 C16.843,12.5002 15.5,11.8282 15.5,11.0002 C15.5,10.1712 16.843,9.5002 18.5,9.5002 C20.157,9.5002 21.5,10.1712 21.5,11.0002 Z M21.5,13.0002 C21.5,13.8282 20.157,14.5002 18.5,14.5002 C16.843,14.5002 15.5,13.8282 15.5,13.0002 M21.5,15.0002 C21.5,15.8282 20.157,16.5002 18.5,16.5002 C16.843,16.5002 15.5,15.8282 15.5,15.0002 M21.5,17.0002 C21.5,17.8282 20.157,18.5002 18.5,18.5002 C16.843,18.5002 15.5,17.8282 15.5,17.0002 M21.5,19.0002 C21.5,19.8292 20.157,20.5002 18.5,20.5002 C16.843,20.5002 15.5,19.8292 15.5,19.0002 M19.002,22.4792 C18.839,22.4932 18.671,22.5002 18.5,22.5002 C16.843,22.5002 15.5,21.8292 15.5,21.0002 M19.0146,24.4782 C18.8476,24.4932 18.6756,24.4992 18.4996,24.4992 C16.8426,24.4992 15.4996,23.8292 15.4996,22.9992 M6.0098,20.4802 C4.5858,20.3632 3.4998,19.7452 3.4998,19.0002 M5.9971,22.4792 C4.5791,22.3592 3.5001,21.7432 3.5001,21.0002 M5.9971,24.4792 C4.5801,24.3592 3.5001,23.7432 3.5001,23.0002 M5.9912,16.4787 C4.5772,16.3577 3.5002,15.7417 3.5002,14.9997 M5.9971,18.4792 C4.5791,18.3592 3.5001,17.7432 3.5001,17.0002 M9.5,11.0002 C9.5,11.8282 8.157,12.5002 6.5,12.5002 C4.843,12.5002 3.5,11.8282 3.5,11.0002 M9.5,7.0002 C9.5,7.8282 8.157,8.5002 6.5,8.5002 C4.843,8.5002 3.5,7.8282 3.5,7.0002 C3.5,6.1712 4.843,5.5002 6.5,5.5002 C8.157,5.5002 9.5,6.1712 9.5,7.0002 Z M9.5,9.0002 C9.5,9.8282 8.157,10.5002 6.5,10.5002 C4.843,10.5002 3.5,9.8282 3.5,9.0002 M9.5,13.0002 C9.5,13.8282 8.157,14.5002 6.5,14.5002 C4.843,14.5002 3.5,13.8282 3.5,13.0002 M3.5,7.0002 L3.5,23.0002 M9.5,7.0002 L9.5,13.0002 M26.5,22.9997 C26.5,23.8287 25.157,24.4997 23.5,24.4997 C21.843,24.4997 20.5,23.8287 20.5,22.9997 C20.5,22.1717 21.843,21.4997 23.5,21.4997 C25.157,21.4997 26.5,22.1717 26.5,22.9997 Z M26.5,24.9997 C26.5,25.8287 25.157,26.4997 23.5,26.4997 C21.843,26.4997 20.5,25.8287 20.5,24.9997 M26.5,26.9997 C26.5,27.8287 25.157,28.4997 23.5,28.4997 C21.843,28.4997 20.5,27.8287 20.5,26.9997 M26.5,22.9997 L26.5,28.9997 C26.5,29.8287 25.157,30.4997 23.5,30.4997 C21.843,30.4997 20.5,29.8287 20.5,28.9997 L20.5,22.9997"/>
</svg>
