<svg xmlns="http://www.w3.org/2000/svg" width="36" height="36" viewBox="0 0 36 36">
  <path fill="none" stroke="#000" d="M20.25,29.24955 C23.3775,27.99105 26.2455,25.08855 26.2455,21.29205 C26.2455,18.44655 24.9555,16.20105 23.7015,14.34705 C21.438,11.00055 19.6155,9.56205 15.75,5.24955 C15.75,8.47755 15.0975,10.74555 12.3705,14.34705 C11.418,15.60705 9.747,18.28005 9.747,21.29205 C9.747,25.08855 12.6225,27.99105 15.75,29.24955 M15.75,29.24955 C14.682,28.33455 13.338,26.81505 13.338,25.23255 C13.338,24.11655 13.6485,23.26905 14.3295,22.31355 C15.813,20.23305 17.0745,19.66605 17.0745,16.26405 C19.3365,18.94005 20.373,20.26605 21.651,22.27305 C22.329,23.34255 22.6545,24.20805 22.6545,25.23255 C22.6545,26.81505 21.318,28.33455 20.25,29.24955 M6,32.24955 L30,32.24955"/>
</svg>
