<svg xmlns="http://www.w3.org/2000/svg" width="36" height="36" viewBox="0 0 36 36">
  <g fill="none" fill-rule="evenodd">
    <line x1="4.498" x2="31.5" y1="4.5" y2="31.5" stroke="#000"/>
    <path fill="#000" d="M23.74275,10.16025 C25.94925,10.16025 27.70725,10.90875 29.01225,12.40575 C30.29175,13.86975 30.93075,15.72375 30.93075,17.97375 C30.93075,19.21125 30.73725,20.34975 30.35025,21.38775 C29.96475,22.42875 29.41575,23.27925 28.70475,23.94075 L28.70475,23.94075 L30.68475,25.52025 L29.71425,26.71425 L24.76425,21.76425 L25.24875,21.18375 L27.21825,22.81275 C27.68925,22.32075 28.04625,21.81525 28.28475,21.29625 C28.72275,20.32575 28.94025,19.21425 28.94025,17.96325 C28.94025,16.15125 28.46625,14.67525 27.51525,13.53375 C26.57925,12.40575 25.32075,11.84175 23.74275,11.84175 C22.17675,11.84175 20.91525,12.41625 19.95825,13.56375 C19.42725,14.19825 19.06575,14.96775 18.84075,15.84225 L18.84075,15.84225 L17.32125,14.32125 C17.64075,13.59075 18.03825,12.91275 18.57375,12.32325 C19.28475,11.54475 20.12025,10.98075 21.07575,10.63125 C21.93675,10.31775 22.82625,10.16025 23.74275,10.16025 Z M16.6827,16.6842 L18.6117,18.6132 C18.7017,20.0472 19.0632,21.2427 19.7322,22.1667 C20.1912,22.8027 20.7777,23.2947 21.4902,23.6442 C22.2057,23.9922 22.9797,24.1662 23.8137,24.1662 C23.9217,24.1662 24.0267,24.1407 24.1347,24.1347 L24.1347,24.1347 L25.6317,25.6317 C25.0377,25.7742 24.4062,25.8492 23.7312,25.8492 C21.5787,25.8492 19.8357,25.1037 18.5022,23.6127 C17.2242,22.1847 16.5852,20.3157 16.5852,18.0042 C16.5852,17.5422 16.6317,17.1117 16.6827,16.6842 L16.6827,16.6842 Z M10.5072,10.50945 L12.2307,12.23145 L7.8897,12.23145 L7.8897,16.96845 L14.8212,16.96845 L14.8212,18.56895 L7.8897,18.56895 L7.8897,25.50045 L5.9112,25.50045 L5.9112,10.50945 L10.5072,10.50945 Z M15.76395,10.50945 L15.76395,12.23145 L15.22995,12.23145 L13.50795,10.50945 L15.76395,10.50945 Z"/>
  </g>
</svg>
