<svg xmlns="http://www.w3.org/2000/svg" width="36" height="36" viewBox="0 0 36 36">
  <g fill="none" fill-rule="evenodd">
    <path stroke="#000" d="M5.25,11.2503 L14.25,11.2503 L21.75,11.2503 L30.75,11.2503 L30.75,15.7503 L29.25,15.7503 L21.75,15.7503 L14.25,15.7503 L6.75,15.7503 L5.25,15.7503 L5.25,11.2503 Z M29.25,15.7503 L29.25,32.2503 L21.75,32.2503 L14.25,32.2503 L6.75,32.2503 L6.75,15.7503 M14.25,11.2503 L14.25,15.7503 M21.75,15.70125 L21.75,11.25075 M17.99415,11.2503 L18.00015,6.0003 C19.12365,1.7553 24.86415,4.2378 22.80015,7.8003 L20.25015,11.2503 M18,6.0003 C16.8645,1.7313 11.1705,4.1673 13.2,7.8003 L15.75,11.2503"/>
    <polygon fill="#000" points="14.995 26.988 16.795 26.988 14.395 24.738 17.245 24.738 17.245 26.988 18.745 26.988 18.745 24.738 21.595 24.738 19.195 26.988 20.995 26.988 23.995 23.988 20.995 20.988 19.195 20.988 21.595 23.238 18.745 23.238 18.745 20.988 17.245 20.988 17.245 23.238 14.395 23.238 16.795 20.988 14.995 20.988 11.995 23.988"/>
  </g>
</svg>
