<svg xmlns="http://www.w3.org/2000/svg" width="36" height="36" viewBox="0 0 36 36">
  <g fill="none" fill-rule="evenodd">
    <path stroke="#000" d="M14.25,3.74955 C18.3915,3.74955 21.75,7.10805 21.75,11.24955 C21.75,15.39255 18.3915,18.74955 14.25,18.74955 C10.1085,18.74955 6.75,15.39255 6.75,11.24955 C6.75,7.10805 10.1085,3.74955 14.25,3.74955 Z M13.29195,25.54125 L6.18945,20.57925 C5.54295,20.06325 4.59945,20.16375 4.08045,20.81175 C3.56145,21.45525 3.66495,22.40025 4.31145,22.92075 L13.19895,30.75075 L19.11345,30.75075 L20.62545,32.25075 L31.80045,32.25075 L24.25845,24.65325 C22.55295,23.01225 20.38245,21.79125 18.16395,21.75075 L15.00045,21.75075 C12.02295,21.75075 11.95245,26.25075 15.00045,26.25075 L18.00045,26.25075"/>
    <path fill="#000" d="M11.7012,10.2396 C11.8422,9.6351 12.0852,9.1011 12.4302,8.6406 C13.0077,7.8651 13.8207,7.4766 14.8707,7.4766 C15.3897,7.4766 15.8427,7.5726 16.2297,7.7631 C16.3797,7.8381 16.5987,7.9701 16.8852,8.1576 L16.3932,9.4086 C16.0452,9.1671 15.7497,8.9976 15.5082,8.9016 C15.2682,8.8056 15.0177,8.7576 14.7567,8.7576 C14.0667,8.7576 13.5762,9.2511 13.2867,10.2396 L16.0752,10.2396 L15.7827,11.0706 L13.1367,11.0706 C13.1337,11.1561 13.1322,11.2341 13.1322,11.3061 C13.1322,11.3841 13.1337,11.4591 13.1367,11.5311 L15.5832,11.5311 L15.2697,12.3621 L13.3062,12.3621 C13.6107,13.2741 14.0982,13.7316 14.7687,13.7316 C14.9892,13.7316 15.2082,13.6986 15.4242,13.6311 C15.6387,13.5651 15.9582,13.4301 16.3767,13.2291 L16.3767,14.6751 C15.5952,14.9061 15.0297,15.0231 14.6802,15.0231 C14.0547,15.0231 13.4772,14.8221 12.9432,14.4186 C12.3447,13.9701 11.9412,13.2846 11.7327,12.3621 L10.7637,12.3621 L11.0652,11.5311 L11.5992,11.5311 C11.5932,11.3811 11.5902,11.2761 11.5902,11.2191 L11.5902,11.0706 L10.7637,11.0706 L11.0652,10.2396 L11.7012,10.2396 Z"/>
  </g>
</svg>
