<svg xmlns="http://www.w3.org/2000/svg" width="36" height="36" viewBox="0 0 36 36">
  <path fill="none" stroke="#000" d="M14.24925,24.126 L14.24925,18.75 L14.24775,17.2515 C14.24775,16.422 14.91975,15.75 15.74925,15.75 C16.57875,15.75 17.25075,16.422 17.25075,17.2515 L17.24925,19.512 L17.24775,15.7515 C17.24775,14.922 17.91975,14.25 18.74925,14.25 C19.57875,14.25 20.25075,14.922 20.25075,15.7515 L20.24625,19.5015 M20.24565,17.24775 C20.24565,16.41825 20.91765,15.74625 21.74715,15.74625 C22.57815,15.74625 23.25015,16.41825 23.25015,17.24775 L23.25015,19.50075 L23.25015,18.75225 C23.25015,17.92275 23.92215,17.24925 24.75165,17.24925 C25.58265,17.24925 26.25465,17.92275 26.25465,18.75225 C26.25465,18.75225 26.25015,19.59375 26.25015,23.99925 C26.25015,28.40625 24.90015,30.74925 24.90015,30.74925 L14.24865,30.74925 L11.25015,26.99925 L11.25015,21.74925 M14.24925,24.126 C14.24925,24.126 14.24925,21.75 14.24925,21.75 C14.24925,20.9205 13.57875,20.25 12.74925,20.25 C11.92125,20.25 11.24925,20.9205 11.24925,21.75"/>
</svg>
