<svg xmlns="http://www.w3.org/2000/svg" width="36" height="36" viewBox="0 0 36 36">
  <path fill="none" stroke="#000" d="M8,15.5002 L13.5,15.5002 L13.5,10.5002 L8,10.5002 M18.5,7.0002 L18.5,3.5002 L23.5,3.5002 L21.5,9.5002 M18,4.5002 L14.5,4.5002 L16.5,8.5002 L13.5,10.5002 M13.5,15.5002 C14.689,16.3202 17.167,16.5002 19,16.5002 L22,16.5002 C22.553,16.5002 23,14.9332 23,13.0002 C23,11.0672 22.553,9.5002 22,9.5002 L21.5,9.5002 C19.251,9.5002 16.5,9.5002 16.5,8.5002 M16.5,20.9997 L16.5,24.4997 L16.5,27.9997 M19.5,20.9997 L19.5,27.9997 M21.5,27.9997 L21.5,21.4997 L25,21.4997 M24,24.4997 L21.5,24.4997 M15,27.4997 C13.816,27.4997 13.073,27.3337 12.322,26.7497 C11.632,26.2137 11.5,25.2937 11.5,24.4997 C11.5,23.6807 11.592,22.7917 12.322,22.2497 C13.069,21.6967 13.852,21.4997 15,21.4997 M16.5,24.4997 L19.5,24.4997 M14.9395,16.0886 C12.7385,17.0226 8.9365,17.5366 8.5005,20.4996 L8.5005,26.4996 C8.5005,29.7206 10.6345,32.4996 13.8555,32.4996 L22.1445,32.4996 C25.3655,32.4996 27.5005,29.7206 27.5005,26.4996 L27.5005,20.4996 C27.1265,17.9586 24.2735,17.2196 22.0795,16.4716"/>
</svg>
