<svg xmlns="http://www.w3.org/2000/svg" width="36" height="36" viewBox="0 0 36 36">
  <path fill="none" stroke="#000" d="M16.5,18.0002 L16.5,21.5002 L16.5,25.0002 M19.5,18.0002 L19.5,25.0002 M21.5,24.9997 L21.5,18.4997 L25,18.4997 M24,21.4997 L21.5,21.4997 M15,24.4997 C13.816,24.4997 13.073,24.3337 12.322,23.7497 C11.632,23.2137 11.5,22.2937 11.5,21.4997 C11.5,20.6807 11.592,19.7917 12.322,19.2497 C13.069,18.6967 13.852,18.4997 15,18.4997 M16.5,21.4997 L19.5,21.4997 M16.5,11.5002 L19.5,11.5002 M14.5,2.0002 L14.5,5.0002 M18.5,2.0002 L18.5,4.0002 M22.5,2.0002 L22.5,4.0002 M15.0361,28.3503 L9.5321,24.7753 C8.9941,24.3433 8.2071,24.4293 7.7751,24.9673 C7.3431,25.5053 7.4301,26.2923 7.9681,26.7253 L15.5001,32.4993 L20.5001,32.4993 L21.5001,33.4993 L30.5001,33.4993 L24.5901,28.1703 C23.1691,26.8033 21.3481,26.5363 19.5001,26.4993 L16.8751,26.4993 C14.3941,26.4993 14.3361,29.4993 16.8751,29.4993 L20.0001,29.4993 M8.5771,24.5183 C8.5291,24.1853 8.5001,23.8463 8.5001,23.4993 L8.5001,17.5003 C9.1171,13.3043 16.5001,14.0223 16.5001,11.5003 L14.5001,6.5003 L18.5001,6.5003 L18.5001,5.5003 L22.5001,5.5003 L19.5001,11.5003 C19.5001,14.0223 26.8831,13.3043 27.5001,17.5003 L27.5001,23.4993 C27.5001,25.6043 26.5851,27.5143 25.0551,28.5893"/>
</svg>
