<svg xmlns="http://www.w3.org/2000/svg" width="36" height="36" viewBox="0 0 36 36">
  <path fill="none" stroke="#000" d="M30.75,17.25 C30.75,24.7065 24.7065,30.75 17.25,30.75 C9.7935,30.75 3.75,24.7065 3.75,17.25 C3.75,9.7935 9.7935,3.75 17.25,3.75 C24.7065,3.75 30.75,9.7935 30.75,17.25 Z M17.25,6 L17.25,9 M9.2952,9.2952 L11.4162,11.4162 M6,17.25 L9,17.25 M9.2952,25.20555 L11.4162,23.08305 M25.20555,25.20555 L23.08305,23.08305 M28.5,17.25 L25.5,17.25 M25.20555,9.2952 L23.08305,11.4162 M14.25,24.75 L20.25,24.75 L20.25,21.75 L14.25,21.75 L14.25,24.75 Z M18.75,17.25 C18.75,18.078 18.078,18.75 17.25,18.75 C16.422,18.75 15.75,18.078 15.75,17.25 C15.75,16.422 16.422,15.75 17.25,15.75 C18.078,15.75 18.75,16.422 18.75,17.25 Z M18.63435,16.67655 L26.25735,13.51905"/>
</svg>
