<svg xmlns="http://www.w3.org/2000/svg" width="36" height="36" viewBox="0 0 36 36">
  <g fill="none" fill-rule="evenodd">
    <polyline stroke="#000" points="4.5 16.5 18 7.5 31.5 16.5"/>
    <path fill="#000" d="M16.77105,17.7681 L16.77105,22.0131 L19.69305,22.0131 C20.56155,22.0131 21.18705,21.8601 21.56955,21.5511 C22.04205,21.1686 22.27755,20.6046 22.27755,19.8606 C22.27755,19.1076 22.00455,18.5481 21.45705,18.1776 C21.06105,17.9046 20.41605,17.7681 19.51905,17.7681 L16.77105,17.7681 Z M13.49955,14.9991 L19.55055,14.9991 C20.56905,14.9991 21.37005,15.0621 21.95505,15.1881 C22.54005,15.3156 23.06655,15.5391 23.53905,15.8616 C24.84555,16.7361 25.49655,18.0546 25.49655,19.8186 C25.49655,21.3831 24.95805,22.6131 23.87655,23.5101 C23.42055,23.8926 22.89705,24.1686 22.30755,24.3351 C21.72105,24.5031 20.99505,24.5871 20.13405,24.5871 L16.77105,24.5871 L16.77105,29.9901 L13.49955,29.9901 L13.49955,14.9991 Z"/>
  </g>
</svg>
