<svg xmlns="http://www.w3.org/2000/svg" width="36" height="36" viewBox="0 0 36 36">
  <path fill="none" stroke="#000" d="M26.25,4.5 L26.25,29.9955 M9.75,4.5 L9.75,29.9955 M12.75,6 L12.75,7.5 M14.25,9 L14.25,10.5 M15.75,12 L15.75,13.5 M17.25,15 L17.25,16.5 M18.75,18 L18.75,19.5 M20.25,21 L20.25,22.4985 M21.75,24 L21.75,25.4985 M23.25,27 L23.25,28.4985 M23.25,6 L23.25,7.5 M20.25,12.0036 L20.25,13.5036 M14.25,24 L14.25,25.4985 M12.75,27 L12.75,28.4985 M21.75,9 L21.75,10.5 M15.75,21 L15.75,22.4985"/>
</svg>
