<svg xmlns="http://www.w3.org/2000/svg" width="36" height="36" viewBox="0 0 36 36">
  <path fill="none" stroke="#000" d="M13.5,9 L16.5,6 L33,4.5 M18,31.5 L4.5,18 L7.5,15 M27,22.5 L30,19.5 L33,22.5 M13.5,15 L21,22.5 M3,4.5 L7.5,9 M24,23.25 C25.242,23.25 26.25,24.258 26.25,25.5 C26.25,26.742 25.242,27.75 24,27.75 C22.758,27.75 21.75,26.742 21.75,25.5 C21.75,24.258 22.758,23.25 24,23.25 Z M10.5,9.75 C11.7435,9.75 12.75,10.758 12.75,12 C12.75,13.242 11.7435,14.25 10.5,14.25 C9.2565,14.25 8.25,13.242 8.25,12 C8.25,10.758 9.2565,9.75 10.5,9.75 Z M3,31.5 L22.5,12 L21.7695,5.5215"/>
</svg>
