<svg xmlns="http://www.w3.org/2000/svg" width="36" height="36" viewBox="0 0 36 36">
  <path fill="none" stroke="#000" d="M3.5,25.4997 L10,25.4997 M14.5,25.4997 C14.5,26.0527 14.053,26.4997 13.5,26.4997 C12.947,26.4997 12.5,26.0527 12.5,25.4997 C12.5,24.9477 12.947,24.4997 13.5,24.4997 C14.053,24.4997 14.5,24.9477 14.5,25.4997 Z M10.5,20.4997 C10.5,21.6037 9.604,22.4997 8.5,22.4997 C7.396,22.4997 6.5,21.6037 6.5,20.4997 C6.5,19.3957 7.396,18.4997 8.5,18.4997 C9.604,18.4997 10.5,19.3957 10.5,20.4997 Z M17,25.4997 L22.5,25.4997 L22.5,29.4997 L3.5,29.4997 L3.5,10.4997 L12.5,10.4997 L10.5,14.4997 L10.5,16.4997 C15.471,16.4997 19.5,20.5287 19.5,25.4997 M9.9141,21.9138 L12.7931,24.7928 M20.666,21.2683 L21.008,22.2073 M19.7764,19.5671 L20.2764,20.4331 M18.6055,18.0461 L19.2485,18.8121 M17.1875,16.7522 L17.9545,17.3952 M27,21.4997 L32.5,21.4997 L32.5,25.4997 L29,25.4997 M13,6.5002 L22.5,6.5002 L20.5,10.5002 L20.5,12.5002 C25.471,12.5002 29.5,16.5292 29.5,21.5002 M30.666,17.2678 L31.008,18.2078 M29.7764,15.5671 L30.2764,16.4331 M28.6055,14.0461 L29.2485,14.8121 M27.1875,12.7522 L27.9545,13.3952 M22,23.4997 L27.5,23.4997 L27.5,27.4997 L24,27.4997 M24.5,23.4997 C24.5,18.5297 20.471,14.4997 15.5,14.4997 L15.5,12.4997 L17.5,8.4997 L8,8.4997 M25.666,19.2678 L26.008,20.2078 M24.7764,17.5671 L25.2764,18.4331 M23.6055,16.0461 L24.2485,16.8121 M22.1875,14.7522 L22.9545,15.3952 M10.5,14.5002 L3.5,14.5002 M15.5,12.5002 L13,12.5002 M20.5,10.5002 L18,10.5002"/>
</svg>
