<svg xmlns="http://www.w3.org/2000/svg" width="36" height="36" viewBox="0 0 36 36">
  <path fill="none" stroke="#000" d="M32.25,5.24955 L32.25,8.24955 C29.7,8.24955 27.75,10.19955 27.75,12.74955 C27.75,15.29955 29.7,17.24955 32.25,17.24955 L32.25,20.24955 L8.25,20.24955 L8.25,5.24955 L32.25,5.24955 Z M6,15.74955 L3.75,15.74955 L3.75,30.74955 L27.75,30.74955 L27.75,27.33705 C25.236,27.14355 23.25,25.06455 23.25,22.49955 M23.25,8.99955 L23.25,7.49955 M23.25,11.99955 L23.25,10.49955 M23.25,14.99955 L23.25,13.49955 M23.25,17.99955 L23.25,16.49955 M18.75,25.49955 L18.75,23.99955 M18.75,28.49955 L18.75,26.99955"/>
</svg>
