<svg xmlns="http://www.w3.org/2000/svg" width="36" height="36" viewBox="0 0 36 36">
  <path fill="none" stroke="#000" d="M25.5,21.74955 C27.5715,21.74955 29.25,23.42805 29.25,25.49955 C29.25,27.57105 27.5715,29.24955 25.5,29.24955 C23.4285,29.24955 21.75,27.57105 21.75,25.49955 C21.75,23.42805 23.4285,21.74955 25.5,21.74955 Z M31.5,31.49955 L28.152,28.15155 M13.01655,16.16055 C8.54355,17.53605 5.24955,22.20405 5.24955,27.74955 L19.72005,27.74955 M23.61705,19.80405 C22.27605,18.06855 20.50005,16.78155 18.48555,16.16055 M15.74955,6.74955 C18.23505,6.74955 20.24955,9.10005 20.24955,11.99955 C20.24955,14.89905 18.23505,17.24955 15.74955,17.24955 C13.26405,17.24955 11.24955,14.89905 11.24955,11.99955 C11.24955,9.10005 13.26405,6.74955 15.74955,6.74955 Z"/>
</svg>
