<svg xmlns="http://www.w3.org/2000/svg" width="36" height="36" viewBox="0 0 36 36">
  <path fill="none" stroke="#000" d="M4.5,12.75 L13.5,12.75 M9.75,9 C9.75,6.9285 11.4285,5.25 13.5,5.25 C15.5715,5.25 17.25,6.9285 17.25,9 C17.25,11.0715 15.5715,12.75 13.5,12.75 M4.5,15.75 L21,15.75 M18.75,13.5 C18.75,12.2565 19.758,11.25 21,11.25 C22.242,11.25 23.25,12.2565 23.25,13.5 C23.25,14.7435 22.242,15.75 21,15.75 M4.5,24.75 L13.5,24.75 M11.25,22.5 C11.25,21.258 12.2565,20.25 13.5,20.25 C14.7435,20.25 15.75,21.258 15.75,22.5 C15.75,23.742 14.7435,24.75 13.5,24.75 M30.75,18 C30.75,16.7565 29.742,15.75 28.5,15.75 C27.258,15.75 26.25,16.7565 26.25,18 L26.25,30.75 L30.75,30.75 L30.75,18 Z M27.75,15.8796 L27.75,14.2506 L29.25,14.2506 L29.25,15.8796"/>
</svg>
