<svg xmlns="http://www.w3.org/2000/svg" width="24" height="24" viewBox="0 0 24 24"><path fill="none" stroke="#000" d="M7.5,14.5 C8.399,14.5 8.399,15.5 9.298,15.5 C10.196,15.5 10.196,14.5 11.094,14.5 C11.994,14.5 11.994,15.5 12.894,15.5 C13.796,15.5 13.796,14.5 14.697,14.5 C15.599,14.5 15.599,15.5 16.5,15.5 M19.4999,21.5 L4.4999,21.5 L4.4999,5.765 L4.4999,2.5 L19.4999,2.5 L19.4999,21.5 Z M19.4999,7.5 L4.4999,7.5 M7.4999,4.9999 C7.4999,4.7239 7.2759,4.4999 6.9999,4.4999 C6.7239,4.4999 6.4999,4.7239 6.4999,4.9999 C6.4999,5.2759 6.7239,5.4999 6.9999,5.4999 C7.2759,5.4999 7.4999,5.2759 7.4999,4.9999 Z M15.0003,4.4999 L18.0003,4.4999 M9.9999,4.4999 L12.9999,4.4999 M16.5,15 C16.5,12.515 14.485,10.5 12,10.5 C9.515,10.5 7.5,12.515 7.5,15 C7.5,17.485 9.515,19.5 12,19.5 C14.485,19.5 16.5,17.485 16.5,15 Z"/></svg>