<svg xmlns="http://www.w3.org/2000/svg" width="48" height="48" viewBox="0 0 48 48"><path fill="none" stroke="#000" d="M7.5,28 L12.5,22 L20.5,28 L32,15.5 L41.5,28 M15.4998,11.4998 C15.4998,13.1558 14.1608,14.4998 12.4998,14.4998 C10.8388,14.4998 9.4998,13.1558 9.4998,11.4998 C9.4998,9.8438 10.8388,8.4998 12.4998,8.4998 C14.1608,8.4998 15.4998,9.8438 15.4998,11.4998 Z M4.9998,11.4998 L7.9998,11.4998 M6.8926,5.8199 L9.1696,8.0969 M12.4998,3.9998 L12.4998,6.9998 M18.1572,5.9119 L15.8932,8.1499 M19.9998,11.4998 L16.9998,11.4998 M18.1706,17.0968 L15.9046,14.8398 M12.4998,15.9998 L12.4998,18.9998 M9.1569,14.9051 L6.8959,17.1661 M27.6876,20.1871 L29.4996,22.0001 L31.4996,20.5001 L33.4996,21.9991 L35.4996,20.1051 M44,41.4833 C40.668,41.4833 40.668,39.4833 37.337,39.4833 C34.004,39.4833 34.004,41.4833 30.672,41.4833 C27.341,41.4833 27.341,39.4833 24.011,39.4833 C20.677,39.4833 20.677,41.4833 17.343,41.4833 C14.008,41.4833 14.008,39.4833 10.672,39.4833 C7.336,39.4833 7.336,41.4833 4,41.4833 M44,36.483 C40.668,36.483 40.668,34.483 37.337,34.483 C34.004,34.483 34.004,36.483 30.672,36.483 C27.341,36.483 27.341,34.483 24.011,34.483 C20.677,34.483 20.677,36.483 17.343,36.483 C14.008,36.483 14.008,34.483 10.672,34.483 C7.336,34.483 7.336,36.483 4,36.483 M44,31.4827 C40.668,31.4827 40.668,29.4827 37.337,29.4827 C34.004,29.4827 34.004,31.4827 30.672,31.4827 C27.341,31.4827 27.341,29.4827 24.011,29.4827 C20.677,29.4827 20.677,31.4827 17.343,31.4827 C14.008,31.4827 14.008,29.4827 10.672,29.4827 C7.336,29.4827 7.336,31.4827 4,31.4827"/></svg>