<svg xmlns="http://www.w3.org/2000/svg" width="48" height="48" viewBox="0 0 48 48"><path fill="none" stroke="#000" d="M27.5013,15.5001 L35.5013,15.5001 L27.5013,15.5001 Z M27.5011,15.4998 L35.5011,15.4998 M27.5013,21.4995 L35.5013,21.4995 L27.5013,21.4995 Z M27.5011,21.4998 L35.5011,21.4998 M4,26.4998 C7.332,26.4998 7.332,28.4998 10.663,28.4998 C13.996,28.4998 13.996,26.4998 17.328,26.4998 C20.659,26.4998 20.659,28.4998 23.989,28.4998 C27.323,28.4998 27.323,26.4998 30.657,26.4998 C33.992,26.4998 33.992,28.4998 37.328,28.4998 C40.664,28.4998 40.664,26.4998 44,26.4998 M4,31.5001 C7.332,31.5001 7.332,33.5001 10.663,33.5001 C13.996,33.5001 13.996,31.5001 17.328,31.5001 C20.659,31.5001 20.659,33.5001 23.989,33.5001 C27.323,33.5001 27.323,31.5001 30.657,31.5001 C33.992,31.5001 33.992,33.5001 37.328,33.5001 C40.664,33.5001 40.664,31.5001 44,31.5001 M4,36.5004 C7.332,36.5004 7.332,38.5004 10.663,38.5004 C13.996,38.5004 13.996,36.5004 17.328,36.5004 C20.659,36.5004 20.659,38.5004 23.989,38.5004 C27.323,38.5004 27.323,36.5004 30.657,36.5004 C33.992,36.5004 33.992,38.5004 37.328,38.5004 C40.664,38.5004 40.664,36.5004 44,36.5004 M40.5011,9.9998 C40.5011,8.6188 39.3821,7.4998 38.0011,7.4998 C36.6201,7.4998 35.5011,8.6188 35.5011,9.9998 L35.5011,28.3028 M32.5006,9.9998 C32.5006,8.6188 31.3816,7.4998 30.0006,7.4998 C28.6196,7.4998 27.5006,8.6188 27.5006,9.9998 L27.5006,27.1868"/></svg>