<svg xmlns="http://www.w3.org/2000/svg" width="24" height="24" viewBox="0 0 24 24">
  <path fill="none" stroke="#000" d="M21,6 L17.5,2.5 L14,6 M12.5161,20.1592 C11.3281,19.5992 10.5001,18.4002 10.5001,17.0002 L10.5001,7.0002 C10.5001,5.5992 9.6721,4.4002 8.4841,3.8412 M15.4844,20.1592 C16.6714,19.5992 17.5004,18.4002 17.5004,17.0002 L17.5004,2.5002 M5.5161,3.8408 C4.3281,4.4008 3.5001,5.5998 3.5001,6.9998 L3.5001,18.9998 M15.5,20 C15.5,20.828 14.828,21.5 14,21.5 C13.172,21.5 12.5,20.828 12.5,20 C12.5,19.172 13.172,18.5 14,18.5 C14.828,18.5 15.5,19.172 15.5,20 Z M8.5,4 C8.5,4.828 7.829,5.5 7,5.5 C6.171,5.5 5.5,4.828 5.5,4 C5.5,3.172 6.171,2.5 7,2.5 C7.829,2.5 8.5,3.172 8.5,4 Z"/>
</svg>
