<svg xmlns="http://www.w3.org/2000/svg" width="24" height="24" viewBox="0 0 24 24">
  <g fill="none" fill-rule="evenodd">
    <path stroke="#000" d="M2.5,17.5 L18.5,17.5 L18.5,9.5 L2.5,9.5 L2.5,17.5 Z M18.5,14.5 L21.5,14.5 L21.5,6.5 L5.5,6.5 L5.5,9.5"/>
    <path fill="#000" d="M6.91,11.5034 C7.448,11.5034 7.882,11.6784 8.21,12.0274 C8.445,12.2724 8.574,12.5544 8.599,12.8764 L7.76,12.8764 C7.714,12.6604 7.615,12.4934 7.464,12.3764 C7.314,12.2574 7.123,12.1994 6.892,12.1994 C6.522,12.1994 6.246,12.3524 6.063,12.6564 C5.926,12.8864 5.858,13.1704 5.858,13.5064 C5.858,13.8524 5.93,14.1384 6.074,14.3694 C6.256,14.6634 6.527,14.8104 6.886,14.8104 C7.142,14.8104 7.346,14.7364 7.498,14.5874 C7.649,14.4404 7.743,14.2234 7.779,13.9414 L8.626,13.9414 C8.597,14.3364 8.462,14.6724 8.221,14.9544 C7.905,15.3214 7.457,15.5034 6.878,15.5034 C6.262,15.5034 5.782,15.2924 5.439,14.8654 C5.147,14.5024 5,14.0454 5,13.5024 C5,12.9304 5.174,12.4554 5.522,12.0744 C5.87,11.6944 6.333,11.5034 6.91,11.5034 Z M10.0648,11.5957 L10.0648,13.0457 L11.6578,13.0457 L11.6578,11.5957 L12.5078,11.5957 L12.5078,15.4137 L11.6578,15.4137 L11.6578,13.7497 L10.0648,13.7497 L10.0648,15.4137 L9.2148,15.4137 L9.2148,11.5957 L10.0648,11.5957 Z M16,11.5957 L16,12.3007 L14.108,12.3007 L14.108,13.1857 L15.755,13.1857 L15.755,13.8417 L14.108,13.8417 L14.108,15.4137 L13.259,15.4137 L13.259,11.5957 L16,11.5957 Z"/>
  </g>
</svg>
