<svg xmlns="http://www.w3.org/2000/svg" width="24" height="24" viewBox="0 0 24 24">
  <path fill="none" stroke="#000" d="M14.5,16.5 L18.5,16.5 L16.5,11.5 L14.5,11.5 L14.5,16.5 Z M7,20.5 L10.5,20.5 L10.5,8.5 L9,8.5 M12.5,8.5005 L12.5,20.5005005 L17,20.5005005 C20.437,20.5015 22.17,18.9455 21,16.0005 L18.359,10.7725 C17.552,9.3065 16.448,8.4765 14,8.5005 L12.5,8.5005 Z M10.5,17.501 L12.5,17.501 M12.5,18.501 L10.5,18.501 M10,6.5 L15,6.5 M4.5,4.499 C4.5,5.313 4.896,6.043 5.499,6.5 C6.102,6.043 6.498,5.313 6.498,4.499 C6.498,3.684 6.102,2.957 5.499,2.5 C4.896,2.957 4.5,3.684 4.5,4.499 Z M5.5,8.5 C3.843,8.5 2.5,7.157 2.5,5.5 C4.157,5.5 5.5,6.843 5.5,8.5 Z M5.5,8.5 C7.157,8.5 8.5,7.157 8.5,5.5 C6.843,5.5 5.5,6.843 5.5,8.5 Z M5.5,13.5 C3.843,13.5 2.5,12.157 2.5,10.5 C4.157,10.5 5.5,11.843 5.5,13.5 Z M5.5,13.5 C7.157,13.5 8.5,12.157 8.5,10.5 C6.843,10.5 5.5,11.843 5.5,13.5 Z M5.5,18.5 C3.843,18.5 2.5,17.157 2.5,15.5 C4.157,15.5 5.5,16.843 5.5,18.5 Z M5.5,18.5 C7.157,18.5 8.5,17.157 8.5,15.5 C6.843,15.5 5.5,16.843 5.5,18.5 Z M5.5,21 L5.5,6.5"/>
</svg>
