<svg xmlns="http://www.w3.org/2000/svg" width="24" height="24" viewBox="0 0 24 24">
  <path fill="none" stroke="#000" d="M15.3164,16.6628 C17.2294,14.5318 18.5004,11.0098 18.5004,8.7248 C18.5004,5.2868 15.5894,2.4998 12.0004,2.4998 C8.4104,2.4998 5.5004,5.2868 5.5004,8.7248 C5.5004,10.9998 6.7824,14.5248 8.6844,16.6608 M10.4443,21.4997 C9.3703,21.4997 8.5003,20.6037 8.5003,19.4997 C8.5003,18.3957 9.3703,17.4997 10.4443,17.4997 L13.5553,17.4997 C14.6303,17.4997 15.5003,18.3957 15.5003,19.4997 C15.5003,20.6037 14.6303,21.4997 13.5553,21.4997 L10.4443,21.4997 Z M10,11.5002 C8.619,11.5002 7.5,10.3802 7.5,9.0002 C7.5,7.6192 8.619,6.5002 10,6.5002 L14,6.5002 C15.381,6.5002 16.5,7.6192 16.5,9.0002 C16.5,10.3802 15.381,11.5002 14,11.5002 L10,11.5002 Z M15.5,19.4997 L15.5,17.4997 C15.5,16.3957 14.63,15.4997 13.556,15.4997 L10.444,15.4997 C9.371,15.4997 8.5,16.3957 8.5,17.4997 L8.5,19.4997 M15.5,17.4997 L17.5,18.4997 L19.5,14.4997 L17.337,13.4187 M6.6694,13.4157 L4.5004,14.4997 L6.5004,18.4997 L8.5004,17.4997 M8.6846,16.6609 L8.6846,16.6609 M9.5,15.7614 L9.5,14.9284 C9.5,14.1394 10.122,13.4994 10.889,13.4994 L13.111,13.4994 C13.878,13.4994 14.5,14.1394 14.5,14.9284 L14.5,15.7614"/>
</svg>
