<svg xmlns="http://www.w3.org/2000/svg" width="24" height="24" viewBox="0 0 24 24">
  <path fill="none" stroke="#000" d="M3.5,4.0002 L3.5,20.5002 L20,20.5002 M6.7187,9.4021 L3.4997,14.0001 M7.1851,9.4626 L8.8151,13.5376 M13.5,8.0002 C13.5,8.2762 13.276,8.5002 13,8.5002 C12.724,8.5002 12.5,8.2762 12.5,8.0002 C12.5,7.7242 12.724,7.5002 13,7.5002 C13.276,7.5002 13.5,7.7242 13.5,8.0002 Z M18.5,6.0002 C18.5,6.2762 18.276,6.5002 18,6.5002 C17.724,6.5002 17.5,6.2762 17.5,6.0002 C17.5,5.7242 17.724,5.5002 18,5.5002 C18.276,5.5002 18.5,5.7242 18.5,6.0002 Z M7.5,9.0002 C7.5,9.2762 7.276,9.5002 7,9.5002 C6.724,9.5002 6.5,9.2762 6.5,9.0002 C6.5,8.7242 6.724,8.5002 7,8.5002 C7.276,8.5002 7.5,8.7242 7.5,9.0002 Z M9.5,13.9997 C9.5,14.2757 9.276,14.4997 9,14.4997 C8.724,14.4997 8.5,14.2757 8.5,13.9997 C8.5,13.7247 8.724,13.4997 9,13.4997 C9.276,13.4997 9.5,13.7247 9.5,13.9997 Z M11.5,16.9997 C11.5,17.2757 11.276,17.4997 11,17.4997 C10.724,17.4997 10.5,17.2757 10.5,16.9997 C10.5,16.7247 10.724,16.4997 11,16.4997 C11.276,16.4997 11.5,16.7247 11.5,16.9997 Z M13.5,12.0002 C13.5,12.2762 13.276,12.5002 13,12.5002 C12.724,12.5002 12.5,12.2762 12.5,12.0002 C12.5,11.7242 12.724,11.5002 13,11.5002 C13.276,11.5002 13.5,11.7242 13.5,12.0002 Z M6.5,15.9997 C6.5,16.2757 6.276,16.4997 6,16.4997 C5.724,16.4997 5.5,16.2757 5.5,15.9997 C5.5,15.7247 5.724,15.4997 6,15.4997 C6.276,15.4997 6.5,15.7247 6.5,15.9997 Z M13.4629,7.8152 L17.5369,6.1852 M5.7607,16.4304 L3.4997,20.4994 M17.5195,11.0959 L13.4805,11.9039 M18.5,11.0002 C18.5,11.2762 18.276,11.5002 18,11.5002 C17.724,11.5002 17.5,11.2762 17.5,11.0002 C17.5,10.7242 17.724,10.5002 18,10.5002 C18.276,10.5002 18.5,10.7242 18.5,11.0002 Z M9.2725,13.5915 L12.7275,8.4085 M6.4805,16.0964 L10.5195,16.9044 M12.8149,12.4626 L11.1849,16.5376"/>
</svg>
