<svg xmlns="http://www.w3.org/2000/svg" width="24" height="24" viewBox="0 0 24 24">
  <path fill="none" stroke="#000" d="M10.5,4.4963 L10.5,9.4963 L15.5,9.4963 M7.001,11.5002 L13.001,11.5002 M6.999,13.4997 L13.001,13.4997 M16,19.4997 L4.5,19.4997 L4.5,4.4997 L10.5,4.4997 L15.5,9.4997 L15.5,11.9997 M13,17.4997 C12.99,17.4867 12.545,16.9297 12,16.9997 C11.215,17.1027 10.721,18.0547 10.191,17.8007 C9.876,17.6487 10.528,16.5567 9.668,16.5147 C9.167,16.4897 8.23,18.1387 7.644,17.9907 C7.12,17.8587 7.841,16.2487 7.364,16.0367 C6.707,15.7437 6,16.9997 6,16.9997 M14.3574,15.6286 L13.8374,17.8036 L15.8894,16.9136 L21.0324,10.7856 L19.5004,9.5006 L14.3574,15.6286 Z"/>
</svg>
