<svg xmlns="http://www.w3.org/2000/svg" width="24" height="24" viewBox="0 0 24 24">
  <g fill="none" fill-rule="evenodd">
    <path stroke="#000" d="M14,11.4746 L8,11.4746 M11.5254,9 L14.0004,11.475 L11.5254,13.95"/>
    <path fill="#000" d="M5.8213,7 L5.8213,16.994 L4.5223,16.994 L4.5223,9.748 L2.0003,9.748 L2.0003,8.846 C2.9433,8.846 3.6543,8.668 4.1333,8.312 C4.4563,8.071 4.7093,7.633 4.8913,7 L5.8213,7 Z M18.897,7.0001 C19.776,7.0001 20.494,7.2351 21.05,7.7041 C21.346,7.9551 21.578,8.2761 21.747,8.6681 C21.916,9.0601 22,9.4811 22,9.9331 C22,10.7851 21.704,11.5251 21.111,12.1541 C20.72,12.5641 20.022,13.0701 19.02,13.6721 C18.231,14.1461 17.691,14.5311 17.399,14.8281 C17.107,15.1231 16.907,15.4861 16.798,15.9141 L21.918,15.9141 L21.918,16.9941 L15.417,16.9941 C15.463,16.0331 15.718,15.2301 16.183,14.5881 C16.397,14.2971 16.655,14.0271 16.959,13.7771 C17.262,13.5291 17.734,13.2051 18.377,12.8041 C19.312,12.2161 19.91,11.7691 20.175,11.4641 C20.558,11.0221 20.749,10.5161 20.749,9.9461 C20.749,9.3951 20.569,8.9351 20.209,8.5651 C19.862,8.2141 19.404,8.0391 18.835,8.0391 C18.225,8.0391 17.755,8.2511 17.427,8.6751 C17.099,9.0991 16.919,9.7301 16.887,10.5681 L15.69,10.5681 C15.686,10.4451 15.684,10.3611 15.684,10.3151 C15.684,9.8321 15.766,9.3741 15.93,8.9411 C16.094,8.5081 16.324,8.1441 16.62,7.8481 C17.186,7.2831 17.944,7.0001 18.897,7.0001 Z"/>
  </g>
</svg>
