<svg xmlns="http://www.w3.org/2000/svg" width="24" height="24" viewBox="0 0 24 24">
  <path fill="none" stroke="#000" d="M17.5,13.9997 L17.5,9.9997 M8.5,13.9997 C8.5,14.8287 7.829,15.4997 7,15.4997 C6.171,15.4997 5.5,14.8287 5.5,13.9997 M11.5,14.9997 C11.5,15.8287 10.829,16.4997 10,16.4997 C9.171,16.4997 8.5,15.8287 8.5,14.9997 M8.7817,15.8698 C8.2947,16.6318 7.9997,17.5258 7.9997,18.4998 L15.6287,18.4998 C17.8377,18.4998 19.6287,16.7088 19.6287,14.4998 C19.6287,13.7778 19.4227,13.1098 19.0877,12.5248 L17.4997,9.2048 M8.5,14.9997 L8.5,10.9997 M11.5,14.9997 L11.5,9.9997 M14.5,13.9997 L14.5,9.9997 M11.5,9.9997 L11.5,7.9997 M14.5,9.9997 L14.5,7.9997 M5.5,13.9997 L5.5,9.9997 M8.5,10.9997 L8.5,8.9997 M17.5,10.9997 L17.5,8.9997 M6,17.4997 C4.619,17.4997 3.5,16.3807 3.5,14.9997 M17,5.4997 C18.381,5.4997 19.5,6.6187 19.5,7.9997 M17,3.4997 C19.485,3.4997 21.5,5.5147 21.5,7.9997 M14.5,13.9997 C14.5,14.8287 13.828,15.4997 13,15.4997 C12.171,15.4997 11.5,14.8287 11.5,13.9997 M17.5,13.9997 C17.5,14.8287 16.828,15.4997 16,15.4997 C15.172,15.4997 14.5,14.8287 14.5,13.9997 M14.5,8.9997 C14.5,8.1717 15.172,7.4997 16,7.4997 C16.828,7.4997 17.5,8.1717 17.5,8.9997 M11.5,7.9997 C11.5,7.1717 12.171,6.4997 13,6.4997 C13.828,6.4997 14.5,7.1717 14.5,7.9997 M8.5,8.9997 C8.5,8.1717 9.171,7.4997 10,7.4997 C10.829,7.4997 11.5,8.1717 11.5,8.9997 M5.5,9.9997 C5.5,9.1717 6.171,8.4997 7,8.4997 C7.829,8.4997 8.5,9.1717 8.5,9.9997 M8.5,16.4997 L11.5,16.4997 L11.5,18.4997 M11.5,14.9997 L11.5,18.4997"/>
</svg>
