<svg xmlns="http://www.w3.org/2000/svg" width="24" height="24" viewBox="0 0 24 24">
  <path fill="none" stroke="#000" d="M15.5,8.9953 C15.5,9.8243 14.828,10.4953 14,10.4953 C13.172,10.4953 12.5,9.8243 12.5,8.9953 C12.5,8.1673 13.172,7.4953 14,7.4953 C14.828,7.4953 15.5,8.1673 15.5,8.9953 Z M9.5,9.0002 C9.5,9.8282 8.829,10.5002 8,10.5002 C7.171,10.5002 6.5,9.8282 6.5,9.0002 C6.5,8.1712 7.171,7.5002 8,7.5002 C8.829,7.5002 9.5,8.1712 9.5,9.0002 Z M15.4072,9.5002 L17.5002,9.5002 L17.5002,9.4952 L17.5002,6.5032 C17.5002,5.9512 17.0532,5.5032 16.5002,5.5032 L14.0002,5.5002 L12.3052,2.9432 C12.1202,2.6642 11.8352,2.5002 11.5002,2.5002 L7.8622,2.5002 C7.6282,2.5002 7.4012,2.5782 7.2212,2.7282 L4.8592,4.7002 C4.6312,4.8902 4.5002,5.1712 4.5002,5.4682 L4.5002,9.5002 L6.5922,9.5002 M4.5,5.5002 L14,5.5002 M8.5,2.5002 L8.5,5.5002 M9.4082,9.5002 L12.5932,9.5002 M8.8613,17.028 L4.1263,13.72 C3.6953,13.375 3.0663,13.443 2.7203,13.874 C2.3743,14.304 2.4433,14.934 2.8743,15.28 L8.7993,20.5 L12.7423,20.5 L13.7503,21.5 L21.2003,21.5 L16.1723,16.436 C15.0353,15.342 13.5883,14.528 12.1093,14.5 L10.0003,14.5 C8.0153,14.5 7.9683,17.5 10.0003,17.5 L12.0003,17.5"/>
</svg>
