<svg xmlns="http://www.w3.org/2000/svg" width="24" height="24" viewBox="0 0 24 24">
  <path fill="none" stroke="#000" d="M9.4995,16.084 L9.4995,12.5 L9.4985,11.501 C9.4985,10.948 9.9465,10.5 10.4995,10.5 C11.0525,10.5 11.5005,10.948 11.5005,11.501 L11.4995,13.008 L11.4985,10.501 C11.4985,9.948 11.9465,9.5 12.4995,9.5 C13.0525,9.5 13.5005,9.948 13.5005,10.501 L13.4975,13.001 M13.4971,11.4985 C13.4971,10.9455 13.9451,10.4975 14.4981,10.4975 C15.0521,10.4975 15.5001,10.9455 15.5001,11.4985 L15.5001,13.0005 L15.5001,12.5015 C15.5001,11.9485 15.9481,11.4995 16.5011,11.4995 C17.0551,11.4995 17.5031,11.9485 17.5031,12.5015 C17.5031,12.5015 17.5001,13.0625 17.5001,15.9995 C17.5001,18.9375 16.6001,20.4995 16.6001,20.4995 L9.4991,20.4995 L7.5001,17.9995 L7.5001,14.4995 M9.4995,16.084 C9.4995,16.084 9.4995,14.5 9.4995,14.5 C9.4995,13.947 9.0525,13.5 8.4995,13.5 C7.9475,13.5 7.4995,13.947 7.4995,14.5"/>
</svg>
