<svg xmlns="http://www.w3.org/2000/svg" width="24" height="24" viewBox="0 0 24 24">
  <g fill="none" fill-rule="evenodd">
    <path stroke="#000" d="M9.5,2.4997 C12.261,2.4997 14.5,4.7387 14.5,7.4997 C14.5,10.2617 12.261,12.4997 9.5,12.4997 C6.739,12.4997 4.5,10.2617 4.5,7.4997 C4.5,4.7387 6.739,2.4997 9.5,2.4997 Z M8.8613,17.0275 L4.1263,13.7195 C3.6953,13.3755 3.0663,13.4425 2.7203,13.8745 C2.3743,14.3035 2.4433,14.9335 2.8743,15.2805 L8.7993,20.5005 L12.7423,20.5005 L13.7503,21.5005 L21.2003,21.5005 L16.1723,16.4355 C15.0353,15.3415 13.5883,14.5275 12.1093,14.5005 L10.0003,14.5005 C8.0153,14.5005 7.9683,17.5005 10.0003,17.5005 L12.0003,17.5005"/>
    <path fill="#000" d="M7.8008,6.8264 C7.8948,6.4234 8.0568,6.0674 8.2868,5.7604 C8.6718,5.2434 9.2138,4.9844 9.9138,4.9844 C10.2598,4.9844 10.5618,5.0484 10.8198,5.1754 C10.9198,5.2254 11.0658,5.3134 11.2568,5.4384 L10.9288,6.2724 C10.6968,6.1114 10.4998,5.9984 10.3388,5.9344 C10.1788,5.8704 10.0118,5.8384 9.8378,5.8384 C9.3778,5.8384 9.0508,6.1674 8.8578,6.8264 L10.7168,6.8264 L10.5218,7.3804 L8.7578,7.3804 C8.7558,7.4374 8.7548,7.4894 8.7548,7.5374 C8.7548,7.5894 8.7558,7.6394 8.7578,7.6874 L10.3888,7.6874 L10.1798,8.2414 L8.8708,8.2414 C9.0738,8.8494 9.3988,9.1544 9.8458,9.1544 C9.9928,9.1544 10.1388,9.1324 10.2828,9.0874 C10.4258,9.0434 10.6388,8.9534 10.9178,8.8194 L10.9178,9.7834 C10.3968,9.9374 10.0198,10.0154 9.7868,10.0154 C9.3698,10.0154 8.9848,9.8814 8.6288,9.6124 C8.2298,9.3134 7.9608,8.8564 7.8218,8.2414 L7.1758,8.2414 L7.3768,7.6874 L7.7328,7.6874 C7.7288,7.5874 7.7268,7.5174 7.7268,7.4794 L7.7268,7.3804 L7.1758,7.3804 L7.3768,6.8264 L7.8008,6.8264 Z"/>
  </g>
</svg>
