<svg xmlns="http://www.w3.org/2000/svg" width="24" height="24" viewBox="0 0 24 24">
  <path fill="none" stroke="#000" d="M21.5,14.5 L2.5,14.5 L3.528,10.279 C3.783,9.233 4.698,8.5 5.748,8.5 L18.252,8.5 C19.302,8.5 20.217,9.233 20.472,10.279 L21.5,14.5 Z M3,12.5 L5.5,12.5 L5.5,10.5 L3.475,10.5 M21,12.5 L18.5,12.5 L18.5,10.5 L20.525,10.5 M7.5,15 C7.5,15.276 7.276,15.5 7,15.5 C6.724,15.5 6.5,15.276 6.5,15 C6.5,14.724 6.724,14.5 7,14.5 C7.276,14.5 7.5,14.724 7.5,15 Z M4.5,15 C4.5,15.276 4.276,15.5 4,15.5 C3.724,15.5 3.5,15.276 3.5,15 C3.5,14.724 3.724,14.5 4,14.5 C4.276,14.5 4.5,14.724 4.5,15 Z M20.5,15 C20.5,15.276 20.276,15.5 20,15.5 C19.724,15.5 19.5,15.276 19.5,15 C19.5,14.724 19.724,14.5 20,14.5 C20.276,14.5 20.5,14.724 20.5,15 Z M17.5,15 C17.5,15.276 17.276,15.5 17,15.5 C16.724,15.5 16.5,15.276 16.5,15 C16.5,14.724 16.724,14.5 17,14.5 C17.276,14.5 17.5,14.724 17.5,15 Z M8,10.5 L16,10.5 M8,12.5 L16,12.5"/>
</svg>
