<svg xmlns="http://www.w3.org/2000/svg" width="24" height="24" viewBox="0 0 24 24">
  <path fill="none" stroke="#000" d="M14.5,15 C14.5,17.485 12.485,19.5 10,19.5 C7.515,19.5 5.5,17.485 5.5,15 C5.5,12.515 7.515,10.5 10,10.5 C12.485,10.5 14.5,12.515 14.5,15 Z M19.5,8 C19.5,9.381 18.381,10.5 17,10.5 C15.619,10.5 14.5,9.381 14.5,8 C14.5,6.619 15.619,5.5 17,5.5 C18.381,5.5 19.5,6.619 19.5,8 Z M10.5,7 C10.5,7.829 9.829,8.5 9,8.5 C8.171,8.5 7.5,7.829 7.5,7 C7.5,6.171 8.171,5.5 9,5.5 C9.829,5.5 10.5,6.171 10.5,7 Z M3.688,13.4453 L5.647,5.9923 L3.688,13.4453 Z M15.429,18.5753 L20.76,10.4763 L15.429,18.5753 Z M17,3.5003 C19.485,3.5003 21.5,5.5143 21.5,8.0003 C21.5,8.9143 21.228,9.7653 20.759,10.4753 M15.43,18.5753 C14.267,20.3373 12.269,21.5003 10,21.5003 C6.41,21.5003 3.5,18.5903 3.5,15.0003 C3.5,14.3893 3.584,13.7993 3.742,13.2413 M5.647,5.9923 C6.03,4.5363 7.417,3.5003 9,3.5003 M17,3.5003 L9,3.5003 L17,3.5003 Z M12.5,15 C12.5,16.381 11.381,17.5 10,17.5 C8.619,17.5 7.5,16.381 7.5,15 C7.5,13.619 8.619,12.5 10,12.5 C11.381,12.5 12.5,13.619 12.5,15 Z"/>
</svg>
