<svg xmlns="http://www.w3.org/2000/svg" width="24" height="24" viewBox="0 0 24 24">
  <path fill="none" stroke="#000" d="M20.5,11.5 C20.5,16.471 16.471,20.5 11.5,20.5 C6.529,20.5 2.5,16.471 2.5,11.5 C2.5,6.529 6.529,2.5 11.5,2.5 C16.471,2.5 20.5,6.529 20.5,11.5 Z M11.5,4 L11.5,6 M6.1968,6.1968 L7.6108,7.6108 M4,11.5 L6,11.5 M6.1968,16.8037 L7.6108,15.3887 M16.8037,16.8037 L15.3887,15.3887 M19,11.5 L17,11.5 M16.8037,6.1968 L15.3887,7.6108 M9.5,16.5 L13.5,16.5 L13.5,14.5 L9.5,14.5 L9.5,16.5 Z M12.5,11.5 C12.5,12.052 12.052,12.5 11.5,12.5 C10.948,12.5 10.5,12.052 10.5,11.5 C10.5,10.948 10.948,10.5 11.5,10.5 C12.052,10.5 12.5,10.948 12.5,11.5 Z M12.4229,11.1177 L17.5049,9.0127"/>
</svg>
