<svg xmlns="http://www.w3.org/2000/svg" width="24" height="24" viewBox="0 0 24 24">
  <g fill="none" fill-rule="evenodd">
    <polyline stroke="#000" points="3 11 12 5 21 11"/>
    <path fill="#000" d="M11.1807,11.8454 L11.1807,14.6754 L13.1287,14.6754 C13.7077,14.6754 14.1247,14.5734 14.3797,14.3674 C14.6947,14.1124 14.8517,13.7364 14.8517,13.2404 C14.8517,12.7384 14.6697,12.3654 14.3047,12.1184 C14.0407,11.9364 13.6107,11.8454 13.0127,11.8454 L11.1807,11.8454 Z M8.9997,9.9994 L13.0337,9.9994 C13.7127,9.9994 14.2467,10.0414 14.6367,10.1254 C15.0267,10.2104 15.3777,10.3594 15.6927,10.5744 C16.5637,11.1574 16.9977,12.0364 16.9977,13.2124 C16.9977,14.2554 16.6387,15.0754 15.9177,15.6734 C15.6137,15.9284 15.2647,16.1124 14.8717,16.2234 C14.4807,16.3354 13.9967,16.3914 13.4227,16.3914 L11.1807,16.3914 L11.1807,19.9934 L8.9997,19.9934 L8.9997,9.9994 Z"/>
  </g>
</svg>
