<svg xmlns="http://www.w3.org/2000/svg" width="24" height="24" viewBox="0 0 24 24">
  <path fill="none" stroke="#000" d="M11.5,6.5 L11.5,9 M16,7.7056 L14.75,9.8706 M19.2939,11 L17.1289,12.25 M7,7.7056 L8.25,9.8706 M3.7056,11 L5.8706,12.25 M7.6108,11.6108 L10.0858,14.0858 M15,15.5 L20.5,15.5 C20.5,10.529 16.471,6.5 11.5,6.5 C6.529,6.5 2.5,10.529 2.5,15.5 L8,15.5 M13.5,15.5 C13.5,16.604 12.604,17.5 11.5,17.5 C10.396,17.5 9.5,16.604 9.5,15.5 C9.5,14.396 10.396,13.5 11.5,13.5 C12.604,13.5 13.5,14.396 13.5,15.5 Z"/>
</svg>
