<svg xmlns="http://www.w3.org/2000/svg" width="24" height="24" viewBox="0 0 24 24">
  <path fill="none" stroke="#000" d="M18,14.5007 L15,14.5007 M16.5,16.0007 L16.5,13.0007 M18.5,21.5007 L5.5,21.5007 C4.396,21.5007 3.5,20.6047 3.5,19.5007 L3.5,12.5007 C3.5,11.3957 4.396,10.5007 5.5,10.5007 L18.5,10.5007 C19.604,10.5007 20.5,11.3957 20.5,12.5007 L20.5,19.5007 C20.5,20.6047 19.604,21.5007 18.5,21.5007 Z M7.5,16.5007 C6.143,17.0307 5.5,18.0007 5.5,19.5007 L11.5,19.5007 C11.5,18.0007 10.857,17.0257 9.5,16.5007 L7.5,16.5007 Z M8.5,12.5007 C9.604,12.5007 10.5,13.3967 10.5,14.5007 C10.5,15.6047 9.604,16.5007 8.5,16.5007 C7.396,16.5007 6.5,15.6047 6.5,14.5007 C6.5,13.3967 7.396,12.5007 8.5,12.5007 Z M9.5249,8.5251 C10.1589,7.8921 11.0339,7.5001 11.9999,7.5001 C12.9659,7.5001 13.8419,7.8921 14.4749,8.5251 M8.1108,7.1111 C9.1068,6.1151 10.4818,5.5001 11.9998,5.5001 C13.5188,5.5001 14.8938,6.1151 15.8888,7.1111 M6.6968,5.6965 C8.0538,4.3395 9.9288,3.5005 11.9998,3.5005 C14.0718,3.5005 15.9468,4.3395 17.3038,5.6965"/>
</svg>
