<svg xmlns="http://www.w3.org/2000/svg" width="24" height="24" viewBox="0 0 24 24">
  <path fill="none" stroke="#000" d="M16,17.4997 L18,21.4997 M6,21.4997 L8,17.4997 M18,19.4997 L6,19.4997 M19,21.4997 L5,21.4997 M14,5.5002 L16,5.5002 C17.381,5.5002 18.5,6.6192 18.5,8.0002 L18.5,17.5002 L5.5,17.5002 L5.5,8.0002 C5.5,6.6192 6.619,5.5002 8,5.5002 L10,5.5002 M15.5,14.9997 C15.5,14.7247 15.276,14.4997 15,14.4997 C14.724,14.4997 14.5,14.7247 14.5,14.9997 C14.5,15.2757 14.724,15.4997 15,15.4997 C15.276,15.4997 15.5,15.2757 15.5,14.9997 Z M9.5,14.9997 C9.5,14.7247 9.276,14.4997 9,14.4997 C8.724,14.4997 8.5,14.7247 8.5,14.9997 C8.5,15.2757 8.724,15.4997 9,15.4997 C9.276,15.4997 9.5,15.2757 9.5,14.9997 Z M11,13.0002 L14,8.5002 L10,8.5002 L14,3.0002"/>
</svg>
