<svg xmlns="http://www.w3.org/2000/svg" width="24" height="24" viewBox="0 0 24 24">
  <g fill="none" fill-rule="evenodd">
    <path stroke="#000" d="M2.5,5.5 L15.5,5.5 L15.5,8.5 L15.5,11.5 L15.5,13.5 L15.5,14.5 L9.5,14.5 L8.75,14.5 L6.5,16.75 L6.5,14.5 L2.5,14.5 L2.5,5.5 Z M15.5,8.5 L20.5,8.5 L20.5,17.5 L17.5,17.5 L17.5,19.75 L15.25,17.5 L9.5,17.5 L9.5,14.5 M19,11.5 L15.5,11.5 M18,13.5 L15.5,13.5"/>
    <polygon fill="#000" points="9.8 8 11.4 9.5 9.5 9.5 9.5 8 8.5 8 8.5 9.5 6.6 9.5 8.2 8 7 8 5 10 7 12 8.2 12 6.6 10.5 8.5 10.5 8.5 12 9.5 12 9.5 10.5 11.4 10.5 9.8 12 11 12 13 10 11 8"/>
  </g>
</svg>
