<svg xmlns="http://www.w3.org/2000/svg" width="24" height="24" viewBox="0 0 24 24">
  <path fill="none" stroke="#000" d="M21.5,3.4997 L21.5,5.4997 C19.8,5.4997 18.5,6.7997 18.5,8.4997 C18.5,10.1997 19.8,11.4997 21.5,11.4997 L21.5,13.4997 L5.5,13.4997 L5.5,3.4997 L21.5,3.4997 Z M4,10.4997 L2.5,10.4997 L2.5,20.4997 L18.5,20.4997 L18.5,18.2247 C16.824,18.0957 15.5,16.7097 15.5,14.9997 M15.5,5.9997 L15.5,4.9997 M15.5,7.9997 L15.5,6.9997 M15.5,9.9997 L15.5,8.9997 M15.5,11.9997 L15.5,10.9997 M12.5,16.9997 L12.5,15.9997 M12.5,18.9997 L12.5,17.9997"/>
</svg>
