<svg xmlns="http://www.w3.org/2000/svg" width="24" height="24" viewBox="0 0 24 24">
  <path fill="none" stroke="#000" d="M15,11 C15,12.941 13.675,14.5 12,14.5 C10.325,14.5 9,12.941 9,11 C9,9.059 10.325,7.5 12,7.5 C13.675,7.5 15,9.059 15,11 Z M10.0962,13.7148 C7.2492,14.9668 5.5002,18.0308 5.5002,21.4998 L18.5002,21.4998 C18.5002,18.4458 17.1152,15.1288 13.9252,13.6948 M13.6045,5.8691 C13.9085,4.6441 14.8445,3.5001 16.0005,3.5001 C17.4135,3.5001 18.5005,4.8571 18.5005,6.4951 C18.5005,7.9661 17.6345,9.2191 16.4325,9.4581 M7.4775,9.4395 C6.3225,9.1555 5.4995,7.9285 5.4995,6.4955 C5.4995,4.8565 6.5865,3.5005 7.9995,3.5005 C9.1485,3.5005 10.0815,4.6545 10.3905,5.8695 M16.3779,15.499 L21.5009,15.499 C21.5009,12.821 20.4529,10.012 17.6539,8.754 M6.3584,8.7681 C3.8374,9.8771 2.4794,12.4531 2.4794,15.5231 L7.6044,15.5231 M8.5,12.5 L7,12.5 C6.758,12.5 6.5,12.275 6.5,12 L6.5,10.006 C6.5,9.733 6.753,9.5 7,9.5 L8.5,9.5 L8.5,12.5 Z M12,12.5 L17,12.5 C17.293,12.5 17.5,12.321 17.5,12 L17.5,10 C17.5,9.718 17.345,9.5 17,9.5 L15.5,9.5 L15.5,12.5 M7.4648,9.5 C8.5528,4.168 15.6298,4.375 16.4398,9.5"/>
</svg>
