<svg xmlns="http://www.w3.org/2000/svg" width="24" height="24" viewBox="0 0 24 24">
  <path fill="none" stroke="#000" d="M17,14.4997 C18.381,14.4997 19.5,15.6187 19.5,16.9997 C19.5,18.3807 18.381,19.4997 17,19.4997 C15.619,19.4997 14.5,18.3807 14.5,16.9997 C14.5,15.6187 15.619,14.4997 17,14.4997 Z M21,20.9997 L18.768,18.7677 M8.6777,10.7737 C5.6957,11.6907 3.4997,14.8027 3.4997,18.4997 L13.1467,18.4997 M15.7447,13.2027 C14.8507,12.0457 13.6667,11.1877 12.3237,10.7737 M10.4997,4.4997 C12.1567,4.4997 13.4997,6.0667 13.4997,7.9997 C13.4997,9.9327 12.1567,11.4997 10.4997,11.4997 C8.8427,11.4997 7.4997,9.9327 7.4997,7.9997 C7.4997,6.0667 8.8427,4.4997 10.4997,4.4997 Z"/>
</svg>
