<svg xmlns="http://www.w3.org/2000/svg" width="48" height="48" viewBox="0 0 48 48">
  <path fill="none" stroke="#000" stroke-width="2" d="M15.08,9 L10.92,9 C9.452,9 8.13,9.864 7.54,11.188 C6.076,14.462 5,15.782 5,17.35 L5,39.602 C5,41.478 6.542,43 8.448,43 L17.552,43 C19.456,43 21,41.478 21,39.602 L21,17.35 C21,15.782 19.924,14.462 18.46,11.188 C17.868,9.864 16.548,9 15.08,9 Z M5,37 L13,37 L13,21 L5,21 L5,37 Z M11,9 L15,9 L15,4.998 L11,4.998 L11,9 Z M34,42 C35.216,42.05 35.758,42.958 38,43 C41.062,43 43,39 43,33.192 C43,27 39.806,26.96 38,27 C35.65,27 36.124,28 34,28 C31.876,28 32.348,27 30,27 C28.192,26.96 25,27 25,33.192 C25,39 26.938,43 30,43 C32.242,42.958 32.784,42.05 34,42 Z M38.9376,21 C38.9376,21 33.9996,21.25 33.9996,28"/>
</svg>
