<svg xmlns="http://www.w3.org/2000/svg" width="48" height="48" viewBox="0 0 48 48">
  <g fill="none" fill-rule="evenodd">
    <path stroke="#000" stroke-width="2" d="M22.999,5.0004 L6.999,5.0004 L6.999,17.0004 L22.999,17.0004 L22.999,11.6984 L24.999,10.0004 L22.999,8.0004 L22.999,5.0004 Z M19.999,8.9584 L9.957,8.9584 M15.999,12.9584 L9.957,12.9584 M12.33,29.6986 C9.226,31.3506 7,35.7786 7,40.9986 L23,40.9986 C23,35.7786 20.774,31.3486 17.67,29.6986 M15,21.0004 C17.208,21.0004 19,23.2384 19,26.0004 C19,28.7604 17.208,31.0004 15,31.0004 C12.792,31.0004 11,28.7604 11,26.0004 C11,23.2384 12.792,21.0004 15,21.0004 Z M30.332,13.6986 C27.228,15.3486 25,19.7786 25,24.9986 L41.002,24.9986 C41.002,19.7786 38.776,15.3486 35.672,13.6986 M33.002,4.9994 C35.21,4.9994 37.002,7.2374 37.002,9.9994 C37.002,12.7614 35.21,14.9994 33.002,14.9994 C30.792,14.9994 29.002,12.7614 29.002,9.9994 C29.002,7.2374 30.792,4.9994 33.002,4.9994 Z"/>
    <polygon fill="#000" points="34 17.5 36 19.374 33.626 19.374 33.626 17.5 32.376 17.5 32.376 19.374 30 19.374 32 17.5 30.5 17.5 28 20 30.5 22.5 32 22.5 30 20.624 32.376 20.624 32.376 22.5 33.626 22.5 33.626 20.624 36 20.624 34 22.5 35.5 22.5 38 20 35.5 17.5"/>
  </g>
</svg>
