<svg xmlns="http://www.w3.org/2000/svg" width="48" height="48" viewBox="0 0 48 48">
  <path fill="none" stroke="#000" stroke-width="2" d="M35,14.9994 L35,19.9994 M39.002,11.0004 L39.002,8.0004 M8.999,11.0004 L8.999,8.0004 M39,18.9994 C39,21.2314 37.232,22.9994 35,22.9994 C32.77,22.9994 31,21.2314 31,18.9994 C31,16.7674 32.77,14.9994 35,14.9994 C37.232,14.9994 39,16.7674 39,18.9994 Z M5,39 L43,39 L43,11 L5,11 L5,39 Z M8,15.0004 L28,15.0004 M8,19.0004 L28,19.0004 M8,23.0004 L28,23.0004 M8,27.0014 L28,27.0014 M8,31.0014 L28,31.0014 M8,35.0014 L28,35.0014"/>
</svg>
