<svg xmlns="http://www.w3.org/2000/svg" width="48" height="48" viewBox="0 0 48 48">
  <path fill="none" stroke="#000" stroke-width="2" d="M19,4.9994 C24.522,4.9994 29,9.4774 29,14.9994 C29,20.5234 24.522,24.9994 19,24.9994 C13.478,24.9994 9,20.5234 9,14.9994 C9,9.4774 13.478,4.9994 19,4.9994 Z M19,21.9994 L19,7.9994 M12,14.9994 L26,14.9994 M17.7226,34.056 L8.2526,27.44 C7.3906,26.75 6.1326,26.886 5.4406,27.748 C4.7486,28.608 4.8866,29.868 5.7486,30.56 L17.5986,41 L25.4846,41 L27.5006,43 L42.4006,43 L32.3446,32.872 C30.0706,30.684 27.1766,29.056 24.2186,29 L20.0006,29 C16.0306,29 15.9366,35 20.0006,35 L24.0006,35"/>
</svg>
