<svg xmlns="http://www.w3.org/2000/svg" width="48" height="48" viewBox="0 0 48 48">
  <g fill="none" fill-rule="evenodd">
    <path stroke="#000" stroke-width="2" d="M17.7226,34.056 L8.2526,27.44 C7.3906,26.75 6.1326,26.886 5.4406,27.748 C4.7486,28.608 4.8866,29.868 5.7486,30.56 L17.5986,41 L25.4846,41 L27.5006,43 L42.4006,43 L32.3446,32.872 C30.0706,30.684 27.1766,29.056 24.2186,29 L20.0006,29 C16.0306,29 15.9366,35 20.0006,35 L24.0006,35"/>
    <polygon fill="#000" points="20.948 7.999 26.438 13.407 19.614 13.407 19.614 7.999 16.386 7.999 16.386 13.407 9.6 13.407 15.088 7.999 11.008 7.999 4 14.999 11.008 21.999 15.088 21.999 9.6 16.627 16.386 16.627 16.386 21.999 19.614 21.999 19.614 16.627 26.438 16.627 20.948 21.999 25.028 21.999 32 14.999 25.028 7.999"/>
  </g>
</svg>
