<svg xmlns="http://www.w3.org/2000/svg" width="48" height="48" viewBox="0 0 48 48">
  <g fill="none" fill-rule="evenodd">
    <path stroke="#000" stroke-width="2" d="M4,40.9994 L19,40.9994 L28.988,40.9994 L44,40.9994 M4,8.9994 L44,8.9994 M7,40.9994 L7,8.9994 M41,40.9994 L41,8.9994 M9,9 L39,9 L39,5 L9,5 L9,9 Z M27,11.9994 L27,21.9994 M21,11.9994 L21,21.9994 M21,16.9994 L27,16.9994 M19,40.9994 L19,34.9994 L29,34.9994 L28.988,40.9994"/>
    <path fill="#000" d="M14,23.9994 L15,27.2014 L18,27.2014 L15.6,28.7994 L16.6,31.9994 L14,30.2014 L11.4,31.9994 L12.4,28.9994 L10,27.2014 L13,27.2014 L14,23.9994 Z M24,23.9994 L25,26.9994 L28,26.9994 L25.6,28.7994 L26.6,31.9994 L24,30.2014 L21.4,31.9994 L22.4,28.9994 L20,27.2014 L23,27.2014 L24,23.9994 Z M34,23.9994 L35,26.9994 L38,26.9994 L35.6,28.7994 L36.6,31.9994 L34,30.2014 L31.4,31.9994 L32.4,28.9994 L30,27.2014 L33,27.2014 L34,23.9994 Z"/>
  </g>
</svg>
