<svg xmlns="http://www.w3.org/2000/svg" width="48" height="48" viewBox="0 0 48 48">
  <path fill="none" stroke="#000" stroke-width="2" d="M5.5,40.5 L28.5,40.5 L28.5,7.5 L5.5,7.5 L5.5,40.5 Z M33.7578,12.0004 L37.9998,7.7564 L42.2418,12.0004 M42.2422,36.0014 L38.0002,40.2434 L33.7582,36.0014 M18.999,13.0004 C18.999,14.1044 18.103,15.0004 16.999,15.0004 C15.895,15.0004 14.999,14.1044 14.999,13.0004 C14.999,11.8944 15.895,11.0004 16.999,11.0004 C18.103,11.0004 18.999,11.8944 18.999,13.0004 Z M20.999,28.9994 L20.999,18.9994 L12.999,18.9994 L12.999,28.9994 L14.999,28.9994 L14.999,36.9994 L18.999,36.9994 L18.999,28.9994 L20.999,28.9994 Z"/>
</svg>
