<svg xmlns="http://www.w3.org/2000/svg" width="48" height="48" viewBox="0 0 48 48">
  <path fill="none" stroke="#000" stroke-width="2" d="M13.0002,9.0004 C13.0002,6.7904 11.2082,5.0004 9.0002,5.0004 C6.7922,5.0004 5.0002,6.7904 5.0002,9.0004 C5.0002,11.2084 6.7922,13.0004 9.0002,13.0004 C11.2082,13.0004 13.0002,11.2084 13.0002,9.0004 Z M12.464,7.0004 L23,7.0004 L24.968,8.9684 L22.938,11.0004 L12.464,11.0004 M5,43.001 L43,43.001 L43,17.001 L5,17.001 L5,43.001 Z M35.0002,25.0014 L13.0002,25.0014 C11.8962,25.0014 11.0002,25.8954 11.0002,27.0014 L11.0002,35.0014 C11.0002,36.1054 11.8962,37.0014 13.0002,37.0014 L35.0002,37.0014 C36.1042,37.0014 37.0002,36.1054 37.0002,35.0014 L37.0002,27.0014 C37.0002,25.8954 36.1042,25.0014 35.0002,25.0014 Z M20.0002,23.0014 L28.0002,23.0014"/>
</svg>
