<svg xmlns="http://www.w3.org/2000/svg" width="48" height="48" viewBox="0 0 48 48">
  <path fill="none" stroke="#000" stroke-width="2" d="M17,19.5 C17,24.712 19.58,29.636 24,32.852 C31.942,27.072 33.334,16.408 27.108,9.034 C26.202,7.96 25.158,6.99 24,6.148 C19.58,9.362 17,14.288 17,19.5 Z M5.794,25.9512 C4.664,26.5752 3.606,27.3232 2.642,28.1832 C5.998,34.4792 12.938,37.9972 20,36.9872 M28,36.9864 C35.062,37.9984 42.002,34.4784 45.358,28.1824 C44.394,27.3224 43.338,26.5744 42.206,25.9504 M13.9942,14.4122 C11.8902,13.6002 9.6442,13.2002 7.3722,13.2722 C5.4482,22.3382 11.1762,31.2682 20.2222,33.2942 M34.0058,14.4122 C36.1098,13.6002 38.3558,13.2002 40.6278,13.2722 C42.5518,22.3382 36.8238,31.2682 27.7778,33.2942"/>
</svg>
