<svg xmlns="http://www.w3.org/2000/svg" width="48" height="48" viewBox="0 0 48 48">
  <g fill="none" fill-rule="evenodd">
    <path stroke="#000" stroke-width="2" d="M5,24.0004 C5.02,13.4764 13.77,4.9804 24.658,5.00036476 C32.312,5.0144 39.246,9.1784 42.474,15.8864 C42.686,16.3304 42.862,16.7904 43,17.2584 M43,8.0004 L43,17.0004 L34,17.0004 M43,24.0004 C42.958,34.5364 34.278,43.0404 23.416,43.0005405 C15.836,42.9724 8.762,38.6164 5.524,31.9684 C5.314,31.5244 5.138,31.0664 5,30.5964 M5,39.9994 L5,30.9994 L14,30.9994"/>
    <path fill="#000" d="M18.2784,24.8628 L18.2784,24.7688 L18.2784,24.2168 C18.2784,24.0808 18.2864,23.7628 18.3064,23.2608 L18.3204,23.1648 L16.0904,23.1648 L16.8164,21.4948 L18.5104,21.4948 C18.6664,20.5888 18.8884,19.7388 19.1804,18.9488 C20.3924,15.6348 22.6084,13.9788 25.8244,13.9788 C28.0944,13.9788 30.1564,14.6928 32.0044,16.1208 L31.0344,18.3028 C30.2144,17.7648 29.5824,17.3648 29.1324,17.1048 C28.0384,16.4848 26.9224,16.1748 25.7844,16.1748 C23.6964,16.1748 22.2524,17.3908 21.4504,19.8248 C21.2504,20.4268 21.1084,20.9828 21.0264,21.4948 L29.6124,21.4948 L28.8604,23.1648 L20.7944,23.1648 C20.7764,23.6588 20.7664,24.0328 20.7664,24.2828 C20.7664,24.4088 20.7724,24.6028 20.7804,24.8628 L28.1204,24.8628 L27.3704,26.5328 L20.9724,26.5328 C21.1364,27.4588 21.4084,28.3208 21.7924,29.1208 C22.2564,30.0648 22.8124,30.7408 23.4604,31.1548 C24.1344,31.5848 24.9424,31.8008 25.8804,31.8008 C26.6564,31.8008 27.3444,31.6928 27.9444,31.4788 C28.5464,31.2608 29.5744,30.7588 31.0344,29.9688 L31.0344,32.6508 C30.6244,32.8828 30.3744,33.0228 30.2804,33.0688 C28.9424,33.7328 27.4104,34.0648 25.6884,34.0648 C21.6324,34.0648 19.2124,31.5548 18.4284,26.5328 L16.0904,26.5328 L16.8164,24.8628 L18.2784,24.8628 Z"/>
  </g>
</svg>
