<svg xmlns="http://www.w3.org/2000/svg" width="48" height="48" viewBox="0 0 48 48">
  <path fill="none" stroke="#000" stroke-width="2" d="M12.999,11.0004 C12.999,12.1044 12.103,13.0004 10.999,13.0004 C9.895,13.0004 8.999,12.1044 8.999,11.0004 C8.999,9.8944 9.895,9.0004 10.999,9.0004 C12.103,9.0004 12.999,9.8944 12.999,11.0004 Z M14.999,26.9994 L14.999,16.9994 L6.999,16.9994 L6.999,26.9994 L8.999,26.9994 L8.999,38.9994 L12.999,38.9994 L12.999,26.9994 L14.999,26.9994 Z M37,30.9994 L37,38.9994 L33,38.9994 L33,30.9994 M37,11.0004 C37,12.1044 36.106,13.0004 35,13.0004 C33.896,13.0004 33,12.1044 33,11.0004 C33,9.8944 33.896,9.0004 35,9.0004 C36.106,9.0004 37,9.8944 37,11.0004 Z M41,30.9994 L37,16.9994 L33,16.9994 L29,30.9994 L41,30.9994 Z M23,8.0004 L23,40.0004"/>
</svg>
