<svg xmlns="http://www.w3.org/2000/svg" width="48" height="48" viewBox="0 0 48 48">
  <g fill="none" fill-rule="evenodd" stroke="#000" stroke-width="2">
    <path d="M37.996,18.0012 C37.996,18.5532 37.548,19.0012 36.996,19.0012 C36.446,19.0012 35.996,18.5532 35.996,18.0012 C35.996,17.4492 36.446,17.0012 36.996,17.0012 C37.548,17.0012 37.996,17.4492 37.996,18.0012"/>
    <path d="M37.996,18.0012 C37.996,18.5532 37.548,19.0012 36.996,19.0012 C36.446,19.0012 35.996,18.5532 35.996,18.0012 C35.996,17.4492 36.446,17.0012 36.996,17.0012 C37.548,17.0012 37.996,17.4492 37.996,18.0012 Z M6,39.0002 L31.002,39.0002 L31.002,33.0002 L42,33.0002 M23.2852,13.0002 C25.8532,13.0002 26.9992,14.0962 26.9992,16.5562 L26.9992,35.0002 L6.9992,35.0002 L6.9992,16.5562 C6.9992,14.0962 8.1472,13.0002 10.7152,13.0002 L23.2852,13.0002 M27,25.0002 L7,25.0002 M23,7.0002 L11,7.0002 M20,17.0012 L14,17.0012 M9,35.0002 L9,39.0002 M25,35.0002 L25,39.0002 M20,7.0002 L17,11.5802 L14,7.0002 M23,30.0002 C23,30.5522 22.55,31.0002 22,31.0002 C21.448,31.0002 21,30.5522 21,30.0002 C21,29.4482 21.448,29.0002 22,29.0002 C22.55,29.0002 23,29.4482 23,30.0002 Z M13,30.0002 C13,30.5522 12.55,31.0002 12,31.0002 C11.448,31.0002 11,30.5522 11,30.0002 C11,29.4482 11.448,29.0002 12,29.0002 C12.55,29.0002 13,29.4482 13,30.0002 Z M39,26.0002 L39,21.0002 L35,21.0002 L35,26.0002 L36,26.0002 L36,32.0002 L38,32.0002 L38,26.0002 L39,26.0002 Z"/>
  </g>
</svg>
