<svg xmlns="http://www.w3.org/2000/svg" width="48" height="48" viewBox="0 0 48 48">
  <path fill="none" stroke="#000" stroke-width="2" d="M29.2012,12.599 L32.9992,15.999 L36.8012,11.199 M41,14.9994 C41,19.4634 37.464,22.9994 33,22.9994 C28.538,22.9994 25,19.4634 25,14.9994 C25,10.5354 28.538,6.9994 33,6.9994 C37.464,6.9994 41,10.5354 41,14.9994 Z M25,41 L41,41 L41,31.02 L25,31.02 L25,41 Z M30.002,29.019 L36.002,29.019 M12.999,13.0004 C12.999,14.1044 12.103,15.0004 10.999,15.0004 C9.895,15.0004 8.999,14.1044 8.999,13.0004 C8.999,11.8944 9.895,11.0004 10.999,11.0004 C12.103,11.0004 12.999,11.8944 12.999,13.0004 Z M14.999,28.9994 L14.999,18.9994 L6.999,18.9994 L6.999,28.9994 L8.999,28.9994 L8.999,40.9994 L12.999,40.9994 L12.999,28.9994 L14.999,28.9994 Z"/>
</svg>
