<svg xmlns="http://www.w3.org/2000/svg" width="48" height="48" viewBox="0 0 48 48">
  <g fill="none" fill-rule="evenodd">
    <path stroke="#000" stroke-width="2" d="M13.0176,9.0004 L24.9996,9.0004 L34.9996,19.0004 L34.9996,39.0004 L12.9996,39.0004 L13.0176,9.0004 Z M25,9.0004 L25,19.0004 L35,19.0004"/>
    <path fill="#000" d="M29.6938,29.8606 C30.2658,29.8606 30.7438,29.9746 31.1298,30.2006 C31.6838,30.5286 31.9758,31.0526 32.0078,31.7826 L30.7598,31.7826 C30.7358,31.4906 30.6278,31.2666 30.4338,31.1106 C30.2418,30.9546 29.9698,30.8806 29.6238,30.8806 C29.3138,30.8806 29.0738,30.9386 28.9038,31.0606 C28.7318,31.1846 28.6478,31.3526 28.6478,31.5726 C28.6478,31.7706 28.7298,31.9106 28.8938,31.9966 C29.0518,32.0866 29.4558,32.2086 30.0998,32.3686 C30.7818,32.5366 31.2518,32.7086 31.5158,32.8806 C31.9978,33.1966 32.2398,33.6386 32.2398,34.2046 C32.2398,34.8246 31.9978,35.3146 31.5098,35.6726 C31.0818,35.9906 30.4998,36.1466 29.7678,36.1466 C28.9538,36.1466 28.3198,35.9586 27.8698,35.5866 C27.4178,35.2166 27.1838,34.6846 27.1678,34.0006 L28.4698,34.0006 C28.4898,34.3326 28.5758,34.5786 28.7298,34.7426 C28.9698,35.0006 29.3318,35.1266 29.8158,35.1266 C30.1438,35.1266 30.4038,35.0646 30.5958,34.9346 C30.8118,34.7866 30.9198,34.5866 30.9198,34.3326 C30.9198,34.0786 30.7678,33.8926 30.4658,33.7746 C30.2998,33.7086 29.9038,33.5906 29.2838,33.4186 C28.8938,33.3106 28.5918,33.2086 28.3738,33.1146 C28.1538,33.0166 27.9778,32.9106 27.8478,32.7946 C27.5418,32.5206 27.3878,32.1426 27.3878,31.6606 C27.3878,31.0866 27.6278,30.6306 28.1078,30.2946 C28.5138,30.0046 29.0438,29.8606 29.6938,29.8606 Z M23.6324,30.006 L23.6324,34.894 L26.5664,34.894 L26.5664,36.002 L22.3244,36.002 L22.3244,30.006 L23.6324,30.006 Z M17.6988,30.0054 L18.8888,31.9294 L20.0928,30.0054 L21.5468,30.0054 L19.6188,32.8654 L21.7228,36.0014 L20.1468,36.0014 L18.8348,33.9174 L17.4988,36.0014 L16.0008,36.0014 L18.1168,32.8654 L16.1648,30.0054 L17.6988,30.0054 Z"/>
  </g>
</svg>
