<svg xmlns="http://www.w3.org/2000/svg" width="48" height="48" viewBox="0 0 48 48">
  <g fill="none" fill-rule="evenodd">
    <path stroke="#000" stroke-width="2" d="M13.0176,9.0004 L24.9996,9.0004 L34.9996,19.0004 L34.9996,39.0004 L12.9996,39.0004 L13.0176,9.0004 Z M25,9.0004 L25,19.0004 L35,19.0004"/>
    <path fill="#000" d="M32,30.0054 L32,31.1134 L30.14,31.1134 L30.14,36.0014 L28.804,36.0014 L28.804,31.1134 L26.954,31.1134 L26.954,30.0054 L32,30.0054 Z M18.47,30.0048 C18.886,30.0048 19.212,30.0308 19.452,30.0788 C19.69,30.1308 19.906,30.2208 20.1,30.3488 C20.632,30.6988 20.9,31.2268 20.9,31.9328 C20.9,32.5588 20.678,33.0508 20.238,33.4088 C20.05,33.5628 19.836,33.6708 19.596,33.7388 C19.356,33.8068 19.06,33.8388 18.71,33.8388 L17.336,33.8388 L17.336,36.0008 L16,36.0008 L16,30.0048 L18.47,30.0048 Z M24.1018,30.0048 C24.5178,30.0048 24.8438,30.0308 25.0838,30.0788 C25.3218,30.1308 25.5378,30.2208 25.7318,30.3488 C26.2638,30.6988 26.5318,31.2268 26.5318,31.9328 C26.5318,32.5588 26.3098,33.0508 25.8698,33.4088 C25.6818,33.5628 25.4678,33.6708 25.2278,33.7388 C24.9878,33.8068 24.6918,33.8388 24.3418,33.8388 L22.9678,33.8388 L22.9678,36.0008 L21.6318,36.0008 L21.6318,30.0048 L24.1018,30.0048 Z M18.458,31.1128 L17.336,31.1128 L17.336,32.8108 L18.53,32.8108 C18.882,32.8108 19.138,32.7468 19.294,32.6248 C19.488,32.4728 19.584,32.2468 19.584,31.9488 C19.584,31.6488 19.472,31.4228 19.25,31.2768 C19.088,31.1668 18.824,31.1128 18.458,31.1128 Z M24.0898,31.1128 L22.9678,31.1128 L22.9678,32.8108 L24.1618,32.8108 C24.5138,32.8108 24.7698,32.7468 24.9258,32.6248 C25.1198,32.4728 25.2158,32.2468 25.2158,31.9488 C25.2158,31.6488 25.1038,31.4228 24.8818,31.2768 C24.7198,31.1668 24.4558,31.1128 24.0898,31.1128 Z"/>
  </g>
</svg>
