<svg xmlns="http://www.w3.org/2000/svg" width="48" height="48" viewBox="0 0 48 48">
  <path fill="none" stroke="#000" stroke-width="2" d="M25,8.9926 L25,18.9926 L35,18.9926 M18.002,23.0004 L30.002,23.0004 M17.998,26.9994 L30.002,26.9994 M35,38.9994 L13,38.9994 L13,8.9994 L25,8.9994 L35,18.9994 L35,38.9994 Z M30.002,34.9994 C29.986,34.9734 29.222,33.8594 28.29,33.9994 C26.942,34.2054 26.094,36.1094 25.188,35.6014 C24.646,35.2974 25.766,33.1134 24.29,33.0294 C23.432,32.9794 21.826,36.2774 20.82,35.9814 C19.922,35.7174 21.158,32.4974 20.342,32.0734 C19.214,31.4874 18.002,33.9994 18.002,33.9994"/>
</svg>
