<svg xmlns="http://www.w3.org/2000/svg" width="48" height="48" viewBox="0 0 48 48">
  <g fill="none" fill-rule="evenodd">
    <path stroke="#000" stroke-width="2" d="M13.0176,9.0004 L24.9996,9.0004 L34.9996,19.0004 L34.9996,39.0004 L12.9996,39.0004 L13.0176,9.0004 Z M25,9.0004 L25,19.0004 L35,19.0004"/>
    <polygon fill="#000" points="25.6 27.999 28.802 30.999 25 30.999 25 27.999 23 27.999 23 30.999 19.2 30.999 22.4 27.999 20 27.999 16 31.999 20 35.999 22.4 35.999 19.2 32.999 23 32.999 23 35.999 25 35.999 25 32.999 28.802 32.999 25.6 35.999 28 35.999 32 31.999 28 27.999"/>
  </g>
</svg>
