<svg xmlns="http://www.w3.org/2000/svg" width="48" height="48" viewBox="0 0 48 48">
  <path fill="none" stroke="#000" stroke-width="2" d="M35,33.9994 L35,29.9994 M35,26.0004 L35,22.0004 M39,33.9994 L39,29.9994 M39,26.0004 L39,22.0004 M27,33.9994 L27,29.9994 M27,26.0004 L27,22.0004 M27,18.0004 L27,14.0004 M23,33.9994 L23,29.9994 M23,26.0004 L23,22.0004 M23,18.0004 L23,14.0004 M19,33.9994 L19,29.9994 M19,26.0004 L19,22.0004 M19,18.0004 L19,14.0004 M12,17.0004 L8,17.0004 M12,11.0004 L8,11.0004 M12,23.0004 L8,23.0004 M12,28.9994 L8,28.9994 M31,38.9994 L15,38.9994 M15,34.9994 L5,34.9994 M43,38.9994 L31,38.9994 M5,43.9994 L5,6.9994 L15,4.9994 L15,42.9994 M15,43.9994 L15,8.9994 L31,8.9994 L31,43.9994 M31,17.0004 L43,17.0004 L43,44.0004"/>
</svg>
