<svg xmlns="http://www.w3.org/2000/svg" width="36" height="36" viewBox="0 0 36 36"><path fill="none" stroke="#000" stroke-width="1.5" d="M30.70605,25.5219 L26.24955,27.7494 L26.24955,29.2494 C26.24955,30.9069 24.90705,32.2494 23.24955,32.2494 L17.24955,32.2494 C16.90755,29.8194 14.82105,27.6099 13.20405,26.2269 C12.34155,25.4904 12.52455,24.1134 13.53855,23.6064 L13.53855,23.6064 C13.98555,23.3814 14.51355,23.3814 14.96205,23.6064 L20.24955,26.2494 L29.25405,22.3914 C30.09405,22.0314 31.06905,22.3884 31.47855,23.2059 L31.47855,23.2059 C31.90455,24.0594 31.55805,25.0959 30.70605,25.5219 Z M13.08345,29.7675 C8.48295,27.843 5.25045,23.2995 5.25045,18 C5.25045,10.959 10.95795,5.25 18.00045,5.25 C25.04145,5.25 30.75045,10.959 30.75045,18 C30.75045,18.4875 30.72195,18.969 30.66945,19.443 M14.25,13.5 C14.25,13.914 13.914,14.25 13.5,14.25 C13.086,14.25 12.75,13.914 12.75,13.5 C12.75,13.086 13.086,12.75 13.5,12.75 C13.914,12.75 14.25,13.086 14.25,13.5 Z M23.25,13.5 C23.25,13.914 22.914,14.25 22.5,14.25 C22.086,14.25 21.75,13.914 21.75,13.5 C21.75,13.086 22.086,12.75 22.5,12.75 C22.914,12.75 23.25,13.086 23.25,13.5 Z M10.5,21 L25.5,18"/></svg>