<svg xmlns="http://www.w3.org/2000/svg" width="48" height="48" version="1.1" viewBox="0 0 48 48">
  <path fill="none" fill-rule="evenodd" stroke="#000" stroke-width="2" d="M5,35.002 L43,35.002 L43,27.002 L5,27.002 L5,35.002 Z M5,19 L43,19 L43,11 L5,11 L5,19 Z M11,35 L11,43 L15,43 L15,35 M33,35 L33,43 L37,43 L37,35 M11,19 L11,27 M15,19 L15,27 M11,11 L11,7 C11,5.896 11.896,5 13,5 C14.104,5 15,5.896 15,7 L15,11 M33,27 L33,19 M37,27 L37,19 M37,11 L37,7 C37,5.896 36.104,5 35,5 C33.896,5 33,5.896 33,7 L33,11 M11,19 L19,11 M29,19 L37,11 M19,35 L27,27 M5,35 L13,27 M33,35 L41,27"/>
</svg>
