<svg xmlns="http://www.w3.org/2000/svg" width="48" height="48" viewBox="0 0 48 48"><path fill="none" stroke="#000" d="M40,24.5 L29,24.5 M39,27.5 L29,27.5 M37,30.5 L29,30.5 M39.5,15.5 L41.5,15.5 L41.5,17.5 L39.5,17.5 L39.5,19.5 L37.5,19.5 L37.5,17.5 L35.5,17.5 L35.5,15.5 L37.5,15.5 L37.5,13.5 L39.5,13.5 L39.5,15.5 Z M40.4412,38.5 L7.5592,38.5 C4.7662,38.5 2.5002,36.219 2.5002,33.409 L2.5002,15.591 C2.5002,12.781 4.7662,10.5 7.5592,10.5 L40.4412,10.5 C43.2332,10.5 45.5002,12.781 45.5002,15.591 L45.5002,33.409 C45.5002,36.219 43.2332,38.5 40.4412,38.5 Z M24.5,35.5 L7.5,35.5 C6.4,35.5 5.5,34.6 5.5,33.5 L5.5,15.5 C5.5,14.4 6.4,13.5 7.5,13.5 L24.5,13.5 C25.6,13.5 26.5,14.4 26.5,15.5 L26.5,33.5 C26.5,34.6 25.6,35.5 24.5,35.5 Z M18.55,25.46 C22.35,26.87 24.49,31.18 24.5,35.47 M7.5,35.47 C7.51,31.2 9.64,26.87 13.45,25.46 M16,17.5 C18.209,17.5 20,19.515 20,22 C20,24.485 18.209,26.5 16,26.5 C13.791,26.5 12,24.485 12,22 C12,19.515 13.791,17.5 16,17.5 Z"/></svg>