<svg xmlns="http://www.w3.org/2000/svg" width="48" height="48" viewBox="0 0 48 48"><g fill="none" fill-rule="evenodd"><path stroke="#000" d="M8.5,15.5 L28.5,15.5 L28.5,33.5 L8.5,33.452 L8.5,15.5 Z M8.5,18.5 L28.5,18.5 M24.5,15.5 L24.5,12 M12.5,15.5 L12.5,12 M44.5,15.5 C40.581,15.5 37.411,18.63 37.411,22.5 C37.411,26.37 40.581,29.5 44.5,29.5 L44.5,37.5 L3.5,37.5 L3.5,8.5 L33.637,8.5 L44.5,8.5 L44.5,15.5 Z M32.5,10 L32.5,12 M32.5,13 L32.5,15 M32.5,16 L32.5,18 M32.5,19 L32.5,21 M32.5,22 L32.5,24 M32.5,25 L32.5,27 M32.5,28 L32.5,30 M32.5,31 L32.5,33 M32.5,34 L32.5,36"/><path fill="#000" d="M19.5294,22.0015 L19.5294,30.0015 L18.4894,30.0015 L18.4894,24.2015 L17.8984,24.2015 L17.3404,24.2015 L16.7274,24.2015 L16.4704,24.2015 L16.4704,23.4785 C17.2254,23.4785 17.7944,23.3365 18.1774,23.0525 C18.4364,22.8585 18.6394,22.5085 18.7854,22.0015 L19.5294,22.0015 Z"/></g></svg>