<svg xmlns="http://www.w3.org/2000/svg" width="24" height="24" viewBox="0 0 24 24"><path fill="none" stroke="#000" d="M5.5,16 C5.5,16.276 5.276,16.5 5,16.5 C4.724,16.5 4.5,16.276 4.5,16 C4.5,15.724 4.724,15.5 5,15.5 C5.276,15.5 5.5,15.724 5.5,16 Z M10.5,18.5 L10.5,22 M20.5,2.5 L20.5,18.5 M9,18.5 L22,18.5 M7.5,13.5 L2,13.5 M5,4.5 L2,4.5 M2,7.5 L5,7.5 C6.438,7.5 7.5,8.109 7.5,9.505 L7.5,18.5 L2,18.5 M3.5,4.5 L3,7.5 M5.5,18.5 L7,22 M8,20.5 L2,20.5 M9,2.5 L22,2.5 M10.5,7.5 L17.5,7.5 L17.5,4.5 L10.5,4.5 L10.5,7.5 Z M16.5,2.5 L16.5,4.5 M11.5,2.5 L11.5,4.5"/></svg>