<svg xmlns="http://www.w3.org/2000/svg" width="48" height="48" viewBox="0 0 48 48">
  <path fill="none" stroke="#000" stroke-width="2" d="M11.0078,25.0004 L5.9998,25.0004 M39.0078,24.9916 L43.9978,24.9916 M25.0078,38.9994 L25.0078,43.9994 M25.0078,11.0004 L25.0078,6.0004 M19.3428,19.3432 C17.8948,20.7912 17.0008,22.7912 17.0008,25.0012 C17.0008,29.4172 20.5828,32.9992 25.0008,32.9992 C27.2088,32.9992 29.2088,32.1052 30.6568,30.6572 M30.6562,30.6576 C29.2082,32.1056 27.2082,32.9996 25.0002,32.9996 C20.5822,32.9996 17.0002,29.4176 17.0002,24.9996 C17.0002,22.7896 17.8962,20.7896 19.3422,19.3436 M15.0928,15.0922 C12.5608,17.6242 11.0008,21.1242 11.0008,25.0002 C11.0008,32.7542 17.2468,39.0002 25.0008,39.0002 C28.8768,39.0002 32.3768,37.4382 34.9088,34.9082 M32.2812,28.2808 C32.7352,27.2768 32.9992,26.1728 32.9992,25.0008 C32.9992,20.5808 29.4172,17.0008 24.9992,17.0008 C23.8272,17.0008 22.7232,17.2668 21.7192,17.7188 M36.6992,32.6986 C38.1512,30.4906 38.9992,27.8486 38.9992,25.0006 C38.9992,17.2466 32.7532,11.0006 24.9992,11.0006 C22.1512,11.0006 19.5092,11.8486 17.3012,13.3006 M21.7188,17.7192 C22.7228,17.2652 23.8288,17.0012 25.0008,17.0012 C29.4188,17.0012 33.0008,20.5812 33.0008,25.0012 C33.0008,26.1732 32.7348,27.2772 32.2808,28.2812 M10.1504,10.1508 L39.8504,39.8488"/>
</svg>
