<svg xmlns="http://www.w3.org/2000/svg" width="48" height="48" viewBox="0 0 48 48">
  <path fill="none" stroke="#000" stroke-width="2" d="M37,18 L37,14.6 L27,9.2 L17,17.2 L7,10 L7,27.5 L17,34.8 L27,26.8 L28.6,28.6 M17,17.2002 L17,34.8002 M27,9.2002 L27,26.8002 M40.9942,26.377 C40.9942,23.407 38.7582,21.001 36.0002,21.001 C33.2442,21.001 31.0082,23.407 31.0082,26.377 C31.0402,27.299 31.2942,28.075 31.7022,28.807 L36.0162,36.137 L40.3262,28.807 C40.7282,28.047 40.9862,27.257 40.9942,26.377 Z M37,26 C37,26.546 36.556,27 36.01,27 C35.464,27 35,26.546 35,26 C35,25.454 35.454,25 36,25 C36.546,25 37,25.454 37,26 Z"/>
</svg>
