<svg xmlns="http://www.w3.org/2000/svg" width="48" height="48" viewBox="0 0 48 48">
  <path fill="none" stroke="#000" stroke-width="2" d="M35,16.0292 C35,9.9532 30.074,5.0292 24,5.0292 C17.924,5.0292 13,9.9532 13,16.0292 C13.074,17.9152 13.632,19.5032 14.532,21.0012 L24.032,35.9972 L33.532,21.0012 C34.418,19.4472 34.984,17.8312 35,16.0292 Z M17.6036,31.3496 C10.2376,32.1836 4.9996,34.4136 4.9996,36.9996 C4.9996,40.2876 13.4636,42.9996 23.9996,42.9996 C34.5376,42.9996 42.9996,40.2876 42.9996,36.9996 C42.9996,34.4336 37.8396,32.2176 30.5636,31.3696 M27,13 L31,13 M27,17 L31,17 M21,15 L16,15 M27,19 L27,11 L24.996,11.002 C22.788,11.002 21,12.792 21,15 C21,17.208 22.792,19 25,19 L27,19 Z"/>
</svg>
