<svg xmlns="http://www.w3.org/2000/svg" width="24" height="24" viewBox="0 0 24 24"><path fill="none" stroke="#000" d="M9,14.5 L9,14.5 M19,5 L4,20 M13,8 L11.5,2.5 L9,2.5 L10,10.5 L6,10.5 L5,8.5 L3,8.5 L4.5,12 L3,15.5 L5,15.5 L6,13.5 L8,13.5 M21,16.5 L16.5,16.5 L16.5,12.5 L19.6,12.5 M13.5,19.5 C13.5,20.604 14.396,21.5 15.5,21.5 C16.604,21.5 17.5,20.604 17.5,19.5 M10,16.5 L14.5,16.5 L14.5,12 M10,19.5 L20.156,19.5 C20.898,19.5 21.5,18.89 21.5,18.136 C21.5,17.92 21.445,17.717 21.357,17.535 L19.472,12.262 C19.093,11.146 18.253,10.257 17.187,9.813 M22,21.5 L10,21.5"/></svg>