<svg xmlns="http://www.w3.org/2000/svg" width="24" height="24" viewBox="0 0 24 24"><path fill="none" stroke="#000" d="M18,10.5 C19.93,10.5 21.5,12.07 21.5,14 C21.5,15.93 19.93,17.5 18,17.5 C16.07,17.5 14.5,15.93 14.5,14 C14.5,12.07 16.07,10.5 18,10.5 M6,10.5 C7.93,10.5 9.5,12.07 9.5,14 C9.5,15.93 7.93,17.5 6,17.5 C4.07,17.5 2.5,15.93 2.5,14 C2.5,12.07 4.07,10.5 6,10.5 M11.5,13.5 L6.5,13.5 L8.5,9.5 L13.5,9.5 M11.5,13.5 L18.5,13.5 L16.5,9.5 L13.5,9.5 L11.5,13.5 M8.5,9.5 L8.5,7.5 L6,7.5 M13.5,9.5 L13.5,7.5 L11,7.5 M16.5,9.5 L18.5,6.5 L16,6.5"/></svg>