<svg xmlns="http://www.w3.org/2000/svg" width="24" height="24" viewBox="0 0 24 24"><g fill="none" fill-rule="evenodd"><path stroke="#000" d="M18.5,19.5 L18.5,20 C18.5,20.828 17.828,21.5 17,21.5 C16.172,21.5 15.5,20.828 15.5,20 L15.5,19.5 M19.5,19.5 L4.5,19.5 L4.5,18.5 L4.5,17.5 L19.5,17.5 L19.5,19.5 Z M2.5,20 L2.5,17 M2.5,18.5001 L4.5,18.5001 M21.5,17 L21.5,20 M21.5,18.5 L19.5,18.5 M8.5,19.5 L8.5,20 C8.5,20.828 7.828,21.5 7,21.5 C6.172,21.5 5.5,20.828 5.5,20 L5.5,19.5 M6.5,5.5 L17.5,5.5 L19.5,15.5 L4.5,15.5 L6.5,5.5 Z M13.5,4 C13.5,4.828 12.828,5.5 12,5.5 C11.172,5.5 10.5,4.828 10.5,4 C10.5,3.172 11.172,2.5 12,2.5 C12.828,2.5 13.5,3.172 13.5,4 Z"/><path fill="#000" d="M14.2661,7.9997 C14.8921,7.9997 15.4031,8.2027 15.7961,8.6067 C16.0901,8.9117 16.2591,9.2707 16.3021,9.6837 L15.2941,9.6837 C15.2411,9.4277 15.1251,9.2267 14.9441,9.0837 C14.7611,8.9397 14.5311,8.8677 14.2531,8.8677 C13.8311,8.8677 13.5051,9.0307 13.2741,9.3577 C13.0721,9.6427 12.9701,10.0277 12.9701,10.5127 C12.9701,10.9867 13.0651,11.3637 13.2541,11.6417 C13.4871,11.9827 13.8311,12.1537 14.2861,12.1537 C14.6141,12.1537 14.8831,12.0547 15.0931,11.8567 C15.3041,11.6597 15.4131,11.3997 15.4251,11.0777 L14.3641,11.0777 L14.3641,10.3137 L16.3681,10.3137 L16.3681,12.8857 L15.7021,12.8857 L15.5981,12.3397 C15.2451,12.7807 14.7701,12.9997 14.1711,12.9997 C13.4431,12.9997 12.8671,12.7307 12.4451,12.1907 C12.0951,11.7397 11.9191,11.1837 11.9191,10.5227 C11.9191,9.7717 12.1481,9.1567 12.6051,8.6787 C13.0331,8.2257 13.5871,7.9997 14.2661,7.9997 Z M8.6168,8.114 L8.6168,10.089 L10.4868,8.114 L11.8048,8.114 L9.9348,10 L11.9818,12.885 L10.6668,12.885 L9.2168,10.745 L8.6168,11.345 L8.6168,12.885 L7.5748,12.885 L7.5748,8.114 L8.6168,8.114 Z"/></g></svg>