<svg xmlns="http://www.w3.org/2000/svg" width="24" height="24" viewBox="0 0 24 24"><path fill="none" stroke="#000" d="M6.5,20.5 C6.5,21.052 6.052,21.5 5.5,21.5 C4.948,21.5 4.5,21.052 4.5,20.5 C4.5,19.948 4.948,19.5 5.5,19.5 C6.052,19.5 6.5,19.948 6.5,20.5 Z M13.5,20.5 C13.5,21.052 13.052,21.5 12.5,21.5 C11.948,21.5 11.5,21.052 11.5,20.5 C11.5,19.948 11.948,19.5 12.5,19.5 C13.052,19.5 13.5,19.948 13.5,20.5 Z M11.5,20.5 L6.5,20.5 M2.5,17.5 L14.5,17.5 C15.052,17.5 15.5,17.948 15.5,18.5 L15.5,20.5 L13.5,20.5 M8.5,14.5 L8.5,17.5 M13.5,17.5 L10.793,14.793 C10.605,14.605 10.351,14.5 10.086,14.5 L5.035,14.5 C4.701,14.5 4.389,14.667 4.203,14.945 L2.668,17.248 C2.558,17.412 2.5,17.605 2.5,17.803 L2.5,20.5 L4.5,20.5 M19.5,14.5 C19.5,15.052 19.052,15.5 18.5,15.5 C17.948,15.5 17.5,15.052 17.5,14.5 C17.5,13.948 17.948,13.5 18.5,13.5 C19.052,13.5 19.5,13.948 19.5,14.5 Z M17.5,14.5 L13,14.5 M8.5,11.5 L20.5,11.5 C21.052,11.5 21.5,11.948 21.5,12.5 L21.5,14.5 L19.5,14.5 M14.5,8.5 L14.5,11.5 M19.5,11.5 L16.793,8.793 C16.605,8.605 16.351,8.5 16.086,8.5 L11.035,8.5 C10.701,8.5 10.389,8.667 10.203,8.945 L8.668,11.248 C8.558,11.412 8.5,11.605 8.5,11.803 L8.5,13 M6.5,8.5 C6.5,9.052 6.052,9.5 5.5,9.5 C4.948,9.5 4.5,9.052 4.5,8.5 C4.5,7.948 4.948,7.5 5.5,7.5 C6.052,7.5 6.5,7.948 6.5,8.5 Z M8,8.5 L6.5,8.5 M2.5,5.5 L14.5,5.5 C15.052,5.5 15.5,5.948 15.5,6.5 L15.5,7 M8.5,2.5 L8.5,5.5 M13.5,5.5 L10.793,2.793 C10.605,2.605 10.351,2.5 10.086,2.5 L5.035,2.5 C4.701,2.5 4.389,2.667 4.203,2.945 L2.668,5.248 C2.558,5.412 2.5,5.605 2.5,5.803 L2.5,8.5 L4.5,8.5"/></svg>