<svg xmlns="http://www.w3.org/2000/svg" width="24" height="24" viewBox="0 0 24 24">
  <path fill="none" stroke="#000" d="M20.5,7.5002 L20.5,6.5002 L11.5,3.5002 L2.5,6.5002 L2.5,7.5002 L20.5,7.5002 Z M3.5,7.5002 L3.5,9.5002 L19.5,9.5002 L19.5,7.5002 M2,21.4997 L14,21.4997 M15,21.4997 L3.5,21.4997 L3.5,19.4997 L15,19.4997 M6.5,19.4997 L6.5,9.4997 M4.5,9.5002 L4.5,19.5002 M10.5,19.4997 L10.5,9.4997 M8.5,9.5002 L8.5,19.5002 M14.5,19.4997 L14.5,9.4997 M12.5,9.5002 L12.5,19.5002 M16.5,9.5002 L16.5,16.0002 M18.5,15.9997 L18.5,9.4997 M18.5,16.9997 L18.5,21.9997 M16,19.4997 L21,19.4997"/>
</svg>
