<svg xmlns="http://www.w3.org/2000/svg" width="24" height="24" viewBox="0 0 24 24">
  <g fill="none" fill-rule="evenodd">
    <path stroke="#000" d="M2.5,20.0002 L2.5,15.5002 L2.564,15.5002 L7,15.5002 M21.5,12.0002 C21.479,17.2682 17.139,21.5202 11.708,21.5002703 C7.918,21.4862 4.381,19.3082 2.762,15.9842 C2.69,15.8312 2.62,15.6582 2.564,15.5002 M21.5,4.0002 L21.5,8.5002 L17,8.5002 M2.5,12.0002 C2.51,6.7382 6.885,2.4902 12.329,2.50018238 C16.156,2.5072 19.623,4.5892 21.237,7.9432 C21.321,8.1192 21.4,8.3162 21.461,8.5002"/>
    <path fill="#000" d="M8.7822,12.4206 L8.7822,12.3736 L8.7822,12.0976 C8.7822,12.0296 8.7862,11.8706 8.7962,11.6196 L8.8032,11.5716 L7.6882,11.5716 L8.0512,10.7366 L8.8982,10.7366 C8.9762,10.2836 9.0872,9.8586 9.2332,9.4636 C9.8392,7.8066 10.9472,6.9786 12.5552,6.9786 C13.6902,6.9786 14.7202,7.3356 15.6452,8.0496 L15.1602,9.1406 C14.7502,8.8716 14.4342,8.6716 14.2092,8.5416 C13.6622,8.2316 13.1042,8.0766 12.5352,8.0766 C11.4912,8.0766 10.7692,8.6846 10.3682,9.9016 C10.2682,10.2026 10.1972,10.4806 10.1562,10.7366 L14.4492,10.7366 L14.0732,11.5716 L10.0402,11.5716 C10.0312,11.8186 10.0262,12.0056 10.0262,12.1306 C10.0262,12.1936 10.0292,12.2906 10.0332,12.4206 L13.7032,12.4206 L13.3282,13.2556 L10.1292,13.2556 C10.2112,13.7186 10.3472,14.1496 10.5392,14.5486 C10.7712,15.0216 11.0492,15.3596 11.3732,15.5666 C11.7102,15.7816 12.1142,15.8896 12.5832,15.8896 C12.9712,15.8896 13.3152,15.8356 13.6152,15.7286 C13.9162,15.6196 14.4292,15.3686 15.1602,14.9736 L15.1602,16.3146 C14.9552,16.4306 14.8302,16.5006 14.7832,16.5236 C14.1142,16.8556 13.3482,17.0216 12.4872,17.0216 C10.4592,17.0216 9.2492,15.7666 8.8572,13.2556 L7.6882,13.2556 L8.0512,12.4206 L8.7822,12.4206 Z"/>
  </g>
</svg>
