<svg xmlns="http://www.w3.org/2000/svg" width="24" height="24" viewBox="0 0 24 24">
  <path fill="none" stroke="#000" d="M7.5,20.501 L14.5,20.501 L14.5,10.501 L7.5,10.501 L7.5,20.501 Z M9,12.5002 L12.992,12.5002 M9,14.4997 L12.992,14.4997 M9,16.4997 L12.992,16.4997 M9,18.4997 L12.992,18.4997 M8.5249,8.5251 C9.1589,7.8921 10.0339,7.5001 10.9999,7.5001 C11.9659,7.5001 12.8409,7.8921 13.4749,8.5251 M7.1108,7.1111 C8.1068,6.1151 9.4818,5.5001 10.9998,5.5001 C12.5188,5.5001 13.8938,6.1151 14.8888,7.1111 M5.6968,5.6965 C7.0538,4.3395 8.9288,3.5005 10.9998,3.5005 C13.0718,3.5005 14.9468,4.3395 16.3038,5.6965"/>
</svg>
