<svg xmlns="http://www.w3.org/2000/svg" width="24" height="24" viewBox="0 0 24 24">
  <g fill="none" fill-rule="evenodd">
    <path stroke="#000" d="M11.999,5.32 C12.223,4.86 12.515,4.439 12.861,4.07 C13.773,3.104 15.066,2.5 16.5,2.5 C19.262,2.5 21.5,4.738 21.5,7.5 C21.5,10.261 19.262,12.5 16.5,12.5 C15.119,12.5 13.869,11.94 12.965,11.035 C12.572,10.643 12.244,10.185 11.999,9.68 M18.6777,11.9983 C20.3487,12.8073 21.4997,14.5193 21.4997,16.4993 C21.4997,19.2613 19.2617,21.4993 16.4997,21.4993 C13.7387,21.4993 11.4997,19.2613 11.4997,16.4993 C11.4997,14.5193 12.6517,12.8083 14.3217,11.9983 M12.001,18.6804 C11.191,20.3494 9.48,21.4994 7.5,21.4994 C4.738,21.4994 2.5,19.2614 2.5,16.4994 C2.5,13.7394 4.738,11.5004 7.5,11.5004 C9.48,11.5004 11.192,12.6514 12.002,14.3224 M5.3174,11.9997 C3.6494,11.1887 2.5004,9.4787 2.5004,7.4997 C2.5004,4.7387 4.7384,2.4997 7.5004,2.4997 C10.2614,2.4997 12.5004,4.7387 12.5004,7.4997 C12.5004,9.4817 11.3464,11.1937 9.6754,12.0027"/>
    <path fill="#000" d="M7.4773,13.9763 C8.0313,13.9763 8.4603,14.1143 8.7643,14.3893 C9.0683,14.6653 9.2253,15.0573 9.2343,15.5653 L8.2533,15.5653 C8.2493,15.3323 8.1943,15.1583 8.0893,15.0383 C7.9523,14.8843 7.7563,14.8063 7.4983,14.8063 C7.3083,14.8063 7.1533,14.8583 7.0303,14.9613 C6.9073,15.0663 6.8443,15.1973 6.8443,15.3573 C6.8443,15.4913 6.8833,15.6523 6.9623,15.8383 C7.0413,16.0353 7.1013,16.1913 7.1423,16.3073 L8.0483,16.3073 L8.0483,16.8883 L7.3313,16.8883 C7.3503,16.9913 7.3613,17.0903 7.3613,17.1893 C7.3613,17.3553 7.3173,17.5103 7.2293,17.6543 C7.1413,17.7973 6.9913,17.9613 6.7763,18.1463 C6.9983,18.0473 7.2083,17.9983 7.4053,17.9983 C7.5383,17.9983 7.7003,18.0243 7.8913,18.0743 C8.0963,18.1283 8.2453,18.1563 8.3393,18.1563 C8.5913,18.1563 8.8083,18.0593 8.9883,17.8663 L9.4093,18.5863 C9.2783,18.7233 9.1143,18.8293 8.9173,18.9063 C8.7173,18.9833 8.5073,19.0213 8.2843,19.0213 C8.1523,19.0213 8.0383,19.0113 7.9423,18.9943 C7.8463,18.9753 7.6763,18.9313 7.4323,18.8603 C7.1753,18.7873 6.9643,18.7503 6.7983,18.7503 C6.6703,18.7503 6.5513,18.7713 6.4423,18.8103 C6.3333,18.8503 6.2013,18.9213 6.0483,19.0243 L5.6183,18.3853 C5.8453,18.2233 6.0093,18.0803 6.1103,17.9573 C6.2933,17.7323 6.3833,17.5043 6.3833,17.2743 C6.3833,17.1513 6.3613,17.0223 6.3153,16.8883 L5.5903,16.8883 L5.5903,16.3073 L6.0693,16.3073 C6.0263,16.2023 5.9923,16.1243 5.9663,16.0753 C5.8913,15.9063 5.8403,15.7683 5.8133,15.6613 C5.7863,15.5543 5.7723,15.4333 5.7723,15.2983 C5.7723,14.9503 5.8993,14.6563 6.1553,14.4163 C6.4713,14.1223 6.9123,13.9763 7.4773,13.9763 Z M15.6548,14.0615 L16.5138,16.0505 L17.3748,14.0615 L18.4208,14.0615 L17.5088,16.0095 L18.2668,16.0095 L18.2668,16.5635 L17.2318,16.5635 L16.9888,17.0485 L16.9888,17.1855 L18.0178,17.1855 L18.0178,17.7385 L16.9888,17.7385 L16.9888,18.9395 L16.0148,18.9395 L16.0148,17.7385 L14.9858,17.7385 L14.9858,17.1855 L16.0148,17.1855 L16.0148,17.0345 L15.7758,16.5635 L14.7338,16.5635 L14.7338,16.0095 L15.5018,16.0095 L14.5788,14.0615 L15.6548,14.0615 Z M16.7158,4.3315 L16.7158,4.9465 C17.1998,4.9715 17.5738,5.1075 17.8348,5.3515 C18.0958,5.5965 18.2308,5.9385 18.2388,6.3755 L17.3138,6.3755 C17.3048,5.9605 17.1048,5.7285 16.7158,5.6785 L16.7158,6.9525 C16.7468,6.9625 16.8368,6.9855 16.9858,7.0215 C17.4758,7.1495 17.8208,7.3055 18.0248,7.4895 C18.2758,7.7195 18.4008,8.0325 18.4008,8.4295 C18.4008,8.8325 18.2718,9.1715 18.0148,9.4445 C17.8508,9.6195 17.6678,9.7485 17.4688,9.8285 C17.2698,9.9095 17.0188,9.9585 16.7158,9.9745 L16.7158,10.6685 L16.3018,10.6685 L16.3018,9.9715 C15.8208,9.9445 15.4448,9.8215 15.1738,9.6055 C14.7958,9.3025 14.6048,8.8745 14.5998,8.3235 L15.5698,8.3235 C15.5658,8.8655 15.8098,9.1635 16.3018,9.2155 L16.3018,7.7705 C15.8458,7.6425 15.5308,7.5285 15.3588,7.4285 C15.1378,7.3005 14.9758,7.1495 14.8728,6.9755 C14.7708,6.8005 14.7198,6.5895 14.7198,6.3415 C14.7198,6.0655 14.7908,5.8195 14.9348,5.6045 C15.0778,5.3895 15.2818,5.2225 15.5458,5.1045 C15.7358,5.0195 15.9868,4.9675 16.3018,4.9465 L16.3018,4.3315 L16.7158,4.3315 Z M7.948,4.9849 C8.294,4.9849 8.596,5.0489 8.854,5.1759 C8.954,5.2259 9.1,5.3139 9.291,5.4389 L8.963,6.2729 C8.731,6.1119 8.534,5.9989 8.373,5.9349 C8.213,5.8709 8.046,5.8389 7.872,5.8389 C7.412,5.8389 7.085,6.1679 6.892,6.8269 L8.751,6.8269 L8.556,7.3809 L6.792,7.3809 L6.78975,7.462775 L6.78975,7.462775 L6.789,7.5379 C6.789,7.5899 6.79,7.6399 6.792,7.6879 L8.423,7.6879 L8.214,8.2419 L6.905,8.2419 C7.108,8.8499 7.433,9.1549 7.88,9.1549 C8.027,9.1549 8.173,9.1329 8.317,9.0879 C8.46,9.0439 8.673,8.9539 8.952,8.8199 L8.952,9.7839 C8.431,9.9379 8.054,10.0159 7.821,10.0159 C7.404,10.0159 7.019,9.8819 6.663,9.6129 C6.264,9.3139 5.995,8.8569 5.856,8.2419 L5.21,8.2419 L5.411,7.6879 L5.767,7.6879 C5.764,7.6129 5.762125,7.554775 5.761375,7.51436875 L5.761,7.3809 L5.21,7.3809 L5.411,6.8269 L5.835,6.8269 C5.929,6.4239 6.091,6.0679 6.321,5.7609 C6.706,5.2439 7.248,4.9849 7.948,4.9849 Z M16.7158,7.8725 L16.7158,9.2155 C17.1958,9.1565 17.4368,8.9335 17.4368,8.5455 C17.4368,8.3135 17.3428,8.1425 17.1558,8.0325 C17.1038,8.0015 16.9568,7.9475 16.7158,7.8725 Z M16.3018,5.6675 C15.8658,5.7065 15.6498,5.9045 15.6498,6.2625 C15.6498,6.4245 15.6958,6.5495 15.7918,6.6365 C15.8878,6.7245 16.0578,6.7985 16.3018,6.8575 L16.3018,5.6675 Z"/>
  </g>
</svg>
