<svg xmlns="http://www.w3.org/2000/svg" width="24" height="24" viewBox="0 0 24 24">
  <path fill="none" stroke="#000" d="M11,18.5 L5.5,18.5 L5.5,3.5 L11.5,3.5 L16.5,8.5 L16.5,10 M16.5,8.5 L11.5,8.5 L11.5,3.5 M8,11.5 L13,11.5 M7.9976,13.5 L10.9976,13.5 M8,15.5 L11,15.5 M20.5,13 C20.5,13.828 19.157,14.5 17.5,14.5 C15.843,14.5 14.5,13.828 14.5,13 C14.5,12.171 15.843,11.5 17.5,11.5 C19.157,11.5 20.5,12.171 20.5,13 Z M20.5,13 L20.5,15 C20.5,15.828 19.157,16.5 17.5,16.5 C15.843,16.5 14.5,15.828 14.5,15 L14.5,13 M14.5,13.5977 C13.339,13.8037 12.5,14.3487 12.5,14.9997 C12.5,15.8277 13.843,16.4997 15.5,16.4997 C15.853,16.4997 16.186,16.4637 16.5,16.4087 M12.5,15 L12.5,17 C12.5,17.828 13.843,18.5 15.5,18.5 C17.157,18.5 18.5,17.828 18.5,17 L18.5,16.408 M14.5,18.4082 L14.5,20.0002 C14.5,20.8282 15.843,21.5002 17.5,21.5002 C19.157,21.5002 20.5,20.8282 20.5,20.0002 L20.5,18.0002 M14.6406,18.4297 C15.0116,19.0467 16.1446,19.4997 17.4996,19.4997 C19.1576,19.4997 20.4996,18.8277 20.4996,17.9997 C20.4996,17.3477 19.6616,16.7987 18.4996,16.5917"/>
</svg>
