<svg xmlns="http://www.w3.org/2000/svg" width="24" height="24" viewBox="0 0 24 24">
  <path fill="none" stroke="#000" d="M13.5,19.4997 C15.585,18.6607 17.497,16.7257 17.497,14.1947 C17.497,12.2977 16.637,10.8007 15.801,9.5647 C14.292,7.3337 13.077,6.3747 10.5,3.4997 C10.5,5.6517 10.065,7.1637 8.247,9.5647 C7.612,10.4047 6.498,12.1867 6.498,14.1947 C6.498,16.7257 8.415,18.6607 10.5,19.4997 M10.5,19.4997 C9.788,18.8897 8.892,17.8767 8.892,16.8217 C8.892,16.0777 9.099,15.5127 9.553,14.8757 C10.542,13.4887 11.383,13.1107 11.383,10.8427 C12.891,12.6267 13.582,13.5107 14.434,14.8487 C14.886,15.5617 15.103,16.1387 15.103,16.8217 C15.103,17.8767 14.212,18.8897 13.5,19.4997 M4,21.4997 L20,21.4997"/>
</svg>
