<svg xmlns="http://www.w3.org/2000/svg" width="24" height="24" viewBox="0 0 24 24">
  <g fill="none" fill-rule="evenodd">
    <line x1="2.999" x2="21" y1="3" y2="21" stroke="#000"/>
    <path fill="#000" d="M15.8285,6.7735 C17.2995,6.7735 18.4715,7.2725 19.3415,8.2705 C20.1945,9.2465 20.6205,10.4825 20.6205,11.9825 C20.6205,12.8075 20.4915,13.5665 20.2335,14.2585 C19.9765,14.9525 19.6105,15.5195 19.1365,15.9605 L19.1365,15.9605 L20.4565,17.0135 L19.8095,17.8095 L16.5095,14.5095 L16.8325,14.1225 L18.1455,15.2085 C18.4595,14.8805 18.6975,14.5435 18.8565,14.1975 C19.1485,13.5505 19.2935,12.8095 19.2935,11.9755 C19.2935,10.7675 18.9775,9.7835 18.3435,9.0225 C17.7195,8.2705 16.8805,7.8945 15.8285,7.8945 C14.7845,7.8945 13.9435,8.2775 13.3055,9.0425 C12.9515,9.4655 12.7105,9.9785 12.5605,10.5615 L12.5605,10.5615 L11.5475,9.5475 C11.7605,9.0605 12.0255,8.6085 12.3825,8.2155 C12.8565,7.6965 13.4135,7.3205 14.0505,7.0875 C14.6245,6.8785 15.2175,6.7735 15.8285,6.7735 Z M11.1218,11.1228 L12.4078,12.4088 C12.4678,13.3648 12.7088,14.1618 13.1548,14.7778 C13.4608,15.2018 13.8518,15.5298 14.3268,15.7628 C14.8038,15.9948 15.3198,16.1108 15.8758,16.1108 C15.9478,16.1108 16.0178,16.0938 16.0898,16.0898 L16.0898,16.0898 L17.0878,17.0878 C16.6918,17.1828 16.2708,17.2328 15.8208,17.2328 C14.3858,17.2328 13.2238,16.7358 12.3348,15.7418 C11.4828,14.7898 11.0568,13.5438 11.0568,12.0028 C11.0568,11.6948 11.0878,11.4078 11.1218,11.1228 L11.1218,11.1228 Z M7.0048,7.0063 L8.1538,8.1543 L5.2598,8.1543 L5.2598,11.3123 L9.8808,11.3123 L9.8808,12.3793 L5.2598,12.3793 L5.2598,17.0003 L3.9408,17.0003 L3.9408,7.0063 L7.0048,7.0063 Z M10.5093,7.0063 L10.5093,8.1543 L10.1533,8.1543 L9.0053,7.0063 L10.5093,7.0063 Z"/>
  </g>
</svg>
