<svg xmlns="http://www.w3.org/2000/svg" width="24" height="24" viewBox="0 0 24 24">
  <path fill="none" stroke="#000" d="M20.5,3.5002 L16,8.0002 M17,3.5002 L20.5,3.5002 L20.5,7.0002 M3.5,17.5 L20.5,17.5 L20.5,10.5 L3.5,10.5 L3.5,17.5 Z M6.5,18.0036 C6.5,18.2786 6.276,18.5036 6,18.5036 C5.724,18.5036 5.5,18.2786 5.5,18.0036 C5.5,17.7276 5.724,17.5036 6,17.5036 C6.276,17.5036 6.5,17.7276 6.5,18.0036 Z M1.998,16.5056 L3.5,16.5056 M18.5,18.0036 C18.5,18.2786 18.276,18.5036 18,18.5036 C17.724,18.5036 17.5,18.2786 17.5,18.0036 C17.5,17.7276 17.724,17.5036 18,17.5036 C18.276,17.5036 18.5,17.7276 18.5,18.0036 Z M20.499,16.5056 L22.001,16.5056"/>
</svg>
