<svg xmlns="http://www.w3.org/2000/svg" width="24" height="24" viewBox="0 0 24 24">
  <g fill="none" fill-rule="evenodd">
    <path stroke="#000" d="M3.5,7.5002 L9.5,7.5002 L14.5,7.5002 L20.5,7.5002 L20.5,10.5002 L19.5,10.5002 L14.5,10.5002 L9.5,10.5002 L4.5,10.5002 L3.5,10.5002 L3.5,7.5002 Z M19.5,10.5002 L19.5,21.5002 L14.5,21.5002 L9.5,21.5002 L4.5,21.5002 L4.5,10.5002 M9.5,7.5002 L9.5,10.5002 M14.5,10.4675 L14.5,7.5005 M11.9961,7.5002 L12.0001,4.0002 C12.7491,1.1702 16.5761,2.8252 15.2001,5.2002 L13.5001,7.5002 M12,4.0002 C11.243,1.1542 7.447,2.7782 8.8,5.2002 L10.5,7.5002"/>
    <polygon fill="#000" points="9.997 17.992 11.197 17.992 9.597 16.492 11.497 16.492 11.497 17.992 12.497 17.992 12.497 16.492 14.397 16.492 12.797 17.992 13.997 17.992 15.997 15.992 13.997 13.992 12.797 13.992 14.397 15.492 12.497 15.492 12.497 13.992 11.497 13.992 11.497 15.492 9.597 15.492 11.197 13.992 9.997 13.992 7.997 15.992"/>
  </g>
</svg>
