<svg xmlns="http://www.w3.org/2000/svg" width="24" height="24" viewBox="0 0 24 24">
  <path fill="none" stroke="#000" d="M11.7041,15.24 L16.9501,20.485 L18.3641,19.071 L13.1181,13.826 M11.1187,11.8254 L7.7577,8.4644 M6.3433,9.8786 L9.7043,13.2396 M4.2217,7.7575 L3.5147,7.0495 L4.9287,5.6355 L5.6367,6.3425 M6.3433,5.636 C7.5143,6.808 9.4143,6.808 10.5863,5.636 L4.9283,11.293 L2.8073,9.172 L6.3433,5.636 Z M19.2207,4.3093 L20.6347,5.7233 L16.3927,9.9663 L14.9787,8.5523 L19.2207,4.3093 Z M6.8872,16.6228 L8.3012,18.0368 L5.8262,19.8048 L5.1192,19.0978 L6.8872,16.6228 Z M7.2607,17.6833 L15.6857,9.2593"/>
</svg>
