<svg xmlns="http://www.w3.org/2000/svg" width="24" height="24" viewBox="0 0 24 24">
  <path fill="none" stroke="#000" d="M5,6.4953 C6.378,6.4953 7.5,7.6173 7.5,8.9953 C7.5,10.3733 6.378,11.4953 5,11.4953 C3.622,11.4953 2.5,10.3733 2.5,8.9953 C2.5,7.6173 3.622,6.4953 5,6.4953 M5,9.0002 L7.5,4.5002 L11.5,4.5002 L12,6.0002 M6,3.5002 L8,3.5002 M10,2.5002 L11.5,2.5002 L11.5,4.5002 M19.5,10.9953 C19.5,11.8243 18.828,12.4953 18,12.4953 C17.172,12.4953 16.5,11.8243 16.5,10.9953 C16.5,10.1673 17.172,9.4953 18,9.4953 C18.828,9.4953 19.5,10.1673 19.5,10.9953 Z M13.4082,11.5002 L16.5932,11.5002 M14.5,7.5002 L18,7.5002 M19.4072,11.5002 L21.5002,11.5002 L21.5002,11.4952 L21.5002,8.5032 C21.5002,7.9512 21.0532,7.5032 20.5002,7.5032 L18.0002,7.5002 L16.4322,5.1352 M10.8501,11.9529 C11.1251,12.2849 11.5351,12.4999 12.0001,12.4999 C12.8291,12.4999 13.5001,11.8279 13.5001,10.9999 C13.5001,10.4289 13.1771,9.9379 12.7071,9.6849 M17.0078,2.0002 L7.9998,13.0002 M8.8613,17.028 L4.1263,13.72 C3.6953,13.375 3.0663,13.443 2.7203,13.874 C2.3743,14.304 2.4433,14.934 2.8743,15.28 L8.7993,20.5 L12.7423,20.5 L13.7503,21.5 L21.2003,21.5 L16.1723,16.436 C15.0353,15.342 13.5883,14.528 12.1093,14.5 L10.0003,14.5 C8.0153,14.5 7.9683,17.5 10.0003,17.5 L12.0003,17.5"/>
</svg>
