<svg xmlns="http://www.w3.org/2000/svg" width="24" height="24" viewBox="0 0 24 24">
  <path fill="none" stroke="#000" d="M8.8613,17.028 L4.1263,13.72 C3.6953,13.375 3.0663,13.443 2.7203,13.874 C2.3743,14.304 2.4433,14.934 2.8743,15.28 L8.7993,20.5 L12.7423,20.5 L13.7503,21.5 L21.2003,21.5 L16.1723,16.436 C15.0353,15.342 13.5883,14.528 12.1093,14.5 L10.0003,14.5 C8.0153,14.5 7.9683,17.5 10.0003,17.5 L12.0003,17.5 M6,6.4953 C7.378,6.4953 8.5,7.6173 8.5,8.9953 C8.5,10.3733 7.378,11.4953 6,11.4953 C4.622,11.4953 3.5,10.3733 3.5,8.9953 C3.5,7.6173 4.622,6.4953 6,6.4953 M14,6.5002 C15.379,6.5002 16.5,7.6212 16.5,9.0002 C16.5,10.3782 15.379,11.5002 14,11.5002 C12.622,11.5002 11.5,10.3782 11.5,9.0002 C11.5,7.6212 12.622,6.5002 14,6.5002 M6,9.0002 L8.5,4.5002 L12.5,4.5002 L14,8.9952 M7,3.5002 L9,3.5002 M11,2.5002 L12.5,2.5002 L12.5,4.5002"/>
</svg>
