<svg xmlns="http://www.w3.org/2000/svg" width="24" height="24" viewBox="0 0 24 24">
  <path fill="none" stroke="#000" d="M7.5,14.4997 C8.604,14.4997 9.5,15.3957 9.5,16.4997 C9.5,17.6037 8.604,18.4997 7.5,18.4997 C6.396,18.4997 5.5,17.6037 5.5,16.4997 C5.5,15.3957 6.396,14.4997 7.5,14.4997 Z M16.5,5.4997 C17.604,5.4997 18.5,6.3957 18.5,7.4997 C18.5,8.6037 17.604,9.4997 16.5,9.4997 C15.396,9.4997 14.5,8.6037 14.5,7.4997 C14.5,6.3957 15.396,5.4997 16.5,5.4997 Z M2.5,21.5 L21.5,21.5 L21.5,2.5 L2.5,2.5 L2.5,21.5 Z M8.9141,15.0857 L15.0861,8.9137"/>
</svg>
