<svg xmlns="http://www.w3.org/2000/svg" width="24" height="24" viewBox="0 0 24 24">
  <path fill="none" stroke="#000" d="M18,10.5007 L15,10.5007 M16.5,12.0007 L16.5,9.0007 M7.5,12.5002 C6.143,13.0302 5.5,14.0002 5.5,15.5002 L11.5,15.5002 C11.5,14.0002 10.857,13.0252 9.5,12.5002 L7.5,12.5002 Z M4,5.0002 L19,20.0002 M7.6797,8.6799 C6.9857,8.9929 6.4997,9.6889 6.4997,10.4999 C6.4997,11.6049 7.3957,12.4999 8.4997,12.4999 C9.3117,12.4999 10.0067,12.0149 10.3207,11.3199 M8,6.5002 L18.5,6.5002 C19.604,6.5002 20.5,7.3952 20.5,8.5002 L20.5,15.5002 C20.5,16.4512 19.835,17.2432 18.946,17.4462 M5.5,6.5002 C4.396,6.5002 3.5,7.3952 3.5,8.5002 L3.5,15.5002 C3.5,16.6042 4.396,17.5002 5.5,17.5002 L16.5,17.5002"/>
</svg>
