<svg xmlns="http://www.w3.org/2000/svg" width="24" height="24" viewBox="0 0 24 24">
  <path fill="none" stroke="#000" d="M19.5,14 C19.5,18.143 16.143,21.5 12,21.5 C7.858,21.5 4.5,18.143 4.5,14 C4.5,9.858 7.858,6.5 12,6.5 C16.143,6.5 19.5,9.858 19.5,14 Z M19.5,2 L19.5,5 M17.5,14 C17.5,17.037 15.037,19.5 12,19.5 C8.962,19.5 6.5,17.037 6.5,14 C6.5,10.962 8.962,8.5 12,8.5 C15.037,8.5 17.5,10.962 17.5,14 Z M13.5,14 C13.5,14.828 12.829,15.5 12,15.5 C11.171,15.5 10.5,14.828 10.5,14 C10.5,13.172 11.171,12.5 12,12.5 C12.829,12.5 13.5,13.172 13.5,14 Z M4.5,2 L4.5,5 M17,3.5 L19.5,3.5 M8,3.5 L10,3.5 M11,3.5 L13,3.5 M14,3.5 L16,3.5 M4.5,3.5 L7,3.5"/>
</svg>
