<svg xmlns="http://www.w3.org/2000/svg" width="24" height="24" viewBox="0 0 24 24">
  <path fill="none" stroke="#000" d="M3,8.5 L9,8.5 M6.5,6 C6.5,4.619 7.619,3.5 9,3.5 C10.381,3.5 11.5,4.619 11.5,6 C11.5,7.381 10.381,8.5 9,8.5 M3,10.5 L14,10.5 M12.5,9 C12.5,8.171 13.172,7.5 14,7.5 C14.828,7.5 15.5,8.171 15.5,9 C15.5,9.829 14.828,10.5 14,10.5 M3,16.5 L9,16.5 M7.5,15 C7.5,14.172 8.171,13.5 9,13.5 C9.829,13.5 10.5,14.172 10.5,15 C10.5,15.828 9.829,16.5 9,16.5 M20.5,12 C20.5,11.171 19.828,10.5 19,10.5 C18.172,10.5 17.5,11.171 17.5,12 L17.5,20.5 L20.5,20.5 L20.5,12 Z M18.5,10.5864 L18.5,9.5004 L19.5,9.5004 L19.5,10.5864"/>
</svg>
