<svg xmlns="http://www.w3.org/2000/svg" width="36" height="36" viewBox="0 0 36 36"><path fill="none" stroke="#000" d="M27,8.25 L19.5,8.25 M27,11.25 L19.5,11.25 M27,14.25 L19.5,14.25 M27,20.25 L9,20.25 M27,23.25 L9,23.25 M12.0246,27.76155 L9.0246,27.76155 M18.0246,27.76155 L15.0246,27.76155 M24.0246,27.76155 L21.0246,27.76155 M6.75,32.25 L29.25,32.25 L29.25,3.75 L6.75,3.75 L6.75,32.25 Z M15.375,9 C15.375,10.242 14.535,11.25 13.5,11.25 C12.465,11.25 11.625,10.242 11.625,9 C11.625,7.758 12.465,6.75 13.5,6.75 C14.535,6.75 15.375,7.758 15.375,9 Z M9.75,16.5 C9.75,13.965 11.133,11.784 12.813,11.094 M14.1816,11.091 C15.8616,11.781 17.2506,13.965 17.2506,16.5"/></svg>