<svg xmlns="http://www.w3.org/2000/svg" width="36" height="36" viewBox="0 0 36 36"><path fill="none" stroke="#000" d="M13.29225,25.54245 L6.18825,20.58045 C5.54325,20.06145 4.59825,20.16495 4.08075,20.81145 C3.56175,21.45795 3.66525,22.40145 4.31175,22.92045 L13.20075,30.75045 L19.11375,30.75045 L20.62575,32.25045 L31.80075,32.25045 L24.25725,24.65445 C22.55325,23.01345 20.38275,21.79245 18.16425,21.75045 L15.00075,21.75045 C12.02325,21.75045 11.95275,26.25045 15.00075,26.25045 L18.00075,26.25045 M5.25,9.375 L18,3.75 L30.75,9.375 L18,14.25 L5.25,9.375 Z M9.75,11.09565 L9.75,16.13265 C9.75,16.13265 12.4185,18.75015 18.375,18.75015 C24.3675,18.75015 26.25,16.13265 26.25,16.13265 L26.25,11.09565 M30.75,9.375 L30.75,16.5 M30.75,16.5 L29.25,19.5 M30.75,16.5 L32.25,19.5"/></svg>