<svg xmlns="http://www.w3.org/2000/svg" width="48" height="48" viewBox="0 0 48 48">
  <path fill="none" stroke="#000" stroke-width="2" d="M19.7998,32 C16.9998,30.4 14.9998,27.4 14.9998,24 C14.9998,19 18.9998,15 23.9998,15 C28.9998,15 32.9998,19 32.9998,24 C32.9998,27.4 30.9998,30.6 28.1998,32 M29,32 L29,36.2 L25,37.6 L25,39 L23,39 L23,37.6 L19,36.2 L19,32 L29,32 Z M31.8906,10.1016 L30.4866,12.6756 M37.6876,15.9014 L35.1216,17.3174 M37,24 L40,24.008 M35.1094,30.705 L37.7074,32.091 M10.085,32.0742 L12.705,30.5142 M8,24 L11,24 M10.2198,15.9794 L12.7818,17.6274 M16.0948,10.1074 L17.5128,12.6854 M24,8 L24,11"/>
</svg>
