<svg xmlns="http://www.w3.org/2000/svg" width="48" height="48" viewBox="0 0 48 48">
  <path fill="none" stroke="#000" stroke-width="2" d="M41,24.0004 C41,33.4924 33.492,41.0004 24,41.0004 C14.508,41.0004 7,33.4924 7,24.0004 C7,14.5064 14.508,7.0004 24,7.0004 C33.492,7.0004 41,14.5064 41,24.0004 Z M14.8936,28.9994 C16.4176,32.5394 19.8576,34.9994 23.9996,34.9994 C28.1436,34.9994 31.5816,32.5394 33.1056,28.9994 M18,17 C17.448,17 17,17.448 17,18 C17,18.552 17.448,19 18,19 C18.552,19 19,18.552 19,18 C19,17.448 18.552,17 18,17 M30,17 C29.448,17 29,17.448 29,18 C29,18.552 29.448,19 30,19 C30.552,19 31,18.552 31,18 C31,17.448 30.552,17 30,17"/>
</svg>
