<svg xmlns="http://www.w3.org/2000/svg" width="48" height="48" viewBox="0 0 48 48">
  <path fill="none" stroke="#000" stroke-width="2" d="M19.0752569,29.0059198 C17.7896697,27.741514 17,25.9749566 17,24 C17,21.6691518 18.0999131,19.631424 19.8168466,18.3663146 L13.951136,10.3082071 C13.43255,10.7430386 12.7558075,11 12,11 C10.3,11 9,9.7 9,8 C9,6.3 10.3,5 12,5 C13.7,5 15,6.3 15,8 C15,8.94419247 14.5989795,9.76499402 13.951136,10.3082071 L19.8172,18.3668 C20.9785974,17.5102873 22.4228482,17.008 24,17.008 C27.908,17.008 31.002,20.092 31.002,24 C31.002,27.908 27.908,31 24,31 C22.0669566,31 20.3335609,30.2434919 19.0752569,29.0059198 L13.8262,34.125 C13.1079624,33.4238153 12.1158197,33 10.9998,33 C8.7418,33 6.9998,34.738 6.9998,36.996 C6.9998,39.256 8.7418,41 10.9998,41 C13.2598,41 15.0118,39.256 15.0118,36.996 C15.0118,35.8530321 14.5628951,34.8433007 13.8264286,34.1247771 Z M35.3632,29.2832 L30.3592,26.9672 L35.3630872,29.2831478 C35.9852293,27.9124966 37.3489809,27 39,27 C41.272,27 43,28.728 43,31 C43,33.272 41.272,35 39,35 C36.728,35 35,33.272 35,31 C35,30.3790191 35.1290873,29.7986768 35.3630872,29.2831478 Z M35.5292,15.7276 L29.6452,19.8256 L35.5288031,15.7278764 C35.1937636,15.2430872 34.9996,14.6493658 34.9996,14 C34.9996,12.312 36.3116,10.99 37.9996,10.99 C39.6876,10.99 41.0196,12.312 41.0196,14 C41.0196,15.688 39.6876,17 37.9996,17 C36.9609658,17 36.0646851,16.5032771 35.5288031,15.7278764 Z"/>
</svg>
