<svg xmlns="http://www.w3.org/2000/svg" width="48" height="48" viewBox="0 0 48 48">
  <path fill="none" stroke="#000" stroke-width="2" d="M31.002,24 C31.002,27.908 27.908,31 24,31 C20.092,31 17,27.908 17,24 C17,20.092 20.092,17.008 24,17.008 C27.908,17.008 31.002,20.092 31.002,24 Z M41.0196,14 C41.0196,15.688 39.6876,17 37.9996,17 C36.3116,17 34.9996,15.688 34.9996,14 C34.9996,12.312 36.3116,10.99 37.9996,10.99 C39.6876,10.99 41.0196,12.312 41.0196,14 Z M43,31 C43,33.272 41.272,35 39,35 C36.728,35 35,33.272 35,31 C35,28.728 36.728,27 39,27 C41.272,27 43,28.728 43,31 Z M15.0118,36.996 C15.0118,39.256 13.2598,41 10.9998,41 C8.7418,41 6.9998,39.256 6.9998,36.996 C6.9998,34.738 8.7418,33 10.9998,33 C13.2598,33 15.0118,34.738 15.0118,36.996 Z M15,8 C15,9.7 13.7,11 12,11 C10.3,11 9,9.7 9,8 C9,6.3 10.3,5 12,5 C13.7,5 15,6.3 15,8 Z M13.9472,10.3028 L19.8172,18.3668 M35.5292,15.7276 L29.6452,19.8256 M35.3632,29.2832 L30.3592,26.9672 M13.8262,34.125 L19.0762,29.005"/>
</svg>
