<svg xmlns="http://www.w3.org/2000/svg" width="48" height="48" viewBox="0 0 48 48">
  <g fill="none" fill-rule="evenodd">
    <path stroke="#000" stroke-width="2" d="M7,11 L31,11 L31,17 L31,23 L31,27 L31,29 L19,29 L17.5,29 L13,33.5 L13,29 L7,29 L7,11 Z M31,17 L41,17 L41,35 L35,35 L35,39.5 L30.5,35 L19,35 L19,29 M38,23 L31,23 M36,27 L31,27"/>
    <path fill="#000" d="M19.344,23.632 L19.344,25.256 L17.656,25.256 L17.656,23.632 L19.344,23.632 Z M18.602,13.57 C19.66,13.57 20.5,13.87 21.126,14.468 C21.708,15.02 22,15.746 22,16.648 C22,17.392 21.802,18.034 21.408,18.57 C21.23,18.814 20.806,19.264 20.134,19.92 C19.836,20.208 19.63,20.446 19.512,20.636 C19.396,20.826 19.314,21.062 19.266,21.342 C19.214,21.624 19.188,21.988 19.188,22.436 L17.86,22.436 C17.872,21.64 17.942,21.048 18.072,20.664 C18.166,20.382 18.298,20.128 18.474,19.906 C18.648,19.682 19.036,19.262 19.634,18.648 C20.02,18.252 20.272,17.894 20.392,17.578 C20.49,17.306 20.54,17.03 20.54,16.75 C20.54,16.228 20.396,15.792 20.11,15.436 C19.766,15.004 19.258,14.788 18.586,14.788 C17.196,14.788 16.446,15.642 16.336,17.35 L14.994,17.35 C15.03,16.382 15.22,15.632 15.564,15.1 C15.88,14.612 16.302,14.234 16.83,13.968 C17.356,13.702 17.946,13.57 18.602,13.57 Z"/>
  </g>
</svg>
