<svg xmlns="http://www.w3.org/2000/svg" width="48" height="48" viewBox="0 0 48 48">
  <path fill="none" stroke="#000" stroke-width="2" d="M32,23.016 L35,23.016 M10.998,27.016 L17,27.016 L17,11 L10.998,11 L10.998,27.016 Z M32,19.016 L35,19.016 M32,15.016 L33,15.016 M35,27.017 C36.106,27.017 37,26.121 37,25.017 C37,23.911 36.106,23.017 35,23.017 C36.106,23.017 37,22.121 37,21.017 C37,19.911 36.106,19.017 35,19.017 C36.106,19.017 37,18.121 37,17.017 C37,15.911 36.106,15.017 35,15.017 L33,15.017 C34.104,15.017 35,14.121 35,13.017 C35,11.911 34.104,11.017 33,11.017 L23,11.017 C19.984,11.017 17,12.017 17,17.017 L17,27.017 L19,27.017 L27.58,36.425 C27.944,36.791 28.446,37.017 29,37.017 C30.106,37.017 31,36.121 31,35.017 C31,34.773 30.958,34.539 30.876,34.321 L28,27.017 L35,27.017"/>
</svg>
