<svg xmlns="http://www.w3.org/2000/svg" width="48" height="48" viewBox="0 0 48 48">
  <path fill="none" stroke="#000" stroke-width="2" d="M32,25.0004 L35,25.0004 M10.998,37.018 L17,37.018 L17,21.002 L10.998,21.002 L10.998,37.018 Z M32,28.9994 L35,28.9994 M32,33.0014 L33,33.0014 M35,21.0004 C36.106,21.0004 37,21.8964 37,23.0004 C37,24.1044 36.106,25.0004 35,25.0004 C36.106,25.0004 37,25.8964 37,27.0004 C37,28.1044 36.106,29.0004 35,29.0004 C36.106,29.0004 37,29.8964 37,31.0004 C37,32.1044 36.106,33.0004 35,33.0004 L33,33.0004 C34.104,33.0004 35,33.8964 35,35.0004 C35,36.1044 34.104,37.0004 33,37.0004 C33,37.0004 26.016,37.0004 23,37.0004 C19.984,37.0004 17,36.0004 17,31.0004 L17,21.0004 L19,21.0004 L27.58,11.5904 C27.944,11.2264 28.446,11.0004 29,11.0004 C30.106,11.0004 31,11.8964 31,13.0004 C31,13.2444 30.958,13.4784 30.876,13.6944 L28,21.0004 L35,21.0004"/>
</svg>
