<svg xmlns="http://www.w3.org/2000/svg" width="48" height="48" viewBox="0 0 48 48"><path fill="none" stroke="#000" d="M33.67,32 C31.58,29.25 28.27,27.5 24.5,27.5 C20.73,27.5 17.42,29.25 15.33,32 M18.5,17.5 C17.948,17.5 17.5,17.948 17.5,18.5 C17.5,19.052 17.948,19.5 18.5,19.5 C19.052,19.5 19.5,19.052 19.5,18.5 C19.5,17.948 19.052,17.5 18.5,17.5 M30.5,17.5 C29.948,17.5 29.5,17.948 29.5,18.5 C29.5,19.052 29.948,19.5 30.5,19.5 C31.052,19.5 31.5,19.052 31.5,18.5 C31.5,17.948 31.052,17.5 30.5,17.5 M42.5,23.5 C42.5,33.55 34.55,41.5 24.5,41.5 C14.45,41.5 6.5,33.55 6.5,23.5 C6.5,13.448 14.45,5.5 24.5,5.5 C34.55,5.5 42.5,13.448 42.5,23.5 Z"/></svg>