<svg xmlns="http://www.w3.org/2000/svg" width="48" height="48" viewBox="0 0 48 48"><path fill="none" stroke="#000" d="M18.5,17.5 C17.948,17.5 17.5,17.948 17.5,18.5 C17.5,19.052 17.948,19.5 18.5,19.5 C19.052,19.5 19.5,19.052 19.5,18.5 C19.5,17.948 19.052,17.5 18.5,17.5 M30.5,17.5 C29.948,17.5 29.5,17.948 29.5,18.5 C29.5,19.052 29.948,19.5 30.5,19.5 C31.052,19.5 31.5,19.052 31.5,18.5 C31.5,17.948 31.052,17.5 30.5,17.5 M18.5,17.5 C17.948,17.5 17.5,17.948 17.5,18.5 C17.5,19.052 17.948,19.5 18.5,19.5 C19.052,19.5 19.5,19.052 19.5,18.5 C19.5,17.948 19.052,17.5 18.5,17.5 M30.5,17.5 C29.948,17.5 29.5,17.948 29.5,18.5 C29.5,19.052 29.948,19.5 30.5,19.5 C31.052,19.5 31.5,19.052 31.5,18.5 C31.5,17.948 31.052,17.5 30.5,17.5 M37.5,22.5 C37.5,22.5 32.5,29.786 32.5,34.643 C32.5,37.325 34.739,39.5 37.5,39.5 C40.261,39.5 42.5,37.325 42.5,34.643 C42.5,29.786 37.5,22.5 37.5,22.5 Z M31.9897,39.8726 C29.7087,40.9176 27.1727,41.4996 24.4997,41.4996 C14.5587,41.4996 6.4997,33.4416 6.4997,23.4996 C6.4997,13.5586 14.5587,5.4996 24.4997,5.4996 C34.4407,5.4996 42.4997,13.5586 42.4997,23.4996 C42.4997,24.1386 42.4667,24.7696 42.4017,25.3916 M30.9762,29.4553 C29.1392,28.2173 26.9142,27.5003 24.5002,27.5003 C20.7302,27.5003 17.4202,29.2503 15.3302,32.0003"/></svg>