<svg xmlns="http://www.w3.org/2000/svg" width="48" height="48" viewBox="0 0 48 48"><path fill="none" stroke="#000" d="M18.5,17.5 C17.948,17.5 17.5,17.948 17.5,18.5 C17.5,19.052 17.948,19.5 18.5,19.5 C19.052,19.5 19.5,19.052 19.5,18.5 C19.5,17.948 19.052,17.5 18.5,17.5 M30.5,17.5 C29.948,17.5 29.5,17.948 29.5,18.5 C29.5,19.052 29.948,19.5 30.5,19.5 C31.052,19.5 31.5,19.052 31.5,18.5 C31.5,17.948 31.052,17.5 30.5,17.5 M18.5,17.5 C17.948,17.5 17.5,17.948 17.5,18.5 C17.5,19.052 17.948,19.5 18.5,19.5 C19.052,19.5 19.5,19.052 19.5,18.5 C19.5,17.948 19.052,17.5 18.5,17.5 M30.5,17.5 C29.948,17.5 29.5,17.948 29.5,18.5 C29.5,19.052 29.948,19.5 30.5,19.5 C31.052,19.5 31.5,19.052 31.5,18.5 C31.5,17.948 31.052,17.5 30.5,17.5 M18.0041,40.3226 C11.2291,37.7536 6.5001,31.2516 6.5001,23.4996 C6.5001,13.4476 14.4501,5.4996 24.5001,5.4996 C34.5501,5.4996 42.5001,13.4476 42.5001,23.4996 C42.5001,25.0656 42.3071,26.5806 41.9431,28.0226 M15,29.8 L34,26 M43.1942,35.0796 L37.0002,37.9996 L37.0002,39.9996 C37.0002,42.3196 35.2662,44.4996 33.0002,44.4996 L24.5002,44.4996 C24.0312,41.0976 21.4642,38.0026 19.2522,36.0676 C18.0732,35.0366 18.3222,33.1066 19.7092,32.3966 L19.7092,32.3966 C20.3222,32.0826 21.0442,32.0826 21.6572,32.3966 L29.0002,35.9996 L41.2082,30.6956 C42.3572,30.1916 43.6912,30.6916 44.2502,31.8366 L44.2502,31.8366 C44.8332,33.0306 44.3602,34.4826 43.1942,35.0796 Z"/></svg>