<svg xmlns="http://www.w3.org/2000/svg" width="48" height="48" viewBox="0 0 48 48"><g fill="none" fill-rule="evenodd"><path stroke="#000" d="M6.5,10.5 L30.5,10.5 L30.5,28.5 L18.5,28.5 L17,28.5 L12.5,32.5 L12.5,28.5 L6.5,28.5 L6.5,10.5 Z M30.5,16.5 L40.5,16.5 L40.5,34.5 L34.5,34.5 L34.5,38.5 L30,34.5 L18.5,34.5 L18.5,28.5 M37,20.5 L30.5,20.5 M36,24.5 L30.5,24.5 M37,28.5 L30.5,28.5 M37,20.5 L30.5,20.5 M36,24.5 L30.5,24.5 M37,28.5 L30.5,28.5"/><path fill="#1D1D1B" d="M19.207,23.49 L19.207,25 L18.072,25 L18.072,23.49 L19.207,23.49 Z M18.728,14 C19.716,14 20.499,14.283 21.079,14.847 C21.605,15.363 21.867,16.011 21.867,16.792 C21.867,17.48 21.665,18.087 21.263,18.612 C21.096,18.833 20.696,19.246 20.062,19.85 C19.757,20.14 19.551,20.365 19.443,20.524 C19.335,20.684 19.254,20.887 19.2,21.132 C19.136,21.402 19.104,21.798 19.104,22.318 L18.198,22.318 C18.213,21.522 18.284,20.958 18.412,20.624 C18.505,20.378 18.626,20.166 18.776,19.986 C18.926,19.807 19.31,19.411 19.929,18.796 C20.568,18.163 20.887,17.514 20.887,16.851 C20.887,16.306 20.71,15.847 20.357,15.474 C19.959,15.051 19.409,14.84 18.706,14.84 C17.773,14.84 17.096,15.208 16.673,15.945 C16.456,16.319 16.331,16.859 16.297,17.566 L15.383,17.566 C15.403,16.677 15.572,15.975 15.892,15.459 C16.176,14.992 16.566,14.633 17.06,14.379 C17.553,14.127 18.11,14 18.728,14 Z"/></g></svg>