<svg xmlns="http://www.w3.org/2000/svg" width="48" height="48" viewBox="0 0 48 48"><path fill="none" stroke="#000" d="M22.12,12.5 C22.31,11.06 22.5,3.5 22.5,3.5 L25.496,3.5 C25.498,3.5 25.5,3.498 25.5,3.5 C25.502,3.567 25.691,11.066 25.88,12.5 M26.29,15.5 C26.77,18.8 27.45,23.1 28.29,27.5 M19.71,27.5 C20.55,23.1 21.23,18.8 21.71,15.5 M22.5,30.5 L20.5,36.5 M25.5,30.5 L27.5,36.5 M20.5,15.5 L27.5,15.5 L27.5,12.5 L20.5,12.5 L20.5,15.5 Z M28.92,30.5 L30.5,27.5 L17.5,27.5 L19.09,30.5 C17.622,36.643 11.5,45.5 11.5,45.5 L18.53,45.5 C18.78,42.69 21.13,40.5 24,40.5 C26.87,40.5 29.22,42.69 29.47,45.5 L30.9,45.5 L36.5,45.5 C36.5,45.5 30.68,36.58 28.92,30.5 Z M31.3743,36.5 L16.7753,36.5 M19.0903,30.5 L28.9203,30.5"/></svg>