<svg xmlns="http://www.w3.org/2000/svg" width="48" height="48" viewBox="0 0 48 48"><path fill="none" stroke="#000" d="M17.5001,43.5002 C17.5001,43.5002 15.6431,41.2922 17.5001,39.5002 C19.3571,37.7082 18.0001,34.5002 18.0001,34.5002 C18.0001,34.5002 21.9171,35.7862 21.5001,39.5002 M21.5001,33.5003 C21.5001,33.5003 21.7501,31.4333 23.5001,30.0003 C23.5831,33.0673 23.6671,36.0003 25.5001,37.5003 C27.3331,39.0003 28.5001,34.5003 28.5001,34.5003 C28.5001,34.5003 33.2501,40.2503 30.5001,43.5003 M6.4999,43.6525 L6.4999,9.4995 L4.4999,6.9995 L4.4999,4.4995 L43.4999,4.4995 L43.4999,6.9995 L41.4999,9.4995 L41.4999,43.5005 L6.4999,43.6525 Z M11.4834,43.5002 L11.5254,19.5002 L36.5004,19.5002 L36.4834,43.5002 M11,10.5001 L37,10.5001 M13.0001,13.5002 L35.0001,13.5002"/></svg>