<svg xmlns="http://www.w3.org/2000/svg" width="36" height="36" viewBox="0 0 36 36"><path fill="none" stroke="#000" d="M12.75,26.25 L12.75,33 M23.25,23.25 L23.25,33 M16.8822,8.36685 C15.6972,7.34685 14.2782,6.74985 12.7497,6.74985 C8.6082,6.74985 5.2497,11.11485 5.2497,16.49985 C5.2497,21.88485 8.6082,26.24985 12.7497,26.24985 C15.4407,26.24985 17.7942,24.40035 19.1172,21.63285 M30.75,13.5 C30.75,18.885 27.3915,23.25 23.25,23.25 C19.1085,23.25 15.75,18.885 15.75,13.5 C15.75,8.115 19.1085,3.75 23.25,3.75 C27.3915,3.75 30.75,8.115 30.75,13.5 Z M22.5,6.84675 C20.7015,7.29975 19.2765,9.35775 18.8745,11.99925 M12,9.8634 C10.203,10.3179 8.778,12.3624 8.376,14.9994"/></svg>