<svg xmlns="http://www.w3.org/2000/svg" width="36" height="36" viewBox="0 0 36 36"><path fill="none" stroke="#000" d="M6.4113,2.4288 L8.2728,3.5913 L10.6758,3.5913 L11.5278,0.2913 M28.5,14.25 C28.5,22.1205 22.1205,28.5 14.25,28.5 C6.3795,28.5 0,22.1205 0,14.25 C0,6.3795 6.3795,0 14.25,0 C22.1205,0 28.5,6.3795 28.5,14.25 Z M20.15715,27.20655 L19.53465,22.74855 C19.51215,22.58805 19.43715,22.43805 19.32165,22.32255 L16.50015,19.49955 L15.38265,18.38205 C15.15465,18.15405 14.80515,18.09705 14.51715,18.24105 L13.08465,18.95805 C12.58665,19.20705 12.00015,18.84405 12.00015,18.28605 L12.00015,17.24955 C12.00015,16.83555 11.66415,16.49955 11.25015,16.49955 L6.00015,16.49955 L3.44715,16.49955 C3.17115,16.49955 2.91765,16.65105 2.78715,16.89405 L1.16865,19.89705 M21.99255,2.2971 L20.12805,3.5106 C19.78305,3.7356 19.30305,4.1931 19.06155,4.5276 L18.22455,5.6886 C18.08355,5.8836 17.85705,6.0006 17.61555,6.0006 L13.81005,6.0006 C13.61205,6.0006 13.42155,6.0786 13.28055,6.2196 L10.57305,8.9271 C10.52505,8.9751 10.46955,9.0171 10.41105,9.0501 L7.55355,10.6596 C6.97455,10.9851 7.07505,11.8476 7.71255,12.0321 L10.32255,12.7926 C10.43955,12.8271 10.56255,12.8316 10.68105,12.8076 L16.33755,11.6721 C16.44405,11.6511 16.55505,11.6526 16.66005,11.6781 L17.27055,11.8251 C17.67255,11.9211 17.99955,12.3381 17.99955,12.7506 L17.99955,16.1811 C17.99955,16.3851 18.08355,16.5801 18.23055,16.7211 L25.17255,23.3961" transform="translate(3.75 3.75)"/></svg>