<?xml version="1.0" encoding="UTF-8"?>
<svg width="36px" height="36px" viewBox="0 0 36 36" version="1.1" xmlns="http://www.w3.org/2000/svg" xmlns:xlink="http://www.w3.org/1999/xlink">
    <title>KOM/responsive/medium/180-Leisure/roof-bed-medium</title>
    <g id="KOM/responsive/medium/180-Leisure/roof-bed-medium" stroke="none" stroke-width="1" fill="none" fill-rule="evenodd">
        <g id="KOM/responsive/small/180-Leisure/roof-bed-small" stroke="#000000">
            <path d="M3.7503,33.0003 L3.7503,16.5003 L3.7503,33.0003 Z M3.75,16.5 L3.75,33 M3.7503,26.2503 L32.2503,26.2503 L3.7503,26.2503 Z M3.75,26.25 L32.25,26.25 M11.25,21 C11.25,22.242 10.242,23.25 9,23.25 C7.758,23.25 6.75,22.242 6.75,21 C6.75,19.758 7.758,18.75 9,18.75 C10.242,18.75 11.25,19.758 11.25,21 Z M14.25,26.25 L14.25,20.25 L29.25,20.25 C30.9075,20.25 32.25,21.5925 32.25,23.25 L32.25,33 M3,12 L18,4.5 L33,12" id="Combined-Shape"></path>
        </g>
    </g>
</svg>