<svg xmlns="http://www.w3.org/2000/svg" width="36" height="36" viewBox="0 0 36 36"><path fill="none" stroke="#000" d="M14.25,0 C22.1205,0 28.5,6.3795 28.5,14.25 C28.5,22.1205 22.1205,28.5 14.25,28.5 C6.3795,28.5 0,22.1205 0,14.25 C0,6.3795 6.3795,0 14.25,0 Z M14.25,5.25 L14.25,9.75 M23.7798,12.165 L19.5003,13.5555 M20.1351,23.38065 L17.4906,19.74015 M8.37,23.38065 L11.0145,19.74015 M4.725,12.165 L9.0045,13.5555 M20.0877,1.24695 L14.2497,5.25045 L8.4117,1.24695 M28.42125,15.74355 L23.75925,12.15855 L25.66125,5.71605 M18.55485,27.8367 L20.13135,23.3982 L25.29135,23.2572 M3.20985,23.25735 L8.36535,23.39835 L9.94335,27.83685 M2.829,5.72985 L4.7265,12.15885 L0.078,15.73335 M14.25,9.75 L9,13.5645 L11.0055,19.737 L17.4945,19.737 L19.5,13.5645 L14.25,9.75 Z" transform="translate(3.75 3.75)"/></svg>