<svg xmlns="http://www.w3.org/2000/svg" width="36" height="36" viewBox="0 0 36 36"><path fill="none" stroke="#000" d="M20.25,11.25045 L27.75,11.25045 L20.25,11.25045 Z M20.25,11.25 L27.75,11.25 M20.25,15.75 L27.75,15.75 L20.25,15.75 Z M20.25,15.7503 L27.75,15.7503 M3,20.25015 C5.496,20.25015 5.496,23.25015 7.992,23.25015 C10.4895,23.25015 10.4895,20.25015 12.9885,20.25015 C15.4875,20.25015 15.4875,23.25015 17.9865,23.25015 C20.4855,23.25015 20.4855,20.25015 22.986,20.25015 C25.4895,20.25015 25.4895,23.25015 27.993,23.25015 C30.4965,23.25015 30.4965,20.25015 33,20.25015 M3,26.25045 C5.496,26.25045 5.496,29.25045 7.992,29.25045 C10.4895,29.25045 10.4895,26.25045 12.9885,26.25045 C15.4875,26.25045 15.4875,29.25045 17.9865,29.25045 C20.4855,29.25045 20.4855,26.25045 22.986,26.25045 C25.4895,26.25045 25.4895,29.25045 27.993,29.25045 C30.4965,29.25045 30.4965,26.25045 33,26.25045 M24.75,7.50015 C24.75,6.25815 23.742,5.25015 22.5,5.25015 C21.258,5.25015 20.25,6.25815 20.25,7.50015 L20.25,22.12515 M32.25045,7.50015 C32.25045,6.25815 31.24245,5.25015 30.00045,5.25015 C28.75845,5.25015 27.75045,6.25815 27.75045,7.50015 L27.75045,23.25015"/></svg>