<svg xmlns="http://www.w3.org/2000/svg" width="48" height="48" viewBox="0 0 48 48">
  <path fill="none" stroke="#000" stroke-width="2" d="M41,15.0004 L41,13.0004 L23,7.0004 L5,13.0004 L5,15.0004 L41,15.0004 Z M7,15.0004 L7,19.0004 L39,19.0004 L39,15.0004 M4,42.9994 L42,42.9994 M7,42.9994 L7,38.9994 L39,38.9994 L39,42.9994 M13,38.9994 L13,18.9994 M9,19.0004 L9,39.0004 M21,38.9994 L21,18.9994 M17,19.0004 L17,39.0004 M29,38.9994 L29,18.9994 M25,19.0004 L25,39.0004 M33,19.0004 L33,39.0004 M37,38.9994 L37,18.9994"/>
</svg>
