<svg xmlns="http://www.w3.org/2000/svg" width="48" height="48" viewBox="0 0 48 48">
  <g fill="none" fill-rule="evenodd">
    <path stroke="#000" stroke-width="2" d="M5,40.0004 L5,31.0004 L5.128,31.0004 L14,31.0004 M43,24.0004 C42.958,34.5364 34.278,43.0404 23.416,43.0005405 C15.836,42.9724 8.762,38.6164 5.524,31.9684 C5.38,31.6624 5.24,31.3164 5.128,31.0004 M43,8.0004 L43,17.0004 L34,17.0004 M5,24.0004 C5.02,13.4764 13.77,4.9804 24.658,5.00036476 C32.312,5.0144 39.246,9.1784 42.474,15.8864 C42.642,16.2384 42.8,16.6324 42.922,17.0004"/>
    <path fill="#000" d="M17.5644,24.8412 L17.5644,24.7472 L17.5644,24.1952 C17.5644,24.0592 17.5724,23.7412 17.5924,23.2392 L17.6064,23.1432 L15.3764,23.1432 L16.1024,21.4732 L17.7964,21.4732 C17.9524,20.5672 18.1744,19.7172 18.4664,18.9272 C19.6784,15.6132 21.8944,13.9572 25.1104,13.9572 C27.3804,13.9572 29.4404,14.6712 31.2904,16.0992 L30.3204,18.2812 C29.5004,17.7432 28.8684,17.3432 28.4184,17.0832 C27.3244,16.4632 26.2084,16.1532 25.0704,16.1532 C22.9824,16.1532 21.5384,17.3692 20.7364,19.8032 C20.5364,20.4052 20.3944,20.9612 20.3124,21.4732 L28.8984,21.4732 L28.1464,23.1432 L20.0804,23.1432 C20.0624,23.6372 20.0524,24.0112 20.0524,24.2612 C20.0524,24.3872 20.0584,24.5812 20.0664,24.8412 L27.4064,24.8412 L26.6564,26.5112 L20.2584,26.5112 C20.4224,27.4372 20.6944,28.2992 21.0784,29.0972 C21.5424,30.0432 22.0984,30.7192 22.7464,31.1332 C23.4204,31.5632 24.2284,31.7792 25.1664,31.7792 C25.9424,31.7792 26.6304,31.6712 27.2304,31.4572 C27.8324,31.2392 28.8584,30.7372 30.3204,29.9472 L30.3204,32.6292 C29.9104,32.8612 29.6604,33.0012 29.5664,33.0472 C28.2284,33.7112 26.6964,34.0432 24.9744,34.0432 C20.9184,34.0432 18.4984,31.5332 17.7144,26.5112 L15.3764,26.5112 L16.1024,24.8412 L17.5644,24.8412 Z"/>
  </g>
</svg>
