<svg xmlns="http://www.w3.org/2000/svg" width="48" height="48" viewBox="0 0 48 48">
  <path fill="none" stroke="#000" stroke-width="2" d="M31,42 C38.026,39.21 43,32.02 43,24 C43,13.506 34.494,5 24,5 C13.506,5 5,13.506 5,24 C5,34.494 13.506,43 24,43 M38,43 L31,43 L31,36 M25.83,15 L24.444,16.692 L19.292,18.02 L18.282,17.502 L14.942,19.848 L16.452,20.338 L12.478,24.504 L11,29.624 L13.928,28.918 L15.22,28.206 L18.284,30.976 L22.602,30.518 L25.092,27.97 L28.038,31.824 L30.192,27.504 L35.204,28.742 L34.888,26.15 L37,26.202 L36.784,21.97 L34.948,20.644 L34.35,21.712 L31.92,21.02 L32.828,18.462 L27.74,16.594 L25.83,15 Z"/>
</svg>
