<svg xmlns="http://www.w3.org/2000/svg" width="48" height="48" viewBox="0 0 48 48">
  <path fill="none" stroke="#000" stroke-width="2" d="M42,12 L35,5 L28,12 M25.0322,40.3184 C22.6562,39.1984 21.0002,36.8004 21.0002,34.0004 L21.0002,14.0004 C21.0002,11.1984 19.3442,8.8004 16.9682,7.6824 M30.9688,40.3184 C33.3428,39.1984 35.0008,36.8004 35.0008,34.0004 L35.0008,5.0004 M11.0322,7.6816 C8.6562,8.8016 7.0002,11.1996 7.0002,13.9996 L7.0002,37.9996 M31,40 C31,41.656 29.656,43 28,43 C26.344,43 25,41.656 25,40 C25,38.344 26.344,37 28,37 C29.656,37 31,38.344 31,40 Z M17,8 C17,9.656 15.658,11 14,11 C12.342,11 11,9.656 11,8 C11,6.344 12.342,5 14,5 C15.658,5 17,6.344 17,8 Z"/>
</svg>
