<svg xmlns="http://www.w3.org/2000/svg" width="48" height="48" viewBox="0 0 48 48">
  <g fill="none" fill-rule="evenodd">
    <path stroke="#000" stroke-width="2" d="M5,35 L37,35 L37,19 L5,19 L5,35 Z M37,29 L43,29 L43,13 L11,13 L11,19"/>
    <path fill="#000" d="M13.82,23.0068 C14.896,23.0068 15.764,23.3568 16.42,24.0548 C16.89,24.5448 17.148,25.1088 17.198,25.7528 L15.52,25.7528 C15.428,25.3208 15.23,24.9868 14.928,24.7528 C14.628,24.5148 14.246,24.3988 13.784,24.3988 C13.044,24.3988 12.492,24.7048 12.126,25.3128 C11.852,25.7728 11.716,26.3408 11.716,27.0128 C11.716,27.7048 11.86,28.2768 12.148,28.7388 C12.512,29.3268 13.054,29.6208 13.772,29.6208 C14.284,29.6208 14.692,29.4728 14.996,29.1748 C15.298,28.8808 15.486,28.4468 15.558,27.8828 L17.252,27.8828 C17.194,28.6728 16.924,29.3448 16.442,29.9088 C15.81,30.6428 14.914,31.0068 13.756,31.0068 C12.524,31.0068 11.564,30.5848 10.878,29.7308 C10.294,29.0048 10,28.0908 10,27.0048 C10,25.8608 10.348,24.9108 11.044,24.1488 C11.74,23.3888 12.666,23.0068 13.82,23.0068 Z M20.1296,23.1914 L20.1296,26.0914 L23.3156,26.0914 L23.3156,23.1914 L25.0156,23.1914 L25.0156,30.8274 L23.3156,30.8274 L23.3156,27.4994 L20.1296,27.4994 L20.1296,30.8274 L18.4296,30.8274 L18.4296,23.1914 L20.1296,23.1914 Z M32,23.1914 L32,24.6014 L28.216,24.6014 L28.216,26.3714 L31.51,26.3714 L31.51,27.6834 L28.216,27.6834 L28.216,30.8274 L26.518,30.8274 L26.518,23.1914 L32,23.1914 Z"/>
  </g>
</svg>
