<svg xmlns="http://www.w3.org/2000/svg" width="48" height="48" viewBox="0 0 48 48">
  <path fill="none" stroke="#000" stroke-width="2" d="M9,36.9994 L9,10.9994 C9,8.7914 10.792,6.9994 13,6.9994 L39,6.9994 L39,33.0034 L13,33.0034 C10.792,33.0034 9,34.7914 9,36.9994 C9,39.2074 10.792,41.0034 13,41.0034 L40,40.9994 M14,36.9994 L40,36.9994 M27,20.0004 C27,21.6564 25.658,23.0004 24,23.0004 C22.342,23.0004 21,21.6564 21,20.0004 C21,18.3424 22.342,17.0004 24,17.0004 C25.658,17.0004 27,18.3424 27,20.0004 Z M24,17.0004 C22.342,17.0004 21,15.6564 21,14.0004 C21,12.3424 22.342,11.0004 24,11.0004 C25.658,11.0004 27,12.3424 27,14.0004 M24,23.0004 C25.658,23.0004 27,24.3424 27,26.0004 C27,27.6584 25.658,29.0004 24,29.0004 C22.342,29.0004 21,27.6584 21,26.0004"/>
</svg>
