<svg xmlns="http://www.w3.org/2000/svg" width="48" height="48" viewBox="0 0 48 48">
  <path fill="none" stroke="#000" stroke-width="2" d="M15,41.002 L29,41.002 L29,21.002 L15,21.002 L15,41.002 Z M18,25.0004 L25.984,25.0004 M18,28.9994 L25.984,28.9994 M18,32.9994 L25.984,32.9994 M18,36.9994 L25.984,36.9994 M17.0498,17.0502 C18.3178,15.7842 20.0678,15.0002 21.9998,15.0002 C23.9318,15.0002 25.6818,15.7842 26.9498,17.0502 M14.2216,14.2222 C16.2136,12.2302 18.9636,11.0002 21.9996,11.0002 C25.0376,11.0002 27.7876,12.2302 29.7776,14.2222 M11.3936,11.393 C14.1076,8.679 17.8576,7.001 21.9996,7.001 C26.1436,7.001 29.8936,8.679 32.6076,11.393"/>
</svg>
