<svg xmlns="http://www.w3.org/2000/svg" width="48" height="48" viewBox="0 0 48 48">
  <path fill="none" stroke="#000" stroke-width="2" d="M29,33 L37,33 L33,23 L29,23 L29,33 Z M14,41 L21,41 L21,17 L18,17 M25,17.001 L25,41.001001 L34,41.001001 C40.874,41.003 44.34,37.891 42,32.001 L36.718,21.545 C35.104,18.613 32.896,16.953 28,17.001 L25,17.001 Z M21,35.002 L25,35.002 M25,37.002 L21,37.002 M20,13 L30,13 M9,8.998 C9,10.626 9.792,12.086 10.998,13 C12.204,12.086 12.996,10.626 12.996,8.998 C12.996,7.368 12.204,5.914 10.998,5 C9.792,5.914 9,7.368 9,8.998 Z M11,17 C7.686,17 5,14.314 5,11 C8.314,11 11,13.686 11,17 Z M11,17 C14.314,17 17,14.314 17,11 C13.686,11 11,13.686 11,17 Z M11,27 C7.686,27 5,24.314 5,21 C8.314,21 11,23.686 11,27 Z M11,27 C14.314,27 17,24.314 17,21 C13.686,21 11,23.686 11,27 Z M11,37 C7.686,37 5,34.314 5,31 C8.314,31 11,33.686 11,37 Z M11,37 C14.314,37 17,34.314 17,31 C13.686,31 11,33.686 11,37 Z M11,42 L11,13"/>
</svg>
