<svg xmlns="http://www.w3.org/2000/svg" width="48" height="48" viewBox="0 0 48 48">
  <path fill="none" stroke="#000" stroke-width="2" d="M30.6328,33.3256 C34.4588,29.0636 37.0008,22.0196 37.0008,17.4496 C37.0008,10.5736 31.1788,4.9996 24.0008,4.9996 C16.8208,4.9996 11.0008,10.5736 11.0008,17.4496 C11.0008,21.9996 13.5648,29.0496 17.3688,33.3216 M20.8886,42.9994 C18.7406,42.9994 17.0006,41.2074 17.0006,38.9994 C17.0006,36.7914 18.7406,34.9994 20.8886,34.9994 L27.1106,34.9994 C29.2606,34.9994 31.0006,36.7914 31.0006,38.9994 C31.0006,41.2074 29.2606,42.9994 27.1106,42.9994 L20.8886,42.9994 Z M20,23.0004 C17.238,23.0004 15,20.7604 15,18.0004 C15,15.2384 17.238,13.0004 20,13.0004 L28,13.0004 C30.762,13.0004 33,15.2384 33,18.0004 C33,20.7604 30.762,23.0004 28,23.0004 L20,23.0004 Z M31,38.9994 L31,34.9994 C31,32.7914 29.26,30.9994 27.112,30.9994 L20.888,30.9994 C18.742,30.9994 17,32.7914 17,34.9994 L17,38.9994 M31,34.9994 L35,36.9994 L39,28.9994 L34.674,26.8374 M13.3388,26.8314 L9.0008,28.9994 L13.0008,36.9994 L17.0008,34.9994 M17.3692,33.3218 L17.3692,33.3218 M19,31.5228 L19,29.8568 C19,28.2788 20.244,26.9988 21.778,26.9988 L26.222,26.9988 C27.756,26.9988 29,28.2788 29,29.8568 L29,31.5228"/>
</svg>
