<svg xmlns="http://www.w3.org/2000/svg" width="48" height="48" viewBox="0 0 48 48">
  <path fill="none" stroke="#000" stroke-width="2" d="M7,8.0004 L7,41.0004 L40,41.0004 M13.4374,18.8042 L6.9994,28.0002 M14.3702,18.9252 L17.6302,27.0752 M27,16.0004 C27,16.5524 26.552,17.0004 26,17.0004 C25.448,17.0004 25,16.5524 25,16.0004 C25,15.4484 25.448,15.0004 26,15.0004 C26.552,15.0004 27,15.4484 27,16.0004 Z M37,12.0004 C37,12.5524 36.552,13.0004 36,13.0004 C35.448,13.0004 35,12.5524 35,12.0004 C35,11.4484 35.448,11.0004 36,11.0004 C36.552,11.0004 37,11.4484 37,12.0004 Z M15,18.0004 C15,18.5524 14.552,19.0004 14,19.0004 C13.448,19.0004 13,18.5524 13,18.0004 C13,17.4484 13.448,17.0004 14,17.0004 C14.552,17.0004 15,17.4484 15,18.0004 Z M19,27.9994 C19,28.5514 18.552,28.9994 18,28.9994 C17.448,28.9994 17,28.5514 17,27.9994 C17,27.4494 17.448,26.9994 18,26.9994 C18.552,26.9994 19,27.4494 19,27.9994 Z M23,33.9994 C23,34.5514 22.552,34.9994 22,34.9994 C21.448,34.9994 21,34.5514 21,33.9994 C21,33.4494 21.448,32.9994 22,32.9994 C22.552,32.9994 23,33.4494 23,33.9994 Z M27,24.0004 C27,24.5524 26.552,25.0004 26,25.0004 C25.448,25.0004 25,24.5524 25,24.0004 C25,23.4484 25.448,23.0004 26,23.0004 C26.552,23.0004 27,23.4484 27,24.0004 Z M13,31.9994 C13,32.5514 12.552,32.9994 12,32.9994 C11.448,32.9994 11,32.5514 11,31.9994 C11,31.4494 11.448,30.9994 12,30.9994 C12.552,30.9994 13,31.4494 13,31.9994 Z M26.9258,15.6304 L35.0738,12.3704 M11.5214,32.8608 L6.9994,40.9988 M35.039,22.1918 L26.961,23.8078 M37,22.0004 C37,22.5524 36.552,23.0004 36,23.0004 C35.448,23.0004 35,22.5524 35,22.0004 C35,21.4484 35.448,21.0004 36,21.0004 C36.552,21.0004 37,21.4484 37,22.0004 Z M18.545,27.183 L25.455,16.817 M12.961,32.1928 L21.039,33.8088 M25.6298,24.9252 L22.3698,33.0752"/>
</svg>
