<svg xmlns="http://www.w3.org/2000/svg" width="48" height="48" viewBox="0 0 48 48">
  <g fill="none" fill-rule="evenodd">
    <path stroke="#000" stroke-width="2" d="M23.998,10.64 C24.446,9.72 25.03,8.878 25.722,8.14 C27.546,6.208 30.132,5 33,5 C38.524,5 43,9.476 43,15 C43,20.522 38.524,25 33,25 C30.238,25 27.738,23.88 25.93,22.07 C25.144,21.286 24.488,20.37 23.998,19.36 M37.3554,23.9966 C40.6974,25.6146 42.9994,29.0386 42.9994,32.9986 C42.9994,38.5226 38.5234,42.9986 32.9994,42.9986 C27.4774,42.9986 22.9994,38.5226 22.9994,32.9986 C22.9994,29.0386 25.3034,25.6166 28.6434,23.9966 M24.002,37.3608 C22.382,40.6988 18.96,42.9988 15,42.9988 C9.476,42.9988 5,38.5228 5,32.9988 C5,27.4788 9.476,23.0008 15,23.0008 C18.96,23.0008 22.384,25.3028 24.004,28.6448 M10.6348,23.9994 C7.2988,22.3774 5.0008,18.9574 5.0008,14.9994 C5.0008,9.4774 9.4768,4.9994 15.0008,4.9994 C20.5228,4.9994 25.0008,9.4774 25.0008,14.9994 C25.0008,18.9634 22.6928,22.3874 19.3508,24.0054"/>
    <path fill="#000" d="M14.9546,27.9526 C16.0626,27.9526 16.9206,28.2286 17.5286,28.7786 C18.1366,29.3306 18.4506,30.1146 18.4686,31.1306 L16.5066,31.1306 C16.4986,30.6646 16.3886,30.3166 16.1786,30.0766 C15.9046,29.7686 15.5126,29.6126 14.9966,29.6126 C14.6166,29.6126 14.3066,29.7166 14.0606,29.9226 C13.8146,30.1326 13.6886,30.3946 13.6886,30.7146 C13.6886,30.9826 13.7666,31.3046 13.9246,31.6766 C14.0826,32.0706 14.2026,32.3826 14.2846,32.6146 L16.0966,32.6146 L16.0966,33.7766 L14.6626,33.7766 C14.7006,33.9826 14.7226,34.1806 14.7226,34.3786 C14.7226,34.7106 14.6346,35.0206 14.4586,35.3086 C14.2826,35.5946 13.9826,35.9226 13.5526,36.2926 C13.9966,36.0946 14.4166,35.9966 14.8106,35.9966 C15.0766,35.9966 15.4006,36.0486 15.7826,36.1486 C16.1926,36.2566 16.4906,36.3126 16.6786,36.3126 C17.1826,36.3126 17.6166,36.1186 17.9766,35.7326 L18.8186,37.1726 C18.5566,37.4466 18.2286,37.6586 17.8346,37.8126 C17.4346,37.9666 17.0146,38.0426 16.5686,38.0426 C16.3046,38.0426 16.0766,38.0226 15.8846,37.9886 C15.6926,37.9506 15.3526,37.8626 14.8646,37.7206 C14.3506,37.5746 13.9286,37.5006 13.5966,37.5006 C13.3406,37.5006 13.1026,37.5426 12.8846,37.6206 C12.6666,37.7006 12.4026,37.8426 12.0966,38.0486 L11.2366,36.7706 C11.6906,36.4466 12.0186,36.1606 12.2206,35.9146 C12.5866,35.4646 12.7666,35.0086 12.7666,34.5486 C12.7666,34.3026 12.7226,34.0446 12.6306,33.7766 L11.1806,33.7766 L11.1806,32.6146 L12.1386,32.6146 C12.0526,32.4046 11.9846,32.2486 11.9326,32.1506 C11.7826,31.8126 11.6806,31.5366 11.6266,31.3226 C11.5726,31.1086 11.5446,30.8666 11.5446,30.5966 C11.5446,29.9006 11.7986,29.3126 12.3106,28.8326 C12.9426,28.2446 13.8246,27.9526 14.9546,27.9526 Z M31.3096,28.123 L33.0276,32.101 L34.7496,28.123 L36.8416,28.123 L35.0176,32.019 L36.5336,32.019 L36.5336,33.127 L34.4636,33.127 L33.9776,34.097 L33.9776,34.371 L36.0356,34.371 L36.0356,35.477 L33.9776,35.477 L33.9776,37.879 L32.0296,37.879 L32.0296,35.477 L29.9716,35.477 L29.9716,34.371 L32.0296,34.371 L32.0296,34.069 L31.5516,33.127 L29.4676,33.127 L29.4676,32.019 L31.0036,32.019 L29.1576,28.123 L31.3096,28.123 Z M33.4316,8.663 L33.4316,9.893 C34.3996,9.943 35.1476,10.215 35.6696,10.703 C36.1916,11.193 36.4616,11.877 36.4776,12.751 L34.6276,12.751 C34.6096,11.921 34.2096,11.457 33.4316,11.357 L33.4316,13.905 C33.4936,13.925 33.6736,13.971 33.9716,14.043 C34.9516,14.299 35.6416,14.611 36.0496,14.979 C36.5516,15.439 36.8016,16.065 36.8016,16.859 C36.8016,17.665 36.5436,18.343 36.0296,18.889 C35.7016,19.239 35.3356,19.497 34.9376,19.657 C34.5396,19.819 34.0376,19.917 33.4316,19.949 L33.4316,21.337 L32.6036,21.337 L32.6036,19.943 C31.6416,19.889 30.8896,19.643 30.3476,19.211 C29.5916,18.605 29.2096,17.749 29.1996,16.647 L31.1396,16.647 C31.1316,17.731 31.6196,18.327 32.6036,18.431 L32.6036,15.541 C31.6916,15.285 31.0616,15.057 30.7176,14.857 C30.2756,14.601 29.9516,14.299 29.7456,13.951 C29.5416,13.601 29.4396,13.179 29.4396,12.683 C29.4396,12.131 29.5816,11.639 29.8696,11.209 C30.1556,10.779 30.5636,10.445 31.0916,10.209 C31.4716,10.039 31.9736,9.935 32.6036,9.893 L32.6036,8.663 L33.4316,8.663 Z M15.896,9.9698 C16.588,9.9698 17.192,10.0978 17.708,10.3518 C17.908,10.4518 18.2,10.6278 18.582,10.8778 L17.926,12.5458 C17.462,12.2238 17.068,11.9978 16.746,11.8698 C16.426,11.7418 16.092,11.6778 15.744,11.6778 C14.824,11.6778 14.17,12.3358 13.784,13.6538 L17.502,13.6538 L17.112,14.7618 L13.584,14.7618 C13.58,14.8758 13.578,14.9798 13.578,15.0758 C13.578,15.1798 13.58,15.2798 13.584,15.3758 L16.846,15.3758 L16.428,16.4838 L13.81,16.4838 C14.216,17.6998 14.866,18.3098 15.76,18.3098 C16.054,18.3098 16.346,18.2658 16.634,18.1758 C16.92,18.0878 17.346,17.9078 17.904,17.6398 L17.904,19.5678 C16.862,19.8758 16.108,20.0318 15.642,20.0318 C14.808,20.0318 14.038,19.7638 13.326,19.2258 C12.528,18.6278 11.99,17.7138 11.712,16.4838 L10.42,16.4838 L10.822,15.3758 L11.534,15.3758 C11.5276,15.2158 11.52376,15.0942 11.52248,15.013048 L11.522,14.7618 L10.42,14.7618 L10.822,13.6538 L11.67,13.6538 C11.858,12.8478 12.182,12.1358 12.642,11.5218 C13.412,10.4878 14.496,9.9698 15.896,9.9698 Z M33.4316,15.745 L33.4316,18.431 C34.3916,18.313 34.8736,17.867 34.8736,17.091 C34.8736,16.627 34.6856,16.285 34.3116,16.065 C34.2076,16.003 33.9136,15.895 33.4316,15.745 Z M32.6036,11.335 C31.7316,11.413 31.2996,11.809 31.2996,12.525 C31.2996,12.849 31.3916,13.099 31.5836,13.273 C31.7756,13.449 32.1156,13.597 32.6036,13.715 L32.6036,11.335 Z"/>
  </g>
</svg>
