<svg xmlns="http://www.w3.org/2000/svg" width="48" height="48" viewBox="0 0 48 48">
  <path fill="none" stroke="#000" stroke-width="2" d="M23,13.9994 C23,16.7614 18.97,18.9994 14,18.9994 C9.03,18.9994 5,16.7614 5,13.9994 C5,11.2374 9.03,8.9994 14,8.9994 C18.97,8.9994 23,11.2374 23,13.9994 Z M5,19.9994 C5,22.7614 9.03,24.9994 14,24.9994 C16.316,24.9994 18.406,24.7974 20,23.9994 M5,25.9994 C5,28.7614 9.03,30.9994 14,30.9994 C16.316,30.9994 18.406,30.7974 20,29.9994 M5,31.9994 C5,34.7614 9.03,36.9994 14,36.9994 C16.316,36.9994 18.406,36.7974 20,35.9994 M20,41.9994 C18.406,42.7974 16.316,42.9994 14,42.9994 C9.03,42.9994 5,40.7614 5,37.9994 L5,13.9994 M41,25.9994 C41,28.7614 36.97,30.9994 32,30.9994 C27.03,30.9994 23,28.7614 23,25.9994 C23,23.2374 27.03,20.9994 32,20.9994 C36.97,20.9994 41,23.2374 41,25.9994 Z M41,31.9994 C41,34.7614 36.97,36.9994 32,36.9994 C27.03,36.9994 23,34.7614 23,31.9994 M41,37.9994 C41,40.7614 36.97,42.9994 32,42.9994 C27.03,42.9994 23,40.7614 23,37.9994 M23,37.9994 L23,25.9994 M41,25.9994 L41,37.9994 M23,19.9994 L23,13.9994"/>
</svg>
