<svg xmlns="http://www.w3.org/2000/svg" width="48" height="48" viewBox="0 0 48 48">
  <path fill="none" stroke="#000" stroke-width="2" d="M22,37 L11,37 L11,7 L23,7 L33,17 L33,20 M33,17 L23,17 L23,7 M16,23 L26,23 M15.9952,27 L21.9952,27 M16,31 L22,31 M41,26 C41,27.656 38.314,29 35,29 C31.686,29 29,27.656 29,26 C29,24.342 31.686,23 35,23 C38.314,23 41,24.342 41,26 Z M41,26 L41,30 C41,31.656 38.314,33 35,33 C31.686,33 29,31.656 29,30 L29,26 M29,27.1954 C26.678,27.6074 25,28.6974 25,29.9994 C25,31.6554 27.686,32.9994 31,32.9994 C31.706,32.9994 32.372,32.9274 33,32.8174 M25,30 L25,34 C25,35.656 27.686,37 31,37 C34.314,37 37,35.656 37,34 L37,32.816 M29,36.8164 L29,40.0004 C29,41.6564 31.686,43.0004 35,43.0004 C38.314,43.0004 41,41.6564 41,40.0004 L41,36.0004 M29.2812,36.8594 C30.0232,38.0934 32.2892,38.9994 34.9992,38.9994 C38.3152,38.9994 40.9992,37.6554 40.9992,35.9994 C40.9992,34.6954 39.3232,33.5974 36.9992,33.1834"/>
</svg>
