<svg xmlns="http://www.w3.org/2000/svg" width="48" height="48" viewBox="0 0 48 48">
  <g fill="none" fill-rule="evenodd">
    <path stroke="#000" stroke-width="2" d="M28,22.9492 L16,22.9492 M23.0508,18 L28.0008,22.95 L23.0508,27.9"/>
    <path fill="#000" d="M11.6426,14 L11.6426,33.988 L9.0446,33.988 L9.0446,19.496 L4.0006,19.496 L4.0006,17.692 C5.8866,17.692 7.3086,17.336 8.2666,16.624 C8.9126,16.142 9.4186,15.266 9.7826,14 L11.6426,14 Z M37.794,14.0002 C39.552,14.0002 40.988,14.4702 42.1,15.4082 C42.692,15.9102 43.156,16.5522 43.494,17.3362 C43.832,18.1202 44,18.9622 44,19.8662 C44,21.5702 43.408,23.0502 42.222,24.3082 C41.44,25.1282 40.044,26.1402 38.04,27.3442 C36.462,28.2922 35.382,29.0622 34.798,29.6562 C34.214,30.2462 33.814,30.9722 33.596,31.8282 L43.836,31.8282 L43.836,33.9882 L30.834,33.9882 C30.926,32.0662 31.436,30.4602 32.366,29.1762 C32.794,28.5942 33.31,28.0542 33.918,27.5542 C34.524,27.0582 35.468,26.4102 36.754,25.6082 C38.624,24.4322 39.82,23.5382 40.35,22.9282 C41.116,22.0442 41.498,21.0322 41.498,19.8922 C41.498,18.7902 41.138,17.8702 40.418,17.1302 C39.724,16.4282 38.808,16.0782 37.67,16.0782 C36.45,16.0782 35.51,16.5022 34.854,17.3502 C34.198,18.1982 33.838,19.4602 33.774,21.1362 L31.38,21.1362 C31.372,20.8902 31.368,20.7222 31.368,20.6302 C31.368,19.6642 31.532,18.7482 31.86,17.8822 C32.188,17.0162 32.648,16.2882 33.24,15.6962 C34.372,14.5662 35.888,14.0002 37.794,14.0002 Z"/>
  </g>
</svg>
