<svg xmlns="http://www.w3.org/2000/svg" width="48" height="48" viewBox="0 0 48 48">
  <path fill="none" stroke="#000" stroke-width="2" d="M35,27.9994 L35,19.9994 M17,27.9994 C17,29.6574 15.658,30.9994 14,30.9994 C12.342,30.9994 11,29.6574 11,27.9994 M23,29.9994 C23,31.6574 21.658,32.9994 20,32.9994 C18.342,32.9994 17,31.6574 17,29.9994 M17.5634,31.7396 C16.5894,33.2636 15.9994,35.0516 15.9994,36.9996 L31.2574,36.9996 C35.6754,36.9996 39.2574,33.4176 39.2574,28.9996 C39.2574,27.5556 38.8454,26.2196 38.1754,25.0496 L34.9994,18.4096 M17,29.9994 L17,21.9994 M23,29.9994 L23,19.9994 M29,27.9994 L29,19.9994 M23,19.9994 L23,15.9994 M29,19.9994 L29,15.9994 M11,27.9994 L11,19.9994 M17,21.9994 L17,17.9994 M35,21.9994 L35,17.9994 M12,34.9994 C9.238,34.9994 7,32.7614 7,29.9994 M34,10.9994 C36.762,10.9994 39,13.2374 39,15.9994 M34,6.9994 C38.97,6.9994 43,11.0294 43,15.9994 M29,27.9994 C29,29.6574 27.656,30.9994 26,30.9994 C24.342,30.9994 23,29.6574 23,27.9994 M35,27.9994 C35,29.6574 33.656,30.9994 32,30.9994 C30.344,30.9994 29,29.6574 29,27.9994 M29,17.9994 C29,16.3434 30.344,14.9994 32,14.9994 C33.656,14.9994 35,16.3434 35,17.9994 M23,15.9994 C23,14.3434 24.342,12.9994 26,12.9994 C27.656,12.9994 29,14.3434 29,15.9994 M17,17.9994 C17,16.3434 18.342,14.9994 20,14.9994 C21.658,14.9994 23,16.3434 23,17.9994 M11,19.9994 C11,18.3434 12.342,16.9994 14,16.9994 C15.658,16.9994 17,18.3434 17,19.9994 M17,32.9994 L23,32.9994 L23,36.9994 M23,29.9994 L23,36.9994"/>
</svg>
