<svg xmlns="http://www.w3.org/2000/svg" width="48" height="48" viewBox="0 0 48 48">
  <path fill="none" stroke="#000" stroke-width="2" d="M25,21 C27.208,21 29,22.792 29,25 C29,27.208 27.208,29 25,29 C22.792,29 21,27.208 21,25 C21,22.792 22.792,21 25,21 Z M39,23 C40.106,23 41,23.896 41,25 C41,26.106 40.106,27 39,27 C37.894,27 37,26.106 37,25 C37,23.896 37.894,23 39,23 Z M25,37 C26.106,37 27,37.894 27,39 C27,40.106 26.106,41 25,41 C23.896,41 23,40.106 23,39 C23,37.894 23.896,37 25,37 Z M11,23 C12.104,23 13,23.896 13,25 C13,26.106 12.104,27 11,27 C9.896,27 9,26.106 9,25 C9,23.896 9.896,23 11,23 Z M25,9 C26.106,9 27,9.896 27,11 C27,12.104 26.106,13 25,13 C23.896,13 23,12.104 23,11 C23,9.896 23.896,9 25,9 Z M12.414,26.414 L23.586,37.586 M23.586,12.414 L12.414,23.586 M37.586,23.586 L26.414,12.414 M26.414,37.586 L37.586,26.414 M25,21 L25,13 M21,24.998 L13,24.998 M24.998,28.998 L24.998,36.998 M28.998,25 L36.998,25"/>
</svg>
