<svg xmlns="http://www.w3.org/2000/svg" width="48" height="48" viewBox="0 0 48 48">
  <path fill="none" stroke="#000" stroke-width="2" d="M27,38.9994 C31.17,37.3214 34.994,33.4514 34.994,28.3894 C34.994,24.5954 33.274,21.6014 31.602,19.1294 C28.584,14.6674 26.154,12.7494 21,6.9994 C21,11.3034 20.13,14.3274 16.494,19.1294 C15.224,20.8094 12.996,24.3734 12.996,28.3894 C12.996,33.4514 16.83,37.3214 21,38.9994 M21,38.9994 C19.576,37.7794 17.784,35.7534 17.784,33.6434 C17.784,32.1554 18.198,31.0254 19.106,29.7514 C21.084,26.9774 22.766,26.2214 22.766,21.6854 C25.782,25.2534 27.164,27.0214 28.868,29.6974 C29.772,31.1234 30.206,32.2774 30.206,33.6434 C30.206,35.7534 28.424,37.7794 27,38.9994 M8,42.9994 L40,42.9994"/>
</svg>
