<svg xmlns="http://www.w3.org/2000/svg" width="48" height="48" viewBox="0 0 48 48">
  <g fill="none" fill-rule="evenodd">
    <line x1="5.998" x2="42" y1="6" y2="42" stroke="#000" stroke-width="2"/>
    <path fill="#000" d="M31.657,13.547 C34.599,13.547 36.943,14.545 38.683,16.541 C40.389,18.493 41.241,20.965 41.241,23.965 C41.241,25.615 40.983,27.133 40.467,28.517 C39.953,29.905 39.221,31.039 38.273,31.921 L38.273,31.921 L40.913,34.027 L39.619,35.619 L33.019,29.019 L33.665,28.245 L36.291,30.417 C36.919,29.761 37.395,29.087 37.713,28.395 C38.297,27.101 38.587,25.619 38.587,23.951 C38.587,21.535 37.955,19.567 36.687,18.045 C35.439,16.541 33.761,15.789 31.657,15.789 C29.569,15.789 27.887,16.555 26.611,18.085 C25.903,18.931 25.421,19.957 25.121,21.123 L25.121,21.123 L23.095,19.095 C23.521,18.121 24.051,17.217 24.765,16.431 C25.713,15.393 26.827,14.641 28.101,14.175 C29.249,13.757 30.435,13.547 31.657,13.547 Z M22.2436,22.2456 L24.8156,24.8176 C24.9356,26.7296 25.4176,28.3236 26.3096,29.5556 C26.9216,30.4036 27.7036,31.0596 28.6536,31.5256 C29.6076,31.9896 30.6396,32.2216 31.7516,32.2216 C31.8956,32.2216 32.0356,32.1876 32.1796,32.1796 L32.1796,32.1796 L34.1756,34.1756 C33.3836,34.3656 32.5416,34.4656 31.6416,34.4656 C28.7716,34.4656 26.4476,33.4716 24.6696,31.4836 C22.9656,29.5796 22.1136,27.0876 22.1136,24.0056 C22.1136,23.3896 22.1756,22.8156 22.2436,22.2456 L22.2436,22.2456 Z M14.0096,14.0126 L16.3076,16.3086 L10.5196,16.3086 L10.5196,22.6246 L19.7616,22.6246 L19.7616,24.7586 L10.5196,24.7586 L10.5196,34.0006 L7.8816,34.0006 L7.8816,14.0126 L14.0096,14.0126 Z M21.0186,14.0126 L21.0186,16.3086 L20.3066,16.3086 L18.0106,14.0126 L21.0186,14.0126 Z"/>
  </g>
</svg>
