<svg xmlns="http://www.w3.org/2000/svg" width="48" height="48" viewBox="0 0 48 48">
  <path fill="none" stroke="#000" stroke-width="2" d="M41,7.0004 L32,16.0004 M34,7.0004 L41,7.0004 L41,14.0004 M7,35 L41,35 L41,21 L7,21 L7,35 Z M13,36.0072 C13,36.5572 12.552,37.0072 12,37.0072 C11.448,37.0072 11,36.5572 11,36.0072 C11,35.4552 11.448,35.0072 12,35.0072 C12.552,35.0072 13,35.4552 13,36.0072 Z M3.996,33.0112 L7,33.0112 M37,36.0072 C37,36.5572 36.552,37.0072 36,37.0072 C35.448,37.0072 35,36.5572 35,36.0072 C35,35.4552 35.448,35.0072 36,35.0072 C36.552,35.0072 37,35.4552 37,36.0072 Z M40.998,33.0112 L44.002,33.0112"/>
</svg>
