<svg xmlns="http://www.w3.org/2000/svg" width="48" height="48" viewBox="0 0 48 48">
  <g fill="none" fill-rule="evenodd">
    <path stroke="#000" stroke-width="2" d="M7,15.0004 L19,15.0004 L29,15.0004 L41,15.0004 L41,21.0004 L39,21.0004 L29,21.0004 L19,21.0004 L9,21.0004 L7,21.0004 L7,15.0004 Z M39,21.0004 L39,43.0004 L29,43.0004 L19,43.0004 L9,43.0004 L9,21.0004 M19,15.0004 L19,21.0004 M29,20.935 L29,15.001 M23.9922,15.0004 L24.0002,8.0004 C25.4982,2.3404 33.1522,5.6504 30.4002,10.4004 L27.0002,15.0004 M24,8.0004 C22.486,2.3084 14.894,5.5564 17.6,10.4004 L21,15.0004"/>
    <polygon fill="#000" points="19.993 35.984 22.393 35.984 19.193 32.984 22.993 32.984 22.993 35.984 24.993 35.984 24.993 32.984 28.793 32.984 25.593 35.984 27.993 35.984 31.993 31.984 27.993 27.984 25.593 27.984 28.793 30.984 24.993 30.984 24.993 27.984 22.993 27.984 22.993 30.984 19.193 30.984 22.393 27.984 19.993 27.984 15.993 31.984"/>
  </g>
</svg>
