<svg xmlns="http://www.w3.org/2000/svg" width="48" height="48" viewBox="0 0 48 48">
  <path fill="none" stroke="#000" stroke-width="2" d="M23.4082,30.48 L33.9002,40.97 L36.7282,38.142 L26.2362,27.652 M22.2374,23.6508 L15.5154,16.9288 M12.6866,19.7572 L19.4086,26.4792 M8.4434,15.515 L7.0294,14.099 L9.8574,11.271 L11.2734,12.685 M12.6866,11.272 C15.0286,13.616 18.8286,13.616 21.1726,11.272 L9.8566,22.586 L5.6146,18.344 L12.6866,11.272 Z M38.4414,8.6186 L41.2694,11.4466 L32.7854,19.9326 L29.9574,17.1046 L38.4414,8.6186 Z M13.7744,33.2456 L16.6024,36.0736 L11.6524,39.6096 L10.2384,38.1956 L13.7744,33.2456 Z M14.5214,35.3666 L31.3714,18.5186"/>
</svg>
