<svg xmlns="http://www.w3.org/2000/svg" width="48" height="48" viewBox="0 0 48 48">
  <path fill="none" stroke="#000" stroke-width="2" d="M18.999,32.168 L18.999,25 L18.997,23.002 C18.997,21.896 19.893,21 20.999,21 C22.105,21 23.001,21.896 23.001,23.002 L22.999,26.016 L22.997,21.002 C22.997,19.896 23.893,19 24.999,19 C26.105,19 27.001,19.896 27.001,21.002 L26.995,26.002 M26.9942,22.997 C26.9942,21.891 27.8902,20.995 28.9962,20.995 C30.1042,20.995 31.0002,21.891 31.0002,22.997 L31.0002,26.001 L31.0002,25.003 C31.0002,23.897 31.8962,22.999 33.0022,22.999 C34.1102,22.999 35.0062,23.897 35.0062,25.003 C35.0062,25.003 35.0002,26.125 35.0002,31.999 C35.0002,37.875 33.2002,40.999 33.2002,40.999 L18.9982,40.999 L15.0002,35.999 L15.0002,28.999 M18.999,32.168 C18.999,32.168 18.999,29 18.999,29 C18.999,27.894 18.105,27 16.999,27 C15.895,27 14.999,27.894 14.999,29"/>
</svg>
