<svg xmlns="http://www.w3.org/2000/svg" width="48" height="48" viewBox="0 0 48 48">
  <path fill="none" stroke="#000" stroke-width="2" d="M17.7226,34.056 L8.2526,27.44 C7.3906,26.75 6.1326,26.886 5.4406,27.748 C4.7486,28.608 4.8866,29.868 5.7486,30.56 L17.5986,41 L25.4846,41 L27.5006,43 L42.4006,43 L32.3446,32.872 C30.0706,30.684 27.1766,29.056 24.2186,29 L20.0006,29 C16.0306,29 15.9366,35 20.0006,35 L24.0006,35 M12,12.9906 C14.756,12.9906 17,15.2346 17,17.9906 C17,20.7466 14.756,22.9906 12,22.9906 C9.244,22.9906 7,20.7466 7,17.9906 C7,15.2346 9.244,12.9906 12,12.9906 M28,13.0004 C30.758,13.0004 33,15.2424 33,18.0004 C33,20.7564 30.758,23.0004 28,23.0004 C25.244,23.0004 23,20.7564 23,18.0004 C23,15.2424 25.244,13.0004 28,13.0004 M12,18.0004 L17,9.0004 L25,9.0004 L28,17.9904 M14,7.0004 L18,7.0004 M22,5.0004 L25,5.0004 L25,9.0004"/>
</svg>
