<svg xmlns="http://www.w3.org/2000/svg" width="48" height="48" viewBox="0 0 48 48">
  <g fill="none" fill-rule="evenodd">
    <path stroke="#000" stroke-width="2" d="M19,4.9994 C24.522,4.9994 29,9.4774 29,14.9994 C29,20.5234 24.522,24.9994 19,24.9994 C13.478,24.9994 9,20.5234 9,14.9994 C9,9.4774 13.478,4.9994 19,4.9994 Z M17.7226,34.055 L8.2526,27.439 C7.3906,26.751 6.1326,26.885 5.4406,27.749 C4.7486,28.607 4.8866,29.867 5.7486,30.561 L17.5986,41.001 L25.4846,41.001 L27.5006,43.001 L42.4006,43.001 L32.3446,32.871 C30.0706,30.683 27.1766,29.055 24.2186,29.001 L20.0006,29.001 C16.0306,29.001 15.9366,35.001 20.0006,35.001 L24.0006,35.001"/>
    <path fill="#000" d="M15.6016,13.6528 C15.7896,12.8468 16.1136,12.1348 16.5736,11.5208 C17.3436,10.4868 18.4276,9.9688 19.8276,9.9688 C20.5196,9.9688 21.1236,10.0968 21.6396,10.3508 C21.8396,10.4508 22.1316,10.6268 22.5136,10.8768 L21.8576,12.5448 C21.3936,12.2228 20.9996,11.9968 20.6776,11.8688 C20.3576,11.7408 20.0236,11.6768 19.6756,11.6768 C18.7556,11.6768 18.1016,12.3348 17.7156,13.6528 L21.4336,13.6528 L21.0436,14.7608 L17.5156,14.7608 C17.5116,14.8748 17.5096,14.9788 17.5096,15.0748 C17.5096,15.1788 17.5116,15.2788 17.5156,15.3748 L20.7776,15.3748 L20.3596,16.4828 L17.7416,16.4828 C18.1476,17.6988 18.7976,18.3088 19.6916,18.3088 C19.9856,18.3088 20.2776,18.2648 20.5656,18.1748 C20.8516,18.0868 21.2776,17.9068 21.8356,17.6388 L21.8356,19.5668 C20.7936,19.8748 20.0396,20.0308 19.5736,20.0308 C18.7396,20.0308 17.9696,19.7628 17.2576,19.2248 C16.4596,18.6268 15.9216,17.7128 15.6436,16.4828 L14.3516,16.4828 L14.7536,15.3748 L15.4656,15.3748 C15.4576,15.1748 15.4536,15.0348 15.4536,14.9588 L15.4536,14.7608 L14.3516,14.7608 L14.7536,13.6528 L15.6016,13.6528 Z"/>
  </g>
</svg>
