<svg xmlns="http://www.w3.org/2000/svg" width="48" height="48" viewBox="0 0 48 48">
  <path fill="none" stroke="#000" stroke-width="2" d="M31,17.9906 C31,19.6486 29.656,20.9906 28,20.9906 C26.344,20.9906 25,19.6486 25,17.9906 C25,16.3346 26.344,14.9906 28,14.9906 C29.656,14.9906 31,16.3346 31,17.9906 Z M19,18.0004 C19,19.6564 17.658,21.0004 16,21.0004 C14.342,21.0004 13,19.6564 13,18.0004 C13,16.3424 14.342,15.0004 16,15.0004 C17.658,15.0004 19,16.3424 19,18.0004 Z M30.8144,19.0004 L35.0004,19.0004 L35.0004,18.9904 L35.0004,13.0064 C35.0004,11.9024 34.1064,11.0064 33.0004,11.0064 L28.0004,11.0004 L24.6104,5.8864 C24.2404,5.3284 23.6704,5.0004 23.0004,5.0004 L15.7244,5.0004 C15.2564,5.0004 14.8024,5.1564 14.4424,5.4564 L9.7184,9.4004 C9.2624,9.7804 9.0004,10.3424 9.0004,10.9364 L9.0004,19.0004 L13.1844,19.0004 M9,11.0004 L28,11.0004 M17,5.0004 L17,11.0004 M18.8164,19.0004 L25.1864,19.0004 M17.7226,34.056 L8.2526,27.44 C7.3906,26.75 6.1326,26.886 5.4406,27.748 C4.7486,28.608 4.8866,29.868 5.7486,30.56 L17.5986,41 L25.4846,41 L27.5006,43 L42.4006,43 L32.3446,32.872 C30.0706,30.684 27.1766,29.056 24.2186,29 L20.0006,29 C16.0306,29 15.9366,35 20.0006,35 L24.0006,35"/>
</svg>
