<svg xmlns="http://www.w3.org/2000/svg" width="48" height="48" viewBox="0 0 48 48">
  <path fill="none" stroke="#000" stroke-width="2" d="M10,12.9906 C12.756,12.9906 15,15.2346 15,17.9906 C15,20.7466 12.756,22.9906 10,22.9906 C7.244,22.9906 5,20.7466 5,17.9906 C5,15.2346 7.244,12.9906 10,12.9906 M10,18.0004 L15,9.0004 L23,9.0004 L24,12.0004 M12,7.0004 L16,7.0004 M20,5.0004 L23,5.0004 L23,9.0004 M39,21.9906 C39,23.6486 37.656,24.9906 36,24.9906 C34.344,24.9906 33,23.6486 33,21.9906 C33,20.3346 34.344,18.9906 36,18.9906 C37.656,18.9906 39,20.3346 39,21.9906 Z M26.8164,23.0004 L33.1864,23.0004 M29,15.0004 L36,15.0004 M38.8144,23.0004 L43.0004,23.0004 L43.0004,22.9904 L43.0004,17.0064 C43.0004,15.9024 42.1064,15.0064 41.0004,15.0064 L36.0004,15.0004 L32.8644,10.2704 M21.7002,23.9058 C22.2502,24.5698 23.0702,24.9998 24.0002,24.9998 C25.6582,24.9998 27.0002,23.6558 27.0002,21.9998 C27.0002,20.8578 26.3542,19.8758 25.4142,19.3698 M34.0156,4.0004 L15.9996,26.0004 M17.7226,34.056 L8.2526,27.44 C7.3906,26.75 6.1326,26.886 5.4406,27.748 C4.7486,28.608 4.8866,29.868 5.7486,30.56 L17.5986,41 L25.4846,41 L27.5006,43 L42.4006,43 L32.3446,32.872 C30.0706,30.684 27.1766,29.056 24.2186,29 L20.0006,29 C16.0306,29 15.9366,35 20.0006,35 L24.0006,35"/>
</svg>
