<svg xmlns="http://www.w3.org/2000/svg" width="48" height="48" viewBox="0 0 48 48">
  <path fill="none" stroke="#000" stroke-width="2" d="M16.0244,14.3544 C15.3784,13.3964 15.0004,12.2424 15.0004,11.0004 C15.0004,7.6864 17.6864,5.0004 21.0004,5.0004 C24.3144,5.0004 27.0004,7.6864 27.0004,11.0004 C27.0004,12.2424 26.6224,13.3964 25.9764,14.3544 M26.9942,22.997 C26.9942,21.891 27.8902,20.995 28.9962,20.995 C30.1042,20.995 31.0002,21.891 31.0002,22.997 L31.0002,26.001 L31.0002,25.003 C31.0002,23.897 31.8962,22.999 33.0022,22.999 C34.1102,22.999 35.0062,23.897 35.0062,25.003 C35.0062,25.003 35.0002,26.125 35.0002,31.999 C35.0002,37.875 33.2002,40.999 33.2002,40.999 L18.9982,40.999 C18.9982,40.999 12.2102,29.483 11.5862,28.419 C10.9622,27.355 10.8042,26.369 11.5862,25.587 C12.3702,24.805 13.6362,24.805 14.4182,25.587 L18.9962,30.167 L18.9982,30.167 L18.9982,24.999 L18.9962,11.003 C18.9962,9.897 19.8942,8.999 20.9982,8.999 C22.1062,8.999 23.0022,9.897 23.0022,11.003 L23.0002,26.015 L22.9962,21.003 C22.9962,19.897 23.8942,18.999 24.9982,18.999 C26.1062,18.999 27.0022,19.897 27.0022,21.003 L26.9942,26.001"/>
</svg>
