<svg xmlns="http://www.w3.org/2000/svg" width="48" height="48" viewBox="0 0 48 48">
  <path fill="none" stroke="#000" stroke-width="2" d="M17.7226,34.056 L8.2526,27.44 C7.3906,26.75 6.1326,26.886 5.4406,27.748 C4.7486,28.608 4.8866,29.868 5.7486,30.56 L17.5986,41 L25.4846,41 L27.5006,43 L42.4006,43 L32.3446,32.872 C30.0706,30.684 27.1766,29.056 24.2186,29 L20.0006,29 C16.0306,29 15.9366,35 20.0006,35 L24.0006,35 M11,18.9994 L43,18.9994 M29.4668,22.9994 L24.5328,22.9994 C23.6848,22.9994 23.0008,22.3134 23.0008,21.4674 L23.0008,16.5334 C23.0008,15.6874 23.6848,14.9994 24.5328,14.9994 L29.4668,14.9994 C30.3148,14.9994 31.0008,15.6874 31.0008,16.5334 L31.0008,21.4674 C31.0008,22.3134 30.3148,22.9994 29.4668,22.9994 Z M11,25.9994 L11,13.9994 C11,12.3434 12.342,10.9994 14,10.9994 L40,10.9994 C41.656,10.9994 43,12.3434 43,13.9994 L43,29.9994 C43,31.6574 41.656,32.9994 40,32.9994 L38.004,32.9994 M33,10.9994 L33,9.9994 C33,8.3434 31.656,6.9994 30,6.9994 L24,6.9994 C22.342,6.9994 21,8.3434 21,9.9994 L21,10.9994"/>
</svg>
