<svg xmlns="http://www.w3.org/2000/svg" width="48" height="48" viewBox="0 0 48 48">
  <path fill="none" stroke="#000" stroke-width="2" d="M17.7226,34.056 L8.2526,27.44 C7.3906,26.75 6.1326,26.886 5.4406,27.748 C4.7486,28.608 4.8866,29.868 5.7486,30.56 L17.5986,41 L25.4846,41 L27.5006,43 L42.4006,43 L32.3446,32.872 C30.0706,30.684 27.1766,29.056 24.2186,29 L20.0006,29 C16.0306,29 15.9366,35 20.0006,35 L24.0006,35 M31,18.9994 L37,18.9994 L33.858,12.9994 L31,12.9994 L31,18.9994 Z M12,24.9994 L23,24.9994 L23,8.9994 L4,8.9994 M27,8.9994 L27,24.9994038 L38,24.9994038 C42.91,25.0034 44,21.8654 42,18.5714 L37.372,11.1054 C35.762,8.5514 35.176,8.9934 31,8.9994 L27,8.9994 Z M23,20.9994 L27,20.9994 M27,22.9994 L23,22.9994 M4,4.9994 L32,4.9994"/>
</svg>
