<svg xmlns="http://www.w3.org/2000/svg" width="48" height="48" viewBox="0 0 48 48">
  <path fill="none" stroke="#000" stroke-width="2" d="M37,31.9994 C37,25.4594 33.704,19.4954 27.824,17.3934 M20.168,17.394 C16.182,18.832 13.386,22.046 12,25.992 M24,4.9994 C27.314,4.9994 30,8.1334 30,11.9994 C30,15.8654 27.314,18.9994 24,18.9994 C20.686,18.9994 18,15.8654 18,11.9994 C18,8.1334 20.686,4.9994 24,4.9994 Z M17.7226,34.056 L8.2526,27.44 C7.3906,26.75 6.1326,26.886 5.4406,27.748 C4.7486,28.608 4.8866,29.868 5.7486,30.56 L17.5986,41 L25.4846,41 L27.5006,43 L42.4006,43 L32.3446,32.872 C30.0706,30.684 27.1766,29.056 24.2186,29 L20.0006,29 C16.0306,29 15.9366,35 20.0006,35 L24.0006,35"/>
</svg>
