<svg xmlns="http://www.w3.org/2000/svg" width="48" height="48" viewBox="0 0 48 48">
  <path fill="none" stroke="#000" stroke-width="2" d="M43,29 L5,29 L7.056,20.558 C7.566,18.466 9.396,17 11.496,17 L36.504,17 C38.604,17 40.434,18.466 40.944,20.558 L43,29 Z M6,25 L11,25 L11,21 L6.95,21 M42,25 L37,25 L37,21 L41.05,21 M15,30 C15,30.552 14.552,31 14,31 C13.448,31 13,30.552 13,30 C13,29.448 13.448,29 14,29 C14.552,29 15,29.448 15,30 Z M9,30 C9,30.552 8.552,31 8,31 C7.448,31 7,30.552 7,30 C7,29.448 7.448,29 8,29 C8.552,29 9,29.448 9,30 Z M41,30 C41,30.552 40.552,31 40,31 C39.448,31 39,30.552 39,30 C39,29.448 39.448,29 40,29 C40.552,29 41,29.448 41,30 Z M35,30 C35,30.552 34.552,31 34,31 C33.448,31 33,30.552 33,30 C33,29.448 33.448,29 34,29 C34.552,29 35,29.448 35,30 Z M16,21 L32,21 M16,25 L32,25"/>
</svg>
