<svg xmlns="http://www.w3.org/2000/svg" width="48" height="48" viewBox="0 0 48 48">
  <path fill="none" stroke="#000" stroke-width="2" d="M29,30 C29,34.97 24.97,39 20,39 C15.03,39 11,34.97 11,30 C11,25.03 15.03,21 20,21 C24.97,21 29,25.03 29,30 Z M39,16 C39,18.762 36.762,21 34,21 C31.238,21 29,18.762 29,16 C29,13.238 31.238,11 34,11 C36.762,11 39,13.238 39,16 Z M21,14 C21,15.658 19.658,17 18,17 C16.342,17 15,15.658 15,14 C15,12.342 16.342,11 18,11 C19.658,11 21,12.342 21,14 Z M7.376,26.8906 L11.294,11.9846 L7.376,26.8906 Z M30.858,37.1506 L41.52,20.9526 L30.858,37.1506 Z M34,7.0006 C38.97,7.0006 43,11.0286 43,16.0006 C43,17.8286 42.456,19.5306 41.518,20.9506 M30.86,37.1506 C28.534,40.6746 24.538,43.0006 20,43.0006 C12.82,43.0006 7,37.1806 7,30.0006 C7,28.7786 7.168,27.5986 7.484,26.4826 M11.294,11.9846 C12.06,9.0726 14.834,7.0006 18,7.0006 M34,7.0006 L18,7.0006 L34,7.0006 Z M25,30 C25,32.762 22.762,35 20,35 C17.238,35 15,32.762 15,30 C15,27.238 17.238,25 20,25 C22.762,25 25,27.238 25,30 Z"/>
</svg>
