<svg xmlns="http://www.w3.org/2000/svg" width="48" height="48" viewBox="0 0 48 48">
  <path fill="none" stroke="#000" stroke-width="2" d="M41,23 C41,32.942 32.942,41 23,41 C13.058,41 5,32.942 5,23 C5,13.058 13.058,5 23,5 C32.942,5 41,13.058 41,23 Z M23,8 L23,12 M12.3936,12.3936 L15.2216,15.2216 M8,23 L12,23 M12.3936,33.6074 L15.2216,30.7774 M33.6074,33.6074 L30.7774,30.7774 M38,23 L34,23 M33.6074,12.3936 L30.7774,15.2216 M19,33 L27,33 L27,29 L19,29 L19,33 Z M25,23 C25,24.104 24.104,25 23,25 C21.896,25 21,24.104 21,23 C21,21.896 21.896,21 23,21 C24.104,21 25,21.896 25,23 Z M24.8458,22.2354 L35.0098,18.0254"/>
</svg>
