<svg xmlns="http://www.w3.org/2000/svg" width="48" height="48" viewBox="0 0 48 48">
  <g fill="none" fill-rule="evenodd">
    <polyline stroke="#000" stroke-width="2" points="6 21.999 24 9.999 42 21.999"/>
    <path fill="#000" d="M22.3614,23.6908 L22.3614,29.3508 L26.2574,29.3508 C27.4154,29.3508 28.2494,29.1468 28.7594,28.7348 C29.3894,28.2248 29.7034,27.4728 29.7034,26.4808 C29.7034,25.4768 29.3394,24.7308 28.6094,24.2368 C28.0814,23.8728 27.2214,23.6908 26.0254,23.6908 L22.3614,23.6908 Z M17.9994,19.9988 L26.0674,19.9988 C27.4254,19.9988 28.4934,20.0828 29.2734,20.2508 C30.0534,20.4208 30.7554,20.7188 31.3854,21.1488 C33.1274,22.3148 33.9954,24.0728 33.9954,26.4248 C33.9954,28.5108 33.2774,30.1508 31.8354,31.3468 C31.2274,31.8568 30.5294,32.2248 29.7434,32.4468 C28.9614,32.6708 27.9934,32.7828 26.8454,32.7828 L22.3614,32.7828 L22.3614,39.9868 L17.9994,39.9868 L17.9994,19.9988 Z"/>
  </g>
</svg>
