<svg xmlns="http://www.w3.org/2000/svg" width="48" height="48" viewBox="0 0 48 48">
  <path fill="none" stroke="#000" stroke-width="2" d="M15,28.9994 C17.208,28.9994 19,30.7914 19,32.9994 C19,35.2074 17.208,36.9994 15,36.9994 C12.792,36.9994 11,35.2074 11,32.9994 C11,30.7914 12.792,28.9994 15,28.9994 Z M33,10.9994 C35.208,10.9994 37,12.7914 37,14.9994 C37,17.2074 35.208,18.9994 33,18.9994 C30.792,18.9994 29,17.2074 29,14.9994 C29,12.7914 30.792,10.9994 33,10.9994 Z M5,43 L43,43 L43,5 L5,5 L5,43 Z M17.8282,30.1714 L30.1722,17.8274"/>
</svg>
