<svg xmlns="http://www.w3.org/2000/svg" width="48" height="48" viewBox="0 0 48 48">
  <path fill="none" stroke="#000" stroke-width="2" d="M36,21.0014 L30,21.0014 M33,24.0014 L33,18.0014 M15,25.0004 C12.286,26.0604 11,28.0004 11,31.0004 L23,31.0004 C23,28.0004 21.714,26.0504 19,25.0004 L15,25.0004 Z M8,10.0004 L38,40.0004 M15.3594,17.3598 C13.9714,17.9858 12.9994,19.3778 12.9994,20.9998 C12.9994,23.2098 14.7914,24.9998 16.9994,24.9998 C18.6234,24.9998 20.0134,24.0298 20.6414,22.6398 M16,13.0004 L37,13.0004 C39.208,13.0004 41,14.7904 41,17.0004 L41,31.0004 C41,32.9024 39.67,34.4864 37.892,34.8924 M11,13.0004 C8.792,13.0004 7,14.7904 7,17.0004 L7,31.0004 C7,33.2084 8.792,35.0004 11,35.0004 L33,35.0004"/>
</svg>
