<svg xmlns="http://www.w3.org/2000/svg" width="48" height="48" viewBox="0 0 48 48">
  <path fill="none" stroke="#000" stroke-width="2" d="M36,29.0014 L30,29.0014 M33,32.0014 L33,26.0014 M37,43.0014 L11,43.0014 C8.792,43.0014 7,41.2094 7,39.0014 L7,25.0014 C7,22.7914 8.792,21.0014 11,21.0014 L37,21.0014 C39.208,21.0014 41,22.7914 41,25.0014 L41,39.0014 C41,41.2094 39.208,43.0014 37,43.0014 Z M15,33.0014 C12.286,34.0614 11,36.0014 11,39.0014 L23,39.0014 C23,36.0014 21.714,34.0514 19,33.0014 L15,33.0014 Z M17,25.0014 C19.208,25.0014 21,26.7934 21,29.0014 C21,31.2094 19.208,33.0014 17,33.0014 C14.792,33.0014 13,31.2094 13,29.0014 C13,26.7934 14.792,25.0014 17,25.0014 Z M19.0498,17.0502 C20.3178,15.7842 22.0678,15.0002 23.9998,15.0002 C25.9318,15.0002 27.6838,15.7842 28.9498,17.0502 M16.2216,14.2222 C18.2136,12.2302 20.9636,11.0002 23.9996,11.0002 C27.0376,11.0002 29.7876,12.2302 31.7776,14.2222 M13.3936,11.393 C16.1076,8.679 19.8576,7.001 23.9996,7.001 C28.1436,7.001 31.8936,8.679 34.6076,11.393"/>
</svg>
