<svg xmlns="http://www.w3.org/2000/svg" width="48" height="48" viewBox="0 0 48 48">
  <path fill="none" stroke="#000" stroke-width="2" d="M9,42.9994 L20,42.9994 M13.6602,37.9994 L17.9902,35.4994 M10,34.3394 L12.5,30.0094 M5,32.9994 L5,27.9994 M41,39.5366 L35.5,30.0086 M43,32.9994 L43,27.9994 M34.3398,37.9994 L30.0098,35.4994 M33,42.9994 L28,42.9994 M29,18.9994 L40,18.9994 M23,15.5366 L17.5,6.0086 M23,22.4644 L17.5,31.9904 M33.6602,13.9994 L37.9902,11.4994 M30,10.3394 L32.5,6.0094 M25,8.9994 L25,3.9994 M16.3398,13.9994 L12.0098,11.4994 M15,18.9994 L10,18.9994 M16.3398,23.9994 L12.0098,26.4994 M25,28.9994 L25,33.9994 M30,27.6596 L32.5,31.9896 M33.6602,23.9994 L37.9902,26.4994 M35,18.9994 C35,24.5514 30.552,28.9994 25,28.9994 C19.448,28.9994 15,24.5514 15,18.9994 C15,13.4474 19.448,8.9994 25,8.9994 C30.552,8.9994 35,13.4474 35,18.9994 Z M29,18.9994 C29,21.2434 27.244,22.9994 25,22.9994 C22.756,22.9994 21,21.2434 21,18.9994 C21,16.7554 22.756,14.9994 25,14.9994 C27.244,14.9994 29,16.7554 29,18.9994 Z M44,33.0502 C43.996,33.0502 43.992,33.0482 43.988,33.0482 C43.664,33.0142 43.334,33.0002 43,33.0002 C37.448,33.0002 33,37.4462 33,43.0002 C33,43.3422 33.066,43.6662 33.1,44.0002 M44,39.1362 C43.68,39.0562 43.35,39.0002 43,39.0002 C40.756,39.0002 39,40.7562 39,43.0002 C39,43.3482 39.054,43.6782 39.136,44.0002 M14.9004,43.9994 C14.9344,43.6654 15.0004,43.3434 15.0004,42.9994 C15.0004,37.4474 10.5524,32.9994 5.0004,32.9994 C4.6564,32.9994 4.3344,33.0654 4.0004,33.0994 M8.8642,43.9994 C8.9442,43.6794 9.0002,43.3494 9.0002,42.9994 C9.0002,40.7554 7.2442,38.9994 5.0002,38.9994 C4.6522,38.9994 4.3202,39.0554 4.0002,39.1354"/>
</svg>
