<svg xmlns="http://www.w3.org/2000/svg" width="48" height="48" viewBox="0 0 48 48">
  <g fill="none" fill-rule="evenodd">
    <path stroke="#000" stroke-width="2" d="M11,43 L37,43 L37,5 L11,5 L11,43 Z M16,31 L32,31 M16,35 L32,35"/>
    <path fill="#000" d="M22.794,13.9994 L22.794,15.6834 L17.846,15.6834 L17.846,18.0614 L22.204,18.0614 L22.204,19.6654 L17.846,19.6654 L17.846,24.0234 L16,24.0234 L16,13.9994 L22.794,13.9994 Z M25.0308,14 L27.5348,21.508 L30.0508,14 L32.0148,14 L28.4288,24.024 L26.5908,24.024 L26.5168,23.824 L23.0088,14 L25.0308,14 Z"/>
  </g>
</svg>
