<svg xmlns="http://www.w3.org/2000/svg" width="48" height="48" viewBox="0 0 48 48">
  <path fill="none" stroke="#000" stroke-width="2" d="M32,34.9994 L36,42.9994 M12,42.9994 L16,34.9994 M36,38.9994 L12,38.9994 M38,42.9994 L10,42.9994 M28,11.0004 L32,11.0004 C34.762,11.0004 37,13.2384 37,16.0004 L37,35.0004 L11,35.0004 L11,16.0004 C11,13.2384 13.238,11.0004 16,11.0004 L20,11.0004 M31,29.9994 C31,29.4494 30.552,28.9994 30,28.9994 C29.448,28.9994 29,29.4494 29,29.9994 C29,30.5514 29.448,30.9994 30,30.9994 C30.552,30.9994 31,30.5514 31,29.9994 Z M19,29.9994 C19,29.4494 18.552,28.9994 18,28.9994 C17.448,28.9994 17,29.4494 17,29.9994 C17,30.5514 17.448,30.9994 18,30.9994 C18.552,30.9994 19,30.5514 19,29.9994 Z M22,26.0004 L28,17.0004 L20,17.0004 L28,6.0004"/>
</svg>
