<svg xmlns="http://www.w3.org/2000/svg" width="48" height="48" viewBox="0 0 48 48">
  <path fill="none" stroke="#000" stroke-width="2" d="M43,6.9994 L43,10.9994 C39.6,10.9994 37,13.5994 37,16.9994 C37,20.3994 39.6,22.9994 43,22.9994 L43,26.9994 L11,26.9994 L11,6.9994 L43,6.9994 Z M8,20.9994 L5,20.9994 L5,40.9994 L37,40.9994 L37,36.4494 C33.648,36.1914 31,33.4194 31,29.9994 M31,11.9994 L31,9.9994 M31,15.9994 L31,13.9994 M31,19.9994 L31,17.9994 M31,23.9994 L31,21.9994 M25,33.9994 L25,31.9994 M25,37.9994 L25,35.9994"/>
</svg>
