<svg xmlns="http://www.w3.org/2000/svg" width="48" height="48" viewBox="0 0 48 48">
  <g fill="none" fill-rule="evenodd">
    <path stroke="#000" stroke-width="2" d="M5,11 L31,11 L31,17 L31,23 L31,27 L31,29 L19,29 L17.5,29 L13,33.5 L13,29 L5,29 L5,11 Z M31,17 L41,17 L41,35 L35,35 L35,39.5 L30.5,35 L19,35 L19,29 M38,23 L31,23 M36,27 L31,27"/>
    <polygon fill="#000" points="19.6 16 22.8 19 19 19 19 16 17 16 17 19 13.2 19 16.4 16 14 16 10 20 14 24 16.4 24 13.2 21 17 21 17 24 19 24 19 21 22.8 21 19.6 24 22 24 26 20 22 16"/>
  </g>
</svg>
