<svg xmlns="http://www.w3.org/2000/svg" width="48" height="48" viewBox="0 0 48 48">
  <path fill="none" stroke="#000" stroke-width="2" d="M30,22 C30,25.882 27.35,29 24,29 C20.65,29 18,25.882 18,22 C18,18.118 20.65,15 24,15 C27.35,15 30,18.118 30,22 Z M20.1924,27.4296 C14.4984,29.9336 11.0004,36.0616 11.0004,42.9996 L37.0004,42.9996 C37.0004,36.8916 34.2304,30.2576 27.8504,27.3896 M27.209,11.7382 C27.817,9.2882 29.689,7.0002 32.001,7.0002 C34.827,7.0002 37.001,9.7142 37.001,12.9902 C37.001,15.9322 35.269,18.4382 32.865,18.9162 M14.955,18.879 C12.645,18.311 10.999,15.857 10.999,12.991 C10.999,9.713 13.173,7.001 15.999,7.001 C18.297,7.001 20.163,9.309 20.781,11.739 M32.7558,30.998 L43.0018,30.998 C43.0018,25.642 40.9058,20.024 35.3078,17.508 M12.7168,17.5362 C7.6748,19.7542 4.9588,24.9062 4.9588,31.0462 L15.2088,31.0462 M17,25 L14,25 C13.516,25 13,24.55 13,24 L13,20.012 C13,19.466 13.506,19 14,19 L17,19 L17,25 Z M24,25 L34,25 C34.586,25 35,24.642 35,24 L35,20 C35,19.436 34.69,19 34,19 L31,19 L31,25 M14.9296,19 C17.1056,8.336 31.2596,8.75 32.8796,19"/>
</svg>
