<svg xmlns="http://www.w3.org/2000/svg" width="48" height="48" viewBox="0 0 48 48">
  <path fill="none" stroke="#000" stroke-width="2" d="M24,16 C24,19.882 21.35,23 18,23 C14.65,23 12,19.882 12,16 C12,12.118 14.65,9 18,9 C21.35,9 24,12.118 24,16 Z M11,19 L8,19 C7.516,19 7,18.55 7,18 L7,14.012 C7,13.466 7.506,13 8,13 L11,13 L11,19 Z M18,19 L28,19 C28.586,19 29,18.642 29,18 L29,14 C29,13.436 28.69,13 28,13 L25,13 L25,19 M8.9736,12.876 C11.1496,2.212 25.2236,2.668 26.8416,12.918 M14.205,21.4414 C8.511,23.9454 4.999,30.0634 4.999,36.9994 L21.999,36.9994 M25.6484,24 C24.5424,22.988 23.2744,22.106 21.7944,21.442 M25,39 L43,39 L43,27 L25,27 L25,39 Z M35,39 L35,43 M33,43 L33,39 M28,43 L40,43"/>
</svg>
