<svg xmlns="http://www.w3.org/2000/svg" width="48" height="48" viewBox="0 0 48 48">
  <path fill="none" stroke="#000" stroke-width="2" d="M34,28.9994 C36.762,28.9994 39,31.2374 39,33.9994 C39,36.7614 36.762,38.9994 34,38.9994 C31.238,38.9994 29,36.7614 29,33.9994 C29,31.2374 31.238,28.9994 34,28.9994 Z M42,41.9994 L37.536,37.5354 M17.3554,21.5474 C11.3914,23.3814 6.9994,29.6054 6.9994,36.9994 L26.2934,36.9994 M31.4894,26.4054 C29.7014,24.0914 27.3334,22.3754 24.6474,21.5474 M20.9994,8.9994 C24.3134,8.9994 26.9994,12.1334 26.9994,15.9994 C26.9994,19.8654 24.3134,22.9994 20.9994,22.9994 C17.6854,22.9994 14.9994,19.8654 14.9994,15.9994 C14.9994,12.1334 17.6854,8.9994 20.9994,8.9994 Z"/>
</svg>
