<svg xmlns="http://www.w3.org/2000/svg" width="48" height="48" viewBox="0 0 48 48">
  <path fill="none" stroke="#000" stroke-width="2" d="M39,28 C39,36.286 32.286,43 24,43 C15.716,43 9,36.286 9,28 C9,19.716 15.716,13 24,13 C32.286,13 39,19.716 39,28 Z M39,4 L39,10 M35,28 C35,34.074 30.074,39 24,39 C17.924,39 13,34.074 13,28 C13,21.924 17.924,17 24,17 C30.074,17 35,21.924 35,28 Z M27,28 C27,29.656 25.658,31 24,31 C22.342,31 21,29.656 21,28 C21,26.344 22.342,25 24,25 C25.658,25 27,26.344 27,28 Z M9,4 L9,10 M34,7 L39,7 M16,7 L20,7 M22,7 L26,7 M28,7 L32,7 M9,7 L14,7"/>
</svg>
