<svg xmlns="http://www.w3.org/2000/svg" width="48" height="48" viewBox="0 0 48 48">
  <path fill="none" stroke="#000" stroke-width="2" d="M6,17 L18,17 M13,12 C13,9.238 15.238,7 18,7 C20.762,7 23,9.238 23,12 C23,14.762 20.762,17 18,17 M6,21 L28,21 M25,18 C25,16.342 26.344,15 28,15 C29.656,15 31,16.342 31,18 C31,19.658 29.656,21 28,21 M6,33 L18,33 M15,30 C15,28.344 16.342,27 18,27 C19.658,27 21,28.344 21,30 C21,31.656 19.658,33 18,33 M41,24 C41,22.342 39.656,21 38,21 C36.344,21 35,22.342 35,24 L35,41 L41,41 L41,24 Z M37,21.1728 L37,19.0008 L39,19.0008 L39,21.1728"/>
</svg>
