<svg xmlns="http://www.w3.org/2000/svg" width="36" height="36" viewBox="0 0 36 36"><path fill="none" stroke="#000" d="M9,18 L9,18 M24,3.75 L1.5,26.25 M15,8.25 L12.75,0 L9,0 L10.5,12 L4.5,12 L3,9 L0,9 L2.25,14.25 L0,19.5 L3,19.5 L4.5,16.5 L7.5,16.5 M27,21 L20.25,21 L20.25,15 L24.9,15 M15.75,25.5 C15.75,27.156 17.094,28.5 18.75,28.5 C20.406,28.5 21.75,27.156 21.75,25.5 M10.5,21 L17.25,21 L17.25,14.25 M10.5,25.5 L25.734,25.5 C26.847,25.5 27.75,24.585 27.75,23.454 C27.75,23.13 27.6675,22.8255 27.5355,22.5525 L24.708,14.643 C24.1395,12.969 22.8795,11.6355 21.2805,10.9695 M28.5,28.5 L10.5,28.5" transform="translate(4.5 3.75)"/></svg>