<svg xmlns="http://www.w3.org/2000/svg" width="36" height="36" viewBox="0 0 36 36"><g fill="none" fill-rule="evenodd" transform="translate(3 3.75)"><path stroke="#000" d="M24.75,25.5 L24.75,26.25 C24.75,27.492 23.742,28.5 22.5,28.5 C21.258,28.5 20.25,27.492 20.25,26.25 L20.25,25.5 M26.25,25.5 L3.75,25.5 L3.75,24 L3.75,22.5 L26.25,22.5 L26.25,25.5 Z M0.75,26.25 L0.75,21.75 M0.75,24.00015 L3.75,24.00015 M29.25,21.75 L29.25,26.25 M29.25,24 L26.25,24 M9.75,25.5 L9.75,26.25 C9.75,27.492 8.742,28.5 7.5,28.5 C6.258,28.5 5.25,27.492 5.25,26.25 L5.25,25.5 M6.75,4.5 L23.25,4.5 L26.25,19.5 L3.75,19.5 L6.75,4.5 Z M17.25,2.25 C17.25,3.492 16.242,4.5 15,4.5 C13.758,4.5 12.75,3.492 12.75,2.25 C12.75,1.008 13.758,0 15,0 C16.242,0 17.25,1.008 17.25,2.25 Z"/><path fill="#000" d="M18.39915,8.24955 C19.33815,8.24955 20.10465,8.55405 20.69415,9.16005 C21.13515,9.61755 21.38865,10.15605 21.45315,10.77555 L19.94115,10.77555 C19.86165,10.39155 19.68765,10.09005 19.41615,9.87555 C19.14165,9.65955 18.79665,9.55155 18.37965,9.55155 C17.74665,9.55155 17.25765,9.79605 16.91115,10.28655 C16.60815,10.71405 16.45515,11.29155 16.45515,12.01905 C16.45515,12.73005 16.59765,13.29555 16.88115,13.71255 C17.23065,14.22405 17.74665,14.48055 18.42915,14.48055 C18.92115,14.48055 19.32465,14.33205 19.63965,14.03505 C19.95615,13.73955 20.11965,13.34955 20.13765,12.86655 L18.54615,12.86655 L18.54615,11.72055 L21.55215,11.72055 L21.55215,15.57855 L20.55315,15.57855 L20.39715,14.75955 C19.86765,15.42105 19.15515,15.74955 18.25665,15.74955 C17.16465,15.74955 16.30065,15.34605 15.66765,14.53605 C15.14265,13.85955 14.87865,13.02555 14.87865,12.03405 C14.87865,10.90755 15.22215,9.98505 15.90765,9.26805 C16.54965,8.58855 17.38065,8.24955 18.39915,8.24955 Z M9.9252,8.421 L9.9252,11.3835 L12.7302,8.421 L14.7072,8.421 L11.9022,11.25 L14.9727,15.5775 L13.0002,15.5775 L10.8252,12.3675 L9.9252,13.2675 L9.9252,15.5775 L8.3622,15.5775 L8.3622,8.421 L9.9252,8.421 Z"/></g></svg>