<svg xmlns="http://www.w3.org/2000/svg" width="36" height="36" viewBox="0 0 36 36"><path fill="none" stroke="#000" d="M6,27 C6,27.828 5.328,28.5 4.5,28.5 C3.672,28.5 3,27.828 3,27 C3,26.172 3.672,25.5 4.5,25.5 C5.328,25.5 6,26.172 6,27 Z M16.5,27 C16.5,27.828 15.828,28.5 15,28.5 C14.172,28.5 13.5,27.828 13.5,27 C13.5,26.172 14.172,25.5 15,25.5 C15.828,25.5 16.5,26.172 16.5,27 Z M13.5,27 L6,27 M0,22.5 L18,22.5 C18.828,22.5 19.5,23.172 19.5,24 L19.5,27 L16.5,27 M9,18 L9,22.5 M16.5,22.5 L12.4395,18.4395 C12.1575,18.1575 11.7765,18 11.379,18 L3.8025,18 C3.3015,18 2.8335,18.2505 2.5545,18.6675 L0.252,22.122 C0.087,22.368 0,22.6575 0,22.9545 L0,27 L3,27 M25.5,18 C25.5,18.828 24.828,19.5 24,19.5 C23.172,19.5 22.5,18.828 22.5,18 C22.5,17.172 23.172,16.5 24,16.5 C24.828,16.5 25.5,17.172 25.5,18 Z M22.5,18 L15.75,18 M9,13.5 L27,13.5 C27.828,13.5 28.5,14.172 28.5,15 L28.5,18 L25.5,18 M18,9 L18,13.5 M25.5,13.5 L21.4395,9.4395 C21.1575,9.1575 20.7765,9 20.379,9 L12.8025,9 C12.3015,9 11.8335,9.2505 11.5545,9.6675 L9.252,13.122 C9.087,13.368 9,13.6575 9,13.9545 L9,15.75 M6,9 C6,9.828 5.328,10.5 4.5,10.5 C3.672,10.5 3,9.828 3,9 C3,8.172 3.672,7.5 4.5,7.5 C5.328,7.5 6,8.172 6,9 Z M8.25,9 L6,9 M0,4.5 L18,4.5 C18.828,4.5 19.5,5.172 19.5,6 L19.5,6.75 M9,0 L9,4.5 M16.5,4.5 L12.4395,0.4395 C12.1575,0.1575 11.7765,0 11.379,0 L3.8025,0 C3.3015,0 2.8335,0.2505 2.5545,0.6675 L0.252,4.122 C0.087,4.368 0,4.6575 0,4.9545 L0,9 L3,9" transform="translate(3.75 3.75)"/></svg>