<?xml version="1.0" encoding="UTF-8"?>
<svg width="30px" height="16px" viewBox="0 0 30 16" version="1.1" xmlns="http://www.w3.org/2000/svg" xmlns:xlink="http://www.w3.org/1999/xlink">
    <title>FPL/Attribut/sa-ar</title>
    <g id="FPL/Attribut/sa-ar" stroke="none" stroke-width="1" fill="none" fill-rule="evenodd">
        <path d="M9.46192,1.00004372 L12.56249,1.00004372 L15.10303,14.9624437 L12.30274,14.9624437 L11.82227,11.7622437 L5.88135,11.7622437 L4.10059,14.9624437 L1,14.9624437 L9.46192,1.00004372 Z M7.12158,9.56104372 L11.44238,9.56104372 L10.56201,3.48048372 L10.48242,3.48048372 L7.12158,9.56104372 Z" id="Shape" fill="#000000" fill-rule="nonzero"></path>
        <path d="M19.62158,1.00002184 L22.92237,1.00002184 C25.50244,1.00002184 28.48291,0.960043719 28.48291,4.30082372 C28.48291,6.70121372 26.68311,7.98148372 24.40283,8.02152372 L24.40283,8.06152372 C25.1231045,8.08921397 25.7206419,8.62777746 25.82276,9.34131372 L27.16358,14.9624437 L24.22217,14.9624437 L23.54249,11.6821737 C23.22218,10.2017037 23.30226,9.16166372 21.78175,9.16166372 L20.72217,9.16166372 L19.50149,14.9624437 L16.7002,14.9624437 L19.62158,1.00002184 Z M21.22217,6.96098372 L22.2417,6.96098372 C23.7427,6.96098372 25.56299,6.50098372 25.56299,4.66068372 C25.56299,3.20023372 24.30225,3.20023372 23.1626,3.20023372 L22.00249,3.20023372 L21.22217,6.96098372 Z" id="Shape" fill="#000000" fill-rule="nonzero"></path>
    </g>
</svg>