<svg xmlns="http://www.w3.org/2000/svg" width="16" height="16" version="1.1" viewBox="0 0 16 16">
  <path fill="#000" fill-rule="evenodd" stroke="none" stroke-width="1" d="M4.4721,11.0702 C5.5851,11.0702 6.4901,11.9522 6.4901,13.0352 C6.4901,14.1192 5.5851,15.0002 4.4721,15.0002 C3.3601,15.0002 2.4551,14.1192 2.4551,13.0352 C2.4551,11.9522 3.3601,11.0702 4.4721,11.0702 Z M8.8373,11.0702 C9.9493,11.0702 10.8553,11.9522 10.8553,13.0352 C10.8553,14.1192 9.9493,15.0002 8.8373,15.0002 C7.7253,15.0002 6.8193,14.1192 6.8193,13.0352 C6.8193,11.9522 7.7253,11.0702 8.8373,11.0702 Z M4.4721,11.6382 C3.6811,11.6382 3.0381,12.2642 3.0381,13.0352 C3.0381,13.8062 3.6811,14.4322 4.4721,14.4322 C5.2641,14.4322 5.9081,13.8062 5.9081,13.0352 C5.9081,12.2642 5.2641,11.6382 4.4721,11.6382 Z M8.8373,11.6382 C8.0463,11.6382 7.4023,12.2642 7.4023,13.0352 C7.4023,13.8062 8.0463,14.4322 8.8373,14.4322 C9.6283,14.4322 10.2723,13.8062 10.2723,13.0352 C10.2723,12.2642 9.6283,11.6382 8.8373,11.6382 Z M12.467,6.7061 C12.292,8.2971 11.63,9.7471 10.627,10.9081 L10.627,10.9081 L2.839,10.9081 C1.836,9.7471 1.175,8.2971 1,6.7061 L1,6.7061 Z M14.6362,5.251 C14.7632,5.251 14.8662,5.352 14.8662,5.476 C14.8662,5.598 14.7632,5.7 14.6362,5.7 L14.6362,5.7 L11.1842,5.7 L11.1842,5.251 Z M3.858,0.9997 L6.269,5.0677 C6.427,5.3347 6.297,5.5527 5.981,5.5527 L5.981,5.5527 L1,5.5527 C1.1,3.6057 2.224,1.9207 3.858,0.9997 L3.858,0.9997 Z"/>
</svg>
