<svg xmlns="http://www.w3.org/2000/svg" width="24" height="16" viewBox="0 0 24 16"><path fill="none" stroke="#000" d="M6.5,12.5 C6.5,13.605 5.605,14.5 4.5,14.5 C3.395,14.5 2.5,13.605 2.5,12.5 C2.5,11.395 3.395,10.5 4.5,10.5 C5.605,10.5 6.5,11.395 6.5,12.5 Z M21.5,12.5 C21.5,13.605 20.605,14.5 19.5,14.5 C18.395,14.5 17.5,13.605 17.5,12.5 C17.5,11.395 18.395,10.5 19.5,10.5 C20.605,10.5 21.5,11.395 21.5,12.5 Z M19.49,7.5 C18.262,4.86 14.936,2.519 12.024,2.51398571 C7.882,2.506 4.518,5.858 4.51,10 L4.5,10.5 M19.5,3.01 L19.49,7.5 L15,7.5"/></svg>