<svg xmlns="http://www.w3.org/2000/svg" width="27" height="16" viewBox="0 0 27 16">
  <path fill-rule="evenodd" d="M3.9009 12.7998L5.2009 12.7998C9.2419 12.7998 11.0829 10.4398 11.0829 6.5988 11.0829 4.4188 9.3819 3.2378 6.8609 3.2378L5.9009 3.2378 3.9009 12.7998zM3.5609 1.0378L7.7619 1.0378C10.6819 1.0378 14.0039 2.1578 14.0039 6.9988 14.0039 10.2388 12.3629 14.9998 5.3209 14.9998L.6199 14.9998 3.5609 1.0378zM24.8428 3.7183C24.0228 3.2983 22.9618 2.9983 21.9428 2.9983 20.9418 2.9983 19.6018 3.3983 19.6018 4.5983 19.6018 6.8393 24.3628 6.6983 24.3628 10.5793 24.3628 14.0003 21.6818 15.2403 18.6208 15.2403 17.2808 15.2403 15.9008 14.9203 14.6408 14.4603L15.3608 12.0803C16.4408 12.5803 17.5808 13.0403 18.7808 13.0403 20.1218 13.0403 21.4428 12.3593 21.4428 10.8593 21.4428 8.3393 16.6808 8.7393 16.6808 5.0183 16.6808 2.0773 19.2008.7973 21.8818.7973 23.1028.7973 24.3628.9573 25.5028 1.4173L24.8428 3.7183z" transform="translate(1)"/>
</svg>
