<svg xmlns="http://www.w3.org/2000/svg" width="23" height="16" version="1.1" viewBox="0 0 23 16">
  <g fill="none" fill-rule="evenodd" stroke="none" stroke-width="1">
    <polygon fill="#000" points="4.219 1.019 11.921 1.019 11.441 3.219 6.56 3.219 5.82 6.661 10.481 6.661 10.04 8.861 5.36 8.861 4.079 14.982 1.279 14.982"/>
    <path fill="#000" d="M21.0605,3.6992 C20.2405,3.2792 19.1805,2.9782 18.1605,2.9782 C17.1605,2.9782 15.8205,3.3792 15.8205,4.5792 C15.8205,6.8202 20.5805,6.6792 20.5805,10.5602 C20.5805,13.9812 17.9005,15.2212 14.8395,15.2212 C13.4995,15.2212 12.1195,14.9012 10.8585,14.4412 L11.5795,12.0602 C12.6595,12.5602 13.7995,13.0212 14.9995,13.0212 C16.3395,13.0212 17.6605,12.3412 17.6605,10.8412 C17.6605,8.3202 12.8985,8.7202 12.8985,5.0002 C12.8985,2.0582 15.4195,0.7782 18.0995,0.7782 C19.3205,0.7782 20.5805,0.9382 21.7205,1.3982 L21.0605,3.6992 Z"/>
  </g>
</svg>
