<svg xmlns="http://www.w3.org/2000/svg" width="31" height="16" viewBox="0 0 31 16">
  <g fill-rule="evenodd" transform="translate(2)">
    <path d="M12.8228,3.998 C11.7428,3.298 10.4028,2.998 8.9418,2.998 C5.5418,2.998 3.4008,5.659 3.4008,8.959 C3.4008,11.22 4.9618,13.04 7.3418,13.04 C7.9818,13.04 8.4018,13.04 8.7218,12.899 L9.5028,9.199 L6.5418,9.199 L7.0018,6.998 L12.6628,6.998 L11.0628,14.62 C10.2418,14.96 8.6818,15.24 7.3218,15.24 C3.2208,15.24 0.4808,13.36 0.4808,9.039 C0.4808,3.938 3.8208,0.797 8.8628,0.797 C10.4228,0.797 12.0628,1.018 13.5238,1.578 L12.8228,3.998 Z"/>
    <polygon points="18.981 1.038 21.002 5.839 21.042 5.839 24.882 1.038 28.183 1.038 22.402 7.699 25.642 15 22.582 15 20.442 9.4 20.402 9.4 16.041 15 12.559 15 19.021 7.419 15.96 1.038"/>
  </g>
</svg>
