<svg xmlns="http://www.w3.org/2000/svg" width="31" height="16" version="1.1" viewBox="0 0 31 16">
  <path fill="#1D1D1B" fill-rule="evenodd" stroke="none" stroke-width="1" d="M2.891,8.001 L28.11,8.001 L28.11,3.546 L2.891,3.546 L2.891,8.001 Z M1,11.182 L30,11.182 L30,1 L1,1 L1,11.182 Z M21.173,15 L26.217,15 C27.262,15 28.109,14.145 28.109,13.09 L19.282,13.09 C19.282,14.145 20.13,15 21.173,15 L21.173,15 Z M2.891,13.09 L11.718,13.09 C11.718,14.145 10.87,15 9.825,15 L4.781,15 C3.738,15 2.891,14.145 2.891,13.09 L2.891,13.09 Z"/>
</svg>
