<svg xmlns="http://www.w3.org/2000/svg" width="26" height="16" version="1.1" viewBox="0 0 26 16">
  <path fill="#000" fill-rule="evenodd" stroke="none" stroke-width="1" d="M25,1 L25,15 L1,15 L1,1 L25,1 Z M23.728,2.296 L2.273,2.296 L2.273,13.709 L23.728,13.709 L23.728,2.296 Z M13,3.5 L18.786,4.885 L18.7861,4.9283 L19.0322048,4.92884657 L19.3820461,4.93568495 C20.9501783,4.99241038 21.8571,5.54484477 21.8571,7.0363 C21.8571,8.82760192 20.5339718,10.930744 18.9457651,11.0645666 L18.7861,11.0713 L18.786,11.808 L13,12.5 L7.214,11.808 L7.213,11.071 L7.05473492,11.0645666 C5.4665282,10.930744 4.1434,8.82760192 4.1434,7.0363 C4.1434,5.54484477 5.05032173,4.99241038 6.61845388,4.93568495 L6.96829521,4.92884657 L7.213,4.928 L7.214,4.885 L13,3.5 Z M19.0210609,5.92880584 L18.7861,5.9283 L18.7861,10.0713 C19.7776742,10.0713 20.8571,8.40266924 20.8571,7.0363 C20.8571,6.27024531 20.4904976,6.00437774 19.5229293,5.94367405 L19.2452452,5.9319327 L19.0210609,5.92880584 Z M7.213,5.928 L6.75525482,5.9319327 L6.65460412,5.93503132 C5.55440059,5.97482995 5.1434,6.22518326 5.1434,7.0363 C5.1434,8.35011658 6.14138984,9.94339092 7.09966413,10.064007 L7.213,10.071 L7.213,5.928 Z M17.5,9 L8.5,9 L8.5,10 L17.5,10 L17.5,9 Z M17.5,6.5 L8.5,6.5 L8.5,7.5 L17.5,7.5 L17.5,6.5 Z"/>
</svg>
