<svg xmlns="http://www.w3.org/2000/svg" width="30" height="16" viewBox="0 0 30 16">
  <path fill-rule="evenodd" d="M3.3008 9.5986C3.3008 11.4196 4.2208 13.0396 6.2418 13.0396 9.4428 13.0396 11.2228 9.1996 11.2228 6.4186 11.2228 4.5576 10.2618 2.9976 8.2418 2.9976 4.9818 2.9976 3.3008 6.7786 3.3008 9.5986M14.1438 6.7186C14.1438 8.9986 13.3038 11.2196 11.8028 12.8996 10.3428 14.5206 8.2218 15.2406 5.8818 15.2406 2.4408 15.2406.3808 12.7596.3808 9.4396.3808 7.2186 1.1608 5.0586 2.5808 3.3976 4.1008 1.6576 6.0418.7976 8.3218.7976 12.1028.7976 14.1438 2.9976 14.1438 6.7186M19.4014 6.6787L20.5024 6.6787C21.9224 6.6787 23.4634 6.2787 23.4634 4.6377 23.4634 3.2977 22.1824 3.2377 21.1224 3.2377L20.1414 3.2377 19.4014 6.6787zM18.1214 12.7997L19.0814 12.7997C20.8014 12.7997 22.7224 12.5997 22.7224 10.4397 22.7224 8.9787 21.3624 8.7597 19.8614 8.7597L18.9624 8.7597 18.1214 12.7997zM17.9014 1.0377L22.0424 1.0377C24.2224 1.0377 26.2624 1.8377 26.2624 4.3787 26.2624 6.0787 24.9024 7.4387 23.2824 7.6987L23.2824 7.7387C24.8424 7.9787 25.5224 9.1787 25.5224 10.6797 25.5224 14.6797 21.0424 14.9997 18.9624 14.9997L14.9804 14.9997 17.9014 1.0377z" transform="translate(2)"/>
</svg>
