<svg xmlns="http://www.w3.org/2000/svg" width="28" height="16" viewBox="0 0 28 16">
  <g fill-rule="evenodd" transform="translate(1 1)">
    <path d="M4.8208,6.499 L5.8208,6.499 C7.3618,6.499 8.9418,5.699 8.9418,3.958 C8.9418,2.538 7.8018,2.238 6.6018,2.238 L5.7208,2.238 L4.8208,6.499 Z M3.2208,14 L0.4198,14 L3.3808,0.038 L5.7408,0.038 C8.3218,0.038 11.8628,0.178 11.8628,3.658 C11.8628,7.039 9.0818,8.699 5.9618,8.699 L4.3408,8.699 L3.2208,14 Z"/>
    <polygon points="14.661 .038 17.462 .038 16.281 5.679 21.923 5.679 23.103 .038 25.903 .038 22.983 14 20.182 14 21.463 7.88 15.821 7.88 14.541 14 11.74 14"/>
  </g>
</svg>
