<svg xmlns="http://www.w3.org/2000/svg" width="28" height="16" viewBox="0 0 28 16"><path fill-rule="evenodd" d="M5.7891 7.48 6.7891 7.48C8.3301 7.48 9.9101 6.68 9.9101 4.939 9.9101 3.519 8.7701 3.219 7.5701 3.219L6.6891 3.219 5.7891 7.48ZM4.1891 14.981 1.3881 14.981 4.3491 1.019 6.7091 1.019C9.2901 1.019 12.8311 1.159 12.8311 4.639 12.8311 8.02 10.0501 9.681 6.9301 9.681L5.3091 9.681 4.1891 14.981ZM25.9116 3.979C24.8316 3.279 23.4916 2.979 22.0306 2.979 18.6306 2.979 16.4896 5.64 16.4896 8.94 16.4896 11.201 18.0506 13.021 20.4306 13.021 21.0706 13.021 21.4906 13.021 21.8106 12.881L22.5916 9.181 19.6306 9.181 20.0906 6.979 25.7516 6.979 24.1516 14.602C23.3316 14.941 21.7706 15.222 20.4106 15.222 16.3096 15.222 13.5686 13.342 13.5686 9.021 13.5686 3.919 16.9096.778 21.9506.778 23.5116.778 25.1516.999 26.6116 1.559L25.9116 3.979Z"/></svg>