<svg xmlns="http://www.w3.org/2000/svg" width="14" height="16" version="1.1" viewBox="0 0 14 16">
  <path fill="#1D1D1B" fill-rule="evenodd" stroke="none" stroke-width="1" d="M5.42192634,13.7830015 C3.68096144,13.7830015 2.26266644,12.4180032 2.26266644,10.7380054 C2.26266644,9.06000747 3.68096144,7.69600919 5.42192634,7.69600919 L5.42192634,6.47801072 C2.98374546,6.47801072 1,8.38900831 1,10.7380054 C1,13.0880024 2.98374546,15 5.42192634,15 C7.85906969,15 9.84281515,13.0880024 9.84281515,10.7380054 L8.58014871,10.7380054 C8.58014871,12.4180032 7.16185371,13.7830015 5.42192634,13.7830015 L5.42192634,13.7830015 Z M9.21200069,8.30400842 L9.21200069,4.65101302 L6.05274079,4.65101302 L6.05274079,10.1300061 L11.736296,10.1300061 L11.736296,13.7830015 L13,13.7830015 L13,8.30400842 L9.21200069,8.30400842 Z M6.05272252,2.52701569 C6.0485907,1.68701674 6.75203182,1.00201761 7.62562684,1 C8.49610929,0.996017613 9.2078506,1.67401676 9.21201891,2.5150157 C9.21615079,3.35501465 8.51063462,4.03801379 7.63911465,4.04203139 C6.76655715,4.04601378 6.05689089,3.36801463 6.05272252,2.52701569 L6.05272252,2.52701569 Z"/>
</svg>
