<svg xmlns="http://www.w3.org/2000/svg" width="25" height="16" viewBox="0 0 25 16"><g fill-rule="evenodd" transform="translate(1 1)"><path d="M0,14 L22.905,14 L22.905,0 L0,0 L0,14 Z M1.264,12.727 L21.641,12.727 L21.641,1.273 L1.264,1.273 L1.264,12.727 Z"/><path d="M2.271 3.836C3.129 3.836 3.71 3.395 3.71 2.499 3.71 1.489 3.18 1.237 2.271 1.237L1.615 1.237 1.615 3.836 2.271 3.836ZM8.8817842e-16 0 2.751 0C4.316 0 5.375.707 5.375 2.322 5.375 3.47 4.656 4.24 3.672 4.391L3.672 4.429C4 4.48 4.366 4.631 4.644 5.451L5.792 8.808 4.075 8.808 3.205 5.943C2.991 5.25 2.574 5.022 1.981 5.022L1.615 5.022 1.615 8.808 8.8817842e-16 8.808 8.8817842e-16 0ZM10.4506 4.9973C10.4506 3.8493 10.0716 3.2683 9.3646 3.2683 8.5446 3.2683 8.2046 4.1393 8.2046 4.9973L10.4506 4.9973ZM11.6366 8.4923C11.3086 8.6313 10.6276 8.9093 9.6936 8.9093 7.5986 8.9093 6.6896 7.4063 6.6896 5.6523 6.6896 3.7103 7.7126 2.2083 9.3646 2.2083 10.7666 2.2083 11.9646 3.0283 11.9646 5.6783L11.9646 5.9813 8.2046 5.9813C8.2046 7.0913 8.6456 7.7613 9.8576 7.7613 10.8166 7.7613 11.2706 7.4703 11.5606 7.2553L11.6366 8.4923ZM13.0009 7.2938C13.2539 7.3938 13.8969 7.7218 14.6289 7.7218 15.1969 7.7218 15.6389 7.5828 15.6389 7.0788 15.6389 6.8268 15.5129 6.5868 14.9439 6.2588L14.3009 5.8798C13.6449 5.4888 12.9259 5.0728 12.9259 4.0508 12.9259 3.1548 13.7959 2.2078 15.1719 2.2078 16.0049 2.2078 16.6479 2.4228 16.7999 2.4738L16.7109 3.6848C16.3199 3.5338 15.9029 3.3948 15.3359 3.3948 14.7049 3.3948 14.4399 3.6348 14.4399 4.0258 14.4399 4.3788 14.7179 4.5688 15.1719 4.8588L15.9409 5.3508C16.7489 5.8678 17.1529 6.2338 17.1529 6.9908 17.1529 8.1888 16.1439 8.9088 14.7299 8.9088 13.9219 8.9088 13.2539 8.7188 12.9259 8.5938L13.0009 7.2938Z" transform="translate(3 2.546)"/></g></svg>