<svg xmlns="http://www.w3.org/2000/svg" width="20" height="16" version="1.1" viewBox="0 0 20 16">
  <path fill="#1D1D1B" fill-rule="evenodd" stroke="none" stroke-width="1" d="M3.8076,4.7397 C4.8456,4.7397 5.6856,3.9017 5.6856,2.8707 C5.6856,1.8377 4.8456,0.9997 3.8076,0.9997 C2.7686,0.9997 1.9296,1.8377 1.9296,2.8707 C1.9296,3.9017 2.7686,4.7397 3.8076,4.7397 L3.8076,4.7397 Z M14.5876,6.2387 L11.2266,8.5677 L6.6746,4.0377 L4.5616,6.1417 L9.7446,11.2977 L9.7656,11.2817 L9.7696,11.2857 L14.4256,8.0597 L18.0026,11.6177 L18.9996,10.6257 L14.5876,6.2387 Z M14.2626,9.9057 L17.0286,12.6567 L16.0326,13.6487 L14.1016,11.7267 L9.4046,14.9997 L0.9996,6.6377 L1.9966,5.6467 L9.5636,13.1767 L14.2626,9.9057 Z"/>
</svg>
