<svg xmlns="http://www.w3.org/2000/svg" width="24" height="16" version="1.1" viewBox="0 0 24 16">
  <path fill="#212121" fill-rule="evenodd" stroke="none" stroke-width="1" d="M13.5377239,9.555 C13.5377239,10.701 12.6242107,11.631 11.4985266,11.631 C10.3757893,11.631 9.46325834,10.701 9.46325834,9.555 C9.46325834,8.409 10.3757893,7.48 11.4985266,7.48 C12.6242107,7.48 13.5377239,8.409 13.5377239,9.555 L13.5377239,9.555 Z M11.4985266,13.444 C10.4583002,13.444 9.48683287,13.028 8.76093363,12.267 C8.03405211,11.507 7.65293045,10.505 7.68239862,9.444 C7.73544132,7.417 9.40039291,5.724 11.3885121,5.667 C12.4356144,5.637 13.4159222,6.029 14.1634314,6.768 C14.9089761,7.504 15.3205482,8.496 15.3205482,9.555 L16.8469994,9.555 C16.8469994,8.071 16.2723701,6.687 15.2291969,5.652 C14.1830769,4.617 12.8059311,4.077 11.3482389,4.114 C8.56251462,4.192 6.23060012,6.563 6.15300061,9.399 C6.12353244,10.499 6.41133823,11.555 6.97418027,12.46 C4.17961551,11.081 2.99990645,8.657 2.66004023,7.803 C3.31816268,6.662 6.06164928,2.554 11.4985266,2.554 C16.9334394,2.554 19.676926,6.653 20.3379952,7.8 C19.8458768,9 17.6112073,13.444 11.4985266,13.444 L11.4985266,13.444 Z M21.8614996,7.392 C21.7338042,7.133 18.64554,1 11.4985266,1 C4.35445998,1 1.26717807,7.133 1.13948267,7.392 L1,7.676 L1.0923336,7.975 C1.11590813,8.044 3.36531175,15 11.4985266,15 C19.6356705,15 21.8840919,8.044 21.9057019,7.975 L22,7.676 L21.8614996,7.392 Z"/>
</svg>
