<svg xmlns="http://www.w3.org/2000/svg" width="30" height="16" version="1.1" viewBox="0 0 30 16">
  <g fill="none" fill-rule="evenodd" stroke="none" stroke-width="1">
    <path fill="#000" d="M5.8931,1 L4.4731,7.621 C4.0131,9.581 3.2721,13.002 6.3731,13.002 C9.2541,13.002 9.7941,10.382 10.2941,8.081 L11.8151,1 L14.5761,1 L12.7151,9.441 C11.9141,13.022 10.2341,15.203 6.3531,15.203 C1.7921,15.203 0.6721,12.563 1.4921,8.581 L3.0931,1 L5.8931,1 Z"/>
    <polygon fill="#000" points="20.452 1 19.272 6.48 19.312 6.48 24.853 1 28.755 1 21.693 7.361 26.194 14.963 22.853 14.963 18.973 7.861 17.452 14.963 14.652 14.963 17.652 1"/>
  </g>
</svg>
