<svg xmlns="http://www.w3.org/2000/svg" width="36" height="16" version="1.1" viewBox="0 0 36 16">
  <path fill="#000" fill-rule="evenodd" stroke="none" stroke-width="1" d="M10.6123 7.3555C10.8993 7.3555 11.1713 7.4085 11.4333 7.4845L9.6943 9.9985 10.3183 10.9095 13.6033 10.9095C13.3603 12.3435 12.1163 13.4425 10.6123 13.4425 8.9343 13.4425 7.5673 12.0785 7.5673 10.4005 7.5673 8.7205 8.9343 7.3555 10.6123 7.3555L10.6123 7.3555zM14.2503 5.9215L16.1293 9.4925 14.9793 9.4925C14.7753 8.5075 14.2443 7.6435 13.5083 7.0145L14.2503 5.9215zM21.0333 5.2475L17.6773 9.3935 15.4913 5.2415 21.0333 5.2475zM12.7063 8.1995C13.0753 8.5525 13.3463 8.9975 13.5033 9.4925L11.8343 9.4925 12.7063 8.1995zM25.2463 7.2605C26.9803 7.2605 28.3863 8.6675 28.3863 10.4005 28.3863 12.1305 26.9803 13.5405 25.2463 13.5405 23.5153 13.5405 22.1093 12.1305 22.1093 10.4005 22.1093 9.4635 22.5263 8.6335 23.1773 8.0575L24.7623 11.0715 26.0153 10.4125 24.4223 7.3835C24.6873 7.3105 24.9593 7.2605 25.2463 7.2605L25.2463 7.2605zM10.6123 14.8605C12.9013 14.8605 14.7893 13.1295 15.0413 10.9095L18.2813 10.9095 22.1513 6.1085 22.4783 6.7315C21.3683 7.5705 20.6473 8.8985 20.6473 10.4005 20.6473 12.9395 22.7083 15.0005 25.2463 15.0005 27.7883 15.0005 29.8483 12.9395 29.8483 10.4005 29.8483 7.8585 27.7883 5.8005 25.2463 5.8005 24.7133 5.8005 24.2033 5.8965 23.7253 6.0635L21.0633 1.0005 17.8283 1.0005 17.8283 2.4145 20.2083 2.4145 20.9523 3.8325 14.7503 3.8325 14.3753 3.1195 15.7063 3.1255 15.7063 1.7075 10.7743 1.7215 10.7743 3.1105 12.7733 3.1165 13.5003 4.4985 12.2783 6.2655C11.7633 6.0585 11.2023 5.9405 10.6123 5.9405 8.1483 5.9405 6.1523 7.9375 6.1523 10.4005 6.1523 12.8615 8.1483 14.8605 10.6123 14.8605L10.6123 14.8605zM3.3047 14.3496C2.9547 13.8166 2.6647 13.3456 2.4347 12.9346 2.2027 12.5236 1.9067 11.9106 1.5447 11.0936 1.1817 10.2766.9997 9.2646.9997 8.0546.9997 6.9326 1.1987 5.8956 1.5907 4.9536 1.9837 4.0106 2.5547 2.9526 3.3037 1.7786L4.5757 1.7786C4.1647 2.5036 3.8487 3.0906 3.6317 3.5376 3.4137 3.9846 3.1537 4.5986 2.8507 5.3786 2.5507 6.1586 2.3987 7.0576 2.3987 8.0736 2.3987 9.1126 2.5647 10.0556 2.8977 10.8936 3.2297 11.7366 3.4877 12.3436 3.6687 12.7186 3.8487 13.0926 4.1527 13.6376 4.5757 14.3506L3.3047 14.3506 3.3047 14.3496zM32.6943 1.7778C33.3823 2.8538 33.9403 3.8698 34.3633 4.8258 34.7863 5.7808 35.0003 6.8578 35.0003 8.0548 35.0003 9.2038 34.8273 10.1878 34.4823 11.0028 34.1373 11.8198 33.8673 12.4028 33.6743 12.7548 33.4813 13.1058 33.1533 13.6388 32.6943 14.3518L31.4253 14.3518C31.8823 13.5068 32.2053 12.8998 32.3853 12.5388 32.5683 12.1748 32.8123 11.5888 33.1223 10.7778 33.4283 9.9688 33.5843 9.0558 33.5843 8.0398 33.5843 7.4948 33.5303 6.9508 33.4213 6.4078 33.3103 5.8638 33.1463 5.3218 32.9303 4.7838 32.7133 4.2458 32.5093 3.7858 32.3243 3.4048 32.1343 3.0248 31.8383 2.4848 31.4253 1.7818L32.6943 1.7818 32.6943 1.7778z"/>
</svg>
