<svg xmlns="http://www.w3.org/2000/svg" width="25" height="16" version="1.1" viewBox="0 0 25 16">
  <g fill="none" fill-rule="evenodd" stroke="none" stroke-width="1">
    <polygon fill="#000" points="1 1 3.8 1 5.101 11.861 5.141 11.861 10.942 1 13.982 1 6.181 14.963 2.84 14.963"/>
    <path fill="#000" d="M17.04,6.6406 L18.141,6.6406 C19.561,6.6406 21.102,6.2406 21.102,4.5996 C21.102,3.2596 19.821,3.1996 18.761,3.1996 L17.78,3.1996 L17.04,6.6406 Z M15.76,12.7616 L16.721,12.7616 C18.44,12.7616 20.361,12.5626 20.361,10.4026 C20.361,8.9416 19.001,8.7206 17.501,8.7206 L16.601,8.7206 L15.76,12.7616 Z M15.54,0.9996 L19.681,0.9996 C21.861,0.9996 23.902,1.8006 23.902,4.3396 C23.902,6.0406 22.542,7.4006 20.921,7.6606 L20.921,7.7016 C22.481,7.9416 23.162,9.1406 23.162,10.6426 C23.162,14.6426 18.681,14.9626 16.601,14.9626 L12.619,14.9626 L15.54,0.9996 Z"/>
  </g>
</svg>
