<svg xmlns="http://www.w3.org/2000/svg" width="25" height="16" version="1.1" viewBox="0 0 25 16">
  <path fill="#000" fill-rule="evenodd" stroke="none" stroke-width="1" d="M1.3691,1.0186 L4.1691,1.0186 L5.4701,11.8806 L5.5101,11.8806 L11.3111,1.0186 L14.3511,1.0186 L6.5501,14.9816 L3.2091,14.9816 L1.3691,1.0186 Z M22.9707,3.6992 C22.1507,3.2782 21.0897,2.9792 20.0707,2.9792 C19.0707,2.9792 17.7297,3.3792 17.7297,4.5792 C17.7297,6.8192 22.4907,6.6792 22.4907,10.5602 C22.4907,13.9812 19.8107,15.2212 16.7487,15.2212 C15.4087,15.2212 14.0287,14.9012 12.7687,14.4412 L13.4887,12.0602 C14.5687,12.5602 15.7087,13.0212 16.9087,13.0212 C18.2497,13.0212 19.5707,12.3412 19.5707,10.8412 C19.5707,8.3202 14.8087,8.7202 14.8087,4.9992 C14.8087,2.0582 17.3297,0.7782 20.0097,0.7782 C21.2307,0.7782 22.4907,0.9382 23.6307,1.3982 L22.9707,3.6992 Z"/>
</svg>
