<svg xmlns="http://www.w3.org/2000/svg" width="29" height="16" viewBox="0 0 29 16">
  <g fill="none" fill-rule="evenodd">
    <polygon fill="#000" points="3.141 1.038 5.941 1.038 7.242 11.9 7.282 11.9 13.083 1.038 16.124 1.038 8.322 15 4.981 15"/>
    <path fill="#000" d="M27.123,3.8179 C26.483,3.3779 25.423,2.9979 23.923,2.9979 C20.821,2.9979 18.642,5.3389 18.642,8.6189 C18.642,10.9589 20.161,13.0399 22.622,13.0399 C23.803,13.0399 24.763,12.6599 25.562,12.1799 L25.123,14.8599 C24.102,15.1409 23.022,15.2399 21.962,15.2399 C17.741,15.2399 15.721,12.3999 15.721,8.6189 C15.721,4.1179 18.781,0.7969 23.723,0.7969 C25.123,0.7969 26.602,0.9779 27.823,1.4779 L27.123,3.8179 Z"/>
  </g>
</svg>
