<svg xmlns="http://www.w3.org/2000/svg" width="26" height="16" version="1.1" viewBox="0 0 26 16">
  <path fill="#1D1D1B" fill-rule="evenodd" stroke="none" stroke-width="1" d="M5.6113,7.3555 C5.8993,7.3555 6.1703,7.4085 6.4333,7.4845 L4.6943,9.9985 L5.3183,10.9095 L8.6033,10.9095 C8.3603,12.3435 7.1153,13.4425 5.6113,13.4425 C3.9333,13.4425 2.5663,12.0785 2.5663,10.4005 C2.5663,8.7205 3.9333,7.3555 5.6113,7.3555 L5.6113,7.3555 Z M9.2493,5.9215 L11.1283,9.4925 L9.9783,9.4925 C9.7743,8.5075 9.2433,7.6435 8.5073,7.0145 L9.2493,5.9215 Z M16.0323,5.2475 L12.6763,9.3935 L10.4903,5.2415 L16.0323,5.2475 Z M7.7053,8.1995 C8.0753,8.5525 8.3453,8.9975 8.5033,9.4925 L6.8333,9.4925 L7.7053,8.1995 Z M20.2463,7.2605 C21.9793,7.2605 23.3853,8.6675 23.3853,10.4005 C23.3853,12.1305 21.9793,13.5405 20.2463,13.5405 C18.5153,13.5405 17.1093,12.1305 17.1093,10.4005 C17.1093,9.4635 17.5253,8.6335 18.1763,8.0575 L19.7623,11.0715 L21.0143,10.4125 L19.4213,7.3835 C19.6863,7.3105 19.9583,7.2605 20.2463,7.2605 L20.2463,7.2605 Z M5.6113,14.8605 C7.9013,14.8605 9.7893,13.1295 10.0403,10.9095 L13.2813,10.9095 L17.1503,6.1085 L17.4773,6.7315 C16.3683,7.5705 15.6463,8.8985 15.6463,10.4005 C15.6463,12.9395 17.7073,15.0005 20.2463,15.0005 C22.7883,15.0005 24.8483,12.9395 24.8483,10.4005 C24.8483,7.8585 22.7883,5.8005 20.2463,5.8005 C19.7123,5.8005 19.2033,5.8965 18.7243,6.0635 L16.0633,1.0005 L12.8283,1.0005 L12.8283,2.4145 L15.2083,2.4145 L15.9513,3.8325 L9.7503,3.8325 L9.3753,3.1195 L10.7063,3.1255 L10.7063,1.7075 L5.7733,1.7215 L5.7733,3.1105 L7.7723,3.1165 L8.5003,4.4985 L7.2783,6.2655 C6.7633,6.0585 6.2013,5.9405 5.6113,5.9405 C3.1483,5.9405 1.1513,7.9375 1.1513,10.4005 C1.1513,12.8615 3.1483,14.8605 5.6113,14.8605 L5.6113,14.8605 Z"/>
</svg>
