<svg xmlns="http://www.w3.org/2000/svg" width="26" height="16" version="1.1" viewBox="0 0 26 16">
  <path fill="#1D1D1B" fill-rule="evenodd" stroke="none" stroke-width="1" d="M3.7783,11.5449 C3.7113,11.2899 3.6723,11.0239 3.6723,10.7469 C3.6723,9.0229 5.0743,7.4909 6.7973,7.4909 C7.1403,7.4909 7.4703,7.5549 7.7803,7.6649 L6.0973,10.1249 L8.0293,8.9429 L8.5903,8.1019 C8.7093,8.1909 8.8183,8.2919 8.9243,8.3939 L9.9483,7.7679 C9.7303,7.5369 9.4913,7.3249 9.2283,7.1439 L10.1673,5.7349 L10.9023,7.1829 L11.7213,6.6819 L11.1273,5.5119 L13.6303,5.5119 L15.0413,4.6499 L10.6883,4.6499 L10.2503,3.7879 L11.5673,3.7879 L11.5673,2.9259 L7.2553,2.9259 L7.2553,3.7879 L9.1793,3.7879 L9.7133,4.8399 L8.4343,6.7069 C7.9333,6.4959 7.3893,6.3749 6.8223,6.3749 C4.5013,6.3749 2.5103,8.3669 2.5103,10.6879 C2.5103,11.1969 2.6123,11.6909 2.7863,12.1509 L3.7783,11.5449 Z M23.7243,10.7469 C23.7243,9.0229 22.3223,7.4909 20.5973,7.4909 C20.2423,7.4909 19.9003,7.5589 19.5803,7.6789 L21.3243,10.9209 L20.3603,11.4289 L18.6753,8.2069 C17.9443,8.8149 17.4703,9.7469 17.4703,10.7469 C17.4703,12.4699 18.8733,13.8739 20.5973,13.8739 C22.3223,13.8739 23.7243,12.4699 23.7243,10.7469 L23.7243,10.7469 Z M24.9353,10.6879 C24.9353,13.0089 22.9443,14.9999 20.6233,14.9999 C18.2993,14.9999 16.3103,13.0089 16.3103,10.6879 C16.3103,9.2749 17.0483,7.9909 18.1463,7.1969 L17.8243,6.5789 L14.1123,11.5509 L11.0423,11.5509 C10.6253,13.4809 8.8513,14.9999 6.8223,14.9999 C5.7703,14.9999 4.7863,14.5869 4.0253,13.9239 L5.0193,13.3159 C5.5233,13.6669 6.1373,13.8739 6.7973,13.8739 C8.2433,13.8739 9.4853,12.8849 9.8423,11.5509 L7.8993,11.5509 L9.3073,10.6879 L9.9223,10.6879 C9.9203,10.5669 9.9083,10.4459 9.8923,10.3299 L11.0013,9.6499 C11.0883,9.9839 11.1343,10.3319 11.1343,10.6879 L12.6813,10.6879 L11.8823,9.1109 L12.7013,8.6089 L13.6753,10.5219 L17.1543,5.8829 L18.2533,5.2119 L19.0503,6.6909 C19.5413,6.4899 20.0723,6.3749 20.6233,6.3749 C22.9443,6.3749 24.9353,8.3669 24.9353,10.6879 L24.9353,10.6879 Z M16.3833,3.8269 L17.2293,3.3089 L16.5593,2.0629 L14.1533,2.0629 L14.1533,2.9259 L15.9143,2.9259 L16.3833,3.8269 Z M22.5023,2.1049 L1.7373,14.8159 L1.0643,13.7119 L21.8263,0.9999 L22.5023,2.1049 Z"/>
</svg>
