<svg xmlns="http://www.w3.org/2000/svg" width="21" height="16" version="1.1" viewBox="0 0 21 16">
  <path fill="#000" fill-rule="evenodd" stroke="none" stroke-width="1" d="M12.0356,7.4496 C12.3376,9.1736 11.1886,10.8186 9.4666,11.1226 C7.8406,11.4106 6.2856,10.3986 5.8626,8.8316 L0.9996,8.8316 L0.9996,7.1666 L5.8616,7.1666 C6.1736,6.0206 7.1206,5.0976 8.3666,4.8766 C10.0886,4.5736 11.7316,5.7246 12.0356,7.4496 Z M17.761,5.7072 L20,7.9502 L17.761,10.1922 L17.761,8.7822 L12.5,8.7822 L12.5,7.1172 L17.761,7.1172 L17.761,5.7072 Z M8.6416,6.4386 C7.7806,6.5906 7.2056,7.4126 7.3576,8.2756 C7.5096,9.1376 8.3306,9.7136 9.1916,9.5616 C10.0526,9.4096 10.6276,8.5866 10.4756,7.7246 C10.3236,6.8626 9.5026,6.2866 8.6416,6.4386 Z"/>
</svg>
