<svg xmlns="http://www.w3.org/2000/svg" width="34" height="16" viewBox="0 0 34 16">
  <g fill="none" fill-rule="evenodd">
    <polygon fill="#000" points="3.141 1.038 5.941 1.038 6.362 11.74 6.402 11.74 11.042 1.038 14.803 1.038 14.863 11.74 14.903 11.74 19.845 1.038 22.745 1.038 16.084 15 12.583 15 12.443 3.838 12.403 3.838 7.482 15 4.021 15"/>
    <path fill="#000" d="M25.8408,6.6787 L26.9418,6.6787 C28.3618,6.6787 29.9028,6.2787 29.9028,4.6377 C29.9028,3.2977 28.6218,3.2377 27.5618,3.2377 L26.5808,3.2377 L25.8408,6.6787 Z M24.5608,12.7997 L25.5208,12.7997 C27.2408,12.7997 29.1618,12.5997 29.1618,10.4397 C29.1618,8.9787 27.8018,8.7597 26.3008,8.7597 L25.4018,8.7597 L24.5608,12.7997 Z M24.3408,1.0377 L28.4818,1.0377 C30.6618,1.0377 32.7018,1.8377 32.7018,4.3787 C32.7018,6.0787 31.3418,7.4387 29.7218,7.6987 L29.7218,7.7387 C31.2818,7.9787 31.9618,9.1787 31.9618,10.6797 C31.9618,14.6797 27.4818,14.9997 25.4018,14.9997 L21.4198,14.9997 L24.3408,1.0377 Z"/>
  </g>
</svg>
