<svg xmlns="http://www.w3.org/2000/svg" width="27" height="16" viewBox="0 0 27 16">
  <g fill="none" fill-rule="evenodd">
    <polygon fill="#000" points="7.421 1.038 6.241 6.519 6.281 6.519 11.822 1.038 15.723 1.038 8.661 7.399 13.162 15 9.821 15 5.941 7.899 4.421 15 1.62 15 4.62 1.038"/>
    <path fill="#000" d="M19.1816,6.6787 L20.2816,6.6787 C21.7026,6.6787 23.2426,6.2787 23.2426,4.6377 C23.2426,3.2977 21.9616,3.2377 20.9016,3.2377 L19.9216,3.2377 L19.1816,6.6787 Z M17.9016,12.7997 L18.8616,12.7997 C20.5816,12.7997 22.5016,12.5997 22.5016,10.4397 C22.5016,8.9787 21.1416,8.7597 19.6416,8.7597 L18.7416,8.7597 L17.9016,12.7997 Z M17.6806,1.0377 L21.8226,1.0377 C24.0016,1.0377 26.0426,1.8377 26.0426,4.3787 C26.0426,6.0787 24.6826,7.4387 23.0626,7.6987 L23.0626,7.7387 C24.6216,7.9787 25.3026,9.1787 25.3026,10.6797 C25.3026,14.6797 20.8216,14.9997 18.7416,14.9997 L14.7596,14.9997 L17.6806,1.0377 Z"/>
  </g>
</svg>
