<svg xmlns="http://www.w3.org/2000/svg" width="21" height="16" viewBox="0 0 21 16">
  <path d="M11.9540542,9.8646818 L13.3587875,11.2715879 C13.6940583,11.6073773 14.4592042,11.9247716 14.9333333,11.9247716 L14.9333333,11.9247716 L17.76085,11.9247716 L17.76085,10.514694 L20,12.7573073 L17.7607708,15 L17.7607708,13.5899224 L14.9332542,13.5899224 C14.0148417,13.5899224 12.8325667,13.0994399 12.1831625,12.4490313 L12.1831625,12.4490313 L10.7784292,11.0421252 C11.2567542,10.747804 11.6602667,10.3437466 11.9540542,9.8646818 L11.9540542,9.8646818 Z M8.36685417,4.87707922 C10.0889667,4.57300545 11.7310417,5.72460058 12.034725,7.44929744 C12.3383292,9.1739943 11.1885125,10.8186884 9.46647917,11.1228415 C7.84015833,11.4100267 6.28572083,10.3985354 5.8621,8.83249608 L5.8621,8.83249608 L1,8.83249608 L1,7.16742463 L5.8613875,7.16742463 C6.17377917,6.0202697 7.1201375,5.09726509 8.36685417,4.87707922 Z M10.4756167,7.72458925 C10.3238542,6.86224082 9.5027375,6.28644326 8.64172083,6.43851979 C7.78070417,6.59059631 7.20579583,7.41290374 7.3576375,8.27525217 C7.5094,9.13767989 8.33051667,9.71347745 9.19153333,9.56140093 C10.05255,9.4093244 10.6275375,8.58701697 10.4756167,7.72458925 Z M17.76085,1 L20,3.24261337 L17.76085,5.48522674 L17.76085,4.07514909 L14.9333333,4.07514909 C14.4592042,4.07514909 13.6939792,4.39254342 13.3587875,4.72833283 L13.3587875,4.72833283 L11.9540542,6.13523892 C11.6602667,5.65625336 11.2567542,5.25211674 10.7785083,4.95787483 L10.7785083,4.95787483 L12.1832417,3.55096874 C12.8326458,2.90056012 14.0149208,2.41007765 14.9333333,2.41007765 L14.9333333,2.41007765 L17.76085,2.41007765 L17.76085,1 Z"/>
</svg>
