<svg xmlns="http://www.w3.org/2000/svg" width="26" height="16" viewBox="0 0 26 16">
  <path fill-rule="evenodd" d="M4.8408 5.6787L5.9418 5.6787C7.3618 5.6787 8.9018 5.2787 8.9018 3.6377 8.9018 2.2977 7.6218 2.2377 6.5618 2.2377L5.5808 2.2377 4.8408 5.6787zM3.5608 11.7997L4.5208 11.7997C6.2408 11.7997 8.1618 11.5997 8.1618 9.4397 8.1618 7.9787 6.8008 7.7597 5.3008 7.7597L4.4008 7.7597 3.5608 11.7997zM3.3408.0377L7.4818.0377C9.6618.0377 11.7028.8377 11.7028 3.3787 11.7028 5.0787 10.3418 6.4387 8.7218 6.6987L8.7218 6.7387C10.2818 6.9787 10.9628 8.1787 10.9628 9.6797 10.9628 13.6797 6.4818 13.9997 4.4008 13.9997L.4198 13.9997 3.3408.0377zM17.0615 5.6787L18.1615 5.6787C19.5825 5.6787 21.1225 5.2787 21.1225 3.6377 21.1225 2.2977 19.8415 2.2377 18.7815 2.2377L17.8015 2.2377 17.0615 5.6787zM15.7815 11.7997L16.7415 11.7997C18.4615 11.7997 20.3815 11.5997 20.3815 9.4397 20.3815 7.9787 19.0215 7.7597 17.5215 7.7597L16.6215 7.7597 15.7815 11.7997zM15.5605.0377L19.7025.0377C21.8815.0377 23.9225.8377 23.9225 3.3787 23.9225 5.0787 22.5625 6.4387 20.9425 6.6987L20.9425 6.7387C22.5015 6.9787 23.1825 8.1787 23.1825 9.6797 23.1825 13.6797 18.7015 13.9997 16.6215 13.9997L12.6395 13.9997 15.5605.0377z" transform="translate(1 1)"/>
</svg>
