<svg xmlns="http://www.w3.org/2000/svg" width="48" height="48" viewBox="0 0 48 48">
  <path fill="none" stroke="#000" stroke-width="2" d="M18.17,20.1694 C17.386,21.2934 17,22.5254 17,24.0014 C17,27.8674 20.134,30.9994 24,30.9994 C25.45,30.9994 26.716,30.5914 27.83,29.8294 M30.7636,25.7134 C30.9016,25.1614 30.9996,24.5934 30.9996,24.0014 C30.9996,20.1334 27.8656,17.0014 23.9996,17.0014 C23.4056,17.0014 22.8376,17.0974 22.2876,17.2354 M8,10.0004 L38,40.0004 M35.3144,30.1792 C38.1464,27.7912 40.1764,25.1732 41.0004,24.0012 C39.5124,21.8012 32.5004,13.0012 24.0004,13.0012 C22.2784,13.0012 20.6324,13.3632 19.0784,13.9452 M14.4454,16.4458 C10.6894,19.1178 7.9874,22.5958 6.9994,23.9998 C8.4874,26.1998 15.4994,34.9998 23.9994,34.9998 C26.5454,34.9998 28.9314,34.2238 31.0774,33.0778"/>
</svg>
