<svg xmlns="http://www.w3.org/2000/svg" width="48" height="48" version="1.1" viewBox="0 0 48 48">
  <path fill="#000" fill-rule="evenodd" stroke="none" stroke-width="1" d="M22.028,37.96 L26.058,37.96 L26.058,34.082 L22.028,34.082 L22.028,37.96 Z M15.668,19.086 C15.754,16.772 16.208,14.982 17.03,13.714 C17.788,12.544 18.794,11.644 20.052,11.008 C21.306,10.374 22.718,10.058 24.286,10.058 C26.81,10.058 28.818,10.772 30.31,12.202 C31.704,13.52 32.4,15.256 32.4,17.406 C32.4,19.184 31.928,20.714 30.982,21.994 C30.558,22.58 29.544,23.654 27.942,25.222 C27.232,25.906 26.738,26.476 26.458,26.928 C26.18,27.382 25.982,27.944 25.872,28.616 C25.746,29.286 25.684,30.158 25.684,31.228 L22.514,31.228 C22.538,29.326 22.706,27.914 23.016,26.994 C23.242,26.322 23.56,25.72 23.978,25.184 C24.394,24.65 25.318,23.648 26.748,22.182 C27.668,21.236 28.272,20.386 28.556,19.626 C28.792,18.98 28.912,18.32 28.912,17.648 C28.912,16.406 28.57,15.36 27.886,14.516 C27.064,13.484 25.852,12.968 24.248,12.968 C20.928,12.968 19.138,15.006 18.876,19.086 L15.668,19.086 Z"/>
</svg>
