<svg xmlns="http://www.w3.org/2000/svg" width="24" height="24" viewBox="0 0 24 24"><path fill="none" stroke="#000" d="M4.2742,1.6192 L5.5152,2.3942 L7.1172,2.3942 L7.6852,0.1942 M19,9.5 C19,14.747 14.747,19 9.5,19 C4.253,19 0,14.747 0,9.5 C0,4.253 4.253,0 9.5,0 C14.747,0 19,4.253 19,9.5 Z M13.4381,18.1377 L13.0231,15.1657 C13.0081,15.0587 12.9581,14.9587 12.8811,14.8817 L11.0001,12.9997 L10.2551,12.2547 C10.1031,12.1027 9.8701,12.0647 9.6781,12.1607 L8.7231,12.6387 C8.3911,12.8047 8.0001,12.5627 8.0001,12.1907 L8.0001,11.4997 C8.0001,11.2237 7.7761,10.9997 7.5001,10.9997 L4.0001,10.9997 L2.2981,10.9997 C2.1141,10.9997 1.9451,11.1007 1.8581,11.2627 L0.7791,13.2647 M14.6617,1.5314 L13.4187,2.3404 C13.1887,2.4904 12.8687,2.7954 12.7077,3.0184 L12.1497,3.7924 C12.0557,3.9224 11.9047,4.0004 11.7437,4.0004 L9.2067,4.0004 C9.0747,4.0004 8.9477,4.0524 8.8537,4.1464 L7.0487,5.9514 C7.0167,5.9834 6.9797,6.0114 6.9407,6.0334 L5.0357,7.1064 C4.6497,7.3234 4.7167,7.8984 5.1417,8.0214 L6.8817,8.5284 C6.9597,8.5514 7.0417,8.5544 7.1207,8.5384 L10.8917,7.7814 C10.9627,7.7674 11.0367,7.7684 11.1067,7.7854 L11.5137,7.8834 C11.7817,7.9474 11.9997,8.2254 11.9997,8.5004 L11.9997,10.7874 C11.9997,10.9234 12.0557,11.0534 12.1537,11.1474 L16.7817,15.5974" transform="translate(2.5 2.5)"/></svg>