<svg xmlns="http://www.w3.org/2000/svg" width="24" height="24" viewBox="0 0 24 24"><path fill="none" stroke="#000" d="M3.5,13.9999 L6.5,9.4999 L10.5,12.4999 L16.5,6.4999 L20.5,13.9999 M7.4999,5.4999 C7.4999,6.6039 6.6069,7.4999 5.4999,7.4999 C4.3929,7.4999 3.4999,6.6039 3.4999,5.4999 C3.4999,4.3959 4.3929,3.4999 5.4999,3.4999 C6.6069,3.4999 7.4999,4.3959 7.4999,5.4999 Z M22,21.5 C19.502,21.5 19.502,19.5 17.005,19.5 C14.505,19.5 14.505,21.5 12.006,21.5 C9.504,21.5 9.504,19.5 7.003,19.5 C4.501,19.5 4.501,21.5 2,21.5 M22,17.5 C19.502,17.5 19.502,15.5 17.005,15.5 C14.505,15.5 14.505,17.5 12.006,17.5 C9.504,17.5 9.504,15.5 7.003,15.5 C4.501,15.5 4.501,17.5 2,17.5"/></svg>