<svg xmlns="http://www.w3.org/2000/svg" width="24" height="24" viewBox="0 0 24 24"><path fill="none" stroke="#000" d="M9.5,0 C14.747,0 19,4.253 19,9.5 C19,14.747 14.747,19 9.5,19 C4.253,19 0,14.747 0,9.5 C0,4.253 4.253,0 9.5,0 Z M9.5,3.5 L9.5,6.5 M15.8532,8.11 L13.0002,9.037 M13.4234,15.5871 L11.6604,13.1601 M5.58,15.5871 L7.343,13.1601 M3.15,8.11 L6.003,9.037 M13.3918,0.8313 L9.4998,3.5003 L5.6078,0.8313 M18.9475,10.4957 L15.8395,8.1057 L17.1075,3.8107 M12.3699,18.5578 L13.4209,15.5988 L16.8609,15.5048 M2.1399,15.5049 L5.5769,15.5989 L6.6289,18.5579 M1.886,3.8199 L3.151,8.1059 L0.052,10.4889 M9.5,6.5 L6,9.043 L7.337,13.158 L11.663,13.158 L13,9.043 L9.5,6.5 Z" transform="translate(2.5 2.5)"/></svg>