<svg xmlns="http://www.w3.org/2000/svg" width="24" height="24" viewBox="0 0 24 24"><path fill="none" stroke="#000" d="M5.5,4.5 C6.052,4.5 6.5,4.948 6.5,5.5 C6.5,6.052 6.052,6.5 5.5,6.5 C4.948,6.5 4.5,6.052 4.5,5.5 C4.5,4.948 4.948,4.5 5.5,4.5 Z M18.5,8.5 C19.052,8.5 19.5,8.948 19.5,9.5 C19.5,10.052 19.052,10.5 18.5,10.5 C17.947,10.5 17.5,10.052 17.5,9.5 C17.5,8.948 17.947,8.5 18.5,8.5 Z M8.5,15.4997 L6.5,8.4997 L4.5,8.4997 L2.5,15.4997 L8.5,15.4997 Z M13.4995,5.5002 C13.4995,6.0522 13.0515,6.5002 12.4995,6.5002 C11.9475,6.5002 11.4995,6.0522 11.4995,5.5002 C11.4995,4.9472 11.9475,4.5002 12.4995,4.5002 C13.0515,4.5002 13.4995,4.9472 13.4995,5.5002 Z M14.4995,13.4997 L14.4995,8.4997 L10.4995,8.4997 L10.4995,13.4997 L11.4995,13.4997 L11.4995,19.4997 L13.4995,19.4997 L13.4995,13.4997 L14.4995,13.4997 Z M20.4995,16.4997 L20.4995,12.4997 L16.4995,12.4997 L16.4995,16.4997 L17.4995,16.4997 L17.4995,19.4997 L19.4995,19.4997 L19.4995,16.4997 L20.4995,16.4997 Z M4.5,15.5 L4.5,19.5 L6.5,19.5 L6.5,15.5"/></svg>