<svg xmlns="http://www.w3.org/2000/svg" width="48" height="48" viewBox="0 0 48 48"><path fill="none" stroke="#000" d="M2,16.5 L20.5,16.5 L9.5,45 M37.5,45 L26.5,16.5 L45,16.5 M23.5,32 L23.5,37 M23.5,24 L23.5,29 M23.5,16 L23.5,21 M27.5,6.5144 C27.5,4.3054 25.709,2.5144 23.5,2.5144 C21.291,2.5144 19.5,4.3054 19.5,6.5144 C19.527,7.2004 19.73,7.7774 20.057,8.3224 L23.5,13.5004 L26.966,8.3224 C27.288,7.7574 27.494,7.1694 27.5,6.5144 Z M25.5,6.5 C25.5,7.605 24.605,8.5 23.5,8.5 C22.395,8.5 21.5,7.605 21.5,6.5 C21.5,5.395 22.395,4.5 23.5,4.5 C24.605,4.5 25.5,5.395 25.5,6.5 Z M23.5,40 L23.5,45"/></svg>