<svg xmlns="http://www.w3.org/2000/svg" width="24" height="24" viewBox="0 0 24 24"><path fill="none" stroke="#000" d="M8.8615,17.0283 L4.1255,13.7203 C3.6955,13.3743 3.0655,13.4433 2.7205,13.8743 C2.3745,14.3053 2.4435,14.9343 2.8745,15.2803 L8.8005,20.5003 L12.7425,20.5003 L13.7505,21.5003 L21.2005,21.5003 L16.1715,16.4363 C15.0355,15.3423 13.5885,14.5283 12.1095,14.5003 L10.0005,14.5003 C8.0155,14.5003 7.9685,17.5003 10.0005,17.5003 L12.0005,17.5003 M3.5,6.25 L12,2.5 L20.5,6.25 L12,9.5 L3.5,6.25 Z M6.5,7.3971 L6.5,10.7551 C6.5,10.7551 8.279,12.5001 12.25,12.5001 C16.245,12.5001 17.5,10.7551 17.5,10.7551 L17.5,7.3971 M20.5,6.25 L20.5,11 M20.5,11 L19.5,13 M20.5,11 L21.5,13"/></svg>