<svg xmlns="http://www.w3.org/2000/svg" width="36" height="36" viewBox="0 0 36 36"><path fill="none" stroke="#000" stroke-width="1.5" d="M5.25,20.99985 L9.75,14.24985 L15.75,18.74985 L24.75,9.74985 L30.75,20.99985 M11.24985,8.24985 C11.24985,9.90585 9.91035,11.24985 8.24985,11.24985 C6.58935,11.24985 5.24985,9.90585 5.24985,8.24985 C5.24985,6.59385 6.58935,5.24985 8.24985,5.24985 C9.91035,5.24985 11.24985,6.59385 11.24985,8.24985 Z M33,32.25 C29.253,32.25 29.253,29.25 25.5075,29.25 C21.7575,29.25 21.7575,32.25 18.009,32.25 C14.256,32.25 14.256,29.25 10.5045,29.25 C6.7515,29.25 6.7515,32.25 3,32.25 M33,26.25 C29.253,26.25 29.253,23.25 25.5075,23.25 C21.7575,23.25 21.7575,26.25 18.009,26.25 C14.256,26.25 14.256,23.25 10.5045,23.25 C6.7515,23.25 6.7515,26.25 3,26.25"/></svg>