<svg xmlns="http://www.w3.org/2000/svg" width="36" height="36" viewBox="0 0 36 36"><path fill="none" stroke="#000" stroke-width="1.5" d="M8.25,6.75 C9.078,6.75 9.75,7.422 9.75,8.25 C9.75,9.078 9.078,9.75 8.25,9.75 C7.422,9.75 6.75,9.078 6.75,8.25 C6.75,7.422 7.422,6.75 8.25,6.75 Z M27.75,12.75 C28.578,12.75 29.25,13.422 29.25,14.25 C29.25,15.078 28.578,15.75 27.75,15.75 C26.9205,15.75 26.25,15.078 26.25,14.25 C26.25,13.422 26.9205,12.75 27.75,12.75 Z M12.75,23.24955 L9.75,12.74955 L6.75,12.74955 L3.75,23.24955 L12.75,23.24955 Z M20.24925,8.2503 C20.24925,9.0783 19.57725,9.7503 18.74925,9.7503 C17.92125,9.7503 17.24925,9.0783 17.24925,8.2503 C17.24925,7.4208 17.92125,6.7503 18.74925,6.7503 C19.57725,6.7503 20.24925,7.4208 20.24925,8.2503 Z M21.74925,20.24955 L21.74925,12.74955 L15.74925,12.74955 L15.74925,20.24955 L17.24925,20.24955 L17.24925,29.24955 L20.24925,29.24955 L20.24925,20.24955 L21.74925,20.24955 Z M30.74925,24.74955 L30.74925,18.74955 L24.74925,18.74955 L24.74925,24.74955 L26.24925,24.74955 L26.24925,29.24955 L29.24925,29.24955 L29.24925,24.74955 L30.74925,24.74955 Z M6.75,23.25 L6.75,29.25 L9.75,29.25 L9.75,23.25"/></svg>