<svg xmlns="http://www.w3.org/2000/svg" width="48" height="48" viewBox="0 0 48 48">
  <g fill="none" fill-rule="evenodd">
    <polygon fill="#000" points="26.949 18 32.437 23.408 25.613 23.408 25.613 18 22.387 18 22.387 23.408 15.601 23.408 21.089 18 17.009 18 9.999 25 17.009 32 21.089 32 15.601 26.628 22.387 26.628 22.387 32 25.613 32 25.613 26.628 32.437 26.628 26.949 32 31.027 32 37.999 25 31.027 18"/>
    <path stroke="#000" stroke-width="2" d="M5,12.7188 C5,8.4568 8.456,5.0008 12.718,5.0008 L35.282,5.0008 C39.544,5.0008 43,8.4568 43,12.7188 L43,35.2808 C43,39.5448 39.542,43.0008 35.282,43.0008 L12.718,43.0008 C8.456,43.0008 5,39.5428 5,35.2808 L5,12.7188 Z"/>
  </g>
</svg>
