<svg xmlns="http://www.w3.org/2000/svg" width="48" height="48" viewBox="0 0 48 48">
  <path fill="none" stroke="#000" stroke-width="2" d="M21,13.0004 L20.962,13.2044 L19,21.0004 M39,7.0004 L37,35.0004 L39,7.0004 Z M14,39.9994 C12.784,40.0494 12.242,40.9574 10,40.9994 C6.938,40.9994 5,36.9994 5,31.1914 C5,24.9994 8.194,24.9594 10,24.9994 C12.35,24.9994 11.876,25.9994 14,25.9994 C16.124,25.9994 15.65,24.9994 18,24.9994 C19.806,24.9594 23,24.9994 23,31.1914 C23,36.9994 21.062,40.9994 18,40.9994 C15.758,40.9574 15.216,40.0494 14,39.9994 Z M26,34.9994 L37,34.9994 L43,30.9994 L39,6.9994 L23,6.9994 L19,12.9994 L35,12.9994 L39,6.9994 M10,21.0004 C10,21.0004 14,22.0004 14,26.0004"/>
</svg>
