<svg xmlns="http://www.w3.org/2000/svg" width="48" height="48" viewBox="0 0 48 48">
  <path fill="none" stroke="#000" stroke-width="2" d="M5,41 L43,41 L43,11 L5,11 L5,41 Z M5,21 L43,21 M23,16 C23,16.552 22.552,17 22,17 C21.448,17 21,16.552 21,16 C21,15.448 21.448,15 22,15 C22.552,15 23,15.448 23,16 Z M17,16 C17,16.552 16.552,17 16,17 C15.448,17 15,16.552 15,16 C15,15.448 15.448,15 16,15 C16.552,15 17,15.448 17,16 Z M11,16 C11,16.552 10.552,17 10,17 C9.448,17 9,16.552 9,16 C9,15.448 9.448,15 10,15 C10.552,15 11,15.448 11,16 Z"/>
</svg>
