<svg xmlns="http://www.w3.org/2000/svg" width="48" height="48" viewBox="0 0 48 48">
  <g fill="none" fill-rule="evenodd">
    <path stroke="#000" stroke-width="2" d="M9,13.02 L39,13.02 L39,35.02 L9,34.96 L9,13.02 Z M9,19.0394 L39,19.0394 M15,15.9994 L15,9.9994 M33,15.9994 L33,9.9994"/>
    <path fill="#000" d="M26.3496,22.0004 L26.3496,32.0004 L24.3516,32.0004 L24.3516,25.4544 L23.6416,25.4544 L22.9316,25.4544 L22.2396,25.4544 L21.9996,25.4544 L21.9996,24.0044 C22.4876,23.9904 22.8856,23.9404 23.1936,23.8544 C23.5016,23.7664 23.7816,23.6244 24.0376,23.4284 C24.4076,23.1464 24.6556,22.6704 24.7836,22.0004 L26.3496,22.0004 Z"/>
  </g>
</svg>
