<svg xmlns="http://www.w3.org/2000/svg" width="48" height="48" viewBox="0 0 48 48">
  <path fill="none" stroke="#000" stroke-width="2" d="M35,16.0004 C35,22.0744 30.074,27.0004 24,27.0004 C17.924,27.0004 13,22.0744 13,16.0004 C13,9.9244 17.924,5.0004 24,5.0004 C30.074,5.0004 35,9.9244 35,16.0004 Z M31,16.0004 C31,19.8664 27.866,23.0004 24,23.0004 C20.134,23.0004 17,19.8664 17,16.0004 C17,12.1344 20.134,9.0004 24,9.0004 C27.866,9.0004 31,12.1344 31,16.0004 Z M17,24.4858 L17,41.9998 L21,37.9998 L25,41.9998 L25,26.9478 M25,35.9994 L27,33.9994 L31,37.9994 L31,24.4854"/>
</svg>
