<svg xmlns="http://www.w3.org/2000/svg" width="48" height="48" viewBox="0 0 48 48">
  <path fill="none" stroke="#000" stroke-width="2" d="M41,7 C41,8.104 40.106,9 39,9 C37.894,9 37,8.104 37,7 C37,5.896 37.894,5 39,5 C40.106,5 41,5.896 41,7 Z M11,25 C11,26.106 10.104,27 9,27 C7.896,27 7,26.106 7,25 C7,23.896 7.896,23 9,23 C10.104,23 11,23.896 11,25 Z M17,43 L17,27.008 L21,27.008 L21,43 M27,43 L27,31.008 L31,31.008 L31,43 M30.1622,19.373 L37.8382,8.627 M20.8574,17.7432 L27.1434,20.2572 M10.5616,23.751 L17.4376,18.249 M37,43 L37,19.008 L41,19.008 L41,43 L7,43 L7,35.008 L11,35.008 L11,43 M21,17 C21,18.104 20.104,19 19,19 C17.896,19 17,18.104 17,17 C17,15.896 17.896,15 19,15 C20.104,15 21,15.896 21,17 Z M31,21 C31,22.104 30.106,23 29,23 C27.894,23 27,22.104 27,21 C27,19.896 27.894,19 29,19 C30.106,19 31,19.896 31,21 Z"/>
</svg>
