<svg xmlns="http://www.w3.org/2000/svg" width="48" height="48" viewBox="0 0 48 48">
  <path fill="none" stroke="#000" stroke-width="2" d="M43,13.0004 L43,19.0004 C43,27.0004 11,27.0004 11,19.0004 L11,13.0004 M11,13.0004 C11,5.0004 43,5.1764 43,13.0004 C43,20.8244 11,21.0004 11,13.0004 Z M37,19.0004 L37,23.8024 L37,19.0004 L37,17.7284 L37,19.0004 Z M27,21.0004 L27,25.0004 L27,21.0004 L27,18.9344 L27,21.0004 Z M17,21.0004 L17,23.8044 L17,21.0004 L17,17.7744 L17,21.0004 Z M37,23.8032 L37,26.9992 C37,34.9992 5,34.9992 5,26.9992 L5,21.0012 M34.4336,24.3852 C26.8376,28.6372 4.9996,27.6092 4.9996,21.0012 C4.9996,18.7852 7.4516,17.1972 10.9996,16.2232 M31,26.9994 L31,31.8034 L31,26.9994 L31,25.7274 L31,26.9994 Z M21,26.933 L21,32.999 L21,26.933 M11,28.9994 L11,31.8034 L11,28.9994 L11,25.7754 L11,28.9994 Z M43,28.9994 L43,34.9994 C43,42.9994 11,42.9994 11,34.9994 L11,31.8034 M37,24.272 C40.546,25.254 43,26.834 43,29 C43,35.5 20.912,36.722 13.438,32.36 M37,34.9994 L37,39.8034 L37,34.9994 L37,33.7274 L37,34.9994 Z M27,36.9994 L27,40.9994 L27,36.9994 L27,34.9994 L27,36.9994 Z M17,36.9994 L17,39.8034 L17,36.9994 L17,33.7754 L17,36.9994 Z"/>
</svg>
