<svg xmlns="http://www.w3.org/2000/svg" width="48" height="48" viewBox="0 0 48 48">
  <path fill="none" stroke="#000" stroke-width="2" d="M11,39 L37,39 L37,9 L11,9 L11,39 Z M8,17 L14,17 M8,25 L14,25 M8,33 L14,33 M27,19.0206 C27,21.2606 25.702,23.0006 24,23.0006 C22.298,23.0006 21,21.2386 21,19.0006 C21,16.7606 22.298,15.0006 24,15.0006 C25.702,15.0006 27,16.7806 27,19.0206 Z M21.711,21.5928 C18.975,22.9528 17.001,26.6288 17.001,31.0008 L31.001,31.0008 C31.001,26.6328 29.027,22.9568 26.295,21.5948"/>
</svg>
