<svg xmlns="http://www.w3.org/2000/svg" width="48" height="48" viewBox="0 0 48 48">
  <path fill="none" stroke="#000" stroke-width="2" d="M21,13.0004 C21,15.3304 19.33,17.0004 17,17.0004 C14.67,17.0004 13,15.3304 13,13.0004 C13,10.6704 14.67,9.0004 17,9.0004 C19.33,9.0004 21,10.6704 21,13.0004 Z M35,25.0004 C35,27.2604 33.262,29.0004 31,29.0004 C28.738,29.0004 27,27.2604 27,25.0004 C27,22.7384 28.738,21.0004 31,21.0004 C33.262,21.0004 35,22.7384 35,25.0004 Z M21,36.9994 C21,39.2954 19.296,40.9994 17,40.9994 C14.704,40.9994 13,39.2954 13,36.9994 C13,34.7054 14.704,32.9994 17,32.9994 C19.296,32.9994 21,34.7054 21,36.9994 Z M13,13.0004 L4,13.0004 M21,13.0004 L44,13.0004 M35,25.0004 L44,25.0004 M27,25.0004 L4,25.0004 M13,36.9994 L4,36.9994 M21,36.9994 L44,36.9994"/>
</svg>
