<svg xmlns="http://www.w3.org/2000/svg" width="48" height="48" viewBox="0 0 48 48">
  <path fill="none" stroke="#000" stroke-width="2" d="M29,39.9994 L29,28.9994 L21,28.9994 C16.666,29.0594 17,39.9994 17,39.9994 M13,39.9994 L13,20.9994 L27,18.9994 L35,10.9994 L35,14.9994 L41,20.9994 L37,24.9994 L35,22.9994 L33,24.9994 L33,39.9994 M13,21.0004 C13,21.0004 5,21.1024 5,16.0184 M34,19.0004 C34,18.4484 33.552,18.0004 33,18.0004 C32.448,18.0004 32,18.4484 32,19.0004 C32,19.5524 32.448,20.0004 33,20.0004 C33.552,20.0004 34,19.5524 34,19.0004"/>
</svg>
