<svg xmlns="http://www.w3.org/2000/svg" width="48" height="48" viewBox="0 0 48 48">
  <path fill="none" stroke="#000" stroke-width="2" d="M21,26 C21,26.552 20.552,27 20,27 C19.448,27 19,26.552 19,26 C19,25.448 19.448,25 20,25 C20.552,25 21,25.448 21,26 Z M29,26 C29,26.552 28.552,27 28,27 C27.448,27 27,26.552 27,26 C27,25.448 27.448,25 28,25 C28.552,25 29,25.448 29,26 Z M18.2666,32 C19.5326,33.81 21.6246,35 24.0006,35 C26.3746,35 28.4686,33.81 29.7326,32 M13,18 C13,11.924 17.924,7 24,7 C30.074,7 35,11.924 35,18 C35,19.658 36.344,21 38,21 L10,21 C11.658,21 13,19.658 13,18 Z M13,17 L22,17 M26,17 L35,17 M15.5146,21 C13.9426,22.902 13.0006,25.34 13.0006,28 C13.0006,34.074 17.9246,39 24.0006,39 C30.0746,39 35.0006,34.074 35.0006,28 C35.0006,25.34 34.0566,22.902 32.4846,21"/>
</svg>
