<svg xmlns="http://www.w3.org/2000/svg" width="48" height="48" viewBox="0 0 48 48">
  <path fill="none" stroke="#000" stroke-width="2" d="M35,28 C35,34.074 30.074,39 24,39 C17.924,39 13,34.074 13,28 C13,21.924 17.924,17 24,17 C30.074,17 35,21.924 35,28 Z M21,26 C21,26.552 20.552,27 20,27 C19.448,27 19,26.552 19,26 C19,25.448 19.448,25 20,25 C20.552,25 21,25.448 21,26 Z M29,26 C29,26.552 28.552,27 28,27 C27.448,27 27,26.552 27,26 C27,25.448 27.448,25 28,25 C28.552,25 29,25.448 29,26 Z M18.2666,32 C19.5326,33.81 21.6246,35 24.0006,35 C26.3746,35 28.4686,33.81 29.7326,32 M31,14.7382 L31,10.0002 L28,12.0002 L26,10.0002 L24,12.0002 L22,10.0002 L20,12.0002 L17,10.0002 L17,14.7382 C19.09,13.6322 21.47,13.0002 24,13.0002 C26.53,13.0002 28.91,13.6322 31,14.7382 Z"/>
</svg>
