<svg xmlns="http://www.w3.org/2000/svg" width="48" height="48" viewBox="0 0 48 48">
  <path fill="none" stroke="#000" stroke-width="2" d="M39,25.0004 C39,32.7724 32.774,39.0004 25,39.0004 C17.226,39.0004 11,32.7724 11,25.0004 C11,17.2264 17.226,11.0004 25,11.0004 C32.774,11.0004 39,17.2264 39,25.0004 Z M31,25.0004 C31,28.3664 28.366,31.0004 25,31.0004 C21.634,31.0004 19,28.3664 19,25.0004 C19,21.6344 21.634,19.0004 25,19.0004 C28.366,19.0004 31,21.6344 31,25.0004 Z M31,25.0004 L44,25.0004 M11,25.0004 L6,25.0004 M25,11.0004 L25,6.0004 M25,38.9994 L25,43.9994 M31.7852,37.267 L33.9992,41.399 M15.5098,8.7368 L21.8218,19.8868 M37.3262,31.6792 L41.3122,34.2232 M36.4394,16.892 L40.6514,14.506 M8.0596,33.4526 L12.3456,31.0266 M15.6552,41.4974 L22.0372,30.2294 M31.9726,12.8374 L34.5826,8.4294 M8.332,15.598 L12.74,18.208"/>
</svg>
