<svg xmlns="http://www.w3.org/2000/svg" width="48" height="48" viewBox="0 0 48 48">
  <path fill="none" stroke="#000" stroke-width="2" d="M7,15.0004 L19,15.0004 L29,15.0004 L41,15.0004 L41,21.0004 L39,21.0004 L29,21.0004 L19,21.0004 L9,21.0004 L7,21.0004 L7,15.0004 Z M39,21.0004 L39,43.0004 L29,43.0004 L19,43.0004 L9,43.0004 L9,21.0004 M19,15.0004 L19,21.0004 L19,43.0004 M29,42.9994 L29,20.9354 L29,14.9994 M23.9922,15.0004 L24.0002,8.0004 C25.4982,2.3404 33.1522,5.6504 30.4002,10.4004 L27.0002,15.0004 M24,8.0004 C22.486,2.3084 14.894,5.5564 17.6,10.4004 L21,15.0004"/>
</svg>
