<svg xmlns="http://www.w3.org/2000/svg" width="48" height="48" viewBox="0 0 48 48">
  <path fill="none" stroke="#000" stroke-width="2" d="M20,27 C20.552,27 21,27.448 21,28 C21,28.552 20.552,29 20,29 C19.448,29 19,28.552 19,28 C19,27.448 19.448,27 20,27 Z M20,23 C22.762,23 25,25.238 25,28 C25,30.762 22.762,33 20,33 C17.238,33 15,30.762 15,28 C15,25.238 17.238,23 20,23 Z M20,17 C26.074,17 31,21.924 31,28 C31,34.074 26.074,39 20,39 C13.924,39 9,34.074 9,28 C9,21.924 13.924,17 20,17 Z M20,28 L34,14 M29,19 L29,12 M36,19 L29,19 M40,15 L33,15 L33,8"/>
</svg>
