<svg xmlns="http://www.w3.org/2000/svg" width="48" height="48" viewBox="0 0 48 48">
  <path fill="none" stroke="#000" stroke-width="2" d="M27,35.9994 C27,37.6554 25.658,38.9994 24,38.9994 C22.342,38.9994 21,37.6554 21,35.9994 C21,34.3434 22.342,32.9994 24,32.9994 C25.658,32.9994 27,34.3434 27,35.9994 Z M4.4394,17.4242 C9.3574,12.2462 16.2934,9.0002 23.9994,9.0002 C31.7074,9.0002 38.6414,12.2462 43.5614,17.4242 M43.5606,17.4242 C38.6406,12.2462 31.7066,9.0002 24.0006,9.0002 C16.2926,9.0002 9.3586,12.2462 4.4386,17.4242 M8.7862,21.5522 C12.6122,17.5242 18.0062,15.0002 24.0002,15.0002 C29.9942,15.0002 35.3882,17.5242 39.2142,21.5522 M39.2148,21.5522 C35.3888,17.5242 29.9948,15.0002 24.0008,15.0002 C18.0068,15.0002 12.6128,17.5242 8.7868,21.5522 M13.1426,25.689 C15.8766,22.811 19.7286,21.007 24.0126,21.007 C28.2886,21.007 32.1366,22.807 34.8686,25.677 M34.8692,25.6772 C32.1372,22.8052 28.2892,21.0072 24.0112,21.0072 C19.7292,21.0072 15.8752,22.8112 13.1432,25.6892 M17.4882,29.8158 C19.1282,28.0898 21.4302,26.9998 24.0002,26.9998 C26.5682,26.9998 28.8722,28.0898 30.5122,29.8158 M30.5118,29.8158 C28.8738,28.0898 26.5678,26.9998 23.9998,26.9998 C21.4298,26.9998 19.1278,28.0898 17.4878,29.8158"/>
</svg>
