<svg xmlns="http://www.w3.org/2000/svg" width="48" height="48" viewBox="0 0 48 48">
  <path fill="none" stroke="#000" stroke-width="2" d="M27,36 C27,37.656 25.656,39 24,39 C22.344,39 21,37.656 21,36 C21,34.342 22.344,33 24,33 C25.656,33 27,34.342 27,36 Z M7,7 L37,37 M27.9648,27.9648 C26.7668,27.3668 25.4328,27.0008 24.0008,27.0008 C21.4308,27.0008 19.1268,28.0888 17.4888,29.8168 M43.5606,17.4238 C38.6406,12.2458 31.7066,8.9998 24.0006,8.9998 C20.7206,8.9998 17.5966,9.6178 14.6906,10.6918 M11.9062,11.9062 C9.1122,13.3182 6.5762,15.1742 4.4402,17.4242 M21.2734,21.2734 C18.1014,21.8634 15.2774,23.4414 13.1434,25.6894 M39.2148,21.5528 C35.3888,17.5228 29.9948,15.0008 24.0008,15.0008 C22.4508,15.0008 20.9448,15.1768 19.4948,15.4948 M16.4394,16.4394 C13.5194,17.5734 10.9054,19.3194 8.7854,21.5534 M25.0624,21.0626 C28.9144,21.3326 32.3624,23.0446 34.8684,25.6786"/>
</svg>
