<svg xmlns="http://www.w3.org/2000/svg" width="48" height="48" viewBox="0 0 48 48">
  <g fill="none" fill-rule="evenodd">
    <path fill="#000" d="M21.664,21.474 L21.664,26.406 L24.994,26.406 C26.144,26.406 26.918,26.294 27.316,26.07 C27.994,25.688 28.334,24.992 28.334,23.982 C28.334,22.846 27.876,22.086 26.962,21.704 C26.606,21.55 25.858,21.474 24.718,21.474 L21.664,21.474 Z M21.664,15.622 L21.664,19.98 L24.666,19.98 C25.49,19.98 26.096,19.92 26.488,19.798 C26.878,19.67 27.192,19.424 27.424,19.06 C27.656,18.696 27.774,18.272 27.774,17.786 C27.774,17.302 27.672,16.886 27.47,16.542 C27.27,16.196 26.988,15.95 26.624,15.804 C26.32,15.682 25.722,15.622 24.83,15.622 L21.664,15.622 Z M19.998,14.014 L25.072,14.014 C26.302,14.014 27.202,14.17 27.764,14.482 C28.282,14.77 28.692,15.186 28.994,15.732 C29.296,16.278 29.448,16.874 29.448,17.518 C29.448,18.202 29.282,18.808 28.952,19.338 C28.62,19.868 28.164,20.258 27.584,20.506 C28.054,20.646 28.42,20.816 28.68,21.014 C29.564,21.678 30.008,22.646 30.008,23.916 C30.008,25.582 29.388,26.778 28.152,27.508 C27.572,27.846 26.806,28.016 25.858,28.016 L19.998,28.016 L19.998,14.014 Z"/>
    <path stroke="#000" stroke-width="2" d="M35,20.016 C35,13.94 30.074,9.016 24,9.016 C17.924,9.016 13,13.94 13,20.016 C13.074,21.902 13.632,23.488 14.532,24.986 L24.032,39.984 L33.532,24.986 C34.418,23.432 34.984,21.816 35,20.016 Z"/>
  </g>
</svg>
