<svg xmlns="http://www.w3.org/2000/svg" width="48" height="48" viewBox="0 0 48 48">
  <path fill="none" stroke="#000" stroke-width="2" d="M35,16.0298 C35,9.9538 30.074,5.0298 24,5.0298 C17.924,5.0298 13,9.9538 13,16.0298 C13.074,17.9158 13.632,19.5018 14.532,20.9998 L24.032,35.9978 L33.532,20.9998 C34.418,19.4478 34.984,17.8298 35,16.0298 Z M17.6036,31.349 C10.2376,32.183 4.9996,34.413 4.9996,36.999 C4.9996,40.289 13.4636,42.999 23.9996,42.999 C34.5376,42.999 42.9996,40.289 42.9996,36.999 C42.9996,34.433 37.8396,32.217 30.5636,31.369 M13.5732,19.0004 L17.9992,19.0004 L20.9992,11.0004 L23.9992,23.0004 L26.9992,15.0004 L28.9992,18.9804 L34.4672,18.9804"/>
</svg>
