<svg xmlns="http://www.w3.org/2000/svg" width="48" height="48" version="1.1" viewBox="0 0 48 48">
  <path fill="none" fill-rule="evenodd" stroke="#000" stroke-width="2" d="M37,18.0118 C37,10.8258 31.18,4.9998 24,4.9998 C16.82,4.9998 11,10.8258 11,18.0118 C11.086,20.2438 11.748,22.1218 12.81,23.8918 L24.038,41.9998 L35.264,23.8918 C36.312,22.0538 36.982,20.1418 37,18.0118 Z M24.9366,18.7598 C24.9366,19.2778 24.5186,19.6978 24.0006,19.6978 C23.4826,19.6978 23.0626,19.2778 23.0626,18.7598 C23.0626,18.2418 23.4826,17.8238 24.0006,17.8238 C24.5186,17.8238 24.9366,18.2418 24.9366,18.7598 M24.9366,18.7598 C24.9366,19.2778 24.5186,19.6978 24.0006,19.6978 C23.4826,19.6978 23.0626,19.2778 23.0626,18.7598 C23.0626,18.2418 23.4826,17.8238 24.0006,17.8238 C24.5186,17.8238 24.9366,18.2418 24.9366,18.7598 Z M21,15 L17,15 L17,23 L31,23 L31,15 L27,15 L26,13 L22,13 L21,15 Z"/>
</svg>
