<svg xmlns="http://www.w3.org/2000/svg" width="24" height="24" viewBox="0 0 24 24">
  <g fill="none" fill-rule="evenodd">
    <path fill="#237F52" d="M22.5000001,0 L1.50000001,0 C0.675000003,0 0,0.675000003 0,1.50000001 L0,22.5000001 C0,23.3250009 0.675000003,24.0000001 1.50000001,24.0000001 L22.5000001,24.0000001 C23.3250009,24.0000001 24.0000001,23.3250009 24.0000001,22.5000001 L24.0000001,1.50000001 C24.0000001,0.675000003 23.3250009,0 22.5000001,0 Z"/>
    <path fill="#FFF" fill-rule="nonzero" d="M7.37500003,0 C7.16500003,0 7.00000003,0.164999701 7.00000003,0.375000002 L7.00000003,1.31250001 L1,1.31250001 L1,0.375000002 C1,0.164999701 0.835000003,0 0.625000003,0 C0.415000002,0 0.250000001,0.164999701 0.250000001,0.375000002 L0.250000001,17.6250001 C0.250000001,17.8349992 0.415000002,18.0000001 0.625000003,18.0000001 C0.835000003,18.0000001 1,17.8349992 1,17.6250001 L1,16.6875001 L7.00000003,16.6875001 L7.00000003,17.6250001 C7.00000003,17.8349992 7.16500003,18.0000001 7.37500003,18.0000001 C7.58500003,18.0000001 7.75000003,17.8349992 7.75000003,17.6250001 L7.75000003,0.375000002 C7.75000003,0.164999701 7.58500003,0 7.37500003,0 Z M7.00000003,16.3125001 L1,16.3125001 L1,13.6875001 L7.00000003,13.6875001 L7.00000003,16.3125001 Z M7.00000003,13.3125001 L1,13.3125001 L1,10.6875 L7.00000003,10.6875 L7.00000003,13.3125001 Z M7.00000003,10.3125 L1,10.3125 L1,7.68750003 L7.00000003,7.68750003 L7.00000003,10.3125 Z M7.00000003,7.31250003 L1,7.31250003 L1,4.68750002 L7.00000003,4.68750002 L7.00000003,7.31250003 Z M7.00000003,4.31250002 L1,4.31250002 L1,1.68750001 L7.00000003,1.68750001 L7.00000003,4.31250002 Z" transform="translate(8 3)"/>
  </g>
</svg>
