<svg xmlns="http://www.w3.org/2000/svg" width="48" height="48" viewBox="0 0 48 48"><path fill="none" stroke="#000" stroke-width="2" d="M13,5 L37,5 C38.104,5 39,5.896 39,7 L39,41 C39,42.104 38.104,43 37,43 L13,43 C11.896,43 11,42.104 11,41 L11,7 C11,5.896 11.896,5 13,5 Z M15,15 L35,15 L35,9 L15,9 L15,15 Z M19,21 C19,22.104 18.104,23 17,23 C15.896,23 15,22.104 15,21 C15,19.896 15.896,19 17,19 C18.104,19 19,19.896 19,21 Z M27,21 C27,22.104 26.104,23 25,23 C23.896,23 23,22.104 23,21 C23,19.896 23.896,19 25,19 C26.104,19 27,19.896 27,21 Z M35,21 C35,22.104 34.104,23 33,23 C31.896,23 31,22.104 31,21 C31,19.896 31.896,19 33,19 C34.104,19 35,19.896 35,21 Z M19,29 C19,30.104 18.104,31 17,31 C15.896,31 15,30.104 15,29 C15,27.896 15.896,27 17,27 C18.104,27 19,27.896 19,29 Z M27,29 C27,30.104 26.104,31 25,31 C23.896,31 23,30.104 23,29 C23,27.896 23.896,27 25,27 C26.104,27 27,27.896 27,29 Z M19,37 C19,38.104 18.104,39 17,39 C15.896,39 15,38.104 15,37 C15,35.896 15.896,35 17,35 C18.104,35 19,35.896 19,37 Z M27,37 C27,38.104 26.104,39 25,39 C23.896,39 23,38.104 23,37 C23,35.896 23.896,35 25,35 C26.104,35 27,35.896 27,37 Z M33,27 L33,27 C34.104,27 35,27.896 35,29 L35,37 C35,38.104 34.104,39 33,39 L33,39 C31.896,39 31,38.104 31,37 L31,29 C31,27.896 31.896,27 33,27 Z"/></svg>