<svg xmlns="http://www.w3.org/2000/svg" width="48" height="48" viewBox="0 0 48 48">
  <path fill="none" stroke="#000" stroke-width="2" d="M19,13 L5,13 L5,5 L23,5 L19,13 Z M32,35 L43,35 L43,43 L5,43 L5,5 M5,35 L18,35 M27,35 C27,36.106 26.106,37 25,37 C23.896,37 23,36.106 23,35 C23,33.894 23.896,33 25,33 C26.106,33 27,33.894 27,35 Z M19,25 C19,27.208 17.208,29 15,29 C12.792,29 11,27.208 11,25 C11,22.792 12.792,21 15,21 C17.208,21 19,22.792 19,25 Z M19,13 L19,17 C28.942,17 37,25.058 37,35 M17.8282,27.8282 L23.5862,33.5862 M39.332,26.5352 L40.016,28.4152 M37.5528,23.1338 L38.5528,24.8658 M35.211,20.0928 L36.497,21.6248 M32.375,17.504 L33.909,18.79"/>
</svg>
