<svg xmlns="http://www.w3.org/2000/svg" width="48" height="48" viewBox="0 0 48 48"><path fill="none" stroke="#000" stroke-width="2" d="M41,15 L7,15 C5.896,15 5,14.104 5,13 L5,7 C5,5.896 5.896,5 7,5 L41,5 C42.104,5 43,5.896 43,7 L43,13 C43,14.104 42.104,15 41,15 Z M41,37 L41,15 M7,15 L7,37 M43,41 L43,39 C43,37.896 42.104,37 41,37 L7,37 C5.896,37 5,37.896 5,39 L5,41 C5,42.104 5.896,43 7,43 L41,43 C42.104,43 43,42.104 43,41 Z M38,9 L32,9 M19,15 L19,21 L29,21 L29,15 M26.3176,37 C28.9036,37 30.9996,34.904 30.9996,32.318 L30.9996,27 L16.9996,27 L16.9996,32.324 C16.9996,34.906 19.0936,37 21.6756,37 M21,21 L21,24 M27,21 L27,24 M30.9312,33 L33.3692,33 C34.2692,33 34.9992,32.27 34.9992,31.368 L34.9992,30.626 C34.9992,29.728 34.2712,29 33.3732,29 L30.9992,29"/></svg>