<svg xmlns="http://www.w3.org/2000/svg" width="48" height="48" version="1.1" viewBox="0 0 48 48">
  <path fill="none" fill-rule="evenodd" stroke="#000" stroke-width="2" d="M30,13 L38,13 M25,12.9978 L25,40.9998 C25,42.1038 25.896,42.9998 27,42.9998 L41,42.9998 C42.104,42.9998 43,42.1038 43,40.9998 L43,12.9998 C43,11.8958 42.104,10.9998 41,10.9998 L27,10.9978 C25.896,10.9978 25,11.8938 25,12.9978 Z M14,7.002 L22,7.002 M14,37.0002 L22,37.0002 M31,8 L31,7.002 C31,5.898 30.104,5.002 29,5.002 L7,5 C5.896,5 5,5.896 5,7 L5,39 C5,40.104 5.896,41 7,41 L22,41"/>
</svg>
