<svg xmlns="http://www.w3.org/2000/svg" width="48" height="48" viewBox="0 0 48 48"><path fill="none" stroke="#000" stroke-width="2" d="M15,29 C16.798,29 16.798,31 18.596,31 C20.392,31 20.392,29 22.188,29 C23.988,29 23.988,31 25.788,31 C27.592,31 27.592,29 29.394,29 C31.198,29 31.198,31 33,31 M38.9998,43 L8.9998,43 L8.9998,11.53 L8.9998,5 L38.9998,5 L38.9998,43 Z M38.9998,15 L8.9998,15 M14.9998,9.9998 C14.9998,9.4478 14.5518,8.9998 13.9998,8.9998 C13.4478,8.9998 12.9998,9.4478 12.9998,9.9998 C12.9998,10.5518 13.4478,10.9998 13.9998,10.9998 C14.5518,10.9998 14.9998,10.5518 14.9998,9.9998 Z M30.0006,8.9998 L36.0006,8.9998 M19.9998,8.9998 L25.9998,8.9998 M33,30 C33,25.03 28.97,21 24,21 C19.03,21 15,25.03 15,30 C15,34.97 19.03,39 24,39 C28.97,39 33,34.97 33,30 Z"/></svg>