<svg xmlns="http://www.w3.org/2000/svg" width="48" height="48" viewBox="0 0 48 48">
  <g fill="none" fill-rule="evenodd">
    <path stroke="#000" stroke-width="2" d="M11,15.0004 L37,15.0004 L41,41.0004 L7,41.0004 L11,15.0004 Z M28,11.0004 C28,13.2084 26.208,15.0004 24,15.0004 C21.792,15.0004 20,13.2084 20,11.0004 C20,8.7904 21.792,7.0004 24,7.0004 C26.208,7.0004 28,8.7904 28,11.0004 Z"/>
    <path fill="#000" d="M29.5578,23.7466 C31.0578,23.7466 32.2798,24.2326 33.2218,25.2006 C33.9258,25.9306 34.3298,26.7886 34.4338,27.7786 L32.0198,27.7786 C31.8938,27.1626 31.6158,26.6846 31.1798,26.3406 C30.7438,25.9966 30.1938,25.8266 29.5278,25.8266 C28.5178,25.8266 27.7358,26.2166 27.1838,26.9966 C26.6998,27.6786 26.4578,28.6006 26.4578,29.7626 C26.4578,30.8986 26.6838,31.7986 27.1358,32.4666 C27.6938,33.2826 28.5178,33.6926 29.6058,33.6926 C30.3918,33.6926 31.0378,33.4546 31.5398,32.9826 C32.0418,32.5066 32.3058,31.8846 32.3318,31.1146 L29.7938,31.1146 L29.7938,29.2866 L34.5898,29.2866 L34.5898,35.4426 L32.9958,35.4426 L32.7458,34.1386 C31.9018,35.1886 30.7638,35.7166 29.3318,35.7166 C27.5878,35.7166 26.2098,35.0726 25.1998,33.7786 C24.3618,32.7006 23.9418,31.3686 23.9418,29.7866 C23.9418,27.9906 24.4878,26.5186 25.5818,25.3726 C26.6078,24.2886 27.9338,23.7466 29.5578,23.7466 Z M16.036,24.021 L16.036,28.747 L20.512,24.021 L23.668,24.021 L19.192,28.537 L24.09,35.443 L20.942,35.443 L17.474,30.317 L16.036,31.755 L16.036,35.443 L13.544,35.443 L13.544,24.021 L16.036,24.021 Z"/>
  </g>
</svg>
