<svg xmlns="http://www.w3.org/2000/svg" width="24" height="24" viewBox="0 0 24 24">
  <g fill="none" fill-rule="evenodd">
    <path fill="#2D327D" d="M22.5000001,0 L1.50000001,0 C0.700000003,0 0,0.700000003 0,1.50000001 L0,22.5000001 C0,23.2999993 0.700000003,24.0000001 1.50000001,24.0000001 L22.5000001,24.0000001 C23.2999993,24.0000001 24.0000001,23.2999993 24.0000001,22.5000001 L24.0000001,1.50000001 C24.0000001,0.700000003 23.2999993,0 22.5000001,0 Z"/>
    <g fill="#FFF" transform="translate(3 2)">
      <path d="M15.2999993 13.8000003C15.1999989 15.2000009 14.6999989 16.3999997 13.8999997 17.3999997 12.7999993 18.6999989 11.2999992 19.3999997 9.19999984 19.3999997 7.10000043 19.3999997 5.39999962 18.6000005 4.19999982 17.1000005 3.19999981 15.8000013 2.69999981 14.2000009 2.69999981 12.3000003 2.69999981 10.3000002 3.29999971 8.60000044 4.50000002 7.30000023 5.70000032 6.00000003 7.30000023 5.30000022 9.30000024 5.30000022 11.1999998 5.30000022 12.7000009 5.90000012 13.7999993 7.10000043 14.5999986 8.00000003 15.0999986 9.00000004 15.199999 10.1000004L12.2999994 10.1000004C12.0999996 9.30000024 11.7999993 8.70000084 11.2999993 8.30000023 10.7999993 7.90000063 10.0999995 7.69999983 9.29999934 7.69999983 7.99999913 7.69999983 7.09999953 8.19999983 6.39999973 9.30000024 5.89999972 10.1000004 5.69999992 11.1000004 5.69999992 12.3000003 5.69999992 13.5000001 5.89999962 14.5000001 6.50000003 15.2999993 7.10000043 16.2999993 8.10000043 16.8999997 9.30000024 16.8999997 10.1999998 16.8999997 10.9000006 16.6000005 11.3999996 16.1000005 11.8999996 15.6000005 12.1999999 14.8000013 12.3999997 13.8000003L15.2999993 13.8000003zM1.80000021 1.70000001L1.30000021 1.70000001C1.30000021 1.60000011 1.20000031 1.50000001 1.20000031 1.40000001 1.20000031 1.40000001 1.0999999 1.29999991.900000104 1.29999991.800000203 1.29999991.700000103 1.29999991.600000103 1.39999981.500000102 1.49999971.599999902 1.50000001.599999902 1.59999991.599999902 1.69999981.599999902 1.69999981.699999803 1.79999991.799999703 1.79999991.899999804 1.89999981 1.0999999 1.89999981 1.30000021 1.90000011 1.50000001 2.00000001 1.59999991 2.09999991 1.79999971 2.19999981 1.90000011 2.40000011 1.90000011 2.59999991 1.90000011 2.79999971 1.80000021 3.00000001 1.59999991 3.09999991 1.50000001 3.19999981 1.1999998 3.30000021 1 3.30000021.700000003 3.30000021.500000002 3.20000031.300000001 3.10000041.0999999004 2.90000011 0 2.80000021 0 2.50000001L.500000002 2.50000001C.500000002 2.59999991.500000002 2.69999981.599999902 2.80000021.700000003 2.90000011.800000003 2.90000011 1 2.90000011 1.0999999 2.90000011 1.1999998 2.90000011 1.30000021 2.80000021 1.40000011 2.70000031 1.40000011 2.70000031 1.40000011 2.60000041 1.40000011 2.50000051 1.30000021 2.50000001 1.1999998 2.40000011 1.1999998 2.40000011 1 2.30000021.799999903 2.30000021.700000003 2.30000021.499999902 2.20000031.499999902 2.20000031.499999902 2.20000031.300000001 2.09999991.200000001 2.00000001.0999999004 1.90000011.0999999004 1.80000001.0999999004 1.59999991.0999999004 1.39999981.199999801 1.1999998.399999902 1.0999999.500000002 1 .700000003.900000104.900000104.900000104 1.0999999.900000104 1.30000021.900000104 1.40000011 1 1.69999981 1.20000001 1.80000021 1.40000011 1.80000021 1.70000001z"/>
      <path fill-rule="nonzero" d="M3.69999982,2.69999981 C3.69999982,2.79999971 3.59999991,2.89999961 3.59999991,3.00000001 C3.40000011,3.19999981 3.19999981,3.30000021 2.90000011,3.30000021 C2.69999981,3.30000021 2.50000001,3.19999981 2.30000021,3.00000001 C2.30000021,3.00000001 2.19999981,2.90000011 2.19999981,2.80000021 C2.19999981,2.70000031 2.09999991,2.60000041 2.09999991,2.40000011 C2.09999991,2.20000031 2.19999981,1.90000011 2.29999971,1.80000021 C2.49999951,1.60000021 2.69999981,1.50000021 2.89999961,1.50000021 C3.09999941,1.50000021 3.29999971,1.60000011 3.39999961,1.70000021 C3.50000001,1.80000001 3.59999991,1.90000011 3.69999982,2.00000001 C3.79999972,2.09999991 3.79999972,2.30000021 3.79999972,2.50000001 L2.59999991,2.50000001 C2.59999991,2.59999991 2.59999991,2.69999981 2.59999991,2.69999981 C2.59999991,2.90000011 2.80000021,3.00000001 2.90000011,3.00000001 C3.00000001,3.00000001 3.09999991,3.00000001 3.09999991,2.90000011 C3.19999981,2.90000011 3.19999981,2.80000021 3.19999981,2.70000031 L3.69999982,2.69999981 Z M3.30000021,2.19999981 C3.30000021,2.09999991 3.30000021,1.99999981 3.20000031,1.99999981 C3.20000031,1.89999991 3.10000041,1.89999991 3.10000041,1.89999991 C3.10000041,1.89999991 3.00000051,1.89999991 2.90000061,1.89999991 C2.80000071,1.89999991 2.70000081,1.89999991 2.70000081,1.99999981 C2.70000081,2.09999951 2.59999991,2.09999991 2.59999991,2.19999981 L3.30000021,2.19999981 Z"/>
      <path d="M4.90000012 1.59999991L4.90000012 1.89999991 4.50000002 1.89999991 4.50000002 2.69999991C4.50000002 2.79999981 4.50000002 2.89999971 4.50000002 2.89999971 4.50000002 2.89999971 4.59999992 2.99999961 4.69999982 2.99999961L4.79999972 2.99999961 4.79999972 3.39999971C4.69999982 3.39999971 4.59999992 3.39999971 4.49999952 3.39999971 4.39999962 3.39999971 4.29999972 3.39999971 4.19999932 3.39999971 4.19999982 3.19999981 4.09999992 3.09999991 4.09999992 3.00000001 4.09999992 2.90000011 4.09999992 2.80000021 4.09999992 2.69999981L4.09999992 1.90000011 3.80000022 1.90000011 3.80000022 1.59999991 4.10000042 1.59999991 4.10000042 1.2 4.50000052 1.2 4.50000052 1.60000011 4.90000012 1.59999991zM6.10000043 1.59999991L6.10000043 1.89999991 5.69999982 1.89999991 5.69999982 2.69999991C5.69999982 2.79999981 5.69999982 2.89999971 5.69999982 2.89999971 5.69999982 2.89999971 5.80000022 2.99999961 5.89999962 2.99999961L6.00000003 2.99999961 6.00000003 3.39999971C5.89999962 3.39999971 5.80000022 3.39999971 5.69999982 3.39999971 5.59999942 3.39999971 5.50000002 3.39999971 5.39999962 3.39999971 5.39999962 3.19999991 5.30000022 3.10000001 5.30000022 3.00000011 5.30000022 2.90000021 5.30000022 2.80000031 5.30000022 2.69999991L5.30000022 1.90000011 5.00000002 1.90000011 5.00000002 1.59999991 5.30000022 1.59999991 5.30000022 1.2 5.69999982 1.2 5.69999982 1.60000011 6.10000043 1.59999991z"/>
      <path fill-rule="nonzero" d="M7.10000043,1.50000001 C7.30000023,1.50000001 7.50000003,1.59999991 7.70000083,1.70000001 C7.80000123,1.90000001 7.90000063,2.09999991 7.90000063,2.30000011 C7.90000063,2.60000031 7.80000023,2.80000011 7.70000083,2.99999991 C7.60000043,3.19999971 7.30000123,3.19999971 7.10000043,3.19999971 C6.80000023,3.30000011 6.60000043,3.19999971 6.39999963,2.99999991 C6.30000023,2.90000011 6.19999983,2.69999981 6.19999983,2.40000011 C6.19999983,2.10000041 6.30000023,2.00000001 6.39999963,1.80000001 C6.60000043,1.59999991 6.80000023,1.50000001 7.10000043,1.50000001 Z M7.00000003,1.90000011 C6.89999963,1.90000011 6.80000023,1.90000011 6.69999983,2.00000001 C6.69999983,2.09999991 6.69999983,2.19999981 6.69999983,2.40000011 C6.69999983,2.60000041 6.69999983,2.70000031 6.80000023,2.80000021 C6.80000023,2.90000011 6.89999963,3.00000001 7.00000003,3.00000001 C7.10000043,3.00000001 7.19999983,3.00000001 7.30000023,2.90000011 C7.40000063,2.80000021 7.40000063,2.70000031 7.40000063,2.50000001 C7.40000063,2.30000021 7.40000063,2.19999981 7.30000023,2.09999991 C7.30000023,1.90000011 7.19999983,1.90000011 7.00000003,1.90000011 Z"/>
      <path d="M9.19999984,1.50000001 L9.19999984,2.00000001 C9.09999944,2.00000001 9.09999944,2.00000001 9.00000004,2.00000001 C8.80000024,2.00000001 8.69999984,2.09999991 8.60000044,2.19999981 C8.60000044,2.29999971 8.50000004,2.39999961 8.50000004,2.59999991 L8.50000004,3.29999971 L8.00000003,3.29999971 L8.00000003,1.59999991 L8.39999963,1.59999991 L8.39999963,1.89999991 C8.50000004,1.69999991 8.69999984,1.59999991 8.89999964,1.59999991 C9.19999984,1.50000001 9.19999984,1.50000001 9.19999984,1.50000001 Z"/>
      <path fill-rule="nonzero" d="M10.8999996,2.69999981 C10.8999996,2.79999971 10.7999992,2.89999961 10.7999992,3.00000001 C10.6999988,3.19999981 10.3999996,3.30000021 10.1999988,3.30000021 C9.99999904,3.30000021 9.79999924,3.20000031 9.59999844,3.10000041 C9.49999804,3.00000051 9.49999804,2.90000061 9.39999864,2.80000021 C9.39999864,2.70000031 9.29999824,2.60000041 9.29999824,2.40000011 C9.29999824,2.20000031 9.39999864,1.90000011 9.49999804,1.80000021 C9.69999784,1.60000021 9.89999764,1.50000021 10.0999984,1.50000021 C10.2999982,1.50000021 10.499998,1.60000011 10.5999984,1.70000021 C10.6999988,1.80000011 10.7999982,1.90000021 10.7999982,2.00000041 C11,2.19999981 11,2.30000021 11,2.50000001 L9.80000024,2.50000001 C9.80000024,2.59999991 9.80000024,2.69999981 9.80000024,2.69999981 C9.89999964,2.90000011 10,3.00000001 10.1999998,3.00000001 C10.3000002,3.00000001 10.3000002,3.00000001 10.3999996,2.90000011 C10.5,2.90000011 10.5,2.80000021 10.5,2.70000031 L10.8999996,2.69999981 Z M10.5,2.19999981 C10.5,2.09999991 10.5,1.99999981 10.3999996,1.99999981 C10.3999996,1.89999991 10.2999992,1.89999991 10.2999992,1.89999991 C10.2999992,1.89999991 10.1999988,1.89999991 10.0999994,1.89999991 C9.99999904,1.89999991 9.89999964,1.89999991 9.89999964,1.99999981 C9.79999924,2.09999991 9.79999924,2.19999981 9.79999924,2.29999981 L10.5,2.19999981 Z"/>
    </g>
  </g>
</svg>
