<svg xmlns="http://www.w3.org/2000/svg" width="48" height="48" version="1.1" viewBox="0 0 48 48">
  <path fill="none" fill-rule="evenodd" stroke="#000" stroke-width="2" d="M9.004,43.001 L21.004,43.001 L20.998,21.497 C20.998,19.011 18.984,16.997 16.498,16.997 L13.494,16.997 C11.008,16.997 8.994,19.011 8.994,21.497 L9.004,43.001 Z M8.999,23 L20.999,23 M8.999,39.002 L20.999,39.002 M15,13 L15,17 M13,13 L17,13 L17,9 L13,9 L13,13 Z M21,13 L29.754,14.686 C29.288,15.34 29.008,16.136 29.008,17 C29.008,19.21 30.798,21 33.008,21 C35.216,21 37.008,19.21 37.008,17 L37.008,17 C39.218,17 41.008,15.21 41.008,13 C41.008,10.792 39.218,9 37.008,9 C37.008,6.792 35.216,5 33.008,5 C30.798,5 29.008,6.792 29.008,9 C29.008,9.166 29.038,9.326 29.056,9.488 L21,11 L21,13 Z"/>
</svg>
