<svg xmlns="http://www.w3.org/2000/svg" width="48" height="48" viewBox="0 0 48 48">
  <g fill="none" fill-rule="evenodd">
    <polygon fill="#000" points="26.529 18 31.233 22.635 25.383 22.635 25.383 18 22.618 18 22.618 22.635 16.802 22.635 21.506 18 18.009 18 12 24 18.009 30 21.506 30 16.802 25.395 22.618 25.395 22.618 30 25.383 30 25.383 25.395 31.233 25.395 26.529 30 30.024 30 36 24 30.024 18"/>
    <path stroke="#000" stroke-width="2" d="M5,12.7188 C5,8.4568 8.456,5.0008 12.718,5.0008 L35.282,5.0008 C39.544,5.0008 43,8.4568 43,12.7188 L43,35.2808 C43,39.5448 39.542,43.0008 35.282,43.0008 L12.718,43.0008 C8.456,43.0008 5,39.5428 5,35.2808 L5,12.7188 Z"/>
  </g>
</svg>
