<svg xmlns="http://www.w3.org/2000/svg" width="48" height="48" viewBox="0 0 48 48"><path fill="none" stroke="#000" stroke-width="2" d="M11,19 L11,9 C11,6.71 12.696,5 15,5 L32.926,5 C35.23,5 37,6.71 37,9 L37,19 M33,27 L15,27 M37,36.48 L37,41.14 C37,42.18 36.18,43 35.14,43 L34.86,43 C33.82,43 33,42.18 33,41.14 L33,37 M11,36.48 L11,41.14 C11,42.18 11.82,43 12.86,43 L13.14,43 C14.18,43 15,42.18 15,41.14 L15,37 M15,23 C15,20.8 13.2,19 11,19 C8.8,19 7,20.8 7,23 C7,24.48 7.8,25.764 9,26.464 L9,33.06 C9,35.24 10.76,37 12.94,37 L15,37 L33,37 L35.06,37 C37.24,37 39,35.24 39,33.06 L39,26.464 L39,26.46 C40.2,25.76 41,24.48 41,23 C41,20.8 39.2,19 37,19 C34.8,19 33,20.8 33,23 M33,23 L33,27 L33,29 C33,30.1 32.1,31 31,31 L17,31 C15.9,31 15,30.1 15,29 L15,27 L15,23"/></svg>