<svg xmlns="http://www.w3.org/2000/svg" width="48" height="48" viewBox="0 0 48 48">
  <path fill="none" stroke="#000" stroke-width="2" d="M11,18 C11,13.03 15.03,9 20,9 L28,9 C32.97,9 37,13.03 37,18 L37,43 L11,43 L11,18 Z M29.0118,9 L28.9998,8 C28.9998,6.342 27.6558,5 25.9998,5 L22.0078,5 C20.3518,5 19.0078,6.342 19.0078,8 L18.9998,9 M15.0078,30 C15.0078,28.342 16.3518,27 18.0078,27 L29.9998,27 C31.6558,27 32.9998,28.342 32.9998,30 M33,30 L33,39 L15,39 L15,30 M18,31 L30,31 M27,34 L27,31"/>
</svg>
