<svg xmlns="http://www.w3.org/2000/svg" width="48" height="48" version="1.1" viewBox="0 0 48 48">
  <g fill="none" fill-rule="evenodd" stroke="none" stroke-width="1">
    <path stroke="#000" stroke-width="2" d="M5,35 L39,35 L39,17 L5,17 L5,35 Z M39,29 L43,29 L43,13 L11,13 L11,17"/>
    <path fill="#000" d="M22.4082,29.249 C23.3182,29.137 23.7742,28.713 23.7742,27.981 C23.7742,27.541 23.5962,27.217 23.2422,27.009 C23.1442,26.949 22.8662,26.847 22.4082,26.705 L22.4082,29.249 Z M21.6242,22.531 C20.8002,22.603 20.3882,22.979 20.3882,23.657 C20.3882,23.963 20.4782,24.199 20.6602,24.365 C20.8422,24.531 21.1622,24.671 21.6242,24.783 L21.6242,22.531 Z M22.4082,22.549 L22.4082,24.963 C22.4682,24.981 22.6382,25.025 22.9202,25.093 C23.8482,25.335 24.5022,25.631 24.8862,25.981 C25.3622,26.415 25.6002,27.009 25.6002,27.761 C25.6002,28.525 25.3562,29.165 24.8662,29.683 C24.5562,30.015 24.2102,30.257 23.8342,30.411 C23.4562,30.565 22.9822,30.657 22.4082,30.685 L22.4082,31.999 L21.6242,31.999 L21.6242,30.679 C20.7142,30.627 20.0022,30.397 19.4882,29.987 C18.7742,29.413 18.4102,28.603 18.4022,27.559 L20.2402,27.559 C20.2302,28.587 20.6942,29.149 21.6242,29.249 L21.6242,26.511 C20.7622,26.269 20.1662,26.053 19.8382,25.865 C19.4202,25.623 19.1142,25.337 18.9202,25.007 C18.7242,24.677 18.6282,24.277 18.6282,23.805 C18.6282,23.283 18.7642,22.819 19.0342,22.411 C19.3062,22.003 19.6942,21.687 20.1942,21.463 C20.5522,21.303 21.0302,21.205 21.6242,21.165 L21.6242,19.999 L22.4082,19.999 L22.4082,21.165 C23.3262,21.213 24.0322,21.467 24.5302,21.931 C25.0222,22.395 25.2782,23.041 25.2942,23.871 L23.5402,23.871 C23.5242,23.085 23.1462,22.645 22.4082,22.549 L22.4082,22.549 Z"/>
  </g>
</svg>
