<svg xmlns="http://www.w3.org/2000/svg" width="48" height="48" version="1.1" viewBox="0 0 48 48">
  <path fill="none" fill-rule="evenodd" stroke="#000" stroke-width="2" d="M13.705,15.7056 C13.305,16.9236 12.999,18.5396 12.999,19.9996 L12.999,31.9996 C12.999,31.9996 12.915,36.9996 7.999,36.9996 L34.999,36.9996 M35,29.9994 L35,20.0354 C35,14.3954 30.772,9.4534 25.146,9.0414 C22.18,8.8274 19.002,9.7134 17,10.9994 M27,9.3724 L27,7.0004 L21,7.0004 L21,9.3724 M19,36.9994 C19,39.7614 21.238,40.9994 24,40.9994 C26.762,40.9994 29,39.7614 29,36.9994 M8,10.0004 L38,40.0004"/>
</svg>
