<svg xmlns="http://www.w3.org/2000/svg" width="48" height="48" viewBox="0 0 48 48">
  <path fill="none" stroke="#000" stroke-width="2" d="M23,39 L11,39 L7,23 L27,23 L23,39 Z M25.5,29 L18,29 M35,6 L35,25 M33,34 L33,39 M37,32 L37,39 M9,23 C9,20.792 10.792,19 13,19 C15.208,19 17,20.792 17,23 M23,17 C23,18.104 22.104,19 21,19 C19.896,19 19,18.104 19,17 C19,15.896 19.896,15 21,15 C22.104,15 23,15.896 23,17 Z M13,14 C13,14.552 12.552,15 12,15 C11.448,15 11,14.552 11,14 C11,13.448 11.448,13 12,13 C12.552,13 13,13.448 13,14 Z M35,25 C31.686,25 29,27.686 29,31 L29,39 L41,39 L41,31 C41,27.686 38.314,25 35,25 Z"/>
</svg>
