<svg xmlns="http://www.w3.org/2000/svg" width="48" height="48" viewBox="0 0 48 48"><path fill="none" stroke="#000" stroke-width="2" d="M12.0002,6 C12.0002,9.314 9.3142,12 6.0002,12 C2.6862,12 0.0002,9.314 0.0002,6 C0.0002,2.686 2.6862,0 6.0002,0 C9.3142,0 12.0002,2.686 12.0002,6 Z M3.0002,6 L5.0002,8 L9.0002,4 M38.0002,32 C38.0002,35.314 35.3142,38 32.0002,38 C28.6862,38 26.0002,35.314 26.0002,32 C26.0002,28.686 28.6862,26 32.0002,26 C35.3142,26 38.0002,28.686 38.0002,32 Z M29.0002,32 L31.0002,34 L35.0002,30 M23.9994,17.9992 C23.9994,21.3132 21.3134,23.9992 17.9994,23.9992 C14.6854,23.9992 11.9994,21.3132 11.9994,17.9992 C11.9994,14.6852 14.6854,11.9992 17.9994,11.9992 C21.3134,11.9992 23.9994,14.6852 23.9994,17.9992 Z M14.9994,17.9992 L16.9994,19.9992 L20.9994,15.9992 M12.0002,6 L34.0002,6 C36.2102,6 38.0002,7.79 38.0002,10 L38.0002,14 C38.0002,16.208 36.2082,18 34.0002,18 L24.0002,18 M12,18 L4,18 C1.79,18 0,19.79 0,22 L0,28 C0,30.21 1.79,32 4,32 L26,32" transform="translate(5 5)"/></svg>