<svg xmlns="http://www.w3.org/2000/svg" width="48" height="48" viewBox="0 0 48 48"><path fill="none" stroke="#000" stroke-width="2" d="M5,29 L43.5,29 L43.5,23 L5,23 L5,29 Z M15,23 L15,29 M19.0002,23 L19.0002,29 M38.5,23 L38.5,29 M39,19 C36.794,19 35,17.206 35,15 C35,14.518 35.088,14.044 35.256,13.6 C33.846,12.468 33,10.756 33,8.938 C33,5.628 35.692,2.938 39,2.938 C42.308,2.938 45,5.628 45,8.938 C45,10.756 44.154,12.468 42.744,13.6 C42.912,14.044 43,14.518 43,15 C43,17.206 41.206,19 39,19 Z"/></svg>