<svg xmlns="http://www.w3.org/2000/svg" width="48" height="48" version="1.1" viewBox="0 0 48 48">
  <g fill="none" fill-rule="evenodd" stroke="none" stroke-width="1">
    <path fill="#000" d="M24.8702,32.169 C25.9662,32.161 26.8622,31.817 27.5622,31.143 C28.2602,30.467 28.6082,29.603 28.6082,28.545 C28.6082,27.461 28.3082,26.603 27.7022,25.975 C27.0982,25.347 26.1562,24.915 24.8702,24.679 L24.8702,32.169 Z M23.3142,15.235 C22.3982,15.263 21.6802,15.457 21.1622,15.815 C20.2362,16.457 19.7722,17.381 19.7722,18.591 C19.7722,19.535 20.0622,20.281 20.6382,20.827 C21.2142,21.377 22.1042,21.753 23.3142,21.961 L23.3142,15.235 Z M17.0122,27.637 L19.4182,27.637 C19.4182,30.509 20.7182,32.019 23.3142,32.169 L23.3142,24.339 C21.8702,24.095 20.6522,23.655 19.6602,23.023 C18.1502,22.069 17.3942,20.657 17.3942,18.789 C17.3942,17.193 17.9302,15.893 19.0002,14.887 C20.0742,13.881 21.5102,13.337 23.3142,13.251 L23.3142,10.717 L24.8702,10.717 L24.8702,13.251 C26.6642,13.393 28.0242,13.923 28.9482,14.837 C29.9502,15.819 30.4402,17.113 30.4202,18.717 L28.0422,18.717 C27.8922,16.481 26.8342,15.323 24.8702,15.249 L24.8702,22.343 C26.0622,22.645 26.8842,22.877 27.3422,23.037 C27.8002,23.197 28.2282,23.405 28.6242,23.659 C30.2002,24.679 30.9882,26.231 30.9882,28.317 C30.9882,30.469 30.1102,32.109 28.3542,33.231 C27.5142,33.771 26.3522,34.081 24.8702,34.167 L24.8702,37.283 L23.3142,37.283 L23.3142,34.167 C21.1902,34.035 19.6122,33.401 18.5842,32.269 C17.5262,31.099 17.0022,29.555 17.0122,27.637 L17.0122,27.637 Z"/>
    <path stroke="#000" stroke-width="2" d="M43,24 C43,34.494 34.494,43 24,43 C13.506,43 5,34.494 5,24 C5,13.506 13.506,5 24,5 C34.494,5 43,13.506 43,24 Z M18,10.2568 C13.9,12.0488 10.78,15.6268 9.566,20.0008"/>
  </g>
</svg>
