<svg xmlns="http://www.w3.org/2000/svg" width="48" height="48" viewBox="0 0 48 48"><path fill="none" stroke="#000" stroke-width="2" d="M27,12 C27,13.656 25.656,15 24,15 C22.344,15 21,13.656 21,12 C21,10.344 22.344,9 24,9 C25.656,9 27,10.344 27,12 Z M17,18 C17,19.656 15.656,21 14,21 C12.344,21 11,19.656 11,18 C11,16.344 12.344,15 14,15 C15.656,15 17,16.344 17,18 Z M25,36 C25,37.656 23.656,39 22,39 C20.344,39 19,37.656 19,36 C19,34.344 20.344,33 22,33 C23.656,33 25,34.344 25,36 Z M41,20 L41,40 C41,41.656 39.656,43 38,43 L38,43 C36.344,43 35,41.656 35,40 L35,20 M35,19.9774 C33.792,19.0654 33,17.6314 33,15.9994 C33,15.9994 32.268,6.4994 41,4.9994 C41,4.9994 38.354,9.0714 42.116,13.1674 C42.672,13.9734 43,14.9474 43,15.9994 C43,17.6314 42.208,19.0654 41,19.9774 L35,19.9774 Z M35,25 L41,25 M32,6.8304 C29.708,5.7384 27.186,5.0804 24.538,5.0084 C15.238,4.7504 7.394,11.1784 5.458,19.8364 C4.994,21.9084 6.336,23.8704 8.36,24.5204 C12.23,25.7624 15,29.0904 15,33.0004 C15,34.1004 14.774,35.1504 14.366,36.1204 C13.534,38.0984 14.278,40.4484 16.234,41.3304 C18.604,42.4004 21.23,43.0004 24,43.0004 C26.862,43.0004 29.566,42.3504 32,41.2184"/></svg>