<svg xmlns="http://www.w3.org/2000/svg" width="48" height="48" viewBox="0 0 48 48"><path fill="none" stroke="#000" stroke-width="2" d="M17,4 C17,6.33 15.33,8 13,8 C10.67,8 9,6.33 9,4 C9,1.67 10.67,0 13,0 C15.33,0 17,1.67 17,4 Z M9,4 L0,4 M17,4 L40,4 M40,16 L31,16 C31,13.74 29.26,12 27,12 C24.74,12 23,13.74 23,16 L0,16 M17,28 C17,30.296 15.296,32 13,32 C10.704,32 9,30.296 9,28 C9,25.704 10.704,24 13,24 C15.296,24 17,25.704 17,28 Z M9,28 L0,28 M17,28 L22.048,28 M26,35 L40,21 M40,35 L26,21" transform="translate(4 9)"/></svg>