<svg xmlns="http://www.w3.org/2000/svg" width="48" height="48" version="1.1" viewBox="0 0 48 48">
  <path fill="none" fill-rule="evenodd" stroke="#000" stroke-width="2" d="M16.7168,31.6796 C18.2668,35.5976 18.2988,41.6076 15.8748,42.8036 C13.5748,43.9396 8.7668,39.9636 7.6968,33.8676 M22.9316,26.373 C23.9716,25.099 25.1216,23.921 26.3876,22.879 C26.8716,22.481 27.0936,21.849 26.9336,21.243 L22.9736,6.197 C22.7456,5.333 21.8476,4.799 21.0056,5.073 C13.4656,7.505 7.5076,13.483 5.0716,21.057 C4.7976,21.915 5.3376,22.823 6.2036,23.043 L21.3216,26.919 C21.9196,27.075 22.5396,26.853 22.9316,26.373 Z M26.4014,19.2208 C26.6374,20.1188 27.6414,20.5508 28.4494,20.1028 C29.1814,19.7028 29.9574,19.3688 30.7734,19.1068 C31.2594,18.9528 31.6394,18.5708 31.7534,18.0708 L33.9514,8.4888 C34.1214,7.7508 33.6994,6.9788 32.9754,6.7788 C30.2434,6.0308 27.3774,5.8748 24.5754,6.3408 C23.7654,6.4748 23.2694,7.3228 23.4794,8.1208 M18.337,26.1542 C19.231,26.3822 19.669,27.3882 19.233,28.2062 C18.841,28.9462 18.517,29.7322 18.267,30.5542 C18.117,31.0442 17.741,31.4322 17.245,31.5522 L7.747,33.8562 C7.013,34.0322 6.243,33.6162 6.039,32.8882 C5.269,30.1482 5.087,27.2642 5.521,24.4422 C5.647,23.6222 6.483,23.1142 7.281,23.3202 M33.9414,8.5332 C39.9854,9.5552 43.9154,14.3272 42.8154,16.6532 C41.6574,19.0992 35.7594,19.1672 31.8474,17.6612"/>
</svg>
