<svg xmlns="http://www.w3.org/2000/svg" width="48" height="48" version="1.1" viewBox="0 0 48 48">
  <path fill="none" fill-rule="evenodd" stroke="#000" stroke-width="2" d="M5,24 C5,13.506 13.506,5 24,5 C34.494,5 43,13.506 43,24 C43,34.494 34.494,43 24,43 C13.506,43 5,34.494 5,24 Z M24,10.246 L24,12.776 M22.4278,15.1328 L23.9998,12.7748 L25.5718,15.1328 M21.5176,11.9472 L23.9996,12.7752 L26.4816,11.9472 M32,13.5332 L32,16.0632 M30.4278,18.42 L31.9998,16.062 L33.5718,18.42 M29.5176,15.2344 L31.9996,16.0624 L34.4816,15.2344 M35,21.4708 L35,24.0008 M33.4278,26.3574 L34.9998,23.9994 L36.5718,26.3574 M32.5176,23.1718 L34.9996,23.9998 L37.4816,23.1718 M32,29.4082 L32,31.9382 M30.4278,34.295 L31.9998,31.937 L33.5718,34.295 M29.5176,31.1094 L31.9996,31.9374 L34.4816,31.1094 M24,32.6954 L24,35.2254 M22.4278,37.584 L23.9998,35.224 L25.5718,37.584 M21.5176,34.3984 L23.9996,35.2244 L26.4816,34.3984 M16,29.4082 L16,31.9382 M14.4278,34.295 L15.9998,31.937 L17.5718,34.295 M13.5176,31.1094 L15.9996,31.9374 L18.4816,31.1094 M13,21.4708 L13,24.0008 M11.4278,26.3574 L12.9998,23.9994 L14.5718,26.3574 M10.5176,23.1718 L12.9996,23.9998 L15.4816,23.1718 M16,13.5332 L16,16.0632 M14.4278,18.42 L15.9998,16.062 L17.5718,18.42 M13.5176,15.2344 L15.9996,16.0624 L18.4816,15.2344"/>
</svg>
