<svg xmlns="http://www.w3.org/2000/svg" width="48" height="48" viewBox="0 0 48 48"><path fill="none" stroke="#000" stroke-width="2" d="M35,17 L13,17 L13,5 L18,8 L21,5 L24,8 L27,5 L30,8 L35,5 L35,17 Z M29.46,24.46 C28.7,24.46 28.1,25.06 28.1,25.82 C28.1,26.58 28.7,27.18 29.46,27.18 C30.2,27.18 30.82,26.58 30.82,25.82 C30.82,25.06 30.2,24.46 29.46,24.46 Z M18.54,24.46 C17.8,24.46 17.18,25.06 17.18,25.82 C17.18,26.58 17.8,27.18 18.54,27.18 C19.3,27.18 19.9,26.58 19.9,25.82 C19.9,25.06 19.3,24.46 18.54,24.46 Z M16.52,33 C18.12,35.42 20.88,37 24,37 C27.12,37 29.88,35.42 31.48,33 M13,17 C10.038,19.74 9,23.648 9,28 C9,36.284 15.716,43 24,43 C32.284,43 39,36.284 39,28 C39,23.648 37.962,19.74 35,17"/></svg>