<svg xmlns="http://www.w3.org/2000/svg" width="48" height="48" version="1.1" viewBox="0 0 48 48">
  <path fill="none" fill-rule="evenodd" stroke="#000" stroke-width="2" d="M6.6162,16.4702 C10.2342,14.2822 14.4622,13.0002 18.9982,13.0002 C27.9022,13.0002 35.6562,17.8602 39.7982,25.0622 M39.709,18.2026 C34.585,12.5626 27.219,8.9986 18.999,8.9986 C15.289,8.9986 11.755,9.7386 8.515,11.0466 M6.5088,27.015 C9.4408,23.353 13.9428,20.999 19.0008,20.999 C27.7948,20.999 34.9268,28.099 34.9948,36.881 M38.1876,31.394 C35.7636,23.08 28.0976,17 18.9996,17 C14.0356,17 9.5036,18.818 6.0076,21.812 M11.0118,36.8842 C11.0738,32.5202 14.6218,29.0002 18.9998,29.0002 C23.4178,29.0002 26.9998,32.5822 26.9998,37.0002 L26.9998,42.3922 M31,40.5268 L31,37.0008 C31,30.3728 25.626,25.0008 19,25.0008 C14.138,25.0008 9.96,27.8988 8.074,32.0568 M23,42.9994 L23,36.9994 C23,34.7914 21.208,32.9994 19,32.9994 C16.79,32.9994 15,34.7914 15,36.9994 L15,40.5274 M19,35.9994 L19,41.9994 M15.4472,5.2064 C16.6132,5.0764 17.7972,4.9984 18.9972,4.9984 C24.9372,4.9984 30.4832,6.6344 35.2452,9.4564"/>
</svg>
