<svg xmlns="http://www.w3.org/2000/svg" width="48" height="48" version="1.1" viewBox="0 0 48 48">
  <path fill="none" fill-rule="evenodd" stroke="#000" stroke-width="2" d="M28,44 L30,39 M40,39 L42,44 M43,31 L27,31 M40,21 L30,21 M43,39 L27,39 L27,28.076 C27,26.376 28.378,25 30.078,25 L39.922,25 C41.622,25 43,26.376 43,28.076 L43,39 Z M38.5986,34.8086 C38.5986,34.4786 38.3306,34.2086 38.0006,34.2086 C37.6686,34.2086 37.4006,34.4786 37.4006,34.8086 C37.4006,35.1386 37.6686,35.4086 38.0006,35.4086 C38.3306,35.4086 38.5986,35.1386 38.5986,34.8086 Z M32.5986,34.8086 C32.5986,34.4786 32.3306,34.2086 32.0006,34.2086 C31.6686,34.2086 31.4006,34.4786 31.4006,34.8086 C31.4006,35.1386 31.6686,35.4086 32.0006,35.4086 C32.3306,35.4086 32.5986,35.1386 32.5986,34.8086 Z M35,22.7442 L35,25.0002 L35,22.7442 L35,21.0002 L35,22.7442 Z M6.2266,27.1582 L9.0226,23.4182 L12.3826,22.6022 L17.6506,24.4182 L19.1046,26.8382 L22.5106,25.6922 L24.0006,26.1802 M22.0176,36.9688 C21.6816,36.9888 21.3396,37.0008 20.9976,37.0008 C12.1616,37.0008 4.9976,29.8368 4.9976,21.0008 C4.9976,12.1648 12.1616,5.0008 20.9976,5.0008 C28.6316,5.0008 35.0176,10.3448 36.6136,17.4988 M12.1104,7.6934 L14.1744,8.9854 L16.8384,8.9854 L17.7844,5.3214 M29.5176,7.455 L26.9136,9.347 L25.3136,11.901 L20.6556,11.073 L17.2936,14.613 L12.6356,16.579 L11.8456,17.793 L16.4756,19.247 L23.5176,17.911 L24.7616,18.537 L25.9996,21.999"/>
</svg>
