<svg xmlns="http://www.w3.org/2000/svg" width="48" height="48" version="1.1" viewBox="0 0 48 48">
  <path fill="none" fill-rule="evenodd" stroke="#000" stroke-width="2" d="M22.002,25 C20.346,25 19.002,23.658 19.002,22 M7,13 L4,13 M41,17 L7,17 M9,37.002 C9,38.108 9.896,39.002 11,39.002 L15,39.002 C16.104,39.002 17,38.108 17,37.002 L19,21 L39,21 L41,17 L41.002,13 C41.002,11.896 40.108,11 39.002,11 L9,11 C7.896,11 7,11.896 7,13 L7,19.002 C7,20.106 7.896,21.002 9,21.002 L11,21 L9,37.002 Z M18,28.999 L18,28.999 C17.894,28.999 25.798,30.827 26.9,20.999 M41,13 L43,13 L43,15 L41,15 M39,8 L39,11"/>
</svg>
