<svg xmlns="http://www.w3.org/2000/svg" width="48" height="48" viewBox="0 0 48 48">
  <path fill="none" stroke="#000" stroke-width="2" d="M29.125,28.5098 L32.667,24.9818 C33.447,24.1998 33.447,22.9318 32.667,22.1498 C31.883,21.3678 30.615,21.3678 29.833,22.1498 L26.291,25.6958 L36.909,15.0818 C37.691,14.2998 37.691,13.0318 36.909,12.2498 C36.127,11.4678 34.857,11.4678 34.077,12.2498 L21.001,24.9998 L21.005,19.0038 C21.005,17.8958 20.109,16.9998 19.003,16.9998 C17.897,16.9998 17.311,17.8098 17.001,19.0038 L12.999,32.9998 L22.909,43.5038 C22.909,43.5038 26.391,42.5658 30.545,38.4118 C34.699,34.2578 35.497,33.4678 35.497,33.4678 C36.279,32.6878 36.279,31.4178 35.497,30.6358 C34.715,29.8538 33.445,29.8538 32.665,30.6358 L31.957,31.3418 L34.083,29.2178 C34.863,28.4358 34.863,27.1678 34.083,26.3858 C33.299,25.6038 32.031,25.6038 31.249,26.3858 M23,14 L23,4 M28,12 L32,6 M18,12 L14,6"/>
</svg>
