<svg xmlns="http://www.w3.org/2000/svg" width="48" height="48" viewBox="0 0 48 48"><path fill="none" stroke="#000" stroke-width="2" d="M12.7227114,29.0562 L3.25071137,22.4402 C2.39071137,21.7482 1.13071137,21.8862 0.440711372,22.7482 C-0.251288628,23.6102 -0.113288628,24.8682 0.748711372,25.5602 L12.6007114,36.0002 L20.4847114,36.0002 L22.5007114,38.0002 L37.4007114,38.0002 L27.3427114,27.8722 C25.0707114,25.6862 22.1767114,24.0562 19.2187114,24.0002 L15.0007114,24.0002 C11.0307114,24.0002 10.9367114,30.0002 15.0007114,30.0002 L19.0007114,30.0002 M9.99971137,2.012 L18.9997114,0 L27.9997114,2 C27.9997114,15 18.9997114,20 18.9997114,20 C18.9997114,20 9.99971137,15 9.99971137,2.012 Z M15.5997114,8.4998 L18.0997114,10.9998 L23.0997114,5.9998" transform="translate(5 5)"/></svg>