<svg xmlns="http://www.w3.org/2000/svg" width="48" height="48" viewBox="0 0 48 48">
  <path fill="none" stroke="#000" stroke-width="2" d="M40.3984,15.5522 C39.0064,11.7142 35.3404,9.0002 31.0004,9.0002 C27.6964,9.0002 24.8184,10.5942 23.0064,13.0362 C21.1884,10.5942 18.3024,9.0002 15.0004,9.0002 C9.4464,9.0002 4.9884,13.4422 4.9884,18.9942 C4.9884,20.7342 5.4264,22.3682 6.1984,23.7882 C6.6364,24.5942 7.1584,25.3302 7.7824,25.9802 L23.0004,41.2002 L38.1984,26.0002 C38.5584,25.5642 39.4104,24.4642 39.6904,23.9702 C40.5244,22.5082 41.0004,20.8102 41.0004,18.9942 C41.0004,17.7822 40.7884,16.6242 40.3984,15.5522 Z"/>
</svg>
