<svg xmlns="http://www.w3.org/2000/svg" width="48" height="48" viewBox="0 0 48 48">
  <path fill="none" stroke="#000" stroke-width="2" d="M29,18.9994 L29,9.9994 C29,7.2374 26.762,4.9994 24,4.9994 C21.238,4.9994 19,7.2374 19,9.9994 L19,18.9994 L15,42.9994 L33,42.9994 L29,18.9994 Z M10,42.9994 L38,42.9994 M16,18.9994 L32,18.9994 M36,14.9994 L40,14.9994 M42,14.9994 L44,14.9994 M36,10.9994 L43,6.9994 M36,18.9994 L43,22.9994 M12,14.9994 L8,14.9994 M6,14.9994 L4,14.9994 M12,10.9994 L5,6.9994 M12,18.9994 L5,22.9994 M16,10.9994 L32,10.9994"/>
</svg>
