<svg xmlns="http://www.w3.org/2000/svg" width="48" height="48" viewBox="0 0 48 48"><path fill="none" stroke="#000" stroke-width="2" d="M24.8962,20.4856 C34.0542,20.3376 44.0002,17.9996 44.0002,17.9996 M4,17.9998 C4,17.9998 12.566,20.0138 21.116,20.4218 M20.9998,35.0008 C20.9998,33.8968 20.1038,33.0008 18.9998,33.0008 C17.8958,33.0008 16.9998,33.8968 16.9998,35.0008 L16.9998,42.0008 M25.0002,31.0004 C25.0002,29.8964 25.8962,29.0004 27.0002,29.0004 C28.1042,29.0004 29.0002,29.8964 29.0002,31.0004 L29.0002,38.0004 M29.0006,33.0006 C29.0006,31.8966 29.8966,31.0006 31.0006,31.0006 C32.1046,31.0006 33.0006,31.8966 33.0006,33.0006 L33.0006,40.0006 M33.0008,35.0008 C33.0008,33.8968 33.8968,33.0008 35.0008,33.0008 C36.1048,33.0008 37.0008,33.8968 37.0008,35.0008 L37.0008,42.0008 M25,26.9252 C32.066,26.1712 44,17.9992 44,17.9992 C44,17.9992 33.172,12.9992 29,12.9992 C24.828,12.9992 24.392,14.9992 24,14.9992 C23.608,14.9992 23.172,12.9992 19,12.9992 C14.828,12.9992 4,17.9992 4,17.9992 C4,17.9992 13.894,24.7792 21,26.5652 M25,35.9998 L25,20.9998 C25,19.8958 24.104,18.9998 23,18.9998 C21.896,18.9998 21,19.8958 21,20.9998 L21,37.9998"/></svg>