<?xml version="1.0" encoding="UTF-8"?>
<svg width="48px" height="48px" viewBox="0 0 48 48" version="1.1" xmlns="http://www.w3.org/2000/svg" xmlns:xlink="http://www.w3.org/1999/xlink">
    <title>KOM/non-responsive/large/010-Basic/low-vision-large</title>
    <g id="KOM/non-responsive/large/010-Basic/low-vision-large" stroke="none" stroke-width="1" fill="none" fill-rule="evenodd">
        <g id="Group" stroke="#000000" stroke-width="2">
            <g id="KOM/responsive/small/010-Basic/low-vision-small">
                <path d="M14.4456,16.446 C10.6896,19.118 7.9856,22.596 6.9996,24 C8.4876,26.2 15.4996,35 23.9996,35 C26.5456,35 28.9316,34.224 31.0776,33.078 M35.3138,30.1796 C38.1458,27.7916 40.1758,25.1736 40.9998,23.9996 C39.5118,21.7996 32.4998,12.9996 23.9998,12.9996 C22.2778,12.9996 20.6318,13.3636 19.0798,13.9456 M30.764,25.7132 C30.904,25.1612 31,24.5952 31,23.9992 C31,20.1332 27.866,16.9992 24,16.9992 C23.406,16.9992 22.838,17.0972 22.286,17.2352 M24.931,34.931 L10.181,20.181 M8,10 L38,40" id="Combined-Shape"></path>
            </g>
        </g>
    </g>
</svg>