<svg xmlns="http://www.w3.org/2000/svg" width="48" height="48" version="1.1" viewBox="0 0 48 48">
  <path fill="none" fill-rule="evenodd" stroke="#000" stroke-width="2" d="M35,35 L43,35 L43,15 L35,15 L35,35 Z M37,14.997 L37,10.997 L41,10.997 L41,14.997 M15.3594,29.2226 C12.9894,31.5926 9.1494,31.5926 6.7794,29.2226 C4.4094,26.8526 4.4094,23.0126 6.7794,20.6426 L20.6474,6.7766 C23.0154,4.4066 26.8574,4.4066 29.2274,6.7766 C31.5954,9.1446 31.5954,12.9866 29.2274,15.3546 L15.3594,29.2226 Z M19,27.001 C18.458,27.001 17.932,27.057 17.42,27.161 L15.36,29.223 C14.456,30.125 13.336,30.679 12.168,30.895 C11.442,32.097 11,33.493 11,35.001 C11,39.419 14.582,43.001 19,43.001 C23.418,43.001 27,39.419 27,35.001 C27,30.583 23.418,27.001 19,27.001 Z M22.336,22.331 L13.67,13.665 M34,43 L44,43 M39,10.999 L39.002,3.999 M39,43 L39.002,35 M35,31 L40,31 M35,27 L40,27 M35,23 L40,23 M35,18.999 L40,18.999 M10.998,35.004 L26.998,35.004"/>
</svg>
