<svg xmlns="http://www.w3.org/2000/svg" width="48" height="48" version="1.1" viewBox="0 0 48 48">
  <path fill="none" fill-rule="evenodd" stroke="#000" stroke-width="2" d="M16.1796,6.4492 L14.2936,11.7412 C13.8836,12.8912 14.4636,14.1272 15.5716,14.6152 C23.6736,18.1832 30.1176,24.8632 33.4156,33.1792 C33.8656,34.3152 35.0676,34.9392 36.2176,34.5592 L41.5076,32.8052 C42.6556,32.4232 43.2976,31.1472 42.8636,30.0052 C38.5916,18.7832 29.9196,9.7992 18.9856,5.1592 C17.8716,4.6872 16.5896,5.3012 16.1796,6.4492 Z M25,30 C25,31.656 23.658,33 22,33 C20.342,33 19,31.656 19,30 C19,28.344 20.342,27 22,27 C23.658,27 25,28.344 25,30 Z M14.9814,14.2442 L5.0774,41.2562 C4.7174,42.2802 5.6794,43.2742 6.6974,42.9322 L33.8174,33.8542 M12.9042,19.9082 C14.1642,20.4942 15.0382,21.7822 15.0382,23.2762 C15.0382,25.3202 13.4002,26.9782 11.3762,26.9782 C11.0262,26.9782 10.6862,26.9302 10.3642,26.8362 M11.1748,41.4336 C11.0288,41.0596 10.9508,40.6496 10.9527625,40.2256 C10.9628,38.4376 12.4028,36.9956 14.1708,37.0076 C15.6428,37.0156 16.8788,38.0296 17.2408,39.4016"/>
</svg>
