<svg xmlns="http://www.w3.org/2000/svg" width="48" height="48" version="1.1" viewBox="0 0 48 48">
  <path fill="none" fill-rule="evenodd" stroke="#000" stroke-width="2" d="M23.997,32.7714 C20.997,32.7114 18.123,31.5574 15.939,29.5314 L23.997,21.6074 L32.057,29.5314 C29.871,31.5574 26.999,32.7114 23.997,32.7714 Z M11.333,20.3154 C11.259,19.2974 11.507,18.2794 12.041,17.4014 C12.577,16.5254 13.373,15.8314 14.323,15.4134 C15.673,14.9574 17.481,15.2574 19.609,17.1174 L12.223,24.3814 C11.661,23.0954 11.357,21.7154 11.333,20.3154 Z M33.673,15.4094 C34.623,15.8254 35.419,16.5214 35.955,17.3974 C36.489,18.2774 36.737,19.2974 36.661,20.3154 C36.637,21.7154 36.335,23.0954 35.771,24.3814 L28.387,17.1094 C29.035,16.3894 29.865,15.8494 30.795,15.5534 C31.725,15.2534 32.717,15.2074 33.673,15.4134 L33.673,15.4094 Z M40.497,29.0274 C42.073,26.3834 42.933,23.3834 42.993,20.3154 C43.073,17.9974 42.417,15.7134 41.117,13.7794 C39.815,11.8434 37.933,10.3574 35.733,9.5214 C31.865,8.2234 27.649,9.3854 23.997,12.6274 C20.343,9.3854 16.125,8.2234 12.267,9.5234 C10.067,10.3594 8.185,11.8454 6.883,13.7814 C5.583,15.7154 4.927,17.9994 5.007,20.3174 C5.067,23.3854 5.927,26.3854 7.503,29.0294 L5.933,30.5734 C5.351,31.1594 5.025,31.9494 5.031,32.7674 C5.035,33.5874 5.369,34.3734 5.957,34.9534 C6.547,35.5334 7.347,35.8614 8.179,35.8654 C9.013,35.8694 9.815,35.5514 10.411,34.9774 L11.451,33.9534 C14.827,37.1474 19.315,38.9534 23.997,38.9994 C28.683,38.9534 33.173,37.1474 36.549,33.9514 L37.589,34.9754 C38.187,35.5374 38.985,35.8474 39.813,35.8374 C40.639,35.8274 41.431,35.5014 42.015,34.9254 C42.601,34.3514 42.933,33.5714 42.943,32.7594 C42.953,31.9454 42.637,31.1594 42.065,30.5714 L40.497,29.0274 Z"/>
</svg>
