<svg xmlns="http://www.w3.org/2000/svg" width="48" height="48" version="1.1" viewBox="0 0 48 48">
  <path fill="none" fill-rule="evenodd" stroke="#000" stroke-width="2" d="M13,31 L37,31 L37,13 L13,13 L13,31 Z M13,17 L9,17 L9,25 L13,25 M27,7 C27,5.896 26.104,5 25,5 C23.896,5 23,5.896 23,7 C23,8.104 23.896,9 25,9 C26.104,9 27,8.104 27,7 Z M25,13 L25,9 M37,17 L41,17 L41,25 L37,25 M43,44 L43,38.35 C43,36.5 41.406,35 39.438,35 L10.562,35 C8.596,35 7,36.5 7,38.35 L7,44 M19,24 C20.004,25.77 22.27,27 25,27 C27.73,27 29.996,25.77 31,24 M21.6,20 C21.6,20.332 21.332,20.6 21,20.6 C20.668,20.6 20.4,20.332 20.4,20 C20.4,19.668 20.668,19.4 21,19.4 C21.332,19.4 21.6,19.668 21.6,20 Z M29.6,20 C29.6,20.332 29.332,20.6 29,20.6 C28.668,20.6 28.4,20.332 28.4,20 C28.4,19.668 28.668,19.4 29,19.4 C29.332,19.4 29.6,19.668 29.6,20 Z"/>
</svg>
