<svg xmlns="http://www.w3.org/2000/svg" width="48" height="48" version="1.1" viewBox="0 0 48 48">
  <path fill="none" fill-rule="evenodd" stroke="#000" stroke-width="2" d="M20,16.9974 L26,16.9974 M15,16.9956 L15,40.9976 C15,42.1036 15.896,42.9976 17,42.9976 L29,42.9976 C30.104,42.9976 31,42.1036 31,40.9976 L31,16.9976 C31,15.8936 30.106,14.9976 29,14.9976 L17,14.9956 C15.896,14.9956 15,15.8916 15,16.9956 Z M12,16.2142 L6.16,18.3382 C5.252,18.6702 4.778,19.6602 5.102,20.5482 L12,39.5022 M34,39.5034 L40.898,20.5494 C41.222,19.6614 40.748,18.6714 39.84,18.3414 L34,16.2134 M34,3.9994 L37,8.9994 L32,11.9994 M14,11.9994 L9,8.9994 L12,3.9994 M9,8.9994 C13.412,7.6634 18.152,6.9994 23,6.9994 C27.82,6.9994 32.61,7.6774 37,8.9994"/>
</svg>
