<svg xmlns="http://www.w3.org/2000/svg" width="48" height="48" viewBox="0 0 48 48">
  <path fill="none" stroke="#000" stroke-width="2" d="M4,43 L44,43 M23,43 L23,18 M23,32 L30,24 M23,26 L18,22 M40.0156,22.2958 C40.6356,21.3518 40.9996,20.2278 40.9996,19.0158 C40.9996,15.7018 38.3136,13.0158 34.9996,13.0158 C34.2356,13.0158 33.5116,13.1718 32.8396,13.4338 C32.0776,8.6678 27.9796,5.0158 22.9996,5.0158 C17.4776,5.0158 12.9996,9.4938 12.9996,15.0158 C12.9996,15.7298 13.0796,16.4218 13.2236,17.0938 C8.6216,17.4938 4.9996,21.3118 4.9996,26.0158 C4.9996,30.9858 9.0296,35.0158 13.9996,35.0158 L35.9996,35.0158 C39.8656,35.0158 42.9996,31.8818 42.9996,28.0158 C42.9996,25.6478 41.8156,23.5618 40.0156,22.2958 Z"/>
</svg>
