<svg xmlns="http://www.w3.org/2000/svg" width="48" height="48" viewBox="0 0 48 48">
  <g fill="none" fill-rule="evenodd">
    <path stroke="#000" stroke-width="2" d="M7,7 L7,43 L41,43 L41,7 L29,7 L29,5 L19,5 L19,7 L7,7 Z M29,7 L29,9 L19,9 L19,7"/>
    <path fill="#000" d="M22.61,33.566 L25.142,33.566 L25.142,31.128 L22.61,31.128 L22.61,33.566 Z M18.616,21.708 C18.67,20.254 18.956,19.128 19.47,18.332 C19.948,17.598 20.58,17.032 21.37,16.632 C22.158,16.234 23.044,16.036 24.03,16.036 C25.616,16.036 26.876,16.484 27.814,17.382 C28.69,18.21 29.126,19.3 29.126,20.652 C29.126,21.77 28.83,22.73 28.236,23.536 C27.97,23.902 27.334,24.578 26.326,25.562 C25.88,25.992 25.57,26.35 25.394,26.634 C25.218,26.92 25.096,27.274 25.026,27.696 C24.948,28.118 24.908,28.664 24.908,29.336 L22.916,29.336 C22.932,28.14 23.038,27.254 23.232,26.676 C23.374,26.254 23.574,25.874 23.836,25.54 C24.098,25.204 24.678,24.574 25.576,23.652 C26.154,23.058 26.534,22.524 26.712,22.046 C26.862,21.64 26.936,21.226 26.936,20.804 C26.936,20.024 26.72,19.368 26.292,18.836 C25.776,18.188 25.014,17.864 24.006,17.864 C21.92,17.864 20.794,19.144 20.63,21.708 L18.616,21.708 Z"/>
  </g>
</svg>
