<svg xmlns="http://www.w3.org/2000/svg" width="24" height="24" viewBox="0 0 24 24">
  <g fill="none" fill-rule="evenodd">
    <path fill="#2D327D" d="M22.5000001,0 L1.50000001,0 C0.675000003,0 0,0.675000003 0,1.50000001 L0,22.5000001 C0,23.3250009 0.675000003,24.0000001 1.50000001,24.0000001 L22.5000001,24.0000001 C23.3250009,24.0000001 24.0000001,23.3250009 24.0000001,22.5000001 L24.0000001,1.50000001 C24.0000001,0.675000003 23.3250009,0 22.5000001,0 Z"/>
    <path fill="#FFF" d="M1.125,6.00000002 L2.43750001,8.05499943 L7.12500003,7.87500003 L6.00000002,0 L7.84500033,0 L10.4775009,7.87500003 L16.8750001,7.87500003 C17.4974996,7.87500003 18.0000001,8.37749963 18.0000001,9.00000004 C18.0000001,9.62250044 17.4974996,10.125 16.8750001,10.125 L10.4775,10.125 L7.84500033,18.0000001 L6.00000002,18.0000001 L7.12500003,10.125 L2.43750001,9.94500064 L1.125,12 L0,12 L0.750000003,9.00000004 L0,6.00000002 L1.125,6.00000002 Z" transform="translate(3 3)"/>
  </g>
</svg>
