<svg xmlns="http://www.w3.org/2000/svg" width="24" height="24" viewBox="0 0 24 24">
  <g fill="none" fill-rule="evenodd">
    <path fill="#2D327D" d="M22.5000001,0 L1.50000001,0 C0.675000003,0 0,0.675000003 0,1.50000001 L0,22.5000001 C0,23.3250009 0.675000003,24.0000001 1.50000001,24.0000001 L22.5000001,24.0000001 C23.3250009,24.0000001 24.0000001,23.3250009 24.0000001,22.5000001 L24.0000001,1.50000001 C24.0000001,0.675000003 23.3250009,0 22.5000001,0 Z"/>
    <path fill="#FFF" d="M16.8750001,6.00000002 L15.5625001,8.05499943 L10.875,7.87500003 L12,0 L10.1549997,0 L7.52249913,7.87500003 L1.125,7.87500003 C0.502499802,7.87500003 0,8.37749963 0,9.00000004 C0,9.62250044 0.502499802,10.125 1.125,10.125 L7.52250003,10.125 L10.1549997,18.0000001 L12,18.0000001 L10.875,10.125 L15.5625001,9.94500064 L16.8750001,12 L18.0000001,12 L17.2500001,9.00000004 L18.0000001,6.00000002 L16.8750001,6.00000002 Z" transform="translate(3 3)"/>
  </g>
</svg>
