<svg xmlns="http://www.w3.org/2000/svg" width="24" height="24" viewBox="0 0 24 24">
  <g fill="none" fill-rule="evenodd">
    <path fill="#2D327D" d="M22.5000001,0 L1.50000001,0 C0.675000003,0 0,0.675000003 0,1.50000001 L0,22.5000001 C0,23.3250009 0.675000003,24.0000001 1.50000001,24.0000001 L22.5000001,24.0000001 C23.3250009,24.0000001 24.0000001,23.3250009 24.0000001,22.5000001 L24.0000001,1.50000001 C24.0000001,0.675000003 23.3250009,0 22.5000001,0 Z"/>
    <g fill="#FFF" transform="translate(3 3)">
      <polygon points="15.712 2.618 18 3 18 3.683 15.712 3.3"/>
      <polygon points="14.288 2.385 14.288 3.068 0 .682 0 0"/>
      <path fill-rule="nonzero" d="M12.7500001,8.25000003 C12.3374997,8.25000003 12.0000001,8.58749964 12.0000001,9.00000004 L12.0000001,13.3500005 C12.0000001,13.4474984 12.0075007,13.5450002 12.0299998,13.6425 L12.7799998,17.3925 C12.847499,17.7450009 13.1549988,17.9925004 13.5149995,17.9925004 L16.4849988,17.9925004 C16.8449975,17.9925004 17.1524983,17.7374993 17.2199975,17.3925 L17.9699975,13.6425 C17.9849988,13.5450002 17.9999982,13.4474984 17.9999982,13.3500005 L17.9999982,9.00000004 C17.9999982,8.58749964 17.6624986,8.25000003 17.2499982,8.25000003 L15.3374978,8.25000003 L15.3374978,1.72499991 L14.6624986,1.72499991 L14.6624986,8.25000003 L12.7500001,8.25000003 Z M12.7500001,13.1250001 L12.7500001,9.37500004 C12.7500001,9.16500004 12.9150001,9.00000004 13.1250001,9.00000004 L16.8750001,9.00000004 C17.0775014,9.00000004 17.2500001,9.16500004 17.2500001,9.37500004 L17.2500001,13.1250001 C17.2500001,13.3349992 17.0849992,13.5000001 16.8750001,13.5000001 L13.1250001,13.5000001 C12.9150001,13.5000001 12.7500001,13.3349992 12.7500001,13.1250001 Z"/>
    </g>
  </g>
</svg>
