<svg xmlns="http://www.w3.org/2000/svg" width="48" height="48" viewBox="0 0 48 48">
  <g fill="none" fill-rule="evenodd">
    <path fill="#000" d="M25.961,26 C26.931,26 27.741,26.26 28.389,26.776 C29.095,27.336 29.449,28.09 29.449,29.042 C29.449,29.866 29.169,30.578 28.601,31.176 C28.419,31.374 28.245,31.53 28.083,31.646 C27.921,31.764 27.497,32.05 26.809,32.498 C26.153,32.926 25.685,33.254 25.401,33.48 C25.119,33.708 24.859,33.966 24.615,34.262 L29.501,34.262 L29.501,36 L22.001,36 C22.001,35.468 22.091,34.962 22.277,34.482 C22.459,34.004 22.717,33.588 23.049,33.24 C23.305,32.974 23.605,32.712 23.951,32.46 C24.293,32.206 24.979,31.74 26.003,31.064 C26.503,30.736 26.851,30.436 27.049,30.154 C27.251,29.874 27.349,29.548 27.349,29.18 C27.349,28.752 27.215,28.406 26.945,28.14 C26.677,27.876 26.327,27.744 25.889,27.744 C24.815,27.744 24.265,28.466 24.229,29.914 L22.231,29.914 L22.231,29.702 C22.231,28.516 22.583,27.598 23.291,26.952 C23.977,26.316 24.869,26 25.961,26 Z M16,14 L16,24 L13.708,24 L13.708,17.454 L11,17.454 L11,16.002 C11.564,15.99 12.02,15.942 12.376,15.854 C12.728,15.766 13.05,15.624 13.346,15.43 C13.77,15.146 14.054,14.668 14.2,14 L16,14 Z"/>
    <path stroke="#000" stroke-width="2" d="M9,11 C6.792,11 5,12.792 5,15 L5,35 C5,37.208 6.792,39 9,39 L39,39 C41.208,39 43,37.208 43,35 L43,15 C43,12.792 41.208,11 39,11 L9,11 Z M12,34 L28,16"/>
  </g>
</svg>
