<svg xmlns="http://www.w3.org/2000/svg" width="48" height="48" version="1.1" viewBox="0 0 48 48">
  <path fill="#000" fill-rule="evenodd" stroke="none" stroke-width="1" d="M26.004,40.002 L26.004,42.002 L24.002,42.002 L24.002,40.002 L26.004,40.002 Z M15.998,37.998 L15.998,42.002 L13.998,42.002 L13.998,37.998 L15.998,37.998 Z M22,40.002 L22,42.002 L17.998,42.002 L17.998,40.002 L22,40.002 Z M38.002,32 L38.002,35.996 L40.002,35.996 L40.002,37.996 L38.002,37.996 L38.002,36 L36.002,36 L36.002,39.996 L38.002,39.996 L38.002,41.996 L34.002,41.996 L34.002,37.996 L32.002,37.996 L32.002,40.002 L30.002,40.002 L30.002,42.002 L28.002,42.002 L28.002,38.002 L30.002,38.002 L30.002,36.002 L36.002,35.996 L36.002,32 L38.002,32 Z M42.002,39.996 L42.002,41.996 L40.002,41.996 L40.002,39.996 L42.002,39.996 Z M19.999,33.996 L20.001,35.996 L22.001,35.996 L22.001,37.996 L17.999,37.996 L17.999,36 L15.999,36 L15.999,34 L17.999,34 L17.999,33.996 L19.999,33.996 Z M28.004,35.996 L28.004,37.996 L24.002,37.996 L24.002,35.996 L28.004,35.996 Z M8,30 L8,34 L6,34 L6,30 L8,30 Z M42.002,30 L42.002,34 L40.002,34 L40.002,30 L42.002,30 Z M20,30 L20,32 L15.998,32 L15.998,33.996 L13.998,33.996 L13.998,31.996 L15.998,31.996 L15.998,30 L20,30 Z M34,21.994 L34,33.994 L22,33.994 L22,21.994 L34,21.994 Z M32,23.992 L24,23.992 L24,31.992 L32,31.992 L32,23.992 Z M42.002,26 L42.002,28 L40.002,28 L40.002,29.996 L36.002,29.996 L36.002,27.996 L40.002,27.996 L40.002,26 L42.002,26 Z M20,26 L20,28 L15.998,28 L15.998,29.996 L13.998,29.996 L13.998,27.996 L15.998,27.996 L15.998,26 L20,26 Z M30,25.994 L30,29.994 L26,29.994 L26,25.994 L30,25.994 Z M10.002,26 L10.002,28 L8,28 L8,26 L10.002,26 Z M42.002,22 L42.002,24 L40.002,24 L40.002,25.996 L36.002,25.996 L36.002,23.996 L40.002,23.996 L40.002,22 L42.002,22 Z M10.002,22 L10.002,24 L8,24 L8,25.994 L6,25.994 L6,23.992 L8,23.992 L8,22 L10.002,22 Z M20,19.996 L20,21.996 L17.998,21.996 L17.998,23.994 L13.998,23.994 L13.998,21.994 L17.998,21.994 L17.998,19.996 L20,19.996 Z M38.002,15.996 L38.002,19.996 L40.002,19.996 L40.002,21.996 L36.002,22 L36.002,18 L34.002,17.996 L34.002,15.996 L38.002,15.996 Z M10.002,18 L10.002,20 L8,20 L8,21.996 L6,21.996 L6,19.996 L8,19.996 L8,18 L10.002,18 Z M28.002,16 L28.002,20 L26.002,20 L26.002,19.996 L24.002,19.996 L24.002,17.996 L26.002,17.996 L26.002,16 L28.002,16 Z M17.999,13.9922 L17.999,15.9922 L15.999,15.9922 L15.999,20.0002 L13.999,20.0002 L13.999,13.9922 L17.999,13.9922 Z M32,14 L32,17.996 L34,17.996 L34,19.996 L32,19.996 L32,18 L30,18 L30,14 L32,14 Z M26.001,13.996 L26.001,15.996 L21.999,15.996 L21.999,18 L17.999,18 L17.999,16 L19.999,16 L19.999,14 L20.001,14 L20.001,13.996 L26.001,13.996 Z M42.002,13.9952 L42.002,17.9952 L40.002,17.9952 L40.002,15.9952 L38.002,15.9952 L38.002,13.9952 L42.002,13.9952 Z M10.002,13.992 L10.002,15.992 L6,15.992 L6,13.992 L10.002,13.992 Z M9.999,5.991 L9.999,7.991 L7.999,7.991 L7.999,11.999 L5.999,11.999 L5.999,5.991 L9.999,5.991 Z M20,7.998 L20,9.998 L17.998,9.998 L17.998,7.998 L20,7.998 Z M24.002,5.998 L24.002,9.998 L22.002,9.998 L22.002,5.998 L24.002,5.998 Z M17.999,5.9942 L17.999,7.9942 L13.999,7.9942 L13.999,9.9982 L9.999,9.9982 L9.999,7.9982 L11.999,7.9982 L11.999,5.9942 L17.999,5.9942 Z M34.002,5.9942 L34.002,9.9942 L32.002,9.9942 L32.002,7.9942 L30.002,7.9942 L30.002,9.994 L26.002,9.994 L26.002,7.992 L30.002,7.992 L30.002,5.9942 L34.002,5.9942 Z"/>
</svg>
