<svg xmlns="http://www.w3.org/2000/svg" width="48" height="48" version="1.1" viewBox="0 0 48 48">
  <path fill="#000" fill-rule="evenodd" stroke="none" stroke-width="1" d="M20,28 L28,28 L28,20 L20,20 L20,28 Z M18,30 L30,30 L30,18 L18,18 L18,30 Z M22,26 L26,26 L26,22 L22,22 L22,26 Z M13.998,7.992 L20,7.992 L20,5.99 L13.998,5.99 L13.998,7.992 Z M13.998,11.9994 L13.998,9.9994 L9.998,9.9994 L9.998,11.9994 L11.998,12.0054 L11.998,16.0054 L13.998,16.0054 L13.998,14.0054 L17.998,14.0054 L17.998,12.0014 L21.998,12.0014 L21.998,10.0014 L17.998,10.0014 L17.998,10.0054 L15.998,10.0054 L15.998,12.0054 L13.998,12.0054 L13.998,11.9994 Z M13.998,17.9994 L10,17.9994 L10,13.9994 L8,13.9994 L8,11.9994 L6,11.9994 L6,15.9994 L8,15.9994 L8,17.9994 L9.998,17.9994 L9.998,19.9994 L13.998,19.9994 L13.998,17.9994 Z M23.999,10.0062 L25.999,10.0062 L25.999,10.0022 L25.999,8.0022 L25.999,6.0062 L23.999,6.0062 L23.999,8.0022 L21.999,8.0022 L21.999,10.0022 L23.999,10.0022 L23.999,10.0062 Z M40,14.006 L42,14.006 L42,12.004 L40,12.004 L40,14.006 Z M36,24.0072 L38,24.0072 L38,22.0072 L36,22.0072 L36,24.0032 L32,24.0032 L32,26.0032 L36,26.0032 L36,24.0072 Z M7.998,8.0062 L11.998,7.9902 L11.998,5.9902 L5.998,5.9902 L5.998,7.9902 L5.998,8.0062 L5.998,10.0062 L7.998,10.0062 L7.998,8.0062 Z M36,26.0072 L36,30.0072 L38,30.0072 L38,28.0072 L40,28.0072 L40,30.0072 L42,30.0072 L42,26.0072 L36,26.0072 Z M25.999,10.0062 L25.999,14.0062 L27.999,14.0062 L27.999,12.0062 L33.999,12.0022 L33.999,10.0022 L35.999,10.0022 L35.999,8.0022 L33.999,8.0022 L33.999,6.0062 L31.999,6.0062 L31.999,10.0022 L29.999,10.0022 L29.999,8.0062 L27.999,8.0062 L27.999,10.0062 L25.999,10.0062 Z M32,14.0072 L32,18.0072 L34,18.0072 L34,18.0032 L36,18.0032 L36,16.0032 L34,16.0032 L34,14.0072 L32,14.0072 Z M34,42.01 L36,42.01 L36,38.01 L34,38.01 L34,42.01 Z M40,40.0034 L38,40.0034 L38,42.0034 L40,42.0034 L40,42.0094 L42,42.0094 L42,38.0094 L40,38.0094 L40,40.0034 Z M40,10.0062 L42,10.0062 L42,6.0062 L40,6.0062 L40,6.0022 L36,6.0022 L36,8.0022 L40,8.0022 L40,10.0062 Z M40,30.0072 L38,30.0072 L38,36.0032 L36,36.0032 L36,38.0032 L40,38.0032 L40,36.0032 L42,36.0032 L42,34.0032 L40,34.0032 L40,30.0072 Z M40,24.008 L42,24.008 L42,20.006 L40,20.006 L40,24.008 Z M34,14.002 L38,14.002 L38,12.002 L34,12.002 L34,14.002 Z M38,16.0024 L38,20.0064 L40,20.0064 L40,18.0064 L42,18.0024 L42,16.0024 L38,16.0024 Z M22,42.004 L26,42.004 L26,40.002 L22,40.002 L22,42.004 Z M19.999,16.0024 L21.999,16.0024 L21.999,16.0064 L23.999,16.0064 L23.999,16.0024 L23.999,14.0024 L23.999,12.0064 L21.999,12.0064 L21.999,14.0024 L19.999,14.0024 L19.999,16.0024 Z M19.999,38.0034 L17.999,38.0034 L17.999,40.0034 L19.999,40.0034 L19.999,40.0094 L21.999,40.0094 L21.999,40.0034 L21.999,38.0034 L21.999,36.0094 L19.999,36.0094 L19.999,38.0034 Z M30,38.0092 L28,38.0092 L28,42.0092 L30,42.0092 L30,42.0032 L32,42.0032 L32,40.0032 L30,40.0032 L30,38.0092 Z M15.998,30.0034 L11.998,30.0074 L11.998,32.0074 L13.998,32.0074 L13.998,34.0034 L17.998,34.0034 L17.998,32.0034 L15.998,32.0034 L15.998,30.0034 Z M20,34.004 L24,34.004 L24,32.004 L20,32.004 L20,34.004 Z M32,22.002 L36,22.002 L36,20.002 L32,20.002 L32,22.002 Z M5.998,36.002 L7.998,36.002 L7.998,34.002 L5.998,34.002 L5.998,36.002 Z M9.998,26.002 L12,26.002 L12,24.002 L9.998,24.002 L9.998,26.002 Z M13.998,18.002 L15.998,18.002 L15.998,16.002 L13.998,16.002 L13.998,18.002 Z M28,16.004 L30,16.004 L30,14.002 L28,14.002 L28,16.004 Z M7.998,24.002 L9.998,24.002 L9.998,22.002 L7.998,22.002 L7.998,24.002 Z M5.998,22.002 L7.998,22.002 L7.998,18.002 L5.998,18.002 L5.998,22.002 Z M5.998,28.004 L7.998,28.004 L7.998,24.002 L5.998,24.002 L5.998,28.004 Z M9.998,36.006 L14,36.006 L14,34.006 L9.998,34.006 L9.998,36.006 Z M9.998,28.0034 L7.998,28.0034 L7.998,30.0034 L5.998,30.0074 L5.998,32.0074 L9.998,32.0074 L9.998,28.0034 Z M13.998,38.0034 L13.998,38.0074 L13.998,38.0094 L11.998,38.0094 L11.998,40.0094 L13.998,40.0094 L13.998,42.0034 L15.998,42.0034 L15.998,38.0074 L17.998,38.0074 L17.998,36.0074 L13.998,36.0074 L13.998,38.0034 Z M7.998,38.0034 L5.998,38.0034 L5.998,42.0034 L7.998,42.0034 L7.998,42.0094 L11.998,42.0094 L11.998,40.0094 L7.998,40.0094 L7.998,38.0034 Z M11.998,28.008 L15.998,28.008 L15.998,26.008 L11.998,26.008 L11.998,28.008 Z M11.998,24.008 L15.998,24.008 L15.998,22.008 L11.998,22.008 L11.998,24.008 Z M34,34.004 L36,34.004 L36,32.004 L34,32.004 L34,34.004 Z M28,34.0034 L30,34.0034 L30,38.0034 L34,38.0034 L34,36.0034 L32,36.0034 L32,32.0074 L34,32.0074 L34,28.0074 L32,28.0074 L32,32.0034 L26,32.0074 L26,34.0074 L24,34.0074 L24,38.0074 L26,38.0074 L26,36.0074 L28,36.0074 L28,34.0034 Z"/>
</svg>
