<svg xmlns="http://www.w3.org/2000/svg" width="48" height="48" viewBox="0 0 48 48">
  <path fill="none" stroke="#000" d="M43.5,14.5 L43.5,10.5 L24.005,7.5 L4.5,10.5 L4.5,14.5 L43.5,14.5 Z M4,41.5 L44,41.5 M41.5,14.5 L41.5,17.5 L6.5,17.5 L6.5,14.5 M6.5,39.5 L6.5,37.5 L41.5,37.5 L41.5,39.5 M5.5,41.5 L5.5,39.5 L42.5,39.5 L42.5,41.5 M12.5,37.5 L12.5,17.5 M8.5,17.5 L8.5,37.5 M35.5,17.5 L35.5,37.5 M39.5,37.5 L39.5,17.5 M30.5,37.5 L30.5,17.5 M26.5,17.5 L26.5,37.5 M21.5,37.5 L21.5,17.5 M17.5,17.5 L17.5,37.5"/>
</svg>
