<svg xmlns="http://www.w3.org/2000/svg" width="48" height="48" viewBox="0 0 48 48">
  <g fill="none" fill-rule="evenodd">
    <path stroke="#000" d="M3.5,40.0002 L3.5,31.5002 L12,31.5002 M44.5,24.0002 C44.455,35.3682 35.09,44.5432 23.37,44.5003505 C15.191,44.4702 7.559,39.7712 4.065,32.5982 C3.906,32.2612 3.745,31.8512 3.624,31.5002 M44.5,8.0002 L44.5,16.5002 L36,16.5002 M3.5,24.0002 C3.521,12.6452 12.962,3.4792 24.71,3.50016399 C32.968,3.5152 40.449,8.0082 43.933,15.2462 C44.117,15.6332 44.295,16.0952 44.428,16.5002 M24,12.5002 C30.351,12.5002 35.5,17.6492 35.5,24.0002 C35.5,30.3532 30.351,35.5002 24,35.5002 C17.65,35.5002 12.5,30.3532 12.5,24.0002 C12.5,17.6492 17.65,12.5002 24,12.5002 Z M14.5,24.0002 C14.5,18.7622 18.762,14.5002 24,14.5002"/>
    <path fill="#000" d="M20.7285,24.4426 L20.7285,24.3936 L20.7285,24.1026 C20.7285,24.0326 20.7325,23.8646 20.7425,23.6006 L20.7495,23.5496 L19.5955,23.5496 L19.9705,22.6726 L20.8485,22.6726 C20.9285,22.1966 21.0445,21.7496 21.1955,21.3356 C21.8235,19.5926 22.9705,18.7216 24.6365,18.7216 C25.8115,18.7216 26.8785,19.0966 27.8365,19.8466 L27.3335,20.9956 C26.9095,20.7126 26.5815,20.5016 26.3495,20.3646 C25.7835,20.0386 25.2055,19.8766 24.6155,19.8766 C23.5345,19.8766 22.7865,20.5146 22.3715,21.7946 C22.2675,22.1106 22.1935,22.4036 22.1515,22.6726 L26.5975,22.6726 L26.2075,23.5496 L22.0315,23.5496 C22.0215,23.8096 22.0165,24.0056 22.0165,24.1376 C22.0165,24.2046 22.0195,24.3056 22.0235,24.4426 L25.8265,24.4426 L25.4365,25.3206 L22.1235,25.3206 C22.2075,25.8066 22.3495,26.2596 22.5475,26.6796 C22.7885,27.1746 23.0765,27.5326 23.4115,27.7496 C23.7605,27.9756 24.1785,28.0886 24.6655,28.0886 C25.0665,28.0886 25.4225,28.0326 25.7345,27.9196 C26.0455,27.8056 26.5795,27.5416 27.3335,27.1266 L27.3335,28.5346 C27.1215,28.6576 26.9925,28.7306 26.9445,28.7546 C26.2505,29.1036 25.4575,29.2786 24.5655,29.2786 C22.4655,29.2786 21.2115,27.9596 20.8065,25.3206 L19.5955,25.3206 L19.9705,24.4426 L20.7285,24.4426 Z"/>
  </g>
</svg>
