<svg xmlns="http://www.w3.org/2000/svg" width="48" height="48" viewBox="0 0 48 48">
  <path fill="none" stroke="#000" d="M13.5,24 C13.5,26.485 11.485,28.5 9,28.5 C6.515,28.5 4.5,26.485 4.5,24 C4.5,21.515 6.515,19.5 9,19.5 C11.485,19.5 13.5,21.515 13.5,24 Z M28.5,39 C28.5,41.485 26.485,43.5 24,43.5 C21.515,43.5 19.5,41.485 19.5,39 C19.5,36.515 21.515,34.5 24,34.5 C26.485,34.5 28.5,36.515 28.5,39 Z M43.5,24 C43.5,26.485 41.485,28.5 39,28.5 C36.515,28.5 34.5,26.485 34.5,24 C34.5,21.515 36.515,19.5 39,19.5 C41.485,19.5 43.5,21.515 43.5,24 Z M28.5,9 C28.5,11.485 26.485,13.5 24,13.5 C21.515,13.5 19.5,11.485 19.5,9 C19.5,6.515 21.515,4.5 24,4.5 C26.485,4.5 28.5,6.515 28.5,9 Z M18.1543,23.8848 L22.0003,28.9998 L31.0003,18.9998 M28.7363,9.2373 C33.5413,10.7773 37.3243,14.5973 38.8133,19.4253 M9.1509,19.542 C10.6339,14.594 14.5229,10.686 19.4589,9.176 M19.5293,38.8457 C14.6023,37.3647 10.7093,33.4967 9.1903,28.5867 M38.8018,28.6143 C37.2888,33.4693 33.4538,37.3013 28.5958,38.8073"/>
</svg>
