<svg xmlns="http://www.w3.org/2000/svg" width="48" height="48" viewBox="0 0 48 48">
  <g fill="none" fill-rule="evenodd">
    <path fill="#000" d="M14.2156,28.4316 C15.6266,28.4316 16.6296,28.9466 17.2246,29.9756 C17.4936,30.4476 17.6256,31.0336 17.6206,31.7316 L16.3606,31.7316 C16.3316,31.2456 16.2356,30.8366 16.0696,30.5066 C15.9186,30.2006 15.6776,29.9576 15.3446,29.7776 C15.0116,29.5976 14.6306,29.5076 14.2006,29.5076 C13.6056,29.5076 13.1186,29.6736 12.7386,30.0036 C12.3586,30.3346 12.1686,30.7566 12.1686,31.2716 C12.1686,31.6686 12.2846,32.1046 12.5166,32.5816 L12.9336,33.3806 L15.3406,33.3806 L15.3406,34.2586 L13.3506,34.2586 C13.4646,34.5986 13.5206,34.8866 13.5206,35.1236 C13.5206,35.4346 13.4746,35.7126 13.3836,35.9586 C13.2906,36.2046 13.1296,36.4776 12.8976,36.7796 C12.7186,37.0106 12.5066,37.2356 12.2616,37.4526 C12.0766,37.6126 11.9426,37.7336 11.8576,37.8136 C12.2396,37.6336 12.5406,37.5146 12.7606,37.4566 C12.9796,37.3966 13.2306,37.3676 13.5146,37.3676 C13.7736,37.3676 13.9956,37.3876 14.1796,37.4276 C14.3636,37.4676 14.7386,37.5776 15.3056,37.7566 C15.4846,37.8136 15.6896,37.8416 15.9216,37.8416 C16.4316,37.8416 16.8936,37.6686 17.3086,37.3246 L17.9256,38.2806 C17.6886,38.4986 17.3896,38.6696 17.0256,38.7966 C16.6626,38.9246 16.2896,38.9886 15.9076,38.9886 C15.6426,38.9886 15.4246,38.9696 15.2526,38.9316 C15.0796,38.8946 14.7506,38.7946 14.2646,38.6346 C13.7216,38.4506 13.2596,38.3586 12.8766,38.3586 C12.6216,38.3586 12.3966,38.3966 12.2006,38.4716 C12.0046,38.5466 11.7296,38.7006 11.3756,38.9316 L10.7036,37.9056 C11.0956,37.6176 11.3856,37.3606 11.5746,37.1336 C12.0506,36.5626 12.2896,35.9696 12.2896,35.3566 C12.2896,35.0116 12.1976,34.6466 12.0136,34.2586 L10.6536,34.2586 L10.6536,33.3806 L11.5596,33.3806 C11.2906,32.9186 11.1106,32.5456 11.0186,32.2626 C10.9266,31.9796 10.8806,31.6586 10.8806,31.2996 C10.8806,30.3656 11.2656,29.6176 12.0346,29.0546 C12.6056,28.6396 13.3326,28.4316 14.2156,28.4316 Z M31.3845,28.6366 L33.7635,33.4086 L36.1135,28.6366 L37.4595,28.6366 L35.2075,32.8986 L36.9985,32.8986 L36.9985,33.7776 L34.7335,33.7776 L34.3445,34.5416 L34.3445,35.4126 L36.6875,35.4126 L36.6875,36.2916 L34.3445,36.2916 L34.3445,38.7836 L33.1045,38.7836 L33.1045,36.2916 L30.7265,36.2916 L30.7265,35.4126 L33.1045,35.4126 L33.1045,34.5416 L32.7015,33.7776 L30.4145,33.7776 L30.4145,32.8986 L32.2335,32.8986 L29.9615,28.6366 L31.3845,28.6366 Z M34.1455,7.6482 L34.1455,8.9152 C35.0425,8.9862 35.7225,9.2512 36.1845,9.7082 C36.6855,10.1992 36.9305,10.8462 36.9205,11.6482 L35.7315,11.6482 C35.6565,10.5302 35.1275,9.9512 34.1455,9.9142 L34.1455,13.4612 C34.7415,13.6122 35.1525,13.7282 35.3815,13.8082 C35.6105,13.8882 35.8245,13.9922 36.0225,14.1192 C36.8105,14.6292 37.2045,15.4052 37.2045,16.4482 C37.2045,17.5242 36.7655,18.3442 35.8875,18.9052 C35.4675,19.1752 34.8865,19.3302 34.1455,19.3732 L34.1455,20.9312 L33.3675,20.9312 L33.3675,19.3732 C32.3055,19.3072 31.5165,18.9902 31.0025,18.4242 C30.4735,17.8392 30.2115,17.0672 30.2165,16.1082 L31.4195,16.1082 C31.4195,17.5442 32.0695,18.2992 33.3675,18.3742 L33.3675,14.4592 C32.6455,14.3372 32.0365,14.1172 31.5405,13.8012 C30.7855,13.3242 30.4075,12.6182 30.4075,11.6842 C30.4075,10.8862 30.6755,10.2362 31.2105,9.7332 C31.7475,9.2302 32.4655,8.9582 33.3675,8.9152 L33.3675,7.6482 L34.1455,7.6482 Z M14.8753,9.0106 C16.0503,9.0106 17.1173,9.3856 18.0753,10.1356 L17.5723,11.2846 C17.1483,11.0016 16.8203,10.7906 16.5883,10.6536 C16.0223,10.3276 15.4443,10.1656 14.8543,10.1656 C13.7733,10.1656 13.0253,10.8036 12.6103,12.0836 C12.5063,12.3996 12.4323,12.6926 12.3903,12.9616 L16.8363,12.9616 L16.4463,13.8386 L12.2703,13.8386 C12.2603,14.0986 12.2553,14.2946 12.2553,14.4266 C12.2553,14.4936 12.2583,14.5946 12.2623,14.7316 L16.0653,14.7316 L15.6753,15.6096 L12.3623,15.6096 C12.4463,16.0956 12.5883,16.5486 12.7863,16.9686 C13.0273,17.4636 13.3153,17.8216 13.6503,18.0386 C13.9993,18.2646 14.4173,18.3776 14.9043,18.3776 C15.3043,18.3776 15.6613,18.3216 15.9723,18.2086 C16.2843,18.0946 16.8183,17.8306 17.5723,17.4156 L17.5723,18.8236 C17.3603,18.9466 17.2313,19.0196 17.1833,19.0436 C16.4893,19.3926 15.6963,19.5676 14.8043,19.5676 C12.7043,19.5676 11.4503,18.2486 11.0453,15.6096 L9.8343,15.6096 L10.2093,14.7316 L10.9673,14.7316 L10.9673,14.3916 C10.9673,14.3216 10.9713,14.1536 10.9813,13.8896 L10.9883,13.8386 L9.8343,13.8386 L10.2093,12.9616 L11.0873,12.9616 C11.1673,12.4856 11.2833,12.0386 11.4343,11.6246 C12.0623,9.8816 13.2093,9.0106 14.8753,9.0106 Z M34.1455,14.6292 L34.1455,18.3742 C34.6935,18.3702 35.1415,18.1982 35.4915,17.8612 C35.8405,17.5232 36.0145,17.0912 36.0145,16.5622 C36.0145,16.0202 35.8645,15.5912 35.5615,15.2772 C35.2595,14.9632 34.7885,14.7472 34.1455,14.6292 Z M33.3675,9.9072 C32.9095,9.9212 32.5505,10.0182 32.2915,10.1972 C31.8285,10.5182 31.5965,10.9802 31.5965,11.5852 C31.5965,12.0572 31.7415,12.4302 32.0295,12.7032 C32.3175,12.9782 32.7625,13.1662 33.3675,13.2702 L33.3675,9.9072 Z"/>
    <path stroke="#000" d="M5.5,14.0002 C5.5,9.3132 9.313,5.5002 14,5.5002 M5.5,33.0002 C5.5,28.3132 9.313,24.5002 14,24.5002 M24,8.9514 C25.909,5.6904 29.449,3.5004 33.5,3.5004 C39.575,3.5004 44.5,8.4254 44.5,14.5004 C44.5,20.5754 39.575,25.5004 33.5,25.5004 C29.449,25.5004 25.909,23.3094 24,20.0494 M39.0474,23.9992 C42.3094,25.9082 44.5004,29.4482 44.5004,33.5002 C44.5004,39.5752 39.5754,44.5002 33.5004,44.5002 C27.4244,44.5002 22.5004,39.5752 22.5004,33.5002 C22.5004,29.4482 24.6904,25.9082 27.9524,23.9992 M24.001,39.0471 C22.092,42.3091 18.552,44.5001 14.5,44.5001 C8.425,44.5001 3.5,39.5751 3.5,33.5001 C3.5,27.4251 8.425,22.5001 14.5,22.5001 C18.552,22.5001 22.093,24.6921 24.001,27.9531 M8.9536,24.0012 C5.6916,22.0932 3.4996,18.5522 3.4996,14.5002 C3.4996,8.4252 8.4246,3.5002 14.4996,3.5002 C20.5756,3.5002 25.4996,8.4252 25.4996,14.5002 C25.4996,18.5522 23.3086,22.0932 20.0466,24.0012 M24.9854,11.1672 C26.1544,7.8682 29.3054,5.5002 33.0004,5.5002 M24.5,33.0002 C24.5,29.3062 26.869,26.1542 30.167,24.9852"/>
  </g>
</svg>
