<svg xmlns="http://www.w3.org/2000/svg" width="48" height="48" viewBox="0 0 48 48">
  <path fill="none" stroke="#000" d="M25,39.4997 L6.5,39.4997 L6.5,5.4997 L23.5,5.4997 L30.5,12.4997 L30.5,24.9997 M24,35.4997 C22.799,35.4787 22.126,33.7297 21.172,33.8787 C19.798,34.0927 18.261,36.5627 17.334,36.0337 C16.782,35.7187 17.925,33.4347 16.418,33.3467 C15.543,33.2957 13.902,36.7387 12.876,36.4307 C11.96,36.1557 13.222,32.7917 12.387,32.3497 C11.237,31.7377 10,34.9997 10,34.9997 M30.5,12.5002 L23.5,12.5002 L23.5,5.5002 M34,27.4997 C38.143,27.4997 41.5,30.8577 41.5,34.9997 C41.5,39.1427 38.143,42.4997 34,42.4997 C29.857,42.4997 26.5,39.1427 26.5,34.9997 C26.5,30.8577 29.857,27.4997 34,27.4997 Z M39,35.4997 L33.5,35.4997 L33.5,29.9997 M10,12.5002 L21,12.5002 M10,18.4997 L27,18.4997 M10,15.4997 L27,15.4997 M10,22.4997 L18,22.4997 M10,25.4997 L27,25.4997 M10,28.4997 L27,28.4997"/>
</svg>
