<svg xmlns="http://www.w3.org/2000/svg" width="48" height="48" viewBox="0 0 48 48">
  <g fill="none" fill-rule="evenodd">
    <polygon fill="#000" points="18.75 37.25 21.6 37.25 17.8 33.687 22.313 33.687 22.313 37.25 24.687 37.25 24.687 33.687 29.2 33.687 25.4 37.25 28.25 37.25 33 32.5 28.25 27.75 25.4 27.75 29.2 31.313 24.687 31.313 24.687 27.75 22.313 27.75 22.313 31.313 17.8 31.313 21.6 27.75 18.75 27.75 14 32.5"/>
    <path stroke="#000" d="M29.5,19.5 L29.5,13.5 M17.5,19.5 L17.5,13.5 M5.5,19.5 L41.5,19.5 L41.5,13.5 L5.5,13.5 L5.5,19.5 Z M39.5,19.5 L39.5,45.5 L7.5,45.5 L7.5,19.5 M23.5,13.5 L23.5,6.5 C23.5,4.291 21.709,2.5 19.5,2.5 C17.291,2.5 15.5,4.291 15.5,6.5 C15.5,7.22 15.706,7.886 16.039,8.47 L19.5,13.5 M23.5,6.5 C23.5,4.291 25.291,2.5 27.5,2.5 C29.709,2.5 31.5,4.291 31.5,6.5 C31.5,7.22 31.295,7.886 30.962,8.47 L27.5,13.5"/>
  </g>
</svg>
