<svg xmlns="http://www.w3.org/2000/svg" width="48" height="48" viewBox="0 0 48 48">
  <g fill="none" fill-rule="evenodd">
    <path fill="#000" d="M18.2227,16.0837 L18.2227,16.0347 L18.2227,15.7437 C18.2227,15.6737 18.2267,15.5057 18.2367,15.2417 L18.2437,15.1907 L17.0897,15.1907 L17.4647,14.3137 L18.3427,14.3137 C18.4227,13.8377 18.5387,13.3907 18.6897,12.9767 C19.3177,11.2337 20.4647,10.3627 22.1307,10.3627 C23.3057,10.3627 24.3727,10.7377 25.3307,11.4877 L24.8277,12.6367 C24.4037,12.3537 24.0757,12.1427 23.8437,12.0057 C23.2777,11.6797 22.6997,11.5177 22.1097,11.5177 C21.0287,11.5177 20.2807,12.1557 19.8657,13.4357 C19.7617,13.7517 19.6877,14.0447 19.6457,14.3137 L24.0917,14.3137 L23.7017,15.1907 L19.5257,15.1907 C19.5157,15.4507 19.5107,15.6467 19.5107,15.7787 C19.5107,15.8457 19.5137,15.9467 19.5177,16.0837 L23.3207,16.0837 L22.9307,16.9617 L19.6177,16.9617 C19.7017,17.4477 19.8437,17.9007 20.0417,18.3207 C20.2827,18.8157 20.5707,19.1737 20.9057,19.3907 C21.2547,19.6167 21.6727,19.7297 22.1597,19.7297 C22.5597,19.7297 22.9167,19.6737 23.2277,19.5607 C23.5397,19.4467 24.0737,19.1827 24.8277,18.7677 L24.8277,20.1757 C24.6157,20.2987 24.4867,20.3717 24.4387,20.3957 C23.7447,20.7447 22.9517,20.9197 22.0597,20.9197 C19.9597,20.9197 18.7057,19.6007 18.3007,16.9617 L17.0897,16.9617 L17.4647,16.0837 L18.2227,16.0837 Z"/>
    <path stroke="#000" d="M21.5,4.5002 L23.5,4.5002 C29.574,4.5002 34.5,9.4262 34.5,15.5002 C34.5,21.5762 29.574,26.5002 23.5,26.5002 L21.5,26.5002 M31.2998,10.5002 L33.2998,10.5002 M32.5,15.5002 L34.5,15.5002 M31.3008,20.5002 L33.3008,20.5002 M21.5,4.5002 C27.574,4.5002 32.5,9.4262 32.5,15.5002 C32.5,21.5762 27.574,26.5002 21.5,26.5002 C15.426,26.5002 10.5,21.5762 10.5,15.5002 C10.5,9.4262 15.426,4.5002 21.5,4.5002 Z M12.5,16.0002 C12.5,10.7542 16.754,6.5002 22,6.5002 M17.9932,34.5197 L8.2522,27.9407 C7.3902,27.2487 6.1312,27.3857 5.4402,28.2487 C4.7492,29.1107 4.8872,30.3697 5.7482,31.0607 L17.5992,41.4987 L25.4842,41.4987 L27.5002,43.4987 L42.4002,43.4987 L32.3442,35.3737 C30.2692,33.6667 27.9062,31.5617 24.2192,31.4987 L20.0002,31.4987 C16.9372,31.4987 16.9372,35.4987 20.0002,35.4987 L24.0002,35.4987"/>
  </g>
</svg>
