<svg xmlns="http://www.w3.org/2000/svg" width="48" height="48" viewBox="0 0 48 48">
  <path fill="none" stroke="#000" d="M22.5,15.0002 L22.5,18.5002 L22.5,22.0002 M25.5,15.0002 L25.5,22.0002 M27.5,22.0002 L27.5,15.5002 L31,15.5002 M30,18.5002 L27.5,18.5002 M21,21.5002 C19.816,21.5002 19.073,21.3332 18.322,20.7502 C17.632,20.2132 17.5,19.2942 17.5,18.5002 C17.5,17.6802 17.592,16.7912 18.322,16.2502 C19.069,15.6972 19.852,15.5002 21,15.5002 M22.5,18.5002 L25.5,18.5002 M33.5,26.4997 L9.5,26.4997 C9.5,24.2907 7.709,22.4997 5.5,22.4997 L5.5,14.4997 C7.709,14.4997 9.5,12.7087 9.5,10.4997 L38.5,10.4997 C38.5,11.5987 38.942,12.5927 39.659,13.3157 M30.5,39.4997 C30.5,41.1567 29.157,42.4997 27.5,42.4997 C25.843,42.4997 24.5,41.1567 24.5,39.4997 C24.5,37.8437 25.843,36.4997 27.5,36.4997 C29.157,36.4997 30.5,37.8437 30.5,39.4997 Z M42.5,39.4997 C42.5,41.1567 41.157,42.4997 39.5,42.4997 C37.843,42.4997 36.5,41.1567 36.5,39.4997 C36.5,37.8437 37.843,36.4997 39.5,36.4997 C41.157,36.4997 42.5,37.8437 42.5,39.4997 Z M33.5,32.4997 C38.892,29.1777 42.542,22.8517 42.542,15.4997 C42.542,14.4487 42.468,12.9147 42.324,11.9107 L30.5,39.4997 M33.5,8.0002 L33.5,9.0002 M33.5,10.5002 L33.5,13.0002 M33.5,15.0002 L33.5,18.0002 M33.5,20.0002 L33.5,23.0002 M33.5,25.0002 L33.5,28.0002 M39,29.4997 L45.5,29.4997 L45.5,7.4997 L2.5,7.4997 L2.5,29.4997 L32,29.4997 L36.5,39.4997"/>
</svg>
