<svg xmlns="http://www.w3.org/2000/svg" width="48" height="48" viewBox="0 0 48 48">
  <path fill="none" stroke="#000" d="M44.5,23.5001 C44.5,35.0981 35.098,44.5001 23.5,44.5001 C11.902,44.5001 2.5,35.0981 2.5,23.5001 C2.5,11.9021 11.902,2.5001 23.5,2.5001 C35.098,2.5001 44.5,11.9021 44.5,23.5001 Z M23.5,5.0001 L23.5,9.0001 M10.4185,10.4186 L13.2475,13.2476 M5,23.5001 L9,23.5001 M10.4185,36.5812 L13.2475,33.7532 M36.5811,36.5812 L33.7531,33.7532 M42,23.5001 L38,23.5001 M36.5811,10.4186 L33.7531,13.2476 M17.5,39.5 L29.5,39.5 L29.5,34.5 L17.5,34.5 L17.5,39.5 Z M25.5,23.5001 C25.5,24.6041 24.604,25.5001 23.5,25.5001 C22.396,25.5001 21.5,24.6041 21.5,23.5001 C21.5,22.3961 22.396,21.5001 23.5,21.5001 C24.604,21.5001 25.5,22.3961 25.5,23.5001 Z M25.3467,22.735 L38.7437,17.186"/>
</svg>
