<svg xmlns="http://www.w3.org/2000/svg" width="48" height="48" viewBox="0 0 48 48">
  <path fill="none" stroke="#000" d="M19.5,17.5 C19.51,17.896 19.618,18.269 19.923,18.529 C20.294,18.848 20.928,18.987 21.365,18.608 C21.972,18.084 22.832,17.847 23.737,18.105 C24.542,18.336 25.191,19.002 25.408,19.811 C25.856,21.487 24.604,23 23,23 C22.36,23 21.81,22.72 21.335,22.365 C20.92,22.055 20.265,22.131 19.876,22.535 C19.546,22.879 19.514,23.219 19.5,23.5 L19.5,28.5 L14.5,28.5 C14.219,28.486 13.879,28.454 13.535,28.124 C13.131,27.735 13.055,27.08 13.365,26.665 C13.72,26.19 14,25.64 14,25 C14,23.396 12.488,22.144 10.811,22.592 C10.002,22.809 9.336,23.458 9.105,24.263 C8.846,25.168 9.084,26.028 9.608,26.635 C9.987,27.072 9.848,27.706 9.529,28.077 C9.269,28.382 8.896,28.49 8.5,28.5 L3.5,28.5 L3.5,12.5 L19.5,12.5 L19.5,17.5 Z M40.5264,19.3564 C40.1874,19.5634 39.9204,19.8424 39.8454,20.2374 C39.7554,20.7174 39.9524,21.3364 40.4994,21.5264 C41.2554,21.7894 41.8924,22.4154 42.1204,23.3294 C42.3234,24.1404 42.0714,25.0364 41.4794,25.6274 C40.2514,26.8554 38.3154,26.5274 37.5124,25.1374 C37.1934,24.5844 37.1604,23.9664 37.2304,23.3774 C37.2924,22.8634 36.8984,22.3344 36.3534,22.1994 C35.8904,22.0854 35.5804,22.2274 35.3304,22.3564 L31.0004,24.8564 L28.5004,20.5264 C28.3714,20.2764 28.2284,19.9654 28.3424,19.5024 C28.4774,18.9584 29.0064,18.5644 29.5214,18.6264 C30.1104,18.6964 30.7274,18.6634 31.2814,18.3424 C32.6714,17.5414 32.9994,15.6054 31.7714,14.3774 C31.1794,13.7854 30.2844,13.5334 29.4724,13.7354 C28.5584,13.9634 27.9324,14.6004 27.6704,15.3574 C27.4804,15.9044 26.8614,16.1004 26.3804,16.0104 C25.9864,15.9364 25.7074,15.6684 25.5004,15.3304 L23.0004,11.0004 L36.8564,3.0004 L44.8564,16.8564 L40.5264,19.3564 Z M19.5,44.5 L3.5,44.5 L3.5,28.5 M19.5,39.5 C19.49,39.104 19.382,38.731 19.077,38.471 C18.706,38.152 18.072,38.013 17.635,38.392 C17.028,38.916 16.168,39.153 15.263,38.895 C14.458,38.664 13.809,37.998 13.592,37.189 C13.144,35.513 14.396,34 16,34 C16.64,34 17.19,34.28 17.665,34.635 C18.08,34.945 18.735,34.869 19.124,34.465 C19.454,34.121 19.486,33.781 19.5,33.5 L19.5,28.5 L24.5,28.5 C24.781,28.514 25.121,28.546 25.465,28.876 C25.869,29.265 25.945,29.92 25.635,30.335 C25.28,30.81 25,31.36 25,32 C25,33.604 26.513,34.856 28.189,34.408 C28.998,34.191 29.664,33.542 29.895,32.737 C30.153,31.832 29.916,30.972 29.392,30.365 C29.013,29.928 29.152,29.294 29.471,28.923 C29.731,28.618 30.104,28.51 30.5,28.5 L35.5,28.5 L35.5,44.5 L19.5,44.5 L19.5,39.5 Z"/>
</svg>
