<svg xmlns="http://www.w3.org/2000/svg" width="48" height="48" viewBox="0 0 48 48">
  <g fill="none" fill-rule="evenodd">
    <path stroke="#000" d="M22.5,20.9997 C22.5,23.4847 20.933,25.4997 19,25.4997 C17.067,25.4997 15.5,23.4847 15.5,20.9997 C15.5,18.5147 17.067,16.4997 19,16.4997 C20.933,16.4997 22.5,18.5147 22.5,20.9997 Z M25.5,20.9997 C25.5,23.4847 27.067,25.4997 29,25.4997 C30.933,25.4997 32.5,23.4847 32.5,20.9997 C32.5,18.5147 30.933,16.4997 29,16.4997 C27.067,16.4997 25.5,18.5147 25.5,20.9997 Z M41.4141,18.4607 C39.5791,16.2827 37.1751,15.1957 35.5021,15.6107 C35.9581,14.0337 35.5701,12.4757 34.4161,11.8117 C33.6281,11.3587 32.6551,11.4307 31.7521,11.8887 C31.9391,10.0697 31.1271,8.4507 29.7281,8.0777 C28.7421,7.8147 27.6971,8.2387 26.9021,9.0947 C26.4731,7.5817 25.3801,6.5007 24.0901,6.5007 C22.8331,6.5007 21.7581,7.5227 21.3061,8.9747 C20.5271,8.2057 19.5441,7.8287 18.6071,8.0777 C17.1011,8.4807 16.2861,10.3327 16.6611,12.3207 C15.5931,11.4947 14.3101,11.2417 13.3191,11.8117 C12.1801,12.4667 11.7871,13.9927 12.2141,15.5487 C10.5611,15.3167 8.3191,16.4047 6.5861,18.4607 C4.3611,21.0997 3.8321,24.3037 5.4051,25.6167 C6.9501,26.9067 9.9421,25.8847 12.1561,23.3477 C12.0841,24.0537 12.0351,24.7687 12.0351,25.4997 C12.0351,34.3367 17.4321,41.4997 24.0901,41.4997 C30.7481,41.4997 36.1451,34.3367 36.1451,25.4997 C36.1451,24.8437 36.1061,24.1987 36.0481,23.5637 C38.2391,25.9347 41.0971,26.8687 42.5951,25.6167 C44.1671,24.3037 43.6391,21.0997 41.4141,18.4607 Z M20,34.4997 L28,34.4997 M20,34.4997 L28,34.4997 M33,17.0359 C32.075,15.4959 30.63,14.4999 29,14.4999 C27.875,14.4999 26.84,14.9779 26,15.7769 M22,15.7771 C21.16,14.9781 20.125,14.5001 19,14.5001 C17.37,14.5001 15.925,15.4961 15,17.0361"/>
    <path fill="#000" d="M19,19.4997 C19.828,19.4997 20.5,20.1717 20.5,20.9997 C20.5,21.8287 19.828,22.4997 19,22.4997 C18.172,22.4997 17.5,21.8287 17.5,20.9997 C17.5,20.1717 18.172,19.4997 19,19.4997 Z M29,19.4997 C29.828,19.4997 30.5,20.1717 30.5,20.9997 C30.5,21.8287 29.828,22.4997 29,22.4997 C28.172,22.4997 27.5,21.8287 27.5,20.9997 C27.5,20.1717 28.172,19.4997 29,19.4997 Z"/>
  </g>
</svg>
