<svg xmlns="http://www.w3.org/2000/svg" width="48" height="48" viewBox="0 0 48 48">
  <g fill="none" fill-rule="evenodd">
    <path stroke="#000" d="M6.5,9.5 L30.5,9.5 L30.5,15.5 L30.5,21.5 L30.5,25.5 L30.5,27.5 L18.5,27.5 L17,27.5 L12.5,32 L12.5,27.5 L6.5,27.5 L6.5,9.5 Z M30.5,17.5 L40.5,17.5 L40.5,35.5 L34.5,35.5 L34.5,40 L30,35.5 L18.5,35.5 L18.5,27.5 M36,22.5 L30.5,22.5 M36,26.5 L30.5,26.5 M33,30.5 L23,30.5"/>
    <polygon fill="#000" points="19.475 15 22.219 17.704 18.807 17.704 18.807 15 17.194 15 17.194 17.704 13.8 17.704 16.545 15 14.505 15 11 18.5 14.505 22 16.545 22 13.8 19.314 17.194 19.314 17.194 22 18.807 22 18.807 19.314 22.219 19.314 19.475 22 21.514 22 25 18.5 21.514 15"/>
  </g>
</svg>
