<svg xmlns="http://www.w3.org/2000/svg" width="48" height="48" viewBox="0 0 48 48">
  <path fill="none" stroke="#000" d="M36.5,34 C36.5,36.485 34.485,38.5 32,38.5 C29.515,38.5 27.5,36.485 27.5,34 C27.5,31.515 29.515,29.5 32,29.5 C34.485,29.5 36.5,31.515 36.5,34 Z M25.9785,32.5 L7.4995,32.5 C6.9475,32.5 6.4995,32.053 6.4995,31.5 L6.4995,15.5 C6.4995,14.947 6.9475,14.5 7.4995,14.5 L29.4995,14.5 C30.0525,14.5 30.4995,14.947 30.4995,15.5 L30.4995,20.5 M30.5,26.5 L30.5,28 M24.5,23.5 C24.5,24.052 24.053,24.5 23.5,24.5 C22.947,24.5 22.5,24.052 22.5,23.5 C22.5,22.947 22.947,22.5 23.5,22.5 C24.053,22.5 24.5,22.947 24.5,23.5 Z M31.5,26.5 L22.5,26.5 C20.843,26.5 19.5,25.157 19.5,23.5 C19.5,21.843 20.843,20.5 22.5,20.5 L31.5,20.5 L31.5,26.5 Z M15.5,14.5 L25.5,4.5 L31.5,10.5 L27.5,14.5 M35.21,37.21 L42,44 M24,6 L22.5,4.5 L12.5,14.5 M21,6 L19.5,4.5 L9.5,14.5"/>
</svg>
