<svg xmlns="http://www.w3.org/2000/svg" width="48" height="48" viewBox="0 0 48 48">
  <defs>
    <filter id="avatar-train-staff-large-a">
      <feColorMatrix in="SourceGraphic" values="0 0 0 0 0.000000 0 0 0 0 0.000000 0 0 0 0 0.000000 0 0 0 1.000000 0"/>
    </filter>
  </defs>
  <g fill="none" fill-rule="evenodd" filter="url(#avatar-train-staff-large-a)">
    <path stroke="#000" stroke-width="2" d="M35,7.0004 C35,8.1044 29.626,9.0004 23,9.0004 C16.374,9.0004 11,8.1044 11,7.0004 C11,5.8944 16.374,5.0004 23,5.0004 C29.626,5.0004 35,5.8944 35,7.0004 Z M14.124,21.685 C14.73,24.119 18.452,26.001 23,26.001 C27.548,26.001 31.27,24.119 31.874,21.685 M11,7.0004 L11,19.0004 C11,21.2084 16.374,23.0004 23,23.0004 C29.626,23.0004 35,21.2084 35,19.0004 L35,7.0004 M35,22.8998 L34.01,31.9998 C34.01,31.9998 33.442,36.5318 30.982,38.7618 C28.208,41.2758 26.056,42.9338 23,42.9338 C19.944,42.9338 17.794,41.2758 15.018,38.7618 C12.558,36.5318 11.99,31.9998 11.99,31.9998 L11,22.8998 M28,34.9994 C28,34.9994 25.86,36.9994 23,36.9994 C20.14,36.9994 18,34.9994 18,34.9994"/>
    <path fill="#000" d="M18.8004,28.7998 C19.8004,28.7998 20.4004,29.5998 20.4004,30.3998 C20.4004,31.3998 19.8004,31.9998 18.8004,31.9998 C17.8004,31.9998 17.2004,31.1998 17.2004,30.3998 C17.2004,29.3998 17.8004,28.7998 18.8004,28.7998 Z M26.8004,28.7998 C27.8004,28.7998 28.4004,29.5998 28.4004,30.3998 C28.4004,31.3998 27.8004,31.9998 26.8004,31.9998 C25.8004,31.9998 25.2004,31.1998 25.2004,30.3998 C25.2004,29.3998 25.8004,28.7998 26.8004,28.7998 Z M21.3996,11.9994 L18.1996,14.9994 L21.9996,14.9994 L21.9996,11.9994 L23.9996,11.9994 L23.9996,14.9994 L27.8016,14.9994 L24.5996,11.9994 L26.9996,11.9994 L30.9996,15.9994 L26.9996,19.9994 L24.5996,19.9994 L27.8016,16.9994 L23.9996,16.9994 L23.9996,19.9994 L21.9996,19.9994 L21.9996,16.9994 L18.1996,16.9994 L21.3996,19.9994 L18.9996,19.9994 L14.9996,15.9994 L18.9996,11.9994 L21.3996,11.9994 Z"/>
  </g>
</svg>
