<svg xmlns="http://www.w3.org/2000/svg" width="48" height="48" version="1.1" viewBox="0 0 48 48">
  <path fill="none" fill-rule="evenodd" stroke="#000" stroke-width="2" d="M31,21.0004 C36.514,21.0004 41,25.4864 41,31.0004 C41,36.5124 36.514,41.0004 31,41.0004 C25.486,41.0004 21,36.5124 21,31.0004 C21,25.4864 25.486,21.0004 31,21.0004 M3.999,6.9994 L17.999,6.9994 M21.999,6.9994 L29.999,6.9994 M21.999,13.0004 L29.999,13.0004 M34,13.0004 L44,13.0004 M34,6.9994 L44,6.9994 M3.999,13.0004 L17.999,13.0004 M3.999,19.0004 L17.999,19.0004 M3.999,25.0004 L13.999,25.0004 M3.999,30.9994 L13.999,30.9994 M3.999,36.9994 L13.999,36.9994 M31,24.0004 L31,31.0004 L38,31.0004"/>
</svg>
