<svg xmlns="http://www.w3.org/2000/svg" width="48" height="48" viewBox="0 0 48 48">
  <path fill="none" stroke="#000" stroke-width="2" d="M10,16.0004 L35,41.0004 M31,30.9994 L31,26.9994 L27,26.9994 M21,21.0004 L21,16.0004 M16.4404,22.4408 C14.3644,23.8908 12.9984,26.2948 12.9984,29.0008 C12.9984,33.3988 16.6024,37.0008 20.9984,37.0008 C23.7064,37.0008 26.1024,35.6288 27.5524,33.5528 M22,12.0004 C22,12.5524 21.552,13.0004 21,13.0004 C20.448,13.0004 20,12.5524 20,12.0004 C20,11.4484 20.448,11.0004 21,11.0004 C21.552,11.0004 22,11.4484 22,12.0004 Z M31,36.9994 L31,37.9994"/>
</svg>
