<svg xmlns="http://www.w3.org/2000/svg" width="36" height="36" viewBox="0 0 36 36">
  <path fill="none" stroke="#000" d="M5.25,9.75 L9.75,9.75 L9.75,5.25 L5.25,5.25 L5.25,9.75 Z M15.75,9.75 L20.25,9.75 L20.25,5.25 L15.75,5.25 L15.75,9.75 Z M26.25,9.75 L30.75,9.75 L30.75,5.25 L26.25,5.25 L26.25,9.75 Z M5.25,20.25 L9.75,20.25 L9.75,15.75 L5.25,15.75 L5.25,20.25 Z M15.75,20.25 L20.25,20.25 L20.25,15.75 L15.75,15.75 L15.75,20.25 Z M26.25,20.25 L30.75,20.25 L30.75,15.75 L26.25,15.75 L26.25,20.25 Z M5.25,30.75 L9.75,30.75 L9.75,26.25 L5.25,26.25 L5.25,30.75 Z M15.75,30.75 L20.25,30.75 L20.25,26.25 L15.75,26.25 L15.75,30.75 Z M26.25,30.75 L30.75,30.75 L30.75,26.25 L26.25,26.25 L26.25,30.75 Z"/>
</svg>
