<svg xmlns="http://www.w3.org/2000/svg" width="36" height="36" viewBox="0 0 36 36"><path fill="none" stroke="#000" d="M10.305,19.77 C10.305,19.77 10.305,19.785 10.32,19.785 L11.4,21.06 L10.8,22.275 L12.06,24.825 L13.29,22.275 L12.645,21.06 L13.74,19.755 L13.755,19.74 M21,21.75 L22.5,21.75 M14.2959,12.18195 C13.6689,11.60295 12.8844,11.24745 11.9994,11.24745 C9.8634,11.24745 8.2494,13.24845 8.2494,15.75045 C8.2494,18.25095 9.8634,20.25045 11.9994,20.25045 C13.9704,20.25045 15.4794,18.54345 15.7044,16.31745 M15.70425,16.31775 C15.72375,16.13025 15.75075,15.94425 15.75075,15.75075 C15.75075,14.28375 15.18525,13.00275 14.29575,12.18225 M14.49645,19.1295 C18.27645,21.3 19.93395,24.8235 20.25045,29.25 L3.75045,29.25 C3.82545,24.7095 5.84895,21.1995 9.47595,19.1115 M20.29575,9.1833 C19.66875,8.6043 18.88425,8.2488 17.99925,8.2488 C16.02975,8.2488 14.52225,9.9558 14.29575,12.1818 C15.18525,13.0023 15.74925,14.2833 15.74925,15.7503 C15.74925,15.9453 15.72375,16.1298 15.70425,16.3173 C16.33125,16.8963 17.11575,17.2518 17.99925,17.2518 C19.97025,17.2518 21.47925,15.5448 21.70425,13.3173 M24,5.24865 C22.029,5.24865 20.5215,6.95715 20.2965,9.18315 C21.186,10.00365 21.75,11.28465 21.75,12.75165 C21.75,12.94515 21.723,13.12965 21.705,13.31715 C22.332,13.89615 23.1165,14.25165 24,14.25165 C26.136,14.25165 27.75,12.25215 27.75,9.75165 C27.75,7.24965 26.136,5.24865 24,5.24865 Z M21.70425,13.31775 C21.72375,13.13025 21.74925,12.94575 21.74925,12.75075 C21.74925,11.28375 21.18525,10.00275 20.29575,9.18375 M20.4993,16.1277 C24.2793,18.2982 25.9353,21.8232 26.2503,26.2497 L19.7643,26.2497 M26.505,13.13385 C30.285,15.30435 31.935,18.82335 32.25,23.24985 L25.7835,23.24985"/></svg>