<svg xmlns="http://www.w3.org/2000/svg" width="48" height="48" viewBox="0 0 48 48"><path fill="none" stroke="#000" stroke-width="2" d="M17,35 L17,44 M31,31 L31,44 M22.5096,11.1558 C20.9296,9.7958 19.0376,8.9998 16.9996,8.9998 C11.4776,8.9998 6.9996,14.8198 6.9996,21.9998 C6.9996,29.1798 11.4776,34.9998 16.9996,34.9998 C20.5876,34.9998 23.7256,32.5338 25.4896,28.8438 M41,18 C41,25.18 36.522,31 31,31 C25.478,31 21,25.18 21,18 C21,10.82 25.478,5 31,5 C36.522,5 41,10.82 41,18 Z M30,9.129 C27.602,9.733 25.702,12.477 25.166,15.999 M16,13.1512 C13.604,13.7572 11.704,16.4832 11.168,19.9992"/></svg>