<svg xmlns="http://www.w3.org/2000/svg" width="48" height="48" version="1.1" viewBox="0 0 48 48">
  <path fill="none" fill-rule="evenodd" stroke="#000" stroke-width="2" d="M18,44 L14,33 L9,33 L9,38 L6,42 M11,21 C9.934,21 9,20.066 9,19 C9,17.934 9.934,17 11,17 C12.066,17 13,17.934 13,19 C13,20.066 12.066,21 11,21 Z M9,25 L9,33 L14,33 L14,25 M23,27 L18,27 L14,25 L10.474,25 L8,25 L5,28 L5,34 M35,15 L35,27 L29,27 L29,15 M29,27 L29,35.114 L24,42 M39,44 L39,33.114 L35,27 M32,11.1132 C30.4,11.1132 29,9.7132 29,8.1132 C29,6.5132 30.4,5.1132 32,5.1132 C33.6,5.1132 35,6.5132 35,8.1132 C35,9.7132 33.6,11.1132 32,11.1132 Z M23,28 L23,21 L29,15 L35,15 L39,21 L44,24"/>
</svg>
