<svg xmlns="http://www.w3.org/2000/svg" width="48" height="48" viewBox="0 0 48 48"><path fill="none" stroke="#000" stroke-width="2" d="M8.5484,3.2384 L11.0304,4.7884 L14.2344,4.7884 L15.3704,0.3884 M38,19 C38,29.494 29.494,38 19,38 C8.506,38 0,29.494 0,19 C0,8.506 8.506,0 19,0 C29.494,0 38,8.506 38,19 Z M26.8762,36.2754 L26.0462,30.3314 C26.0162,30.1174 25.9162,29.9174 25.7622,29.7634 L22.0002,25.9994 L20.5102,24.5094 C20.2062,24.2054 19.7402,24.1294 19.3562,24.3214 L17.4462,25.2774 C16.7822,25.6094 16.0002,25.1254 16.0002,24.3814 L16.0002,22.9994 C16.0002,22.4474 15.5522,21.9994 15.0002,21.9994 L8.0002,21.9994 L4.5962,21.9994 C4.2282,21.9994 3.8902,22.2014 3.7162,22.5254 L1.5582,26.5294 M29.3234,3.0628 L26.8374,4.6808 C26.3774,4.9808 25.7374,5.5908 25.4154,6.0368 L24.2994,7.5848 C24.1114,7.8448 23.8094,8.0008 23.4874,8.0008 L18.4134,8.0008 C18.1494,8.0008 17.8954,8.1048 17.7074,8.2928 L14.0974,11.9028 C14.0334,11.9668 13.9594,12.0228 13.8814,12.0668 L10.0714,14.2128 C9.2994,14.6468 9.4334,15.7968 10.2834,16.0428 L13.7634,17.0568 C13.9194,17.1028 14.0834,17.1088 14.2414,17.0768 L21.7834,15.5628 C21.9254,15.5348 22.0734,15.5368 22.2134,15.5708 L23.0274,15.7668 C23.5634,15.8948 23.9994,16.4508 23.9994,17.0008 L23.9994,21.5748 C23.9994,21.8468 24.1114,22.1068 24.3074,22.2948 L33.5634,31.1948" transform="translate(5 5)"/></svg>