<svg xmlns="http://www.w3.org/2000/svg" width="48" height="48" viewBox="0 0 48 48"><path fill="none" stroke="#000" stroke-width="2" d="M7,27.9998 L13,18.9998 L21,24.9998 L33,12.9998 L41,27.9998 M14.9998,10.9998 C14.9998,13.2078 13.2138,14.9998 10.9998,14.9998 C8.7858,14.9998 6.9998,13.2078 6.9998,10.9998 C6.9998,8.7918 8.7858,6.9998 10.9998,6.9998 C13.2138,6.9998 14.9998,8.7918 14.9998,10.9998 Z M44,43 C39.004,43 39.004,39 34.01,39 C29.01,39 29.01,43 24.012,43 C19.008,43 19.008,39 14.006,39 C9.002,39 9.002,43 4,43 M44,35 C39.004,35 39.004,31 34.01,31 C29.01,31 29.01,35 24.012,35 C19.008,35 19.008,31 14.006,31 C9.002,31 9.002,35 4,35"/></svg>