<svg xmlns="http://www.w3.org/2000/svg" width="48" height="48" viewBox="0 0 48 48"><path fill="none" stroke="#000" stroke-width="2" d="M19,0 C29.494,0 38,8.506 38,19 C38,29.494 29.494,38 19,38 C8.506,38 0,29.494 0,19 C0,8.506 8.506,0 19,0 Z M19,7 L19,13 M31.7064,16.22 L26.0004,18.074 M26.8468,31.1742 L23.3208,26.3202 M11.16,31.1742 L14.686,26.3202 M6.3,16.22 L12.006,18.074 M26.7836,1.6626 L18.9996,7.0006 L11.2156,1.6626 M37.895,20.9914 L31.679,16.2114 L34.215,7.6214 M24.7398,37.1156 L26.8418,31.1976 L33.7218,31.0096 M4.2798,31.0098 L11.1538,31.1978 L13.2578,37.1158 M3.772,7.6398 L6.302,16.2118 L0.104,20.9778 M19,13 L12,18.086 L14.674,26.316 L23.326,26.316 L26,18.086 L19,13 Z" transform="translate(5 5)"/></svg>