<svg xmlns="http://www.w3.org/2000/svg" width="48" height="48" version="1.1" viewBox="0 0 48 48">
  <path fill="none" fill-rule="evenodd" stroke="#000" stroke-width="2" d="M35,15 L35,43 L13,43 L13,15 M13,31 L11.842,31 C10.558,31 9.326,31.506 8.418,32.406 C7.51,33.306 7,34.528 7,35.8 L7,41.8 C7,42.12 7.128,42.424 7.354,42.648 C7.582,42.874 7.89,43 8.21,43 L13,43 M35,31 L36.158,31 C37.442,31 38.674,31.506 39.582,32.406 C40.49,33.306 41,34.528 41,35.8 L41,41.8 C41,42.12 40.872,42.424 40.646,42.648 C40.418,42.874 40.11,43 39.79,43 L35,43 M11.003,5 L37.001,5 C38.105,5 39.001,5.894 39.001,7 L39.001,13 C39.001,14.106 38.105,15 37.001,15 L10.999,15 C9.895,15 9.001,14.106 9.001,13.002 L9.001,7.002 C9.001,5.896 9.897,5 11.003,5 Z M35,20 C33.624,21.572 31.93,22.83 30.034,23.692 C28.138,24.554 26.082,25 24,25 C21.918,25 19.862,24.554 17.966,23.692 C16.07,22.83 14.376,21.572 13,20 M24,22 L24,28 M17,5 L17,15 M31,5 L31,15"/>
</svg>
