<svg xmlns="http://www.w3.org/2000/svg" width="48" height="48" viewBox="0 0 48 48"><path fill="none" stroke="#000" stroke-width="2" d="M11,9 C12.104,9 13,9.896 13,11 C13,12.104 12.104,13 11,13 C9.896,13 9,12.104 9,11 C9,9.896 9.896,9 11,9 Z M37,17 C38.104,17 39,17.896 39,19 C39,20.104 38.104,21 37,21 C35.894,21 35,20.104 35,19 C35,17.896 35.894,17 37,17 Z M17,30.9994 L13,16.9994 L9,16.9994 L5,30.9994 L17,30.9994 Z M26.999,11.0004 C26.999,12.1044 26.103,13.0004 24.999,13.0004 C23.895,13.0004 22.999,12.1044 22.999,11.0004 C22.999,9.8944 23.895,9.0004 24.999,9.0004 C26.103,9.0004 26.999,9.8944 26.999,11.0004 Z M28.999,26.9994 L28.999,16.9994 L20.999,16.9994 L20.999,26.9994 L22.999,26.9994 L22.999,38.9994 L26.999,38.9994 L26.999,26.9994 L28.999,26.9994 Z M40.999,32.9994 L40.999,24.9994 L32.999,24.9994 L32.999,32.9994 L34.999,32.9994 L34.999,38.9994 L38.999,38.9994 L38.999,32.9994 L40.999,32.9994 Z M9,31 L9,39 L13,39 L13,31"/></svg>