<svg xmlns="http://www.w3.org/2000/svg" width="48" height="48" viewBox="0 0 48 48"><path fill="none" stroke="#000" stroke-width="2" d="M27,15.0006 L37,15.0006 L27,15.0006 Z M27,15 L37,15 M27,21 L37,21 L27,21 Z M27,21.0004 L37,21.0004 M4,27.0002 C7.328,27.0002 7.328,31.0002 10.656,31.0002 C13.986,31.0002 13.986,27.0002 17.318,27.0002 C20.65,27.0002 20.65,31.0002 23.982,31.0002 C27.314,31.0002 27.314,27.0002 30.648,27.0002 C33.986,27.0002 33.986,31.0002 37.324,31.0002 C40.662,31.0002 40.662,27.0002 44,27.0002 M4,35.0006 C7.328,35.0006 7.328,39.0006 10.656,39.0006 C13.986,39.0006 13.986,35.0006 17.318,35.0006 C20.65,35.0006 20.65,39.0006 23.982,39.0006 C27.314,39.0006 27.314,35.0006 30.648,35.0006 C33.986,35.0006 33.986,39.0006 37.324,39.0006 C40.662,39.0006 40.662,35.0006 44,35.0006 M33,10.0002 C33,8.3442 31.656,7.0002 30,7.0002 C28.344,7.0002 27,8.3442 27,10.0002 L27,29.5002 M43.0006,10.0002 C43.0006,8.3442 41.6566,7.0002 40.0006,7.0002 C38.3446,7.0002 37.0006,8.3442 37.0006,10.0002 L37.0006,31.0002"/></svg>