<svg xmlns="http://www.w3.org/2000/svg" width="48" height="48" viewBox="0 0 48 48"><path fill="none" stroke="#000" d="M40.5,27.5 L40.5,45.5 L28.5,45.5 L28.5,33.5 L19.5,33.5 L19.5,45.5 L7.5,45.5 L7.5,27.5 M32.5,37.5 L36.5,37.5 L36.5,33.5 L32.5,33.5 L32.5,37.5 Z M11.5,37.5 L15.5,37.5 L15.5,33.5 L11.5,33.5 L11.5,37.5 Z M19.5,45.5 L28.5,45.5 M24,39.5 L26.5,39.5 M26.5,38 L26.5,41 M35.5,19.85 L35.5,12.5 L31.5,12.5 L31.5,16.25 L24,9.5 L4,27.5 L44,27.5 L35.5,19.85 Z M42.5,4 C42.071,4 41.673,4.094 41.321,4.247 C40.871,3.237 39.563,2.5 38,2.5 C36.437,2.5 35.129,3.237 34.679,4.247 C34.327,4.094 33.929,4 33.5,4 C32.119,4 31,4.895 31,6 C31,6.712 31.468,7.332 32.168,7.687 C32.064,7.857 32,8.046 32,8.25 C32,8.94 32.672,9.5 33.5,9.5 C34.328,9.5 35,8.94 35,8.25 C35,8.046 34.936,7.857 34.832,7.687 C35.217,7.492 35.525,7.216 35.729,6.888 C36.342,7.264 37.129,7.5 38,7.5 C38.871,7.5 39.658,7.264 40.271,6.888 C40.681,7.545 41.52,8 42.5,8 C43.881,8 45,7.105 45,6 C45,4.895 43.881,4 42.5,4 Z"/></svg>