<svg xmlns="http://www.w3.org/2000/svg" width="48" height="48" viewBox="0 0 48 48"><path fill="none" stroke="#000" d="M15.54,14.5 C15.99,11.82 18.23,9.77 20.98,9.55 C22.08,8.3 23.68,7.5 25.47,7.5 C28.79,7.5 31.49,10.18 31.49,13.5 C31.49,14.72 31.12,15.86 30.48,16.8 M27.5,26 L27.5,13.5 C27.5,12.395 26.605,11.5 25.5,11.5 C24.395,11.5 23.5,12.395 23.5,13.5 L23.5,15.54 L23.47,15.54 M27.5,23.5 C27.5,22.394 28.392,21.5 29.5,21.5 C30.61,21.5 31.5,22.394 31.5,23.5 L31.5,26 M31.5,25.5 C31.5,24.394 32.392,23.5 33.5,23.5 C34.61,23.5 35.5,24.394 35.5,25.5 L35.5,32.5 C35.5,38.374 33.5,41.5 33.5,41.5 M19.5,41.5 C19.5,41.5 12.655,29.982 12.03,28.918 C11.405,27.854 11.246,26.868 12.03,26.086 C12.816,25.304 14.084,25.304 14.868,26.086 L19.5,30.5 L19.5,25.5 L19.5,15.5 C19.5,14.394 20.392,13.5 21.5,13.5 C22.608,13.5 23.5,14.394 23.5,15.5 L23.5,26 M33.77,16.5 C34.35,15.3 34.67,13.93 34.67,12.5 C34.67,7.53 30.79,3.5 26,3.5 C23.92,3.5 22.02,4.26 20.53,5.52 C16.05,5.77 12.5,9.47 12.5,14 C12.5,14.17 12.5,14.33 12.51,14.5 M33.9025,45.5 L19.0975,45.5 C18.7675,45.5 18.5005,45.232 18.5005,44.902 L18.5005,42.098 C18.5005,41.768 18.7675,41.5 19.0975,41.5 L33.9025,41.5 C34.2325,41.5 34.5005,41.768 34.5005,42.098 L34.5005,44.902 C34.5005,45.232 34.2325,45.5 33.9025,45.5 Z"/></svg>