<svg xmlns="http://www.w3.org/2000/svg" width="48" height="48" viewBox="0 0 48 48">
  <path fill="none" stroke="#000" stroke-width="2" d="M21.002,36 C21.002,39.908 17.908,43 14,43 C10.092,43 7,39.908 7,36 C7,32.092 10.092,29.01 14,29.01 C17.908,29.01 21.002,32.092 21.002,36 Z M41.002,36 C41.002,39.908 37.908,43 34,43 C30.092,43 27,39.908 27,36 C27,32.092 30.092,29.01 34,29.01 C37.908,29.01 41.002,32.092 41.002,36 Z M31,36.002 C31,34.326 32.326,33.004 34,33.004 M13.998,33.004 C12.322,33.004 11,34.328 11,36.004 M7,36 L9,19 L13,17 L15,9 L21,9 L21,16.074 M41.002,36 L39.002,19 L35.002,17 L33.002,9 L27.002,9 L27,16 M17,26 C17,22.092 20.092,19.008 24,19.008 C27.908,19.008 31.002,22.092 31.002,26 M21.001,36 L21.001,19.69 M27.002,36 L27,19.69"/>
</svg>
