<svg xmlns="http://www.w3.org/2000/svg" width="48" height="48" viewBox="0 0 48 48">
  <g fill="none" fill-rule="evenodd">
    <path stroke="#000" stroke-width="2" d="M41,24.0004 C41,33.4244 33.426,41.0004 24,41.0004 C14.574,41.0004 7,33.4244 7,24.0004 C7,14.5744 14.574,7.0004 24,7.0004 C33.426,7.0004 41,14.5744 41,24.0004 Z"/>
    <path fill="#000" d="M22.248,35.982 L25.708,35.982 L25.708,32.65 L22.248,32.65 L22.248,35.982 Z M16.786,19.772 C16.86,17.788 17.25,16.25 17.956,15.16 C18.606,14.156 19.472,13.384 20.55,12.838 C21.628,12.294 22.84,12.022 24.186,12.022 C26.352,12.022 28.076,12.636 29.358,13.864 C30.552,14.996 31.152,16.484 31.152,18.332 C31.152,19.858 30.746,21.172 29.934,22.272 C29.572,22.774 28.702,23.696 27.324,25.042 C26.714,25.63 26.292,26.118 26.05,26.508 C25.81,26.898 25.642,27.38 25.546,27.958 C25.44,28.534 25.386,29.28 25.386,30.2 L22.664,30.2 C22.686,28.566 22.83,27.354 23.096,26.564 C23.288,25.986 23.564,25.47 23.92,25.01 C24.278,24.552 25.072,23.692 26.298,22.432 C27.09,21.62 27.608,20.89 27.852,20.238 C28.054,19.682 28.156,19.116 28.156,18.54 C28.156,17.472 27.864,16.576 27.276,15.85 C26.57,14.964 25.53,14.52 24.154,14.52 C21.302,14.52 19.764,16.27 19.542,19.772 L16.786,19.772 Z"/>
  </g>
</svg>
