<svg xmlns="http://www.w3.org/2000/svg" width="48" height="48" viewBox="0 0 48 48">
  <path fill="none" stroke="#000" stroke-width="2" d="M5,15.0004 L11,15.0004 L11,27.0004 L21,19.0004 L21,27.0004 L31,19.0004 L31,27.0004 L41,19.0004 L41,41.0004 L5,41.0004 L5,15.0004 Z M11,35 L15,35 L15,33 L11,33 L11,35 Z M21,35 L25,35 L25,33 L21,33 L21,35 Z M31,35 L35,35 L35,33 L31,33 L31,35 Z M14.0206,5.7826 C13.4866,5.2966 12.7786,5.0006 12.0006,5.0006 C10.6146,5.0006 9.4606,5.9446 9.1146,7.2186 C8.7706,7.0806 8.3946,7.0006 8.0006,7.0006 C6.3426,7.0006 5.0006,8.3426 5.0006,10.0006 M21,10.0004 C21,8.3424 19.658,7.0004 18,7.0004 C16.616,7.0004 15.46,7.9444 15.116,9.2184 C14.77,9.0804 14.394,9.0004 14,9.0004 C12.342,9.0004 11,10.3424 11,12.0004"/>
</svg>
