<svg xmlns="http://www.w3.org/2000/svg" width="48" height="48" viewBox="0 0 48 48">
  <path fill="none" stroke="#000" stroke-width="2" d="M4,23.0004 L42,23.0004 M17.7228,34.056 L8.2528,27.44 C7.3908,26.75 6.1308,26.886 5.4388,27.748 C4.7488,28.608 4.8868,29.868 5.7488,30.56 L17.5988,41 L25.4848,41 L27.5008,43 L42.4008,43 L32.3448,32.872 C30.0708,30.684 27.1768,29.056 24.2188,29 L20.0008,29 C16.0308,29 15.9368,35 20.0008,35 L24.0008,35 M39,23.0004 C39,14.7944 31.316,11.0004 23,11.0004 C14.684,11.0004 7,14.7944 7,23.0004 M25,9.0004 C25,10.1044 24.106,11.0004 23,11.0004 C21.894,11.0004 21,10.1044 21,9.0004 C21,7.8944 21.894,7.0004 23,7.0004 C24.106,7.0004 25,7.8944 25,9.0004 Z"/>
</svg>
