<svg xmlns="http://www.w3.org/2000/svg" width="48" height="48" viewBox="0 0 48 48">
  <path fill="none" stroke="#000" stroke-width="2" d="M26.6874,10.2554 C25.9914,8.3494 24.1594,7.0014 21.9894,7.0014 C20.3394,7.0014 18.8994,7.7914 17.9934,9.0054 C17.0854,7.7914 15.6434,7.0014 13.9914,7.0014 C11.2174,7.0014 8.9874,9.2074 8.9874,11.9654 C8.9874,12.8314 9.2074,13.6414 9.5934,14.3474 C9.8114,14.7494 10.0714,15.1154 10.3854,15.4374 L17.9914,23.0014 L25.5874,15.4474 C25.7674,15.2314 26.1934,14.6834 26.3334,14.4394 C26.7494,13.7114 26.9874,12.8694 26.9874,11.9654 C26.9874,11.3634 26.8834,10.7894 26.6874,10.2554 Z M17.7226,34.056 L8.2526,27.44 C7.3906,26.75 6.1326,26.886 5.4406,27.748 C4.7486,28.608 4.8866,29.868 5.7486,30.56 L17.5986,41 L25.4846,41 L27.5006,43 L42.4006,43 L32.3446,32.872 C30.0706,30.684 27.1766,29.056 24.2186,29 L20.0006,29 C16.0306,29 15.9366,35 20.0006,35 L24.0006,35"/>
</svg>
