<svg xmlns="http://www.w3.org/2000/svg" width="48" height="48" viewBox="0 0 48 48">
  <path fill="none" stroke="#000" stroke-width="2" d="M9,28 C6.792,28 5,26.208 5,24 M19,9 C19,11.208 17.208,13 15,13 C12.792,13 11,11.208 11,9 C11,6.792 12.792,5 15,5 C17.208,5 19,6.792 19,9 Z M29,17 C29,19.208 27.208,21 25,21 C22.792,21 21,19.208 21,17 C21,14.792 22.792,13 25,13 C27.208,13 29,14.792 29,17 Z M31,21.9542 C29.146,21.3442 27.124,21.0002 25,21.0002 C22.876,21.0002 20.854,21.3442 19,21.9542 M34,25 L36,25 M17,16.754 C12.222,19.002 9,23.192 9,28 C9,32.104 11.346,35.756 15,38.138 L15,43 L19,43 L19,40.046 C20.854,40.656 22.876,41 25,41 C26.386,41 27.716,40.826 29,40.556 L29,43 L33,43 L33,39.22 C36.008,37.798 38.418,35.632 39.77,33 L43,33 L43,25 L40.554,25 C39.944,22.898 38.696,21.002 37,19.432 L37,13 C34.87,13 33.142,14.672 33.024,16.772"/>
</svg>
