<svg xmlns="http://www.w3.org/2000/svg" width="48" height="48" viewBox="0 0 48 48">
  <path fill="none" stroke="#000" stroke-width="2" d="M42.2812,9.7188 L36.9992,15.0008 L32.9992,15.0008 L32.9992,11.0008 L38.2812,5.7188 C37.2772,5.2668 36.1712,5.0008 34.9992,5.0008 C30.5812,5.0008 26.9992,8.5828 26.9992,13.0008 C26.9992,14.1728 27.2652,15.2768 27.7192,16.2808 L16.2812,27.7188 C15.2772,27.2648 14.1712,27.0008 12.9992,27.0008 C8.5812,27.0008 4.9992,30.5828 4.9992,35.0008 C4.9992,36.1728 5.2652,37.2768 5.7192,38.2808 L10.9992,33.0008 L14.9992,33.0008 L14.9992,37.0008 L9.7192,42.2808 C10.7232,42.7348 11.8272,43.0008 12.9992,43.0008 C17.4172,43.0008 20.9992,39.4188 20.9992,35.0008 C20.9992,33.8288 20.7352,32.7228 20.2812,31.7188 L31.7192,20.2808 C32.7232,20.7328 33.8272,21.0008 34.9992,21.0008 C39.4172,21.0008 42.9992,17.4188 42.9992,13.0008 C42.9992,11.8288 42.7352,10.7228 42.2812,9.7188 Z"/>
</svg>
