<svg xmlns="http://www.w3.org/2000/svg" width="48" height="48" viewBox="0 0 48 48">
  <g fill="none" fill-rule="evenodd">
    <path fill="#000" d="M24,34.9994 C25.658,34.9994 27,36.3434 27,37.9994 C27,39.6574 25.658,40.9994 24,40.9994 C22.342,40.9994 21,39.6574 21,37.9994 C21,36.3434 22.342,34.9994 24,34.9994 Z M24,21.0004 C25.658,21.0004 27,22.3424 27,24.0004 C27,25.6564 25.658,27.0004 24,27.0004 C22.342,27.0004 21,25.6564 21,24.0004 C21,22.3424 22.342,21.0004 24,21.0004 Z M24,7.0004 C25.658,7.0004 27,8.3424 27,10.0004 C27,11.6564 25.658,13.0004 24,13.0004 C22.342,13.0004 21,11.6564 21,10.0004 C21,8.3424 22.342,7.0004 24,7.0004 Z"/>
    <path stroke="#000" stroke-width="2" d="M24,34.9994 C25.658,34.9994 27,36.3434 27,37.9994 C27,39.6574 25.658,40.9994 24,40.9994 C22.342,40.9994 21,39.6574 21,37.9994 C21,36.3434 22.342,34.9994 24,34.9994 Z M24,21.0004 C25.658,21.0004 27,22.3424 27,24.0004 C27,25.6564 25.658,27.0004 24,27.0004 C22.342,27.0004 21,25.6564 21,24.0004 C21,22.3424 22.342,21.0004 24,21.0004 Z M24,7.0004 C25.658,7.0004 27,8.3424 27,10.0004 C27,11.6564 25.658,13.0004 24,13.0004 C22.342,13.0004 21,11.6564 21,10.0004 C21,8.3424 22.342,7.0004 24,7.0004 Z"/>
  </g>
</svg>
