<svg xmlns="http://www.w3.org/2000/svg" width="48" height="48" viewBox="0 0 48 48">
  <path fill="none" stroke="#000" stroke-width="2" d="M14,23.0004 C17.86,23.0004 21,26.1404 21,30.0004 C21,33.8604 17.86,37.0004 14,37.0004 C10.14,37.0004 7,33.8604 7,30.0004 C7,26.1404 10.14,23.0004 14,23.0004 M34.002,23.0004 C37.862,23.0004 41.002,26.1404 41.002,30.0004 C41.002,33.8604 37.862,37.0004 34.002,37.0004 C30.14,37.0004 27.002,33.8604 27.002,30.0004 C27.002,26.1404 30.14,23.0004 34.002,23.0004 M14,29.9994 L18,18.9994 L29,18.9994 L33,12.9994 L26,12.9994 M34.002,29.9994 L29,18.9994 M14.417,15.0004 L20.001,15.0004"/>
</svg>
