<svg xmlns="http://www.w3.org/2000/svg" width="48" height="48" viewBox="0 0 48 48">
  <path fill="none" stroke="#000" stroke-width="2" d="M16,12.9906 C18.756,12.9906 21,15.2346 21,17.9906 C21,20.7466 18.756,22.9906 16,22.9906 C13.244,22.9906 11,20.7466 11,17.9906 C11,15.2346 13.244,12.9906 16,12.9906 M32,13.0004 C34.758,13.0004 37,15.2424 37,18.0004 C37,20.7564 34.758,23.0004 32,23.0004 C29.242,23.0004 27,20.7564 27,18.0004 C27,15.2424 29.242,13.0004 32,13.0004 M16,18.0004 L21,9.0004 L29,9.0004 L32,17.9904 M18,7.0004 L22,7.0004 M26,5.0004 L29,5.0004 L29,9.0004 M20.2304,33.6752 C19.6824,34.4872 18.8864,34.9992 18.0004,34.9992 C16.3424,34.9992 15.0004,33.2092 15.0004,30.9992 C15.0004,28.7912 16.3424,26.9992 18.0004,26.9992 C19.1724,26.9992 20.1884,27.8972 20.6824,29.2072 M40,16.5258 C41.898,18.3938 43,20.6158 43,22.9998 C43,26.1278 41.106,28.9758 38,31.1118 M10,31.1128 C6.894,28.9788 5,26.1288 5,23.0008 C5,20.6148 6.1,18.3928 8,16.5248 M16.2042,34.187 C14.5242,35.577 13.2442,37.875 13.0002,40.999 L18.3342,40.999 M29.6484,40.9994 L34.9924,40.9994 C34.7484,37.8774 33.4684,35.5814 31.7904,34.1914 M21.5176,35.892 L21.5096,35.892 C19.6656,37.242 18.2496,39.674 17.9916,43 L29.9916,43 C29.7316,39.678 28.3176,37.246 26.4776,35.898 M28,31.9994 C28,34.7614 26.208,36.9994 24,36.9994 C21.792,36.9994 20,34.7614 20,31.9994 C20,29.2374 21.792,26.9994 24,26.9994 C26.208,26.9994 28,29.2374 28,31.9994 Z M27.3184,29.2064 C27.8104,27.8984 28.8264,26.9984 30.0004,26.9984 C31.6564,26.9984 33.0004,28.7904 33.0004,30.9984 C33.0004,33.2084 31.6564,34.9984 30.0004,34.9984 C29.1144,34.9984 28.3184,34.4884 27.7704,33.6744 M6,19.1802 C5.362,20.3822 5,21.6622 5,23.0002 C5,26.7522 7.73,30.0982 12,32.3002 M36,32.3002 C40.27,30.0982 43,26.7522 43,23.0002 C43,21.6622 42.638,20.3822 42,19.1802 M36,32.3002 C40.27,30.0982 43,26.7522 43,23.0002 C43,20.6222 41.89,18.4102 40,16.5462 M8,16.5454 C6.11,18.4114 5,20.6214 5,23.0014 C5,26.7514 7.73,30.0994 12,32.2994"/>
</svg>
