<svg xmlns="http://www.w3.org/2000/svg" width="48" height="48" viewBox="0 0 48 48">
  <path fill="none" stroke="#000" stroke-width="2" d="M14,17.0004 C17.86,17.0004 21,20.1404 21,24.0004 C21,27.8604 17.86,31.0004 14,31.0004 C10.14,31.0004 7,27.8604 7,24.0004 C7,20.1404 10.14,17.0004 14,17.0004 M34.002,17.0004 C37.862,17.0004 41.002,20.1404 41.002,24.0004 C41.002,27.8604 37.862,31.0004 34.002,31.0004 C30.14,31.0004 27.002,27.8604 27.002,24.0004 C27.002,20.1404 30.14,17.0004 34.002,17.0004 M14,24.0004 L18,13.0004 L29,13.0004 L33,7.0004 L26,7.0004 M34.002,24.0004 L29,13.0004 M14.417,9.0004 L20.001,9.0004 M27,36.9994 L32,36.9894 M27,40.9994 L32,40.9994 M21,38.9994 L14,38.9994 M27,42.9994 L27,34.9994 L24.996,35.0014 C22.788,35.0034 21,36.7914 21,38.9994 C21,41.2074 22.792,42.9994 25,42.9994 L27,42.9994 Z"/>
</svg>
