<svg xmlns="http://www.w3.org/2000/svg" width="48" height="48" viewBox="0 0 48 48">
  <path fill="none" stroke="#000" stroke-width="2" d="M22.001,28.9994 C25.861,28.9994 29.001,32.1394 29.001,35.9994 C29.001,39.8614 25.861,42.9994 22.001,42.9994 C18.141,42.9994 15.001,39.8614 15.001,35.9994 C15.001,32.1394 18.141,28.9994 22.001,28.9994 M3.9882,42.7124 C6.8822,41.8524 9.0002,39.1704 9.0002,36.0004 C9.0002,32.9804 7.0702,30.4204 4.3842,29.4404 L6.0002,25.0004 L17.0002,25.0004 L21.0002,19.0004 L14.0002,19.0004 M22.001,35.9994 L17.001,24.9994 M4,21.0004 L8,21.0004 M33,20.0004 L33,9.0004 L36,9.0004 C37.97,9.0004 39,9.9944 39,12.0004 C39,14.0004 37.996,14.9964 36,15.0004 L33,15.0004 M35,23.0004 L35,44.0004 M29,5.0004 L41,5.0004 C42.106,5.0004 43,5.8944 43,7.0004 L43,21.0004 C43,22.1044 42.106,23.0004 41,23.0004 L29,23.0004 C27.894,23.0004 27,22.1044 27,21.0004 L27,7.0004 C27,5.8944 27.894,5.0004 29,5.0004 Z"/>
</svg>
