<svg xmlns="http://www.w3.org/2000/svg" width="48" height="48" viewBox="0 0 48 48">
  <path fill="none" stroke="#000" stroke-width="2" d="M11,32.9994 L11,36.9994 L17,36.9994 L17,32.9994 M31.002,32.9994 L31.002,36.9994 L37,36.9994 L37,32.9994 M11,17.0004 L9,17.0004 L9,19.0004 L11,19.0004 M32,11.0004 L16,11.0004 M37,21.0014 L11,21.0014 M8,33.7748 C6.106,34.7108 5,35.8168 5,36.9988 C5,40.2888 13.464,42.9988 24,42.9988 C34.538,42.9988 43,40.2888 43,36.9988 C43,35.8168 41.894,34.7108 40,33.7768 M32,7.0004 C35.412,7.0004 37,8.5884 37,12.0004 L37,33.0004 L11,33.0004 L11,12.0004 C11,8.5884 12.588,7.0004 16,7.0004 L32,7.0004 M17,27.9994 C17,27.4494 16.552,26.9994 16,26.9994 C15.448,26.9994 15,27.4494 15,27.9994 C15,28.5514 15.448,28.9994 16,28.9994 C16.552,28.9994 17,28.5514 17,27.9994 Z M33,27.9994 C33,27.4494 32.552,26.9994 32,26.9994 C31.448,26.9994 31,27.4494 31,27.9994 C31,28.5514 31.448,28.9994 32,28.9994 C32.552,28.9994 33,28.5514 33,27.9994 Z M37,19.0004 L39,19.0004 L39,17.0004 L37,17.0004"/>
</svg>
