<svg xmlns="http://www.w3.org/2000/svg" width="48" height="48" viewBox="0 0 48 48">
  <path fill="none" stroke="#000" stroke-width="2" d="M14.998,9 L42.998,9 L42.998,5 L14.998,5 L14.998,9 Z M17,9.0024 L17,44.0024 M41.002,9.0024 L41.002,44.0024 M5,25 L13,25 L13,15 L5,15 L5,25 Z M9,25.0004 L9,44.0004 M33,17.0004 C33,18.1044 32.104,19.0004 31,19.0004 C29.894,19.0004 29,18.1044 29,17.0004 C29,15.8944 29.894,15.0004 31,15.0004 C32.104,15.0004 33,15.8944 33,17.0004 Z M35,32.9994 L35,22.9994 L27,22.9994 L27,32.9994 L29,32.9994 L29,42.9994 L33,42.9994 L33,32.9994 L35,32.9994 Z"/>
</svg>
