<svg xmlns="http://www.w3.org/2000/svg" width="48" height="48" viewBox="0 0 48 48">
  <path fill="none" stroke="#000" stroke-width="2" d="M27,36.9994 L32,36.9894 M27,40.9994 L32,40.9994 M21,38.9994 L14,38.9994 M27,42.9994 L27,34.9994 L24.996,35.0014 C22.788,35.0034 21,36.7914 21,38.9994 C21,41.2074 22.792,42.9994 25,42.9994 L27,42.9994 Z M37,26.9994 C37,29.2074 35.208,30.9994 33,30.9994 C30.792,30.9994 29,29.2074 29,26.9994 C29,24.7914 30.792,22.9994 33,22.9994 C35.208,22.9994 37,24.7914 37,26.9994 Z M17,26.9994 C17,29.2074 15.208,30.9994 13,30.9994 C10.792,30.9994 9,29.2074 9,26.9994 C9,24.7914 10.792,22.9994 13,22.9994 C15.208,22.9994 17,24.7914 17,26.9994 Z M9,26.9994 L5,26.9994 L5,17.7514 C5,17.2674 5.176,16.7994 5.496,16.4334 L11.402,9.6834 C11.782,9.2494 12.332,8.9994 12.908,8.9994 L27.17,8.9994 C27.702,8.9994 28.21,9.2114 28.586,9.5874 L36,16.9994 L40.992,17.0034 C42.1,17.0014 42.998,17.8974 42.996,19.0034 L43,26.9994 L37,26.9994 M17,26.9994 L29,26.9994 M5.1562,17.0004 L36.0002,17.0004 M19,9.0004 L19,17.0004"/>
</svg>
