<svg xmlns="http://www.w3.org/2000/svg" width="48" height="48" viewBox="0 0 48 48">
  <path fill="none" stroke="#000" stroke-width="2" d="M33,20.0004 L33,9.0004 L36,9.0004 C37.97,9.0004 39,9.9944 39,12.0004 C39,14.0004 37.996,14.9964 36,15.0004 L33,15.0004 M35,23.0004 L35,44.0004 M29,5.0004 L41,5.0004 C42.106,5.0004 43,5.8944 43,7.0004 L43,21.0004 C43,22.1044 42.106,23.0004 41,23.0004 L29,23.0004 C27.894,23.0004 27,22.1044 27,21.0004 L27,7.0004 C27,5.8944 27.894,5.0004 29,5.0004 Z M21,38.9994 C21,41.2074 19.208,42.9994 17,42.9994 C14.792,42.9994 13,41.2074 13,38.9994 C13,36.7914 14.792,34.9994 17,34.9994 C19.208,34.9994 21,36.7914 21,38.9994 Z M21,38.9994 L27,38.9994 L27,31.0034 C27,29.8974 26.102,29.0014 24.996,29.0034 L20,28.9994 L12.586,21.5874 C12.21,21.2114 11.702,20.9994 11.17,20.9994 L4,20.9994 M4,38.9994 L13,38.9994 M4,28.9994 L20,28.9994"/>
</svg>
