<svg xmlns="http://www.w3.org/2000/svg" width="48" height="48" viewBox="0 0 48 48">
  <path fill="none" stroke="#000" stroke-width="2" d="M17,27.9994 C17,27.4494 16.552,26.9994 16,26.9994 C15.448,26.9994 15,27.4494 15,27.9994 C15,28.5514 15.448,28.9994 16,28.9994 C16.552,28.9994 17,28.5514 17,27.9994 Z M33,27.9994 C33,27.4494 32.552,26.9994 32,26.9994 C31.448,26.9994 31,27.4494 31,27.9994 C31,28.5514 31.448,28.9994 32,28.9994 C32.552,28.9994 33,28.5514 33,27.9994 Z M11,32.9994 L11,36.9994 L17,36.9994 L17,32.9994 M31.002,32.9994 L31.002,36.9994 L37,36.9994 L37,32.9994 M11,21.0014 L8,21.0014 M40,21.0014 L37,21.0014 M37,23.0014 L11,23.0014 M32,13.0004 C35.412,13.0004 37,14.5884 37,18.0004 L37,33.0004 L11,33.0004 L11,18.0004 C11,14.5884 12.588,13.0004 16,13.0004 L32,13.0004 M33,23.0004 C33,20.7904 31.208,19.0004 29,19.0004 C26.792,19.0004 25,20.7904 25,23.0004"/>
</svg>
