<svg xmlns="http://www.w3.org/2000/svg" width="48" height="48" viewBox="0 0 48 48">
  <path fill="none" stroke="#000" stroke-width="2" d="M37,33.9994 C37,33.4494 36.552,32.9994 36,32.9994 C35.448,32.9994 35,33.4494 35,33.9994 C35,34.5514 35.448,34.9994 36,34.9994 C36.552,34.9994 37,34.5514 37,33.9994 Z M15,38.9994 L15,42.9994 L21,42.9994 L21,38.9994 M35.002,38.9994 L35.002,42.9994 L41,42.9994 L41,38.9994 M44,27.0014 L41,27.0014 M41,29.0014 L24,29.0014 M37,28.9994 C37,26.7914 35.208,24.9994 33,24.9994 C30.792,24.9994 29,26.7914 29,28.9994 M20,32.9994 C19.448,32.9994 19,33.4474 19,33.9994 C19,34.5514 19.448,34.9994 20,34.9994 C20.552,34.9994 21,34.5514 21,33.9994 C21,33.4474 20.552,32.9994 20,32.9994 Z M15,37.9994 L15,38.9994 L41,38.9994 L41,23.9994 C41,20.5894 39.412,18.9994 36,18.9994 L34,18.9994 M27,10.9994 L28.874,15.1254 M38,9.9994 L8,39.9994 M12,12.9994 C15.86,12.9994 19,16.1394 19,19.9994 C19,23.8614 15.86,26.9994 12,26.9994 C8.14,26.9994 5,23.8614 5,19.9994 C5,16.1394 8.14,12.9994 12,12.9994 M12,19.9994 L16,10.9994 L27,10.9994 L31,4.9994 L24,4.9994 M12.417,6.9994 L18.001,6.9994"/>
</svg>
