<svg xmlns="http://www.w3.org/2000/svg" width="48" height="48" viewBox="0 0 48 48">
  <path fill="none" stroke="#000" stroke-width="2" d="M37,31.9994 C37,33.6574 35.656,34.9994 34,34.9994 C32.344,34.9994 31,33.6574 31,31.9994 C31,30.3434 32.344,28.9994 34,28.9994 C35.656,28.9994 37,30.3434 37,31.9994 Z M17,31.9994 C17,33.6574 15.658,34.9994 14,34.9994 C12.342,34.9994 11,33.6574 11,31.9994 C11,30.3434 12.342,28.9994 14,28.9994 C15.658,28.9994 17,30.3434 17,31.9994 Z M11,25 L17,25 L17,15 L11,15 L11,25 Z M21,25 L27,25 L27,15 L21,15 L21,25 Z M31,25 L37,25 L37,15 L31,15 L31,25 Z M9,35.9994 L9,35.9994 C9,37.6574 10.342,38.9994 12,38.9994 M5,35.9994 L5,35.9994 C5,39.8674 8.134,42.9994 12,42.9994 M39,35.9994 L39,35.9994 C39,37.6574 37.656,38.9994 36,38.9994 M43,35.9994 L43,35.9994 C43,39.8674 39.866,42.9994 36,42.9994 M16.8164,32.9994 L31.1844,32.9994 M36.8164,32.9994 L41.0004,32.9994 L41.0004,12.9994 C41.0004,11.8954 40.1064,10.9994 39.0004,10.9994 L9.0004,10.9994 C7.8964,10.9994 7.0004,11.8954 7.0004,12.9994 L7.0004,32.9994 L11.1844,32.9994"/>
</svg>
