<svg xmlns="http://www.w3.org/2000/svg" width="48" height="48" viewBox="0 0 48 48">
  <path fill="none" stroke="#000" stroke-width="2" d="M13,32.9994 L13,36.9994 L19,36.9994 L19,32.9994 M13,18.9994 L11,18.9994 L11,20.9994 L13,20.9994 M35,18.9994 L37,18.9994 L37,20.9994 L35,20.9994 M35,23.0014 L13,22.9994 M19,27.9994 C19,27.4494 18.552,26.9994 18,26.9994 C17.448,26.9994 17,27.4494 17,27.9994 C17,28.5514 17.448,28.9994 18,28.9994 C18.552,28.9994 19,28.5514 19,27.9994 Z M31,27.9994 C31,27.4494 30.552,26.9994 30,26.9994 C29.448,26.9994 29,27.4494 29,27.9994 C29,28.5514 29.448,28.9994 30,28.9994 C30.552,28.9994 31,28.5514 31,27.9994 Z M39,29.9994 L39,25.9994 M43,31.9994 L43,23.9994 M9,25.9994 L9,29.9994 M5,23.9994 L5,31.9994 M35,32.9994 L13,32.9994 L13,13.9994 C13,11.2374 15.238,8.9994 18,8.9994 L30,8.9994 C32.762,8.9994 35,11.2374 35,13.9994 L35,32.9994 Z M29.002,32.9994 L29.002,36.9994 L35,36.9994 L35,32.9994 M30,13.0014 L18,12.9994"/>
</svg>
