<svg xmlns="http://www.w3.org/2000/svg" width="48" height="48" viewBox="0 0 48 48">
  <path fill="none" stroke="#000" stroke-width="2" d="M7,31 L41,31 L41,17 L7,17 L7,31 Z M31,17 L31,31 M17,17 L17,31 M13,32.0058 C13,32.5578 12.552,33.0058 12,33.0058 C11.448,33.0058 11,32.5578 11,32.0058 C11,31.4558 11.448,31.0058 12,31.0058 C12.552,31.0058 13,31.4558 13,32.0058 Z M3.996,29.0118 L7,29.0118 M40.998,29.0118 L44.002,29.0118 M37,32.0058 C37,32.5578 36.552,33.0058 36,33.0058 C35.448,33.0058 35,32.5578 35,32.0058 C35,31.4558 35.448,31.0058 36,31.0058 C36.552,31.0058 37,31.4558 37,32.0058 Z"/>
</svg>
