<svg xmlns="http://www.w3.org/2000/svg" width="48" height="48" viewBox="0 0 48 48">
  <path fill="none" stroke="#000" stroke-width="2" d="M29,18.9994 L29,36.9994 L20.98,36.9994 L20.98,28.9994 L14.98,28.9994 L14.98,36.9994 L7,36.9994 L7,18.9994 M4,21.9994 L18,7.9994 L32,21.9994 M39,28.9994 L39,35.9994 C39.006,37.0854 39.008,38.9994 37,38.9994 C35,38.9994 35.002,37.0394 35,35.9994 L35,33.9994 C34.954,31.9854 33.996,30.9994 32,30.9994 L29,30.9994 M43,24.9994 C43,27.2074 41.208,28.9994 39,28.9994 C36.792,28.9994 35,27.2074 35,24.9994 L35,22.9994 L43,22.9994 L43,24.9994 Z M37,22.9994 L37,17.9994 M41,22.9994 L41,17.9994"/>
</svg>
