<svg xmlns="http://www.w3.org/2000/svg" width="48" height="48" viewBox="0 0 48 48">
  <path fill="none" stroke="#000" stroke-width="2" d="M27,36.9994 L32,36.9894 M27,40.9994 L32,40.9994 M21,38.9994 L14,38.9994 M27,42.9994 L27,34.9994 L24.996,35.0014 C22.788,35.0034 21,36.7914 21,38.9994 C21,41.2074 22.792,42.9994 25,42.9994 L27,42.9994 Z M12,25.0004 C13.654,25.0004 15,26.3464 15,28.0004 C15,29.6544 13.654,31.0004 12,31.0004 C10.346,31.0004 9,29.6544 9,28.0004 C9,26.3464 10.346,25.0004 12,25.0004 M36,25.0004 C37.654,25.0004 39,26.3464 39,28.0004 C39,29.6544 37.654,31.0004 36,31.0004 C34.346,31.0004 33,29.6544 33,28.0004 C33,26.3464 34.346,25.0004 36,25.0004 M14.8154,26.9994 L28.9994,26.9994 C28.9994,23.6914 31.6914,20.9994 34.9994,20.9994 L34.9994,4.9994 L31.9994,4.9994"/>
</svg>
