<svg xmlns="http://www.w3.org/2000/svg" width="48" height="48" viewBox="0 0 48 48">
  <g fill="none" fill-rule="evenodd">
    <path stroke="#000" stroke-width="2" d="M6.003,37.0014 L42.005,37.0014 M6.003,11.0004 L42.005,11.0004"/>
    <path fill="#000" d="M35.7912,15.9956 C37.3232,15.9956 38.4972,16.2376 39.3152,16.7176 C39.9932,17.1116 40.5112,17.6376 40.8692,18.2936 C41.2272,18.9516 41.4072,19.6916 41.4072,20.5156 C41.4072,21.4516 41.1812,22.2636 40.7332,22.9576 C40.2832,23.6516 39.6572,24.1476 38.8552,24.4456 C39.5632,24.6196 40.1172,25.0156 40.5192,25.6276 C40.7752,26.0156 40.9452,26.4196 41.0332,26.8436 C41.1212,27.2656 41.2352,28.2316 41.3732,29.7436 C41.4752,30.8516 41.6332,31.5416 41.8432,31.8116 L41.9952,31.9976 L38.3512,31.9976 C38.2292,31.7716 38.1392,31.4836 38.0832,31.1316 C38.0292,30.7836 37.9572,29.9716 37.8712,28.7016 C37.7832,27.5716 37.5072,26.7876 37.0432,26.3556 C36.5792,25.9216 35.7912,25.7036 34.6732,25.7036 L31.5332,25.7036 L31.5332,31.9976 L28.0412,31.9976 L28.0412,15.9956 L35.7912,15.9956 Z M12.4368,15.9946 C13.5248,15.9946 14.3808,16.0626 15.0048,16.1986 C15.6288,16.3326 16.1908,16.5726 16.6948,16.9146 C18.0888,17.8486 18.7868,19.2566 18.7868,21.1406 C18.7868,22.8106 18.2108,24.1246 17.0568,25.0806 C16.5668,25.4906 16.0108,25.7846 15.3828,25.9626 C14.7548,26.1406 13.9808,26.2306 13.0608,26.2306 L9.4708,26.2306 L9.4708,31.9966 L5.9788,31.9966 L5.9788,15.9946 L12.4368,15.9946 Z M23.6772,21.1254 L23.6772,24.2094 L26.7732,24.2094 L26.7732,25.9754 L23.6772,25.9754 L23.6772,29.0594 L21.9092,29.0594 L21.9092,25.9754 L18.8252,25.9754 L18.8252,24.2094 L21.9092,24.2094 L21.9092,21.1254 L23.6772,21.1254 Z M12.4048,18.9506 L9.4708,18.9506 L9.4708,23.4826 L12.5908,23.4826 C13.5168,23.4826 14.1848,23.3186 14.5948,22.9906 C15.0968,22.5806 15.3488,21.9806 15.3488,21.1846 C15.3488,20.3806 15.0568,19.7826 14.4728,19.3886 C14.0508,19.0966 13.3608,18.9506 12.4048,18.9506 Z M35.0132,18.7436 L31.5332,18.7436 L31.5332,23.1436 L34.8712,23.1436 C35.9432,23.1436 36.6992,22.9896 37.1372,22.6836 C37.6912,22.2976 37.9692,21.7136 37.9692,20.9316 C37.9692,20.1736 37.7332,19.6176 37.2572,19.2696 C36.7832,18.9176 36.0352,18.7436 35.0132,18.7436 Z"/>
  </g>
</svg>
