<svg xmlns="http://www.w3.org/2000/svg" width="48" height="48" viewBox="0 0 48 48">
  <path fill="none" stroke="#000" stroke-width="2" d="M8,42.9994 L36,42.9994 M11,42.9994 L11,8.9994 C11,6.7914 12.792,4.9994 15,4.9994 L29,4.9994 C31.208,4.9994 33,6.7914 33,8.9994 L33,42.9994 M15,19 L29,19 L29,11 L15,11 L15,19 Z M36,10.0004 L41,16.0004 L41,34.0004 C41.006,35.0844 41.008,37.0004 39,37.0004 C37,37.0004 37.002,35.0384 37,34.0004 L37,32.0004 C36.954,29.9864 35.996,29.0004 34,29.0004 L33,29.0004"/>
</svg>
