<svg xmlns="http://www.w3.org/2000/svg" width="48" height="48" viewBox="0 0 48 48">
  <path fill="none" stroke="#000" stroke-width="2" d="M41,26.9994 C41,29.2074 39.208,30.9994 37,30.9994 C34.792,30.9994 33,29.2074 33,26.9994 C33,24.7914 34.792,22.9994 37,22.9994 C39.208,22.9994 41,24.7914 41,26.9994 Z M17,26.9994 C17,29.2074 15.208,30.9994 13,30.9994 C10.792,30.9994 9,29.2074 9,26.9994 M28,5.0004 L32,5.0004 L37,19.0004 M28,5.0004 L32,5.0004 L37,19.0004 M33.9122,10.353 L24.0002,23.001 L17.0002,23.001 C17.0002,18.611 19.0002,15.001 19.0002,15.001 L14.0002,15.001 C11.1702,15.131 4.7982,19.955 5.0002,26.999 L29.0002,26.999 C29.0002,22.581 32.5822,19.001 37.0002,19.001 C38.8842,19.001 40.6182,19.651 41.9862,20.743 M27,36.9994 L32,36.9894 M27,40.9994 L32,40.9994 M21,38.9994 L14,38.9994 M27,42.9994 L27,34.9994 L24.996,35.0014 C22.788,35.0034 21,36.7914 21,38.9994 C21,41.2074 22.792,42.9994 25,42.9994 L27,42.9994 Z"/>
</svg>
