<svg xmlns="http://www.w3.org/2000/svg" width="48" height="48" viewBox="0 0 48 48">
  <path fill="none" stroke="#000" stroke-width="2" d="M41,32.9994 C41,35.2074 39.208,36.9994 37,36.9994 C34.792,36.9994 33,35.2074 33,32.9994 C33,30.7914 34.792,28.9994 37,28.9994 C39.208,28.9994 41,30.7914 41,32.9994 Z M17,32.9994 C17,35.2074 15.208,36.9994 13,36.9994 C10.792,36.9994 9,35.2074 9,32.9994 M28,11.0004 L32,11.0004 L37,25.0004 M28,11.0004 L32,11.0004 L37,25.0004 M33.9122,16.353 L24.0002,28.999 L17.0002,28.999 C17.0002,24.611 19.0002,21.001 19.0002,21.001 L14.0002,21.001 C11.1702,21.131 4.7982,25.955 5.0002,32.999 L29.0002,32.999 C29.0002,28.581 32.5822,25.001 37.0002,25.001 C38.8842,25.001 40.6182,25.651 41.9862,26.743"/>
</svg>
