<svg xmlns="http://www.w3.org/2000/svg" width="48" height="48" viewBox="0 0 48 48">
  <path fill="none" stroke="#000" stroke-width="2" d="M8.9998,28.9994 L8.9998,32.9994 L14.9998,32.9994 L14.9998,28.9994 M33.0018,28.9994 L33.0018,32.9994 L38.9998,32.9994 L38.9998,28.9994 M33.9998,9.0004 L13.9998,9.0004 M38.9998,19.0014 L8.9998,19.0014 M8.9998,15.0004 L6.9998,15.0004 L6.9998,17.0004 L8.9998,17.0004 M33.9998,5.0004 C37.4118,5.0004 38.9998,6.5884 38.9998,10.0004 L38.9998,29.0004 L8.9998,29.0004 L8.9998,10.0004 C8.9998,6.5884 10.5878,5.0004 13.9998,5.0004 L33.9998,5.0004 Z M14.9998,24.0004 C14.9998,23.4484 14.5518,23.0004 13.9998,23.0004 C13.4478,23.0004 12.9998,23.4484 12.9998,24.0004 C12.9998,24.5524 13.4478,25.0004 13.9998,25.0004 C14.5518,25.0004 14.9998,24.5524 14.9998,24.0004 Z M34.9998,24.0004 C34.9998,23.4484 34.5518,23.0004 33.9998,23.0004 C33.4478,23.0004 32.9998,23.4484 32.9998,24.0004 C32.9998,24.5524 33.4478,25.0004 33.9998,25.0004 C34.5518,25.0004 34.9998,24.5524 34.9998,24.0004 Z M38.9998,17.0004 L40.9998,17.0004 L40.9998,15.0004 L38.9998,15.0004 M9.4998,40.9994 L19.9998,40.9994 M13.288,37.2964 L9.5,41.0004 L13.292,44.6844 M38.4998,40.9818 L27.9998,40.9818 M34.7128,44.685 L38.5008,40.981 L34.7068,37.297"/>
</svg>
