<svg xmlns="http://www.w3.org/2000/svg" width="48" height="48" viewBox="0 0 48 48">
  <path fill="none" stroke="#000" stroke-width="2" d="M37,30.9994 C37,33.2074 35.208,34.9994 33,34.9994 C30.792,34.9994 29,33.2074 29,30.9994 C29,28.7914 30.792,26.9994 33,26.9994 C35.208,26.9994 37,28.7914 37,30.9994 Z M17,30.9994 C17,33.2074 15.208,34.9994 13,34.9994 C10.792,34.9994 9,33.2074 9,30.9994 C9,28.7914 10.792,26.9994 13,26.9994 C15.208,26.9994 17,28.7914 17,30.9994 Z M9,30.9994 L5,30.9994 L5,21.7514 C5,21.2674 5.176,20.7994 5.496,20.4334 L11.402,13.6834 C11.782,13.2494 12.332,12.9994 12.908,12.9994 L27.17,12.9994 C27.702,12.9994 28.21,13.2114 28.586,13.5874 L36,20.9994 L40.992,21.0034 C42.1,21.0014 42.998,21.8974 42.996,23.0034 L43,30.9994 L37,30.9994 M17,30.9994 L29,30.9994 M5.1562,21.0004 L36.0002,21.0004 M19,13.0004 L19,21.0004 M15,13.0004 L15,9.0004 L25,9.0004 L25,13.0004"/>
</svg>
