<svg xmlns="http://www.w3.org/2000/svg" width="48" height="48" viewBox="0 0 48 48">
  <path fill="none" stroke="#000" stroke-width="2" d="M4,40.9994 L44,40.9994 M4,36.9994 L26,36.9994 L38,36.9994 C39.656,36.9994 41,35.6574 41,33.9994 C41,33.5234 40.878,33.0774 40.68,32.6774 L36.472,21.0754 C35.254,17.5474 31.94,14.9994 28,14.9994 L4,14.9994 M15,29 L23,29 L23,21 L15,21 L15,29 Z M4,21.0004 L11,21.0004 L11,29.0004 L4,29.0004 M20,15.0004 L26,11.0004 L20,7.0004 L14,11.0004 L20,15.0004 M33,36.9994 C33,39.2074 31.208,40.9994 29,40.9994 C26.792,40.9994 25,39.2074 25,36.9994 M15,36.9994 C15,39.2074 13.208,40.9994 11,40.9994 C8.792,40.9994 7,39.2074 7,36.9994 M36.4726,21.0746 C36.4626,21.0486 36.4486,21.0266 36.4386,21.0006 L27.0006,21.0006 L27.0006,28.9986 L39.3466,28.9986"/>
</svg>
