<svg xmlns="http://www.w3.org/2000/svg" width="48" height="48" viewBox="0 0 48 48">
  <path fill="none" stroke="#000" stroke-width="2" d="M32,34.9994 L36,42.9994 M12,42.9994 L16,34.9994 M36,38.9994 L12,38.9994 M38,42.9994 L10,42.9994 M28,15.0004 L20,15.0004 M37,25.0004 L11,25.0004 M32,5.0004 L16,5.0004 M37,34.9994 L11,34.9994 L11,15.9994 C11,13.2394 13.238,10.9994 16,10.9994 L32,10.9994 C34.762,10.9994 37,13.2394 37,15.9994 L37,34.9994 Z M20,5.0004 L24,11.0004 M28,5.0004 L24,11.0004 M31,29.9994 C31,29.4494 30.552,28.9994 30,28.9994 C29.448,28.9994 29,29.4494 29,29.9994 C29,30.5514 29.448,30.9994 30,30.9994 C30.552,30.9994 31,30.5514 31,29.9994 Z M19,29.9994 C19,29.4494 18.552,28.9994 18,28.9994 C17.448,28.9994 17,29.4494 17,29.9994 C17,30.5514 17.448,30.9994 18,30.9994 C18.552,30.9994 19,30.5514 19,29.9994 Z"/>
</svg>
