<svg xmlns="http://www.w3.org/2000/svg" width="48" height="48" viewBox="0 0 48 48">
  <path fill="none" stroke="#000" stroke-width="2" d="M28,15.0004 L20,15.0004 M21,11.0004 L21,9.0004 L27,9.0004 L27,11.0004 M32,36.9994 L36,42.9994 M12,42.9994 L16,36.9994 M37,26.9994 L11,26.9994 M37,36.9994 L11,36.9994 L11,15.9994 C11,13.2394 13.238,10.9994 16,10.9994 L32,10.9994 C34.762,10.9994 37,13.2394 37,15.9994 L37,36.9994 Z M31,31.9994 C31,31.4494 30.552,30.9994 30,30.9994 C29.448,30.9994 29,31.4494 29,31.9994 C29,32.5514 29.448,32.9994 30,32.9994 C30.552,32.9994 31,32.5514 31,31.9994 Z M19,31.9994 C19,31.4494 18.552,30.9994 18,30.9994 C17.448,30.9994 17,31.4494 17,31.9994 C17,32.5514 17.448,32.9994 18,32.9994 C18.552,32.9994 19,32.5514 19,31.9994 Z"/>
</svg>
