<svg xmlns="http://www.w3.org/2000/svg" width="24" height="24" viewBox="0 0 24 24"><path fill="none" stroke="#000" d="M8.5,17.5 L8.5,22 M15.5,15.5 L15.5,22 M11.2548,5.5779 C10.4648,4.8979 9.5188,4.4999 8.4998,4.4999 C5.7388,4.4999 3.4998,7.4099 3.4998,10.9999 C3.4998,14.5899 5.7388,17.4999 8.4998,17.4999 C10.2938,17.4999 11.8628,16.2669 12.7448,14.4219 M20.5,9 C20.5,12.59 18.261,15.5 15.5,15.5 C12.739,15.5 10.5,12.59 10.5,9 C10.5,5.41 12.739,2.5 15.5,2.5 C18.261,2.5 20.5,5.41 20.5,9 Z M15,4.5645 C13.801,4.8665 12.851,6.2385 12.583,7.9995 M8,6.5756 C6.802,6.8786 5.852,8.2416 5.584,9.9996"/></svg>