<svg xmlns="http://www.w3.org/2000/svg" width="24" height="24" viewBox="0 0 24 24"><path fill="none" stroke="#000" d="M6.7742,4.1192 L8.0152,4.8942 L9.6172,4.8942 L10.1852,2.6942 M21.5,12 C21.5,17.247 17.247,21.5 12,21.5 C6.753,21.5 2.5,17.247 2.5,12 C2.5,6.753 6.753,2.5 12,2.5 C17.247,2.5 21.5,6.753 21.5,12 Z M15.9381,20.6377 L15.5231,17.6657 C15.5081,17.5587 15.4581,17.4587 15.3811,17.3817 L13.5001,15.4997 L12.7551,14.7547 C12.6031,14.6027 12.3701,14.5647 12.1781,14.6607 L11.2231,15.1387 C10.8911,15.3047 10.5001,15.0627 10.5001,14.6907 L10.5001,13.9997 C10.5001,13.7237 10.2761,13.4997 10.0001,13.4997 L6.5001,13.4997 L4.7981,13.4997 C4.6141,13.4997 4.4451,13.6007 4.3581,13.7627 L3.2791,15.7647 M17.1617,4.0314 L15.9187,4.8404 C15.6887,4.9904 15.3687,5.2954 15.2077,5.5184 L14.6497,6.2924 C14.5557,6.4224 14.4047,6.5004 14.2437,6.5004 L11.7067,6.5004 C11.5747,6.5004 11.4477,6.5524 11.3537,6.6464 L9.5487,8.4514 C9.5167,8.4834 9.4797,8.5114 9.4407,8.5334 L7.5357,9.6064 C7.1497,9.8234 7.2167,10.3984 7.6417,10.5214 L9.3817,11.0284 C9.4597,11.0514 9.5417,11.0544 9.6207,11.0384 L13.3917,10.2814 C13.4627,10.2674 13.5367,10.2684 13.6067,10.2854 L14.0137,10.3834 C14.2817,10.4474 14.4997,10.7254 14.4997,11.0004 L14.4997,13.2874 C14.4997,13.4234 14.5557,13.5534 14.6537,13.6474 L19.2817,18.0974"/></svg>