<?xml version="1.0" encoding="UTF-8"?>
<svg width="24px" height="24px" viewBox="0 0 24 24" version="1.1" xmlns="http://www.w3.org/2000/svg" xmlns:xlink="http://www.w3.org/1999/xlink">
    <title>KOM/responsive/small/180-Leisure/roof-bed-small</title>
    <g id="KOM/responsive/small/180-Leisure/roof-bed-small" stroke="none" stroke-width="1" fill="none" fill-rule="evenodd">
        <path d="M2.5002,22.0002 L2.5002,11.0002 L2.5002,22.0002 Z M2.5,11 L2.5,22 M2.5002,17.5002 L21.5002,17.5002 L2.5002,17.5002 Z M2.5,17.5 L21.5,17.5 M7.5,14 C7.5,14.828 6.828,15.5 6,15.5 C5.172,15.5 4.5,14.828 4.5,14 C4.5,13.172 5.172,12.5 6,12.5 C6.828,12.5 7.5,13.172 7.5,14 Z M9.5,17.5 L9.5,13.5 L19.5,13.5 C20.605,13.5 21.5,14.395 21.5,15.5 L21.5,22 M2,8 L12,3 L22,8" id="Combined-Shape" stroke="#000000"></path>
    </g>
</svg>