<svg xmlns="http://www.w3.org/2000/svg" width="24" height="24" viewBox="0 0 24 24"><path fill="none" stroke="#000" d="M12,2.5 C17.247,2.5 21.5,6.753 21.5,12 C21.5,17.247 17.247,21.5 12,21.5 C6.753,21.5 2.5,17.247 2.5,12 C2.5,6.753 6.753,2.5 12,2.5 Z M12,6 L12,9 M18.3532,10.61 L15.5002,11.537 M15.9234,18.0871 L14.1604,15.6601 M8.08,18.0871 L9.843,15.6601 M5.65,10.61 L8.503,11.537 M15.8918,3.3313 L11.9998,6.0003 L8.1078,3.3313 M21.4475,12.9957 L18.3395,10.6057 L19.6075,6.3107 M14.8699,21.0578 L15.9209,18.0988 L19.3609,18.0048 M4.6399,18.0049 L8.0769,18.0989 L9.1289,21.0579 M4.386,6.3199 L5.651,10.6059 L2.552,12.9889 M12,9 L8.5,11.543 L9.837,15.658 L14.163,15.658 L15.5,11.543 L12,9 Z"/></svg>