<svg xmlns="http://www.w3.org/2000/svg" width="24" height="24" viewBox="0 0 24 24"><path fill="none" stroke="#000" d="M13.5,7.5003 L18.5,7.5003 L13.5,7.5003 Z M13.5,7.5 L18.5,7.5 M13.5,10.5 L18.5,10.5 L13.5,10.5 Z M13.5,10.5002 L18.5,10.5002 M2,13.5001 C3.664,13.5001 3.664,15.5001 5.328,15.5001 C6.993,15.5001 6.993,13.5001 8.659,13.5001 C10.325,13.5001 10.325,15.5001 11.991,15.5001 C13.657,15.5001 13.657,13.5001 15.324,13.5001 C16.993,13.5001 16.993,15.5001 18.662,15.5001 C20.331,15.5001 20.331,13.5001 22,13.5001 M2,17.5003 C3.664,17.5003 3.664,19.5003 5.328,19.5003 C6.993,19.5003 6.993,17.5003 8.659,17.5003 C10.325,17.5003 10.325,19.5003 11.991,19.5003 C13.657,19.5003 13.657,17.5003 15.324,17.5003 C16.993,17.5003 16.993,19.5003 18.662,19.5003 C20.331,19.5003 20.331,17.5003 22,17.5003 M16.5,5.0001 C16.5,4.1721 15.828,3.5001 15,3.5001 C14.172,3.5001 13.5,4.1721 13.5,5.0001 L13.5,14.7501 M21.5003,5.0001 C21.5003,4.1721 20.8283,3.5001 20.0003,3.5001 C19.1723,3.5001 18.5003,4.1721 18.5003,5.0001 L18.5003,15.5001"/></svg>