<svg xmlns="http://www.w3.org/2000/svg" width="48" height="48" viewBox="0 0 48 48">
  <g fill="none" fill-rule="evenodd">
    <line x1="6.2" x2="42" y1="6" y2="41.8" stroke="#000" stroke-width="2"/>
    <path fill="#000" d="M36,38.01 L36,42.01 L34,42.01 L34,38.01 L36,38.01 Z M40,38.8274 L42,40.8274 L42,42.0094 L40,42.0094 L40,42.0034 L38,42.0034 L38,40.0034 L40,40.0034 L40,38.8274 Z M30,38.0092 L30,40.0032 L32,40.0032 L32,42.0032 L30,42.0032 L30,42.0092 L28,42.0092 L28,38.0092 L30,38.0092 Z M7.998,38.0034 L7.998,40.0094 L11.998,40.0094 L11.998,42.0094 L7.998,42.0094 L7.998,42.0034 L5.998,42.0034 L5.998,38.0034 L7.998,38.0034 Z M26,40.002 L26,42.004 L22,42.004 L22,40.002 L26,40.002 Z M17.998,36.0074 L17.999,38.0034 L19.999,38.0034 L19.999,36.0094 L21.999,36.0094 L21.999,40.0094 L19.999,40.0094 L19.999,40.0034 L17.999,40.0034 L17.998,38.0074 L15.998,38.0074 L15.998,42.0034 L13.998,42.0034 L13.998,40.0094 L11.998,40.0094 L11.998,38.0094 L13.998,38.0094 L13.998,36.0074 L17.998,36.0074 Z M32,30.8274 L33.18,32.0074 L32,32.0074 L32,36.0034 L34,36.0034 L34,38.0034 L30,38.0034 L30,34.0034 L28,34.0034 L28,36.0074 L26,36.0074 L26,38.0074 L24,38.0074 L24,34.0074 L26,34.0074 L26,32.0074 L32,32.0034 L32,30.8274 Z M37.176,36.003 L39.176,38.003 L36,38.003 L36,36.003 L37.176,36.003 Z M14,34.006 L14,36.006 L9.998,36.006 L9.998,34.006 L14,34.006 Z M7.998,34.002 L7.998,36.002 L5.998,36.002 L5.998,34.002 L7.998,34.002 Z M41.9992,34.0032 L41.9992,35.1712 L40.8312,34.0032 L41.9992,34.0032 Z M24,32.004 L24,34.004 L20,34.004 L20,32.004 L24,32.004 Z M15.998,30.0034 L15.998,32.0034 L17.998,32.0034 L17.998,34.0034 L13.998,34.0034 L13.998,32.0074 L11.998,32.0074 L11.998,30.0074 L15.998,30.0034 Z M34.0002,32.8272 L35.1762,34.0032 L34.0002,34.0032 L34.0002,32.8272 Z M39.9998,30.0072 L39.9998,33.1712 L37.9998,31.1712 L37.9998,30.0072 L39.9998,30.0072 Z M9.998,22.002 L9.998,24.002 L11.998,24.0018 L11.998,22.008 L15.998,22.008 L15.998,24.008 L11.999,24.0078 L12,26.002 L9.998,26.002 L9.998,24.002 L7.998,24.002 L7.998,28.0034 L9.998,28.0034 L9.998,32.0074 L5.998,32.0074 L5.998,30.0074 L7.998,30.0034 L7.998,28.004 L5.998,28.004 L5.998,24.002 L7.998,24.002 L7.998,22.002 L9.998,22.002 Z M42,26.0072 L42,30.0072 L40,30.0072 L40,28.0072 L38,28.0072 L38,30.0072 L36.836,30.0072 L36,29.1712 L36,26.0072 L42,26.0072 Z M19.172,17.9994 L21.172,19.9994 L20,19.9994 L20,27.9994 L28,27.9994 L28,26.8274 L30,28.8274 L30,29.9994 L18,29.9994 L18,17.9994 L19.172,17.9994 Z M15.998,26.008 L15.998,28.008 L11.998,28.008 L11.998,26.008 L15.998,26.008 Z M38,22.0064 L38,24.0064 L36,24.0064 L36,26.0024 L32.83,26.0024 L32,25.1724 L32,24.0024 L36,24.0024 L36,22.0064 L38,22.0064 Z M23.17,22.0004 L26,24.8284 L26,26.0004 L22,26.0004 L22,22.0004 L23.17,22.0004 Z M42,20.006 L42,24.008 L40,24.008 L40,20.006 L42,20.006 Z M30,18.0004 L30,23.1724 L28,21.1724 L28,20.0004 L26.828,20.0004 L24.828,18.0004 L30,18.0004 Z M36,20.002 L36,22.002 L32,22.002 L32,20.002 L36,20.002 Z M7.998,18.002 L7.998,22.002 L5.998,22.002 L5.998,18.002 L7.998,18.002 Z M42,16.0024 L42,18.0024 L40,18.0064 L40,20.0064 L38,20.0064 L38,16.0024 L42,16.0024 Z M8,12.0004 L8,14.0004 L10,14.0004 L10,18.0004 L13.998,18.0004 L13.998,20.0004 L9.998,20.0004 L9.998,18.0004 L8,18.0004 L8,16.0004 L6,16.0004 L6,12.0004 L8,12.0004 Z M34,14.0064 L34,16.0024 L36,16.0024 L36,18.0024 L34,18.0024 L34,18.0064 L32,18.0064 L32,14.0064 L34,14.0064 Z M15.998,16.002 L15.998,18.002 L13.998,18.002 L13.998,16.002 L15.998,16.002 Z M23.999,12.0062 L23.999,16.0062 L22.833,16.0062 L20.829,14.0022 L21.999,14.0022 L21.999,12.0062 L23.999,12.0062 Z M11.17,9.9994 L15.178,14.0054 L13.998,14.0054 L13.998,16.0054 L11.998,16.0054 L11.998,12.0054 L9.998,11.9994 L9.998,9.9994 L11.17,9.9994 Z M30,14.002 L30,16.004 L28,16.004 L28,14.002 L30,14.002 Z M42,12.004 L42,14.006 L40,14.006 L40,12.004 L42,12.004 Z M33.999,6.0062 L33.999,8.0022 L35.999,8.0022 L35.999,10.0022 L33.999,10.0022 L33.999,12.0022 L27.999,12.0062 L27.999,14.0062 L25.999,14.0062 L25.999,10.0062 L27.999,10.0062 L27.999,8.0062 L29.999,8.0062 L29.999,10.0022 L31.999,10.0022 L31.999,6.0062 L33.999,6.0062 Z M38,12.002 L38,14.002 L34,14.002 L34,12.002 L38,12.002 Z M25.999,6.0062 L25.999,10.0062 L23.999,10.0062 L23.999,10.0022 L22.0002,10.002 L22.0002,12.002 L18.8302,12.002 L16.8342,10.006 L17.9982,10.006 L17.9982,10.002 L21.999,10.0022 L21.999,8.0022 L23.999,8.0022 L23.999,6.0062 L25.999,6.0062 Z M7.162,5.9906 L9.172,8.0026 L7.998,8.0066 L7.998,10.0066 L5.998,10.0066 L5.998,5.9906 L7.162,5.9906 Z M40,6.0022 L40,6.0062 L42,6.0062 L42,10.0062 L40,10.0062 L40,8.0022 L36,8.0022 L36,6.0022 L40,6.0022 Z M20.0006,5.9898 L20.0006,7.9918 L14.8186,7.9918 L13.9986,7.1718 L13.9986,5.9898 L20.0006,5.9898 Z"/>
  </g>
</svg>
