<svg xmlns="http://www.w3.org/2000/svg" width="48" height="48" viewBox="0 0 48 48">
  <path fill="none" stroke="#000" stroke-width="2" d="M36,21.0014 L30,21.0014 M33,24.0014 L33,18.0014 M37,34.9994 L11,34.9994 C8.792,34.9994 7,33.2074 7,30.9994 L7,16.9994 C7,14.7914 8.792,12.9994 11,12.9994 L37,12.9994 C39.208,12.9994 41,14.7914 41,16.9994 L41,30.9994 C41,33.2074 39.208,34.9994 37,34.9994 Z M15,25.0004 C12.286,26.0604 11,28.0004 11,31.0004 L23,31.0004 C23,28.0004 21.714,26.0504 19,25.0004 L15,25.0004 Z M17,17.0004 C19.208,17.0004 21,18.7904 21,21.0004 C21,23.2084 19.208,25.0004 17,25.0004 C14.792,25.0004 13,23.2084 13,21.0004 C13,18.7904 14.792,17.0004 17,17.0004 Z"/>
</svg>
