<svg xmlns="http://www.w3.org/2000/svg" width="48" height="48" viewBox="0 0 48 48">
  <g fill="none" fill-rule="evenodd" stroke="#000" stroke-width="2">
    <path d="M37,22.9994 C37,19.5994 39.6,16.9994 43,16.9994 L43,8.9994 L34,8.9994 L5,8.9994 L5,36.9994 L43,36.9994 L43,28.9994 C39.6,28.9994 37,26.3994 37,22.9994 Z M20.1338,20.3314 L15.8658,25.6674 M22,15.0004 C23.656,15.0004 25,16.3424 25,18.0004 C25,19.6564 23.656,21.0004 22,21.0004 C20.342,21.0004 19,19.6564 19,18.0004 C19,16.3424 20.342,15.0004 22,15.0004 Z M14,24.9994 C15.656,24.9994 17,26.3434 17,27.9994 C17,29.6554 15.656,30.9994 14,30.9994 C12.342,30.9994 11,29.6554 11,27.9994 C11,26.3434 12.342,24.9994 14,24.9994 Z"/>
    <line x1="33" x2="33" y1="35.999" y2="9.999" stroke-dasharray="2 2"/>
  </g>
</svg>
