<svg xmlns="http://www.w3.org/2000/svg" width="48" height="48" viewBox="0 0 48 48">
  <g fill="none" fill-rule="evenodd" stroke="#000" stroke-width="2">
    <path d="M37,22.9994 C37,19.5994 39.6,16.9994 43,16.9994 L43,8.9994 L34,8.9994 L5,8.9994 L5,36.9994 L43,36.9994 L43,28.9994 C39.6,28.9994 37,26.3994 37,22.9994 Z M9,14.9994 L29,14.9994 L29,32.9994 L9,32.9514 L9,14.9994 Z M9,18.9994 L29,18.9994 M13,14.9994 L13,11.9994 M16,24.9994 L19,24.9994 M19,29.9994 L19,21.9994 M25,14.9994 L25,11.9994"/>
    <line x1="33" x2="33" y1="35.999" y2="9.999" stroke-dasharray="2 2"/>
  </g>
</svg>
