<svg xmlns="http://www.w3.org/2000/svg" width="48" height="48" viewBox="0 0 48 48">
  <g fill="none" fill-rule="evenodd" stroke="#000" stroke-width="2">
    <path d="M37,22.9994 C37,19.5994 39.6,16.9994 43,16.9994 L43,8.9994 L34,8.9994 L5,8.9994 L5,36.9994 L43,36.9994 L43,28.9994 C39.6,28.9994 37,26.3994 37,22.9994 Z M16.9942,15.9946 C16.9942,17.6526 15.6522,18.9946 13.9942,18.9946 C12.3382,18.9946 10.9942,17.6526 10.9942,15.9946 C10.9942,14.3366 12.3382,12.9946 13.9942,12.9946 C15.6522,12.9946 16.9942,14.3366 16.9942,15.9946 Z M25,29.9994 C25,31.6574 23.656,32.9994 22,32.9994 C20.342,32.9994 19,31.6574 19,29.9994 C19,28.3434 20.342,26.9994 22,26.9994 C23.656,26.9994 25,28.3434 25,29.9994 Z M9,31.9994 L27,13.9994"/>
    <line x1="33" x2="33" y1="35.999" y2="9.999" stroke-dasharray="2 2"/>
  </g>
</svg>
