<svg xmlns="http://www.w3.org/2000/svg" width="48" height="48" viewBox="0 0 48 48">
  <g fill="none" fill-rule="evenodd">
    <path fill="#000" d="M21.2134,13.6662 C21.9714,13.6662 22.6034,13.8822 23.1114,14.3122 C23.6634,14.7802 23.9394,15.4082 23.9394,16.2002 C23.9394,16.8882 23.7194,17.4822 23.2774,17.9802 C23.1334,18.1442 22.9974,18.2742 22.8714,18.3722 C22.7454,18.4702 22.4134,18.7082 21.8754,19.0822 C21.3634,19.4382 20.9974,19.7122 20.7754,19.9002 C20.5554,20.0902 20.3514,20.3062 20.1614,20.5522 L23.9794,20.5522 L23.9794,22.0002 L18.1174,22.0002 C18.1174,21.5582 18.1894,21.1362 18.3334,20.7362 C18.4754,20.3362 18.6774,19.9902 18.9374,19.7002 C19.1374,19.4782 19.3714,19.2602 19.6414,19.0502 C19.9094,18.8382 20.4454,18.4502 21.2454,17.8862 C21.6354,17.6142 21.9094,17.3622 22.0634,17.1282 C22.2214,16.8942 22.2994,16.6242 22.2994,16.3162 C22.2994,15.9602 22.1934,15.6722 21.9834,15.4502 C21.7734,15.2302 21.4994,15.1202 21.1574,15.1202 C20.3174,15.1202 19.8874,15.7222 19.8594,16.9282 L18.2974,16.9282 L18.2974,16.7502 C18.2974,15.7622 18.5734,14.9982 19.1254,14.4582 C19.6634,13.9302 20.3594,13.6662 21.2134,13.6662 Z M35.9492,9.8628 L35.9492,18.0008 L34.3252,18.0008 L34.3252,12.6728 L32.4072,12.6728 L32.4072,11.4928 C32.8072,11.4828 33.1292,11.4428 33.3812,11.3708 C33.6312,11.3008 33.8592,11.1848 34.0692,11.0268 C34.3692,10.7948 34.5712,10.4068 34.6732,9.8628 L35.9492,9.8628 Z"/>
    <path stroke="#000" stroke-width="2" d="M21,11.0004 L21,7.0004 L39,7.0004 L39,37.0004 L27,37.0004 L27,11.0004 L9,11.0004 L9,41.0004 L27,41.0004 L27,37.0004 M12,26.9994 L24,26.9994 M12,30.9994 L24,30.9994 M27,26.9994 L36,26.9994 M27,22.9994 L36,22.9994"/>
  </g>
</svg>
