<svg xmlns="http://www.w3.org/2000/svg" width="48" height="48" viewBox="0 0 48 48">
  <g fill="none" fill-rule="evenodd" stroke="#000" stroke-width="2">
    <path d="M37,22.9994 C37,19.5994 39.6,16.9994 43,16.9994 L43,8.9994 L34,8.9994 L5,8.9994 L5,36.9994 L43,36.9994 L43,28.9994 C39.6,28.9994 37,26.3994 37,22.9994 Z M26.7344,18.1772 C26.1124,16.3172 24.4804,15.0012 22.5464,15.0012 C21.0744,15.0012 19.7904,15.7732 18.9824,16.9572 C18.1724,15.7732 16.8864,15.0012 15.4144,15.0012 C12.9404,15.0012 10.9524,17.1552 10.9524,19.8472 C10.9524,20.6912 11.1484,21.4832 11.4924,22.1732 C11.6864,22.5612 11.9184,22.9192 12.1964,23.2352 L18.9804,30.6172 L25.7544,23.2452 C25.9144,23.0332 26.2944,22.4992 26.4204,22.2612 C26.7904,21.5512 27.0024,20.7272 27.0024,19.8472 C27.0024,19.2592 26.9084,18.6972 26.7344,18.1772 Z"/>
    <line x1="33" x2="33" y1="35.999" y2="9.999" stroke-dasharray="2 2"/>
  </g>
</svg>
