<svg xmlns="http://www.w3.org/2000/svg" width="48" height="48" viewBox="0 0 48 48">
  <g fill="none" fill-rule="evenodd" stroke="#000" stroke-width="2">
    <path d="M5,15.0004 L16.018,15.0004 L20,21.0164 L24,21.0164 C25.658,21.0164 27,22.3584 27,24.0164 L27,24.0004 L27,29.0004 L23,29.0004 M17,28.9994 L9,28.9994 M23,27.9994 C23,29.6574 21.658,30.9994 20,30.9994 C18.342,30.9994 17,29.6574 17,27.9994 C17,26.3434 18.342,24.9994 20,24.9994 C21.658,24.9994 23,26.3434 23,27.9994 Z M12,18.9906 L14.008,18.9906 L16,22.0006 M5,25.184 C5.314,25.072 5.648,25 6,25 C7.658,25 9,26.344 9,28 C9,29.658 7.658,31 6,31 C5.648,31 5.314,30.928 5,30.816 M37,22.9994 C37,19.5994 39.6,16.9994 43,16.9994 L43,8.9994 L34,8.9994 L5,8.9994 L5,36.9994 L43,36.9994 L43,28.9994 C39.6,28.9994 37,26.3994 37,22.9994 Z"/>
    <line x1="33" x2="33" y1="35.999" y2="9.999" stroke-dasharray="2 2"/>
  </g>
</svg>
