<svg xmlns="http://www.w3.org/2000/svg" width="48" height="48" viewBox="0 0 48 48">
  <path fill="none" stroke="#000" stroke-width="2" d="M25,18.0004 L25,12.0004 M22,15.0004 L28,15.0004 M37,22.9994 C37,19.5994 39.6,16.9994 43,16.9994 L43,8.9994 L34,8.9994 L5,8.9994 L5,36.9994 L43,36.9994 L43,28.9994 C39.6,28.9994 37,26.3994 37,22.9994 Z M33,14.0004 L33,12.0004 M33,18.0004 L33,16.0004 M33,22.0004 L33,20.0004 M33,26.0004 L33,24.0004 M33,29.9994 L33,27.9994 M33,33.9994 L33,31.9994 M27,27.9994 L27,21.9994 M24,25.0004 L30,25.0004 M15,22.9994 C15,20.6354 16.044,18.5334 17.676,17.0674 C17.45,17.0474 17.232,16.9994 17,16.9994 C12.582,16.9994 9,20.5814 9,24.9994 C9,29.4174 12.582,32.9994 17,32.9994 C19.054,32.9994 20.908,32.2054 22.324,30.9314 C18.228,30.5834 15,27.1874 15,22.9994 Z"/>
</svg>
