<svg xmlns="http://www.w3.org/2000/svg" width="48" height="48" viewBox="0 0 48 48">
  <g fill="none" fill-rule="evenodd">
    <path fill="#000" d="M21.984,32.002 L21.984,35.984 L11.984,35.984 L11.984,32.002 L9.984,32.002 L9.984,33.986 L10,33.986 L10,35.986 L13.984,35.986 L13.984,37.986 L9.984,37.986 L9.984,36.002 L7.984,36.002 L7.984,33.986 L5.984,33.986 L5.984,31.986 L9.984,31.986 L9.984,29.986 L11.984,29.986 L11.984,27.986 L8,27.986 L8,30.002 L5.984,30.002 L5.984,27.986 L7.984,27.986 L7.984,25.986 L9.984,25.986 L9.984,23.984 L11.984,23.984 L11.984,21.986 L15.984,21.986 L15.984,23.984 L18,23.984 L18,25.984 L19.986,25.984 L19.986,23.986 L21.984,23.986 L21.984,21.984 L23.984,21.984 L23.984,19.984 L26,19.984 L26,19.986 L28.002,19.986 L28.002,23.986 L25.986,23.986 L25.986,22 L24,22 L24,24 L23.986,24 L23.986,25.986 L26,25.986 L26,27.988 L27.986,27.988 L27.986,29.988 L24,29.988 L24,31.986 L27.986,31.986 L27.986,33.986 L25.988,33.986 L25.988,35.986 L21.986,35.986 L21.986,33.986 L23.984,33.986 L23.984,32.002 L21.984,32.002 Z M21.984,29.986 L23.984,29.986 L23.984,27.988 L23.984,25.986 L21.984,25.986 L21.984,29.986 Z M12,25.984 L15.984,25.984 L15.984,23.986 L12,23.986 L12,25.984 Z M7.984,19.986 L7.984,19.984 L10,19.984 L10,22 L8,22 L8,23.986 L5.984,23.986 L5.984,19.986 L7.984,19.986 Z M8,39.986 L10,39.986 L10,42.002 L7.984,42.002 L7.984,41.988 L5.984,41.988 L5.984,37.988 L8,37.988 L8,39.986 Z M23.984,40.002 L21.984,40.002 L21.984,37.986 L17.986,37.986 L17.986,35.986 L21.986,35.986 L21.986,37.986 L24,37.986 L24,39.986 L25.986,39.986 L25.986,37.988 L28.002,37.988 L28.002,41.988 L26,41.988 L26,42.002 L23.984,42.002 L23.984,40.002 Z M13.984,39.986 L13.984,37.986 L16,37.986 L16,39.986 L19.986,39.986 L19.986,41.986 L15.986,41.986 L15.986,40.002 L14,40.002 L14,42.002 L11.984,42.002 L11.984,39.986 L13.984,39.986 Z M15.986,21.986 L15.986,19.986 L19.986,19.986 L19.986,21.986 L15.986,21.986 Z M15.984,32.002 L15.984,29.986 L18,29.986 L18,32.002 L15.984,32.002 Z M13.984,33.984 L19.984,33.984 L19.984,27.984 L13.984,27.984 L13.984,33.984 Z"/>
    <path stroke="#000" stroke-width="2" d="M34.9982,16.0016 C34.9982,17.6596 33.6542,19.0016 31.9982,19.0016 C30.3402,19.0016 28.9982,17.6596 28.9982,16.0016 C28.9982,14.3436 30.3402,13.0016 31.9982,13.0016 C33.6542,13.0016 34.9982,14.3436 34.9982,16.0016 Z M29.9592,29.116 L32.0092,32.352 L39.7832,20.082 C40.5072,18.81 40.9712,17.488 40.9852,16.014 C40.9852,11.044 36.9552,7.014 31.9852,7.014 C27.0132,7.014 22.9852,11.044 22.9852,16.014 C23.0112,16.708 23.1192,17.352 23.2952,17.962"/>
  </g>
</svg>
