<svg xmlns="http://www.w3.org/2000/svg" width="24" height="24" viewBox="0 0 24 24"><path fill="none" stroke="#000" d="M20.4707,17.0146 L17.4997,18.4996 L17.4997,19.4996 C17.4997,20.6046 16.6047,21.4996 15.4997,21.4996 L11.4997,21.4996 C11.2717,19.8796 9.8807,18.4066 8.8027,17.4846 C8.2277,16.9936 8.3497,16.0756 9.0257,15.7376 L9.0257,15.7376 C9.3237,15.5876 9.6757,15.5876 9.9747,15.7376 L13.4997,17.4996 L19.5027,14.9276 C20.0627,14.6876 20.7127,14.9256 20.9857,15.4706 L20.9857,15.4706 C21.2697,16.0396 21.0387,16.7306 20.4707,17.0146 Z M8.7223,19.845 C5.6553,18.562 3.5003,15.533 3.5003,12 C3.5003,7.306 7.3053,3.5 12.0003,3.5 C16.6943,3.5 20.5003,7.306 20.5003,12 C20.5003,12.325 20.4813,12.646 20.4463,12.962 M9.5,9 C9.5,9.276 9.276,9.5 9,9.5 C8.724,9.5 8.5,9.276 8.5,9 C8.5,8.724 8.724,8.5 9,8.5 C9.276,8.5 9.5,8.724 9.5,9 Z M15.5,9 C15.5,9.276 15.276,9.5 15,9.5 C14.724,9.5 14.5,9.276 14.5,9 C14.5,8.724 14.724,8.5 15,8.5 C15.276,8.5 15.5,8.724 15.5,9 Z M7,14 L17,12"/></svg>