<svg width="24" height="24" viewBox="0 0 24 24" fill="none" xmlns="http://www.w3.org/2000/svg">
<path fill-rule="evenodd" clip-rule="evenodd" d="M2.5 5H2V5.5V14.5V15H2.5H6V16.75V18.0651L6.8737 17.0822L8.72453 15H9V17.5V18H9.5H15.0429L17.1464 20.1036L18 20.9571V19.75V18H20.5H21V17.5V8.5V8H20.5H16V5.5V5H15.5H2.5ZM16 11H19V12H16V13H18V14H16V14.5V15H15.5H10V17H15.25H15.4571L15.6036 17.1464L17 18.5429V17.5V17H17.5H20V9H16V11ZM3 14V6H15V14H8.5H8.27547L8.1263 14.1678L7 15.4349V14.5V14H6.5H3ZM6 13C6 11.3439 7.34386 10 9 10C10.6561 10 12 11.3439 12 13H11C11 11.8961 10.1039 11 9 11C7.89614 11 7 11.8961 7 13H6ZM9 8C6.23386 8 4 10.2339 4 13H5C5 10.7861 6.78614 9 9 9C11.2139 9 13 10.7861 13 13H14C14 10.2339 11.7661 8 9 8Z" fill="black"/>
</svg>
