<svg xmlns="http://www.w3.org/2000/svg" width="48" height="48" viewBox="0 0 48 48"><path fill="none" stroke="#000" d="M31.9,8.5 L41.5,8.5 L41.5,33.5 L35.5,41.5 L7.5,41.5 L7.5,17.5 L14.5,8.5 L22.7,8.5 M27.1,8.5 L24.3,8.5 M35.5,41.5 L35.5,17.5 L41.5,8.5 M25.699,10.25 L29.499,5.5 L37.136,15.046 M15.5,17.5 L23.5,7.5 L31.5,17.5 M35.5,17.5 L7.5,17.5 M25.6825,26.5 L17.3175,26.5 C16.8665,26.5 16.5005,26.134 16.5005,25.682 L16.5005,24.318 C16.5005,23.866 16.8665,23.5 17.3175,23.5 L25.6825,23.5 C26.1345,23.5 26.5005,23.866 26.5005,24.318 L26.5005,25.682 C26.5005,26.134 26.1345,26.5 25.6825,26.5 Z"/></svg>