<svg xmlns="http://www.w3.org/2000/svg" width="48" height="48" viewBox="0 0 48 48"><path fill="none" stroke="#000" d="M28.5,25.5 L43.5,25.5 M3.5,25.5 L18.5,25.5 M41.9707,42.5 L5.0297,42.5 C4.1847,42.5 3.4997,41.815 3.4997,40.971 L3.4997,14.029 C3.4997,13.185 4.1847,12.5 5.0297,12.5 L41.9707,12.5 C42.8157,12.5 43.4997,13.185 43.4997,14.029 L43.4997,40.971 C43.4997,41.815 42.8157,42.5 41.9707,42.5 Z M13.5,12.5 L13.5,11.5 C13.5,10.948 13.948,10.5 14.5,10.5 L17.5,10.5 C18.052,10.5 18.5,10.948 18.5,11.5 L18.5,12.5 M28.5,12.5 L28.5,11.5 C28.5,10.948 28.948,10.5 29.5,10.5 L32.5,10.5 C33.052,10.5 33.5,10.948 33.5,11.5 L33.5,12.5 M14.5,10.5 L14.5,10.5 C14.5,7.186 17.186,4.5 20.5,4.5 L26.5,4.5 C29.814,4.5 32.5,7.186 32.5,10.5 L32.5,10.5 M17.5,10.5 L17.5,10.5 C17.5,8.843 18.843,7.5 20.5,7.5 L26.5,7.5 C28.157,7.5 29.5,8.843 29.5,10.5 L29.5,10.5 M27.5,26.5 L19.5,26.5 C18.948,26.5 18.5,26.052 18.5,25.5 L18.5,23.5 C18.5,22.948 18.948,22.5 19.5,22.5 L27.5,22.5 C28.052,22.5 28.5,22.948 28.5,23.5 L28.5,25.5 C28.5,26.052 28.052,26.5 27.5,26.5 Z M27.5,26.5 L27.5,30.786 C27.5,31.18 27.052,31.5 26.5,31.5 L20.5,31.5 C19.948,31.5 19.5,31.18 19.5,30.786 L19.5,26.5 M23.5,30 L23.5,28"/></svg>