<svg xmlns="http://www.w3.org/2000/svg" width="48" height="48" viewBox="0 0 48 48"><path fill="none" stroke="#000" d="M10.624,2.5 L36.376,2.5 C37.549,2.5 38.5,3.514 38.5,4.766 L38.5,43.234 C38.5,44.486 37.549,45.5 36.376,45.5 L10.624,45.5 C9.451,45.5 8.5,44.486 8.5,43.234 L8.5,4.766 C8.5,3.514 9.451,2.5 10.624,2.5 Z M12.5,5.5 L34.5,5.5 C35.052,5.5 35.5,5.948 35.5,6.5 L35.5,16.5 C35.5,17.052 35.052,17.5 34.5,17.5 L12.5,17.5 C11.948,17.5 11.5,17.052 11.5,16.5 L11.5,6.5 C11.5,5.948 11.948,5.5 12.5,5.5 Z M16.5,22.5 C16.5,23.605 15.605,24.5 14.5,24.5 C13.395,24.5 12.5,23.605 12.5,22.5 C12.5,21.395 13.395,20.5 14.5,20.5 C15.605,20.5 16.5,21.395 16.5,22.5 Z M16.5,28.5 C16.5,29.605 15.605,30.5 14.5,30.5 C13.395,30.5 12.5,29.605 12.5,28.5 C12.5,27.395 13.395,26.5 14.5,26.5 C15.605,26.5 16.5,27.395 16.5,28.5 Z M16.5,40.5 C16.5,41.605 15.605,42.5 14.5,42.5 C13.395,42.5 12.5,41.605 12.5,40.5 C12.5,39.395 13.395,38.5 14.5,38.5 C15.605,38.5 16.5,39.395 16.5,40.5 Z M16.5,34.5 C16.5,35.605 15.605,36.5 14.5,36.5 C13.395,36.5 12.5,35.605 12.5,34.5 C12.5,33.395 13.395,32.5 14.5,32.5 C15.605,32.5 16.5,33.395 16.5,34.5 Z M22.5,22.5 C22.5,23.605 21.605,24.5 20.5,24.5 C19.395,24.5 18.5,23.605 18.5,22.5 C18.5,21.395 19.395,20.5 20.5,20.5 C21.605,20.5 22.5,21.395 22.5,22.5 Z M22.5,28.5 C22.5,29.605 21.605,30.5 20.5,30.5 C19.395,30.5 18.5,29.605 18.5,28.5 C18.5,27.395 19.395,26.5 20.5,26.5 C21.605,26.5 22.5,27.395 22.5,28.5 Z M22.5,34.5 C22.5,35.605 21.605,36.5 20.5,36.5 C19.395,36.5 18.5,35.605 18.5,34.5 C18.5,33.395 19.395,32.5 20.5,32.5 C21.605,32.5 22.5,33.395 22.5,34.5 Z M22.5,40.5 C22.5,41.605 21.605,42.5 20.5,42.5 C19.395,42.5 18.5,41.605 18.5,40.5 C18.5,39.395 19.395,38.5 20.5,38.5 C21.605,38.5 22.5,39.395 22.5,40.5 Z M28.5,22.5 C28.5,23.605 27.605,24.5 26.5,24.5 C25.395,24.5 24.5,23.605 24.5,22.5 C24.5,21.395 25.395,20.5 26.5,20.5 C27.605,20.5 28.5,21.395 28.5,22.5 Z M28.5,28.5 C28.5,29.605 27.605,30.5 26.5,30.5 C25.395,30.5 24.5,29.605 24.5,28.5 C24.5,27.395 25.395,26.5 26.5,26.5 C27.605,26.5 28.5,27.395 28.5,28.5 Z M28.5,34.5 C28.5,35.605 27.605,36.5 26.5,36.5 C25.395,36.5 24.5,35.605 24.5,34.5 C24.5,33.395 25.395,32.5 26.5,32.5 C27.605,32.5 28.5,33.395 28.5,34.5 Z M28.5,40.5 C28.5,41.605 27.605,42.5 26.5,42.5 C25.395,42.5 24.5,41.605 24.5,40.5 C24.5,39.395 25.395,38.5 26.5,38.5 C27.605,38.5 28.5,39.395 28.5,40.5 Z M34.5,28.5 C34.5,29.605 33.605,30.5 32.5,30.5 C31.395,30.5 30.5,29.605 30.5,28.5 C30.5,27.395 31.395,26.5 32.5,26.5 C33.605,26.5 34.5,27.395 34.5,28.5 Z M34.5,22.5 C34.5,23.605 33.605,24.5 32.5,24.5 C31.395,24.5 30.5,23.605 30.5,22.5 C30.5,21.395 31.395,20.5 32.5,20.5 C33.605,20.5 34.5,21.395 34.5,22.5 Z M32.5,42.5 L32.5,42.5 C31.395,42.5 30.5,41.605 30.5,40.5 L30.5,34.5 C30.5,33.395 31.395,32.5 32.5,32.5 L32.5,32.5 C33.605,32.5 34.5,33.395 34.5,34.5 L34.5,40.5 C34.5,41.605 33.605,42.5 32.5,42.5 Z"/></svg>