<svg xmlns="http://www.w3.org/2000/svg" width="48" height="48" version="1.1" viewBox="0 0 48 48">
  <path fill="none" fill-rule="evenodd" stroke="#000" stroke-width="1" d="M4.5,5.5 L43.5,5.5 C44.605,5.5 45.5,6.395 45.5,7.5 L45.5,32.5 C45.5,33.605 44.605,34.5 43.5,34.5 L4.5,34.5 C3.395,34.5 2.5,33.605 2.5,32.5 L2.5,7.5 C2.5,6.395 3.395,5.5 4.5,5.5 Z M28.5,40.5 L19.5,40.5 L21.5,34.5 L26.5,34.5 L28.5,40.5 Z M13.5,40.5 L34.5,40.5 M40,32.5 L43,32.5 M37,32.5 L39,32.5 M2.5,30.5 L45.5,30.5 M22,7.5 L27,7.5 M20,7.5 L21,7.5"/>
</svg>
