<svg xmlns="http://www.w3.org/2000/svg" width="48" height="48" viewBox="0 0 48 48"><path fill="none" stroke="#000" d="M3,2 L46,45 M40.5,39.5 L5.5,39.5 C4.395,39.5 3.5,38.605 3.5,37.5 L3.5,15.5 C3.5,14.395 4.395,13.5 5.5,13.5 L14.5,13.5 M17,13.5 L42.5,13.5 C43.605,13.5 44.5,14.395 44.5,15.5 L44.5,37.5 C44.5,38.451 43.837,39.247 42.947,39.45 M19.5,13.5 L19.5,10.5 C19.5,9.948 19.948,9.5 20.5,9.5 L27.5,9.5 C28.052,9.5 28.5,9.948 28.5,10.5 L28.5,13.5 M17.5,13.5 L17.5,9.5 C17.5,8.395 18.395,7.5 19.5,7.5 L28.5,7.5 C29.605,7.5 30.5,8.395 30.5,9.5 L30.5,13.5 M9.5,13.5 L9.5,39.5 M12.5,13.5 L12.5,39.5 M38.5,37.5 L38.5,39.5 M38.5,13.5 L38.5,35 M35.5,34.5 L35.5,39.5 M35.5,13.5 L35.5,32"/></svg>