<svg xmlns="http://www.w3.org/2000/svg" width="48" height="48" version="1.1" viewBox="0 0 48 48">
  <path fill="none" fill-rule="evenodd" stroke="#000" stroke-width="1" d="M13,6.5 L14,6.5 M15,40.5 L19,40.5 M2.5,37.5 L23,37.5 M15,6.5 L21,6.5 M13,6.5 L14,6.5 M2.5,9.5 L23,9.5 M24.5,8.6818 C24.5,6.9318 25.914,5.4998 27.643,5.4998 L42.357,5.4998 C44.086,5.4998 45.5,6.9318 45.5,8.6818 L45.5,42.3178 C45.5,44.0678 44.086,45.4998 42.357,45.4998 L27.643,45.4998 C25.914,45.4998 24.5,44.0678 24.5,42.3178 L24.5,8.6818 Z M34,42.5 L38,42.5 M24.5,39.5 L45.5,39.5 M33,8.5 L39,8.5 M31,8.5 L32,8.5 M30.0289,4 C29.5429,3.688 28.9719,3.5 28.3569,3.5 L5.6429,3.5 C3.9139,3.5 2.4999,4.932 2.4999,6.682 L2.4999,40.318 C2.4999,42.068 3.9139,43.5 5.6429,43.5 L22.9999,43.5"/>
</svg>
