<svg xmlns="http://www.w3.org/2000/svg" width="48" height="48" viewBox="0 0 48 48"><path fill="none" stroke="#000" d="M16.5,27.5001 C17.831,27.5001 17.831,29.5001 19.162,29.5001 C20.495,29.5001 20.495,27.5001 21.827,27.5001 C23.16,27.5001 23.16,29.5001 24.493,29.5001 C25.826,29.5001 25.826,27.5001 27.159,27.5001 C28.494,27.5001 28.494,29.5001 29.83,29.5001 C31.165,29.5001 31.165,27.5001 32.5,27.5001 M40.5002,43.5002 L8.5002,43.5002 L8.5002,10.3032 L8.5002,4.5002 L40.5002,4.5002 L40.5002,43.5002 Z M40.5002,13.4999 L8.5002,13.4999 M14.4998,8.9999 C14.4998,8.1719 13.8278,7.4999 12.9998,7.4999 C12.1718,7.4999 11.4998,8.1719 11.4998,8.9999 C11.4998,9.8279 12.1718,10.4999 12.9998,10.4999 C13.8278,10.4999 14.4998,9.8279 14.4998,8.9999 Z M28.0003,7.4999 L32.0003,7.4999 M34.0007,7.4999 L38.0007,7.4999 M28.0003,10.5001 L32.0003,10.5001 M34.0007,10.5001 L38.0007,10.5001 M35.5,28.5624 C35.5,22.4874 30.575,17.5624 24.5,17.5624 C18.425,17.5624 13.5,22.4874 13.5,28.5624 C13.5,34.6374 18.425,39.5624 24.5,39.5624 C30.575,39.5624 35.5,34.6374 35.5,28.5624 Z M32.5,28.5001 C32.5,24.0821 28.918,20.5001 24.5,20.5001 C20.082,20.5001 16.5,24.0821 16.5,28.5001 C16.5,32.9181 20.082,36.5001 24.5,36.5001 C28.918,36.5001 32.5,32.9181 32.5,28.5001 Z"/></svg>