<svg xmlns="http://www.w3.org/2000/svg" width="48" height="48" viewBox="0 0 48 48">
  <path fill="none" stroke="#000" stroke-width="2" d="M35,19.0004 L11,19.0004 L9,13.0004 L23,9.0004 L37,13.0004 L35,19.0004 Z M23,24.0004 C26.784,24.0004 30.15,22.0484 32.5,19.0004 L13.5,19.0004 C15.85,22.0484 19.216,24.0004 23,24.0004 Z M19.5996,27.9994 C19.5996,28.3314 19.3316,28.5994 18.9996,28.5994 C18.6676,28.5994 18.3996,28.3314 18.3996,27.9994 C18.3996,27.6694 18.6676,27.3994 18.9996,27.3994 C19.3316,27.3994 19.5996,27.6694 19.5996,27.9994 Z M27.5996,27.9994 C27.5996,28.3314 27.3316,28.5994 26.9996,28.5994 C26.6676,28.5994 26.3996,28.3314 26.3996,27.9994 C26.3996,27.6694 26.6676,27.3994 26.9996,27.3994 C27.3316,27.3994 27.5996,27.6694 27.5996,27.9994 Z M24,14.0004 C24,14.5524 23.552,15.0004 23,15.0004 C22.448,15.0004 22,14.5524 22,14.0004 C22,13.4484 22.448,13.0004 23,13.0004 C23.552,13.0004 24,13.4484 24,14.0004 Z M28.1036,33.103 C27.0476,34.241 25.1556,34.999 22.9996,34.999 C20.9736,34.999 19.1816,34.329 18.0956,33.305 M10.9628,22.0004 C10.9628,22.0004 11.5588,31.8164 12.9628,34.0004 C16.7088,39.8224 20.8848,41.0004 22.9808,41.0004 C25.0788,41.0004 29.2548,39.8224 33.0008,34.0004 C34.4048,31.8164 35.0008,22.0004 35.0008,22.0004"/>
</svg>
