<svg xmlns="http://www.w3.org/2000/svg" width="48" height="48" viewBox="0 0 48 48"><path fill="none" stroke="#000" stroke-width="2" d="M13.74,26.36 C13.74,26.36 13.74,26.38 13.76,26.38 L15.2,28.08 L14.4,29.7 L16.08,33.1 L17.72,29.7 L16.86,28.08 L18.32,26.34 L18.34,26.32 M28,29 L30,29 M19.0612,16.2426 C18.2252,15.4706 17.1792,14.9966 15.9992,14.9966 C13.1512,14.9966 10.9992,17.6646 10.9992,21.0006 C10.9992,24.3346 13.1512,27.0006 15.9992,27.0006 C18.6272,27.0006 20.6392,24.7246 20.9392,21.7566 M20.939,21.757 C20.965,21.507 21.001,21.259 21.001,21.001 C21.001,19.045 20.247,17.337 19.061,16.243 M19.3286,25.506 C24.3686,28.4 26.5786,33.098 27.0006,39 L5.0006,39 C5.1006,32.946 7.7986,28.266 12.6346,25.482 M27.061,12.2444 C26.225,11.4724 25.179,10.9984 23.999,10.9984 C21.373,10.9984 19.363,13.2744 19.061,16.2424 C20.247,17.3364 20.999,19.0444 20.999,21.0004 C20.999,21.2604 20.965,21.5064 20.939,21.7564 C21.775,22.5284 22.821,23.0024 23.999,23.0024 C26.627,23.0024 28.639,20.7264 28.939,17.7564 M32,6.9982 C29.372,6.9982 27.362,9.2762 27.062,12.2442 C28.248,13.3382 29,15.0462 29,17.0022 C29,17.2602 28.964,17.5062 28.94,17.7562 C29.776,18.5282 30.822,19.0022 32,19.0022 C34.848,19.0022 37,16.3362 37,13.0022 C37,9.6662 34.848,6.9982 32,6.9982 Z M28.939,17.757 C28.965,17.507 28.999,17.261 28.999,17.001 C28.999,15.045 28.247,13.337 27.061,12.245 M27.3324,21.5036 C32.3724,24.3976 34.5804,29.0976 35.0004,34.9996 L26.3524,34.9996 M35.34,17.5118 C40.38,20.4058 42.58,25.0978 43,30.9998 L34.378,30.9998"/></svg>