<svg xmlns="http://www.w3.org/2000/svg" width="48" height="48" version="1.1" viewBox="0 0 48 48">
  <path fill="none" fill-rule="evenodd" stroke="#000" stroke-width="2" d="M21,13 L9,13 C6.792,13 5,14.792 5,17 L5,35 C5,37.208 6.792,39 9,39 L39,39 C41.208,39 43,37.208 43,35 L43,17 C43,14.792 41.208,13 39,13 L27,13 M21,15 L21,10 C21,8.342 22.342,7 24,7 C25.658,7 27,8.342 27,10 L27,15 L21,15 Z M26,25 L34,25 M26,29 L38,29 M17,21 C19.208,21 21,23.238 21,26 C21,28.762 19.208,31 17,31 C14.792,31 13,28.762 13,26 C13,23.238 14.792,21 17,21 Z M19.708,29.6602 C22.572,31.0782 24.656,34.6782 24.942,39.0002 M9,39 L9.058,39 C9.344,34.678 11.428,31.078 14.292,29.66"/>
</svg>
