<svg xmlns="http://www.w3.org/2000/svg" width="48" height="48" viewBox="0 0 48 48">
  <path fill="none" stroke="#000" stroke-width="2" d="M30,20 C30,23.882 27.35,27 24,27 C20.65,27 18,23.882 18,20 C18,16.118 20.65,13 24,13 C27.35,13 30,16.118 30,20 Z M20.205,25.4414 C14.511,27.9454 10.999,34.0634 10.999,40.9994 L36.999,40.9994 C36.999,34.8934 34.175,28.3114 27.795,25.4414 M17,23 L14,23 C13.516,23 13,22.55 13,22 L13,18.012 C13,17.466 13.506,17 14,17 L17,17 L17,23 Z M24,23 L34,23 C34.586,23 35,22.642 35,22 L35,18 C35,17.436 34.69,17 34,17 L31,17 L31,23 M14.9736,16.876 C17.1496,6.212 31.2236,6.668 32.8416,16.918"/>
</svg>
