<svg xmlns="http://www.w3.org/2000/svg" width="48" height="48" viewBox="0 0 48 48">
  <path fill="none" stroke="#000" stroke-width="2" d="M19.0616,16.2422 C18.2256,15.4702 17.1796,14.9962 15.9996,14.9962 C13.1516,14.9962 10.9996,17.6642 10.9996,21.0002 C10.9996,24.3342 13.1516,27.0002 15.9996,27.0002 C18.6276,27.0002 20.6396,24.7242 20.9396,21.7562 M20.9394,21.7568 C20.9654,21.5068 20.9994,21.2588 20.9994,21.0008 C20.9994,19.0448 20.2474,17.3368 19.0614,16.2428 M19.3282,25.5058 C24.3682,28.3978 26.5802,33.0978 27.0002,38.9998 L5.0002,38.9998 C5.1002,32.9478 7.7982,28.2658 12.6342,25.4818 M27.0606,12.2442 C26.2246,11.4722 25.1786,10.9982 24.0006,10.9982 C21.3726,10.9982 19.3626,13.2742 19.0606,16.2422 C20.2466,17.3362 21.0006,19.0442 21.0006,21.0002 C21.0006,21.2602 20.9646,21.5062 20.9386,21.7562 C21.7746,22.5282 22.8206,23.0022 24.0006,23.0022 C26.6266,23.0022 28.6386,20.7262 28.9386,17.7562 M32,6.998 C29.374,6.998 27.362,9.276 27.06,12.244 C28.248,13.338 29,15.046 29,17.002 C29,17.26 28.964,17.506 28.94,17.756 C29.776,18.528 30.822,19.002 32,19.002 C34.85,19.002 37,16.336 37,13.002 C37,9.666 34.85,6.998 32,6.998 Z M28.9394,17.7568 C28.9654,17.5068 28.9994,17.2608 28.9994,17.0028 C28.9994,15.0468 28.2474,13.3388 27.0614,12.2448 M27.332,21.504 C32.372,24.396 34.58,29.098 35,35 L26.352,35 M35.3398,17.5118 C40.3798,20.4058 42.5798,25.0978 42.9998,30.9998 L34.3798,30.9998"/>
</svg>
