<svg xmlns="http://www.w3.org/2000/svg" width="48" height="48" viewBox="0 0 48 48">
  <path fill="none" stroke="#000" stroke-width="2" d="M9.835,13.0698 C6.139,14.7518 5.005,18.7258 5.005,23.0078 L21.007,23.0078 C21.007,18.7078 19.853,14.7358 16.171,13.0558 M31.8222,33.0444 C28.6102,34.9504 27.0042,39.0204 27.0042,43.0064 L43.0082,43.0064 C43.0082,39.0004 41.3882,34.9424 38.1782,33.0444 M35,25.0004 C37.294,25.0004 39,27.3244 39,30.0004 C39,31.1264 38.698,32.1904 38.178,33.0444 C37.46,34.2204 36.328,35.0004 35,35.0004 C33.672,35.0004 32.54,34.2204 31.822,33.0444 C31.302,32.1904 31,31.1264 31,30.0004 C31,27.3244 32.706,25.0004 35,25.0004 Z M8,32.2768 L13,27.3368 L18,32.2648 M40,15.6704 L34.988,20.6124 L30,15.6824 M34.9882,20.6118 C35.7662,10.8238 30.7602,5.0078 23.9842,5.02973781 M13,5.0004 C15.294,5.0004 17,7.3244 17,10.0004 C17,10.9564 16.784,11.8664 16.4,12.6424 C15.708,14.0404 14.476,15.0004 13,15.0004 C11.526,15.0004 10.292,14.0424 9.6,12.6464 C9.214,11.8704 9,10.9584 9,10.0004 C9,7.3244 10.706,5.0004 13,5.0004 Z M13,27.3374 C12.224,37.1254 17.228,43.0274 24.004,43.0034729"/>
</svg>
