<svg xmlns="http://www.w3.org/2000/svg" width="48" height="48" viewBox="0 0 48 48">
  <path fill="none" stroke="#000" stroke-width="2" d="M27.3008,23.4912 C32.3408,26.3852 34.5808,31.0992 35.0008,37.0012 L13.0008,37.0012 C13.0988,30.9492 15.7648,26.2852 20.5988,23.5012 M19.0606,19.7568 C19.3606,22.7268 21.3726,25.0028 24.0006,25.0028 C26.6266,25.0028 28.6386,22.7268 28.9386,19.7568 M27.0606,14.2442 C26.2246,13.4722 25.1786,12.9982 24.0006,12.9982 C22.8206,12.9982 21.7746,13.4722 20.9386,14.2442 M32,8.998 C29.374,8.998 27.362,11.276 27.06,14.244 C28.248,15.338 29,17.046 29,19.002 C29,19.26 28.964,19.506 28.94,19.756 C29.776,20.528 30.822,21.002 32,21.002 C34.85,21.002 37,18.336 37,15.002 C37,11.666 34.85,8.998 32,8.998 Z M28.9394,19.7568 C28.9654,19.5068 28.9994,19.2608 28.9994,19.0028 C28.9994,17.0468 28.2474,15.3388 27.0614,14.2448 M20.9394,14.2442 C20.6394,11.2762 18.6274,8.9982 15.9994,8.9982 C13.1514,8.9982 10.9994,11.6662 10.9994,15.0022 C10.9994,18.3362 13.1514,21.0022 15.9994,21.0022 C17.1794,21.0022 18.2254,20.5282 19.0614,19.7562 C19.0354,19.5062 18.9994,19.2602 18.9994,19.0022 C18.9994,17.0462 19.7534,15.3382 20.9394,14.2442 Z M20.9394,14.2442 C19.7534,15.3382 18.9994,17.0462 18.9994,19.0022 C18.9994,19.2602 19.0354,19.5062 19.0614,19.7562 M35.3008,19.4882 C40.3408,22.3822 42.5808,27.0982 43.0008,33.0002 L34.3768,33.0002 M13.4844,32.9942 L5.0004,32.9942 C5.1004,26.9422 7.7644,22.2782 12.6004,19.4942"/>
</svg>
