<svg xmlns="http://www.w3.org/2000/svg" width="48" height="48" viewBox="0 0 48 48"><g fill="none" fill-rule="evenodd"><path stroke="#000" d="M11.4991,11.4174 C11.4991,11.4174 12.2411,25.3164 13.7461,27.5004 C17.7591,33.3224 22.2341,34.5004 24.4791,34.5004 C26.7271,34.5004 31.2011,33.3224 35.2151,27.5004 C36.7191,25.3164 37.4991,11.4174 37.4991,11.4174 M28.5,19.5 C27.948,19.5 27.5,19.948 27.5,20.5 C27.5,21.052 27.948,21.5 28.5,21.5 C29.052,21.5 29.5,21.052 29.5,20.5 C29.5,19.948 29.052,19.5 28.5,19.5 M20.5,19.5 C19.948,19.5 19.5,19.948 19.5,20.5 C19.5,21.052 19.948,21.5 20.5,21.5 C21.052,21.5 21.5,21.052 21.5,20.5 C21.5,19.948 21.052,19.5 20.5,19.5 M37.4991,4.3453 C37.4991,5.3643 30.5731,6.1903 24.4991,6.1903 C18.4251,6.1903 11.4991,5.3643 11.4991,4.3453 C11.4991,3.3253 18.4251,2.5003 24.4991,2.5003 C30.5731,2.5003 37.4991,3.3253 37.4991,4.3453 Z M16.5,14.2212 C17.055,16.4672 20.549,17.9012 24.718,17.9012 C28.887,17.9012 31.946,16.4672 32.5,14.2212 M11.4991,4.3453 L11.4991,11.4173 C11.4991,13.4543 18.4251,15.1083 24.4991,15.1083 C30.5731,15.1083 37.4991,13.4543 37.4991,11.4173 L37.4991,4.3453 M29.9681,26.6026 C28.8371,27.7406 26.8091,28.4986 24.4991,28.4986 C22.3291,28.4986 20.4091,27.8286 19.2451,26.8046 M24.5,40.5 L24.5,46 M31.5,45.5 L38.5,45.5 L38.5,42.5 L31.5,42.5 L31.5,45.5 Z M16.5,30.7589 L16.5,34.4999 M4.5,46 L4.5,44.378 C4.5,41.987 5.806,39.788 7.904,38.643 L16.5,34.5 M44.5,46 L44.5,44.378 C44.5,41.987 43.194,39.788 41.096,38.643 L32.5,34.5 M32.5,34.5 L32.5,30.721 M16.5,34.5 C17.389,37.949 20.774,40.5 24.5,40.5 C28.226,40.5 31.611,37.949 32.5,34.5"/><polygon fill="#000" points="23.505 8 21.515 9.875 23.878 9.875 23.878 8 25.122 8 25.122 9.875 27.487 9.875 25.495 8 26.988 8 29.476 10.5 26.988 13 25.495 13 27.487 11.125 25.122 11.125 25.122 13 23.878 13 23.878 11.125 21.515 11.125 23.505 13 22.012 13 19.524 10.5 22.012 8"/></g></svg>