<svg xmlns="http://www.w3.org/2000/svg" width="48" height="48" viewBox="0 0 48 48"><path fill="none" stroke="#000" d="M5,5.5 L25,5.5 M17.5,34 L17.5,17 M14.5,11.5 L20.5,11.5 M2,9.5 L14.5,9.5 L14.5,39.5 M24.5,17.5 L30.136,17.5 C30.356,17.5 30.555,17.633 30.64,17.836 C32.145,21.448 33.65,25.059 35.154,28.671 C35.319,29.065 35.029,29.5 34.602,29.5 L24.5,29.5 L24.5,17.5 Z M2,39.5 L33.514,39.5 C35.866,39.5 37.727,39.003 39.174,38.321 C41.972,37.003 43.251,33.727 42.168,30.831 C39.946,24.888 35.439,13.61 32.5,11.5 C29.743,9 20.5,9.5 20.5,9.5 L20.5,39.5 M2,29.5 L11.048,29.5 C11.298,29.5 11.5,29.298 11.5,29.048 L11.5,17.952 C11.5,17.702 11.298,17.5 11.048,17.5 L2,17.5 M2,43.4902 L46,43.4902 M11.5,39.5 C11.5,41.709 9.709,43.5 7.5,43.5 C5.291,43.5 3.5,41.709 3.5,39.5 M32.501,39.5 C32.501,41.709 30.71,43.5 28.501,43.5 C26.292,43.5 24.501,41.709 24.501,39.5"/></svg>