<svg xmlns="http://www.w3.org/2000/svg" width="48" height="48" viewBox="0 0 48 48"><path fill="none" stroke="#000" d="M22.5,18.5 L44.483,18.5 L44.5,4.5 L22.513,4.5 L22.5,18.5 Z M22.487,16.485 L26.5,12.5 L30.5,16.5 L36.5,10.5 L44.5,16.5 M33.47,13.5 C32.38,13.48 31.5,12.59 31.5,11.5 C31.5,10.95 31.72,10.45 32.09,10.09 C32.45,9.72 32.95,9.5 33.5,9.5 C34.05,9.5 34.55,9.72 34.91,10.09 C35.27,10.44 35.49,10.93 35.5,11.47 M33.5,8 L33.5,6 M31.0251,9.0251 L29.6111,7.6111 M30,11.5 L28,11.5 M35.9749,9.0251 L37.3889,7.6111 M34.8545,33.0249 L40.3365,42.4979 C40.7325,43.1819 40.4985,44.0559 39.8135,44.4509 C39.1295,44.8459 38.2555,44.6109 37.8615,43.9279 L32.4995,34.4999 L34.8545,33.0249 Z M10.4995,34.4729 L10.4995,45.4999 L32.4995,45.4999 L32.4995,34.4999 L10.4995,34.4729 Z M7.4995,13.9999 C7.4995,11.7909 9.2905,9.9999 11.4995,9.9999 C13.7085,9.9999 15.4995,11.7909 15.4995,13.9999 C15.4995,16.2089 13.7085,17.9999 11.4995,17.9999 C9.2905,17.9999 7.4995,16.2089 7.4995,13.9999 Z M14.4995,19.4999 L17.4995,24.4989 L25.6705,24.4989 C26.6875,24.4989 27.4995,25.3169 27.4995,26.3339 L27.4995,27.4989 M3.0565,15.8889 L10.4995,34.4729 L31.9995,34.4999 C34.1715,34.4999 35.8815,32.5219 35.4265,30.2699 C35.0955,28.6319 33.5775,27.4989 31.9075,27.4989 L17.2325,27.4999 C15.5295,27.4999 13.9435,26.6339 13.0245,25.2009 L6.5755,14.3149 C5.9905,13.3289 4.6985,13.0339 3.7445,13.6699 L3.7445,13.6699 C3.0195,14.1539 2.7325,15.0799 3.0565,15.8889 Z"/></svg>