<svg xmlns="http://www.w3.org/2000/svg" width="48" height="48" viewBox="0 0 48 48"><path fill="none" stroke="#000" d="M26.5,6 C26.5,7.932 24.932,9.5 23,9.5 C21.068,9.5 19.5,7.932 19.5,6 C19.5,4.068 21.068,2.5 23,2.5 C24.932,2.5 26.5,4.068 26.5,6 Z M32.5,33.5 C32.5,40.127 27.127,45.5 20.5,45.5 C13.873,45.5 8.5,40.127 8.5,33.5 C8.5,26.873 13.873,21.5 20.5,21.5 C27.127,21.5 32.5,26.873 32.5,33.5 Z M29.4263,25.5 L34.8983,25.5 C35.8343,25.5 36.6453,26.15 36.8493,27.063 L39.6323,39.5 L41.5003,39.5 M41.5,39.5 C42.605,39.5 42.5,40.395 42.5,41.5 L42.5,42.5 M29.4263,25.5 L34.8983,25.5 C35.8343,25.5 36.6453,26.15 36.8493,27.063 M30.5,33.5 C30.5,39.023 26.023,43.5 20.5,43.5 C14.977,43.5 10.5,39.023 10.5,33.5 C10.5,27.977 14.977,23.5 20.5,23.5 C26.023,23.5 30.5,27.977 30.5,33.5 Z M20.5,33.5 L20.5,23.5 M20.5,33.5 L12.682,27.265 M20.5,33.5 L10.751,35.725 M20.5,33.5 L16.161,42.51 M20.5,33.5 L24.839,42.51 M20.5,33.5 L30.249,35.725 M20.5,33.5 L28.318,27.265 M31.8026,29.5 L34.4996,29.5 L36.4996,39.5 L36.4996,42.5 L43.9996,42.5 M17.2477,21.9582 L16.5177,19.3442 C16.3927,19.0702 16.4477,18.7472 16.6577,18.5312 L18.4777,16.6532 C18.4857,16.6452 18.4997,16.6502 18.4997,16.6622 L18.4997,21.6802 M27.5,23.7667 L27.5,23.7667 L27.5,14.6617 C27.5,13.4677 26.532,12.4997 25.338,12.4997 L18.89,12.4997 C18.641,12.4997 18.403,12.6027 18.233,12.7837 L13.65,17.6567 C13.266,18.0657 13.2,18.6807 13.49,19.1617 L15.21,22.7417"/></svg>