<svg xmlns="http://www.w3.org/2000/svg" width="48" height="48" viewBox="0 0 48 48"><path fill="none" stroke="#000" d="M3,2 L46,45 M26.5,6 C26.5,7.932 24.932,9.5 23,9.5 C21.068,9.5 19.5,7.932 19.5,6 C19.5,4.068 21.068,2.5 23,2.5 C24.932,2.5 26.5,4.068 26.5,6 Z M32.2984,31.2979 C32.4304,32.0119 32.5004,32.7479 32.5004,33.4999 C32.5004,40.1269 27.1274,45.4999 20.5004,45.4999 C13.8724,45.4999 8.5004,40.1269 8.5004,33.4999 C8.5004,26.8729 13.8724,21.4999 20.5004,21.4999 C21.2524,21.4999 21.9884,21.5689 22.7024,21.7019 M39.3828,38.3828 L39.6328,39.4998 L40.4998,39.4998 M29.5,25.5 L34.898,25.5 C35.834,25.5 36.645,26.15 36.85,27.063 L38.518,34.518 M28.5011,27.5005 C29.7561,29.1715 30.5001,31.2495 30.5001,33.5005 C30.5001,39.0225 26.0231,43.5005 20.5001,43.5005 C14.9771,43.5005 10.5001,39.0225 10.5001,33.5005 C10.5001,27.9775 14.9771,23.5005 20.5001,23.5005 C22.7511,23.5005 24.8291,24.2445 26.5001,25.4995 M20.5,33.5 L20.5,23.5 M20.5,33.5 L12.682,27.265 M20.5,33.5 L10.751,35.725 M20.5,33.5 L16.161,42.51 M20.5,33.5 L24.839,42.51 M20.5,33.5 L30.249,35.725 M20.5,33.5 L28.289,27.289 M35.5,34.5 L36.5,39.5 L36.5,42.5 L43.5,42.5 M18.5,17.5 L18.5,21.68 M17.2477,21.9582 L16.5177,19.3442 C16.3927,19.0702 16.4477,18.7472 16.6577,18.5312 L18.0717,17.0722 M16.0768,15.0768 L13.6508,17.6568 C13.2658,18.0658 13.1998,18.6808 13.4898,19.1618 L15.2098,22.7408 M27.5,23.5 L27.5,14.662 C27.5,13.468 26.532,12.5 25.338,12.5 L18.89,12.5 C18.641,12.5 18.403,12.603 18.233,12.784 L17.531,13.531"/></svg>