<svg xmlns="http://www.w3.org/2000/svg" width="24" height="24" viewBox="0 0 24 24"><path fill="none" stroke="#000" d="M6.87,13.18 C6.87,13.18 6.87,13.19 6.88,13.19 L7.6,14.04 L7.2,14.85 L8.04,16.55 L8.86,14.85 L8.43,14.04 L9.16,13.17 L9.17,13.16 M14,14.5 L15,14.5 M9.5306,8.1213 C9.1126,7.7353 8.5896,7.4983 7.9996,7.4983 C6.5756,7.4983 5.4996,8.8323 5.4996,10.5003 C5.4996,12.1673 6.5756,13.5003 7.9996,13.5003 C9.3136,13.5003 10.3196,12.3623 10.4696,10.8783 M10.4695,10.8785 C10.4825,10.7535 10.5005,10.6295 10.5005,10.5005 C10.5005,9.5225 10.1235,8.6685 9.5305,8.1215 M9.6643,12.753 C12.1843,14.2 13.2893,16.549 13.5003,19.5 L2.5003,19.5 C2.5503,16.473 3.8993,14.133 6.3173,12.741 M13.5305,6.1222 C13.1125,5.7362 12.5895,5.4992 11.9995,5.4992 C10.6865,5.4992 9.6815,6.6372 9.5305,8.1212 C10.1235,8.6682 10.4995,9.5222 10.4995,10.5002 C10.4995,10.6302 10.4825,10.7532 10.4695,10.8782 C10.8875,11.2642 11.4105,11.5012 11.9995,11.5012 C13.3135,11.5012 14.3195,10.3632 14.4695,8.8782 M16,3.4991 C14.686,3.4991 13.681,4.6381 13.531,6.1221 C14.124,6.6691 14.5,7.5231 14.5,8.5011 C14.5,8.6301 14.482,8.7531 14.47,8.8781 C14.888,9.2641 15.411,9.5011 16,9.5011 C17.424,9.5011 18.5,8.1681 18.5,6.5011 C18.5,4.8331 17.424,3.4991 16,3.4991 Z M14.4695,8.8785 C14.4825,8.7535 14.4995,8.6305 14.4995,8.5005 C14.4995,7.5225 14.1235,6.6685 13.5305,6.1225 M13.6662,10.7518 C16.1862,12.1988 17.2902,14.5488 17.5002,17.4998 L13.1762,17.4998 M17.67,8.7559 C20.19,10.2029 21.29,12.5489 21.5,15.4999 L17.189,15.4999"/></svg>