<svg xmlns="http://www.w3.org/2000/svg" width="48" height="48" viewBox="0 0 48 48">
  <path fill="none" stroke="#000" stroke-width="2" d="M37.9414,40.4994 L8.0594,40.4994 C6.3694,40.4994 4.9994,39.1294 4.9994,37.4414 L4.9994,16.0594 C4.9994,14.3694 6.3694,12.9994 8.0594,12.9994 L37.9414,12.9994 C39.6314,12.9994 40.9994,14.3694 40.9994,16.0594 L40.9994,37.4414 C40.9994,39.1294 39.6314,40.4994 37.9414,40.4994 Z M17,13.0004 L17,12.0584 C17,10.3704 18.376,9.0004 20.074,9.0004 L25.926,9.0004 C27.624,9.0004 29,10.3704 29,12.0584 L29,13.0004 M5,23.0004 L41,23.0004 M25.4678,26.9994 L20.5318,26.9994 C19.6858,26.9994 18.9998,26.3134 18.9998,25.4674 L18.9998,20.5334 C18.9998,19.6854 19.6858,18.9994 20.5318,18.9994 L25.4678,18.9994 C26.3138,18.9994 26.9998,19.6854 26.9998,20.5334 L26.9998,25.4674 C26.9998,26.3134 26.3138,26.9994 25.4678,26.9994 Z"/>
</svg>
