<svg xmlns="http://www.w3.org/2000/svg" width="48" height="48" viewBox="0 0 48 48">
  <path fill="none" stroke="#000" stroke-width="2" d="M10,28.9994 L14,28.9994 M10,24.9994 L12,24.9994 M14,24.9994 L16,24.9994 M16,28.9994 L18,28.9994 M14,32.9994 L16,32.9994 M10,32.9994 L12,32.9994 M32,32.9994 L34,32.9994 M36,32.9994 L38,32.9994 M20,28.9994 L22,28.9994 M24,28.9994 L26,28.9994 M28,28.9994 L30,28.9994 M32,28.9994 L34,28.9994 M18,24.9994 L20,24.9994 M22,24.9994 L24,24.9994 M26,24.9994 L28,24.9994 M30,24.9994 L32,24.9994 M18,32.9994 L30,32.9994 M34,24.9994 L37,24.9994 L37,29.9994 M7,37 L41,37 L41,21 L7,21 L7,37 Z M21,20.9994 L21,12.9994 L30,12.9994"/>
</svg>
