<svg xmlns="http://www.w3.org/2000/svg" width="48" height="48" viewBox="0 0 48 48">
  <path fill="none" stroke="#000" stroke-width="2" d="M14.6182,29.9786 C19.7642,38.8906 27.2882,44.3146 31.9902,42.7246 C32.1582,42.6926 32.3222,42.6446 32.4742,42.5546 L35.8782,40.5906 C36.9202,39.9906 37.2062,38.5206 36.5162,37.3246 L33.0042,31.2406 C32.3142,30.0446 30.8982,29.5606 29.8582,30.1606 L25.9102,32.4386 C25.5142,32.6686 24.9842,32.5546 24.6462,32.1566 C23.2342,30.4906 21.8862,28.5866 20.6702,26.4826 C19.4562,24.3786 18.4822,22.2606 17.7442,20.2026 C17.5682,19.7126 17.7362,19.1946 18.1302,18.9686 L22.0782,16.6866 C23.1202,16.0866 23.4082,14.6166 22.7182,13.4226 L19.2042,7.3386 C18.5142,6.1446 17.0982,5.6566 16.0582,6.2586 L12.6522,8.2246 C12.5002,8.3126 12.3742,8.4306 12.2642,8.5586 C8.5362,11.8366 9.4722,21.0626 14.6182,29.9786 Z"/>
</svg>
