<svg xmlns="http://www.w3.org/2000/svg" width="24" height="24" viewBox="0 0 24 24"><path fill="none" stroke="#000" d="M5.5,9.5 L5.5,4.5 C5.5,3.355 6.348,2.5 7.5,2.5 L16.463,2.5 C17.615,2.5 18.5,3.355 18.5,4.5 L18.5,9.5 M16.5,13.5 L7.5,13.5 M18.5,18.24 L18.5,20.57 C18.5,21.09 18.09,21.5 17.57,21.5 L17.43,21.5 C16.91,21.5 16.5,21.09 16.5,20.57 L16.5,18.5 M5.5,18.24 L5.5,20.57 C5.5,21.09 5.91,21.5 6.43,21.5 L6.57,21.5 C7.09,21.5 7.5,21.09 7.5,20.57 L7.5,18.5 M7.5,11.5 C7.5,10.4 6.6,9.5 5.5,9.5 C4.4,9.5 3.5,10.4 3.5,11.5 C3.5,12.24 3.9,12.882 4.5,13.232 L4.5,16.53 C4.5,17.62 5.38,18.5 6.47,18.5 L7.5,18.5 L16.5,18.5 L17.53,18.5 C18.62,18.5 19.5,17.62 19.5,16.53 L19.5,13.232 L19.5,13.23 C20.1,12.88 20.5,12.24 20.5,11.5 C20.5,10.4 19.6,9.5 18.5,9.5 C17.4,9.5 16.5,10.4 16.5,11.5 M16.5,11.5 L16.5,13.5 L16.5,14.5 C16.5,15.05 16.05,15.5 15.5,15.5 L8.5,15.5 C7.95,15.5 7.5,15.05 7.5,14.5 L7.5,13.5 L7.5,11.5"/></svg>