<svg xmlns="http://www.w3.org/2000/svg" width="24" height="24" viewBox="0 0 24 24"><path fill="none" stroke="#000" d="M6.0001,3 C6.0001,4.657 4.6571,6 3.0001,6 C1.3431,6 0.0001,4.657 0.0001,3 C0.0001,1.343 1.3431,0 3.0001,0 C4.6571,0 6.0001,1.343 6.0001,3 Z M1.5001,3 L2.5001,4 L4.5001,2 M19.0001,16 C19.0001,17.657 17.6571,19 16.0001,19 C14.3431,19 13.0001,17.657 13.0001,16 C13.0001,14.343 14.3431,13 16.0001,13 C17.6571,13 19.0001,14.343 19.0001,16 Z M14.5001,16 L15.5001,17 L17.5001,15 M11.9997,8.9996 C11.9997,10.6566 10.6567,11.9996 8.9997,11.9996 C7.3427,11.9996 5.9997,10.6566 5.9997,8.9996 C5.9997,7.3426 7.3427,5.9996 8.9997,5.9996 C10.6567,5.9996 11.9997,7.3426 11.9997,8.9996 Z M7.4997,8.9996 L8.4997,9.9996 L10.4997,7.9996 M6.0001,3 L17.0001,3 C18.1051,3 19.0001,3.895 19.0001,5 L19.0001,7 C19.0001,8.104 18.1041,9 17.0001,9 L12.0001,9 M6,9 L2,9 C0.895,9 4.4408921e-16,9.895 4.4408921e-16,11 L4.4408921e-16,14 C4.4408921e-16,15.105 0.895,16 2,16 L13,16" transform="translate(2.5 2.5)"/></svg>