<svg xmlns="http://www.w3.org/2000/svg" width="24" height="24" viewBox="0 0 24 24"><path fill="none" stroke="#000" d="M8.5,2 C8.5,3.165 7.665,4 6.5,4 C5.335,4 4.5,3.165 4.5,2 C4.5,0.835 5.335,0 6.5,0 C7.665,0 8.5,0.835 8.5,2 Z M4.5,2 L0,2 M8.5,2 L20,2 M20,8 L15.5,8 C15.5,6.87 14.63,6 13.5,6 C12.37,6 11.5,6.87 11.5,8 L0,8 M8.5,14 C8.5,15.148 7.648,16 6.5,16 C5.352,16 4.5,15.148 4.5,14 C4.5,12.852 5.352,12 6.5,12 C7.648,12 8.5,12.852 8.5,14 Z M4.5,14 L0,14 M8.5,14 L11.024,14 M13,17.5 L20,10.5 M20,17.5 L13,10.5" transform="translate(2 4.5)"/></svg>