<svg xmlns="http://www.w3.org/2000/svg" width="24" height="24" viewBox="0 0 24 24"><path fill="none" stroke="#000" d="M6.36135569,14.5281 L1.62535569,11.2201 C1.19535569,10.8741 0.565355686,10.9431 0.220355686,11.3741 C-0.125644314,11.8051 -0.0566443141,12.4341 0.374355686,12.7801 L6.30035569,18.0001 L10.2423557,18.0001 L11.2503557,19.0001 L18.7003557,19.0001 L13.6713557,13.9361 C12.5353557,12.8431 11.0883557,12.0281 9.60935569,12.0001 L7.50035569,12.0001 C5.51535569,12.0001 5.46835569,15.0001 7.50035569,15.0001 L9.50035569,15.0001 M4.99985569,1.006 L9.49985569,0 L13.9998557,1 C13.9998557,7.5 9.49985569,10 9.49985569,10 C9.49985569,10 4.99985569,7.5 4.99985569,1.006 Z M7.79985569,4.2499 L9.04985569,5.4999 L11.5498557,2.9999" transform="translate(2.5 2.5)"/></svg>