<svg xmlns="http://www.w3.org/2000/svg" width="24" height="24" viewBox="0 0 24 24"><path fill="none" stroke="#000" d="M12.4481,10.2428 C17.0271,10.1688 22.0001,8.9998 22.0001,8.9998 M2,8.9999 C2,8.9999 6.283,10.0069 10.558,10.2109 M10.4999,17.5004 C10.4999,16.9484 10.0519,16.5004 9.4999,16.5004 C8.9479,16.5004 8.4999,16.9484 8.4999,17.5004 L8.4999,21.0004 M12.5001,15.5002 C12.5001,14.9482 12.9481,14.5002 13.5001,14.5002 C14.0521,14.5002 14.5001,14.9482 14.5001,15.5002 L14.5001,19.0002 M14.5003,16.5003 C14.5003,15.9483 14.9483,15.5003 15.5003,15.5003 C16.0523,15.5003 16.5003,15.9483 16.5003,16.5003 L16.5003,20.0003 M16.5004,17.5004 C16.5004,16.9484 16.9484,16.5004 17.5004,16.5004 C18.0524,16.5004 18.5004,16.9484 18.5004,17.5004 L18.5004,21.0004 M12.5,13.4626 C16.033,13.0856 22,8.9996 22,8.9996 C22,8.9996 16.586,6.4996 14.5,6.4996 C12.414,6.4996 12.196,7.4996 12,7.4996 C11.804,7.4996 11.586,6.4996 9.5,6.4996 C7.414,6.4996 2,8.9996 2,8.9996 C2,8.9996 6.947,12.3896 10.5,13.2826 M12.5,17.9999 L12.5,10.4999 C12.5,9.9479 12.052,9.4999 11.5,9.4999 C10.948,9.4999 10.5,9.9479 10.5,10.4999 L10.5,18.9999"/></svg>