<svg xmlns="http://www.w3.org/2000/svg" width="48" height="48" viewBox="0 0 48 48">
  <path fill="none" stroke="#000" stroke-width="2" d="M17,32 L15,36 M29,32 L27,36 M21,32 L17,40 M25.0996,32 L21.0996,40 M14.4004,20.4004 C10.1184,20.4004 9.2664,29.0004 16.0004,29.0004 L30.0004,29.0004 C36.4724,29.0004 36.4004,20.4004 31.4004,20.6004 C33.6004,13.2004 23.8004,9.8004 20.8004,16.6004 C18.1584,14.4364 13.9364,16.5164 14.4004,20.4004 Z M34.6778,22.7744 C37.2098,22.0704 38.9998,19.7964 38.9998,17.0004 C38.9998,13.6184 36.3818,11.0004 32.9998,11.0004 C31.0138,11.0004 29.2898,11.9024 28.2078,13.3344 M33,4 L33,8 M23.6582,7.7558 L26.5402,10.5278 M39.586,23.7276 L42.414,26.5556 M46,17 L42,17 M42.1914,7.7774 L39.3634,10.6054"/>
</svg>
