<svg xmlns="http://www.w3.org/2000/svg" width="24" height="24" viewBox="0 0 24 24"><path fill="none" stroke="#000" d="M7.5,10 L7.5,4.5 M20.5,4.5 L20.5,21.5 L7.5,21.5 L7.5,18 M10.5,9.5 L17.5,9.5 L17.5,6.5 L10.5,6.5 L10.5,9.5 Z M10.5,14.5 L17.5,14.5 L17.5,11.5 L10.5,11.5 L10.5,14.5 Z M10.5,19.5 L17.5,19.5 L17.5,16.5 L10.5,16.5 L10.5,19.5 Z M7.5,21.5 L2,21.5 M22,4.5 L6,4.5 M5.5,21.5 L5.5,16.25 M6.8958,12.5399 C6.9608,12.3719 6.9998,12.1909 6.9998,11.9999 C6.9998,11.1719 6.3288,10.4999 5.4998,10.4999 C4.6718,10.4999 3.9998,11.1719 3.9998,11.9999 C3.9998,12.1909 4.0388,12.3719 4.1038,12.5399 C3.1888,12.7239 2.4998,13.5309 2.4998,14.4999 C2.4998,15.6049 3.3958,16.4999 4.4998,16.4999 C4.8658,16.4999 5.2048,16.3939 5.4998,16.2229 C5.7948,16.3939 6.1338,16.4999 6.4998,16.4999 C7.6048,16.4999 8.4998,15.6049 8.4998,14.4999 C8.4998,13.5309 7.8108,12.7239 6.8958,12.5399 Z"/></svg>