<svg xmlns="http://www.w3.org/2000/svg" width="36" height="36" viewBox="0 0 36 36"><path fill="none" stroke="#000" stroke-width="1.5" d="M23.25,6 C26.145,6 28.5,8.355 28.5,11.25 C28.5,14.145 26.145,16.5 23.25,16.5 C20.355,16.5 18,14.145 18,11.25 C18,8.355 20.355,6 23.25,6 M5.25,6 C8.145,6 10.5,8.355 10.5,11.25 C10.5,14.145 8.145,16.5 5.25,16.5 C2.355,16.5 0,14.145 0,11.25 C0,8.355 2.355,6 5.25,6 M13.5,10.5 L6,10.5 L9,4.5 L16.5,4.5 M13.5,10.5 L24,10.5 L21,4.5 L16.5,4.5 L13.5,10.5 M9,4.5 L9,1.5 L5.25,1.5 M16.5,4.5 L16.5,1.5 L12.75,1.5 M21,4.5 L24,0 L20.25,0" transform="translate(3.75 9.75)"/></svg>