<svg xmlns="http://www.w3.org/2000/svg" width="36" height="36" viewBox="0 0 36 36"><path fill="none" stroke="#000" stroke-width="1.5" d="M12.75,16.5 C12.75,16.086 12.414,15.75 12,15.75 C11.586,15.75 11.25,16.086 11.25,16.5 C11.25,16.914 11.586,17.25 12,17.25 C12.414,17.25 12.75,16.914 12.75,16.5 Z M24.75,16.5 C24.75,16.086 24.414,15.75 24,15.75 C23.586,15.75 23.25,16.086 23.25,16.5 C23.25,16.914 23.586,17.25 24,17.25 C24.414,17.25 24.75,16.914 24.75,16.5 Z M8.24985,20.25 L8.24985,23.25 L12.74985,23.25 L12.74985,20.25 M23.25075,20.25 L23.25075,23.25 L27.75075,23.25 L27.75075,20.25 M8.24985,11.2509 L5.99985,11.2509 M30.0006,11.2509 L27.7506,11.2509 M27.75015,12.7509 L8.25015,12.7509 M23.99985,5.2503 C26.55885,5.2503 27.74985,6.4413 27.74985,9.0003 L27.74985,20.2503 L8.24985,20.2503 L8.24985,9.0003 C8.24985,6.4413 9.44235,5.2503 11.99985,5.2503 L23.99985,5.2503 M24.75,12.75 C24.75,11.0925 23.4075,9.75 21.75,9.75 C20.0925,9.75 18.75,11.0925 18.75,12.75 M20.25,27.75 L24,27.7425 M20.25,30.75 L24,30.75 M15.75,29.25 L10.5,29.25 M20.25,32.25 L20.25,26.25 L18.747,26.2515 C17.091,26.253 15.75,27.594 15.75,29.25 L15.75,29.25 C15.75,30.9075 17.0925,32.25 18.75,32.25 L20.25,32.25 Z"/></svg>