<svg xmlns="http://www.w3.org/2000/svg" width="36" height="36" viewBox="0 0 36 36"><path fill="none" stroke="#000" stroke-width="1.5" d="M8.25,14.25 L8.25,6.75 C8.25,5.0325 9.522,3.75 11.25,3.75 L24.6945,3.75 C26.4225,3.75 27.75,5.0325 27.75,6.75 L27.75,14.25 M24.75,20.25 L11.25,20.25 M27.75,27.36 L27.75,30.855 C27.75,31.635 27.135,32.25 26.355,32.25 L26.145,32.25 C25.365,32.25 24.75,31.635 24.75,30.855 L24.75,27.75 M8.25,27.36 L8.25,30.855 C8.25,31.635 8.865,32.25 9.645,32.25 L9.855,32.25 C10.635,32.25 11.25,31.635 11.25,30.855 L11.25,27.75 M11.25,17.25 C11.25,15.6 9.9,14.25 8.25,14.25 C6.6,14.25 5.25,15.6 5.25,17.25 C5.25,18.36 5.85,19.323 6.75,19.848 L6.75,24.795 C6.75,26.43 8.07,27.75 9.705,27.75 L11.25,27.75 L24.75,27.75 L26.295,27.75 C27.93,27.75 29.25,26.43 29.25,24.795 L29.25,19.848 L29.25,19.845 C30.15,19.32 30.75,18.36 30.75,17.25 C30.75,15.6 29.4,14.25 27.75,14.25 C26.1,14.25 24.75,15.6 24.75,17.25 M24.75,17.25 L24.75,20.25 L24.75,21.75 C24.75,22.575 24.075,23.25 23.25,23.25 L12.75,23.25 C11.925,23.25 11.25,22.575 11.25,21.75 L11.25,20.25 L11.25,17.25"/></svg>