<svg xmlns="http://www.w3.org/2000/svg" width="36" height="36" viewBox="0 0 36 36"><path fill="none" stroke="#000" stroke-width="1.5" d="M9.00015,4.5 C9.00015,6.9855 6.98565,9 4.50015,9 C2.01465,9 0.00015,6.9855 0.00015,4.5 C0.00015,2.0145 2.01465,0 4.50015,0 C6.98565,0 9.00015,2.0145 9.00015,4.5 Z M2.25015,4.5 L3.75015,6 L6.75015,3 M28.50015,24 C28.50015,26.4855 26.48565,28.5 24.00015,28.5 C21.51465,28.5 19.50015,26.4855 19.50015,24 C19.50015,21.5145 21.51465,19.5 24.00015,19.5 C26.48565,19.5 28.50015,21.5145 28.50015,24 Z M21.75015,24 L23.25015,25.5 L26.25015,22.5 M17.99955,13.4994 C17.99955,15.9849 15.98505,17.9994 13.49955,17.9994 C11.01405,17.9994 8.99955,15.9849 8.99955,13.4994 C8.99955,11.0139 11.01405,8.9994 13.49955,8.9994 C15.98505,8.9994 17.99955,11.0139 17.99955,13.4994 Z M11.24955,13.4994 L12.74955,14.9994 L15.74955,11.9994 M9.00015,4.5 L25.50015,4.5 C27.15765,4.5 28.50015,5.8425 28.50015,7.5 L28.50015,10.5 C28.50015,12.156 27.15615,13.5 25.50015,13.5 L18.00015,13.5 M9,13.5 L3,13.5 C1.3425,13.5 0,14.8425 0,16.5 L0,21 C0,22.6575 1.3425,24 3,24 L19.5,24" transform="translate(3.75 3.75)"/></svg>