<svg xmlns="http://www.w3.org/2000/svg" width="36" height="36" viewBox="0 0 36 36"><path fill="none" stroke="#000" stroke-width="1.5" d="M20.25,9 C20.25,10.242 19.242,11.25 18,11.25 C16.758,11.25 15.75,10.242 15.75,9 C15.75,7.758 16.758,6.75 18,6.75 C19.242,6.75 20.25,7.758 20.25,9 Z M12.75,13.5 C12.75,14.742 11.742,15.75 10.5,15.75 C9.258,15.75 8.25,14.742 8.25,13.5 C8.25,12.258 9.258,11.25 10.5,11.25 C11.742,11.25 12.75,12.258 12.75,13.5 Z M18.75,27 C18.75,28.242 17.742,29.25 16.5,29.25 C15.258,29.25 14.25,28.242 14.25,27 C14.25,25.758 15.258,24.75 16.5,24.75 C17.742,24.75 18.75,25.758 18.75,27 Z M30.75,15 L30.75,30 C30.75,31.242 29.742,32.25 28.5,32.25 L28.5,32.25 C27.258,32.25 26.25,31.242 26.25,30 L26.25,15 M26.25,14.98305 C25.344,14.29905 24.75,13.22355 24.75,11.99955 C24.75,11.99955 24.201,4.87455 30.75,3.74955 C30.75,3.74955 28.7655,6.80355 31.587,9.87555 C32.004,10.48005 32.25,11.21055 32.25,11.99955 C32.25,13.22355 31.656,14.29905 30.75,14.98305 L26.25,14.98305 Z M26.25,18.75 L30.75,18.75 M24,5.1228 C22.281,4.3038 20.3895,3.8103 18.4035,3.7563 C11.4285,3.5628 5.5455,8.3838 4.0935,14.8773 C3.7455,16.4313 4.752,17.9028 6.27,18.3903 C9.1725,19.3218 11.25,21.8178 11.25,24.7503 C11.25,25.5753 11.0805,26.3628 10.7745,27.0903 C10.1505,28.5738 10.7085,30.3363 12.1755,30.9978 C13.953,31.8003 15.9225,32.2503 18,32.2503 C20.1465,32.2503 22.1745,31.7628 24,30.9138"/></svg>