<svg xmlns="http://www.w3.org/2000/svg" width="36" height="36" viewBox="0 0 36 36"><path fill="none" stroke="#000" stroke-width="1.5" d="M26.25,12.75 L9.75,12.75 L9.75,3.75 L13.5,6 L15.75,3.75 L18,6 L20.25,3.75 L22.5,6 L26.25,3.75 L26.25,12.75 Z M22.095,18.345 C21.525,18.345 21.075,18.795 21.075,19.365 C21.075,19.935 21.525,20.385 22.095,20.385 C22.65,20.385 23.115,19.935 23.115,19.365 C23.115,18.795 22.65,18.345 22.095,18.345 Z M13.905,18.345 C13.35,18.345 12.885,18.795 12.885,19.365 C12.885,19.935 13.35,20.385 13.905,20.385 C14.475,20.385 14.925,19.935 14.925,19.365 C14.925,18.795 14.475,18.345 13.905,18.345 Z M12.39,24.75 C13.59,26.565 15.66,27.75 18,27.75 C20.34,27.75 22.41,26.565 23.61,24.75 M9.75,12.75 C7.5285,14.805 6.75,17.736 6.75,21 C6.75,27.213 11.787,32.25 18,32.25 C24.213,32.25 29.25,27.213 29.25,21 C29.25,17.736 28.4715,14.805 26.25,12.75"/></svg>