<svg xmlns="http://www.w3.org/2000/svg" width="36" height="36" viewBox="0 0 36 36"><path fill="none" stroke="#000" stroke-width="1.5" d="M9.54203353,21.79215 L2.43803353,16.83015 C1.79303353,16.31115 0.848033529,16.41465 0.330533529,17.06115 C-0.188466471,17.70765 -0.0849664711,18.65115 0.561533529,19.17015 L9.45053353,27.00015 L15.3635335,27.00015 L16.8755335,28.50015 L28.0505335,28.50015 L20.5070335,20.90415 C18.8030335,19.26465 16.6325335,18.04215 14.4140335,18.00015 L11.2505335,18.00015 C8.27303353,18.00015 8.20253353,22.50015 11.2505335,22.50015 L14.2505335,22.50015 M7.49978353,1.509 L14.2497835,0 L20.9997835,1.5 C20.9997835,11.25 14.2497835,15 14.2497835,15 C14.2497835,15 7.49978353,11.25 7.49978353,1.509 Z M11.6997835,6.37485 L13.5747835,8.24985 L17.3247835,4.49985" transform="translate(3.75 3.75)"/></svg>