<?xml version="1.0" encoding="UTF-8"?>
<svg width="36px" height="36px" viewBox="0 0 36 36" version="1.1" xmlns="http://www.w3.org/2000/svg" xmlns:xlink="http://www.w3.org/1999/xlink">
    <title>KOM/non-responsive/medium/010-Basic/low-vision-medium</title>
    <g id="KOM/non-responsive/medium/010-Basic/low-vision-medium" stroke="none" stroke-width="1" fill="none" fill-rule="evenodd">
        <g id="Group" stroke="#000000" stroke-width="1.5">
            <g id="KOM/responsive/small/010-Basic/low-vision-small">
                <path d="M10.8342,12.3345 C8.0172,14.3385 5.9892,16.947 5.2497,18 C6.3657,19.65 11.6247,26.25 17.9997,26.25 C19.9092,26.25 21.6987,25.668 23.3082,24.8085 M26.48535,22.6347 C28.60935,20.8437 30.13185,18.8802 30.74985,17.9997 C29.63385,16.3497 24.37485,9.7497 17.99985,9.7497 C16.70835,9.7497 15.47385,10.0227 14.30985,10.4592 M23.073,19.2849 C23.178,18.8709 23.25,18.4464 23.25,17.9994 C23.25,15.0999 20.8995,12.7494 18,12.7494 C17.5545,12.7494 17.1285,12.8229 16.7145,12.9264 M18.69825,26.19825 L7.63575,15.13575 M6,7.5 L28.5,30" id="Combined-Shape"></path>
            </g>
        </g>
    </g>
</svg>