<svg xmlns="http://www.w3.org/2000/svg" width="36" height="36" version="1.1" viewBox="0 0 36 36">
  <path fill="none" fill-rule="evenodd" stroke="#000" stroke-width="1.5" d="M9.75,23.25 L27.75,23.25 L27.75,9.75 L9.75,9.75 L9.75,23.25 Z M9.75,12.75 L6.75,12.75 L6.75,18.75 L9.75,18.75 M20.25,5.25 C20.25,4.422 19.578,3.75 18.75,3.75 C17.922,3.75 17.25,4.422 17.25,5.25 C17.25,6.078 17.922,6.75 18.75,6.75 C19.578,6.75 20.25,6.078 20.25,5.25 Z M18.75,9.75 L18.75,6.75 M27.75,12.75 L30.75,12.75 L30.75,18.75 L27.75,18.75 M32.25,33 L32.25,28.7625 C32.25,27.375 31.0545,26.25 29.5785,26.25 L7.9215,26.25 C6.447,26.25 5.25,27.375 5.25,28.7625 L5.25,33 M14.25,18 C15.003,19.3275 16.7025,20.25 18.75,20.25 C20.7975,20.25 22.497,19.3275 23.25,18 M16.2,15 C16.2,15.249 15.999,15.45 15.75,15.45 C15.501,15.45 15.3,15.249 15.3,15 C15.3,14.751 15.501,14.55 15.75,14.55 C15.999,14.55 16.2,14.751 16.2,15 Z M22.2,15 C22.2,15.249 21.999,15.45 21.75,15.45 C21.501,15.45 21.3,15.249 21.3,15 C21.3,14.751 21.501,14.55 21.75,14.55 C21.999,14.55 22.2,14.751 22.2,15 Z"/>
</svg>
