<svg xmlns="http://www.w3.org/2000/svg" width="36" height="36" viewBox="0 0 36 36">
  <path fill="none" stroke="#000" stroke-width="1.5" d="M30.75,11.2503 L30.75,9.7503 L17.25,5.2503 L3.75,9.7503 L3.75,11.2503 L30.75,11.2503 Z M5.25,11.2503 L5.25,14.2503 L29.25,14.2503 L29.25,11.2503 M3,32.24955 L21,32.24955 M22.5,32.24955 L5.25,32.24955 L5.25,29.24955 L22.5,29.24955 M9.75,29.24955 L9.75,14.24955 M6.75,14.2503 L6.75,29.2503 M15.75,29.24955 L15.75,14.24955 M12.75,14.2503 L12.75,29.2503 M21.75,29.24955 L21.75,14.24955 M18.75,14.2503 L18.75,29.2503 M24.75,14.2503 L24.75,24.0003 M27.75,23.99955 L27.75,14.24955 M27.75,25.49955 L27.75,32.99955 M24,29.24955 L31.5,29.24955"/>
</svg>
