<svg xmlns="http://www.w3.org/2000/svg" width="36" height="36" viewBox="0 0 36 36">
  <g fill="none" fill-rule="evenodd">
    <path stroke="#000" stroke-width="1.5" d="M3.75,30.0003 L3.75,23.2503 L3.846,23.2503 L10.5,23.2503 M32.25,18.0003 C32.2185,25.9023 25.7085,32.2803 17.562,32.2504054 C11.877,32.2293 6.5715,28.9623 4.143,23.9763 C4.035,23.7468 3.93,23.4873 3.846,23.2503 M32.25,6.0003 L32.25,12.7503 L25.5,12.7503 M3.75,18.0003 C3.765,10.1073 10.3275,3.7353 18.4935,3.75027357 C24.234,3.7608 29.4345,6.8838 31.8555,11.9148 C31.9815,12.1788 32.1,12.4743 32.1915,12.7503"/>
    <path fill="#000" d="M13.1733,18.6309 L13.1733,18.5604 L13.1733,18.1464 C13.1733,18.0444 13.1793,17.8059 13.1943,17.4294 L13.2048,17.3574 L11.5323,17.3574 L12.0768,16.1049 L13.3473,16.1049 C13.4643,15.4254 13.6308,14.7879 13.8498,14.1954 C14.7588,11.7099 16.4208,10.4679 18.8328,10.4679 C20.5353,10.4679 22.0803,11.0034 23.4678,12.0744 L22.7403,13.7109 C22.1253,13.3074 21.6513,13.0074 21.3138,12.8124 C20.4933,12.3474 19.6563,12.1149 18.8028,12.1149 C17.2368,12.1149 16.1538,13.0269 15.5523,14.8524 C15.4023,15.3039 15.2958,15.7209 15.2343,16.1049 L21.6738,16.1049 L21.1098,17.3574 L15.0603,17.3574 C15.0468,17.7279 15.0393,18.0084 15.0393,18.1959 C15.0393,18.2904 15.0438,18.4359 15.0498,18.6309 L20.5548,18.6309 L19.9923,19.8834 L15.1938,19.8834 C15.3168,20.5779 15.5208,21.2244 15.8088,21.8229 C16.1568,22.5324 16.5738,23.0394 17.0598,23.3499 C17.5653,23.6724 18.1713,23.8344 18.8748,23.8344 C19.4568,23.8344 19.9728,23.7534 20.4228,23.5929 C20.8743,23.4294 21.6438,23.0529 22.7403,22.4604 L22.7403,24.4719 C22.4328,24.6459 22.2453,24.7509 22.1748,24.7854 C21.1713,25.2834 20.0223,25.5324 18.7308,25.5324 C15.6888,25.5324 13.8738,23.6499 13.2858,19.8834 L11.5323,19.8834 L12.0768,18.6309 L13.1733,18.6309 Z"/>
  </g>
</svg>
