<svg xmlns="http://www.w3.org/2000/svg" width="36" height="36" viewBox="0 0 36 36">
  <g fill="none" fill-rule="evenodd">
    <path stroke="#000" stroke-width="1.5" d="M17.9985,7.98 C18.3345,7.29 18.7725,6.6585 19.2915,6.105 C20.6595,4.656 22.599,3.75 24.75,3.75 C28.893,3.75 32.25,7.107 32.25,11.25 C32.25,15.3915 28.893,18.75 24.75,18.75 C22.6785,18.75 20.8035,17.91 19.4475,16.5525 C18.858,15.9645 18.366,15.2775 17.9985,14.52 M28.01655,17.99745 C30.52305,19.21095 32.24955,21.77895 32.24955,24.74895 C32.24955,28.89195 28.89255,32.24895 24.74955,32.24895 C20.60805,32.24895 17.24955,28.89195 17.24955,24.74895 C17.24955,21.77895 18.97755,19.21245 21.48255,17.99745 M18.0015,28.0206 C16.7865,30.5241 14.22,32.2491 11.25,32.2491 C7.107,32.2491 3.75,28.8921 3.75,24.7491 C3.75,20.6091 7.107,17.2506 11.25,17.2506 C14.22,17.2506 16.788,18.9771 18.003,21.4836 M7.9761,17.99955 C5.4741,16.78305 3.7506,14.21805 3.7506,11.24955 C3.7506,7.10805 7.1076,3.74955 11.2506,3.74955 C15.3921,3.74955 18.7506,7.10805 18.7506,11.24955 C18.7506,14.22255 17.0196,16.79055 14.5131,18.00405"/>
    <path fill="#000" d="M11.21595,20.96445 C12.04695,20.96445 12.69045,21.17145 13.14645,21.58395 C13.60245,21.99795 13.83795,22.58595 13.85145,23.34795 L12.37995,23.34795 C12.37395,22.99845 12.29145,22.73745 12.13395,22.55745 C11.92845,22.32645 11.63445,22.20945 11.24745,22.20945 C10.96245,22.20945 10.72995,22.28745 10.54545,22.44195 C10.36095,22.59945 10.26645,22.79595 10.26645,23.03595 C10.26645,23.23695 10.32495,23.47845 10.44345,23.75745 C10.56195,24.05295 10.65195,24.28695 10.71345,24.46095 L12.07245,24.46095 L12.07245,25.33245 L10.99695,25.33245 C11.02545,25.48695 11.04195,25.63545 11.04195,25.78395 C11.04195,26.03295 10.97595,26.26545 10.84395,26.48145 C10.71195,26.69595 10.48695,26.94195 10.16445,27.21945 C10.49745,27.07095 10.81245,26.99745 11.10795,26.99745 C11.30745,26.99745 11.55045,27.03645 11.83695,27.11145 C12.14445,27.19245 12.36795,27.23445 12.50895,27.23445 C12.88695,27.23445 13.21245,27.08895 13.48245,26.79945 L14.11395,27.87945 C13.91745,28.08495 13.67145,28.24395 13.37595,28.35945 C13.07595,28.47495 12.76095,28.53195 12.42645,28.53195 C12.22845,28.53195 12.05745,28.51695 11.91345,28.49145 C11.76945,28.46295 11.51445,28.39695 11.14845,28.29045 C10.76295,28.18095 10.44645,28.12545 10.19745,28.12545 C10.00545,28.12545 9.82695,28.15695 9.66345,28.21545 C9.49995,28.27545 9.30195,28.38195 9.07245,28.53645 L8.42745,27.57795 C8.76795,27.33495 9.01395,27.12045 9.16545,26.93595 C9.43995,26.59845 9.57495,26.25645 9.57495,25.91145 C9.57495,25.72695 9.54195,25.53345 9.47295,25.33245 L8.38545,25.33245 L8.38545,24.46095 L9.10395,24.46095 C9.03945,24.30345 8.98845,24.18645 8.94945,24.11295 C8.83695,23.85945 8.76045,23.65245 8.71995,23.49195 C8.67945,23.33145 8.65845,23.14995 8.65845,22.94745 C8.65845,22.42545 8.84895,21.98445 9.23295,21.62445 C9.70695,21.18345 10.36845,20.96445 11.21595,20.96445 Z M23.4822,21.09225 L24.7707,24.07575 L26.0622,21.09225 L27.6312,21.09225 L26.2632,24.01425 L27.4002,24.01425 L27.4002,24.84525 L25.8477,24.84525 L25.4832,25.57275 L25.4832,25.77825 L27.0267,25.77825 L27.0267,26.60775 L25.4832,26.60775 L25.4832,28.40925 L24.0222,28.40925 L24.0222,26.60775 L22.4787,26.60775 L22.4787,25.77825 L24.0222,25.77825 L24.0222,25.55175 L23.6637,24.84525 L22.1007,24.84525 L22.1007,24.01425 L23.2527,24.01425 L21.8682,21.09225 L23.4822,21.09225 Z M25.0737,6.49725 L25.0737,7.41975 C25.7997,7.45725 26.3607,7.66125 26.7522,8.02725 C27.1437,8.39475 27.3462,8.90775 27.3582,9.56325 L25.9707,9.56325 C25.9572,8.94075 25.6572,8.59275 25.0737,8.51775 L25.0737,10.42875 C25.1202,10.44375 25.2552,10.47825 25.4787,10.53225 C26.2137,10.72425 26.7312,10.95825 27.0372,11.23425 C27.4137,11.57925 27.6012,12.04875 27.6012,12.64425 C27.6012,13.24875 27.4077,13.75725 27.0222,14.16675 C26.7762,14.42925 26.5017,14.62275 26.2032,14.74275 C25.9047,14.86425 25.5282,14.93775 25.0737,14.96175 L25.0737,16.00275 L24.4527,16.00275 L24.4527,14.95725 C23.7312,14.91675 23.1672,14.73225 22.7607,14.40825 C22.1937,13.95375 21.9072,13.31175 21.8997,12.48525 L23.3547,12.48525 C23.3487,13.29825 23.7147,13.74525 24.4527,13.82325 L24.4527,11.65575 C23.7687,11.46375 23.2962,11.29275 23.0382,11.14275 C22.7067,10.95075 22.4637,10.72425 22.3092,10.46325 C22.1562,10.20075 22.0797,9.88425 22.0797,9.51225 C22.0797,9.09825 22.1862,8.72925 22.4022,8.40675 C22.6167,8.08425 22.9227,7.83375 23.3187,7.65675 C23.6037,7.52925 23.9802,7.45125 24.4527,7.41975 L24.4527,6.49725 L25.0737,6.49725 Z M11.922,7.47735 C12.441,7.47735 12.894,7.57335 13.281,7.76385 C13.431,7.83885 13.65,7.97085 13.9365,8.15835 L13.4445,9.40935 C13.0965,9.16785 12.801,8.99835 12.5595,8.90235 C12.3195,8.80635 12.069,8.75835 11.808,8.75835 C11.118,8.75835 10.6275,9.25185 10.338,10.24035 L13.1265,10.24035 L12.834,11.07135 L10.188,11.07135 C10.185,11.15685 10.1835,11.23485 10.1835,11.30685 C10.1835,11.38485 10.185,11.45985 10.188,11.53185 L12.6345,11.53185 L12.321,12.36285 L10.3575,12.36285 C10.662,13.27485 11.1495,13.73235 11.82,13.73235 C12.0405,13.73235 12.2595,13.69935 12.4755,13.63185 C12.69,13.56585 13.0095,13.43085 13.428,13.22985 L13.428,14.67585 C12.6465,14.90685 12.081,15.02385 11.7315,15.02385 C11.106,15.02385 10.5285,14.82285 9.9945,14.41935 C9.396,13.97085 8.9925,13.28535 8.784,12.36285 L7.815,12.36285 L8.1165,11.53185 L8.6505,11.53185 C8.6445,11.38185 8.6415,11.27685 8.6415,11.21985 L8.6415,11.07135 L7.815,11.07135 L8.1165,10.24035 L8.7525,10.24035 C8.8935,9.63585 9.1365,9.10185 9.4815,8.64135 C10.059,7.86585 10.872,7.47735 11.922,7.47735 Z M25.0737,11.80875 L25.0737,13.82325 C25.7937,13.73475 26.1552,13.40025 26.1552,12.81825 C26.1552,12.47025 26.0142,12.21375 25.7337,12.04875 C25.6557,12.00225 25.4352,11.92125 25.0737,11.80875 Z M24.4527,8.50125 C23.7987,8.55975 23.4747,8.85675 23.4747,9.39375 C23.4747,9.63675 23.5437,9.82425 23.6877,9.95475 C23.8317,10.08675 24.0867,10.19775 24.4527,10.28625 L24.4527,8.50125 Z"/>
  </g>
</svg>
