<svg xmlns="http://www.w3.org/2000/svg" width="36" height="36" viewBox="0 0 36 36">
  <path fill="none" stroke="#000" stroke-width="1.5" d="M15.75,6.74445 L15.75,14.24445 L23.25,14.24445 M10.5015,17.2503 L19.5015,17.2503 M10.4985,20.24955 L19.5015,20.24955 M24,29.24955 L6.75,29.24955 L6.75,6.74955 L15.75,6.74955 L23.25,14.24955 L23.25,17.99955 M19.5,26.24955 C19.485,26.23005 18.8175,25.39455 18,25.49955 C16.8225,25.65405 16.0815,27.08205 15.2865,26.70105 C14.814,26.47305 15.792,24.83505 14.502,24.77205 C13.7505,24.73455 12.345,27.20805 11.466,26.98605 C10.68,26.78805 11.7615,24.37305 11.046,24.05505 C10.0605,23.61555 9,25.49955 9,25.49955 M21.5361,23.4429 L20.7561,26.7054 L23.8341,25.3704 L31.5486,16.1784 L29.2506,14.2509 L21.5361,23.4429 Z"/>
</svg>
