<svg xmlns="http://www.w3.org/2000/svg" width="36" height="36" viewBox="0 0 36 36">
  <g fill="none" fill-rule="evenodd">
    <path stroke="#000" stroke-width="1.5" d="M9.75,20.25 L29.25,20.25 L29.25,5.25 L9.75,5.25 L9.75,20.25 Z M6.75,3 L6.75,33"/>
    <path fill="#000" d="M15,15 L15,20.25 L9.75,20.25 L9.75,15 L15,15 Z M24,15 L24,20.25 L19.5,20.25 L19.5,15 L24,15 Z M19.5,10.5 L19.5,15 L15,15 L15,10.5 L19.5,10.5 Z M29.25,10.5 L29.25,15 L24,15 L24,10.5 L29.25,10.5 Z M15,5.25 L15,10.5 L9.75,10.5 L9.75,5.25 L15,5.25 Z M24,5.25 L24,10.5 L19.5,10.5 L19.5,5.25 L24,5.25 Z"/>
  </g>
</svg>
