<svg xmlns="http://www.w3.org/2000/svg" width="36" height="36" viewBox="0 0 36 36">
  <path fill="none" stroke="#000" stroke-width="1.5" d="M26.25,20.99955 L26.25,14.99955 M12.75,20.99955 C12.75,22.24305 11.7435,23.24955 10.5,23.24955 C9.2565,23.24955 8.25,22.24305 8.25,20.99955 M17.25,22.49955 C17.25,23.74305 16.2435,24.74955 15,24.74955 C13.7565,24.74955 12.75,23.74305 12.75,22.49955 M13.17255,23.8047 C12.44205,24.9477 11.99955,26.2887 11.99955,27.7497 L23.44305,27.7497 C26.75655,27.7497 29.44305,25.0632 29.44305,21.7497 C29.44305,20.6667 29.13405,19.6647 28.63155,18.7872 L26.24955,13.8072 M12.75,22.49955 L12.75,16.49955 M17.25,22.49955 L17.25,14.99955 M21.75,20.99955 L21.75,14.99955 M17.25,14.99955 L17.25,11.99955 M21.75,14.99955 L21.75,11.99955 M8.25,20.99955 L8.25,14.99955 M12.75,16.49955 L12.75,13.49955 M26.25,16.49955 L26.25,13.49955 M9,26.24955 C6.9285,26.24955 5.25,24.57105 5.25,22.49955 M25.5,8.24955 C27.5715,8.24955 29.25,9.92805 29.25,11.99955 M25.5,5.24955 C29.2275,5.24955 32.25,8.27205 32.25,11.99955 M21.75,20.99955 C21.75,22.24305 20.742,23.24955 19.5,23.24955 C18.2565,23.24955 17.25,22.24305 17.25,20.99955 M26.25,20.99955 C26.25,22.24305 25.242,23.24955 24,23.24955 C22.758,23.24955 21.75,22.24305 21.75,20.99955 M21.75,13.49955 C21.75,12.25755 22.758,11.24955 24,11.24955 C25.242,11.24955 26.25,12.25755 26.25,13.49955 M17.25,11.99955 C17.25,10.75755 18.2565,9.74955 19.5,9.74955 C20.742,9.74955 21.75,10.75755 21.75,11.99955 M12.75,13.49955 C12.75,12.25755 13.7565,11.24955 15,11.24955 C16.2435,11.24955 17.25,12.25755 17.25,13.49955 M8.25,14.99955 C8.25,13.75755 9.2565,12.74955 10.5,12.74955 C11.7435,12.74955 12.75,13.75755 12.75,14.99955 M12.75,24.74955 L17.25,24.74955 L17.25,27.74955 M17.25,22.49955 L17.25,27.74955"/>
</svg>
