<svg xmlns="http://www.w3.org/2000/svg" width="36" height="36" viewBox="0 0 36 36">
  <path fill="none" stroke="#000" stroke-width="1.5" d="M11.25,18.75 L14.25,18.75 L14.25,15.75 L11.25,15.75 L11.25,18.75 Z M11.25,26.25 L14.25,26.25 L14.25,23.25 L11.25,23.25 L11.25,26.25 Z M12.75,8.25 L6.75,8.25 L6.75,30.75 L29.25,30.75 L29.25,8.25 L23.25,8.25 M12.75,9.75 L23.25,9.75 L23.25,6.75 L12.75,6.75 L12.75,9.75 Z M6.75,12.75 L29.25,12.75 M19.5,22.5 L24,27 M19.5,27 L24,22.5 M19.5,17.25 L21.75,19.5 L25.5,15"/>
</svg>
