<svg xmlns="http://www.w3.org/2000/svg" width="36" height="36" viewBox="0 0 36 36">
  <path fill="none" stroke="#000" stroke-width="1.5" d="M30.75,5.2503 L24,12.0003 M25.5,5.2503 L30.75,5.2503 L30.75,10.5003 M5.25,26.25 L30.75,26.25 L30.75,15.75 L5.25,15.75 L5.25,26.25 Z M9.75,27.0054 C9.75,27.4179 9.414,27.7554 9,27.7554 C8.586,27.7554 8.25,27.4179 8.25,27.0054 C8.25,26.5914 8.586,26.2554 9,26.2554 C9.414,26.2554 9.75,26.5914 9.75,27.0054 Z M2.997,24.7584 L5.25,24.7584 M27.75,27.0054 C27.75,27.4179 27.414,27.7554 27,27.7554 C26.586,27.7554 26.25,27.4179 26.25,27.0054 C26.25,26.5914 26.586,26.2554 27,26.2554 C27.414,26.2554 27.75,26.5914 27.75,27.0054 Z M30.7485,24.7584 L33.0015,24.7584"/>
</svg>
