<svg xmlns="http://www.w3.org/2000/svg" width="36" height="36" viewBox="0 0 36 36">
  <path fill="none" stroke="#000" stroke-width="1.5" d="M17.55615,22.86 L25.42515,30.7275 L27.54615,28.6065 L19.67715,20.739 M16.67805,17.7381 L11.63655,12.6966 M9.51495,14.8179 L14.55645,19.8594 M6.33255,11.63625 L5.27205,10.57425 L7.39305,8.45325 L8.45505,9.51375 M9.51495,8.454 C11.27145,10.212 14.12145,10.212 15.87945,8.454 L7.39245,16.9395 L4.21095,13.758 L9.51495,8.454 Z M28.83105,6.46395 L30.95205,8.58495 L24.58905,14.94945 L22.46805,12.82845 L28.83105,6.46395 Z M10.3308,24.9342 L12.4518,27.0552 L8.7393,29.7072 L7.6788,28.6467 L10.3308,24.9342 Z M10.89105,26.52495 L23.52855,13.88895"/>
</svg>
