<svg xmlns="http://www.w3.org/2000/svg" width="36" height="36" viewBox="0 0 36 36">
  <path fill="none" stroke="#000" stroke-width="1.5" d="M7.5,9.74295 C9.567,9.74295 11.25,11.42595 11.25,13.49295 C11.25,15.55995 9.567,17.24295 7.5,17.24295 C5.433,17.24295 3.75,15.55995 3.75,13.49295 C3.75,11.42595 5.433,9.74295 7.5,9.74295 M7.5,13.5003 L11.25,6.7503 L17.25,6.7503 L18,9.0003 M9,5.2503 L12,5.2503 M15,3.7503 L17.25,3.7503 L17.25,6.7503 M29.25,16.49295 C29.25,17.73645 28.242,18.74295 27,18.74295 C25.758,18.74295 24.75,17.73645 24.75,16.49295 C24.75,15.25095 25.758,14.24295 27,14.24295 C28.242,14.24295 29.25,15.25095 29.25,16.49295 Z M20.1123,17.2503 L24.8898,17.2503 M21.75,11.2503 L27,11.2503 M29.1108,17.2503 L32.2503,17.2503 L32.2503,17.2428 L32.2503,12.7548 C32.2503,11.9268 31.5798,11.2548 30.7503,11.2548 L27.0003,11.2503 L24.6483,7.7028 M16.27515,17.92935 C16.68765,18.42735 17.30265,18.74985 18.00015,18.74985 C19.24365,18.74985 20.25015,17.74185 20.25015,16.49985 C20.25015,15.64335 19.76565,14.90685 19.06065,14.52735 M25.5117,3.0003 L11.9997,19.5003 M13.29195,25.542 L6.18945,20.58 C5.54295,20.0625 4.59945,20.1645 4.08045,20.811 C3.56145,21.456 3.66495,22.401 4.31145,22.92 L13.19895,30.75 L19.11345,30.75 L20.62545,32.25 L31.80045,32.25 L24.25845,24.654 C22.55295,23.013 20.38245,21.792 18.16395,21.75 L15.00045,21.75 C12.02295,21.75 11.95245,26.25 15.00045,26.25 L18.00045,26.25"/>
</svg>
