<svg xmlns="http://www.w3.org/2000/svg" width="36" height="36" viewBox="0 0 36 36">
  <path fill="none" stroke="#000" stroke-width="1.5" d="M23.25,13.49295 C23.25,14.73645 22.242,15.74295 21,15.74295 C19.758,15.74295 18.75,14.73645 18.75,13.49295 C18.75,12.25095 19.758,11.24295 21,11.24295 C22.242,11.24295 23.25,12.25095 23.25,13.49295 Z M14.25,13.5003 C14.25,14.7423 13.2435,15.7503 12,15.7503 C10.7565,15.7503 9.75,14.7423 9.75,13.5003 C9.75,12.2568 10.7565,11.2503 12,11.2503 C13.2435,11.2503 14.25,12.2568 14.25,13.5003 Z M23.1108,14.2503 L26.2503,14.2503 L26.2503,14.2428 L26.2503,9.7548 C26.2503,8.9268 25.5798,8.2548 24.7503,8.2548 L21.0003,8.2503 L18.4578,4.4148 C18.1803,3.9963 17.7528,3.7503 17.2503,3.7503 L11.7933,3.7503 C11.4423,3.7503 11.1018,3.8673 10.8318,4.0923 L7.2888,7.0503 C6.9468,7.3353 6.7503,7.7568 6.7503,8.2023 L6.7503,14.2503 L9.8883,14.2503 M6.75,8.2503 L21,8.2503 M12.75,3.7503 L12.75,8.2503 M14.1123,14.2503 L18.8898,14.2503 M13.29195,25.542 L6.18945,20.58 C5.54295,20.0625 4.59945,20.1645 4.08045,20.811 C3.56145,21.456 3.66495,22.401 4.31145,22.92 L13.19895,30.75 L19.11345,30.75 L20.62545,32.25 L31.80045,32.25 L24.25845,24.654 C22.55295,23.013 20.38245,21.792 18.16395,21.75 L15.00045,21.75 C12.02295,21.75 11.95245,26.25 15.00045,26.25 L18.00045,26.25"/>
</svg>
