<svg xmlns="http://www.w3.org/2000/svg" width="36" height="36" viewBox="0 0 36 36">
  <path fill="none" stroke="#000" stroke-width="1.5" d="M13.29195,25.542 L6.18945,20.58 C5.54295,20.0625 4.59945,20.1645 4.08045,20.811 C3.56145,21.456 3.66495,22.401 4.31145,22.92 L13.19895,30.75 L19.11345,30.75 L20.62545,32.25 L31.80045,32.25 L24.25845,24.654 C22.55295,23.013 20.38245,21.792 18.16395,21.75 L15.00045,21.75 C12.02295,21.75 11.95245,26.25 15.00045,26.25 L18.00045,26.25 M9,9.74295 C11.067,9.74295 12.75,11.42595 12.75,13.49295 C12.75,15.55995 11.067,17.24295 9,17.24295 C6.933,17.24295 5.25,15.55995 5.25,13.49295 C5.25,11.42595 6.933,9.74295 9,9.74295 M21,9.7503 C23.0685,9.7503 24.75,11.4318 24.75,13.5003 C24.75,15.5673 23.0685,17.2503 21,17.2503 C18.933,17.2503 17.25,15.5673 17.25,13.5003 C17.25,11.4318 18.933,9.7503 21,9.7503 M9,13.5003 L12.75,6.7503 L18.75,6.7503 L21,13.4928 M10.5,5.2503 L13.5,5.2503 M16.5,3.7503 L18.75,3.7503 L18.75,6.7503"/>
</svg>
