<svg xmlns="http://www.w3.org/2000/svg" width="36" height="36" viewBox="0 0 36 36">
  <path fill="none" stroke="#000" stroke-width="1.5" d="M18,3.75 C19.242,3.75 20.25,4.7565 20.25,6 C20.25,7.2435 19.242,8.25 18,8.25 C16.758,8.25 15.75,7.2435 15.75,6 C15.75,4.7565 16.758,3.75 18,3.75 Z M15.75,21.75 L15.75,33 M20.25,21.75 L20.25,33 M21.75,21.75 L14.25,21.75 L14.25,21.7485 L14.25,11.25 L21.75,11.25 L21.75,21.7485 L21.75,21.75 Z M31.4985,12 L29.25,11.25 L26.25,15.75 L22.5,11.25 L21.75,11.25 M4.50225,12 L6.75075,11.25 L9.75075,15.75 L13.50075,11.25 L14.25075,11.25"/>
</svg>
