<svg xmlns="http://www.w3.org/2000/svg" width="36" height="36" viewBox="0 0 36 36">
  <path fill="none" stroke="#000" stroke-width="1.5" d="M32.25,21.75 L3.75,21.75 L5.292,15.4185 C5.6745,13.8495 7.047,12.75 8.622,12.75 L27.378,12.75 C28.953,12.75 30.3255,13.8495 30.708,15.4185 L32.25,21.75 Z M4.5,18.75 L8.25,18.75 L8.25,15.75 L5.2125,15.75 M31.5,18.75 L27.75,18.75 L27.75,15.75 L30.7875,15.75 M11.25,22.5 C11.25,22.914 10.914,23.25 10.5,23.25 C10.086,23.25 9.75,22.914 9.75,22.5 C9.75,22.086 10.086,21.75 10.5,21.75 C10.914,21.75 11.25,22.086 11.25,22.5 Z M6.75,22.5 C6.75,22.914 6.414,23.25 6,23.25 C5.586,23.25 5.25,22.914 5.25,22.5 C5.25,22.086 5.586,21.75 6,21.75 C6.414,21.75 6.75,22.086 6.75,22.5 Z M30.75,22.5 C30.75,22.914 30.414,23.25 30,23.25 C29.586,23.25 29.25,22.914 29.25,22.5 C29.25,22.086 29.586,21.75 30,21.75 C30.414,21.75 30.75,22.086 30.75,22.5 Z M26.25,22.5 C26.25,22.914 25.914,23.25 25.5,23.25 C25.086,23.25 24.75,22.914 24.75,22.5 C24.75,22.086 25.086,21.75 25.5,21.75 C25.914,21.75 26.25,22.086 26.25,22.5 Z M12,15.75 L24,15.75 M12,18.75 L24,18.75"/>
</svg>
