<svg xmlns="http://www.w3.org/2000/svg" width="36" height="36" viewBox="0 0 36 36">
  <path fill="none" stroke="#000" stroke-width="1.5" d="M21.75,22.5 C21.75,26.2275 18.7275,29.25 15,29.25 C11.2725,29.25 8.25,26.2275 8.25,22.5 C8.25,18.7725 11.2725,15.75 15,15.75 C18.7275,15.75 21.75,18.7725 21.75,22.5 Z M29.25,12 C29.25,14.0715 27.5715,15.75 25.5,15.75 C23.4285,15.75 21.75,14.0715 21.75,12 C21.75,9.9285 23.4285,8.25 25.5,8.25 C27.5715,8.25 29.25,9.9285 29.25,12 Z M15.75,10.5 C15.75,11.7435 14.7435,12.75 13.5,12.75 C12.2565,12.75 11.25,11.7435 11.25,10.5 C11.25,9.2565 12.2565,8.25 13.5,8.25 C14.7435,8.25 15.75,9.2565 15.75,10.5 Z M5.532,20.16795 L8.4705,8.98845 L5.532,20.16795 Z M23.1435,27.86295 L31.14,15.71445 L23.1435,27.86295 Z M25.5,5.25045 C29.2275,5.25045 32.25,8.27145 32.25,12.00045 C32.25,13.37145 31.842,14.64795 31.1385,15.71295 M23.145,27.86295 C21.4005,30.50595 18.4035,32.25045 15,32.25045 C9.615,32.25045 5.25,27.88545 5.25,22.50045 C5.25,21.58395 5.376,20.69895 5.613,19.86195 M8.4705,8.98845 C9.045,6.80445 11.1255,5.25045 13.5,5.25045 M25.5,5.25045 L13.5,5.25045 L25.5,5.25045 Z M18.75,22.5 C18.75,24.5715 17.0715,26.25 15,26.25 C12.9285,26.25 11.25,24.5715 11.25,22.5 C11.25,20.4285 12.9285,18.75 15,18.75 C17.0715,18.75 18.75,20.4285 18.75,22.5 Z"/>
</svg>
