<svg xmlns="http://www.w3.org/2000/svg" width="36" height="36" viewBox="0 0 36 36">
  <path fill="none" stroke="#000" stroke-width="1.5" d="M3.75,17.25 L11.25,17.25 L11.25,9.75 L3.75,9.75 L3.75,17.25 Z M14.25,17.25 L21.75,17.25 L21.75,9.75 L14.25,9.75 L14.25,17.25 Z M24.75,17.25 L32.25,17.25 L32.25,9.75 L24.75,9.75 L24.75,17.25 Z M3.75,27.75 L11.25,27.75 L11.25,20.25 L3.75,20.25 L3.75,27.75 Z M14.25,27.75 L21.75,27.75 L21.75,20.25 L14.25,20.25 L14.25,27.75 Z M24.75,27.75 L32.25,27.75 L32.25,20.25 L24.75,20.25 L24.75,27.75 Z"/>
</svg>
