<svg xmlns="http://www.w3.org/2000/svg" width="36" height="36" viewBox="0 0 36 36">
  <path fill="none" stroke="#000" stroke-width="1.5" d="M5.25,15.75 L11.25,15.75 L11.25,6.75 L5.25,6.75 L5.25,15.75 Z M15.75,15.75 L21.75,15.75 L21.75,6.75 L15.75,6.75 L15.75,15.75 Z M26.25,15.75 L32.25,15.75 L32.25,6.75 L26.25,6.75 L26.25,15.75 Z M5.25,29.25 L11.25,29.25 L11.25,20.25 L5.25,20.25 L5.25,29.25 Z M15.75,29.25 L21.75,29.25 L21.75,20.25 L15.75,20.25 L15.75,29.25 Z M26.25,29.25 L32.25,29.25 L32.25,20.25 L26.25,20.25 L26.25,29.25 Z"/>
</svg>
