<svg xmlns="http://www.w3.org/2000/svg" width="36" height="36" viewBox="0 0 36 36">
  <path fill="none" stroke="#000" stroke-width="1.5" d="M17.25,9.75 L17.25,13.5 M24,11.5584 L22.125,14.8059 M28.94085,16.5 L25.69335,18.375 M10.5,11.5584 L12.375,14.8059 M5.5584,16.5 L8.8059,18.375 M11.4162,17.4162 L15.1287,21.1287 M22.5,23.25 L30.75,23.25 C30.75,15.7935 24.7065,9.75 17.25,9.75 C9.7935,9.75 3.75,15.7935 3.75,23.25 L12,23.25 M20.25,23.25 C20.25,24.906 18.906,26.25 17.25,26.25 C15.594,26.25 14.25,24.906 14.25,23.25 C14.25,21.594 15.594,20.25 17.25,20.25 C18.906,20.25 20.25,21.594 20.25,23.25 Z"/>
</svg>
