<svg xmlns="http://www.w3.org/2000/svg" width="36" height="36" viewBox="0 0 36 36">
  <path fill="none" stroke="#000" stroke-width="1.5" d="M11.25,21.74955 C12.906,21.74955 14.25,23.09355 14.25,24.74955 C14.25,26.40555 12.906,27.74955 11.25,27.74955 C9.594,27.74955 8.25,26.40555 8.25,24.74955 C8.25,23.09355 9.594,21.74955 11.25,21.74955 Z M24.75,8.24955 C26.406,8.24955 27.75,9.59355 27.75,11.24955 C27.75,12.90555 26.406,14.24955 24.75,14.24955 C23.094,14.24955 21.75,12.90555 21.75,11.24955 C21.75,9.59355 23.094,8.24955 24.75,8.24955 Z M3.75,32.25 L32.25,32.25 L32.25,3.75 L3.75,3.75 L3.75,32.25 Z M13.37115,22.62855 L22.62915,13.37055"/>
</svg>
