<svg xmlns="http://www.w3.org/2000/svg" width="36" height="36" viewBox="0 0 36 36">
  <path fill="none" stroke="#000" stroke-width="1.5" d="M27,21.75105 L22.5,21.75105 M24.75,24.00105 L24.75,19.50105 M27.75,32.25105 L8.25,32.25105 C6.594,32.25105 5.25,30.90705 5.25,29.25105 L5.25,18.75105 C5.25,17.09355 6.594,15.75105 8.25,15.75105 L27.75,15.75105 C29.406,15.75105 30.75,17.09355 30.75,18.75105 L30.75,29.25105 C30.75,30.90705 29.406,32.25105 27.75,32.25105 Z M11.25,24.75105 C9.2145,25.54605 8.25,27.00105 8.25,29.25105 L17.25,29.25105 C17.25,27.00105 16.2855,25.53855 14.25,24.75105 L11.25,24.75105 Z M12.75,18.75105 C14.406,18.75105 15.75,20.09505 15.75,21.75105 C15.75,23.40705 14.406,24.75105 12.75,24.75105 C11.094,24.75105 9.75,23.40705 9.75,21.75105 C9.75,20.09505 11.094,18.75105 12.75,18.75105 Z M14.28735,12.78765 C15.23835,11.83815 16.55085,11.25015 17.99985,11.25015 C19.44885,11.25015 20.76285,11.83815 21.71235,12.78765 M12.1662,10.66665 C13.6602,9.17265 15.7227,8.25015 17.9997,8.25015 C20.2782,8.25015 22.3407,9.17265 23.8332,10.66665 M10.0452,8.54475 C12.0807,6.50925 14.8932,5.25075 17.9997,5.25075 C21.1077,5.25075 23.9202,6.50925 25.9557,8.54475"/>
</svg>
