<svg xmlns="http://www.w3.org/2000/svg" width="36" height="36" viewBox="0 0 36 36">
  <path fill="none" stroke="#000" stroke-width="1.5" d="M27,15.75105 L22.5,15.75105 M24.75,18.00105 L24.75,13.50105 M11.25,18.7503 C9.2145,19.5453 8.25,21.0003 8.25,23.2503 L17.25,23.2503 C17.25,21.0003 16.2855,19.5378 14.25,18.7503 L11.25,18.7503 Z M6,7.5003 L28.5,30.0003 M11.51955,13.01985 C10.47855,13.48935 9.74955,14.53335 9.74955,15.74985 C9.74955,17.40735 11.09355,18.74985 12.74955,18.74985 C13.96755,18.74985 15.01005,18.02235 15.48105,16.97985 M12,9.7503 L27.75,9.7503 C29.406,9.7503 30.75,11.0928 30.75,12.7503 L30.75,23.2503 C30.75,24.6768 29.7525,25.8648 28.419,26.1693 M8.25,9.7503 C6.594,9.7503 5.25,11.0928 5.25,12.7503 L5.25,23.2503 C5.25,24.9063 6.594,26.2503 8.25,26.2503 L24.75,26.2503"/>
</svg>
