<svg xmlns="http://www.w3.org/2000/svg" width="36" height="36" viewBox="0 0 36 36">
  <path fill="none" stroke="#000" stroke-width="1.5" d="M12,6 L24,28.5 M24,6 L12,28.5 M9.75,7.5 L9.75,9 M9.75,4.5 L9.75,6 M9.75,10.5 L9.75,12 M9.75,13.5 L9.75,15 M9.75,16.5 L9.75,18 M9.75,19.5 L9.75,21 M9.75,22.5 L9.75,24 M9.75,25.5 L9.75,27 M9.75,28.5 L9.75,30 M26.25,7.5 L26.25,9 M26.25,4.5 L26.25,6 M26.25,10.5 L26.25,12 M26.25,13.5 L26.25,15 M26.25,16.5 L26.25,18 M26.25,19.5 L26.25,21 M26.25,22.5 L26.25,24 M26.25,25.5 L26.25,27 M26.25,28.5 L26.25,30"/>
</svg>
