<svg xmlns="http://www.w3.org/2000/svg" width="36" height="36" viewBox="0 0 36 36">
  <path fill="none" stroke="#000" stroke-width="1.5" d="M22.5,16.5 C22.5,19.4115 20.5125,21.75 18,21.75 C15.4875,21.75 13.5,19.4115 13.5,16.5 C13.5,13.5885 15.4875,11.25 18,11.25 C20.5125,11.25 22.5,13.5885 22.5,16.5 Z M15.1443,20.5722 C10.8738,22.4502 8.2503,27.0462 8.2503,32.2497 L27.7503,32.2497 C27.7503,27.6687 25.6728,22.6932 20.8878,20.5422 M20.40675,8.80365 C20.86275,6.96615 22.26675,5.25015 24.00075,5.25015 C26.12025,5.25015 27.75075,7.28565 27.75075,9.74265 C27.75075,11.94915 26.45175,13.82865 24.64875,14.18715 M11.21625,14.15925 C9.48375,13.73325 8.24925,11.89275 8.24925,9.74325 C8.24925,7.28475 9.87975,5.25075 11.99925,5.25075 C13.72275,5.25075 15.12225,6.98175 15.58575,8.80425 M24.56685,23.2485 L32.25135,23.2485 C32.25135,19.2315 30.67935,15.018 26.48085,13.131 M9.5376,13.15215 C5.7561,14.81565 3.7191,18.67965 3.7191,23.28465 L11.4066,23.28465 M12.75,18.75 L10.5,18.75 C10.137,18.75 9.75,18.4125 9.75,18 L9.75,15.009 C9.75,14.5995 10.1295,14.25 10.5,14.25 L12.75,14.25 L12.75,18.75 Z M18,18.75 L25.5,18.75 C25.9395,18.75 26.25,18.4815 26.25,18 L26.25,15 C26.25,14.577 26.0175,14.25 25.5,14.25 L23.25,14.25 L23.25,18.75 M11.1972,14.25 C12.8292,6.252 23.4447,6.5625 24.6597,14.25"/>
</svg>
