<svg xmlns="http://www.w3.org/2000/svg" width="36" height="36" viewBox="0 0 36 36">
  <path fill="none" stroke="#000" stroke-width="1.5" d="M29.25,21 C29.25,27.2145 24.2145,32.25 18,32.25 C11.787,32.25 6.75,27.2145 6.75,21 C6.75,14.787 11.787,9.75 18,9.75 C24.2145,9.75 29.25,14.787 29.25,21 Z M29.25,3 L29.25,7.5 M26.25,21 C26.25,25.5555 22.5555,29.25 18,29.25 C13.443,29.25 9.75,25.5555 9.75,21 C9.75,16.443 13.443,12.75 18,12.75 C22.5555,12.75 26.25,16.443 26.25,21 Z M20.25,21 C20.25,22.242 19.2435,23.25 18,23.25 C16.7565,23.25 15.75,22.242 15.75,21 C15.75,19.758 16.7565,18.75 18,18.75 C19.2435,18.75 20.25,19.758 20.25,21 Z M6.75,3 L6.75,7.5 M25.5,5.25 L29.25,5.25 M12,5.25 L15,5.25 M16.5,5.25 L19.5,5.25 M21,5.25 L24,5.25 M6.75,5.25 L10.5,5.25"/>
</svg>
