<svg xmlns="http://www.w3.org/2000/svg" width="48" height="48" viewBox="0 0 48 48"><path fill="none" stroke="#000" d="M41.4879,24.4931 C39.9339,22.1931 32.6129,12.4931 23.7379,12.4931 C14.8629,12.4931 8.2629,21.9631 6.4879,24.4931 C8.0419,26.7931 14.8629,35.4931 23.7379,35.4931 C32.6129,35.4931 39.7129,27.0231 41.4879,24.4931 Z M31.4879,23.9931 C31.4879,19.8511 28.1299,16.4931 23.9879,16.4931 C19.8459,16.4931 16.4879,19.8511 16.4879,23.9931 C16.4879,28.1351 19.8459,31.4931 23.9879,31.4931 C28.1299,31.4931 31.4879,28.1351 31.4879,23.9931 Z M20.7179,22.7731 C20.9779,23.2031 21.4479,23.4931 21.9879,23.4931 C22.8079,23.4931 23.4879,22.8131 23.4879,21.9931 C23.4879,21.4531 23.1979,20.9731 22.7679,20.7231 C22.8279,20.6931 22.8879,20.6731 22.9579,20.6531 C23.2679,20.5431 23.6179,20.4931 23.9879,20.4931 C25.9079,20.4931 27.4879,22.0631 27.4879,23.9931 C27.4879,25.9131 25.9079,27.4931 23.9879,27.4931 C22.0679,27.4931 20.4879,25.9131 20.4879,23.9931 C20.4879,23.6231 20.5379,23.2731 20.6479,22.9631 C20.6679,22.8931 20.6879,22.8331 20.7179,22.7731 Z M41.1,18.38 L38.5,20.72 M37.2,14.61 L34.96,17.29 M32.57,11.43 L30.91,14.49 M27,9.35 L26.31,12.76 M21.41,12.71 L20.78,9.29 M16.79,14.4 L15.12,11.35 M12.78,17.25 L10.49,14.62 M9.33,20.77 L6.67,18.5"/></svg>