<svg xmlns="http://www.w3.org/2000/svg" width="48" height="48" viewBox="0 0 48 48"><path fill="none" stroke="#000" d="M3,2 L46,45 M41.1,18.38 L38.5,20.72 M37.2,14.61 L34.96,17.29 M32.57,11.43 L30.91,14.49 M27,9.35 L26.31,12.76 M21.41,12.71 L20.78,9.29 M12.78,17.25 L10.49,14.62 M9.33,20.77 L6.67,18.5 M29.7698,28.7698 C28.3938,30.4328 26.3148,31.4928 23.9878,31.4928 C19.8458,31.4928 16.4878,28.1348 16.4878,23.9928 C16.4878,21.6658 17.5478,19.5868 19.2108,18.2108 M15.9227,14.9227 C11.0997,17.9067 7.6877,22.7827 6.4877,24.4927 C8.0417,26.7927 14.8627,35.4927 23.7377,35.4927 C27.2987,35.4927 30.5657,34.1217 33.3257,32.3257 M23.4191,22.4191 C23.2341,23.0381 22.6671,23.4931 21.9881,23.4931 C21.4491,23.4931 20.9811,23.2071 20.7161,22.7811 C20.5761,23.1601 20.4881,23.5651 20.4881,23.9931 C20.4881,25.9261 22.0551,27.4931 23.9881,27.4931 C25.2121,27.4931 26.2861,26.8631 26.9111,25.9111 M20.9622,17.1337 C21.8882,16.7247 22.9102,16.4927 23.9882,16.4927 C28.1302,16.4927 31.4882,19.8507 31.4882,23.9927 C31.4882,25.0707 31.2562,26.0927 30.8472,27.0187 M34.9855,31.157 C38.2395,28.671 40.5735,25.796 41.4875,24.493 C39.9345,22.193 32.6125,12.493 23.7375,12.493 C21.5975,12.493 19.5925,13.052 17.7525,13.924 M24.359,20.5306 C25.991,20.7046 27.276,21.9896 27.45,23.6216"/></svg>