<svg xmlns="http://www.w3.org/2000/svg" width="48" height="48" viewBox="0 0 48 48"><path fill="none" stroke="#000" d="M8.5,44.5 L38.5,44.5 L38.5,18.5 L8.5,18.5 L8.5,44.5 Z M29.5,18.5 L29.5,9.5 C29.5,6.186 26.814,3.5 23.5,3.5 C20.186,3.5 17.5,6.186 17.5,9.5 L17.5,18.5 M27.5,18.5 L27.5,9.5 C27.5,7.291 25.709,5.5 23.5,5.5 C21.291,5.5 19.5,7.291 19.5,9.5 L19.5,18.5 M26.5,27.5 C26.5,25.659 24.841,24.205 22.936,24.551 C21.757,24.766 20.787,25.723 20.558,26.9 C20.256,28.459 21.163,29.841 22.5,30.316 L22.5,37.5 C22.5,38.052 22.948,38.5 23.5,38.5 L23.5,38.5 C24.052,38.5 24.5,38.052 24.5,37.5 L24.5,30.316 C25.663,29.903 26.5,28.804 26.5,27.5 Z"/></svg>