<svg xmlns="http://www.w3.org/2000/svg" width="48" height="48" viewBox="0 0 48 48"><path fill="none" stroke="#000" d="M8.5,44.5 L38.5,44.5 L38.5,18.5 L8.5,18.5 L8.5,44.5 Z M26.5,27.5 C26.5,25.659 24.841,24.205 22.936,24.551 C21.757,24.766 20.787,25.723 20.558,26.9 C20.256,28.459 21.163,29.841 22.5,30.316 L22.5,37.5 C22.5,38.052 22.948,38.5 23.5,38.5 L23.5,38.5 C24.052,38.5 24.5,38.052 24.5,37.5 L24.5,30.316 C25.663,29.903 26.5,28.804 26.5,27.5 Z M17.5,18.5 L17.5,9.5 C17.5,6.125 14.713,3.401 11.315,3.503 C8.032,3.601 5.5,6.466 5.5,9.752 L5.5,11.5 C5.5,12.052 5.948,12.5 6.5,12.5 L6.5,12.5 C7.052,12.5 7.5,12.052 7.5,11.5 L7.5,9.672 C7.5,7.583 9.027,5.717 11.107,5.519 C13.493,5.291 15.5,7.161 15.5,9.5 L15.459,18.5"/></svg>