<svg xmlns="http://www.w3.org/2000/svg" width="48" height="48" version="1.1" viewBox="0 0 48 48">
  <path fill="none" fill-rule="evenodd" stroke="#000" stroke-width="2" d="M26.92,20.9896 C26.948,20.9916 26.972,20.9996 27,20.9996 C29.21,20.9996 31,18.7616 31,15.9996 C31,13.2376 29.21,10.9996 27,10.9996 C25.062,10.9996 23.448,12.7216 23.08,15.0096 M5,37.9994 L5,30.9994 L12,30.9994 M6,30.9994 C8.79,38.0254 15.982,42.9994 24,42.9994 C34.494,42.9994 43,34.4934 43,23.9994 C43,13.5074 34.494,4.9994 24,4.9994 C13.506,4.9994 5,13.5074 5,23.9994 M30.4336,30.9994 L34.9996,30.9994 C34.9996,25.8514 32.4216,21.5414 28.9476,20.3414 M27,19.9994 C27,22.7614 25.208,24.9994 23,24.9994 C20.792,24.9994 19,22.7614 19,19.9994 C19,17.2374 20.792,14.9994 23,14.9994 C25.208,14.9994 27,17.2374 27,19.9994 Z M21.0528,24.3412 C17.5768,25.5412 15.0008,29.8512 15.0008,34.9992 L31.0008,34.9992 C31.0008,29.8512 28.4228,25.5412 24.9468,24.3412"/>
</svg>
