<svg xmlns="http://www.w3.org/2000/svg" width="48" height="48" version="1.1" viewBox="0 0 48 48">
  <path fill="none" fill-rule="evenodd" stroke="#1D1D1B" stroke-width="2" d="M27,24.0004 C27,22.3424 25.656,21.0004 24,21.0004 C22.344,21.0004 21,22.3424 21,24.0004 C21,25.6564 22.344,27.0004 24,27.0004 C25.656,27.0004 27,25.6564 27,24.0004 Z M24,17.0004 C18.66,17.0004 13.984,19.7984 11.326,24.0004 C13.984,28.2024 18.66,31.0004 24,31.0004 M24,30.9994 C29.34,30.9994 34.016,28.2034 36.674,23.9994 C34.016,19.7974 29.34,16.9994 24,16.9994 M5,37.9994 L5,30.9994 L12,30.9994 M6,30.9994 C8.79,38.0254 15.98,42.9994 24,42.9994 C34.494,42.9994 43,34.4934 43,23.9994 C43,13.5054 34.494,4.9994 24,4.9994 C13.506,4.9994 5,13.5054 5,23.9994"/>
</svg>
