<svg xmlns="http://www.w3.org/2000/svg" width="48" height="48" version="1.1" viewBox="0 0 48 48">
  <path fill="none" fill-rule="evenodd" stroke="#000" stroke-width="2" d="M14,41.0004 L34,41.0004 M23,41.0004 L23,33.0004 M25,33.0004 L25,41.0004 M21,29.0004 L10,29.0004 M27,25.5366 L32.5,16.0106 M35,29.0004 L40,29.0004 M33.6602,24.0004 L37.9902,21.5004 M25,19.0004 L25,14.0004 M20,20.3402 L17.5,16.0102 M16.3398,24.0004 L12.0098,21.5004 M34.168,32.9994 C34.698,31.7754 35,30.4274 35,28.9994 C35,23.4474 30.552,18.9994 25,18.9994 C19.448,18.9994 15,23.4474 15,28.9994 C15,30.4274 15.302,31.7754 15.834,32.9994 M21,29.0004 C21,26.7564 22.756,25.0004 25,25.0004 C27.244,25.0004 29,26.7564 29,29.0004 C29,31.2444 27.244,33.0004 25,33.0004 C22.756,33.0004 21,31.2444 21,29.0004 Z M5,33 L43,33 L43,11 L5,11 L5,33 Z"/>
</svg>
