<svg xmlns="http://www.w3.org/2000/svg" width="48" height="48" version="1.1" viewBox="0 0 48 48">
  <path fill="none" fill-rule="evenodd" stroke="#000" stroke-width="2" d="M5,33 L41,33 L41,7 L5,7 L5,33 Z M14,38.9994 L32,38.9994 M21,32.9994 L21,38.9994 M25,32.9994 L25,38.9994 M21,25.9994 C21,27.6574 20.104,28.9994 19,28.9994 C17.896,28.9994 17,27.6574 17,25.9994 C17,24.3434 17.896,22.9994 19,22.9994 C20.104,22.9994 21,24.3434 21,25.9994 Z M29,13.9994 C29,15.6574 28.106,16.9994 27,16.9994 C25.896,16.9994 25,15.6574 25,13.9994 C25,12.3434 25.896,10.9994 27,10.9994 C28.106,10.9994 29,12.3434 29,13.9994 Z M11,17.9994 L11,9.9994 M19,17.9994 L19,9.9994 M27,29.9994 L27,21.9994 M35,29.9994 L35,21.9994 M11,29.9994 L11,21.9994 M35,17.9994 L35,9.9994"/>
</svg>
