<svg xmlns="http://www.w3.org/2000/svg" width="48" height="48" version="1.1" viewBox="0 0 48 48">
  <path fill="none" fill-rule="evenodd" stroke="#000" stroke-width="2" d="M35,19 L11,19 M35,19 C35,12.374 29.626,7 23,7 C16.374,7 11,12.374 11,19 C11,25.626 16.374,31 23,31 C29.626,31 35,25.626 35,19 Z M33.3808,13 L12.6188,13 M33.3808,25 L12.6188,25 M25.1562,7.2032 C27.5062,10.0832 29.0002,14.2912 29.0002,18.9992 C29.0002,23.7072 27.5062,27.9172 25.1562,30.7972 M20.8438,30.7968 C18.4938,27.9188 16.9998,23.7088 16.9998,19.0008 C16.9998,14.2928 18.4938,10.0828 20.8438,7.2028 M23,7 L23,31 M37,39 L37,40 C37,41.656 35.656,43 34,43 C32.344,43 31,41.656 31,40 L31,39 M39,39 L9,39 L9,37 L9,35 L39,35 L39,39 Z M5,40 L5,34 M5,37 L9,37 M43,34 L43,40 M43,37 L39,37 M17,39 L17,40 C17,41.656 15.656,43 14,43 C12.344,43 11,41.656 11,40 L11,39"/>
</svg>
