<svg xmlns="http://www.w3.org/2000/svg" width="48" height="48" version="1.1" viewBox="0 0 48 48">
  <path fill="none" fill-rule="evenodd" stroke="#000" stroke-width="2" d="M37,39 L37,40 C37,41.656 35.656,43 34,43 C32.344,43 31,41.656 31,40 L31,39 M39,39 L9,39 L9,37 L9,35 L39,35 L39,39 Z M5,40 L5,34 M5,37 L9,37 M43,34 L43,40 M43,37 L39,37 M17,39 L17,40 C17,41.656 15.656,43 14,43 C12.344,43 11,41.656 11,40 L11,39 M26.3926,9 L24.5806,11.212 L17.8446,12.95 L16.5206,12.272 L12.1546,15.338 L14.1286,15.98 L8.9326,21.43 L7.0006,28.122 L10.8286,27.202 L12.5186,26.268 L16.5226,29.892 L22.1726,29.292 L25.4286,25.96 L29.2806,31 L32.0966,25.35 L38.6526,26.97 L38.2406,23.582 L41.0006,23.648 L40.7166,18.114 L38.3146,16.38 L37.5326,17.778 L34.3566,16.872 L35.5426,13.528 L28.8926,11.086 L26.3926,9 Z"/>
</svg>
