<svg xmlns="http://www.w3.org/2000/svg" width="48" height="48" version="1.1" viewBox="0 0 48 48">
  <path fill="none" fill-rule="evenodd" stroke="#000" stroke-width="2" d="M33,42.9984 L33,24.9984 L23,20.9984 L13,24.9984 L13,42.9984 M29,23.3978 L29,16.9978 C29,13.6838 26.314,10.9978 23,10.9978 C19.686,10.9978 17,13.6838 17,16.9978 L17,23.3978 M17,16.9984 L29,16.9984 M4,42.9984 L42,42.9984 M13,26.9984 L33,26.9984 M29.002,42.9994 L29,30.9994 M17,42.9984 L17,30.9984 M23,6.9974 L27,6.9974 L27,4.9974 L23,4.9974 L23,10.9974 M25,42.9984 L24.996,36.9984 C24.996,35.8944 24.102,34.9984 22.998,34.9984 C21.892,34.9984 20.998,35.8944 20.998,36.9984 L21,42.9984 M7,42.9974 L7,30.9974 L39,30.9974 L39,42.9974"/>
</svg>
