<svg xmlns="http://www.w3.org/2000/svg" width="48" height="48" version="1.1" viewBox="0 0 48 48">
  <g fill="none" fill-rule="evenodd" stroke="none" stroke-width="1">
    <path stroke="#000" stroke-width="2" d="M11,43 L37,43 L37,5 L11,5 L11,43 Z M16,31 L32,31 M16,35 L32,35"/>
    <path fill="#000" d="M21.5,18.0888 C21.328,18.1868 21.138,18.2488 20.944,18.2748 C20.594,18.3228 20.242,18.3428 19.89,18.3368 L17.846,18.3368 L17.846,15.6868 L20.226,15.6868 C20.554,15.6788 20.88,15.7088 21.202,15.7768 C21.388,15.8228 21.562,15.9148 21.708,16.0428 C21.95,16.2928 22.076,16.6328 22.052,16.9788 C22.098,17.4248 21.882,17.8568 21.5,18.0888 L21.5,18.0888 Z M24.07,23.3928 C24.026,23.3428 23.874,23.1028 23.78,22.0688 L23.78,22.0708 C23.692,21.1228 23.634,20.6128 23.596,20.4128 C23.538,20.1528 23.43,19.9088 23.28,19.6908 C23.14,19.4748 22.956,19.2928 22.74,19.1568 C23.014,18.9828 23.252,18.7568 23.438,18.4928 C23.758,18.0128 23.92,17.4468 23.904,16.8708 C23.91,16.3848 23.798,15.9048 23.576,15.4728 C23.354,15.0548 23.024,14.7068 22.622,14.4628 C22.004,14.1288 21.306,13.9708 20.606,14.0048 L16,14.0048 L16,24.0268 L17.846,24.0268 L17.846,19.9428 L20.028,19.9428 C20.492,19.8988 20.958,19.9828 21.378,20.1828 C21.71,20.3988 21.912,20.9888 21.958,21.8868 C21.994,22.6448 22.026,23.0748 22.056,23.2728 C22.086,23.4968 22.166,23.7108 22.292,23.8988 L22.38,24.0268 L24.624,24.0268 L24.07,23.3928 Z M31.0704,14.004 L28.5544,21.512 L26.0504,14.004 L24.0284,14.004 L27.5364,23.828 L27.6104,24.028 L29.4484,24.028 L33.0344,14.004 L31.0704,14.004 Z"/>
  </g>
</svg>
