<svg xmlns="http://www.w3.org/2000/svg" width="48" height="48" version="1.1" viewBox="0 0 48 48">
  <g fill="none" fill-rule="evenodd" stroke="none" stroke-width="1">
    <path stroke="#000" stroke-width="2" d="M11,43 L39,43 L39,5 L11,5 L11,43 Z M16,31 L34,31 M16,35 L34,35"/>
    <path fill="#000" d="M20.4492,15.875 L20.4492,18.705 L22.4492,18.705 C23.0432,18.705 23.4712,18.603 23.7332,18.397 C24.0572,18.143 24.2172,17.767 24.2172,17.269 C24.2172,16.769 24.0292,16.395 23.6572,16.149 C23.3852,15.965 22.9432,15.875 22.3292,15.875 L20.4492,15.875 Z M18.2112,14.029 L22.3512,14.029 C23.0472,14.029 23.5972,14.071 23.9952,14.157 C24.3972,14.241 24.7572,14.389 25.0792,14.603 C25.9732,15.187 26.4192,16.067 26.4192,17.243 C26.4192,18.287 26.0512,19.107 25.3112,19.703 C24.9972,19.959 24.6392,20.141 24.2392,20.253 C23.8372,20.365 23.3412,20.421 22.7512,20.421 L20.4492,20.421 L20.4492,24.023 L18.2112,24.023 L18.2112,14.029 Z M36,14.0292 L32.59,24.0232 L30.042,24.0232 L26.682,14.0292 L29.026,14.0292 L31.332,21.5152 L33.676,14.0292 L36,14.0292 Z M14,24.024 L16.238,24.024 L16.238,14.03 L14,14.03 L14,24.024 Z"/>
  </g>
</svg>
