<svg xmlns="http://www.w3.org/2000/svg" width="24" height="24" viewBox="0 0 24 24"><path fill="none" stroke="#000" d="M18,5.5 L13,5.5 M18,7.5 L13,7.5 M18,9.5 L13,9.5 M18,13.5 L6,13.5 M18,15.5 L6,15.5 M8.0164,18.5077 L6.0164,18.5077 M12.0164,18.5077 L10.0164,18.5077 M16.0164,18.5077 L14.0164,18.5077 M4.5,21.5 L19.5,21.5 L19.5,2.5 L4.5,2.5 L4.5,21.5 Z M10.25,6 C10.25,6.828 9.69,7.5 9,7.5 C8.31,7.5 7.75,6.828 7.75,6 C7.75,5.172 8.31,4.5 9,4.5 C9.69,4.5 10.25,5.172 10.25,6 Z M6.5,11 C6.5,9.31 7.422,7.856 8.542,7.396 M9.4544,7.394 C10.5744,7.854 11.5004,9.31 11.5004,11"/></svg>