<svg xmlns="http://www.w3.org/2000/svg" width="36" height="36" viewBox="0 0 36 36"><path fill="none" stroke="#000" d="M9.75,3.75 L27.75,3.75 C28.578,3.75 29.25,4.422 29.25,5.25 L29.25,30.75 C29.25,31.578 28.578,32.25 27.75,32.25 L9.75,32.25 C8.922,32.25 8.25,31.578 8.25,30.75 L8.25,5.25 C8.25,4.422 8.922,3.75 9.75,3.75 Z M11.25,11.25 L26.25,11.25 L26.25,6.75 L11.25,6.75 L11.25,11.25 Z M14.25,15.75 C14.25,16.578 13.578,17.25 12.75,17.25 C11.922,17.25 11.25,16.578 11.25,15.75 C11.25,14.922 11.922,14.25 12.75,14.25 C13.578,14.25 14.25,14.922 14.25,15.75 Z M20.25,15.75 C20.25,16.578 19.578,17.25 18.75,17.25 C17.922,17.25 17.25,16.578 17.25,15.75 C17.25,14.922 17.922,14.25 18.75,14.25 C19.578,14.25 20.25,14.922 20.25,15.75 Z M26.25,15.75 C26.25,16.578 25.578,17.25 24.75,17.25 C23.922,17.25 23.25,16.578 23.25,15.75 C23.25,14.922 23.922,14.25 24.75,14.25 C25.578,14.25 26.25,14.922 26.25,15.75 Z M14.25,21.75 C14.25,22.578 13.578,23.25 12.75,23.25 C11.922,23.25 11.25,22.578 11.25,21.75 C11.25,20.922 11.922,20.25 12.75,20.25 C13.578,20.25 14.25,20.922 14.25,21.75 Z M20.25,21.75 C20.25,22.578 19.578,23.25 18.75,23.25 C17.922,23.25 17.25,22.578 17.25,21.75 C17.25,20.922 17.922,20.25 18.75,20.25 C19.578,20.25 20.25,20.922 20.25,21.75 Z M14.25,27.75 C14.25,28.578 13.578,29.25 12.75,29.25 C11.922,29.25 11.25,28.578 11.25,27.75 C11.25,26.922 11.922,26.25 12.75,26.25 C13.578,26.25 14.25,26.922 14.25,27.75 Z M20.25,27.75 C20.25,28.578 19.578,29.25 18.75,29.25 C17.922,29.25 17.25,28.578 17.25,27.75 C17.25,26.922 17.922,26.25 18.75,26.25 C19.578,26.25 20.25,26.922 20.25,27.75 Z M24.75,20.25 L24.75,20.25 C25.578,20.25 26.25,20.922 26.25,21.75 L26.25,27.75 C26.25,28.578 25.578,29.25 24.75,29.25 L24.75,29.25 C23.922,29.25 23.25,28.578 23.25,27.75 L23.25,21.75 C23.25,20.922 23.922,20.25 24.75,20.25 Z"/></svg>