<svg xmlns="http://www.w3.org/2000/svg" width="36" height="36" viewBox="0 0 36 36"><path fill="none" stroke="#000" d="M30.75,11.25 L5.25,11.25 C4.422,11.25 3.75,10.578 3.75,9.75 L3.75,5.25 C3.75,4.422 4.422,3.75 5.25,3.75 L30.75,3.75 C31.578,3.75 32.25,4.422 32.25,5.25 L32.25,9.75 C32.25,10.578 31.578,11.25 30.75,11.25 Z M30.75,27.75 L30.75,11.25 M5.25,11.25 L5.25,27.75 M32.25,30.75 L32.25,29.25 C32.25,28.422 31.578,27.75 30.75,27.75 L5.25,27.75 C4.422,27.75 3.75,28.422 3.75,29.25 L3.75,30.75 C3.75,31.578 4.422,32.25 5.25,32.25 L30.75,32.25 C31.578,32.25 32.25,31.578 32.25,30.75 Z M28.5,6.75 L24,6.75 M14.25,11.25 L14.25,15.75 L21.75,15.75 L21.75,11.25 M19.7382,27.75 C21.6777,27.75 23.2497,26.178 23.2497,24.2385 L23.2497,20.25 L12.7497,20.25 L12.7497,24.243 C12.7497,26.1795 14.3202,27.75 16.2567,27.75 M15.75,15.75 L15.75,18 M20.25,15.75 L20.25,18 M23.1984,24.75 L25.0269,24.75 C25.7019,24.75 26.2494,24.2025 26.2494,23.526 L26.2494,22.9695 C26.2494,22.296 25.7034,21.75 25.0299,21.75 L23.2494,21.75"/></svg>