<svg xmlns="http://www.w3.org/2000/svg" width="48" height="48" viewBox="0 0 48 48">
  <g fill="none" fill-rule="evenodd">
    <path stroke="#000" stroke-width="2" d="M28,34.9994 C28,34.9994 25.86,36.9994 23,36.9994 C20.14,36.9994 18,34.9994 18,34.9994 M38,37.9994 L6,5.9994 M15.372,8.5444 C17.446,8.8284 20.102,9.0004 23,9.0004 C29.626,9.0004 35,8.1044 35,7.0004 C35,5.8944 29.626,5.0004 23,5.0004 C18.674,5.0004 14.894,5.3824 12.782,5.9544 M11,11.0004 L11,19.0004 C11,21.2084 16.374,23.0004 23,23.0004 M14.124,21.685 C14.73,24.119 18.452,26.001 23,26.001 C23.962,26.001 24.86,25.883 25.722,25.723 M11,22.8998 L11.99,31.9998 C11.99,31.9998 12.558,36.5318 15.018,38.7618 C17.794,41.2758 19.944,42.9338 23,42.9338 C26.056,42.9338 28.208,41.2758 30.982,38.7618 C32.488,37.3978 33.276,35.1898 33.668,33.6678 M34.4824,27.6538 L35.0004,22.8998 M30.5156,23.687 C31.2016,23.091 31.6936,22.419 31.8756,21.685 M29.2402,22.4116 C32.6902,21.7096 35.0002,20.4456 35.0002,18.9996 L35.0002,6.9996"/>
    <path fill="#000" d="M19,28.9994 C19.828,28.9994 20.5,29.6714 20.5,30.4994 C20.5,31.3274 19.828,31.9994 19,31.9994 C18.172,31.9994 17.5,31.3274 17.5,30.4994 C17.5,29.6714 18.172,28.9994 19,28.9994 Z M27,28.9994 C27.828,28.9994 28.5,29.6714 28.5,30.4994 C28.5,31.3274 27.828,31.9994 27,31.9994 C26.172,31.9994 25.5,31.3274 25.5,30.4994 C25.5,29.6714 26.172,28.9994 27,28.9994 Z M24,12.0004 L24,15.0004 L27.8,15.0004 L24.6,12.0004 L27,12.0004 L31,16.0004 L26.88,20.1204 L25.75,18.9224 L27.8,17.0004 L24,17.0004 L22,15.0004 L22,12.0004 L24,12.0004 Z M21.4002,12.0006 L20.0722,13.2446 L19.0002,12.0006 L21.4002,12.0006 Z"/>
  </g>
</svg>
