<svg xmlns="http://www.w3.org/2000/svg" width="48" height="48" viewBox="0 0 48 48">
  <path fill="none" stroke="#000" stroke-width="2" d="M37.0324,40.9994 C37.0324,35.3614 33.1804,30.4674 29.0744,27.9914 C27.8264,27.2234 26.9684,25.7214 26.9684,23.9994 C26.9684,22.2774 27.8264,20.7754 29.0744,20.0094 C33.1804,17.5334 37.0324,12.6374 37.0324,6.9994 L10.9684,6.9994 C10.9684,12.6374 14.8184,17.5334 18.9244,20.0094 C20.1724,20.7754 21.0324,22.2774 21.0324,23.9994 C21.0324,25.7214 20.1724,27.2234 18.9244,27.9914 C14.8184,30.4674 10.9684,35.3614 10.9684,40.9994 L37.0324,40.9994 Z M18.9278,15.0004 C19.5878,15.6144 20.2938,16.1544 21.0078,16.5864 L21.0138,16.5904 C22.3258,17.3984 23.3238,18.7724 23.9978,20.2624 C24.6698,18.7764 25.6618,17.4044 26.9678,16.6024 C27.6898,16.1644 28.4058,15.6184 29.0718,15.0004 L18.9278,15.0004 Z"/>
</svg>
