<svg xmlns="http://www.w3.org/2000/svg" width="48" height="48" viewBox="0 0 48 48">
  <path fill="none" stroke="#000" stroke-width="2" d="M18,14.9994 C19.68,14.9994 21,16.3194 21,17.9994 C21,19.6794 19.68,20.9994 18,20.9994 C16.32,20.9994 15,19.6794 15,17.9994 C15,16.3194 16.32,14.9994 18,14.9994 M26,27.0014 C27.68,27.0014 29,28.3194 29,30.0014 C29,31.6814 27.68,33.0014 26,33.0014 C24.32,33.0014 23,31.6814 23,30.0014 C23,28.3194 24.32,27.0014 26,27.0014 M30,16.0004 L14,32.0004 M7,11.0004 L34,11.0004 L41,24.0004 L34,37.0004 L7,37.0004 L7,11.0004 Z"/>
</svg>
