<svg xmlns="http://www.w3.org/2000/svg" width="48" height="48" viewBox="0 0 48 48">
  <g fill="none" fill-rule="evenodd" stroke="#000" stroke-width="2">
    <path d="M7,26.9994 C7,26.6634 7.01,26.3314 7.03,25.9994 M22,11.0308 C22.332,11.0108 22.664,11.0008 23,11.0008 M23,11.0004 C31.836,11.0004 39,18.1644 39,27.0004 C39,35.8364 31.836,43.0004 23,43.0004 C14.164,43.0004 7,35.8364 7,27.0004 M23,10.9994 L23,5.9994 M20,6.9994 L26,6.9994 M16,26.9994 L21,32.9994 L32,20.9994"/>
    <path stroke-dasharray="2 2" d="M7.2968,23.9154 C8.6068,17.2074 14.1068,12.0014 20.9588,11.1294"/>
  </g>
</svg>
