<svg xmlns="http://www.w3.org/2000/svg" width="48" height="48" viewBox="0 0 48 48">
  <g fill="none" fill-rule="evenodd">
    <path stroke="#000" stroke-width="2" d="M27.0906,11.4556 L25.0646,14.0696 L17.5366,16.1216 L16.0566,15.3216 L11.1766,18.9476 L13.3826,19.7056 L7.5766,26.1436 L5.4166,34.0516 L9.6966,32.9636 L11.5866,31.8636 L16.0606,36.1456 L22.3746,35.4376 L26.0126,31.4996 L30.3186,37.4556 L33.4666,30.7796 L40.7946,32.6936 L40.3306,28.6876 L43.4166,28.7656 L43.1006,22.2276 L40.4146,20.1756 L39.5426,21.8296 L35.9906,20.7576 L37.3166,16.8056 L29.8826,13.9196 L27.0906,11.4556 Z M18.4168,29.5034 L28.4168,19.5034"/>
    <path fill="#000" d="M18.42,27.5 C19.5245695,27.5 20.42,28.3954305 20.42,29.5 C20.42,30.6045695 19.5245695,31.5 18.42,31.5 C17.3154305,31.5 16.42,30.6045695 16.42,29.5 C16.42,28.3954305 17.3154305,27.5 18.42,27.5 Z M28.42,17.48 C29.5245695,17.48 30.42,18.3754305 30.42,19.48 C30.42,20.5845695 29.5245695,21.48 28.42,21.48 C27.3154305,21.48 26.42,20.5845695 26.42,19.48 C26.42,18.3754305 27.3154305,17.48 28.42,17.48 Z"/>
  </g>
</svg>
