<svg xmlns="http://www.w3.org/2000/svg" width="48" height="48" viewBox="0 0 48 48">
  <g fill="none" fill-rule="evenodd">
    <path stroke="#000" stroke-width="2" d="M31,40 L31,31 L29,27.186 L25,27.186 L25,33 L24,40 M29,17 L29,27.186 L25,27.186 L25,17 M21.0712,27.0704 L16.9512,37.2704 L13.2472,35.7584 L15.4952,30.1944 L19.1852,31.6984 M21.001,26 L21.001,21 L25.001,17 L29.001,17 L31.001,21 L34.001,25 M27,13 C25.934,13 25,12.066 25,11 C25,9.934 25.934,9 27,9 C28.066,9 29,9.934 29,11 C29,12.066 28.066,13 27,13 Z"/>
    <path fill="#000" d="M16.1894,38.1152 C16.3134,38.1152 16.4414,38.1392 16.5634,38.1872 C17.0754,38.3952 17.3234,38.9792 17.1154,39.4892 C16.9594,39.8792 16.5834,40.1152 16.1894,40.1152 C16.0654,40.1152 15.9374,40.0912 15.8154,40.0432 C15.3034,39.8352 15.0554,39.2512 15.2614,38.7392 C15.4194,38.3512 15.7934,38.1152 16.1894,38.1152 Z M12.4804,36.6172 C12.6044,36.6172 12.7324,36.6412 12.8544,36.6892 C13.3664,36.8972 13.6144,37.4792 13.4064,37.9912 C13.2504,38.3812 12.8764,38.6172 12.4804,38.6172 C12.3564,38.6172 12.2284,38.5932 12.1064,38.5432 C11.5944,38.3372 11.3464,37.7532 11.5524,37.2412 C11.7104,36.8532 12.0844,36.6172 12.4804,36.6172 Z"/>
  </g>
</svg>
