<svg xmlns="http://www.w3.org/2000/svg" width="48" height="48" viewBox="0 0 48 48">
  <path fill="none" stroke="#000" stroke-width="2" d="M29,39.9994 L29,30.9994 L25,26.9994 L21,26.9994 L21,32.9994 L17,38.9994 M25,16.9994 L25,26.9994 L21,26.9994 L21,16.9994 M23,12.9994 C21.934,12.9994 21,12.0674 21,10.9994 C21,9.9334 21.934,8.9994 23,8.9994 C24.066,8.9994 25,9.9334 25,10.9994 C25,12.0674 24.066,12.9994 23,12.9994 Z M15,27.9994 L15,20.9994 L21,16.9994 L25,16.9994 L29,20.9994 L34,20.9994"/>
</svg>
