<svg xmlns="http://www.w3.org/2000/svg" width="48" height="48" viewBox="0 0 48 48">
  <path fill="none" stroke="#000" stroke-width="2" d="M27.002,27.1856 L27.002,32.9996 L21.002,38.9996 M33.002,17 L31,27 L35.002,31 L33,40 M27.002,33 L27.002,27 L29.002,17 M21.001,28 L23.001,21 L29.001,17 L33.001,17 L37.001,21 L42.001,23 M29.002,17 L27.002,27 L31,27 L33.002,17 M18,19 L10,19 M16,27 L6,27 M20,33 L10,33 M24,13 L14,13 M30.9824,13 C29.9164,13 28.9824,12.066 28.9824,11 C28.9824,9.934 29.9164,9 30.9824,9 C32.0484,9 32.9824,9.934 32.9824,11 C32.9824,12.066 32.0484,13 30.9824,13 Z"/>
</svg>
