<svg xmlns="http://www.w3.org/2000/svg" width="48" height="48" viewBox="0 0 48 48">
  <path fill="none" stroke="#000" stroke-width="2" d="M13,15.9994 L13,26.9994 L23,26.9994 L23,37.9994 M9.3956,21.8656 C6.7936,23.1896 4.9996,25.8976 4.9996,29.0016 C4.9996,33.3976 8.6016,37.0016 12.9996,37.0016 C16.1856,37.0016 18.9556,35.1096 20.2376,32.3936 M35.0898,33.9956 L35.0898,37.9956 M35,29.9994 C35,27.0054 35.114,25.7394 37,23.5994 L40,20.5994 C43.472,16.7194 41.614,13.1454 39.05,11.7774 C34.924,9.7654 29,11.3834 29,17.9994 M14,12.0004 C14,12.5524 13.552,13.0004 13,13.0004 C12.448,13.0004 12,12.5524 12,12.0004 C12,11.4484 12.448,11.0004 13,11.0004 C13.552,11.0004 14,11.4484 14,12.0004 Z"/>
</svg>
