<svg xmlns="http://www.w3.org/2000/svg" width="48" height="48" viewBox="0 0 48 48">
  <path fill="none" stroke="#000" stroke-width="2" d="M17.4004,21.8608 C14.7984,23.1848 13.0044,25.8928 13.0044,28.9948 C13.0044,33.3948 16.6084,36.9948 21.0044,36.9948 C24.1904,36.9948 26.9604,35.1048 28.2444,32.3888 M9.4004,8.9994 C6.8004,12.5994 4.8004,17.3994 4.8004,23.9994 C4.8004,30.5994 6.8004,35.2014 9.4004,38.9994 M38.1992,38.9994 C40.8012,35.3994 42.8012,30.5994 42.8012,23.9994 C42.8012,17.3994 40.8012,12.7994 38.1992,8.9994 M21,15.9994 L21,26.9994 L31,26.9994 L31,37.9994 M22,12.0004 C22,12.5524 21.552,13.0004 21,13.0004 C20.448,13.0004 20,12.5524 20,12.0004 C20,11.4484 20.448,11.0004 21,11.0004 C21.552,11.0004 22,11.4484 22,12.0004 Z"/>
</svg>
