<svg xmlns="http://www.w3.org/2000/svg" width="48" height="48" viewBox="0 0 48 48"><path fill="none" stroke="#000" stroke-width="2" d="M36,11 L26,11 M36,15 L26,15 M36,19 L26,19 M36,27 L12,27 M36,31 L12,31 M16.0328,37.0154 L12.0328,37.0154 M24.0328,37.0154 L20.0328,37.0154 M32.0328,37.0154 L28.0328,37.0154 M9,43 L39,43 L39,5 L9,5 L9,43 Z M20.5,12 C20.5,13.656 19.38,15 18,15 C16.62,15 15.5,13.656 15.5,12 C15.5,10.344 16.62,9 18,9 C19.38,9 20.5,10.344 20.5,12 Z M13,22 C13,18.62 14.844,15.712 17.084,14.792 M18.9088,14.788 C21.1488,15.708 23.0008,18.62 23.0008,22"/></svg>