<svg xmlns="http://www.w3.org/2000/svg" width="48" height="48" viewBox="0 0 48 48"><path fill="none" stroke="#000" stroke-width="2" d="M17.723,34.0566 L8.251,27.4406 C7.391,26.7486 6.131,26.8866 5.441,27.7486 C4.749,28.6106 4.887,29.8686 5.749,30.5606 L17.601,41.0006 L25.485,41.0006 L27.501,43.0006 L42.401,43.0006 L32.343,32.8726 C30.071,30.6846 27.177,29.0566 24.219,29.0006 L20.001,29.0006 C16.031,29.0006 15.937,35.0006 20.001,35.0006 L24.001,35.0006 M7,12.5 L24,5 L41,12.5 L24,19 L7,12.5 Z M13,14.7942 L13,21.5102 C13,21.5102 16.558,25.0002 24.5,25.0002 C32.49,25.0002 35,21.5102 35,21.5102 L35,14.7942 M41,12.5 L41,22 M41,22 L39,26 M41,22 L43,26"/></svg>