<svg xmlns="http://www.w3.org/2000/svg" width="48" height="48" viewBox="0 0 48 48">
  <path fill="none" stroke="#000" stroke-width="2" d="M23,13 L23,19 M23,4 L23,9 M15.9296,15.9288 L20.1716,20.1728 M9.5644,9.5654 L13.1004,13.1014 M13,23 L19,23 M4,23 L9,23 M15.9296,30.0704 L20.1716,25.8284 M9.5644,36.4356 L13.1004,32.8996 M23,33 L23,27 M23,42 L23,37 M30.0704,30.0704 L25.8284,25.8284 M36.4356,36.4356 L32.8996,32.8996 M33,23 L27,23 M42,23 L37,23 M30.0704,15.9288 L25.8284,20.1728 M36.4356,9.5654 L32.8996,13.1014 M37,23 C37,15.268 30.732,9 23,9 C15.268,9 9,15.268 9,23 C9,30.732 15.268,37 23,37 C30.732,37 37,30.732 37,23 Z M33,23 C33,17.478 28.524,13 23,13 C17.476,13 13,17.478 13,23 C13,28.524 17.476,33 23,33 C28.524,33 33,28.524 33,23 Z M27,23 C27,20.792 25.208,19 23,19 C20.792,19 19,20.792 19,23 C19,25.208 20.792,27 23,27 C25.208,27 27,25.208 27,23 Z"/>
</svg>
