<svg xmlns="http://www.w3.org/2000/svg" width="48" height="48" viewBox="0 0 48 48"><path fill="none" stroke="#000" stroke-width="2" d="M40.9414,34.0292 L34.9994,36.9992 L34.9994,38.9992 C34.9994,41.2092 33.2094,42.9992 30.9994,42.9992 L22.9994,42.9992 C22.5434,39.7592 19.7614,36.8132 17.6054,34.9692 C16.4554,33.9872 16.6994,32.1512 18.0514,31.4752 L18.0514,31.4752 C18.6474,31.1752 19.3514,31.1752 19.9494,31.4752 L26.9994,34.9992 L39.0054,29.8552 C40.1254,29.3752 41.4254,29.8512 41.9714,30.9412 L41.9714,30.9412 C42.5394,32.0792 42.0774,33.4612 40.9414,34.0292 Z M17.4446,39.69 C11.3106,37.124 7.0006,31.066 7.0006,24 C7.0006,14.612 14.6106,7 24.0006,7 C33.3886,7 41.0006,14.612 41.0006,24 C41.0006,24.65 40.9626,25.292 40.8926,25.924 M19,18 C19,18.552 18.552,19 18,19 C17.448,19 17,18.552 17,18 C17,17.448 17.448,17 18,17 C18.552,17 19,17.448 19,18 Z M31,18 C31,18.552 30.552,19 30,19 C29.448,19 29,18.552 29,18 C29,17.448 29.448,17 30,17 C30.552,17 31,17.448 31,18 Z M14,28 L34,24"/></svg>