<svg xmlns="http://www.w3.org/2000/svg" width="48" height="48" viewBox="0 0 48 48"><path fill="none" stroke="#000" stroke-width="2" d="M29.6938,26.7088 C28.1158,25.6288 26.1998,25.0008 24.1058,25.0008 C19.9638,25.0008 16.5238,27.4608 14.9998,31.0008 M35,23 C35,23 31,29 31,33 C31,35.208 32.792,37 35,37 C37.208,37 39,35.208 39,33 C39,29 35,23 35,23 Z M31.5736,39.2238 C29.2936,40.3598 26.7216,40.9998 23.9996,40.9998 C14.6116,40.9998 6.9996,33.3878 6.9996,23.9998 C6.9996,14.6118 14.6116,6.9998 23.9996,6.9998 C33.3896,6.9998 40.9996,14.6118 40.9996,23.9998 C40.9996,24.6038 40.9676,25.1998 40.9076,25.7858 M19,18 C19,18.552 18.552,19 18,19 C17.448,19 17,18.552 17,18 C17,17.448 17.448,17 18,17 C18.552,17 19,17.448 19,18 Z M31,18 C31,18.552 30.552,19 30,19 C29.448,19 29,18.552 29,18 C29,17.448 29.448,17 30,17 C30.552,17 31,17.448 31,18 Z"/></svg>