<svg xmlns="http://www.w3.org/2000/svg" width="48" height="48" viewBox="0 0 48 48">
  <path fill="none" stroke="#000" stroke-width="2" d="M37,11.0004 C37,13.2884 35.288,15.0004 33,15.0004 C31.446,15.0004 30.156,14.2084 29.49,12.9844 C29.176,12.4064 29,11.7324 29,11.0004 C29,8.7124 30.712,7.0004 33,7.0004 C35.288,7.0004 37,8.7124 37,11.0004 Z M17,23.0004 C17,23.7724 16.812,24.4744 16.474,25.0684 C15.804,26.2504 14.542,27.0004 13,27.0004 C10.686,27.0004 9,25.3124 9,23.0004 C9,20.6864 10.686,19.0004 13,19.0004 C14.436,19.0004 15.632,19.6504 16.332,20.6984 C16.758,21.3364 17,22.1244 17,23.0004 Z M37,34.9994 C37,37.2354 35.234,38.9994 33,38.9994 C30.766,38.9994 29.012,37.2354 29.012,34.9994 C29.012,34.2594 29.21,33.5034 29.556,32.9054 C30.258,31.7014 31.506,30.9994 33,30.9994 C35.234,30.9994 37,32.7654 37,34.9994 Z M29.5566,32.9058 L16.4746,25.0698 M16.331,20.6976 L29.491,12.9836"/>
</svg>
