<svg xmlns="http://www.w3.org/2000/svg" width="48" height="48" viewBox="0 0 48 48"><path fill="none" stroke="#000" d="M26.4113,17.9421 C34.9663,17.5841 43.0003,15.5001 43.0003,15.5001 M5.0001,15.4996 C5.0001,15.4996 13.6631,17.7496 22.5781,17.9766 M22.5,34.5 C22.5,33.395 21.605,32.5 20.5,32.5 C19.395,32.5 18.5,33.395 18.5,34.5 L18.5,40.4 C18.5,41.931 18.798,43.008 19.5,43.999 M26.5,28.5 C26.5,27.395 27.395,26.5 28.5,26.5 C29.605,26.5 30.5,27.395 30.5,28.5 L30.5,38 M30.5,30.5 C30.5,29.395 31.395,28.5 32.5,28.5 C33.605,28.5 34.5,29.395 34.5,30.5 L34.5,40 M34.5,32.5 C34.5,31.395 35.395,30.5 36.5,30.5 C37.605,30.5 38.5,31.395 38.5,32.5 L38.5,38.501 C38.5,40 38.45,42.101 37.5,44 M26.5,23.2134 C33.453,21.7944 43,15.4994 43,15.4994 C43,15.4994 33.173,11.4994 29,11.4994 C24.827,11.4994 24.391,13.9994 24,13.9994 C23.609,13.9994 23.173,11.4994 19,11.4994 C14.827,11.4994 5,15.4994 5,15.4994 C5,15.4994 15.504,22.4264 22.5,23.3864 M22.5,38 L22.5,18.5 C22.5,17.395 23.395,16.5 24.5,16.5 C25.605,16.5 26.5,17.395 26.5,18.5 L26.5,36"/></svg>