<svg xmlns="http://www.w3.org/2000/svg" width="48" height="48" viewBox="0 0 48 48">
  <path fill="none" stroke="#000" stroke-width="2" d="M14.4004,20.4004 C13.9364,16.5164 18.1584,14.4364 20.8004,16.6004 C23.8004,9.8004 33.6004,13.2004 31.4004,20.6004 C36.4004,20.4004 36.4724,29.0004 30.0004,29.0004 L16.0004,29.0004 C9.2664,29.0004 10.1184,20.4004 14.4004,20.4004 Z M35,34 C35,34.552 34.552,35 34,35 C33.448,35 33,34.552 33,34 C33,33.448 33.448,33 34,33 C34.552,33 35,33.448 35,34 Z M27,34 C27,34.552 26.552,35 26,35 C25.448,35 25,34.552 25,34 C25,33.448 25.448,33 26,33 C26.552,33 27,33.448 27,34 Z M31,40 C31,40.552 30.552,41 30,41 C29.448,41 29,40.552 29,40 C29,39.448 29.448,39 30,39 C30.552,39 31,39.448 31,40 Z M13,32 L11,36 L13,32 Z M21,32 L19,36 L21,32 Z M17,32 L13,40 L17,32 Z"/>
</svg>
