<svg xmlns="http://www.w3.org/2000/svg" width="48" height="48" viewBox="0 0 48 48">
  <path fill="none" stroke="#000" stroke-width="2" d="M14.4004,20.4004 C10.1184,20.4004 9.2664,29.0004 16.0004,29.0004 L30.0004,29.0004 C36.4724,29.0004 36.4004,20.4004 31.4004,20.6004 C33.6004,13.2004 23.8004,9.8004 20.8004,16.6004 C18.1584,14.4364 13.9364,16.5164 14.4004,20.4004 Z M34.75,23.0088 C37.272,23.8008 43.02,22.4168 45,18.0008 C36.664,21.5248 31.088,13.2928 33.964,7.6008 C31.786,8.2528 30.138,9.5988 28.908,13.6688 M21,34 C21,34.552 20.552,35 20,35 C19.448,35 19,34.552 19,34 C19,33.448 19.448,33 20,33 C20.552,33 21,33.448 21,34 Z M29,34 C29,34.552 28.552,35 28,35 C27.448,35 27,34.552 27,34 C27,33.448 27.448,33 28,33 C28.552,33 29,33.448 29,34 Z M25,40 C25,40.552 24.552,41 24,41 C23.448,41 23,40.552 23,40 C23,39.448 23.448,39 24,39 C24.552,39 25,39.448 25,40 Z"/>
</svg>
