<svg xmlns="http://www.w3.org/2000/svg" width="48" height="48" viewBox="0 0 48 48">
  <path fill="none" stroke="#000" stroke-width="2" d="M14.4004,20.4004 C10.1184,20.4004 9.2664,29.0004 16.0004,29.0004 L30.0004,29.0004 C36.4724,29.0004 36.4004,20.4004 31.4004,20.6004 C33.6004,13.2004 23.8004,9.8004 20.8004,16.6004 C18.1584,14.4364 13.9364,16.5164 14.4004,20.4004 Z M34.6778,22.7744 C37.2098,22.0704 38.9998,19.7964 38.9998,17.0004 C38.9998,13.6184 36.3818,11.0004 32.9998,11.0004 C31.0138,11.0004 29.2898,11.9024 28.2078,13.3344 M33,4 L33,8 M23.6582,7.7558 L26.5402,10.5278 M39.586,23.7276 L42.414,26.5556 M46,17 L42,17 M42.1914,7.7774 L39.3634,10.6054 M13,32 L11,36 M21,32 L19,36 M17,32 L13,40 M27,34 C27,34.552 26.552,35 26,35 C25.448,35 25,34.552 25,34 C25,33.448 25.448,33 26,33 C26.552,33 27,33.448 27,34 Z M35,34 C35,34.552 34.552,35 34,35 C33.448,35 33,34.552 33,34 C33,33.448 33.448,33 34,33 C34.552,33 35,33.448 35,34 Z M31,40 C31,40.552 30.552,41 30,41 C29.448,41 29,40.552 29,40 C29,39.448 29.448,39 30,39 C30.552,39 31,39.448 31,40 Z"/>
</svg>
