<svg xmlns="http://www.w3.org/2000/svg" width="48" height="48" viewBox="0 0 48 48">
  <path fill="none" stroke="#000" stroke-width="2" d="M14.4004,20.4004 C10.1184,20.4004 9.2664,29.0004 16.0004,29.0004 L30.0004,29.0004 C36.9544,29.0004 36.4004,20.4004 31.4004,20.6004 C33.6004,13.2004 23.8004,9.8004 20.8004,16.6004 C18.1584,14.4364 13.9364,16.5164 14.4004,20.4004 Z M34.75,23.0088 C37.272,23.8008 43.02,22.4168 45,18.0008 C36.664,21.5248 31.088,13.2928 33.964,7.6008 C31.786,8.2528 30.138,9.5988 28.908,13.6688 M32,33 C32,33.552 31.552,34 31,34 C30.448,34 30,33.552 30,33 C30,32.448 30.448,32 31,32 C31.552,32 32,32.448 32,33 Z M24,33 C24,33.552 23.552,34 23,34 C22.448,34 22,33.552 22,33 C22,32.448 22.448,32 23,32 C23.552,32 24,32.448 24,33 Z M16,33 C16,33.552 15.552,34 15,34 C14.448,34 14,33.552 14,33 C14,32.448 14.448,32 15,32 C15.552,32 16,32.448 16,33 Z M28,37 C28,37.552 27.552,38 27,38 C26.448,38 26,37.552 26,37 C26,36.448 26.448,36 27,36 C27.552,36 28,36.448 28,37 Z M20,37 C20,37.552 19.552,38 19,38 C18.448,38 18,37.552 18,37 C18,36.448 18.448,36 19,36 C19.552,36 20,36.448 20,37 Z"/>
</svg>
