<svg xmlns="http://www.w3.org/2000/svg" width="48" height="48" viewBox="0 0 48 48">
  <path fill="none" stroke="#000" stroke-width="2" d="M14.4004,20.4004 C10.1184,20.4004 9.2664,29.0004 16.0004,29.0004 L30.0004,29.0004 C36.9544,29.0004 36.4004,20.4004 31.4004,20.6004 C33.6004,13.2004 23.8004,9.8004 20.8004,16.6004 C18.1584,14.4364 13.9364,16.5164 14.4004,20.4004 Z M34.75,23.0088 C37.272,23.8008 43.02,22.4168 45,18.0008 C36.664,21.5248 31.088,13.2928 33.964,7.6008 C31.786,8.2528 30.138,9.5988 28.908,13.6688 M17,32 L15,36 M29,32 L27,36 M21,32 L17,40 M25.0996,32 L21.0996,40"/>
</svg>
