<svg xmlns="http://www.w3.org/2000/svg" width="48" height="48" viewBox="0 0 48 48">
  <path fill="none" stroke="#000" stroke-width="2" d="M13,32 L11,36 M14.4004,20.4004 C10.1184,20.4004 9.2664,29.0004 16.0004,29.0004 L30.0004,29.0004 C36.9544,29.0004 36.4004,20.4004 31.4004,20.6004 C33.6004,13.2004 23.8004,9.8004 20.8004,16.6004 C18.1584,14.4364 13.9364,16.5164 14.4004,20.4004 Z M21,32 L19,36 M34.75,23.0088 C37.272,23.8008 43.02,22.4168 45,18.0008 C36.664,21.5248 31.088,13.2928 33.964,7.6008 C31.786,8.2528 30.138,9.5988 28.908,13.6688 M17,32 L13,40 M27,34 C27,34.552 26.552,35 26,35 C25.448,35 25,34.552 25,34 C25,33.448 25.448,33 26,33 C26.552,33 27,33.448 27,34 Z M35,34 C35,34.552 34.552,35 34,35 C33.448,35 33,34.552 33,34 C33,33.448 33.448,33 34,33 C34.552,33 35,33.448 35,34 Z M31,40 C31,40.552 30.552,41 30,41 C29.448,41 29,40.552 29,40 C29,39.448 29.448,39 30,39 C30.552,39 31,39.448 31,40 Z"/>
</svg>
