<svg xmlns="http://www.w3.org/2000/svg" width="48" height="48" viewBox="0 0 48 48">
  <path fill="none" stroke="#000" stroke-width="2" d="M30,29 C36.356,29 36.4,20.4 31.4,20.6 C33.6,13.2 23.8,9.8 20.8,16.6 C18.16,14.436 13.936,16.516 14.4,20.4 C10.118,20.4 9.266,29 16,29 M26,27 L21,32 L25.338,32 L18.678,37.43 L22,33 L17,33 L23,27 L26,27 Z M34,33 C34,33.552 33.552,34 33,34 C32.448,34 32,33.552 32,33 C32,32.448 32.448,32 33,32 C33.552,32 34,32.448 34,33 Z M30,37 C30,37.552 29.552,38 29,38 C28.448,38 28,37.552 28,37 C28,36.448 28.448,36 29,36 C29.552,36 30,36.448 30,37 Z M12,35 C12,35.552 11.552,36 11,36 C10.448,36 10,35.552 10,35 C10,34.448 10.448,34 11,34 C11.552,34 12,34.448 12,35 Z"/>
</svg>
