<svg xmlns="http://www.w3.org/2000/svg" width="48" height="48" viewBox="0 0 48 48">
  <path fill="none" stroke="#000" stroke-width="2" d="M14.4004,20.4004 C10.1184,20.4004 9.2664,29.0004 16.0004,29.0004 L30.0004,29.0004 C36.2504,29.0004 36.4004,20.4004 31.4004,20.6004 C33.6004,13.2004 23.8004,9.8004 20.8004,16.6004 C18.1584,14.4364 13.9364,16.5164 14.4004,20.4004 Z M34.75,23.0088 C37.272,23.8008 43.02,22.4168 45,18.0008 C36.664,21.5248 31.088,13.2928 33.964,7.6008 C31.786,8.2528 30.138,9.5988 28.908,13.6688 M13,32 C13,32 12,34 12,35 C12,35.552 12.448,36 13,36 C13.552,36 14,35.552 14,35 C14,34 13,32 13,32 Z M21,32 C21,32 20,34 20,35 C20,35.552 20.448,36 21,36 C21.552,36 22,35.552 22,35 C22,34 21,32 21,32 Z M29,32 C29,32 28,34 28,35 C28,35.552 28.448,36 29,36 C29.552,36 30,35.552 30,35 C30,34 29,32 29,32 Z M25,36 C25,36 24,38 24,39 C24,39.552 24.448,40 25,40 C25.552,40 26,39.552 26,39 C26,38 25,36 25,36 Z M17,36 C17,36 16,38 16,39 C16,39.552 16.448,40 17,40 C17.552,40 18,39.552 18,39 C18,38 17,36 17,36 Z"/>
</svg>
