<svg xmlns="http://www.w3.org/2000/svg" width="48" height="48" viewBox="0 0 48 48">
  <path fill="none" stroke="#000" stroke-width="2" d="M14.4004,20.4004 C10.1184,20.4004 9.2664,29.0004 16.0004,29.0004 L30.0004,29.0004 C36.4064,29.0004 36.4004,20.4004 31.4004,20.6004 C33.6004,13.2004 23.8004,9.8004 20.8004,16.6004 C18.1584,14.4364 13.9364,16.5164 14.4004,20.4004 Z M15,32 C15,32 14,34 14,35 C14,35.552 14.448,36 15,36 C15.552,36 16,35.552 16,35 C16,34 15,32 15,32 Z M23,32 C23,32 22,34 22,35 C22,35.552 22.448,36 23,36 C23.552,36 24,35.552 24,35 C24,34 23,32 23,32 Z M31,32 C31,32 30,34 30,35 C30,35.552 30.448,36 31,36 C31.552,36 32,35.552 32,35 C32,34 31,32 31,32 Z M27,36 C27,36 26,38 26,39 C26,39.552 26.448,40 27,40 C27.552,40 28,39.552 28,39 C28,38 27,36 27,36 Z M19,36 C19,36 18,38 18,39 C18,39.552 18.448,40 19,40 C19.552,40 20,39.552 20,39 C20,38 19,36 19,36 Z"/>
</svg>
