<svg xmlns="http://www.w3.org/2000/svg" width="48" height="48" viewBox="0 0 48 48">
  <g fill="none" fill-rule="evenodd">
    <path stroke="#000" stroke-width="2" d="M14.4004,20.4004 C10.1184,20.4004 9.2664,29.0004 16.0004,29.0004 L30.0004,29.0004 C36.4064,29.0004 36.4004,20.4004 31.4004,20.6004 C33.6004,13.2004 23.8004,9.8004 20.8004,16.6004 C18.1584,14.4364 13.9364,16.5164 14.4004,20.4004 Z"/>
    <path fill="#000" d="M22,44 L22,46 L20,46 L20,44 L22,44 Z M26,44 L26,46 L24,46 L24,44 L26,44 Z M24,42 L24,44 L22,44 L22,42 L24,42 Z M22,40 L22,42 L20,42 L20,40 L22,40 Z M26,40 L26,42 L24,42 L24,40 L26,40 Z M14,36 L14,38 L12,38 L12,36 L14,36 Z M18,36 L18,38 L16,38 L16,36 L18,36 Z M30,36 L30,38 L28,38 L28,36 L30,36 Z M34,36 L34,38 L32,38 L32,36 L34,36 Z M16,34 L16,36 L14,36 L14,34 L16,34 Z M32,34 L32,36 L30,36 L30,34 L32,34 Z M14,32 L14,34 L12,34 L12,32 L14,32 Z M18,32 L18,34 L16,34 L16,32 L18,32 Z M30,32 L30,34 L28,34 L28,32 L30,32 Z M34,32 L34,34 L32,34 L32,32 L34,32 Z"/>
  </g>
</svg>
