<svg xmlns="http://www.w3.org/2000/svg" width="48" height="48" viewBox="0 0 48 48">
  <path fill="none" stroke="#000" stroke-width="2" d="M32.039,28.7676 C36.329,27.3636 35.797,20.4236 31.401,20.5996 C33.599,13.1996 23.799,9.7996 20.799,16.5996 C18.159,14.4356 13.935,16.5156 14.401,20.3996 C10.601,20.3996 9.503,27.1696 14.005,28.6976 M34.6778,22.7744 C37.2098,22.0704 38.9998,19.7964 38.9998,17.0004 C38.9998,13.6184 36.3818,11.0004 32.9998,11.0004 C31.0138,11.0004 29.2898,11.9024 28.2078,13.3344 M23,22 L23,36 M16.0284,29 L30.0284,29 M18.0498,24.0498 L27.9498,33.9498 M18.0782,33.9492 L27.9782,24.0492"/>
</svg>
