<svg xmlns="http://www.w3.org/2000/svg" width="48" height="48" viewBox="0 0 48 48">
  <path fill="none" stroke="#000" stroke-width="2" d="M33,25 C33,29.412 29.458,32.988 25.046,32.988 C20.632,32.988 17.056,29.41 17.056,24.998 C17.056,20.584 20.586,17 25,17 C29.412,17 33,20.586 33,25 Z M8,25 L14.006,25 M12.7852,12.6318 L17.3392,17.1858 M25.0234,7.9756 L25.0234,14.0056 M37.3144,12.8154 L32.7864,17.2914 M42,25 L35.988,25 M37.3418,37.1856 L32.8078,32.6716 M25,35.9864 L25,41.9924 M17.3144,32.8028 L12.7904,37.3248"/>
</svg>
