<svg xmlns="http://www.w3.org/2000/svg" width="48" height="48" viewBox="0 0 48 48">
  <g fill="none" fill-rule="evenodd">
    <path stroke="#000" stroke-width="2" d="M32.039,29 C36.339,27.582 35.809,20.574 31.399,20.75 C33.605,13.276 23.775,9.842 20.765,16.71 C18.117,14.526 13.879,16.626 14.345,20.548 C10.535,20.548 9.433,27.386 13.949,28.928"/>
    <path fill="#000" d="M23.812,32.322 L23.812,33.998 L22.052,33.998 L22.052,32.322 L23.812,32.322 Z M23.038,21.944 C24.14,21.944 25.018,22.252 25.67,22.87 C26.278,23.44 26.582,24.19 26.582,25.118 C26.582,25.886 26.376,26.546 25.962,27.102 C25.778,27.354 25.336,27.816 24.634,28.494 C24.326,28.79 24.11,29.036 23.986,29.23 C23.864,29.428 23.78,29.672 23.73,29.96 C23.676,30.252 23.648,30.626 23.648,31.09 L22.262,31.09 C22.274,30.268 22.346,29.656 22.484,29.26 C22.582,28.968 22.72,28.708 22.902,28.478 C23.084,28.246 23.488,27.816 24.114,27.18 C24.514,26.774 24.778,26.406 24.904,26.078 C25.006,25.798 25.058,25.512 25.058,25.222 C25.058,24.686 24.91,24.234 24.61,23.87 C24.252,23.424 23.722,23.2 23.02,23.2 C21.57,23.2 20.788,24.082 20.674,25.844 L19.272,25.844 C19.31,24.844 19.508,24.07 19.866,23.522 C20.198,23.018 20.638,22.628 21.186,22.354 C21.736,22.08 22.352,21.944 23.038,21.944 Z"/>
  </g>
</svg>
