<svg xmlns="http://www.w3.org/2000/svg" width="48" height="48" viewBox="0 0 48 48"><g fill="none" fill-rule="evenodd"><polygon fill="#000" points="20.948 8 26.438 13.408 19.614 13.408 19.614 8 16.386 8 16.386 13.408 9.6 13.408 15.088 8 11.008 8 4 15 11.008 22 15.088 22 9.6 16.628 16.386 16.628 16.386 22 19.614 22 19.614 16.628 26.438 16.628 20.948 22 25.028 22 32 15 25.028 8"/><path stroke="#000" d="M17.493,33.52 L7.752,26.941 C6.89,26.249 5.631,26.386 4.94,27.249 C4.249,28.111 4.387,29.37 5.248,30.061 L17.5,40.5 L25.5,40.5 L27.5,42.499 L42.5,42.5 L31.844,34.374 C29.769,32.667 27.406,30.562 23.719,30.499 L19.5,30.499 C16.437,30.499 16.437,34.499 19.5,34.499 L23.5,34.499"/></g></svg>