<svg xmlns="http://www.w3.org/2000/svg" width="48" height="48" viewBox="0 0 48 48"><g fill="none" fill-rule="evenodd"><path stroke="#000" d="M4.5,39 L4.5,30.5 L13,30.5 M43.5,24 C43.457,34.813 34.548,43.541 23.401,43.5001439 C15.621,43.471 7.823,37.323 4.5,30.5 M43.5,8 L43.5,16.5 L35,16.5 M4.5,24 C4.521,13.199 13.501,4.48 24.675,4.49996566 C32.531,4.514 40.187,9.616 43.5,16.5"/><path fill="#000" d="M17.4395,21.8369 L28.1855,21.8369 L27.6665,22.7799 L17.3715,22.7799 C17.3525,23.0719 17.3435,23.3499 17.3435,23.6139 C17.3435,23.9699 17.3575,24.2939 17.3845,24.5849 L26.6275,24.5849 L26.1215,25.5279 L17.4805,25.5279 C17.6535,26.8319 18.0365,28.0029 18.6285,29.0419 C19.3675,30.3269 20.3565,31.3069 21.5955,31.9819 C22.7355,32.6019 23.9935,32.9109 25.3695,32.9109 C26.4995,32.9109 27.5585,32.6809 28.5475,32.2209 C29.5375,31.7609 30.3685,31.1069 31.0435,30.2589 L31.0435,31.8859 C30.3325,32.5509 29.4795,33.0639 28.4865,33.4239 C27.4935,33.7839 26.4405,33.9639 25.3285,33.9639 C22.9035,33.9639 20.8845,33.2239 19.2715,31.7419 C17.6585,30.2609 16.6555,28.2219 16.2635,25.6239 L16.2505,25.5279 L14.1305,25.5279 L14.6505,24.5849 L16.1685,24.5849 C16.1405,24.1479 16.1275,23.7559 16.1275,23.4089 C16.1275,23.1999 16.1355,22.9899 16.1545,22.7799 L14.1305,22.7799 L14.6505,21.8369 L16.2225,21.8369 C16.4685,19.9689 17.0345,18.3639 17.9185,17.0249 C19.6595,14.3909 22.1695,13.0729 25.4515,13.0729 C27.9585,13.0729 30.0225,13.8889 31.6445,15.5209 L31.0435,16.6139 C30.3955,15.8209 29.5785,15.2089 28.5885,14.7749 C27.5995,14.3429 26.5265,14.1259 25.3695,14.1259 C23.2545,14.1259 21.4915,14.8189 20.0785,16.2039 C19.3675,16.8969 18.7795,17.7399 18.3145,18.7329 C17.8495,19.7269 17.5575,20.7619 17.4395,21.8369"/></g></svg>