<svg xmlns="http://www.w3.org/2000/svg" width="48" height="48" viewBox="0 0 48 48"><path fill="none" stroke="#000" d="M29.5,37.5 L4.5,37.5 L4.5,13.487 C4.5,10.733 6.733,8.5 9.487,8.5 L24.513,8.5 C27.267,8.5 29.5,10.733 29.5,13.487 L29.5,37.5 Z M4.5,24.5 L17,28.5 L29.5,24.5 M11.543,32.5 L8.457,32.5 C7.931,32.5 7.5,32.069 7.5,31.543 L7.5,31.457 C7.5,30.931 7.931,30.5 8.457,30.5 L11.543,30.5 C12.069,30.5 12.5,30.931 12.5,31.457 L12.5,31.543 C12.5,32.069 12.069,32.5 11.543,32.5 Z M25.543,32.5 L22.457,32.5 C21.931,32.5 21.5,32.069 21.5,31.543 L21.5,31.457 C21.5,30.931 21.931,30.5 22.457,30.5 L25.543,30.5 C26.069,30.5 26.5,30.931 26.5,31.457 L26.5,31.543 C26.5,32.069 26.069,32.5 25.543,32.5 Z M9,4.5 L26,4.5 M25.5,23.5 L8.5,23.5 C7.948,23.5 7.5,23.052 7.5,22.5 L7.5,14.5 C7.5,13.948 7.948,13.5 8.5,13.5 L25.5,13.5 C26.052,13.5 26.5,13.948 26.5,14.5 L26.5,22.5 C26.5,23.052 26.052,23.5 25.5,23.5 Z M7,35.5 L9,35.5 M27,35.5 L25,35.5 M14,11.5 L21,11.5 M12.5,4.5 L14.5,8.5 M22.5,4.5 L19.5,8.5 M9.5,37.5 L9.5,39.5 C9.5,40.05 9.05,40.5 8.5,40.5 C7.95,40.5 7.5,40.05 7.5,39.5 L7.5,37.5 M26.5,37.5 L26.5,39.5 C26.5,40.05 26.05,40.5 25.5,40.5 C24.95,40.5 24.5,40.05 24.5,39.5 L24.5,37.5 M46,34.5 L35.5,34.5 L35.5,40.5 L2,40.5 M42.5,34.5 L42.5,26.5 L43.5,26.5 L43.5,19.5 L38.5,19.5 L38.5,26.5 L39.5,26.5 L39.5,34.5 M42.5,16 C42.5,16.828 41.828,17.5 41,17.5 C40.172,17.5 39.5,16.828 39.5,16 C39.5,15.172 40.172,14.5 41,14.5 C41.828,14.5 42.5,15.172 42.5,16 Z"/></svg>