<svg xmlns="http://www.w3.org/2000/svg" width="24" height="24" viewBox="0 0 24 24"><path fill="none" stroke="#000" d="M6,12 L6,12 M16,2.5 L1,17.5 M10,5.5 L8.5,0 L6,0 L7,8 L3,8 L2,6 L0,6 L1.5,9.5 L0,13 L2,13 L3,11 L5,11 M18,14 L13.5,14 L13.5,10 L16.6,10 M10.5,17 C10.5,18.104 11.396,19 12.5,19 C13.604,19 14.5,18.104 14.5,17 M7,14 L11.5,14 L11.5,9.5 M7,17 L17.156,17 C17.898,17 18.5,16.39 18.5,15.636 C18.5,15.42 18.445,15.217 18.357,15.035 L16.472,9.762 C16.093,8.646 15.253,7.757 14.187,7.313 M19,19 L7,19" transform="translate(3 2.5)"/></svg>