<svg xmlns="http://www.w3.org/2000/svg" width="24" height="24" viewBox="0 0 24 24"><path fill="none" stroke="#000" d="M8.5,11 C8.5,10.724 8.276,10.5 8,10.5 C7.724,10.5 7.5,10.724 7.5,11 C7.5,11.276 7.724,11.5 8,11.5 C8.276,11.5 8.5,11.276 8.5,11 Z M16.5,11 C16.5,10.724 16.276,10.5 16,10.5 C15.724,10.5 15.5,10.724 15.5,11 C15.5,11.276 15.724,11.5 16,11.5 C16.276,11.5 16.5,11.276 16.5,11 Z M5.4999,13.5 L5.4999,15.5 L8.4999,15.5 L8.4999,13.5 M15.5005,13.5 L15.5005,15.5 L18.5005,15.5 L18.5005,13.5 M5.4999,7.5006 L3.9999,7.5006 M20.0004,7.5006 L18.5004,7.5006 M18.5001,8.5006 L5.5001,8.5006 M15.9999,3.5002 C17.7059,3.5002 18.4999,4.2942 18.4999,6.0002 L18.4999,13.5002 L5.4999,13.5002 L5.4999,6.0002 C5.4999,4.2942 6.2949,3.5002 7.9999,3.5002 L15.9999,3.5002 M16.5,8.5 C16.5,7.395 15.605,6.5 14.5,6.5 C13.395,6.5 12.5,7.395 12.5,8.5 M13.5,18.5 L16,18.495 M13.5,20.5 L16,20.5 M10.5,19.5 L7,19.5 M13.5,21.5 L13.5,17.5 L12.498,17.501 C11.394,17.502 10.5,18.396 10.5,19.5 L10.5,19.5 C10.5,20.605 11.395,21.5 12.5,21.5 L13.5,21.5 Z"/></svg>