<svg xmlns="http://www.w3.org/2000/svg" width="24" height="24" viewBox="0 0 24 24"><g fill="none" fill-rule="evenodd" transform="translate(2 2.5)"><path stroke="#000" d="M16.5,17 L16.5,17.5 C16.5,18.328 15.828,19 15,19 C14.172,19 13.5,18.328 13.5,17.5 L13.5,17 M17.5,17 L2.5,17 L2.5,16 L2.5,15 L17.5,15 L17.5,17 Z M0.5,17.5 L0.5,14.5 M0.5,16.0001 L2.5,16.0001 M19.5,14.5 L19.5,17.5 M19.5,16 L17.5,16 M6.5,17 L6.5,17.5 C6.5,18.328 5.828,19 5,19 C4.172,19 3.5,18.328 3.5,17.5 L3.5,17 M4.5,3 L15.5,3 L17.5,13 L2.5,13 L4.5,3 Z M11.5,1.5 C11.5,2.328 10.828,3 10,3 C9.172,3 8.5,2.328 8.5,1.5 C8.5,0.672 9.172,0 10,0 C10.828,0 11.5,0.672 11.5,1.5 Z"/><path fill="#000" d="M12.2661,5.4997 C12.8921,5.4997 13.4031,5.7027 13.7961,6.1067 C14.0901,6.4117 14.2591,6.7707 14.3021,7.1837 L13.2941,7.1837 C13.2411,6.9277 13.1251,6.7267 12.9441,6.5837 C12.7611,6.4397 12.5311,6.3677 12.2531,6.3677 C11.8311,6.3677 11.5051,6.5307 11.2741,6.8577 C11.0721,7.1427 10.9701,7.5277 10.9701,8.0127 C10.9701,8.4867 11.0651,8.8637 11.2541,9.1417 C11.4871,9.4827 11.8311,9.6537 12.2861,9.6537 C12.6141,9.6537 12.8831,9.5547 13.0931,9.3567 C13.3041,9.1597 13.4131,8.8997 13.4251,8.5777 L12.3641,8.5777 L12.3641,7.8137 L14.3681,7.8137 L14.3681,10.3857 L13.7021,10.3857 L13.5981,9.8397 C13.2451,10.2807 12.7701,10.4997 12.1711,10.4997 C11.4431,10.4997 10.8671,10.2307 10.4451,9.6907 C10.0951,9.2397 9.9191,8.6837 9.9191,8.0227 C9.9191,7.2717 10.1481,6.6567 10.6051,6.1787 C11.0331,5.7257 11.5871,5.4997 12.2661,5.4997 Z M6.6168,5.614 L6.6168,7.589 L8.4868,5.614 L9.8048,5.614 L7.9348,7.5 L9.9818,10.385 L8.6668,10.385 L7.2168,8.245 L6.6168,8.845 L6.6168,10.385 L5.5748,10.385 L5.5748,5.614 L6.6168,5.614 Z"/></g></svg>