<svg xmlns="http://www.w3.org/2000/svg" width="24" height="24" viewBox="0 0 24 24"><path fill="none" stroke="#000" d="M4,18 C4,18.552 3.552,19 3,19 C2.448,19 2,18.552 2,18 C2,17.448 2.448,17 3,17 C3.552,17 4,17.448 4,18 Z M11,18 C11,18.552 10.552,19 10,19 C9.448,19 9,18.552 9,18 C9,17.448 9.448,17 10,17 C10.552,17 11,17.448 11,18 Z M9,18 L4,18 M0,15 L12,15 C12.552,15 13,15.448 13,16 L13,18 L11,18 M6,12 L6,15 M11,15 L8.293,12.293 C8.105,12.105 7.851,12 7.586,12 L2.535,12 C2.201,12 1.889,12.167 1.703,12.445 L0.168,14.748 C0.058,14.912 0,15.105 0,15.303 L0,18 L2,18 M17,12 C17,12.552 16.552,13 16,13 C15.448,13 15,12.552 15,12 C15,11.448 15.448,11 16,11 C16.552,11 17,11.448 17,12 Z M15,12 L10.5,12 M6,9 L18,9 C18.552,9 19,9.448 19,10 L19,12 L17,12 M12,6 L12,9 M17,9 L14.293,6.293 C14.105,6.105 13.851,6 13.586,6 L8.535,6 C8.201,6 7.889,6.167 7.703,6.445 L6.168,8.748 C6.058,8.912 6,9.105 6,9.303 L6,10.5 M4,6 C4,6.552 3.552,7 3,7 C2.448,7 2,6.552 2,6 C2,5.448 2.448,5 3,5 C3.552,5 4,5.448 4,6 Z M5.5,6 L4,6 M0,3 L12,3 C12.552,3 13,3.448 13,4 L13,4.5 M6,0 L6,3 M11,3 L8.293,0.293 C8.105,0.105 7.851,0 7.586,0 L2.535,0 C2.201,0 1.889,0.167 1.703,0.445 L0.168,2.748 C0.058,2.912 0,3.105 0,3.303 L0,6 L2,6" transform="translate(2.5 2.5)"/></svg>