<svg xmlns="http://www.w3.org/2000/svg" width="48" height="48" viewBox="0 0 48 48"><path fill="none" stroke="#000" stroke-width="2" d="M12,24 L12,24 M32,5 L2,35 M20,11 L17,0 L12,0 L14,16 L6,16 L4,12 L0,12 L3,19 L0,26 L4,26 L6,22 L10,22 M36,28 L27,28 L27,20 L33.2,20 M21,34 C21,36.208 22.792,38 25,38 C27.208,38 29,36.208 29,34 M14,28 L23,28 L23,19 M14,34 L34.312,34 C35.796,34 37,32.78 37,31.272 C37,30.84 36.89,30.434 36.714,30.07 L32.944,19.524 C32.186,17.292 30.506,15.514 28.374,14.626 M38,38 L14,38" transform="translate(6 5)"/></svg>