<svg xmlns="http://www.w3.org/2000/svg" width="48" height="48" viewBox="0 0 48 48">
  <g fill="none" fill-rule="evenodd">
    <path stroke="#000" stroke-width="2" d="M9,36.9994 L9,40.9994 L15,40.9994 L15,36.9994 M33.002,36.9994 L33.002,40.9994 L39,40.9994 L39,36.9994 M34,11.0004 L14,11.0004 M39,23.0014 L9,23.0014 M15,31.9994 C15,31.4494 14.552,30.9994 14,30.9994 C13.448,30.9994 13,31.4494 13,31.9994 C13,32.5514 13.448,32.9994 14,32.9994 C14.552,32.9994 15,32.5514 15,31.9994 Z M35,31.9994 C35,31.4494 34.552,30.9994 34,30.9994 C33.448,30.9994 33,31.4494 33,31.9994 C33,32.5514 33.448,32.9994 34,32.9994 C34.552,32.9994 35,32.5514 35,31.9994 Z M34,7.0004 C37.412,7.0004 39,8.5884 39,12.0004 L39,37.0004 L9,37.0004 L9,12.0004 C9,8.5884 10.588,7.0004 14,7.0004 L34,7.0004 Z M9,19.0004 L7,19.0004 L7,21.0004 L9,21.0004 M39,21.0004 L41,21.0004 L41,19.0004 L39,19.0004"/>
    <polygon fill="#000" points="25.6 26 28.802 29 25 29 25 26 23 26 23 29 19.2 29 22.4 26 20 26 16 30 20 34 22.4 34 19.2 31 23 31 23 34 25 34 25 31 28.802 31 25.6 34 28 34 32 30 28 26"/>
  </g>
</svg>
