<svg xmlns="http://www.w3.org/2000/svg" width="48" height="48" viewBox="0 0 48 48">
  <path fill="none" stroke="#000" stroke-width="2" d="M41,36.9994 L17,36.9994 L17,21.9994 C17,19.2374 19.238,16.9994 22,16.9994 L36,16.9994 C38.762,16.9994 41,19.2374 41,21.9994 L41,36.9994 Z M5,19 L13,19 L13,9 L5,9 L5,19 Z M9,18.9994 L9,41.9994 M17,36.9994 L17,40.9994 L23,40.9994 L23,36.9994 M35.002,36.9994 L35.002,40.9994 L41,40.9994 L41,36.9994 M17,25.0014 L14,25.0014 M44,25.0014 L41,25.0014 M41,27.0014 L17,27.0014 M37,26.9994 C37,24.7914 35.208,22.9994 33,22.9994 C30.792,22.9994 29,24.7914 29,26.9994 M23,31.9994 C23,31.4494 22.552,30.9994 22,30.9994 C21.448,30.9994 21,31.4494 21,31.9994 C21,32.5514 21.448,32.9994 22,32.9994 C22.552,32.9994 23,32.5514 23,31.9994 Z M37,31.9994 C37,31.4494 36.552,30.9994 36,30.9994 C35.448,30.9994 35,31.4494 35,31.9994 C35,32.5514 35.448,32.9994 36,32.9994 C36.552,32.9994 37,32.5514 37,31.9994 Z"/>
</svg>
