<svg xmlns="http://www.w3.org/2000/svg" width="48" height="48" viewBox="0 0 48 48"><path fill="none" stroke="#000" stroke-width="2" d="M17,22 C17,21.448 16.552,21 16,21 C15.448,21 15,21.448 15,22 C15,22.552 15.448,23 16,23 C16.552,23 17,22.552 17,22 Z M33,22 C33,21.448 32.552,21 32,21 C31.448,21 31,21.448 31,22 C31,22.552 31.448,23 32,23 C32.552,23 33,22.552 33,22 Z M10.9998,27 L10.9998,31 L16.9998,31 L16.9998,27 M31.001,27 L31.001,31 L37.001,31 L37.001,27 M10.9998,15.0012 L7.9998,15.0012 M40.0008,15.0012 L37.0008,15.0012 M37.0002,17.0012 L11.0002,17.0012 M31.9998,7.0004 C35.4118,7.0004 36.9998,8.5884 36.9998,12.0004 L36.9998,27.0004 L10.9998,27.0004 L10.9998,12.0004 C10.9998,8.5884 12.5898,7.0004 15.9998,7.0004 L31.9998,7.0004 M33,17 C33,14.79 31.21,13 29,13 C26.79,13 25,14.79 25,17 M27,37 L32,36.99 M27,41 L32,41 M21,39 L14,39 M27,43 L27,35 L24.996,35.002 C22.788,35.004 21,36.792 21,39 L21,39 C21,41.21 22.79,43 25,43 L27,43 Z"/></svg>