<svg xmlns="http://www.w3.org/2000/svg" width="48" height="48" viewBox="0 0 48 48">
  <path fill="none" stroke="#000" stroke-width="2" d="M8,43 L36,43 M11,43 L11,9 C11,6.792 12.792,5 15,5 L29,5 C31.208,5 33,6.792 33,9 L33,43 M15,19 L29,19 L29,11 L15,11 L15,19 Z M41,27 L41,34 C41.006,35.084 41.008,37 39,37 C37,37 37.002,35.04 37,34 L37,32 C36.954,29.984 35.996,29 34,29 L33,29 M45,23 C45,25.208 43.208,27 41,27 C38.792,27 37,25.208 37,23 L37,21 L45,21 L45,23 Z M39,21 L39,16 M43,21 L43,16"/>
</svg>
