<svg xmlns="http://www.w3.org/2000/svg" width="48" height="48" viewBox="0 0 48 48"><g fill="none" fill-rule="evenodd" transform="translate(4 5)"><path stroke="#000" stroke-width="2" d="M33,34 L33,35 C33,36.656 31.656,38 30,38 C28.344,38 27,36.656 27,35 L27,34 M35,34 L5,34 L5,32 L5,30 L35,30 L35,34 Z M1,35 L1,29 M1,32.0002 L5,32.0002 M39,29 L39,35 M39,32 L35,32 M13,34 L13,35 C13,36.656 11.656,38 10,38 C8.344,38 7,36.656 7,35 L7,34 M9,6 L31,6 L35,26 L5,26 L9,6 Z M23,3 C23,4.656 21.656,6 20,6 C18.344,6 17,4.656 17,3 C17,1.344 18.344,0 20,0 C21.656,0 23,1.344 23,3 Z"/><path fill="#000" d="M24.5322,10.9994 C25.7842,10.9994 26.8062,11.4054 27.5922,12.2134 C28.1802,12.8234 28.5182,13.5414 28.6042,14.3674 L26.5882,14.3674 C26.4822,13.8554 26.2502,13.4534 25.8882,13.1674 C25.5222,12.8794 25.0622,12.7354 24.5062,12.7354 C23.6622,12.7354 23.0102,13.0614 22.5482,13.7154 C22.1442,14.2854 21.9402,15.0554 21.9402,16.0254 C21.9402,16.9734 22.1302,17.7274 22.5082,18.2834 C22.9742,18.9654 23.6622,19.3074 24.5722,19.3074 C25.2282,19.3074 25.7662,19.1094 26.1862,18.7134 C26.6082,18.3194 26.8262,17.7994 26.8502,17.1554 L24.7282,17.1554 L24.7282,15.6274 L28.7362,15.6274 L28.7362,20.7714 L27.4042,20.7714 L27.1962,19.6794 C26.4902,20.5614 25.5402,20.9994 24.3422,20.9994 C22.8862,20.9994 21.7342,20.4614 20.8902,19.3814 C20.1902,18.4794 19.8382,17.3674 19.8382,16.0454 C19.8382,14.5434 20.2962,13.3134 21.2102,12.3574 C22.0662,11.4514 23.1742,10.9994 24.5322,10.9994 Z M13.2336,11.228 L13.2336,15.178 L16.9736,11.228 L19.6096,11.228 L15.8696,15 L19.9636,20.77 L17.3336,20.77 L14.4336,16.49 L13.2336,17.69 L13.2336,20.77 L11.1496,20.77 L11.1496,11.228 L13.2336,11.228 Z"/></g></svg>