<svg xmlns="http://www.w3.org/2000/svg" width="48" height="48" viewBox="0 0 48 48">
  <g fill="none" fill-rule="evenodd">
    <path stroke="#000" stroke-width="2" d="M6.003,37.0014 L42.005,37.0014 M6.003,11.0004 L42.005,11.0004"/>
    <path fill="#000" d="M35.6428,15.9956 C37.1748,15.9956 38.3488,16.2376 39.1668,16.7176 C39.8448,17.1116 40.3628,17.6376 40.7208,18.2936 C41.0788,18.9516 41.2588,19.6916 41.2588,20.5156 C41.2588,21.4516 41.0328,22.2636 40.5848,22.9576 C40.1348,23.6516 39.5088,24.1476 38.7068,24.4456 C39.4148,24.6196 39.9688,25.0156 40.3708,25.6276 C40.6268,26.0156 40.7968,26.4196 40.8848,26.8436 C40.9728,27.2656 41.0868,28.2316 41.2248,29.7436 C41.3268,30.8516 41.4848,31.5416 41.6948,31.8116 L41.8468,31.9976 L38.2028,31.9976 C38.0808,31.7716 37.9908,31.4836 37.9348,31.1316 C37.8808,30.7836 37.8088,29.9716 37.7228,28.7016 C37.6348,27.5716 37.3588,26.7876 36.8948,26.3556 C36.4308,25.9216 35.6428,25.7036 34.5248,25.7036 L31.3848,25.7036 L31.3848,31.9976 L27.8928,31.9976 L27.8928,15.9956 L35.6428,15.9956 Z M9.4934,15.9956 L9.4934,22.6176 L15.7654,15.9956 L20.1874,15.9956 L13.9154,22.3236 L20.7774,31.9976 L16.3674,31.9976 L11.5074,24.8176 L9.4934,26.8316 L9.4934,31.9976 L6.0014,31.9976 L6.0014,15.9956 L9.4934,15.9956 Z M23.5464,21.1254 L23.5464,24.2094 L26.6404,24.2094 L26.6404,25.9754 L23.5464,25.9754 L23.5464,29.0594 L21.7784,29.0594 L21.7784,25.9754 L18.6944,25.9754 L18.6944,24.2094 L21.7784,24.2094 L21.7784,21.1254 L23.5464,21.1254 Z M34.8648,18.7436 L31.3848,18.7436 L31.3848,23.1436 L34.7228,23.1436 C35.7948,23.1436 36.5508,22.9896 36.9888,22.6836 C37.5428,22.2976 37.8208,21.7136 37.8208,20.9316 C37.8208,20.1736 37.5848,19.6176 37.1088,19.2696 C36.6348,18.9176 35.8868,18.7436 34.8648,18.7436 Z"/>
  </g>
</svg>
