<svg xmlns="http://www.w3.org/2000/svg" width="48" height="48" viewBox="0 0 48 48"><path fill="none" stroke="#000" stroke-width="2" d="M8,36 C8,37.104 7.104,38 6,38 C4.896,38 4,37.104 4,36 C4,34.896 4.896,34 6,34 C7.104,34 8,34.896 8,36 Z M22,36 C22,37.104 21.104,38 20,38 C18.896,38 18,37.104 18,36 C18,34.896 18.896,34 20,34 C21.104,34 22,34.896 22,36 Z M18,36 L8,36 M0,30 L24,30 C25.104,30 26,30.896 26,32 L26,36 L22,36 M12,24 L12,30 M22,30 L16.586,24.586 C16.21,24.21 15.702,24 15.172,24 L5.07,24 C4.402,24 3.778,24.334 3.406,24.89 L0.336,29.496 C0.116,29.824 0,30.21 0,30.606 L0,36 L4,36 M34,24 C34,25.104 33.104,26 32,26 C30.896,26 30,25.104 30,24 C30,22.896 30.896,22 32,22 C33.104,22 34,22.896 34,24 Z M30,24 L21,24 M12,18 L36,18 C37.104,18 38,18.896 38,20 L38,24 L34,24 M24,12 L24,18 M34,18 L28.586,12.586 C28.21,12.21 27.702,12 27.172,12 L17.07,12 C16.402,12 15.778,12.334 15.406,12.89 L12.336,17.496 C12.116,17.824 12,18.21 12,18.606 L12,21 M8,12 C8,13.104 7.104,14 6,14 C4.896,14 4,13.104 4,12 C4,10.896 4.896,10 6,10 C7.104,10 8,10.896 8,12 Z M11,12 L8,12 M0,6 L24,6 C25.104,6 26,6.896 26,8 L26,9 M12,0 L12,6 M22,6 L16.586,0.586 C16.21,0.21 15.702,0 15.172,0 L5.07,0 C4.402,0 3.778,0.334 3.406,0.89 L0.336,5.496 C0.116,5.824 0,6.21 0,6.606 L0,12 L4,12" transform="translate(5 5)"/></svg>