<svg xmlns="http://www.w3.org/2000/svg" width="48" height="48" version="1.1" viewBox="0 0 48 48">
  <path fill="none" fill-rule="evenodd" stroke="#000" stroke-width="2" d="M41,23 C41,21.896 40.106,21 39,21 L8.994,21.002 C7.89,21.002 6.994,21.898 6.994,23.002 L7,35 L41.002,35 L41.002,23 M11,35.001 L11,27.001 L17,27.001 L17,35.001 M21,31 L37.002,31 L37.002,27 L21,27 L21,31 Z M9.1836,34.999 C9.0716,35.313 8.9996,35.647 8.9996,35.999 C8.9996,37.657 10.3436,38.999 11.9996,38.999 C13.6576,38.999 14.9996,37.657 14.9996,35.999 C14.9996,35.647 14.9276,35.313 14.8156,34.999 M33.1836,34.999 C33.0716,35.313 32.9996,35.647 32.9996,35.999 C32.9996,37.657 34.3436,38.999 35.9996,38.999 C37.6556,38.999 38.9996,37.657 38.9996,35.999 C38.9996,35.647 38.9276,35.313 38.8156,34.999 M4,33 L7,33 M41,33 L44,33"/>
</svg>
