<svg xmlns="http://www.w3.org/2000/svg" width="24" height="24" viewBox="0 0 24 24">
  <g fill="none" fill-rule="evenodd">
    <path fill="#2D327D" d="M22.5000001,0 L1.50000001,0 C0.675000003,0 0,0.675000003 0,1.50000001 L0,22.5000001 C0,23.3250009 0.675000003,24.0000001 1.50000001,24.0000001 L22.5000001,24.0000001 C23.3250009,24.0000001 24.0000001,23.3250009 24.0000001,22.5000001 L24.0000001,1.50000001 C24.0000001,0.675000003 23.3250009,0 22.5000001,0 Z"/>
    <path fill="#FFF" d="M4.78500032 2.48500011C4.78500032 1.66000031 4.11000012.985000104 3.28500031.985000104 2.46000051.985000104 1.78500031 1.66000031 1.78500031 2.48500011 1.78500031 3.30999991 2.46000001 3.98500012 3.28500031 3.98500012 4.11749942 3.98500012 4.78500032 3.31750011 4.78500032 2.48500011zM0 5.87500002L0 10.9674997C0 11.2599993.239999801 11.5.532499802 11.5.824999803 11.5 1.0649996 11.2600002 1.0649996 10.9674997L1.0649996 6.62500003 1.52999981 6.62500003 1.52999981 18.2349988C1.52999971 18.6625005 1.87499951 19.0000001 2.30249981 19.0000001 2.72999961 19.0000001 3.06749971 18.6549989 3.06749971 18.2349988L3.06749971 11.4849987 3.55499941 11.4849987 3.55499941 18.2349988C3.55499941 18.6625005 3.90000012 19.0000001 4.32749992 19.0000001 4.75499972 19.0000001 5.09249982 18.6549989 5.09249982 18.2349988L5.09249982 6.62500003 5.55749902 6.62500003 5.55749902 10.9674997C5.55749892 11.2599993 5.79749872 11.5 6.09000023 11.5 6.38249973 11.5 6.62250053 11.2600002 6.62250053 10.9674997L6.62250053 5.87500002C6.62250053 5.05000022 5.94750032 4.37500002 5.12250052 4.37500002L1.50000001 4.37500002C.675000003 4.37500002 0 5.05000022 0 5.87500002z" transform="translate(3 2)"/>
  </g>
</svg>
