<svg xmlns="http://www.w3.org/2000/svg" width="36" height="36" viewBox="0 0 36 36"><path fill="none" stroke="#000" stroke-width="1.5" d="M9.75,11.25 L9.75,24.75 C9.75,25.578 10.422,26.25 11.25,26.25 L24.75,26.25 C25.578,26.25 26.25,25.578 26.25,24.75 L26.25,11.25 C26.25,10.422 25.578,9.75 24.75,9.75 L11.25,9.75 C10.422,9.75 9.75,10.422 9.75,11.25 Z M12.75,9.75 L12.75,3.75 L23.25,3.75 L23.25,9.75 M12.75,26.25 L12.75,32.25 L23.25,32.25 L23.25,26.25 M26.25,18.75 L27.75,18.75 L27.75,17.25 L26.25,17.25 M22.56,18.7188 L17.25,18.7503 L17.25,13.5003"/></svg>