<svg xmlns="http://www.w3.org/2000/svg" width="36" height="36" version="1.1" viewBox="0 0 36 36">
  <path fill="none" fill-rule="evenodd" stroke="#000" stroke-width="1.5" d="M22.5,9.75 L28.5,9.75 M18.75,9.74835 L18.75,30.74985 C18.75,31.57785 19.422,32.24985 20.25,32.24985 L30.75,32.24985 C31.578,32.24985 32.25,31.57785 32.25,30.74985 L32.25,9.74985 C32.25,8.92185 31.578,8.24985 30.75,8.24985 L20.25,8.24835 C19.422,8.24835 18.75,8.92035 18.75,9.74835 Z M10.5,5.2515 L16.5,5.2515 M10.5,27.75015 L16.5,27.75015 M23.25,6 L23.25,5.2515 C23.25,4.4235 22.578,3.7515 21.75,3.7515 L5.25,3.75 C4.422,3.75 3.75,4.422 3.75,5.25 L3.75,29.25 C3.75,30.078 4.422,30.75 5.25,30.75 L16.5,30.75"/>
</svg>
