<svg xmlns="http://www.w3.org/2000/svg" width="36" height="36" viewBox="0 0 36 36"><path fill="none" stroke="#000" stroke-width="1.5" d="M11.25,21.75 C12.5985,21.75 12.5985,23.25 13.947,23.25 C15.294,23.25 15.294,21.75 16.641,21.75 C17.991,21.75 17.991,23.25 19.341,23.25 C20.694,23.25 20.694,21.75 22.0455,21.75 C23.3985,21.75 23.3985,23.25 24.75,23.25 M29.24985,32.25 L6.74985,32.25 L6.74985,8.6475 L6.74985,3.75 L29.24985,3.75 L29.24985,32.25 Z M29.24985,11.25 L6.74985,11.25 M11.24985,7.49985 C11.24985,7.08585 10.91385,6.74985 10.49985,6.74985 C10.08585,6.74985 9.74985,7.08585 9.74985,7.49985 C9.74985,7.91385 10.08585,8.24985 10.49985,8.24985 C10.91385,8.24985 11.24985,7.91385 11.24985,7.49985 Z M22.50045,6.74985 L27.00045,6.74985 M14.99985,6.74985 L19.49985,6.74985 M24.75,22.5 C24.75,18.7725 21.7275,15.75 18,15.75 C14.2725,15.75 11.25,18.7725 11.25,22.5 C11.25,26.2275 14.2725,29.25 18,29.25 C21.7275,29.25 24.75,26.2275 24.75,22.5 Z"/></svg>