<svg xmlns="http://www.w3.org/2000/svg" width="48" height="48" viewBox="0 0 48 48">
  <path fill="none" stroke="#222" stroke-width="2" d="M11,8.0004 L11,42.0004 M8,13.0004 L11,13.0004 M14,19.0004 L23.436,19.0004 M14,13.0004 L24,13.0004 M8,19.0004 L11,19.0004 M8,30.9994 L11.004,30.9994 M14,24.9896 L19.494,24.9896 M8,25.0004 L11,25.0004 M30,9.0004 L10.996,37.9244 M27.371,13.0004 L25.999,13.0004 M14,30.9896 L15.552,30.9896 M42,9.0004 L20.994,38.8964 M21,8.0004 L21,22.7124 M20,30.9994 L30,30.9994 M24,25.0004 L34,25.0004 M28,19.0004 L38,19.0004 M32,13.0004 L42,13.0004 M16,36.9994 L26,36.9994 M8,36.9994 L11.004,36.9994 M21,36.9994 L21,41.9994"/>
</svg>
