<svg xmlns="http://www.w3.org/2000/svg" width="48" height="48" viewBox="0 0 48 48">
  <path fill="none" stroke="#000" stroke-width="2" d="M11,36.9994 L11,30.9994 L11.004,30.9994 L11,30.9994 L11,36.9994 L8,36.9994 L11,36.9994 Z M11,36.9994 L11,40.8024 L11,36.9994 L11.004,36.9994 L11,36.9994 Z M21,19.0004 L21,22.7124 L21,19.0004 L23.436,19.0004 L21,19.0004 L21,13.0004 L24,13.0004 L21,13.0004 L21,8.0004 L21,13.0004 L14,13.0004 L21,13.0004 L21,19.0004 L14,19.0004 L21,19.0004 Z M11,30.9994 L11,8.0004 L11,30.9994 L8,30.9994 L11,30.9994 Z M8,13.0004 L11,13.0004 L8,13.0004 Z M8,19.0004 L11,19.0004 L8,19.0004 Z M14,24.9896 L19.494,24.9896 L14,24.9896 Z M8,25.0004 L11,25.0004 L8,25.0004 Z M27.371,13.0004 L25.999,13.0004 L27.371,13.0004 Z M14,30.9896 L15.552,30.9896 L14,30.9896 Z M20,30.9994 L30,30.9994 L20,30.9994 Z M24,25.0004 L34,25.0004 L24,25.0004 Z M28,19.0004 L38,19.0004 L28,19.0004 Z M32,13.0004 L42,13.0004 L32,13.0004 Z M16,36.9994 L26,36.9994 L16,36.9994 Z M21,36.9994 L21,40.8014 L21,36.9994 Z M30,9.0004 L10.996,37.9244 M42,9.0004 L20.994,38.8964"/>
</svg>
