<svg xmlns="http://www.w3.org/2000/svg" width="48" height="48" viewBox="0 0 48 48">
  <g fill="none" fill-rule="evenodd">
    <path fill="#000" d="M27,22 C27,23.658 25.658,25 24,25 C22.344,25 21,23.658 21,22 C21,20.342 22.344,19 24,19 C25.658,19 27,20.342 27,22"/>
    <path stroke="#000" stroke-width="2" d="M27,12 C27,13.658 25.658,15 24,15 C22.344,15 21,13.658 21,12 C21,10.342 22.344,9 24,9 C25.658,9 27,10.342 27,12 Z M27,22 C27,23.658 25.658,25 24,25 C22.344,25 21,23.658 21,22 C21,20.342 22.344,19 24,19 C25.658,19 27,20.342 27,22 Z M27,32 C27,33.656 25.658,35 24,35 C22.344,35 21,33.656 21,32 C21,30.344 22.344,29 24,29 C25.658,29 27,30.344 27,32 Z M25,39 L25,44 M23,39 L23,44 M34,23 L38,23 M10,23 L14,23 M6,23 L8,23 M8,32 L12,28 M40,32 L36,28 M12,18 L8,14 M28.9004,5 L19.1004,5 L17.0004,7.1 L17.0004,36.9 L19.1004,39 L28.9004,39 L31.0004,36.9 L31.0004,7.1 L28.9004,5 Z M40,23 L42,23 M36,18 L40,14"/>
  </g>
</svg>
