<svg xmlns="http://www.w3.org/2000/svg" width="48" height="48" viewBox="0 0 48 48">
  <path fill="none" stroke="#000" stroke-width="2" d="M18.9952,11.0004 C18.9952,12.1044 18.0992,13.0004 16.9952,13.0004 C15.8912,13.0004 14.9952,12.1044 14.9952,11.0004 C14.9952,9.8944 15.8912,9.0004 16.9952,9.0004 C18.0992,9.0004 18.9952,9.8944 18.9952,11.0004 Z M38,11.0004 L32,11.0004 C30.558,11.0004 29.188,11.6224 28.238,12.7084 L15.73,27.0004 L10,27.0004 C7.244,27.0004 5,29.2424 5,32.0004 C5,34.7564 7.244,37.0004 10,37.0004 L18,37.0004 C19.442,37.0004 20.814,36.3784 21.762,35.2924 L34.268,21.0004 L38,21.0004 C40.758,21.0004 43,18.7564 43,16.0004 C43,13.2444 40.758,11.0004 38,11.0004 Z M14.9962,26.9994 L14.9962,16.9994 L18.9962,16.9994 L18.9962,23.2674"/>
</svg>
