<svg xmlns="http://www.w3.org/2000/svg" width="48" height="48" viewBox="0 0 48 48">
  <path fill="none" stroke="#000" stroke-width="2" d="M29,25.0004 C29,28.3484 26.348,31.0004 23,31.0004 C19.652,31.0004 17,28.3484 17,25.0004 C17,21.6524 19.652,19.0004 23,19.0004 C26.348,19.0004 29,21.6524 29,25.0004 Z M6,17.0004 L15,17.0004 L15,8.0004 M6.5,8.5004 L15,17.0004 M31,8.0004 L31,17.0004 L40,17.0004 M39.5,8.5004 L31,17.0004 M40,32.9994 L31,32.9994 L31,41.9994 M39.5,41.4994 L31,32.9994 M15,41.9994 L15,32.9994 L6,32.9994 M6.5,41.4994 L15,32.9994"/>
</svg>
