<svg xmlns="http://www.w3.org/2000/svg" width="48" height="48" viewBox="0 0 48 48">
  <g fill="none" fill-rule="evenodd" stroke="#000" stroke-width="2">
    <path d="M17,19.9994 L17,10.9994 C17,7.6854 19.686,4.9994 23,4.9994 C26.314,4.9994 29,7.6854 29,10.9994 L29,19.9994 M11,15.0004 L9,41.0004 L37,41.0004 L35,15.0004 L11,15.0004 Z M23,24.0004 L23,34.0004"/>
    <path stroke-dasharray="2 2" d="M31,28.9994 C31,24.5814 27.418,20.9994 23,20.9994 C18.582,20.9994 15,24.5814 15,28.9994 C15,33.4174 18.582,36.9994 23,36.9994 C27.418,36.9994 31,33.4174 31,28.9994 Z"/>
  </g>
</svg>
