<svg xmlns="http://www.w3.org/2000/svg" width="48" height="48" viewBox="0 0 48 48">
  <path fill="none" stroke="#000" stroke-width="2" d="M8,33.7748 C6.106,34.7108 5,35.8168 5,36.9988 C5,40.2888 13.464,42.9988 24,42.9988 C34.538,42.9988 43,40.2888 43,36.9988 C43,35.8168 41.894,34.7108 40,33.7768 M22,16.0004 L24,18.0004 L27,15.0004 M31,18.0004 C31,21.9064 27.906,25.0004 24,25.0004 C20.094,25.0004 17,21.9064 17,18.0004 C17,14.0944 20.094,11.0004 24,11.0004 C27.906,11.0004 31,14.0944 31,18.0004 Z M11,10.6 L11,37 L19,37 L19,31.018 L29,31.018 L29,37 L37,37 L37,10.6 C25.056,5.726 23.058,5.81 11,10.6 Z"/>
</svg>
