<svg xmlns="http://www.w3.org/2000/svg" width="48" height="48" viewBox="0 0 48 48">
  <path fill="none" stroke="#000" stroke-width="2" d="M7,23 L19,23 M7,33 L16,33 M16,43 L7,43 L7,18 C7,16.344 8.342,15 10,15 L11,15 L11,5 L15,5 L15,15 L16,15 C17.658,15 19,16.344 19,18 L19,24 M29,34 C29,35.656 27.658,37 26,37 C24.342,37 23,35.656 23,34 C23,32.344 24.342,31 26,31 C27.658,31 29,32.344 29,34 Z M37,37 C37,38.106 36.104,39 35,39 C33.896,39 33,38.106 33,37 C33,35.894 33.896,35 35,35 C36.104,35 37,35.894 37,37 Z M41,35 C41,33.524 41.81,32.248 43,31.554 L43,27 L37,27 L37,28 C37,29.656 35.658,31 34,31 C32.342,31 31,29.656 31,28 L31,27 L19,27 L19,43 L43,43 L43,38.446 C41.81,37.752 41,36.476 41,35 Z"/>
</svg>
