<svg xmlns="http://www.w3.org/2000/svg" width="36" height="36" viewBox="0 0 36 36"><path fill="none" stroke="#000" stroke-width="1.5" d="M8.25,24 C8.25,24.414 7.914,24.75 7.5,24.75 C7.086,24.75 6.75,24.414 6.75,24 C6.75,23.586 7.086,23.25 7.5,23.25 C7.914,23.25 8.25,23.586 8.25,24 Z M15.75,27.75 L15.75,33 M30.75,3.75 L30.75,27.75 M13.5,27.75 L33,27.75 M11.25,20.25 L3,20.25 M7.5,6.75 L3,6.75 M3,11.25 L7.5,11.25 C9.657,11.25 11.25,12.1635 11.25,14.2575 L11.25,27.75 L3,27.75 M5.25,6.75 L4.5,11.25 M8.25,27.75 L10.5,33 M12,30.75 L3,30.75 M13.5,3.75 L33,3.75 M15.75,11.25 L26.25,11.25 L26.25,6.75 L15.75,6.75 L15.75,11.25 Z M24.75,3.75 L24.75,6.75 M17.25,3.75 L17.25,6.75"/></svg>