<svg xmlns="http://www.w3.org/2000/svg" width="59" height="20" viewBox="0 0 59 20"><g fill="none" fill-rule="evenodd"><path fill="#EB0000" d="M57.207875,0 L1.792125,0 C0.802280405,0 0,0.8058 0,1.8 L0,18.2 C0,19.1942 0.802280405,20 1.792125,20 L57.207875,20 C58.1977196,20 59,19.1942 59,18.2 L59,1.8 C59,0.8058 58.1977196,0 57.207875,0 L57.207875,0 Z M57.207875,1 C57.6465878,1 58.0033784,1.3588 58.0033784,1.8 L58.0033784,18.2 C58.0033784,18.6412 57.6465878,19 57.207875,19 L1.792125,19 C1.35341216,19 0.996621622,18.6412 0.996621622,18.2 L0.996621622,1.8 C0.996621622,1.3588 1.35341216,1 1.792125,1 L57.207875,1 Z"/><path fill="#E20613" d="M6.49707601,5.91212 L6.49707601,9.25312 L7.40639358,9.25312 C7.96529899,9.25312 8.3661402,9.16312 8.60871791,8.98312 C9.0093598,8.68712 9.20968074,8.20032 9.20968074,7.52312 C9.20968074,6.95172 9.06855912,6.54032 8.7865152,6.28892 C8.50447128,6.03772 8.04443074,5.91212 7.40639358,5.91212 L6.49707601,5.91212 Z M4.17973142,4.19792 L7.96011655,4.19792 C9.05141723,4.19792 9.82938007,4.34352 10.2934071,4.63432 C11.1263834,5.15292 11.542772,6.03372 11.542772,7.27712 C11.542772,8.82732 10.9047348,9.75292 9.62905912,10.05452 C10.3880861,10.17632 10.8917787,10.48832 11.1395389,10.99092 C11.2661098,11.26072 11.349228,11.55432 11.3886943,11.87172 C11.4281605,12.18932 11.4638395,12.88252 11.4953328,13.95092 C11.5112787,14.48532 11.542772,14.85572 11.5904105,15.06212 C11.6378497,15.26832 11.7430929,15.51432 11.9067382,15.79992 L9.45504899,15.79992 C9.34422466,15.60952 9.27167061,15.36752 9.23738682,15.07392 C9.20310304,14.78032 9.17021453,14.14672 9.13852196,13.17332 C9.11739358,12.53312 9.08051858,12.08872 9.02789696,11.84012 C8.97527534,11.59132 8.8750152,11.38772 8.72731588,11.22892 C8.60094426,11.09692 8.44507264,11.00692 8.26069764,10.95912 C8.07612331,10.91172 7.79407939,10.88772 7.41456588,10.88772 L6.49707601,10.88772 L6.49707601,15.79992 L4.17973142,15.79992 L4.17973142,4.19792 Z"/><polygon fill="#E20613" points="13.054 4.198 19.515 4.198 19.515 6.118 15.371 6.118 15.371 8.856 19.262 8.856 19.262 10.745 15.371 10.745 15.371 13.88 19.681 13.88 19.681 15.8 13.054 15.8"/><path fill="#E20613" d="M40.4484068 5.75416C39.9439169 5.75416 39.536498 5.89536 39.2265486 6.17736 38.9162007 6.45956 38.7613257 6.82996 38.7613257 7.28876 38.7613257 7.76856 38.9175959 8.15236 39.2305351 8.43976 39.5430757 8.72716 39.9622547 8.87076 40.487873 8.87076 41.0132919 8.87076 41.4284845 8.72836 41.7332514 8.44356 42.0382176 8.15876 42.1907007 7.77116 42.1907007 7.28076 42.1907007 6.80096 42.0370216 6.42656 41.7294642 6.15756 41.4221061 5.88856 40.9949541 5.75416 40.4484068 5.75416M40.4326601 10.46076C39.8649845 10.46076 39.4011568 10.63616 39.041177 10.98676 38.6811973 11.33756 38.5012074 11.78696 38.5012074 12.33536 38.5012074 12.89976 38.6835892 13.35856 39.0489507 13.71176 39.4145115 14.06516 39.8887041 14.24176 40.471927 14.24176 41.1340824 14.24176 41.630998 14.04676 41.9620757 13.65636 42.2825892 13.28196 42.4430453 12.84956 42.4430453 12.35916 42.4430453 11.80016 42.2588696 11.34156 41.8909169 10.98276 41.5389101 10.63476 41.0527581 10.46076 40.4326601 10.46076M38.3275959 9.59056C37.7916128 9.40596 37.3804068 9.10296 37.0939777 8.68096 36.8073493 8.25896 36.6644338 7.74756 36.6644338 7.14636 36.6644338 6.14456 37.0742446 5.34556 37.8942649 4.74956 38.6194068 4.22236 39.4812851 3.95856 40.4799 3.95856 41.6152514 3.95856 42.5427074 4.27236 43.2628662 4.89996 43.9459507 5.49056 44.2875926 6.22076 44.2875926 7.09096 44.2875926 7.69736 44.1430824 8.21696 43.8540622 8.64936 43.5650419 9.08176 43.1550318 9.39556 42.6242311 9.59056 43.0394236 9.71196 43.378275 9.86736 43.6413831 10.05736 44.3717074 10.58996 44.7370689 11.36776 44.7370689 12.39076 44.7370689 13.56676 44.2875926 14.50276 43.3890385 15.19896 42.6322041 15.78416 41.6597007 16.07696 40.471927 16.07696 39.1842919 16.07696 38.1595655 15.75536 37.3975486 15.11196 36.6038392 14.44216 36.2071838 13.56416 36.2071838 12.47776 36.2071838 11.46016 36.5591905 10.67156 37.2634034 10.11256 37.5841162 9.86476 37.9387142 9.69076 38.3275959 9.59056M49.4195561 5.91236C48.6627216 5.91236 48.1476676 6.35016 47.8743939 7.22536 47.6589243 7.92156 47.5512892 8.89716 47.5512892 10.15216 47.5512892 11.25956 47.6617149 12.14836 47.8823669 12.81796 48.1662047 13.68796 48.691823 14.12316 49.4590223 14.12316 50.0950662 14.12316 50.5680628 13.78576 50.8780122 13.11056 51.1881608 12.43556 51.3430358 11.40476 51.3430358 10.01776 51.3430358 8.83656 51.2330088 7.90576 51.0121574 7.22536 50.7283196 6.35016 50.1973196 5.91236 49.4195561 5.91236M49.5064615 3.95856C50.3840865 3.95856 51.1566676 4.22756 51.8240054 4.76536 52.4863601 5.30336 52.9673297 6.13116 53.2667149 7.24916 53.4927486 8.10356 53.6057655 9.03176 53.6057655 10.03356 53.6057655 11.69476 53.3113635 13.06056 52.7227588 14.13096 52.3759345 14.75336 51.9226709 15.23336 51.3629682 15.57076 50.8030662 15.90816 50.1791811 16.07696 49.4905155 16.07696 48.5499041 16.07696 47.7458297 15.79216 47.0782926 15.22256 45.8905189 14.21016 45.2965324 12.48056 45.2965324 10.03356 45.2965324 8.29336 45.6066811 6.89596 46.2267791 5.84116 46.5789851 5.23996 47.0400223 4.77596 47.6104885 4.44896 48.1805561 4.12196 48.8126135 3.95856 49.5064615 3.95856"/></g></svg>