<svg xmlns="http://www.w3.org/2000/svg" xmlns:xlink="http://www.w3.org/1999/xlink" width="59" height="20" viewBox="0 0 59 20"><defs><polygon id="a" points="0 0 59 0 59 20 0 20"/></defs><g fill="none" fill-rule="evenodd"><mask id="b" fill="#fff"><use xlink:href="#a"/></mask><path fill="#E20613" d="M57.2078943,20 L1.79212561,20 C0.802280676,20 0,19.1942 0,18.2 L0,1.8 C0,0.8058 0.802280676,0 1.79212561,0 L57.2078943,0 C58.1977393,0 59.0000199,0.8058 59.0000199,1.8 L59.0000199,18.2 C59.0000199,19.1942 58.1977393,20 57.2078943,20" mask="url(#b)"/><polygon fill="#FFF" points="9.22 4.2 13.276 4.2 8.258 15.8 4.185 15.8"/><path fill="#FFF" d="M25.9805193 12.36626C26.3470768 12.36626 26.6789519 12.14906 26.8268506 11.81266L30.1190916 4.20006 15.9840024 4.20006 10.9660108 15.80006 15.004323 15.80006 18.8032466 7.10966 24.796931 7.10966 23.5956029 9.88506 18.3695167 9.86606 22.5864235 15.80006 27.1838406 15.80006 24.0598294 12.36626 25.9805193 12.36626ZM41.1272794 11.22696 41.1272794 6.92396 38.1631264 11.22696 41.1272794 11.22696ZM44.7773077 11.20316 44.7773077 13.15676 43.3266248 13.15676 43.3266248 15.79876 41.0800396 15.79876 41.0800396 13.15676 36.2713386 13.15676 36.2713386 10.98956 41.1982389 4.23456 43.3266248 4.23456 43.3266248 11.20316 44.7773077 11.20316ZM53.3698633 4.23458 53.3698633 6.19638C53.3068768 6.26478 53.1203092 6.47838 52.8101604 6.83698 52.3792211 7.33258 51.950873 7.95618 51.5253154 8.70758 51.0995585 9.45898 50.7684807 10.18038 50.5318826 10.87098 50.032575 12.31058 49.7303992 13.95338 49.6253553 15.79878L47.2446247 15.79878C47.2603714 14.92878 47.4114593 13.96378 47.6978884 12.90398 47.9843176 11.84398 48.3797772 10.78398 48.8844665 9.72398 49.6042269 8.22658 50.3347508 7.11118 51.0758389 6.37818L45.6364756 6.37818 45.6364756 4.23458 53.3698633 4.23458Z"/></g></svg>