<svg xmlns="http://www.w3.org/2000/svg" width="59" height="20" viewBox="0 0 59 20">
  <g fill="none" fill-rule="evenodd">
    <rect width="59" height="20" fill="#EB0000" rx="2"/>
    <polygon fill="#FFF" fill-rule="nonzero" points="9.221 4.2 13.277 4.2 8.259 15.8 4.186 15.8"/>
    <polygon fill="#FFF" fill-rule="nonzero" points="15.948 4.2 30.343 4.2 28.853 7.645 18.572 7.645 16.531 12.355 26.816 12.355 25.326 15.8 10.931 15.8"/>
    <path fill="#FFF" d="M40.58554 5.75406C40.07934 5.75406 39.67054 5.89526 39.35954 6.17726 39.04814 6.45926 38.89274 6.82986 38.89274 7.28866 38.89274 7.76846 39.04954 8.15206 39.36354 8.43966 39.67714 8.72706 40.09774 8.87066 40.62514 8.87066 41.15234 8.87066 41.56894 8.72826 41.87474 8.44346 42.18074 8.15866 42.33374 7.77106 42.33374 7.28086 42.33374 6.80086 42.17954 6.42646 41.87094 6.15746 41.56254 5.88866 41.13394 5.75406 40.58554 5.75406M40.56974 10.46046C40.00014 10.46046 39.53474 10.63586 39.17354 10.98666 38.81234 11.33746 38.63174 11.78686 38.63174 12.33526 38.63174 12.89966 38.81474 13.35826 39.18134 13.71166 39.54814 14.06506 40.02394 14.24166 40.60914 14.24166 41.27354 14.24166 41.77214 14.04666 42.10434 13.65626 42.42594 13.28206 42.58694 12.84966 42.58694 12.35886 42.58694 11.80006 42.40214 11.34146 42.03294 10.98286 41.67974 10.63466 41.19194 10.46046 40.56974 10.46046M38.45754 9.59066C37.91974 9.40606 37.50714 9.10266 37.21974 8.68086 36.93214 8.25886 36.78874 7.74746 36.78874 7.14626 36.78874 6.14426 37.19994 5.34546 38.02274 4.74966 38.75034 4.22226 39.61514 3.95846 40.61714 3.95846 41.75634 3.95846 42.68694 4.27226 43.40954 4.89986 44.09494 5.49046 44.43774 6.22066 44.43774 7.09106 44.43774 7.69746 44.29274 8.21666 44.00274 8.64926 43.71274 9.08166 43.30134 9.39546 42.76874 9.59066 43.18534 9.71186 43.52534 9.86726 43.78934 10.05726 44.52214 10.58986 44.88874 11.36766 44.88874 12.39066 44.88874 13.56666 44.43774 14.50266 43.53614 15.19886 42.77674 15.78406 41.80094 16.07686 40.60914 16.07686 39.31714 16.07686 38.28894 15.75526 37.52434 15.11166 36.72794 14.44206 36.32994 13.56406 36.32994 12.47766 36.32994 11.45986 36.68314 10.67166 37.38974 10.11246 37.71154 9.86486 38.06734 9.69086 38.45754 9.59066M51.40664 4.2353L51.40664 15.7999 49.09684 15.7999 49.09684 8.2301 48.27424 8.2301 47.45164 8.2301 46.65244 8.2301 46.37584 8.2301 46.37584 6.5531C46.93984 6.5371 47.40004 6.4793 47.75604 6.3789 48.11184 6.2789 48.43744 6.1153 48.73284 5.8887 49.16024 5.5617 49.44744 5.0105 49.59504 4.2353L51.40664 4.2353z"/>
  </g>
</svg>
