<svg xmlns="http://www.w3.org/2000/svg" width="59" height="20" viewBox="0 0 59 20"><g fill="none" fill-rule="evenodd"><path fill="#EB0000" d="M57.207875,0 L1.792125,0 C0.802280405,0 0,0.8058 0,1.8 L0,18.2 C0,19.1942 0.802280405,20 1.792125,20 L57.207875,20 C58.1977196,20 59,19.1942 59,18.2 L59,1.8 C59,0.8058 58.1977196,0 57.207875,0 L57.207875,0 Z M57.207875,1 C57.6465878,1 58.0033784,1.3588 58.0033784,1.8 L58.0033784,18.2 C58.0033784,18.6412 57.6465878,19 57.207875,19 L1.792125,19 C1.35341216,19 0.996621622,18.6412 0.996621622,18.2 L0.996621622,1.8 C0.996621622,1.3588 1.35341216,1 1.792125,1 L57.207875,1 Z"/><path fill="#E20613" d="M6.49707601,5.91212 L6.49707601,9.25312 L7.40639358,9.25312 C7.96529899,9.25312 8.3661402,9.16312 8.60871791,8.98312 C9.0093598,8.68712 9.20968074,8.20032 9.20968074,7.52312 C9.20968074,6.95172 9.06855912,6.54032 8.7865152,6.28892 C8.50447128,6.03772 8.04443074,5.91212 7.40639358,5.91212 L6.49707601,5.91212 Z M4.17973142,4.19792 L7.96011655,4.19792 C9.05141723,4.19792 9.82938007,4.34352 10.2934071,4.63432 C11.1263834,5.15292 11.542772,6.03372 11.542772,7.27712 C11.542772,8.82732 10.9047348,9.75292 9.62905912,10.05452 C10.3880861,10.17632 10.8917787,10.48832 11.1395389,10.99092 C11.2661098,11.26072 11.349228,11.55432 11.3886943,11.87172 C11.4281605,12.18932 11.4638395,12.88252 11.4953328,13.95092 C11.5112787,14.48532 11.542772,14.85572 11.5904105,15.06212 C11.6378497,15.26832 11.7430929,15.51432 11.9067382,15.79992 L9.45504899,15.79992 C9.34422466,15.60952 9.27167061,15.36752 9.23738682,15.07392 C9.20310304,14.78032 9.17021453,14.14672 9.13852196,13.17332 C9.11739358,12.53312 9.08051858,12.08872 9.02789696,11.84012 C8.97527534,11.59132 8.8750152,11.38772 8.72731588,11.22892 C8.60094426,11.09692 8.44507264,11.00692 8.26069764,10.95912 C8.07612331,10.91172 7.79407939,10.88772 7.41456588,10.88772 L6.49707601,10.88772 L6.49707601,15.79992 L4.17973142,15.79992 L4.17973142,4.19792 Z"/><polygon fill="#E20613" points="13.054 4.198 19.515 4.198 19.515 6.118 15.371 6.118 15.371 8.856 19.262 8.856 19.262 10.745 15.371 10.745 15.371 13.88 19.681 13.88 19.681 15.8 13.054 15.8"/><path fill="#E20613" d="M36.5697547 7.89782C36.5960655 6.94862 36.8300723 6.15242 37.2715757 5.50902 37.9859541 4.47542 39.0609101 3.95862 40.4956466 3.95862 41.5993054 3.95862 42.4900858 4.24062 43.1681872 4.80502 43.8987108 5.41682 44.2640723 6.20782 44.2640723 7.17802 44.2640723 7.75822 44.1207581 8.25762 43.8343291 8.67702 43.5479 9.09622 43.1602142 9.37982 42.6714709 9.52722 43.2917682 9.66962 43.7819068 9.98602 44.1416872 10.47662 44.5016669 10.96702 44.6818561 11.56022 44.6818561 12.25622 44.6818561 13.40062 44.2612818 14.33662 43.4205318 15.06442 42.6425689 15.73942 41.6597007 16.07702 40.471927 16.07702 39.1842919 16.07702 38.1633527 15.70522 37.4093088 14.96162 36.6552649 14.21802 36.2779439 13.21342 36.2779439 11.94782L36.2779439 11.79762 38.4932345 11.79762C38.4932345 12.50942 38.6614642 13.05922 38.9979236 13.44682 39.3341838 13.83442 39.8097716 14.02822 40.4248865 14.02822 41.0396027 14.02822 41.5125993 13.84622 41.8438764 13.48242 42.1484439 13.13962 42.300927 12.73102 42.300927 12.25622 42.300927 11.68682 42.1063865 11.23582 41.7177041 10.90362 41.3969912 10.62962 40.9028662 10.49242 40.2357277 10.49242 40.0463696 10.49242 39.859802 10.50302 39.6758257 10.52402L39.6758257 8.82322C39.8125622 8.83402 39.9439169 8.83922 40.0700892 8.83922 41.3944 8.83922 42.0565554 8.34602 42.0565554 7.36002 42.0565554 6.92762 41.9120453 6.57822 41.6232243 6.31182 41.3338054 6.04562 40.9528966 5.91242 40.4799 5.91242 39.9385351 5.91242 39.5207514 6.08122 39.2265486 6.41862 38.9321466 6.75602 38.7744811 7.24922 38.753552 7.89782L36.5697547 7.89782ZM49.4195561 5.91236C48.6627216 5.91236 48.1476676 6.35016 47.8743939 7.22536 47.6589243 7.92156 47.5512892 8.89716 47.5512892 10.15216 47.5512892 11.25956 47.6617149 12.14836 47.8823669 12.81796 48.1662047 13.68796 48.691823 14.12316 49.4590223 14.12316 50.0950662 14.12316 50.5680628 13.78576 50.8780122 13.11056 51.1881608 12.43556 51.3430358 11.40476 51.3430358 10.01776 51.3430358 8.83656 51.2330088 7.90576 51.0121574 7.22536 50.7283196 6.35016 50.1973196 5.91236 49.4195561 5.91236M49.5064615 3.95856C50.3840865 3.95856 51.1566676 4.22756 51.8240054 4.76536 52.4863601 5.30336 52.9673297 6.13116 53.2667149 7.24916 53.4927486 8.10356 53.6057655 9.03176 53.6057655 10.03356 53.6057655 11.69476 53.3113635 13.06056 52.7227588 14.13096 52.3759345 14.75336 51.9226709 15.23336 51.3629682 15.57076 50.8030662 15.90816 50.1791811 16.07696 49.4905155 16.07696 48.5499041 16.07696 47.7458297 15.79216 47.0782926 15.22256 45.8905189 14.21016 45.2965324 12.48056 45.2965324 10.03356 45.2965324 8.29336 45.6066811 6.89596 46.2267791 5.84116 46.5789851 5.23996 47.0400223 4.77596 47.6104885 4.44896 48.1805561 4.12196 48.8126135 3.95856 49.5064615 3.95856"/></g></svg>