<svg xmlns="http://www.w3.org/2000/svg" width="59" height="20" viewBox="0 0 59 20">
  <g fill="none" fill-rule="evenodd">
    <rect width="59" height="20" fill="#EB0000" rx="2"/>
    <polygon fill="#FFF" fill-rule="nonzero" points="9.22 4.2 13.276 4.2 8.258 15.8 4.185 15.8"/>
    <path fill="#FFF" fill-rule="nonzero" d="M25.9805304,12.366254 C26.3470525,12.3662563 26.6789963,12.1490854 26.8268376,11.812566 L30.1191233,4.2 L15.9841006,4.2 L10.9660669,15.8 L15.0044375,15.8 L18.8032143,7.1096 L24.7969426,7.1096 L23.5955451,9.88506 L18.3696101,9.866038 L22.5865096,15.8 L27.1837955,15.8 L24.0598751,12.36625 L25.9805304,12.366254 Z"/>
    <path fill="#FFF" d="M41.21826 11.22792L41.21826 6.92472 38.24406 11.22792 41.21826 11.22792zM44.88066 11.20432L44.88066 13.15792 43.42506 13.15792 43.42506 15.79992 41.17086 15.79992 41.17086 13.15792 36.34566 13.15792 36.34566 10.99052 41.28946 4.23532 43.42506 4.23532 43.42506 11.20432 44.88066 11.20432zM49.58702 5.9123C48.82762 5.9123 48.31082 6.3499 48.03662 7.2253 47.82042 7.9215 47.71242 8.8971 47.71242 10.1521 47.71242 11.2595 47.82322 12.1483 48.04462 12.8179 48.32942 13.6879 48.85682 14.1231 49.62662 14.1231 50.26482 14.1231 50.73942 13.7855 51.05042 13.1105 51.36162 12.4355 51.51702 11.4047 51.51702 10.0175 51.51702 8.8365 51.40662 7.9057 51.18502 7.2253 50.90022 6.3499 50.36742 5.9123 49.58702 5.9123M49.67422 3.9585C50.55482 3.9585 51.33002 4.2273 51.99962 4.7653 52.66422 5.3031 53.14682 6.1313 53.44722 7.2493 53.67402 8.1035 53.78742 9.0317 53.78742 10.0335 53.78742 11.6945 53.49202 13.0605 52.90142 14.1309 52.55342 14.7533 52.09862 15.2331 51.53702 15.5707 50.97522 15.9081 50.34922 16.0769 49.65822 16.0769 48.71442 16.0769 47.90762 15.7921 47.23782 15.2227 46.04602 14.2101 45.45002 12.4805 45.45002 10.0335 45.45002 8.2933 45.76122 6.8959 46.38342 5.8411 46.73682 5.2399 47.19942 4.7759 47.77182 4.4489 48.34382 4.1221 48.97802 3.9585 49.67422 3.9585"/>
  </g>
</svg>
