<svg xmlns="http://www.w3.org/2000/svg" xmlns:xlink="http://www.w3.org/1999/xlink" width="59" height="20" viewBox="0 0 59 20"><defs><polygon id="a" points="0 0 59 0 59 20 0 20"/></defs><g fill="none" fill-rule="evenodd"><mask id="b" fill="#fff"><use xlink:href="#a"/></mask><path fill="#E20613" d="M57.2078943,20 L1.79212561,20 C0.802280676,20 0,19.1942 0,18.2 L0,1.8 C0,0.8058 0.802280676,0 1.79212561,0 L57.2078943,0 C58.1977393,0 59.0000199,0.8058 59.0000199,1.8 L59.0000199,18.2 C59.0000199,19.1942 58.1977393,20 57.2078943,20" mask="url(#b)"/><polygon fill="#FFF" points="9.22 4.2 13.276 4.2 8.258 15.8 4.185 15.8"/><path fill="#FFF" d="M25.9805193 12.36626C26.3470768 12.36626 26.6789519 12.14906 26.8268506 11.81266L30.1190916 4.20006 15.9840024 4.20006 10.9660108 15.80006 15.004323 15.80006 18.8032466 7.10966 24.796931 7.10966 23.5956029 9.88506 18.3695167 9.86606 22.5864235 15.80006 27.1838406 15.80006 24.0598294 12.36626 25.9805193 12.36626ZM42.301918 4.23458 42.301918 15.79878 40.0001199 15.79878 40.0001199 8.22918 39.1800994 8.22918 38.3602782 8.22918 37.5639772 8.22918 37.2883116 8.22918 37.2883116 6.55218C37.8504064 6.53638 38.3090518 6.47838 38.6638492 6.37818 39.0184473 6.27818 39.3429474 6.11438 39.6373495 5.88778 40.0631064 5.56098 40.3495356 5.00978 40.496637 4.23458L42.301918 4.23458ZM49.3809437 5.91152C48.8868185 5.91152 48.4690346 6.11452 48.1275919 6.52052 47.7859499 6.93192 47.6151289 7.45392 47.6151289 8.08672 47.6151289 8.59832 47.7385107 9.05172 47.985673 9.44732 48.3219332 9.99052 48.79493 10.26192 49.4046633 10.26192 49.9563932 10.26192 50.3978968 10.04052 50.7289746 9.59752 51.038924 9.18112 51.1941977 8.68512 51.1941977 8.11032 51.1941977 7.50412 51.0337416 6.98992 50.7132279 6.56792 50.3769677 6.13032 49.932873 5.91152 49.3809437 5.91152M45.5497296 12.89592 47.7255546 12.89592C47.9041493 13.79232 48.4217947 14.24072 49.278491 14.24072 49.7620519 14.24072 50.154721 14.07572 50.4570961 13.74632 50.7592719 13.41672 50.9916841 12.90392 51.1547315 12.20772 51.2597754 11.76492 51.3361167 11.26132 51.3833565 10.69692 51.0311503 11.19272 50.6697752 11.54472 50.2994305 11.75292 49.9288865 11.96132 49.478214 12.06552 48.9474132 12.06552 48.1012811 12.06552 47.3655748 11.81752 46.7400948 11.32192 46.3037738 10.97392 45.963527 10.52292 45.7191553 9.96932 45.4747836 9.41572 45.3527971 8.81452 45.3527971 8.16572 45.3527971 6.86352 45.7966925 5.80852 46.684882 5.00172 47.4468991 4.30592 48.3613994 3.95772 49.4281836 3.95772 50.0851568 3.95772 50.6922989 4.10552 51.2494106 4.40072 51.8063229 4.69612 52.2741373 5.11532 52.652455 5.65832 53.319793 6.62352 53.6536614 7.97872 53.6536614 9.72392 53.6536614 11.33772 53.3592592 12.71412 52.7706543 13.85292 52.0034547 15.33492 50.8419915 16.07552 49.2862646 16.07552 48.2509737 16.07552 47.3956728 15.78832 46.7203617 15.21352 46.0450507 14.63892 45.6547735 13.86612 45.5497296 12.89592"/></g></svg>