<svg xmlns="http://www.w3.org/2000/svg" width="59" height="20" viewBox="0 0 59 20"><g fill="none" fill-rule="evenodd"><path fill="#EB0000" d="M57.207875,0 L1.792125,0 C0.802280405,0 0,0.8058 0,1.8 L0,18.2 C0,19.1942 0.802280405,20 1.792125,20 L57.207875,20 C58.1977196,20 59,19.1942 59,18.2 L59,1.8 C59,0.8058 58.1977196,0 57.207875,0 L57.207875,0 Z M57.207875,1 C57.6465878,1 58.0033784,1.3588 58.0033784,1.8 L58.0033784,18.2 C58.0033784,18.6412 57.6465878,19 57.207875,19 L1.792125,19 C1.35341216,19 0.996621622,18.6412 0.996621622,18.2 L0.996621622,1.8 C0.996621622,1.3588 1.35341216,1 1.792125,1 L57.207875,1 Z"/><path fill="#E20613" d="M6.49707601,5.91212 L6.49707601,9.25312 L7.40639358,9.25312 C7.96529899,9.25312 8.3661402,9.16312 8.60871791,8.98312 C9.0093598,8.68712 9.20968074,8.20032 9.20968074,7.52312 C9.20968074,6.95172 9.06855912,6.54032 8.7865152,6.28892 C8.50447128,6.03772 8.04443074,5.91212 7.40639358,5.91212 L6.49707601,5.91212 Z M4.17973142,4.19792 L7.96011655,4.19792 C9.05141723,4.19792 9.82938007,4.34352 10.2934071,4.63432 C11.1263834,5.15292 11.542772,6.03372 11.542772,7.27712 C11.542772,8.82732 10.9047348,9.75292 9.62905912,10.05452 C10.3880861,10.17632 10.8917787,10.48832 11.1395389,10.99092 C11.2661098,11.26072 11.349228,11.55432 11.3886943,11.87172 C11.4281605,12.18932 11.4638395,12.88252 11.4953328,13.95092 C11.5112787,14.48532 11.542772,14.85572 11.5904105,15.06212 C11.6378497,15.26832 11.7430929,15.51432 11.9067382,15.79992 L9.45504899,15.79992 C9.34422466,15.60952 9.27167061,15.36752 9.23738682,15.07392 C9.20310304,14.78032 9.17021453,14.14672 9.13852196,13.17332 C9.11739358,12.53312 9.08051858,12.08872 9.02789696,11.84012 C8.97527534,11.59132 8.8750152,11.38772 8.72731588,11.22892 C8.60094426,11.09692 8.44507264,11.00692 8.26069764,10.95912 C8.07612331,10.91172 7.79407939,10.88772 7.41456588,10.88772 L6.49707601,10.88772 L6.49707601,15.79992 L4.17973142,15.79992 L4.17973142,4.19792 Z"/><polygon fill="#E20613" points="13.054 4.198 19.515 4.198 19.515 6.118 15.371 6.118 15.371 8.856 19.262 8.856 19.262 10.745 15.371 10.745 15.371 13.88 19.681 13.88 19.681 15.8 13.054 15.8"/><path fill="#E20613" d="M26.2918108 7.9392C26.3181216 6.99 26.5521284 6.1938 26.9936318 5.5504 27.7080101 4.5168 28.7829662 4 30.2177027 4 31.3213615 4 32.2121419 4.282 32.8902432 4.8464 33.6207669 5.4582 33.9861284 6.2492 33.9861284 7.2194 33.9861284 7.7996 33.8428142 8.299 33.5563851 8.7184 33.2699561 9.1376 32.8822703 9.4212 32.393527 9.5686 33.0138243 9.711 33.5039628 10.0274 33.8637432 10.518 34.223723 11.0084 34.4039122 11.6016 34.4039122 12.2976 34.4039122 13.442 33.9833378 14.378 33.1425878 15.1058 32.364625 15.7808 31.3817568 16.1184 30.1939831 16.1184 28.906348 16.1184 27.8854088 15.7466 27.1313649 15.003 26.3773209 14.2594 26 13.2548 26 11.9892L26 11.839 28.2152905 11.839C28.2152905 12.5508 28.3835203 13.1006 28.7199797 13.4882 29.0562399 13.8758 29.5318277 14.0696 30.1469426 14.0696 30.7616588 14.0696 31.2346554 13.8876 31.5659324 13.5238 31.8705 13.181 32.0229831 12.7724 32.0229831 12.2976 32.0229831 11.7282 31.8284426 11.2772 31.4397601 10.945 31.1190473 10.671 30.6249223 10.5338 29.9577838 10.5338 29.7684257 10.5338 29.5818581 10.5444 29.3978818 10.5654L29.3978818 8.8646C29.5346182 8.8754 29.665973 8.8806 29.7921453 8.8806 31.1164561 8.8806 31.7786115 8.3874 31.7786115 7.4014 31.7786115 6.969 31.6341014 6.6196 31.3452804 6.3532 31.0558615 6.087 30.6749527 5.9538 30.2019561 5.9538 29.6605912 5.9538 29.2428074 6.1226 28.9486047 6.46 28.6542027 6.7974 28.4965372 7.2906 28.4756081 7.9392L26.2918108 7.9392ZM38.6537304 5.91236C37.8968959 5.91236 37.3818419 6.35016 37.1085682 7.22536 36.8930986 7.92156 36.7854635 8.89716 36.7854635 10.15216 36.7854635 11.25956 36.8958892 12.14836 37.1165412 12.81796 37.4003791 13.68796 37.9259973 14.12316 38.6931966 14.12316 39.3292405 14.12316 39.8022372 13.78576 40.1121865 13.11056 40.4223351 12.43556 40.5772101 11.40476 40.5772101 10.01776 40.5772101 8.83656 40.4671831 7.90576 40.2463318 7.22536 39.9624939 6.35016 39.4314939 5.91236 38.6537304 5.91236M38.7406358 3.95856C39.6182608 3.95856 40.3908419 4.22756 41.0581797 4.76536 41.7205345 5.30336 42.2015041 6.13116 42.5008892 7.24916 42.726923 8.10356 42.8399399 9.03176 42.8399399 10.03356 42.8399399 11.69476 42.5455378 13.06056 41.9569331 14.13096 41.6101088 14.75336 41.1568453 15.23336 40.5971426 15.57076 40.0372405 15.90816 39.4133554 16.07696 38.7246899 16.07696 37.7840784 16.07696 36.9800041 15.79216 36.3124669 15.22256 35.1246932 14.21016 34.5307068 12.48056 34.5307068 10.03356 34.5307068 8.29336 34.8408554 6.89596 35.4609534 5.84116 35.8131595 5.23996 36.2741966 4.77596 36.8446628 4.44896 37.4147304 4.12196 38.0467878 3.95856 38.7406358 3.95856"/></g></svg>