<svg xmlns="http://www.w3.org/2000/svg" width="59" height="20" version="1.1" viewBox="0 0 59 20">
  <g fill="none" fill-rule="evenodd" stroke="none" stroke-width="1">
    <path fill="#E20613" d="M57.2078738,20 L1.79208635,20 C0.802440407,20 -3.98648918e-05,19.1942 -3.98648918e-05,18.2 L-3.98648918e-05,1.8 C-3.98648918e-05,0.8058 0.802440407,-1.59872116e-14 1.79208635,-1.59872116e-14 L57.2078738,-1.59872116e-14 C58.1977191,-1.59872116e-14 59,0.8058 59,1.8 L59,18.2 C59,19.1942 58.1977191,20 57.2078738,20"/>
    <polygon fill="#FFF" points="33.278 15.747 30.74 15.747 28.666 4.19 31.04 4.19 32.506 12.933 37.291 4.19 39.648 4.19"/>
    <path fill="#FFF" d="M21.8908486 9.57429127L27.062521 9.57429127 26.0220473 14.5330852C25.4121145 14.9273489 24.6644484 15.2612174 23.7790492 15.5342919 22.8932513 15.8075657 21.9907101 15.9443023 21.0710271 15.9443023 19.6412727 15.9443023 18.5455862 15.6209981 17.7835688 14.9745888 16.7428958 14.0917808 16.2226589 12.8119185 16.2226589 11.1354004 16.2226589 10.0106125 16.4459023 8.93306448 16.8925884 7.90295568 17.4285719 6.66275889 18.1907886 5.70081905 19.1790393 5.01753481 20.1670907 4.33444989 21.3285543 3.99280777 22.6634302 3.99280777 23.9983061 3.99280777 25.0690771 4.30295662 25.8759425 4.92305502 26.6828079 5.54315341 27.2175954 6.44728915 27.4803051 7.6350636L25.2652123 7.88720905C25.0704723 7.23561739 24.7565363 6.74408327 24.3230056 6.41300535 23.8892756 6.08192742 23.3441232 5.91628879 22.6871498 5.91628879 21.9197506 5.91628879 21.215338 6.1160119 20.5743105 6.51545812 19.9330837 6.91490433 19.4311848 7.53241151 19.0686136 8.36817896 18.705843 9.2037471 18.5244578 10.1156565 18.5244578 11.1037078 18.5244578 12.0762119 18.7453093 12.7947766 19.186813 13.2599998 19.6281173 13.7250238 20.2747259 13.9576354 21.1260406 13.9576354 21.6359126 13.9576354 22.15894 13.88548 22.6949234 13.7407704 23.2311062 13.5962602 23.693539 13.4242432 24.082421 13.2243208L24.4372185 11.5057453 21.4886118 11.5057453 21.8908486 9.57429127zM6.51406285 11.1668339C6.51406285 11.9603446 6.75584342 12.625291 7.23940455 13.1612744 7.72276637 13.6974572 8.35881072 13.9655486 9.14713895 13.9655486 9.78836574 13.9655486 10.404677 13.753866 10.9958733 13.3308995 11.587269 12.907933 12.0760126 12.2667063 12.4623034 11.4072192 12.8485942 10.5479315 13.0417396 9.71096805 13.0417396 8.89632898 13.0417396 7.9870108 12.7971684 7.27362856 12.3084249 6.75598294 11.8196813 6.23833732 11.1969917 5.97941485 10.4401567 5.97941485 9.27849377 5.97941485 8.33389516 6.52078008 7.60596223 7.60351054 6.87782999 8.686241 6.51406285 9.87381613 6.51406285 11.1668339M4.16482477 11.2140738C4.16482477 10.5309889 4.26727755 9.8108296 4.47218309 9.05399463 4.74027449 8.03983178 5.1486903 7.15941565 5.69802851 6.41294555 6.2471674 5.66667477 6.93981989 5.07667438 7.77538802 4.64294435 8.61115548 4.20941366 9.5623318 3.99274797 10.6293156 3.99274797 12.0588706 3.99274797 13.2137566 4.43684286 14.0941727 5.32503265 14.9743895 6.21322244 15.4146972 7.39063202 15.4146972 8.85686274 15.4146972 10.0763298 15.128268 11.2563306 14.5554095 12.3966658 13.982551 13.5372004 13.2045876 14.414826 12.2219181 15.0297419 11.2390491 15.6446579 10.1274166 15.9522155 8.88702053 15.9522155 7.80967183 15.9522155 6.90553608 15.7078437 6.17501194 15.2191001 5.4444878 14.7301573 4.92664286 14.1244102 4.62207508 13.4018591 4.31730798 12.6791086 4.16482477 11.9499797 4.16482477 11.2140738"/>
  </g>
</svg>
