<svg xmlns="http://www.w3.org/2000/svg" width="59" height="20" viewBox="0 0 59 20"><g fill="none" fill-rule="evenodd"><path fill="#EB0000" d="M57.207875,0 L1.792125,0 C0.802280405,0 0,0.8058 0,1.8 L0,18.2 C0,19.1942 0.802280405,20 1.792125,20 L57.207875,20 C58.1977196,20 59,19.1942 59,18.2 L59,1.8 C59,0.8058 58.1977196,0 57.207875,0 L57.207875,0 Z M57.207875,1 C57.6465878,1 58.0033784,1.3588 58.0033784,1.8 L58.0033784,18.2 C58.0033784,18.6412 57.6465878,19 57.207875,19 L1.792125,19 C1.35341216,19 0.996621622,18.6412 0.996621622,18.2 L0.996621622,1.8 C0.996621622,1.3588 1.35341216,1 1.792125,1 L57.207875,1 Z"/><path fill="#E20613" d="M6.49707601,5.91212 L6.49707601,9.25312 L7.40639358,9.25312 C7.96529899,9.25312 8.3661402,9.16312 8.60871791,8.98312 C9.0093598,8.68712 9.20968074,8.20032 9.20968074,7.52312 C9.20968074,6.95172 9.06855912,6.54032 8.7865152,6.28892 C8.50447128,6.03772 8.04443074,5.91212 7.40639358,5.91212 L6.49707601,5.91212 Z M4.17973142,4.19792 L7.96011655,4.19792 C9.05141723,4.19792 9.82938007,4.34352 10.2934071,4.63432 C11.1263834,5.15292 11.542772,6.03372 11.542772,7.27712 C11.542772,8.82732 10.9047348,9.75292 9.62905912,10.05452 C10.3880861,10.17632 10.8917787,10.48832 11.1395389,10.99092 C11.2661098,11.26072 11.349228,11.55432 11.3886943,11.87172 C11.4281605,12.18932 11.4638395,12.88252 11.4953328,13.95092 C11.5112787,14.48532 11.542772,14.85572 11.5904105,15.06212 C11.6378497,15.26832 11.7430929,15.51432 11.9067382,15.79992 L9.45504899,15.79992 C9.34422466,15.60952 9.27167061,15.36752 9.23738682,15.07392 C9.20310304,14.78032 9.17021453,14.14672 9.13852196,13.17332 C9.11739358,12.53312 9.08051858,12.08872 9.02789696,11.84012 C8.97527534,11.59132 8.8750152,11.38772 8.72731588,11.22892 C8.60094426,11.09692 8.44507264,11.00692 8.26069764,10.95912 C8.07612331,10.91172 7.79407939,10.88772 7.41456588,10.88772 L6.49707601,10.88772 L6.49707601,15.79992 L4.17973142,15.79992 L4.17973142,4.19792 Z"/><polygon fill="#E20613" points="13.054 4.198 19.515 4.198 19.515 6.118 15.371 6.118 15.371 8.856 19.262 8.856 19.262 10.745 15.371 10.745 15.371 13.88 19.681 13.88 19.681 15.8 13.054 15.8"/><path fill="#E20613" d="M30.241223 5.7956C29.7367331 5.7956 29.3293142 5.9368 29.0193649 6.2188 28.7090169 6.501 28.5541419 6.8714 28.5541419 7.3302 28.5541419 7.81 28.7104122 8.1938 29.0233514 8.4812 29.3358919 8.7686 29.7550709 8.9122 30.2806892 8.9122 30.8061081 8.9122 31.2213007 8.7698 31.5260676 8.485 31.8310338 8.2002 31.9835169 7.8126 31.9835169 7.3222 31.9835169 6.8424 31.8298378 6.468 31.5222804 6.199 31.2149223 5.93 30.7877703 5.7956 30.241223 5.7956M30.2254764 10.5022C29.6578007 10.5022 29.193973 10.6776 28.8339932 11.0282 28.4740135 11.379 28.2940236 11.8284 28.2940236 12.3768 28.2940236 12.9412 28.4764054 13.4 28.8417669 13.7532 29.2073277 14.1066 29.6815203 14.2832 30.2647432 14.2832 30.9268986 14.2832 31.4238142 14.0882 31.7548919 13.6978 32.0754054 13.3234 32.2358615 12.891 32.2358615 12.4006 32.2358615 11.8416 32.0516858 11.383 31.6837331 11.0242 31.3317264 10.6762 30.8455743 10.5022 30.2254764 10.5022M28.1204122 9.632C27.5844291 9.4474 27.173223 9.1444 26.8867939 8.7224 26.6001655 8.3004 26.45725 7.789 26.45725 7.1878 26.45725 6.186 26.8670608 5.387 27.6870811 4.791 28.412223 4.2638 29.2741014 4 30.2727162 4 31.4080676 4 32.3355236 4.3138 33.0556824 4.9414 33.7387669 5.532 34.0804088 6.2622 34.0804088 7.1324 34.0804088 7.7388 33.9358986 8.2584 33.6468784 8.6908 33.3578581 9.1232 32.947848 9.437 32.4170473 9.632 32.8322399 9.7534 33.1710912 9.9088 33.4341993 10.0988 34.1645236 10.6314 34.5298851 11.4092 34.5298851 12.4322 34.5298851 13.6082 34.0804088 14.5442 33.1818547 15.2404 32.4250203 15.8256 31.4525169 16.1184 30.2647432 16.1184 28.9771081 16.1184 27.9523818 15.7968 27.1903649 15.1534 26.3966554 14.4836 26 13.6056 26 12.5192 26 11.5016 26.3520068 10.713 27.0562196 10.154 27.3769324 9.9062 27.7315304 9.7322 28.1204122 9.632M39.2123723 5.9538C38.4555378 5.9538 37.9404838 6.3916 37.6672101 7.2668 37.4517405 7.963 37.3441054 8.9386 37.3441054 10.1936 37.3441054 11.301 37.4545311 12.1898 37.6751831 12.8594 37.9590209 13.7294 38.4846392 14.1646 39.2518385 14.1646 39.8878824 14.1646 40.3608791 13.8272 40.6708284 13.152 40.980977 12.477 41.135852 11.4462 41.135852 10.0592 41.135852 8.878 41.025825 7.9472 40.8049736 7.2668 40.5211358 6.3916 39.9901358 5.9538 39.2123723 5.9538M39.2992777 4C40.1769027 4 40.9494838 4.269 41.6168216 4.8068 42.2791764 5.3448 42.7601459 6.1726 43.0595311 7.2906 43.2855649 8.145 43.3985818 9.0732 43.3985818 10.075 43.3985818 11.7362 43.1041797 13.102 42.515575 14.1724 42.1687507 14.7948 41.7154872 15.2748 41.1557845 15.6122 40.5958824 15.9496 39.9719973 16.1184 39.2833318 16.1184 38.3427203 16.1184 37.5386459 15.8336 36.8711088 15.264 35.6833351 14.2516 35.0893486 12.522 35.0893486 10.075 35.0893486 8.3348 35.3994973 6.9374 36.0195953 5.8826 36.3718014 5.2814 36.8328385 4.8174 37.4033047 4.4904 37.9733723 4.1634 38.6054297 4 39.2992777 4"/></g></svg>