<svg xmlns="http://www.w3.org/2000/svg" xmlns:xlink="http://www.w3.org/1999/xlink" width="59" height="20" viewBox="0 0 59 20"><defs><polygon id="a" points="0 0 59 0 59 20 0 20"/></defs><g fill="none" fill-rule="evenodd"><mask id="b" fill="#fff"><use xlink:href="#a"/></mask><path fill="#E20613" d="M57.2078943,20 L1.79212561,20 C0.802280676,20 0,19.1942 0,18.2 L0,1.8 C0,0.8058 0.802280676,0 1.79212561,0 L57.2078943,0 C58.1977393,0 59.0000199,0.8058 59.0000199,1.8 L59.0000199,18.2 C59.0000199,19.1942 58.1977393,20 57.2078943,20" mask="url(#b)"/><polygon fill="#FFF" points="9.22 4.2 13.276 4.2 8.258 15.8 4.185 15.8"/><path fill="#FFF" d="M25.9805193 12.36626C26.3470768 12.36626 26.6789519 12.14906 26.8268506 11.81266L30.1190916 4.20006 15.9840024 4.20006 10.9660108 15.80006 15.004323 15.80006 18.8032466 7.10966 24.796931 7.10966 23.5956029 9.88506 18.3695167 9.86606 22.5864235 15.80006 27.1838406 15.80006 24.0598294 12.36626 25.9805193 12.36626ZM41.1272794 11.22696 41.1272794 6.92396 38.1631264 11.22696 41.1272794 11.22696ZM44.7773077 11.20316 44.7773077 13.15676 43.3266248 13.15676 43.3266248 15.79876 41.0800396 15.79876 41.0800396 13.15676 36.2713386 13.15676 36.2713386 10.98956 41.1982389 4.23456 43.3266248 4.23456 43.3266248 11.20316 44.7773077 11.20316ZM49.4755431 5.75332C48.971053 5.75332 48.563634 5.89432 48.2536845 6.17632 47.9435358 6.45852 47.7886607 6.82912 47.7886607 7.28792 47.7886607 7.76772 47.9449311 8.15132 48.257671 8.43872 48.5702117 8.72612 48.9893909 8.86972 49.5150093 8.86972 50.0404284 8.86972 50.4556211 8.72732 50.7605874 8.44252 51.0653544 8.15772 51.2178376 7.77032 51.2178376 7.27992 51.2178376 6.80012 51.0639591 6.42552 50.7566009 6.15672 50.4492427 5.88772 50.0220905 5.75332 49.4755431 5.75332M49.4597964 10.45952C48.8923199 10.45952 48.4282927 10.63492 48.0683129 10.98572 47.708333 11.33632 47.5283431 11.78592 47.5283431 12.33432 47.5283431 12.89872 47.7109242 13.35752 48.0762858 13.71052 48.4416474 14.06412 48.9158402 14.24072 49.4992627 14.24072 50.1614183 14.24072 50.6581347 14.04552 50.9892125 13.65532 51.3097261 13.28092 51.4699829 12.84852 51.4699829 12.35792 51.4699829 11.79912 51.2860065 11.34052 50.918253 10.98172 50.5660468 10.63352 50.0798946 10.45952 49.4597964 10.45952M47.3549309 9.58972C46.8189476 9.40512 46.4077414 9.10192 46.1213122 8.67992 45.8346837 8.25812 45.6917681 7.74652 45.6917681 7.14552 45.6917681 6.14352 46.1015791 5.34472 46.9214003 4.74872 47.6467418 4.22152 48.5084211 3.95772 49.5070363 3.95772 50.6423881 3.95772 51.5698444 4.27152 52.2898042 4.89912 52.9728888 5.48972 53.3147302 6.21992 53.3147302 7.09012 53.3147302 7.69652 53.1700207 8.21592 52.8810003 8.64832 52.5919799 9.08072 52.182169 9.39452 51.6513681 9.58972 52.0665608 9.71092 52.4054123 9.86632 52.6683212 10.05632 53.3986457 10.58892 53.7640074 11.36672 53.7640074 12.38972 53.7640074 13.56572 53.3147302 14.50152 52.4159765 15.19772 51.6593411 15.78292 50.6868374 16.07552 49.4992627 16.07552 48.2116271 16.07552 47.1867011 15.75412 46.4246839 15.11072 45.6311735 14.44092 45.234518 13.56312 45.234518 12.47672 45.234518 11.45892 45.5865249 10.67072 46.2907379 10.11172 46.6112516 9.86392 46.966049 9.68992 47.3549309 9.58972"/></g></svg>