<svg xmlns="http://www.w3.org/2000/svg" width="59" height="20" viewBox="0 0 59 20">
  <g fill="none" fill-rule="evenodd">
    <rect width="59" height="20" fill="#EB0000" rx="2"/>
    <polygon fill="#FFF" points="9.22 4.2 13.276 4.2 8.258 15.8 4.185 15.8"/>
    <path fill="#FFF" d="M25.9805902 12.36622C26.3469483 12.36622 26.6790226 12.14902 26.8269213 11.81242L30.1191611 4.20002 15.9840767 4.20002 10.9660868 15.80002 15.0043976 15.80002 18.8033199 7.10962 24.7970024 7.10962 23.5954753 9.88502 18.3695902 9.86602 22.5864956 15.80002 27.1839111 15.80002 24.059901 12.36622 25.9805902 12.36622zM40.66456 9.77248C40.11076 9.77248 39.67036 10.00448 39.34356 10.46848 39.04816 10.87988 38.90056 11.37028 38.90056 11.93988 38.90056 12.50408 39.05096 12.99728 39.35156 13.41908 39.67836 13.88848 40.12676 14.12308 40.69616 14.12308 41.24996 14.12308 41.69536 13.89908 42.03296 13.45088 42.34936 13.02888 42.50756 12.53048 42.50756 11.95568 42.50756 11.39148 42.36536 10.90908 42.08056 10.50828 41.73256 10.01768 41.26036 9.77248 40.66456 9.77248M44.58016 7.12268L42.38096 7.12268C42.17556 6.23148 41.66916 5.78568 40.86216 5.78568 40.00796 5.78568 39.40156 6.31048 39.04316 7.35988 38.89516 7.78708 38.77676 8.43308 38.68696 9.29788 39.03516 8.82848 39.40556 8.49108 39.79836 8.28528 40.19116 8.07968 40.66456 7.97688 41.21836 7.97688 42.30456 7.97688 43.17716 8.36188 43.83636 9.13168 44.46396 9.85948 44.77776 10.77188 44.77776 11.86868 44.77776 13.17128 44.35596 14.21808 43.51216 15.00908 42.75276 15.72088 41.84056 16.07688 40.77536 16.07688 39.40956 16.07688 38.34696 15.56148 37.58756 14.53048 36.82816 13.49948 36.44856 12.06108 36.44856 10.21548 36.44856 8.24328 36.85436 6.69808 37.66656 5.58008 38.45216 4.49908 39.52556 3.95868 40.88596 3.95868 42.16756 3.95868 43.14836 4.38828 43.82856 5.24788 44.21876 5.74348 44.46916 6.36848 44.58016 7.12268M53.50264 4.23536L53.50264 6.19716C53.43944 6.26556 53.25204 6.47936 52.94084 6.83796 52.50844 7.33356 52.07884 7.95696 51.65164 8.70856 51.22444 9.45996 50.89224 10.18116 50.65504 10.87196 50.15404 12.31176 49.85064 13.95436 49.74524 15.79996L47.35664 15.79996C47.37224 14.92996 47.52364 13.96476 47.81124 12.90496 48.09864 11.84496 48.49564 10.78496 49.00184 9.72496 49.72404 8.22736 50.45724 7.11216 51.20064 6.37896L45.74284 6.37896 45.74284 4.23536 53.50264 4.23536z"/>
  </g>
</svg>
