<svg xmlns="http://www.w3.org/2000/svg" width="24" height="24" viewBox="0 0 24 24"><path fill="none" stroke="#000" d="M8.5001,5.5 C8.5001,7.157 7.1571,8.5 5.5001,8.5 C3.8431,8.5 2.5001,7.157 2.5001,5.5 C2.5001,3.843 3.8431,2.5 5.5001,2.5 C7.1571,2.5 8.5001,3.843 8.5001,5.5 Z M4.0001,5.5 L5.0001,6.5 L7.0001,4.5 M21.5001,18.5 C21.5001,20.157 20.1571,21.5 18.5001,21.5 C16.8431,21.5 15.5001,20.157 15.5001,18.5 C15.5001,16.843 16.8431,15.5 18.5001,15.5 C20.1571,15.5 21.5001,16.843 21.5001,18.5 Z M17.0001,18.5 L18.0001,19.5 L20.0001,17.5 M14.4997,11.4996 C14.4997,13.1566 13.1567,14.4996 11.4997,14.4996 C9.8427,14.4996 8.4997,13.1566 8.4997,11.4996 C8.4997,9.8426 9.8427,8.4996 11.4997,8.4996 C13.1567,8.4996 14.4997,9.8426 14.4997,11.4996 Z M9.9997,11.4996 L10.9997,12.4996 L12.9997,10.4996 M8.5001,5.5 L19.5001,5.5 C20.6051,5.5 21.5001,6.395 21.5001,7.5 L21.5001,9.5 C21.5001,10.604 20.6041,11.5 19.5001,11.5 L14.5001,11.5 M8.5,11.5 L4.5,11.5 C3.395,11.5 2.5,12.395 2.5,13.5 L2.5,16.5 C2.5,17.605 3.395,18.5 4.5,18.5 L15.5,18.5"/></svg>