<svg xmlns="http://www.w3.org/2000/svg" width="24" height="24" viewBox="0 0 24 24"><path fill="none" stroke="#000" d="M2.5,14.5 L21.75,14.5 L21.75,11.5 L2.5,11.5 L2.5,14.5 Z M7.5,11.5 L7.5,14.5 M9.5001,11.5 L9.5001,14.5 M19.25,11.5 L19.25,14.5 M19.5,9.5 C18.397,9.5 17.5,8.603 17.5,7.5 C17.5,7.259 17.544,7.022 17.628,6.8 C16.923,6.234 16.5,5.378 16.5,4.469 C16.5,2.814 17.846,1.469 19.5,1.469 C21.154,1.469 22.5,2.814 22.5,4.469 C22.5,5.378 22.077,6.234 21.372,6.8 C21.456,7.022 21.5,7.259 21.5,7.5 C21.5,8.603 20.603,9.5 19.5,9.5 Z"/></svg>