<svg xmlns="http://www.w3.org/2000/svg" width="24" height="24" viewBox="0 0 24 24"><path fill="none" stroke="#000" d="M13.5,6 C13.5,6.828 12.828,7.5 12,7.5 C11.172,7.5 10.5,6.828 10.5,6 C10.5,5.172 11.172,4.5 12,4.5 C12.828,4.5 13.5,5.172 13.5,6 Z M8.5,9 C8.5,9.828 7.828,10.5 7,10.5 C6.172,10.5 5.5,9.828 5.5,9 C5.5,8.172 6.172,7.5 7,7.5 C7.828,7.5 8.5,8.172 8.5,9 Z M12.5,18 C12.5,18.828 11.828,19.5 11,19.5 C10.172,19.5 9.5,18.828 9.5,18 C9.5,17.172 10.172,16.5 11,16.5 C11.828,16.5 12.5,17.172 12.5,18 Z M20.5,10 L20.5,20 C20.5,20.828 19.828,21.5 19,21.5 L19,21.5 C18.172,21.5 17.5,20.828 17.5,20 L17.5,10 M17.5,9.9887 C16.896,9.5327 16.5,8.8157 16.5,7.9997 C16.5,7.9997 16.134,3.2497 20.5,2.4997 C20.5,2.4997 19.177,4.5357 21.058,6.5837 C21.336,6.9867 21.5,7.4737 21.5,7.9997 C21.5,8.8157 21.104,9.5327 20.5,9.9887 L17.5,9.9887 Z M17.5,12.5 L20.5,12.5 M16,3.4152 C14.854,2.8692 13.593,2.5402 12.269,2.5042 C7.619,2.3752 3.697,5.5892 2.729,9.9182 C2.497,10.9542 3.168,11.9352 4.18,12.2602 C6.115,12.8812 7.5,14.5452 7.5,16.5002 C7.5,17.0502 7.387,17.5752 7.183,18.0602 C6.767,19.0492 7.139,20.2242 8.117,20.6652 C9.302,21.2002 10.615,21.5002 12,21.5002 C13.431,21.5002 14.783,21.1752 16,20.6092"/></svg>