<svg xmlns="http://www.w3.org/2000/svg" width="24" height="24" viewBox="0 0 24 24"><path fill="none" stroke="#000" d="M10.5,6.5 C10.5,7.665 9.665,8.5 8.5,8.5 C7.335,8.5 6.5,7.665 6.5,6.5 C6.5,5.335 7.335,4.5 8.5,4.5 C9.665,4.5 10.5,5.335 10.5,6.5 Z M6.5,6.5 L2,6.5 M10.5,6.5 L22,6.5 M22,12.5 L17.5,12.5 C17.5,11.37 16.63,10.5 15.5,10.5 C14.37,10.5 13.5,11.37 13.5,12.5 L2,12.5 M10.5,18.5 C10.5,19.648 9.648,20.5 8.5,20.5 C7.352,20.5 6.5,19.648 6.5,18.5 C6.5,17.352 7.352,16.5 8.5,16.5 C9.648,16.5 10.5,17.352 10.5,18.5 Z M6.5,18.5 L2,18.5 M10.5,18.5 L13.024,18.5 M15,22 L22,15 M22,22 L15,15"/></svg>