<svg xmlns="http://www.w3.org/2000/svg" width="24" height="24" viewBox="0 0 24 24"><path fill="none" stroke="#000" d="M17.5,8.5 L6.5,8.5 L6.5,2.5 L9,4 L10.5,2.5 L12,4 L13.5,2.5 L15,4 L17.5,2.5 L17.5,8.5 Z M14.73,12.23 C14.35,12.23 14.05,12.53 14.05,12.91 C14.05,13.29 14.35,13.59 14.73,13.59 C15.1,13.59 15.41,13.29 15.41,12.91 C15.41,12.53 15.1,12.23 14.73,12.23 Z M9.27,12.23 C8.9,12.23 8.59,12.53 8.59,12.91 C8.59,13.29 8.9,13.59 9.27,13.59 C9.65,13.59 9.95,13.29 9.95,12.91 C9.95,12.53 9.65,12.23 9.27,12.23 Z M8.26,16.5 C9.06,17.71 10.44,18.5 12,18.5 C13.56,18.5 14.94,17.71 15.74,16.5 M6.5,8.5 C5.019,9.87 4.5,11.824 4.5,14 C4.5,18.142 7.858,21.5 12,21.5 C16.142,21.5 19.5,18.142 19.5,14 C19.5,11.824 18.981,9.87 17.5,8.5"/></svg>