<svg xmlns="http://www.w3.org/2000/svg" width="24" height="24" viewBox="0 0 24 24"><path fill="none" stroke="#000" d="M8.8615,17.0282 L4.1255,13.7202 C3.6955,13.3742 3.0655,13.4432 2.7205,13.8742 C2.3745,14.3052 2.4435,14.9342 2.8745,15.2802 L8.8005,20.5002 L12.7425,20.5002 L13.7505,21.5002 L21.2005,21.5002 L16.1715,16.4362 C15.0355,15.3432 13.5885,14.5282 12.1095,14.5002 L10.0005,14.5002 C8.0155,14.5002 7.9685,17.5002 10.0005,17.5002 L12.0005,17.5002 M7.5,3.5061 L12,2.5001 L16.5,3.5001 C16.5,10.0001 12,12.5001 12,12.5001 C12,12.5001 7.5,10.0001 7.5,3.5061 Z M10.3,6.75 L11.55,8 L14.05,5.5"/></svg>