<svg width="24" height="24" viewBox="0 0 24 24" fill="none" xmlns="http://www.w3.org/2000/svg">
<path fill-rule="evenodd" clip-rule="evenodd" d="M11.9997 13V5.5H12V4.5C12 4.22614 12.2261 4 12.5 4C12.7739 4 13 4.22614 13 4.5L13 5.5L13 13H14V5.5C14 5.22614 14.2261 5 14.5 5C14.7739 5 15 5.22614 15 5.5V8.47078C14.9998 8.4805 14.9997 8.49024 14.9997 8.5H15V13H16V8.48329C16.009 8.217 16.2314 8 16.4997 8C16.7736 8 16.9997 8.22614 16.9997 8.5V16C16.9997 17.4124 16.7596 18.4846 16.5249 19.1958C16.4074 19.5517 16.2912 19.8177 16.2066 19.9911L16.2022 20H9.78495L9.78343 19.9974L9.39406 19.3387C9.07049 18.7913 8.63583 18.0557 8.1915 17.3033C7.30132 15.7958 6.37633 14.2276 6.22334 13.9611C6.08672 13.7231 6.03198 13.5471 6.02678 13.4228C6.02261 13.3233 6.04752 13.2393 6.14327 13.1436C6.33801 12.9488 6.66142 12.9488 6.85616 13.1436L9.14616 15.4336L9.99971 16.2871V15.08V5.5C9.99971 5.22614 10.2259 5 10.4997 5C10.7736 5 10.9997 5.22614 10.9997 5.5V13H11.9997ZM16 7.08581C16.1564 7.03026 16.3246 7 16.4997 7C17.3259 7 17.9997 7.67386 17.9997 8.5V16C17.9997 17.5276 17.7398 18.7054 17.4745 19.5092C17.342 19.9108 17.2083 20.2185 17.1053 20.4295C17.0539 20.535 17.0101 20.6164 16.978 20.6732C16.962 20.7016 16.9488 20.7239 16.9391 20.74L16.9271 20.7596L16.9232 20.7659L16.9217 20.7681L16.9212 20.7691L16.9209 20.7695C16.9208 20.7697 16.9207 20.7698 16.4997 20.5L16.9207 20.7698L16.7731 21H16.4997H9.49972H9.2145L9.06933 20.7545L9.49972 20.5L9.06929 20.7544L9.06917 20.7542L9.06871 20.7534L9.06686 20.7503L9.05956 20.738L9.03106 20.6898L8.92261 20.5063L8.53318 19.8475C8.20957 19.3 7.77485 18.5643 7.33043 17.8117C6.44311 16.3092 5.5131 14.7324 5.35609 14.4589C5.18271 14.1569 5.04245 13.8179 5.02765 13.4647C5.01182 13.0867 5.14191 12.7307 5.43616 12.4364C6.02142 11.8512 6.97801 11.8512 7.56327 12.4364L8.99971 13.8729V5.5C8.99971 4.67386 9.67357 4 10.4997 4C10.6948 4 10.8814 4.03758 11.0527 4.10588C11.2265 3.46985 11.8102 3 12.5 3C13.1898 3 13.7734 3.4698 13.9473 4.10578C14.1185 4.03755 14.305 4 14.5 4C15.3261 4 16 4.67386 16 5.5V7.08581Z" fill="black"/>
</svg>
