<?xml version="1.0" encoding="UTF-8"?>
<svg width="24px" height="24px" viewBox="0 0 24 24" version="1.1" xmlns="http://www.w3.org/2000/svg" xmlns:xlink="http://www.w3.org/1999/xlink">
    <title>KOM/responsive/small/010-Basic/low-vision-small</title>
    <g id="KOM/responsive/small/010-Basic/low-vision-small" stroke="none" stroke-width="1" fill="none" fill-rule="evenodd">
        <path d="M7.2228,8.223 C5.3448,9.559 3.9928,11.298 3.4998,12 C4.2438,13.1 7.7498,17.5 11.9998,17.5 C13.2728,17.5 14.4658,17.112 15.5388,16.539 M17.6569,15.0898 C19.0729,13.8958 20.0879,12.5868 20.4999,11.9998 C19.7559,10.8998 16.2499,6.4998 11.9999,6.4998 C11.1389,6.4998 10.3159,6.6818 9.5399,6.9728 M15.382,12.8566 C15.452,12.5806 15.5,12.2976 15.5,11.9996 C15.5,10.0666 13.933,8.4996 12,8.4996 C11.703,8.4996 11.419,8.5486 11.143,8.6176 M12.4655,17.4655 L5.0905,10.0905 M4,5 L19,20" id="Combined-Shape" stroke="#000000"></path>
    </g>
</svg>