<svg xmlns="http://www.w3.org/2000/svg" width="24" height="24" version="1.1" viewBox="0 0 24 24">
  <path fill="none" fill-rule="evenodd" stroke="#000" stroke-width="1" d="M6.5,15.5 L18.5,15.5 L18.5,6.5 L6.5,6.5 L6.5,15.5 Z M6.5,8.5 L4.5,8.5 L4.5,12.5 L6.5,12.5 M13.5,3.5 C13.5,2.948 13.052,2.5 12.5,2.5 C11.948,2.5 11.5,2.948 11.5,3.5 C11.5,4.052 11.948,4.5 12.5,4.5 C13.052,4.5 13.5,4.052 13.5,3.5 Z M12.5,6.5 L12.5,4.5 M18.5,8.5 L20.5,8.5 L20.5,12.5 L18.5,12.5 M21.5,22 L21.5,19.175 C21.5,18.25 20.703,17.5 19.719,17.5 L5.281,17.5 C4.298,17.5 3.5,18.25 3.5,19.175 L3.5,22 M9.5,12 C10.002,12.885 11.135,13.5 12.5,13.5 C13.865,13.5 14.998,12.885 15.5,12 M10.8,10 C10.8,10.166 10.666,10.3 10.5,10.3 C10.334,10.3 10.2,10.166 10.2,10 C10.2,9.834 10.334,9.7 10.5,9.7 C10.666,9.7 10.8,9.834 10.8,10 Z M14.8,10 C14.8,10.166 14.666,10.3 14.5,10.3 C14.334,10.3 14.2,10.166 14.2,10 C14.2,9.834 14.334,9.7 14.5,9.7 C14.666,9.7 14.8,9.834 14.8,10 Z"/>
</svg>
