<svg xmlns="http://www.w3.org/2000/svg" width="36" height="36" viewBox="0 0 36 36"><path fill="none" stroke="#000" stroke-width="1.5" d="M11.25,15 L11.25,6.75 M30.75,6.75 L30.75,32.25 L11.25,32.25 L11.25,27 M15.75,14.25 L26.25,14.25 L26.25,9.75 L15.75,9.75 L15.75,14.25 Z M15.75,21.75 L26.25,21.75 L26.25,17.25 L15.75,17.25 L15.75,21.75 Z M15.75,29.25 L26.25,29.25 L26.25,24.75 L15.75,24.75 L15.75,29.25 Z M11.25,32.25 L3,32.25 M33,6.75 L9,6.75 M8.25,32.25 L8.25,24.375 M10.3437,18.80985 C10.4412,18.55785 10.4997,18.28635 10.4997,17.99985 C10.4997,16.75785 9.4932,15.74985 8.2497,15.74985 C7.0077,15.74985 5.9997,16.75785 5.9997,17.99985 C5.9997,18.28635 6.0582,18.55785 6.1557,18.80985 C4.7832,19.08585 3.7497,20.29635 3.7497,21.74985 C3.7497,23.40735 5.0937,24.74985 6.7497,24.74985 C7.2987,24.74985 7.8072,24.59085 8.2497,24.33435 C8.6922,24.59085 9.2007,24.74985 9.7497,24.74985 C11.4072,24.74985 12.7497,23.40735 12.7497,21.74985 C12.7497,20.29635 11.7162,19.08585 10.3437,18.80985 Z"/></svg>