<svg xmlns="http://www.w3.org/2000/svg" width="48" height="48" viewBox="0 0 48 48"><path fill="none" stroke="#000" d="M45.5,31 L45.5,33.5 C45.5,33.5 45.5,35.5 42.5,35.5 L37.5,35.5 L38.5,29.5 L45.5,31 Z M28.5,14.6 C34.815,17.952 40.286,22.742 44.5,28.5 L44.5,30.7 M37.7,33.5 L30,33.5 M24.8558,33.5 L21.9998,33.5 M24,38.5 L20,38.5 M28.5,17.5 L26.5,23.5 L36.5,23.5 C34.141,21.12 31.445,19.099 28.5,17.5 Z M27.5,32.5 C29.709,32.5 31.5,34.291 31.5,36.5 C31.5,38.709 29.709,40.5 27.5,40.5 C25.291,40.5 23.5,38.709 23.5,36.5 C23.5,34.291 25.291,32.5 27.5,32.5 Z M39.009,35.5 L41.5,38.5 L31,38.5 M17,42 L28,10 M24,15 L21,5.5 L15.5,5.5 L18,22.5 L10,22.5 L7.5,18.5 L3,18.5 L6.5,26 L3,33.5 L7.5,33.5 L10,29.5 L18,29.5 L17,36 M16.4,11.5 L14,11.5 C13.172,11.5 12.5,10.828 12.5,10 C12.5,9.172 13.172,8.5 14,8.5 L15.9,8.5 M17.2,17.5 L15,17.5 C14.172,17.5 13.5,16.828 13.5,16 C13.5,15.172 14.172,14.5 15,14.5 L16.8,14.5"/></svg>