<svg xmlns="http://www.w3.org/2000/svg" width="48" height="48" viewBox="0 0 48 48"><path fill="none" stroke="#000" d="M38.5,18.5 L10.5,18.5 C9.395,18.5 8.5,19.395 8.5,20.5 L8.5,30.466 C8.5,31.037 8.963,31.5 9.534,31.5 L39.459,31.5 C40.034,31.5 40.5,31.034 40.5,30.459 L40.5,20.5 C40.5,19.395 39.605,18.5 38.5,18.5 Z M17.0042,23.5 L11.9962,23.5 C11.1732,23.5 10.5002,22.827 10.5002,22.004 L10.5002,21.996 C10.5002,21.173 11.1732,20.5 11.9962,20.5 L17.0042,20.5 C17.8272,20.5 18.5002,21.173 18.5002,21.996 L18.5002,22.004 C18.5002,22.827 17.8272,23.5 17.0042,23.5 Z M37.0042,23.5 L31.9962,23.5 C31.1732,23.5 30.5002,22.827 30.5002,22.004 L30.5002,21.996 C30.5002,21.173 31.1732,20.5 31.9962,20.5 L37.0042,20.5 C37.8272,20.5 38.5002,21.173 38.5002,21.996 L38.5002,22.004 C38.5002,22.827 37.8272,23.5 37.0042,23.5 Z M19.5,29.5 L29.5,29.5 L29.5,26.5 L19.5,26.5 L19.5,29.5 Z M15.5,31.5 L15.5,33.513 C15.5,34.058 15.058,34.5 14.513,34.5 L11.489,34.5 C10.943,34.5 10.5,34.057 10.5,33.511 L10.5,31.5 M38.5,31.5 L38.5,33.513 C38.5,34.058 38.058,34.5 37.513,34.5 L34.489,34.5 C33.943,34.5 33.5,34.057 33.5,33.511 L33.5,31.5 M11,28.5 L14,28.5 M34,26.5 L39,26.5 M10,26.5 L15,26.5 M35,28.5 L38,28.5 M9.5,16.5 L8.25,16.5 C7.837,16.5 7.5,16.163 7.5,15.75 L7.5,14.25 C7.5,13.837 7.837,13.5 8.25,13.5 L9.5,13.5 M39.5,13.5 L40.75,13.5 C41.163,13.5 41.5,13.837 41.5,14.25 L41.5,15.75 C41.5,16.163 41.163,16.5 40.75,16.5 L39.5,16.5 M27.5,35.4997 L27.5,43.4997 L24,43.4997 C21.973,43.4997 20.5,41.8417 20.5,39.9997 L20.5,38.9997 C20.5,36.9217 22.248,35.4997 24,35.4997 L27.5,35.4997 Z M31,37.4997 L27.5,37.4997 M31,41.4997 L27.5,41.4997 M20.8447,37.4997 L18.4997,37.4997 L18.4997,41.4997 L20.8547,41.4997 M14,39.4997 L18.5,39.4997 M29.54,18.5 C29.51,18.34 29.5,18.17 29.5,18 C29.5,16.07 31.07,14.5 33,14.5 C34.93,14.5 36.5,16.07 36.5,18 C36.5,18.17 36.49,18.34 36.46,18.5 M39.4879,18.7708 C39.4959,18.5898 39.4999,11.4998 39.4999,11.4998 C39.4999,8.7388 37.2609,6.4998 34.4999,6.4998 L14.4999,6.4998 C11.7389,6.4998 9.4999,8.7388 9.4999,11.4998 C9.4999,11.4998 9.5049,18.5898 9.5119,18.7708"/></svg>