<svg xmlns="http://www.w3.org/2000/svg" width="48" height="48" viewBox="0 0 48 48"><path fill="none" stroke="#000" d="M41.5,27.5074 L44.5,27.5004 L41.5,27.5074 Z M3.5,27.5004 L6.5,27.5074 L3.5,27.5004 Z M37.5,17.0004 L37.5,25.0004 L37.5,17.0004 Z M34.5,17.0004 L34.5,25.0004 L34.5,17.0004 Z M28.5,17.0004 L28.5,25.0004 L28.5,17.0004 Z M31.5,17.0004 L31.5,25.0004 L31.5,17.0004 Z M25.5,17.0004 L25.5,25.0004 L25.5,17.0004 Z M22.5,17.0004 L22.5,25.0004 L22.5,17.0004 Z M19.5,17.0004 L19.5,25.0004 L19.5,17.0004 Z M16.5,17.0004 L16.5,25.0004 L16.5,17.0004 Z M10.5,17.0004 L10.5,25.0004 L10.5,17.0004 Z M13.5,17.0004 L13.5,25.0004 L13.5,17.0004 Z M6.5,29.4944 L41.5,29.4944 L41.5,15.4994 L6.5,15.4994 L6.5,29.4944 Z M6.5,26.4929 L41.5,26.4929 M3.5,26 L3.5,29 M44.5,26 L44.5,29 M37.5012,29.5 C37.5012,31.157 36.1582,32.5 34.5012,32.5 C32.8442,32.5 31.5012,31.157 31.5012,29.5 M16.5012,29.5 C16.5012,31.157 15.1582,32.5 13.5012,32.5 C11.8442,32.5 10.5012,31.157 10.5012,29.5"/></svg>