<svg xmlns="http://www.w3.org/2000/svg" width="48" height="48" viewBox="0 0 48 48"><g fill="none" fill-rule="evenodd"><path stroke="#000" d="M41.5,38.5074 L44.5,38.5004 L41.5,38.5074 Z M3.5,38.5004 L6.5,38.5074 L3.5,38.5004 Z M6.5,40.4944 L41.5,40.4944 L41.5,36.4994 L6.5,36.4994 L6.5,40.4944 Z M3.5,37 L3.5,40 M44.5,37 L44.5,40 M37.5012,40.5 C37.5012,42.157 36.1582,43.5 34.5012,43.5 C32.8442,43.5 31.5012,42.157 31.5012,40.5 M16.5012,40.5 C16.5012,42.157 15.1582,43.5 13.5012,43.5 C11.8442,43.5 10.5012,42.157 10.5012,40.5 M13.5,12.5 L34.5,12.5 L41.5,34.5 L6.5,34.5 L13.5,12.5 Z M28.5,8 C28.5,10.485 26.485,12.5 24,12.5 C21.515,12.5 19.5,10.485 19.5,8 C19.5,5.515 21.515,3.5 24,3.5 C26.485,3.5 28.5,5.515 28.5,8 Z M26.5,8.0003 C26.5,9.3813 25.381,10.5003 24,10.5003 C22.619,10.5003 21.5,9.3803 21.5,7.9993 C21.5,6.6193 22.619,5.5003 24,5.5003 C25.381,5.5003 26.5,6.6193 26.5,8.0003 Z"/><path fill="#000" d="M28.6772,17.9054 C30.1302,17.9054 31.2732,18.3344 32.1062,19.1924 C32.7252,19.8254 33.0802,20.5744 33.1672,21.4374 L31.7772,21.4374 C31.6762,20.7354 31.3402,20.1714 30.7722,19.7444 C30.2042,19.3174 29.5062,19.1044 28.6772,19.1044 C27.4682,19.1044 26.5192,19.5384 25.8322,20.4064 C25.2082,21.1964 24.8952,22.2444 24.8952,23.5514 C24.8952,24.7504 25.1802,25.7324 25.7522,26.4984 C26.4392,27.4294 27.4122,27.8944 28.6702,27.8944 C29.6392,27.8944 30.4392,27.5884 31.0682,26.9734 C31.6822,26.3694 32.0002,25.4914 32.0192,24.3414 L28.5972,24.3414 L28.5972,23.2004 L33.2842,23.2004 L33.2842,28.8464 L32.3852,28.8464 L32.1732,28.0344 C32.1142,27.8144 32.0632,27.6384 32.0192,27.5084 C31.1662,28.5654 30.0202,29.0954 28.5822,29.0954 C26.8702,29.0954 25.5472,28.4774 24.6102,27.2444 C23.8542,26.2454 23.4772,25.0304 23.4772,23.6014 C23.4772,21.9294 23.9622,20.5474 24.9322,19.4554 C25.8582,18.4224 27.1072,17.9054 28.6772,17.9054 Z M16.1281,18.1536 L16.1281,23.4566 L21.5541,18.1536 L23.4121,18.1536 L18.8911,22.4466 L23.5801,28.8456 L21.7881,28.8456 L17.8971,23.4126 L16.1281,25.0936 L16.1281,28.8456 L14.7161,28.8456 L14.7161,18.1536 L16.1281,18.1536 Z"/></g></svg>