<svg xmlns="http://www.w3.org/2000/svg" width="48" height="48" viewBox="0 0 48 48"><g fill="none" fill-rule="evenodd"><path stroke="#000" d="M5,9.5 L43,9.5 M5,36.518 L43,36.518"/><path fill="#000" d="M12.4407,14.9997 C13.5277,14.9997 14.3837,15.0677 15.0077,15.2027 C15.6307,15.3377 16.1947,15.5767 16.6987,15.9197 C18.0917,16.8537 18.7887,18.2617 18.7887,20.1437 C18.7887,21.8147 18.2127,23.1277 17.0597,24.0837 C16.5707,24.4927 16.0127,24.7867 15.3847,24.9657 C14.7577,25.1447 13.9837,25.2327 13.0647,25.2327 L9.4747,25.2327 L9.4747,30.9997 L5.9837,30.9997 L5.9837,14.9997 L12.4407,14.9997 Z M35.7915,14.9997 C37.3225,14.9997 38.4985,15.2407 39.3145,15.7227 C39.9945,16.1157 40.5115,16.6417 40.8695,17.2987 C41.2265,17.9547 41.4065,18.6957 41.4065,19.5197 C41.4065,20.4547 41.1815,21.2677 40.7325,21.9607 C40.2835,22.6547 39.6585,23.1507 38.8555,23.4487 C39.5625,23.6237 40.1175,24.0187 40.5195,24.6317 C40.7755,25.0187 40.9455,25.4237 41.0335,25.8467 C41.1215,26.2677 41.2345,27.2347 41.3735,28.7467 C41.4745,29.8537 41.6325,30.5447 41.8435,30.8147 L41.9965,30.9997 L38.3525,30.9997 C38.2285,30.7737 38.1395,30.4867 38.0845,30.1347 C38.0295,29.7857 37.9575,28.9747 37.8715,27.7057 C37.7835,26.5747 37.5085,25.7917 37.0435,25.3587 C36.5805,24.9257 35.7915,24.7077 34.6745,24.7077 L31.5345,24.7077 L31.5345,30.9997 L28.0425,30.9997 L28.0425,14.9997 L35.7915,14.9997 Z M23.679,20.1279 L23.679,23.2129 L26.775,23.2129 L26.775,24.9789 L23.679,24.9789 L23.679,28.0629 L21.913,28.0629 L21.913,24.9789 L18.828,24.9789 L18.828,23.2129 L21.913,23.2129 L21.913,20.1279 L23.679,20.1279 Z M12.4077,17.9547 L9.4747,17.9547 L9.4747,22.4867 L12.5947,22.4867 C13.5207,22.4867 14.1877,22.3227 14.5967,21.9937 C15.1007,21.5847 15.3517,20.9837 15.3517,20.1877 C15.3517,19.3847 15.0597,18.7867 14.4767,18.3927 C14.0537,18.1007 13.3637,17.9547 12.4077,17.9547 Z M35.0145,17.7477 L31.5345,17.7477 L31.5345,22.1467 L34.8715,22.1467 C35.9445,22.1467 36.6995,21.9937 37.1375,21.6877 C37.6915,21.3007 37.9695,20.7167 37.9695,19.9357 C37.9695,19.1777 37.7325,18.6227 37.2585,18.2727 C36.7835,17.9227 36.0355,17.7477 35.0145,17.7477 Z"/></g></svg>