<svg xmlns="http://www.w3.org/2000/svg" width="48" height="48" viewBox="0 0 48 48"><path fill="none" stroke="#000" d="M11.5,39.5 C11.5,40.605 10.605,41.5 9.5,41.5 C8.395,41.5 7.5,40.605 7.5,39.5 C7.5,38.395 8.395,37.5 9.5,37.5 C10.605,37.5 11.5,38.395 11.5,39.5 Z M25.5,39.5 C25.5,40.605 24.605,41.5 23.5,41.5 C22.395,41.5 21.5,40.605 21.5,39.5 C21.5,38.395 22.395,37.5 23.5,37.5 C24.605,37.5 25.5,38.395 25.5,39.5 Z M21.5,39.5 L11.5,39.5 M3.5,33.5 L27.5,33.5 C28.605,33.5 29.5,34.395 29.5,35.5 L29.5,39.5 L25.5,39.5 M15.5,27.5 L15.5,33.5 M25.5,33.5 L20.086,28.086 C19.711,27.711 19.202,27.5 18.672,27.5 L8.57,27.5 C7.902,27.5 7.277,27.834 6.906,28.391 L3.836,32.996 C3.617,33.325 3.5,33.711 3.5,34.106 L3.5,39.5 L7.5,39.5 M3.5,35.5 L4.5,35.5 C5.052,35.5 5.5,35.948 5.5,36.5 L5.5,36.5 C5.5,37.052 5.052,37.5 4.5,37.5 L3.5,37.5 M29.5,36.5 L28.035,36.5 C27.701,36.5 27.389,36.333 27.203,36.055 L25.5,33.5 M22.5,27.5 C22.5,26.395 23.395,25.5 24.5,25.5 C25.605,25.5 26.5,26.395 26.5,27.5 C26.5,28.605 25.605,29.5 24.5,29.5 M40.5,27.5 C40.5,28.605 39.605,29.5 38.5,29.5 C37.395,29.5 36.5,28.605 36.5,27.5 C36.5,26.395 37.395,25.5 38.5,25.5 C39.605,25.5 40.5,26.395 40.5,27.5 Z M36.5,27.5 L26.5,27.5 M18.5,21.5 L42.5,21.5 C43.605,21.5 44.5,22.395 44.5,23.5 L44.5,27.5 L40.5,27.5 M30.5,15.5 L30.5,21.5 M40.5,21.5 L35.086,16.086 C34.711,15.711 34.202,15.5 33.672,15.5 L23.57,15.5 C22.902,15.5 22.277,15.834 21.906,16.391 L18.836,20.996 C18.617,21.325 18.5,21.711 18.5,22.106 L18.5,26 M18.5,23.5 L19.5,23.5 C20.052,23.5 20.5,23.948 20.5,24.5 L20.5,24.5 C20.5,25.052 20.052,25.5 19.5,25.5 L18.5,25.5 M44.5,24.5 L43.035,24.5 C42.701,24.5 42.389,24.333 42.203,24.055 L40.5,21.5 M11.5,15.5 C11.5,16.605 10.605,17.5 9.5,17.5 C8.395,17.5 7.5,16.605 7.5,15.5 C7.5,14.395 8.395,13.5 9.5,13.5 C10.605,13.5 11.5,14.395 11.5,15.5 Z M20,15.5 L11.5,15.5 M3.5,9.5 L27.5,9.5 C28.605,9.5 29.5,10.395 29.5,11.5 L29.5,14 M15.5,3.5 L15.5,9.5 M25.5,9.5 L20.086,4.086 C19.711,3.711 19.202,3.5 18.672,3.5 L8.57,3.5 C7.902,3.5 7.277,3.834 6.906,4.391 L3.836,8.996 C3.617,9.325 3.5,9.711 3.5,10.106 L3.5,15.5 L7.5,15.5 M3.5,11.5 L4.5,11.5 C5.052,11.5 5.5,11.948 5.5,12.5 C5.5,13.052 5.052,13.5 4.5,13.5 L3.5,13.5 M29.5,12.5 L28.035,12.5 C27.701,12.5 27.389,12.333 27.203,12.055 L25.5,9.5 M26,31.5 L45,31.5 M3,19.5 L17,19.5 M3,43.5 L45,43.5"/></svg>