<svg xmlns="http://www.w3.org/2000/svg" width="48" height="48" viewBox="0 0 48 48"><path fill="none" stroke="#000" d="M23.5,6.5 C21.87,6.5 20.5,7.87 20.5,9.5 C20.5,11.13 21.87,12.5 23.5,12.5 C25.13,12.5 26.5,11.13 26.5,9.5 C26.5,7.87 25.13,6.5 23.5,6.5 Z M38.42,22.66 C38.2,23.13 37.68,23.38 37.18,23.25 L31.02,21.65 L26.5,17.5 L26.5,26.5 L30.5,32.5 L30.5,42.5 L28.5,42.5 L28.5,33.5 L24,27.5 L23,27.5 L22.02,35.58 L15.43,42.15 L13.83,40.56 L19.85,34.57 L20.5,26.5 L20.5,17.5 L17.03,20.22 L15.27,25.665 C15.109,26.162 14.644,26.496 14.122,26.49 L14.122,26.49 C13.318,26.481 12.754,25.694 13.003,24.929 L14.97,18.9 L20.5,14.5 L26.5,14.5 L31.86,19.57 L37.74,21.21 C38.36,21.39 38.68,22.07 38.42,22.66 Z"/></svg>