<svg xmlns="http://www.w3.org/2000/svg" width="24" height="24" viewBox="0 0 24 24"><path fill="none" stroke="#000" d="M14.8469,13.3544 C14.0579,12.8144 13.0999,12.5004 12.0529,12.5004 C9.9819,12.5004 8.2619,13.7304 7.4999,15.5004 M17.5,11.5 C17.5,11.5 15.5,14.5 15.5,16.5 C15.5,17.604 16.396,18.5 17.5,18.5 C18.604,18.5 19.5,17.604 19.5,16.5 C19.5,14.5 17.5,11.5 17.5,11.5 Z M15.7868,19.6119 C14.6468,20.1799 13.3608,20.4999 11.9998,20.4999 C7.3058,20.4999 3.4998,16.6939 3.4998,11.9999 C3.4998,7.3059 7.3058,3.4999 11.9998,3.4999 C16.6948,3.4999 20.4998,7.3059 20.4998,11.9999 C20.4998,12.3019 20.4838,12.5999 20.4538,12.8929 M9.5,9 C9.5,9.276 9.276,9.5 9,9.5 C8.724,9.5 8.5,9.276 8.5,9 C8.5,8.724 8.724,8.5 9,8.5 C9.276,8.5 9.5,8.724 9.5,9 Z M15.5,9 C15.5,9.276 15.276,9.5 15,9.5 C14.724,9.5 14.5,9.276 14.5,9 C14.5,8.724 14.724,8.5 15,8.5 C15.276,8.5 15.5,8.724 15.5,9 Z"/></svg>