<svg xmlns="http://www.w3.org/2000/svg" width="24" height="24" viewBox="0 0 24 24"><path fill="none" stroke="#000" d="M6.5,2.5 L18.5,2.5 C19.052,2.5 19.5,2.948 19.5,3.5 L19.5,20.5 C19.5,21.052 19.052,21.5 18.5,21.5 L6.5,21.5 C5.948,21.5 5.5,21.052 5.5,20.5 L5.5,3.5 C5.5,2.948 5.948,2.5 6.5,2.5 Z M7.5,7.5 L17.5,7.5 L17.5,4.5 L7.5,4.5 L7.5,7.5 Z M9.5,10.5 C9.5,11.052 9.052,11.5 8.5,11.5 C7.948,11.5 7.5,11.052 7.5,10.5 C7.5,9.948 7.948,9.5 8.5,9.5 C9.052,9.5 9.5,9.948 9.5,10.5 Z M13.5,10.5 C13.5,11.052 13.052,11.5 12.5,11.5 C11.948,11.5 11.5,11.052 11.5,10.5 C11.5,9.948 11.948,9.5 12.5,9.5 C13.052,9.5 13.5,9.948 13.5,10.5 Z M17.5,10.5 C17.5,11.052 17.052,11.5 16.5,11.5 C15.948,11.5 15.5,11.052 15.5,10.5 C15.5,9.948 15.948,9.5 16.5,9.5 C17.052,9.5 17.5,9.948 17.5,10.5 Z M9.5,14.5 C9.5,15.052 9.052,15.5 8.5,15.5 C7.948,15.5 7.5,15.052 7.5,14.5 C7.5,13.948 7.948,13.5 8.5,13.5 C9.052,13.5 9.5,13.948 9.5,14.5 Z M13.5,14.5 C13.5,15.052 13.052,15.5 12.5,15.5 C11.948,15.5 11.5,15.052 11.5,14.5 C11.5,13.948 11.948,13.5 12.5,13.5 C13.052,13.5 13.5,13.948 13.5,14.5 Z M9.5,18.5 C9.5,19.052 9.052,19.5 8.5,19.5 C7.948,19.5 7.5,19.052 7.5,18.5 C7.5,17.948 7.948,17.5 8.5,17.5 C9.052,17.5 9.5,17.948 9.5,18.5 Z M13.5,18.5 C13.5,19.052 13.052,19.5 12.5,19.5 C11.948,19.5 11.5,19.052 11.5,18.5 C11.5,17.948 11.948,17.5 12.5,17.5 C13.052,17.5 13.5,17.948 13.5,18.5 Z M16.5,13.5 L16.5,13.5 C17.052,13.5 17.5,13.948 17.5,14.5 L17.5,18.5 C17.5,19.052 17.052,19.5 16.5,19.5 L16.5,19.5 C15.948,19.5 15.5,19.052 15.5,18.5 L15.5,14.5 C15.5,13.948 15.948,13.5 16.5,13.5 Z"/></svg>