<svg xmlns="http://www.w3.org/2000/svg" width="24" height="24" viewBox="0 0 24 24"><path fill="none" stroke="#000" d="M20.5,7.5 L3.5,7.5 C2.948,7.5 2.5,7.052 2.5,6.5 L2.5,3.5 C2.5,2.948 2.948,2.5 3.5,2.5 L20.5,2.5 C21.052,2.5 21.5,2.948 21.5,3.5 L21.5,6.5 C21.5,7.052 21.052,7.5 20.5,7.5 Z M20.5,18.5 L20.5,7.5 M3.5,7.5 L3.5,18.5 M21.5,20.5 L21.5,19.5 C21.5,18.948 21.052,18.5 20.5,18.5 L3.5,18.5 C2.948,18.5 2.5,18.948 2.5,19.5 L2.5,20.5 C2.5,21.052 2.948,21.5 3.5,21.5 L20.5,21.5 C21.052,21.5 21.5,21.052 21.5,20.5 Z M19,4.5 L16,4.5 M9.5,7.5 L9.5,10.5 L14.5,10.5 L14.5,7.5 M13.1588,18.5 C14.4518,18.5 15.4998,17.452 15.4998,16.159 L15.4998,13.5 L8.4998,13.5 L8.4998,16.162 C8.4998,17.453 9.5468,18.5 10.8378,18.5 M10.5,10.5 L10.5,12 M13.5,10.5 L13.5,12 M15.4656,16.5 L16.6846,16.5 C17.1346,16.5 17.4996,16.135 17.4996,15.684 L17.4996,15.313 C17.4996,14.864 17.1356,14.5 16.6866,14.5 L15.4996,14.5"/></svg>