<svg xmlns="http://www.w3.org/2000/svg" width="24" height="24" version="1.1" viewBox="0 0 24 24">
  <path fill="none" fill-rule="evenodd" stroke="#000" stroke-width="1" d="M15,6.5 L19,6.5 M12.5,6.4989 L12.5,20.4999 C12.5,21.0519 12.948,21.4999 13.5,21.4999 L20.5,21.4999 C21.052,21.4999 21.5,21.0519 21.5,20.4999 L21.5,6.4999 C21.5,5.9479 21.052,5.4999 20.5,5.4999 L13.5,5.4989 C12.948,5.4989 12.5,5.9469 12.5,6.4989 Z M7,3.501 L11,3.501 M7,18.5001 L11,18.5001 M15.5,4 L15.5,3.501 C15.5,2.949 15.052,2.501 14.5,2.501 L3.5,2.5 C2.948,2.5 2.5,2.948 2.5,3.5 L2.5,19.5 C2.5,20.052 2.948,20.5 3.5,20.5 L11,20.5"/>
</svg>
