<svg xmlns="http://www.w3.org/2000/svg" width="48" height="48" viewBox="0 0 48 48"><path fill="none" stroke="#000" d="M4.5,41.5 L20.5,41.5 L20.5,19.5 L4.5,19.5 L4.5,41.5 Z M4.5,41.5 L4.5,45.5 L20.5,45.5 L20.5,41.5 M10.5,12.5 L10.5,9.5 L14.5,8.5 L14.5,12.5 M5.5,19.5 L5.5,19 C5.5,16.684 7.25,14.749 9.5,14.5 L9.5,12.5 L15.5,12.5 L15.5,14.5 C17.75,14.749 19.5,16.684 19.5,19 L19.5,19.5 M7.5,21 L7.5,40 M8.5,18 C8.5,17.172 9.172,16.5 10,16.5 M41.5,6.5 C43.709,6.5 45.5,8.291 45.5,10.5 C45.5,12.709 43.709,14.5 41.5,14.5 M41.2091,8.0004 C41.3971,7.5374 41.5001,7.0304 41.5001,6.5004 C41.5001,4.2904 39.7091,2.5004 37.5001,2.5004 C35.2911,2.5004 33.5001,4.2904 33.5001,6.5004 C33.5001,6.8454 33.5441,7.1804 33.6261,7.5004 L33.6261,7.5004 L16.5001,9.5004 L16.5001,10.5004 L33.6261,13.5004 L33.6261,13.5004 C33.5441,13.8194 33.5001,14.1544 33.5001,14.5004 C33.5001,16.7094 35.2911,18.5004 37.5001,18.5004 C39.7091,18.5004 41.5001,16.7094 41.5001,14.5004 C41.5001,13.9694 41.3971,13.4634 41.2091,13.0004 M15.5,14.5 L9.5,14.5"/></svg>