<svg xmlns="http://www.w3.org/2000/svg" width="48" height="48" viewBox="0 0 48 48"><path fill="none" stroke="#000" d="M38.5343,22.4853 C38.5343,30.7693 31.8183,37.4853 23.5343,37.4853 C15.2503,37.4853 8.5343,30.7693 8.5343,22.4853 C8.5343,14.2013 15.2503,7.4853 23.5343,7.4853 C31.8183,7.4853 38.5343,14.2013 38.5343,22.4853 Z M23.5,14 L23.5,22.5 L29,22.5 M28.6261,36.6052 L32.4461,41.7822 C32.9751,42.4992 33.9391,42.7122 34.6851,42.2772 L34.6851,42.2772 C35.4191,41.8492 35.7121,40.9272 35.3711,40.1192 L32.8901,34.2322 M18.4433,36.6052 L14.6233,41.7822 C14.0943,42.4992 13.1303,42.7122 12.3843,42.2772 L12.3843,42.2772 C11.6503,41.8492 11.3573,40.9272 11.6983,40.1192 L14.1793,34.2322 M23.5,9 L23.5,12 M16.75,10.8087 L18.25,13.4067 M11.8087,15.75 L14.4067,17.25 M10,22.5 L13,22.5 M11.8087,29.25 L14.4067,27.75 M16.75,34.1913 L18.25,31.5933 M23.5,36 L23.5,33 M30.25,34.1913 L28.75,31.5933 M35.1913,29.25 L32.5933,27.75 M37,22.5 L34,22.5 M35.1913,15.75 L32.5933,17.25 M30.25,10.8087 L28.75,13.4067 M6.4985,10.3992 C6.4985,11.8302 7.0885,13.1262 8.0455,14.0072 C9.7455,11.2312 12.1535,8.9562 14.9985,7.4762 C14.1485,6.2772 12.7675,5.5072 11.2205,5.5072 C8.6115,5.5072 6.4985,7.6962 6.4985,10.3992 Z M12.7581,8.8699 L14.4421,10.5539 M11.6124,13.3811 L9.8164,11.5851 M40.5359,10.3541 C40.5359,11.7851 39.9459,13.0811 38.9889,13.9621 C37.2889,11.1861 34.8809,8.9111 32.0359,7.4311 C32.8859,6.2321 34.2669,5.4621 35.8139,5.4621 C38.4229,5.4621 40.5359,7.6511 40.5359,10.3541 Z M34.2762,8.8248 L32.5922,10.5088 M35.4219,13.3359 L37.2179,11.5399"/></svg>