<svg xmlns="http://www.w3.org/2000/svg" width="48" height="48" viewBox="0 0 48 48"><g fill="none" fill-rule="evenodd"><polygon fill="#000" points="26.739 17 31.835 22.022 25.5 22.022 25.5 17 22.504 17 22.504 22.022 16.202 22.022 21.298 17 17.509 17 11 23.5 17.509 30 21.298 30 16.202 25.012 22.504 25.012 22.504 30 25.5 30 25.5 25.012 31.835 25.012 26.739 30 30.526 30 37 23.5 30.526 17"/><path stroke="#000" d="M37.4538,43.5 L10.5458,43.5 C7.2068,43.5 4.4998,40.793 4.4998,37.454 L4.4998,10.546 C4.4998,7.207 7.2068,4.5 10.5458,4.5 L37.4538,4.5 C40.7928,4.5 43.4998,7.207 43.4998,10.546 L43.4998,37.454 C43.4998,40.793 40.7928,43.5 37.4538,43.5 Z"/></g></svg>