<svg xmlns="http://www.w3.org/2000/svg" width="48" height="48" viewBox="0 0 48 48"><path fill="none" stroke="#000" d="M7.2482,29.8325 C6.3942,30.1075 5.7332,30.8745 5.3492,31.9025 C5.0972,32.5735 4.9642,33.3565 4.9712,34.1855 C4.9752,34.7055 5.0352,35.2435 5.1552,35.7845 C5.4032,36.8955 5.8712,37.8435 6.4562,38.5375 M39.5,42.5 C37.5,26.5 41.5,4.5 41.5,4.5 M18.0048,24 C18.2718,18.837 18.9748,14.45 19.5668,11.5 M10.8235,24.7667 C11.7685,25.7547 12.9085,26.1667 13.3695,25.6857 C13.8305,25.2057 13.4375,24.0147 12.4925,23.0267 C11.5485,22.0387 10.4085,21.6277 9.9475,22.1077 C9.4865,22.5887 9.8785,23.7787 10.8235,24.7667 Z M19.37,26.19 C18.12,25.79 16.83,26.04 15.66,26.78 C14.86,27.29 13.9,27.48 13,27.5 C12.1,27.48 11.14,27.29 10.34,26.78 C9.17,26.04 7.88,25.79 6.63,26.19 C3.43,27.24 1.73,32.14 2.84,37.14 C3.94,42.14 7.42,45.35 10.62,44.3 C10.91,44.21 11.18,44.08 11.44,43.93 C11.925,43.635 12.463,43.487 13,43.487 C13.537,43.487 14.075,43.635 14.56,43.93 C14.82,44.08 15.09,44.21 15.38,44.3 C18.58,45.35 22.06,42.14 23.16,37.14 C24.27,32.14 22.57,27.24 19.37,26.19 Z M16.0009,24 C16.0009,24 14.3399,24.379 13.5009,25.5 C13.1639,25.95 13.0009,27.5 13.0009,27.5 M23,42.5 L39.5,42.5 L45.5,39.5 C45.5,39.5 45.5,11.5 41.5,4.5 L20.5,4.5 L17.399,9.926 C16.999,10.628 17.505,11.5 18.312,11.5 L35.808,11.5 C36.854,11.5 37.82,10.939 38.339,10.031 L41.5,4.5"/></svg>