<svg xmlns="http://www.w3.org/2000/svg" width="48" height="48" viewBox="0 0 48 48"><path fill="none" stroke="#000" d="M34.5,26.5 L13.5,26.5 M15.5,36.5 L15.5,40.996 C15.5,41.827 14.827,42.5 13.996,42.5 L13.004,42.5 C12.173,42.5 11.5,41.827 11.5,40.996 L11.5,36.5 M37.5,36.5 L37.5,40.996 C37.5,41.827 36.827,42.5 35.996,42.5 L35.004,42.5 C34.173,42.5 33.5,41.827 33.5,40.996 L33.5,36.5 M41.5,21.5 C41.5,22.605 40.605,23.5 39.5,23.5 C38.395,23.5 37.5,22.605 37.5,21.5 C37.5,20.395 38.395,19.5 39.5,19.5 C40.605,19.5 41.5,20.395 41.5,21.5 Z M10.5,21.5 C10.5,22.605 9.605,23.5 8.5,23.5 C7.395,23.5 6.5,22.605 6.5,21.5 C6.5,20.395 7.395,19.5 8.5,19.5 C9.605,19.5 10.5,20.395 10.5,21.5 Z M18.5,9 L18.5,12 M20,10.5 L17,10.5 M18.5,19 L18.5,22 M20,20.5 L17,20.5 M29.5,9 L29.5,12 M31,10.5 L28,10.5 M29.5,19 L29.5,22 M31,20.5 L28,20.5 M37.5,16.91 L37.5,8.5 C37.5,6.291 35.709,4.5 33.5,4.5 L14.5,4.5 C12.291,4.5 10.5,6.291 10.5,8.5 L10.5,16.931 M34.5,21.7149 L34.5,27.4999 C34.5,29.1569 33.157,30.4999 31.5,30.4999 L16.5,30.4999 C14.843,30.4999 13.5,29.1569 13.5,27.4999 L13.5,21.7149 M13.5,21.7149 C13.5,19.1039 11.591,16.7719 8.991,16.5239 C6.009,16.2389 3.5,18.5769 3.5,21.4999 C3.5,23.9189 5.218,25.9359 7.5,26.3989 L7.5,33.4999 C7.5,35.1569 8.843,36.4999 10.5,36.4999 L37.5,36.4999 C39.157,36.4999 40.5,35.1569 40.5,33.4999 L40.5,26.3989 C42.782,25.9359 44.5,23.9189 44.5,21.4999 C44.5,18.5769 41.991,16.2389 39.009,16.5239 C36.409,16.7719 34.5,19.1039 34.5,21.7149"/></svg>