<svg xmlns="http://www.w3.org/2000/svg" width="48" height="48" viewBox="0 0 48 48"><path fill="none" stroke="#000" d="M11.5,18.5 C11.5,13.53 15.53,9.5 20.5,9.5 L28.5,9.5 C33.47,9.5 37.5,13.53 37.5,18.5 L37.5,43.5 L11.5,43.5 L11.5,18.5 Z M14.5078,30.5 C14.5078,28.842 15.8518,27.5 17.5078,27.5 L31.4998,27.5 C33.1558,27.5 34.4998,28.842 34.4998,30.5 L34.4998,40.5 L14.4998,40.5 L14.5078,30.5 Z M14.5,31.5 L34.5,31.5 M29.5,9.5 L29.5,8.5 C29.5,6.843 28.157,5.5 26.5,5.5 L22.5,5.5 C20.843,5.5 19.5,6.843 19.5,8.5 L19.5,9.5 M12.5,14.3896 L12.5,6.4996 M17.3337,10.0841 L15.7517,6.1281 C15.5997,5.7491 15.2317,5.5001 14.8227,5.5001 L13.4997,5.5001 C12.9477,5.5001 12.4997,5.9481 12.4997,6.5001 M36.5,14.3896 L36.5,6.4996 M31.6663,10.0841 L33.2483,6.1281 C33.4003,5.7491 33.7683,5.5001 34.1773,5.5001 L35.5003,5.5001 C36.0523,5.5001 36.5003,5.9481 36.5003,6.5001 M14.8184,11.5232 L12.5004,6.5002 M34.1816,11.5232 L36.4996,6.5002 M21.5,9.5587 L21.5,8.4997 C21.5,7.9477 21.948,7.4997 22.5,7.4997 L26.5,7.4997 C27.052,7.4997 27.5,7.9477 27.5,8.4997 L27.5,9.5587 M30.5,21.5 L18.5,21.5 L18.5,14.996 C18.5,14.17 19.17,13.5 19.996,13.5 L29.004,13.5 C29.83,13.5 30.5,14.17 30.5,14.996 L30.5,21.5 Z M18.5,16.5 L30.5,16.5 M27.5,16.5 L27.5,19 M31.5,31.5 L31.5,35.5 C31.5,36.052 31.052,36.5 30.5,36.5 L30.5,36.5 C29.948,36.5 29.5,36.052 29.5,35.5 L29.5,31.5"/></svg>