<svg xmlns="http://www.w3.org/2000/svg" width="48" height="48" viewBox="0 0 48 48"><path fill="none" stroke="#000" d="M25.5,26.5 C25.5,24.291 23.709,22.5 21.5,22.5 C19.291,22.5 17.5,24.291 17.5,26.5 C17.5,28.709 19.291,30.5 21.5,30.5 C23.709,30.5 25.5,28.709 25.5,26.5 Z M2.5,34.5 L40.5,34.5 L40.5,18.5 L2.5,18.5 L2.5,34.5 Z M36.5,20.5 L6.5,20.5 C6.5,21.605 5.605,22.5 4.5,22.5 L4.5,30.5 C5.605,30.5 6.5,31.395 6.5,32.5 L36.5,32.5 C36.5,31.395 37.395,30.5 38.5,30.5 L38.5,22.5 C37.395,22.5 36.5,21.605 36.5,20.5 Z M6.5,16.5 L6.5,14.5 L44.5,14.5 L44.5,29.5 L42.5,29.5 M12.5,26.5 C12.5,25.395 11.605,24.5 10.5,24.5 C9.395,24.5 8.5,25.395 8.5,26.5 C8.5,27.605 9.395,28.5 10.5,28.5 C11.605,28.5 12.5,27.605 12.5,26.5 Z M34.5,26.5 C34.5,25.395 33.605,24.5 32.5,24.5 C31.395,24.5 30.5,25.395 30.5,26.5 C30.5,27.605 31.395,28.5 32.5,28.5 C33.605,28.5 34.5,27.605 34.5,26.5 Z M4.5,18.5 L4.491,16.5 L42.509,16.5 L42.509,32.5 L40.5,32.5"/></svg>