<svg xmlns="http://www.w3.org/2000/svg" width="48" height="48" viewBox="0 0 48 48"><path fill="none" stroke="#000" d="M16.5,10 L16.5,40 C16.5,41.381 19.858,42.5 24,42.5 C28.142,42.5 31.5,41.381 31.5,40 L31.5,10 M21.5,7.6671 C18.683,8.0271 16.5,8.9341 16.5,10.0001 C16.5,11.3811 19.858,12.5001 24,12.5001 C28.142,12.5001 31.5,11.3811 31.5,10.0001 C31.5,8.9341 29.317,7.8601 26.5,7.5001 M26.5,7.5 L26.5,9.5 C26.5,10.052 25.381,10.5 24,10.5 C22.619,10.5 21.5,10.052 21.5,9.5 L21.5,7.5 C21.5,6.948 22.619,6.5 24,6.5 C25.381,6.5 26.5,6.948 26.5,7.5 M17.9998,32.5001 C19.3678,33.1071 21.5468,33.5001 23.9998,33.5001 C26.4538,33.5001 28.6318,33.1071 29.9998,32.5001 M17.9998,35.5001 C19.3678,36.1071 21.5468,36.5001 23.9998,36.5001 C26.4538,36.5001 28.6318,36.1071 29.9998,35.5001 M17.9998,38.5001 C19.3678,39.1071 21.5468,39.5001 23.9998,39.5001 C26.4538,39.5001 28.6318,39.1071 29.9998,38.5001"/></svg>