<svg xmlns="http://www.w3.org/2000/svg" width="48" height="48" viewBox="0 0 48 48"><path fill="none" stroke="#000" d="M3,2 L46,45 M28.5,38.5 C28.5,41.26 26.26,43.5 23.5,43.5 M16.8165,12.817 C17.8145,11.137 19.3795,10.03 21.5005,9.5 M15.5,23 L15.5,18.814 C15.5,18.756 15.5,18.69 15.508,18.632 C15.499,17.25 15.643,16.019 15.937,14.937 M18.5,38.5 C18.5,41.26 20.74,43.5 23.5,43.5 M39.5,38.5 L23.5,38.5 L7,38.5 C6.172,38.5 5.5,37.157 5.5,35.5 C5.5,33.843 6.172,32.5 7,32.5 C10.038,32.5 12.5,28.918 12.5,24.5 L12.5,16.5 C12.5,15.056 12.837,13.683 13.443,12.443 M14.6097,10.6099 C16.6107,8.1189 19.8477,6.4999 23.4997,6.4999 C29.5747,6.4999 34.4997,10.9769 34.4997,16.4999 L34.4997,24.4999 C34.4997,28.9179 36.9627,32.4999 39.9997,32.4999 C40.8287,32.4999 41.4997,33.8429 41.4997,35.4999 C41.4997,36.1209 41.4057,36.6989 41.2437,37.1769 M26.5,6.8765 L26.5,5.4995 C26.5,3.8435 25.157,2.4995 23.5,2.4995 C21.843,2.4995 20.5,3.8435 20.5,5.4995 L20.5,6.8765 M37,32.5 L40,32.5 M7,32.5 L33.5,32.5"/></svg>