<svg xmlns="http://www.w3.org/2000/svg" width="48" height="48" viewBox="0 0 48 48"><path fill="none" stroke="#000" d="M28.5,38.5 C28.5,41.26 26.26,43.5 23.5,43.5 M15.5,23 L15.5,18.814 C15.5,18.756 15.5,18.69 15.508,18.632 C15.475,13.554 17.5,10.5 21.5,9.5 M18.5,38.5 C18.5,41.26 20.74,43.5 23.5,43.5 M12.5,16.5 C12.5,10.977 17.425,6.5 23.5,6.5 C29.575,6.5 34.5,10.977 34.5,16.5 L34.5,24.5 C34.5,28.918 36.962,32.5 40,32.5 C40.828,32.5 41.5,33.843 41.5,35.5 C41.5,37.157 40.828,38.5 40,38.5 L23.5,38.5 L7,38.5 C6.172,38.5 5.5,37.157 5.5,35.5 C5.5,33.843 6.172,32.5 7,32.5 C10.038,32.5 12.5,28.918 12.5,24.5 L12.5,16.5 Z M26.5,6.8765 L26.5,5.4995 C26.5,3.8435 25.157,2.4995 23.5,2.4995 C21.843,2.4995 20.5,3.8435 20.5,5.4995 L20.5,6.8765 M7,32.5 L40,32.5"/></svg>