<svg xmlns="http://www.w3.org/2000/svg" width="48" height="48" viewBox="0 0 48 48"><path fill="none" stroke="#000" d="M16.5002,10.5 C16.5002,13.814 13.8142,16.5 10.5002,16.5 C7.1862,16.5 4.5002,13.814 4.5002,10.5 C4.5002,7.186 7.1862,4.5 10.5002,4.5 C13.8142,4.5 16.5002,7.186 16.5002,10.5 Z M7.5002,10.5 L9.5002,12.5 L13.5002,8.5 M43.5002,37.5 C43.5002,40.814 40.8142,43.5 37.5002,43.5 C34.1862,43.5 31.5002,40.814 31.5002,37.5 C31.5002,34.186 34.1862,31.5 37.5002,31.5 C40.8142,31.5 43.5002,34.186 43.5002,37.5 Z M34.5002,37.5 L36.5002,39.5 L40.5002,35.5 M28.4994,23.4992 C28.4994,26.8132 25.8134,29.4992 22.4994,29.4992 C19.1854,29.4992 16.4994,26.8132 16.4994,23.4992 C16.4994,20.1852 19.1854,17.4992 22.4994,17.4992 C25.8134,17.4992 28.4994,20.1852 28.4994,23.4992 Z M19.4994,23.4992 L21.4994,25.4992 L25.4994,21.4992 M16.5002,10.5 L39.5002,10.5 C41.7102,10.5 43.5002,12.29 43.5002,14.5 L43.5002,19.5 C43.5002,21.708 41.7082,23.5 39.5002,23.5 L28.5002,23.5 M16.5,23.5 L8.5,23.5 C6.29,23.5 4.5,25.29 4.5,27.5 L4.5,33.5 C4.5,35.71 6.29,37.5 8.5,37.5 L31.5,37.5"/></svg>