<svg xmlns="http://www.w3.org/2000/svg" width="48" height="48" viewBox="0 0 48 48"><path fill="none" stroke="#000" d="M28.5001,27.5001 L4.5001,27.5001 L4.5001,22.5001 L23.5001,22.5001 M26,22.5001 L42.5,22.5001 C43.052,22.5001 43.5,22.9481 43.5,23.5001 L43.5,26.5001 C43.5,27.0521 43.052,27.5001 42.5,27.5001 L31,27.5001 M13.5,22.5001 L13.5,27.5001 M16.5,22.5001 L16.5,27.5001 M38.5,22.5001 L38.5,27.5001 M43.5001,6.4999 C43.5001,4.8429 42.1571,3.4999 40.5001,3.4999 C40.0911,3.4999 39.7011,3.5829 39.3461,3.7319 C39.0451,3.0079 38.3321,2.4989 37.5001,2.4989 C36.3951,2.4989 35.5001,3.3949 35.5001,4.4989 C35.5001,4.5599 35.5121,4.6179 35.5181,4.6779 C34.3461,5.0859 33.5001,6.1889 33.5001,7.4999 C33.5001,8.8229 34.3631,9.9339 35.5521,10.3319 C35.5271,10.5519 35.5001,10.7709 35.5001,10.9999 C35.5001,12.5679 36.1251,13.9459 37.0721,14.7509 C36.7161,15.2449 36.5001,15.8459 36.5001,16.5009 C36.5001,18.1569 37.8431,19.5009 39.5001,19.5009 C41.1571,19.5009 42.5001,18.1569 42.5001,16.5009 C42.5001,15.5849 42.0811,14.7749 41.4341,14.2249 C42.0901,13.4069 42.5001,12.2669 42.5001,10.9999 C42.5001,10.2839 42.3581,9.6159 42.1261,9.0149 C42.9511,8.4809 43.5001,7.5559 43.5001,6.4999 Z M3,2 L46,45"/></svg>