<svg xmlns="http://www.w3.org/2000/svg" width="48" height="48" viewBox="0 0 48 48"><g fill="none" fill-rule="evenodd"><path stroke="#000" d="M45.5,24 C45.5,35.874 35.874,45.5 24,45.5 C12.126,45.5 2.5,35.874 2.5,24 C2.5,12.126 12.126,2.5 24,2.5 C35.874,2.5 45.5,12.126 45.5,24 Z"/><path fill="#000" d="M23.297,37 L24.787,37 L24.787,33.601 L23.297,33.601 L23.297,37 Z M16.766,19.104 C16.789,17.14 17.157,15.549 17.871,14.332 C18.485,13.283 19.351,12.465 20.467,11.879 C21.583,11.293 22.834,11 24.218,11 C26.451,11 28.209,11.642 29.492,12.926 C30.654,14.098 31.234,15.499 31.234,17.129 C31.234,18.636 30.748,20.009 29.777,21.248 C29.431,21.706 28.527,22.627 27.064,24.011 C26.35,24.692 25.865,25.206 25.607,25.551 C25.35,25.898 25.155,26.316 25.021,26.807 C24.854,27.387 24.764,28.392 24.754,29.821 L23.364,29.821 C23.353,28.035 23.506,26.757 23.825,25.987 C24.142,25.216 24.91,24.262 26.127,23.123 C27.209,22.119 27.991,21.321 28.471,20.729 C29.364,19.624 29.81,18.446 29.81,17.196 C29.81,15.845 29.319,14.684 28.337,13.713 C27.321,12.708 25.936,12.206 24.184,12.206 C21.717,12.206 19.959,13.205 18.91,15.203 C18.407,16.141 18.139,17.441 18.106,19.104 L16.766,19.104 Z"/></g></svg>