<svg xmlns="http://www.w3.org/2000/svg" width="48" height="48" viewBox="0 0 48 48">
  <path fill="none" stroke="#000" d="M44,21.5 L9,21.5 M16.3684,10.5 L26.5004,44.995 M36.6316,10.5 L26.5006,44.995 M26.5008,45 L43.9998,21.5 L36.6318,10.5 L16.3688,10.5 L8.9998,21.5 L26.5008,45 Z M26.5,10.5 L33.401,21.5 M19.5995,21.5 L26.5005,10.5 M6.5,11 C6.5,12.381 5.381,13.5 4,13.5 C5.381,13.5 6.5,14.619 6.5,16 C6.5,14.619 7.619,13.5 9,13.5 C7.619,13.5 6.5,12.381 6.5,11 Z M11.5,3 C11.5,4.933 9.933,6.5 8,6.5 C9.933,6.5 11.5,8.067 11.5,10 C11.5,8.067 13.067,6.5 15,6.5 C13.067,6.5 11.5,4.933 11.5,3 Z M11.5,3 C11.5,4.933 9.933,6.5 8,6.5 M15,6.5 C13.067,6.5 11.5,4.933 11.5,3 M8,6.5 C9.933,6.5 11.5,8.067 11.5,10 M11.5,10 C11.5,8.067 13.067,6.5 15,6.5 M6.5,11 C6.5,12.381 5.381,13.5 4,13.5 M9,13.5 C7.619,13.5 6.5,12.381 6.5,11 M6.5,16 C6.5,14.619 7.619,13.5 9,13.5 M4,13.5 C5.381,13.5 6.5,14.619 6.5,16 M14.5006,6.5 C12.8436,6.5 11.5006,5.157 11.5006,3.5"/>
</svg>
