<svg xmlns="http://www.w3.org/2000/svg" width="48" height="48" viewBox="0 0 48 48"><path fill="none" stroke="#000" d="M35.5,17.5 C35.5,18.05 35.95,18.5 36.5,18.5 C37.05,18.5 37.5,18.05 37.5,17.5 C37.5,16.95 37.05,16.5 36.5,16.5 C35.95,16.5 35.5,16.95 35.5,17.5 M24.5,27.5 C20.17,27.56 20.5,38.5 20.5,38.5 L18.5,38.5 L14.5,38.5 L14.5,22.5 C14.5,22.5 12.06,22.62 9.88,20.97 C9.1,20.39 8.35,19.51 7.76,18.51 C7.1,17.41 6.63,16.15 6.52,15 M32.5,38.5 L32.5,27.5 L30.5,27.5 M18.5,38.5 C18.5,38.5 18.17,27.56 22.5,27.5 L30.5,27.5 L30.5,38.5 L34.5,38.5 L34.5,23.5 L36.5,21.5 L37.5,22.5 L37.57,22.57 C38.083,23.083 38.917,23.083 39.43,22.57 L39.5,22.5 L41.483,20.517 C42.045,19.955 42.045,19.045 41.483,18.483 L36.5,13.5 L36.5,9.5 L28.5,17.5 L14.5,19.5 C14.5,19.5 12.06,19.53 9.88,18.71 L9.88,18.7 C8.23,18.08 6.73,16.97 6.52,15 M36,22.0256 L30,15.9996 M34.5,23.5 L28.5,17.5"/></svg>