<svg xmlns="http://www.w3.org/2000/svg" width="48" height="48" viewBox="0 0 48 48"><path fill="none" stroke="#000" d="M16,34 C17.841,36.15 20.517,37.5 23.5,37.5 C26.483,37.5 29.159,36.15 31,34 M17.5,24.5 C16.948,24.5 16.5,24.948 16.5,25.5 C16.5,26.052 16.948,26.5 17.5,26.5 C18.052,26.5 18.5,26.052 18.5,25.5 C18.5,24.948 18.052,24.5 17.5,24.5 M30.5,24.5 C29.948,24.5 29.5,24.948 29.5,25.5 C29.5,26.052 29.948,26.5 30.5,26.5 C31.052,26.5 31.5,26.052 31.5,25.5 C31.5,24.948 31.052,24.5 30.5,24.5 M17.5,5.5 C16.948,5.5 16.5,5.948 16.5,6.5 C16.5,7.052 16.948,7.5 17.5,7.5 C18.052,7.5 18.5,7.052 18.5,6.5 C18.5,5.948 18.052,5.5 17.5,5.5 M11.5,4.5 C10.948,4.5 10.5,4.948 10.5,5.5 C10.5,6.052 10.948,6.5 11.5,6.5 C12.052,6.5 12.5,6.052 12.5,5.5 C12.5,4.948 12.052,4.5 11.5,4.5 M36.5,4.5 C35.948,4.5 35.5,4.948 35.5,5.5 C35.5,6.052 35.948,6.5 36.5,6.5 C37.052,6.5 37.5,6.052 37.5,5.5 C37.5,4.948 37.052,4.5 36.5,4.5 M30.5,5.5 C29.948,5.5 29.5,5.948 29.5,6.5 C29.5,7.052 29.948,7.5 30.5,7.5 C31.052,7.5 31.5,7.052 31.5,6.5 C31.5,5.948 31.052,5.5 30.5,5.5 M24,2.5 C23.172,2.5 22.5,3.172 22.5,4 C22.5,4.828 23.172,5.5 24,5.5 C24.828,5.5 25.5,4.828 25.5,4 C25.5,3.172 24.828,2.5 24,2.5 M11.5,6.5 L11.5,18.5 M17.5,7.5 L14.5,10.5 L11.5,6.5 M24,5.5 L20.5,10.169 L17.5,7.5 M30.5,7.5 L27.5,10.124 L24,5.5 M36.5,6.5 L33.5,10.5 L30.5,7.5 M36.5,18.5 L36.5,6.5 M11.5,18.5 C9.013,21.389 7.5,24.888 7.5,29 C7.5,38.111 14.886,45.5 24,45.5 C33.111,45.5 40.5,38.111 40.5,29 C40.5,24.889 38.987,21.389 36.5,18.5 L11.5,18.5 Z"/></svg>