<svg xmlns="http://www.w3.org/2000/svg" width="48" height="48" viewBox="0 0 48 48"><path fill="none" stroke="#000" d="M9.5,44.5 L13.5,44.5 L13.5,36.5 L9.5,36.5 L9.5,44.5 Z M13.5,44.5 L17.5,44.5 L17.5,36.5 L13.5,36.5 L13.5,44.5 Z M22.5,41.5 L26.5,41.5 L26.5,36.5 L22.5,36.5 L22.5,41.5 Z M32.5,41.5 L36.5,41.5 L36.5,36.5 L32.5,36.5 L32.5,41.5 Z M2.5,16.5001 L9.5,16.5001 L9.5,30.5001 L21.5,22.5001 L21.5,30.5001 L33.5,22.5001 L33.5,30.5001 L45.5,22.5001 L45.5,44.5001 L2.5,44.5001 L2.5,16.5001 Z M7.88,5.81 C7.47,5.59 6.99,5.47 6.5,5.47 C4.85,5.47 3.5,6.81 3.5,8.47 C3.5,9.38 3.92,10.23 4.63,10.8 C4.54,11.02 4.5,11.26 4.5,11.5 C4.5,12.6 5.4,13.5 6.5,13.5 C7.6,13.5 8.5,12.6 8.5,11.5 C8.5,11.26 8.46,11.02 8.37,10.8 C8.52,10.68 8.65,10.55 8.76,10.41 C9.48,11.08 10.44,11.5 11.5,11.5 C12.54,11.5 13.5,11.1 14.21,10.44 C14.76,11.09 15.58,11.5 16.5,11.5 C18.16,11.5 19.5,10.16 19.5,8.5 C19.5,6.84 18.16,5.5 16.5,5.5 C16.01,5.5 15.54,5.62 15.13,5.83 C14.5,4.45 13.11,3.5 11.5,3.5 C9.9,3.5 8.51,4.44 7.88,5.81 Z M37.76,10.94 C38.1,10.66 38.53,10.5 39,10.5 C40.1,10.5 41,11.4 41,12.5 C41,12.86 40.9,13.21 40.73,13.5 L25.18,13.5 C25.06,13.19 25,12.85 25,12.5 C25,10.84 26.34,9.5 28,9.5 C29.13,9.5 30.12,10.12 30.63,11.05 C30.99,10.7 31.47,10.5 32,10.5 C32.47,10.5 32.9,10.66 33.24,10.94 C33.63,10.09 34.5,9.5 35.5,9.5 C36.5,9.5 37.37,10.09 37.76,10.94 Z"/></svg>