<svg xmlns="http://www.w3.org/2000/svg" width="48" height="48" viewBox="0 0 48 48"><path fill="none" stroke="#000" d="M4.94,27.249 C5.631,26.386 6.89,26.249 7.752,26.941 L7.752,26.941 L17.493,33.52 L17.4930233,33.5198 L17.479262,33.4980565 C16.7852711,32.3491475 17.397616,30.6083762 19.3162965,30.5039299 L19.5,30.499 L23.719,30.499 C27.406,30.562 29.769,32.667 31.844,34.374 L31.844,34.374 L42.5,42.5 L27.5,42.499 L25.5,40.5 L17.5,40.5 L5.248,30.061 C4.387,29.37 4.249,28.111 4.94,27.249 Z M17.4930233,33.5198 L17.5481508,33.6039648 C17.9117305,34.1241562 18.5623469,34.499 19.5,34.499 L23.5,34.499 L17.4930233,33.5198 Z M23.9467,8.4998 C26.3577,8.4998 28.3937,10.0168 29.1667,12.1608 C29.3847,12.7618 29.4997,13.4068 29.4997,14.0848 C29.4997,15.1018 29.2357,16.0488 28.7737,16.8678 C28.6177,17.1418 28.1447,17.7588 27.9447,18.0018 L27.9447,18.0018 L19.5047,26.4998 L11.0537,17.9908 C10.7047,17.6278 10.4157,17.2168 10.1737,16.7648 C9.7447,15.9698 9.4997,15.0588 9.4997,14.0848 C9.4997,10.9818 11.9777,8.4998 15.0597,8.4998 C16.8957,8.4998 18.4977,9.3888 19.5067,10.7548 C20.5137,9.3888 22.1137,8.4998 23.9467,8.4998 Z"/></svg>