<svg xmlns="http://www.w3.org/2000/svg" width="48" height="48" viewBox="0 0 48 48"><path fill="none" stroke="#000" d="M25.5,12 L25.5,2 M30,10 L34,4 M21,10 L17,4 M33.5697,28.9057 C34.3517,28.1237 35.6087,28.1157 36.3917,28.8997 C37.1777,29.6847 37.1787,30.9537 36.3967,31.7357 C36.3967,31.7357 35.5987,32.5247 31.4437,36.6797 C27.2907,40.8327 23.8047,41.7677 23.8047,41.7677 M13.7427,31.7057 C13.7427,31.7057 17.0757,18.7497 17.3857,17.5547 C17.6957,16.3607 18.2807,15.5517 19.3877,15.5527 C20.4967,15.5547 21.4987,16.3927 21.4997,17.4997 L21.4997,23.9997 L25.0557,20.3917 L33.5367,11.9047 C34.3187,11.1227 35.5887,11.1257 36.3727,11.9097 C37.1567,12.6937 37.1807,13.9807 36.3987,14.7637 L27.2057,23.9557 M21.1264,44.7463 L10.6574,34.2773 C10.4244,34.0443 10.4244,33.6663 10.6574,33.4323 L12.6414,31.4493 C12.8744,31.2163 13.2524,31.2163 13.4864,31.4493 L23.9544,41.9183 C24.1884,42.1513 24.1884,42.5293 23.9544,42.7633 L21.9714,44.7463 C21.7384,44.9793 21.3594,44.9793 21.1264,44.7463 Z M26.4987,24.6627 L29.3267,21.8347 C30.1027,21.0587 31.3797,21.0587 32.1557,21.8347 C32.9317,22.6097 32.9317,23.8867 32.1557,24.6627 C28.8557,27.9627 32.6267,24.1917 29.3267,27.4907 M29.3271,27.4911 L31.4481,25.3701 C32.2241,24.5941 33.5011,24.5941 34.2771,25.3701 C35.0531,26.1451 35.0531,27.4221 34.2771,28.1981 C30.9771,31.4981 35.4551,27.0201 32.1551,30.3191"/></svg>