<svg xmlns="http://www.w3.org/2000/svg" width="48" height="48" viewBox="0 0 48 48"><path fill="none" stroke="#000" d="M16.5,15.5 L19.5,18.5 L24.5,13 M17.493,33.52 L7.752,26.941 C6.89,26.249 5.631,26.386 4.94,27.249 C4.249,28.111 4.387,29.37 5.248,30.061 L17.5,40.5 L25.5,40.5 L27.5,42.499 L42.5,42.5 L31.844,34.374 C29.769,32.667 27.406,30.562 23.719,30.499 L19.5,30.499 C16.437,30.499 16.437,34.499 19.5,34.499 L23.5,34.499 M20,6.5 L10.333,8.5 C10.333,16.488 14.085,23.596 19.917,28.173 C25.749,23.596 29.5,16.488 29.5,8.5 L20,6.5 Z M27.3698,10.0515 C26.7598,16.0605 24.0178,21.4365 19.9168,25.4215 C15.8168,21.4375 13.0758,16.0645 12.4638,10.0595 L19.9998,8.4995 L27.3698,10.0515 Z"/></svg>