<svg xmlns="http://www.w3.org/2000/svg" width="48" height="48" viewBox="0 0 48 48"><path fill="none" stroke="#000" d="M24.0071,42.9481 L42.1771,24.7751 C42.9231,23.9991 43.5461,23.1191 44.0681,22.1581 C44.9911,20.4611 45.5141,18.5121 45.5141,16.4341 C45.5141,9.8041 40.1891,4.5001 33.5591,4.5001 C29.6161,4.5001 26.1701,6.4031 24.0001,9.3191 C21.8301,6.4031 18.3981,4.5001 14.4551,4.5001 C7.8251,4.5001 2.5001,9.8041 2.5001,16.4341 C2.5001,18.5121 3.0231,20.4611 3.9461,22.1581 C4.4681,23.1191 5.0911,23.9991 5.8371,24.7751 C5.8371,24.7751 24.0071,42.9481 24.0071,42.9481 Z"/></svg>