<svg xmlns="http://www.w3.org/2000/svg" width="48" height="48" viewBox="0 0 48 48"><path fill="none" stroke="#000" d="M30.5,17.5 C30.5,24.68 24.68,30.5 17.5,30.5 C10.32,30.5 4.5,24.68 4.5,17.5 C4.5,10.32 10.32,4.5 17.5,4.5 C24.68,4.5 30.5,10.32 30.5,17.5 Z M32.5,17.5 C32.5,25.784 25.784,32.5 17.5,32.5 C9.216,32.5 2.5,25.784 2.5,17.5 C2.5,9.216 9.216,2.5 17.5,2.5 C25.784,2.5 32.5,9.216 32.5,17.5 Z M45.0607,42.9393 L33.7367,31.6153 L31.6157,33.7363 L42.9397,45.0603 C43.5247,45.6463 44.4747,45.6463 45.0607,45.0603 C45.6467,44.4753 45.6467,43.5253 45.0607,42.9393 Z M28.1066,28.1066 L32.6756,32.6756"/></svg>