<svg xmlns="http://www.w3.org/2000/svg" width="48" height="48" viewBox="0 0 48 48"><path fill="none" stroke="#000" d="M20.6716,27.3284 L26.3286,21.6714 M29.0508,16.1208 L15.1208,30.0508 C12.9008,28.9758 10.1428,29.3718 8.2968,31.2178 C6.4518,33.0628 6.0628,35.8138 7.1308,38.0408 L11.1258,34.0458 L13.9538,34.0458 L13.9538,36.8748 L9.9588,40.8698 C12.1858,41.9368 14.9368,41.5488 16.7828,39.7028 C18.6278,37.8568 19.0238,35.0998 17.9488,32.8788 L31.8788,18.9488 C34.0998,20.0238 36.8568,19.6278 38.7028,17.7828 C40.5488,15.9368 40.9368,13.1868 39.8698,10.9588 L35.8748,14.9538 L33.0458,14.9538 L33.0458,12.1258 L37.0408,8.1308 C34.8138,7.0628 32.0628,7.4518 30.2178,9.2968 C28.3718,11.1428 27.9758,13.9008 29.0508,16.1208 Z"/></svg>