<svg xmlns="http://www.w3.org/2000/svg" width="48" height="48" viewBox="0 0 48 48"><path fill="none" stroke="#000" d="M8.5,11.5 L10.569,44.5 L36.431,44.5 L38.5,11.5 M18.5,7.5873 L18.5,5.4633 C18.5,4.9313 18.979,4.5003 19.57,4.5003 L27.43,4.5003 C28.021,4.5003 28.5,4.9313 28.5,5.4633 L28.5,7.5883 M40.5,11.5 L6.5,11.5 L6.5,8.557 L7.879,8.398 C18.255,7.201 28.745,7.201 39.121,8.398 L40.5,8.557 L40.5,11.5 Z M34,17 L33,39 M14,39 L13,17 M29,17 L28,39 M19,39 L18,17 M23.5,17 L23.5,39 M36.63,41.5 L10.436,41.5 L10.38,41.5 M8.69,14.5 L38.312,14.5"/></svg>