<svg xmlns="http://www.w3.org/2000/svg" width="48" height="48" viewBox="0 0 48 48"><path fill="none" stroke="#000" d="M3,2 L46,45 M15.0331,11.033 C17.8371,10.041 20.8541,9.5 24.0001,9.5 C31.7071,9.5 38.6411,12.745 43.5611,17.924 M4.4391,17.9241 C6.8291,15.4081 9.6961,13.3481 12.8951,11.8951 M19.9019,15.9018 C21.2269,15.6378 22.5969,15.4998 23.9999,15.4998 C29.9939,15.4998 35.3879,18.0238 39.2139,22.0518 M17.5235,16.5233 C14.1585,17.6193 11.1685,19.5443 8.7865,22.0523 M17.4878,30.3157 C19.1278,28.5897 21.4308,27.4997 23.9998,27.4997 C26.5688,27.4997 28.8728,28.5897 30.5118,30.3157 M30.5122,30.3157 C28.8722,28.5897 26.5692,27.4997 24.0002,27.4997 C21.4312,27.4997 19.1272,28.5897 17.4882,30.3157 M22.5756,21.5753 C18.8716,21.9293 15.5666,23.6363 13.1426,26.1893 M34.8699,26.1774 C32.4789,23.6644 29.2329,21.9734 25.5939,21.5904 M27,36.5 C27,38.157 25.657,39.5 24,39.5 C22.343,39.5 21,38.157 21,36.5 C21,34.843 22.343,33.5 24,33.5 C25.657,33.5 27,34.843 27,36.5 Z"/></svg>