<svg xmlns="http://www.w3.org/2000/svg" width="48" height="48" version="1.1" viewBox="0 0 48 48">
  <g fill="none" fill-rule="evenodd" stroke="none" stroke-width="1">
    <path stroke="#000" stroke-width="2" d="M13.0176,8.9984 L24.9996,8.9984 L34.9996,18.9984 L34.9996,38.9984 L12.9996,38.9984 L13.0176,8.9984 Z M25,8.9984 L25,18.9984 L35,18.9984"/>
    <path fill="#000" d="M23.935,29.803 C24.641,29.803 25.235,30.035 25.713,30.499 C26.241,31.011 26.505,31.707 26.505,32.581 C26.505,33.337 26.305,33.963 25.907,34.457 C25.419,35.059 24.749,35.361 23.905,35.361 C23.037,35.361 22.359,35.051 21.865,34.435 C21.475,33.947 21.279,33.331 21.279,32.587 C21.279,31.709 21.533,31.023 22.037,30.533 C22.537,30.047 23.171,29.803 23.935,29.803 Z M29.664,29.803 C30.396,29.803 30.986,30.045 31.436,30.529 C31.754,30.871 31.932,31.261 31.962,31.709 L30.82,31.709 C30.76,31.407 30.626,31.175 30.418,31.011 C30.212,30.849 29.954,30.767 29.638,30.767 C29.136,30.767 28.76,30.979 28.512,31.401 C28.326,31.725 28.23,32.119 28.23,32.583 C28.23,33.063 28.328,33.463 28.526,33.783 C28.774,34.191 29.142,34.395 29.63,34.395 C29.98,34.395 30.256,34.293 30.464,34.087 C30.67,33.883 30.796,33.581 30.848,33.187 L32,33.187 C31.96,33.735 31.778,34.207 31.45,34.595 C31.018,35.105 30.41,35.361 29.622,35.361 C28.782,35.361 28.128,35.063 27.662,34.473 C27.264,33.965 27.062,33.335 27.062,32.579 C27.062,31.785 27.298,31.123 27.776,30.593 C28.248,30.065 28.878,29.803 29.664,29.803 Z M18.1442,29.9296 C18.5422,29.9296 18.8842,29.9756 19.1682,30.0676 C19.4522,30.1596 19.7022,30.3036 19.9202,30.5036 C20.4502,30.9856 20.7142,31.6576 20.7142,32.5176 C20.7142,33.4256 20.4642,34.1276 19.9642,34.6216 C19.7442,34.8436 19.4962,34.9996 19.2202,35.0936 C18.9462,35.1856 18.5942,35.2336 18.1682,35.2336 L16.0002,35.2336 L16.0002,29.9296 L18.1442,29.9296 Z M23.879,30.767 C23.451,30.767 23.109,30.929 22.847,31.253 C22.581,31.579 22.447,32.021 22.447,32.575 C22.447,33.147 22.579,33.593 22.839,33.911 C22.963,34.065 23.119,34.183 23.309,34.267 C23.499,34.353 23.697,34.395 23.911,34.395 C24.335,34.395 24.667,34.247 24.911,33.953 C25.195,33.613 25.337,33.151 25.337,32.571 C25.337,32.019 25.207,31.579 24.947,31.253 C24.691,30.929 24.337,30.767 23.879,30.767 Z M18.0062,30.9096 L17.1562,30.9096 L17.1562,34.2536 L18.0482,34.2536 C18.3222,34.2536 18.5382,34.2256 18.7002,34.1736 C18.8642,34.1176 19.0062,34.0256 19.1262,33.8936 C19.4062,33.5896 19.5462,33.1436 19.5462,32.5556 C19.5462,32.0136 19.4182,31.6056 19.1582,31.3276 C18.8962,31.0476 18.5142,30.9096 18.0062,30.9096 Z"/>
  </g>
</svg>
