<svg xmlns="http://www.w3.org/2000/svg" width="48" height="48" viewBox="0 0 48 48">
  <g fill="none" fill-rule="evenodd">
    <path stroke="#000" stroke-width="2" d="M13.0176,9.0004 L24.9996,9.0004 L34.9996,19.0004 L34.9996,39.0004 L12.9996,39.0004 L13.0176,9.0004 Z M25,9.0004 L25,19.0004 L35,19.0004"/>
    <path fill="#000" d="M18.4148,30.0028 C18.8208,30.0028 19.1408,30.0288 19.3768,30.0788 C19.6088,30.1308 19.8208,30.2208 20.0108,30.3468 C20.5308,30.6988 20.7928,31.2268 20.7928,31.9308 C20.7928,32.5588 20.5768,33.0508 20.1448,33.4068 C19.9628,33.5608 19.7528,33.6708 19.5168,33.7368 C19.2828,33.8048 18.9928,33.8388 18.6468,33.8388 L17.3028,33.8388 L17.3028,35.9988 L15.9948,35.9988 L15.9948,30.0028 L18.4148,30.0028 Z M23.9354,30.0028 C24.3854,30.0028 24.7714,30.0568 25.0934,30.1588 C25.4154,30.2628 25.6974,30.4268 25.9434,30.6528 C26.5434,31.1988 26.8414,31.9568 26.8414,32.9268 C26.8414,33.9568 26.5594,34.7488 25.9934,35.3108 C25.7454,35.5588 25.4654,35.7368 25.1534,35.8408 C24.8414,35.9468 24.4434,35.9988 23.9634,35.9988 L21.5114,35.9988 L21.5114,30.0028 L23.9354,30.0028 Z M31.9648,30.0034 L31.9648,31.1114 L29.0528,31.1114 L29.0528,32.5014 L31.5888,32.5014 L31.5888,33.5314 L29.0528,33.5314 L29.0528,35.9994 L27.7448,35.9994 L27.7448,30.0034 L31.9648,30.0034 Z M23.7774,31.1108 L22.8194,31.1108 L22.8194,34.8928 L23.8274,34.8928 C24.1374,34.8928 24.3834,34.8608 24.5674,34.8008 C24.7494,34.7368 24.9094,34.6348 25.0454,34.4848 C25.3634,34.1428 25.5214,33.6388 25.5214,32.9728 C25.5214,32.3608 25.3754,31.8988 25.0814,31.5828 C24.7874,31.2688 24.3534,31.1108 23.7774,31.1108 Z M18.4008,31.1108 L17.3028,31.1108 L17.3028,32.8088 L18.4708,32.8088 C18.8188,32.8088 19.0688,32.7468 19.2208,32.6248 C19.4108,32.4728 19.5048,32.2448 19.5048,31.9468 C19.5048,31.6468 19.3948,31.4228 19.1768,31.2748 C19.0188,31.1648 18.7608,31.1108 18.4008,31.1108 Z"/>
  </g>
</svg>
