<svg xmlns="http://www.w3.org/2000/svg" width="36" height="36" viewBox="0 0 36 36"><path fill="none" stroke="#000" d="M21.76155,21.75 L3.74955,21.75 L3.74955,17.25 L17.24955,17.25 M21,17.25 L32.625,17.25 L32.625,21.75 L25.5,21.75 M11.25,17.25 L11.25,21.75 M14.25015,17.25 L14.25015,21.75 M28.875,17.25 L28.875,21.75 M2.25,2.25 L33.75,33.75 M29.25,14.25 C27.5955,14.25 26.25,12.9045 26.25,11.25 C26.25,10.8885 26.316,10.533 26.442,10.2 C25.3845,9.351 24.75,8.067 24.75,6.7035 C24.75,4.221 26.769,2.2035 29.25,2.2035 C31.731,2.2035 33.75,4.221 33.75,6.7035 C33.75,8.067 33.1155,9.351 32.058,10.2 C32.184,10.533 32.25,10.8885 32.25,11.25 C32.25,12.9045 30.9045,14.25 29.25,14.25 Z"/></svg>