<svg xmlns="http://www.w3.org/2000/svg" width="36" height="36" viewBox="0 0 36 36"><path fill="none" stroke="#000" d="M12.75,3 C12.75,4.7475 11.4975,6 9.75,6 C8.0025,6 6.75,4.7475 6.75,3 C6.75,1.2525 8.0025,0 9.75,0 C11.4975,0 12.75,1.2525 12.75,3 Z M6.75,3 L0,3 M12.75,3 L30,3 M30,12 L23.25,12 C23.25,10.305 21.945,9 20.25,9 C18.555,9 17.25,10.305 17.25,12 L0,12 M12.75,21 C12.75,22.722 11.472,24 9.75,24 C8.028,24 6.75,22.722 6.75,21 C6.75,19.278 8.028,18 9.75,18 C11.472,18 12.75,19.278 12.75,21 Z M6.75,21 L0,21 M12.75,21 L16.536,21 M19.5,26.25 L30,15.75 M30,26.25 L19.5,15.75" transform="translate(3 6.75)"/></svg>