<svg xmlns="http://www.w3.org/2000/svg" width="36" height="36" viewBox="0 0 36 36"><path fill="none" stroke="#000" d="M18.67215,15.3642 C25.54065,15.2532 33.00015,13.4997 33.00015,13.4997 M3,13.49985 C3,13.49985 9.4245,15.01035 15.837,15.31635 M15.74985,26.2506 C15.74985,25.4226 15.07785,24.7506 14.24985,24.7506 C13.42185,24.7506 12.74985,25.4226 12.74985,26.2506 L12.74985,31.5006 M18.75015,23.2503 C18.75015,22.4223 19.42215,21.7503 20.25015,21.7503 C21.07815,21.7503 21.75015,22.4223 21.75015,23.2503 L21.75015,28.5003 M21.75045,24.75045 C21.75045,23.92245 22.42245,23.25045 23.25045,23.25045 C24.07845,23.25045 24.75045,23.92245 24.75045,24.75045 L24.75045,30.00045 M24.7506,26.2506 C24.7506,25.4226 25.4226,24.7506 26.2506,24.7506 C27.0786,24.7506 27.7506,25.4226 27.7506,26.2506 L27.7506,31.5006 M18.75,20.1939 C24.0495,19.6284 33,13.4994 33,13.4994 C33,13.4994 24.879,9.7494 21.75,9.7494 C18.621,9.7494 18.294,11.2494 18,11.2494 C17.706,11.2494 17.379,9.7494 14.25,9.7494 C11.121,9.7494 3,13.4994 3,13.4994 C3,13.4994 10.4205,18.5844 15.75,19.9239 M18.75,26.99985 L18.75,15.74985 C18.75,14.92185 18.078,14.24985 17.25,14.24985 C16.422,14.24985 15.75,14.92185 15.75,15.74985 L15.75,28.49985"/></svg>