<svg xmlns="http://www.w3.org/2000/svg" width="48" height="48" viewBox="0 0 48 48"><path fill="none" stroke="#000" d="M24.5,2.5 L39.5,6.5 L37.357,12.5 L11.643,12.5 L9.5,6.5 L24.5,2.5 Z M34.68,12.5 C34.46,12.76 34.24,13.02 34,13.26 C31.54,15.87 28.2,17.5 24.5,17.5 C20.45,17.5 16.84,15.55 14.32,12.5 M29.9681,26.6026 C28.8371,27.7406 26.8091,28.4986 24.4991,28.4986 C22.3291,28.4986 20.4091,27.8286 19.2451,26.8046 M25.9298,9.7851 L24.4998,10.5001 L23.1638,9.8321 C22.7568,9.6281 22.4998,9.2131 22.4998,8.7581 L22.4998,5.5001 L26.4998,5.5001 L26.4998,8.8621 C26.4998,9.2531 26.2788,9.6101 25.9298,9.7851 Z M28.5,19.5 C27.948,19.5 27.5,19.948 27.5,20.5 C27.5,21.052 27.948,21.5 28.5,21.5 C29.052,21.5 29.5,21.052 29.5,20.5 C29.5,19.948 29.052,19.5 28.5,19.5 M20.5,19.5 C19.948,19.5 19.5,19.948 19.5,20.5 C19.5,21.052 19.948,21.5 20.5,21.5 C21.052,21.5 21.5,21.052 21.5,20.5 C21.5,19.948 21.052,19.5 20.5,19.5 M11.6429,12.5 C11.6429,12.5 12.2429,25.357 13.7469,27.541 C17.7599,33.363 22.2349,34.541 24.4799,34.541 C26.7279,34.541 31.2029,33.363 35.2159,27.541 C36.7199,25.357 37.3569,12.5 37.3569,12.5 M24.5,40.5 L24.5,46 M16.5,30.7589 L16.5,34.4999 M4.5,46 L4.5,44.378 C4.5,41.987 5.806,39.788 7.904,38.643 L16.5,34.5 M44.5,46 L44.5,44.378 C44.5,41.987 43.194,39.788 41.096,38.643 L32.5,34.5 M32.5,34.5 L32.5,30.721 M16.5,34.5 C17.389,37.949 20.774,40.5 24.5,40.5 C28.226,40.5 31.611,37.949 32.5,34.5"/></svg>