<svg xmlns="http://www.w3.org/2000/svg" width="48" height="48" viewBox="0 0 48 48"><path fill="none" stroke="#000" d="M30.5,8.5 L30.5,14.31 C30.34,14.38 30.19,14.44 30.02,14.5 C28.32,15.13 26.24,15.5 24,15.5 C21.76,15.5 19.68,15.13 17.98,14.5 C17.81,14.44 17.66,14.38 17.5,14.31 L17.5,8.5 M35.5,7 C32.989,7.764 26.585,9.713 24,10.5 C21.388,9.705 15.035,7.772 12.5,7 L24,3.5 L35.5,7 Z M12.5,18 L13.75,20.125 L15,22.25 L12.5,22.25 L10,22.25 L11.25,20.125 L12.5,18 Z M12.5,7 L12.5,18 M32.5218,27.8053 C30.7278,30.9403 26.9978,34.9883 23.9998,37.0003 C21.0038,34.9903 17.2718,30.9393 15.4778,27.8053 M35.1806,30.6597 C32.1196,34.8797 27.7006,39.4317 23.9996,41.9147 C20.3016,39.4337 15.8806,34.8807 12.8196,30.6607 M22,22.5 C22.46,23.11 23.18,23.5 24,23.5 C24.82,23.5 25.54,23.11 26,22.5 M27.5,18.5 C27.5,19.052 27.052,19.5 26.5,19.5 C25.948,19.5 25.5,19.052 25.5,18.5 C25.5,17.948 25.948,17.5 26.5,17.5 C27.052,17.5 27.5,17.948 27.5,18.5 Z M22.5,18.5 C22.5,19.052 22.052,19.5 21.5,19.5 C20.948,19.5 20.5,19.052 20.5,18.5 C20.5,17.948 20.948,17.5 21.5,17.5 C22.052,17.5 22.5,17.948 22.5,18.5 Z M30.3033,14.3918 C31.0603,15.7198 31.5003,17.3018 31.5003,18.9998 C31.5003,23.6948 28.1423,27.4998 24.0003,27.4998 C19.8583,27.4998 16.5003,23.6948 16.5003,18.9998 C16.5003,17.3018 16.9393,15.7188 17.6973,14.3918 M19.1736,25.5017 C12.9786,28.1207 8.4996,35.6307 8.4996,44.4997 L39.4996,44.4997 C39.4996,35.6307 35.0216,28.1207 28.8266,25.5017"/></svg>