<svg xmlns="http://www.w3.org/2000/svg" width="48" height="48" viewBox="0 0 48 48"><path fill="none" stroke="#000" d="M25.05,29.43 L26,37.5 L24,39.5 L22,37.5 L22.95,29.43 M28.5,22.79 L28.5,26.5 L24.5,24.5 M19.5,22.79 L19.5,26.5 L23.5,24.5 M24.7539,29.5 L23.2459,29.5 C22.8339,29.5 22.4999,29.166 22.4999,28.754 L22.4999,28.246 C22.4999,27.834 22.8339,27.5 23.2459,27.5 L24.7539,27.5 C25.1659,27.5 25.4999,27.834 25.4999,28.246 L25.4999,28.754 C25.4999,29.166 25.1659,29.5 24.7539,29.5 Z M23.5,27.5 L21.63,25.43 M26.37,25.43 L24.5,27.5 M22,19.5 C22.46,20.11 23.18,20.5 24,20.5 C24.82,20.5 25.54,20.11 26,19.5 M27.5,15.5 C27.5,16.052 27.052,16.5 26.5,16.5 C25.948,16.5 25.5,16.052 25.5,15.5 C25.5,14.948 25.948,14.5 26.5,14.5 C27.052,14.5 27.5,14.948 27.5,15.5 Z M22.5,15.5 C22.5,16.052 22.052,16.5 21.5,16.5 C20.948,16.5 20.5,16.052 20.5,15.5 C20.5,14.948 20.948,14.5 21.5,14.5 C22.052,14.5 22.5,14.948 22.5,15.5 Z M31.5,16 C31.5,20.694 28.142,24.5 24,24.5 C19.858,24.5 16.5,20.694 16.5,16 C16.5,11.306 19.858,7.5 24,7.5 C28.142,7.5 31.5,11.306 31.5,16 Z M19.1736,22.5017 C12.9786,25.1207 8.4996,32.6307 8.4996,41.4997 L39.4996,41.4997 C39.4996,32.6307 35.0216,25.1207 28.8266,22.5017 M31.1974,13.6249 C29.4034,13.0559 27.8594,12.2429 26.7114,11.2479 C26.4144,10.9899 25.9864,10.9419 25.6384,11.1259 C25.2014,11.3579 24.6304,11.4999 24.0004,11.4999 C23.3694,11.4999 22.7984,11.3579 22.3614,11.1259 C22.0134,10.9419 21.5854,10.9899 21.2884,11.2479 C20.1404,12.2429 18.5964,13.0559 16.8024,13.6249"/></svg>