<svg xmlns="http://www.w3.org/2000/svg" width="48" height="48" viewBox="0 0 48 48"><path fill="none" stroke="#000" d="M31.5,20.5 L25,20.5 M22,31.5 L17,31.5 M27.5,15.5 C27.5,16.052 27.052,16.5 26.5,16.5 C25.948,16.5 25.5,16.052 25.5,15.5 C25.5,14.948 25.948,14.5 26.5,14.5 C27.052,14.5 27.5,14.948 27.5,15.5 Z M22.5,15.5 C22.5,16.052 22.052,16.5 21.5,16.5 C20.948,16.5 20.5,16.052 20.5,15.5 C20.5,14.948 20.948,14.5 21.5,14.5 C22.052,14.5 22.5,14.948 22.5,15.5 Z M34.5,20.5 L31.5,20.5 L31.5,14.5 L34.5,14.5 C35.052,14.5 35.5,14.948 35.5,15.5 L35.5,19.5 C35.5,20.052 35.052,20.5 34.5,20.5 Z M13.5,20.5 L16.5,20.5 L16.5,14.5 L13.5,14.5 C12.948,14.5 12.5,14.948 12.5,15.5 L12.5,19.5 C12.5,20.052 12.948,20.5 13.5,20.5 Z M18.5,31.5 L18.5,30 M14.5,14.5 C14.5,9.529 18.753,5.5 24,5.5 C29.247,5.5 33.5,9.529 33.5,14.5 M31.5,16 C31.5,20.694 28.142,24.5 24,24.5 C19.858,24.5 16.5,20.694 16.5,16 C16.5,11.306 19.858,7.5 24,7.5 C28.142,7.5 31.5,11.306 31.5,16 Z M19.1736,22.5017 C12.9786,25.1207 8.4996,32.6307 8.4996,41.4997 L39.4996,41.4997 C39.4996,32.6307 35.0216,25.1207 28.8266,22.5017 M31.1974,13.6249 C29.4034,13.0559 27.8594,12.2429 26.7114,11.2479 C26.4144,10.9899 25.9864,10.9419 25.6384,11.1259 C25.2014,11.3579 24.6304,11.4999 24.0004,11.4999 C23.3694,11.4999 22.7984,11.3579 22.3614,11.1259 C22.0134,10.9419 21.5854,10.9899 21.2884,11.2479 C20.1404,12.2429 18.5964,13.0559 16.8024,13.6249"/></svg>