<svg xmlns="http://www.w3.org/2000/svg" width="48" height="48" viewBox="0 0 48 48"><path fill="none" stroke="#000" stroke-width="2" d="M15,20 L15,9 M41,9 L41,43 L15,43 L15,36 M21,19 L35,19 L35,13 L21,13 L21,19 Z M21,29 L35,29 L35,23 L21,23 L21,29 Z M21,39 L35,39 L35,33 L21,33 L21,39 Z M15,43 L4,43 M44,9 L12,9 M11,43 L11,32.5 M13.7916,25.0798 C13.9216,24.7438 13.9996,24.3818 13.9996,23.9998 C13.9996,22.3438 12.6576,20.9998 10.9996,20.9998 C9.3436,20.9998 7.9996,22.3438 7.9996,23.9998 C7.9996,24.3818 8.0776,24.7438 8.2076,25.0798 C6.3776,25.4478 4.9996,27.0618 4.9996,28.9998 C4.9996,31.2098 6.7916,32.9998 8.9996,32.9998 C9.7316,32.9998 10.4096,32.7878 10.9996,32.4458 C11.5896,32.7878 12.2676,32.9998 12.9996,32.9998 C15.2096,32.9998 16.9996,31.2098 16.9996,28.9998 C16.9996,27.0618 15.6216,25.4478 13.7916,25.0798 Z"/></svg>