<svg xmlns="http://www.w3.org/2000/svg" width="48" height="48" viewBox="0 0 48 48">
  <path fill="none" stroke="#000" stroke-width="2" d="M8,5 C6.342,5 5,6.342 5,8 L5,43 L11,43 L11,8 C11,6.342 9.658,5 8,5 Z M18,5 C16.342,5 15,6.342 15,8 L15,43 L21,43 L21,8 C21,6.342 19.658,5 18,5 Z M42,44 L28,6 M26,40 L32,42 M15,31 L21,31 M5,31 L11,31 M28,44 L42,6 M38,42 L44,40 M5,22 C5,20.342 6.342,19 8,19 C9.658,19 11,20.342 11,22 M15,22 C15,20.342 16.342,19 18,19 C19.658,19 21,20.342 21,22 M29.3124,9.5624 L28.0004,10.0004 L30.0004,16.0004 L31.5004,15.5004 M40.6876,9.5624 L41.9996,10.0004 L39.9996,16.0004 L38.4996,15.5004"/>
</svg>
