<svg xmlns="http://www.w3.org/2000/svg" width="48" height="48" viewBox="0 0 48 48">
  <path fill="none" stroke="#000" stroke-width="2" d="M27.3946,21.002 C24.0806,15.262 16.7406,13.296 11.0026,16.61 C5.2626,19.924 3.2966,27.262 6.6086,33.002 L27.3946,21.002 Z M11.8066,30.002 C8.4926,24.262 8.1326,18.266 11.0026,16.61 C13.8726,14.952 18.8846,18.262 22.1986,24.002 M17.002,27.002 L25,43 M4,43 L44,43 M43,13 C43,16.314 40.314,19 37,19 C33.686,19 31,16.314 31,13 C31,9.686 33.686,7 37,7 C40.314,7 43,9.686 43,13 Z"/>
</svg>
