<svg xmlns="http://www.w3.org/2000/svg" width="48" height="48" viewBox="0 0 48 48">
  <path fill="none" stroke="#000" stroke-width="2" d="M33,16 C33,21.014 29.014,25 24,25 C18.986,25 15,21.014 15,16 C15,10.986 18.986,7 24,7 C29.014,7 33,10.986 33,16 Z M27,15.9542 C27,17.6362 25.722,19.0002 24.01,19.0002 C22.298,19.0002 21,17.6362 21,15.9542 C21,14.2722 22.298,13.0002 24.01,13.0002 C25.722,13.0002 27,14.2722 27,15.9542 Z M19,23.5078 L19,37.5998 L24,42.5998 L29,37.5998 L29,23.5078 M24,29 L29,29 M23.9864,33 L29.0004,33"/>
</svg>
