<svg xmlns="http://www.w3.org/2000/svg" width="48" height="48" viewBox="0 0 48 48">
  <path fill="none" stroke="#000" stroke-width="2" d="M37,25.1752 L37,38.9992 L11,38.9612 L11,24.8812 M11,30.98 L37,30.98 M11,34.98 L37,34.98 M32.9394,21.9994 C32.7474,23.6574 33.9354,25.1554 35.5934,25.3474 C37.2494,25.5394 38.7474,24.3514 38.9394,22.6934 C38.9674,22.4634 38.9674,22.2314 38.9394,21.9994 L38.9394,15.0194 L8.9994,15.0194 L8.9994,21.9994 C8.8994,23.5534 10.0794,24.8954 11.6334,24.9954 C11.7214,25.0014 11.8114,25.0014 11.8994,24.9994 C13.4494,25.0474 14.7634,23.6074 14.8794,22.0594 C14.8094,20.4494 16.0594,19.0854 17.6694,19.0154 C17.7794,19.0114 17.8914,19.0114 17.9994,19.0194 C19.6114,19.0074 20.9294,20.3874 20.9394,21.9994 C20.9394,22.0274 20.9394,21.9734 20.9394,21.9994 C20.7474,23.6574 21.9374,25.1554 23.5934,25.3474 C25.2494,25.5394 26.7474,24.3514 26.9394,22.6934 C26.9674,22.4634 26.9674,22.2314 26.9394,21.9994 C26.7474,20.3434 27.9354,19.0034 29.5934,18.8134 C31.2494,18.6214 32.7474,19.8094 32.9394,21.4654 L32.9394,21.9994 Z M15,15.02 L15,8 M33,15.02 L33,8 M27,15.02 L27,8 M21,15.02 L21,8"/>
</svg>
