<svg xmlns="http://www.w3.org/2000/svg" width="48" height="48" viewBox="0 0 48 48">
  <path fill="none" stroke="#000" stroke-width="2" d="M18.1406,25.3588 C12.3406,27.5608 9.0006,34.4008 9.0006,40.9988 L35.0006,40.9988 C35.0006,34.4008 31.6166,27.6008 25.8166,25.4008 M22,12.9994 C25.314,12.9994 28,16.1334 28,19.9994 C28,23.8654 25.314,26.9994 22,26.9994 C18.686,26.9994 16,23.8654 16,19.9994 C16,16.1334 18.686,12.9994 22,12.9994 Z M22,12.9994 C25.314,12.9994 28,16.1334 28,19.9994 C28,23.8654 25.314,26.9994 22,26.9994 C18.686,26.9994 16,23.8654 16,19.9994 C16,16.1334 18.686,12.9994 22,12.9994 Z M22,12.9994 C22,9.1994 24.6,6.9994 28,6.9994 C31.4,6.9994 34,10.1994 34,13.9994 C34,17.7994 31.4,20.9994 28,20.9994 M34,34.9994 L41,34.9994 C41,28.3994 37.538,21.6894 31.738,19.4894"/>
</svg>
