<svg xmlns="http://www.w3.org/2000/svg" width="48" height="48" viewBox="0 0 48 48">
  <path fill="none" stroke="#000" stroke-width="2" d="M25,12 C25,15.828 22.456,19 19,19 C15.544,19 13,15.828 13,12 C13,8.172 15.544,5 19,5 C22.456,5 25,8.172 25,12 Z M15.167,17.4296 C9.779,21.4176 7.193,27.1016 7.001,34.9996 L20.001,34.9996 M22.7608,17.4786 C25.2508,19.1986 26.9848,21.2226 28.1548,23.4726 M39,31 C39,34.344 36.344,37 33,37 C29.656,37 27,34.344 27,31 C27,27.656 29.656,25 33,25 C36.344,25 39,27.656 39,31 Z M35,30.998 C35,32.122 34.132,33 33.004,33 C31.876,33 31,32.122 31,30.998 C31,29.874 31.876,29 33.004,29 C34.132,29 35,29.874 35,30.998 Z M27.1094,32.2832 L20.9994,38.4992 L20.9994,42.9992 L25.4994,42.9992 L31.5834,36.9992"/>
</svg>
