<svg xmlns="http://www.w3.org/2000/svg" width="48" height="48" viewBox="0 0 48 48">
  <path fill="none" stroke="#000" stroke-width="2" d="M12.5,21 L17.5,21 L15,16.5 L12.5,21 Z M15,16.5 L15,10 M15,10 L24,7 L33,10 L24,12.99 L15,10 Z M19,11.3018 L19,15.4998 C21.56,17.8598 25.718,18.4758 29,15.4998 L29,11.2918 M19.2608,15.705 C18.4688,16.897 18.0008,18.393 18.0008,19.999 C18.0008,23.817 20.6428,26.999 23.9828,26.999 C27.3248,26.999 30.0008,23.817 30.0008,19.999 C30.0008,18.413 29.5368,16.937 28.7588,15.753 M20.2706,25.4932 C14.8306,27.4772 11.0006,33.2852 11.0006,40.9892 L37.0006,40.9992 C37.0006,33.9352 33.3666,27.6232 27.7286,25.4712"/>
</svg>
