<svg xmlns="http://www.w3.org/2000/svg" width="48" height="48" viewBox="0 0 48 48">
  <path fill="none" stroke="#000" stroke-width="2" d="M41,33 C41,36.314 32.942,39 23,39 C13.058,39 5,36.314 5,33 C5,29.686 13.058,27 23,27 C32.942,27 41,29.686 41,33 Z M27,16 C27,18.762 25.208,21 23,21 C20.792,21 19,18.762 19,16 C19,13.238 20.792,11 23,11 C25.208,11 27,13.238 27,16 Z M27,16 C27,18.762 25.208,21 23,21 C20.792,21 19,18.762 19,16 C19,13.238 20.792,11 23,11 C25.208,11 27,13.238 27,16 Z M37,18 C37,20.762 35.208,23 33,23 C30.792,23 29,20.762 29,18 C29,15.238 30.792,13 33,13 C35.208,13 37,15.238 37,18 Z M17,18 C17,20.762 15.208,23 13,23 C10.792,23 9,20.762 9,18 C9,15.238 10.792,13 13,13 C15.208,13 17,15.238 17,18 Z M28.9258,27.3398 C28.6678,24.0138 27.3258,21.2418 25.4818,19.8918 M20.5176,19.8926 C18.6736,21.2426 17.3336,24.0146 17.0736,27.3406 M20.5176,19.8926 C18.6736,21.2426 17.3336,24.0146 17.0736,27.3406 M17.6026,24.455 C17.0326,23.367 16.3106,22.485 15.4906,21.883 M10.5108,21.8858 C8.4968,23.3538 7.0788,26.5258 7.0148,30.2478 M38.9882,30.252 C38.9262,26.528 37.5122,23.35 35.4922,21.882 M30.5078,21.8818 C29.6838,22.4798 28.9658,23.3638 28.3958,24.4518"/>
</svg>
