<svg xmlns="http://www.w3.org/2000/svg" width="36" height="36" viewBox="0 0 36 36"><path fill="none" stroke="#000" d="M22.27035,20.0316 C21.08685,19.2216 19.64985,18.7506 18.07935,18.7506 C14.97285,18.7506 12.39285,20.5956 11.24985,23.2506 M26.25,17.25 C26.25,17.25 23.25,21.75 23.25,24.75 C23.25,26.406 24.594,27.75 26.25,27.75 C27.906,27.75 29.25,26.406 29.25,24.75 C29.25,21.75 26.25,17.25 26.25,17.25 Z M23.6802,29.41785 C21.9702,30.26985 20.0412,30.74985 17.9997,30.74985 C10.9587,30.74985 5.2497,25.04085 5.2497,17.99985 C5.2497,10.95885 10.9587,5.24985 17.9997,5.24985 C25.0422,5.24985 30.7497,10.95885 30.7497,17.99985 C30.7497,18.45285 30.7257,18.89985 30.6807,19.33935 M14.25,13.5 C14.25,13.914 13.914,14.25 13.5,14.25 C13.086,14.25 12.75,13.914 12.75,13.5 C12.75,13.086 13.086,12.75 13.5,12.75 C13.914,12.75 14.25,13.086 14.25,13.5 Z M23.25,13.5 C23.25,13.914 22.914,14.25 22.5,14.25 C22.086,14.25 21.75,13.914 21.75,13.5 C21.75,13.086 22.086,12.75 22.5,12.75 C22.914,12.75 23.25,13.086 23.25,13.5 Z"/></svg>